<?xml version="1.0" encoding="utf-8" standalone="no"?>
<!DOCTYPE svg PUBLIC "-//W3C//DTD SVG 1.1//EN"
  "http://www.w3.org/Graphics/SVG/1.1/DTD/svg11.dtd">
<!-- Created with matplotlib (http://matplotlib.org/) -->
<svg height="288pt" version="1.1" viewBox="0 0 432 288" width="432pt" xmlns="http://www.w3.org/2000/svg" xmlns:xlink="http://www.w3.org/1999/xlink">
 <defs>
  <style type="text/css">
*{stroke-linecap:butt;stroke-linejoin:round;}
  </style>
 </defs>
 <g id="figure_1">
  <g id="patch_1">
   <path d="M 0 288 
L 432 288 
L 432 0 
L 0 0 
z
" style="fill:#ffffff;"/>
  </g>
  <g id="axes_1">
   <g id="patch_2">
    <path d="M 17.764646 275.905354 
L 420.777354 275.905354 
L 420.777354 2.834646 
L 17.764646 2.834646 
z
" style="fill:#ffffff;"/>
   </g>
   <g id="matplotlib.axis_1">
    <g id="xtick_1">
     <g id="line2d_1">
      <path clip-path="url(#pbb269c0e47)" d="M 97.964175 275.905354 
L 97.964175 2.834646 
" style="fill:none;opacity:0.1;stroke:#000000;stroke-linecap:square;stroke-width:0.5;"/>
     </g>
     <g id="line2d_2">
      <defs>
       <path d="M 0 0 
L 0 -3.5 
" id="m61f1ee4f77" style="stroke:#000000;stroke-width:0.8;"/>
      </defs>
      <g>
       <use style="stroke:#000000;stroke-width:0.8;" x="97.964175" xlink:href="#m61f1ee4f77" y="275.905354"/>
      </g>
     </g>
     <g id="text_1">
      <!-- 200 -->
      <defs>
       <path d="M 19.1875 8.296875 
L 53.609375 8.296875 
L 53.609375 0 
L 7.328125 0 
L 7.328125 8.296875 
Q 12.9375 14.109375 22.625 23.890625 
Q 32.328125 33.6875 34.8125 36.53125 
Q 39.546875 41.84375 41.421875 45.53125 
Q 43.3125 49.21875 43.3125 52.78125 
Q 43.3125 58.59375 39.234375 62.25 
Q 35.15625 65.921875 28.609375 65.921875 
Q 23.96875 65.921875 18.8125 64.3125 
Q 13.671875 62.703125 7.8125 59.421875 
L 7.8125 69.390625 
Q 13.765625 71.78125 18.9375 73 
Q 24.125 74.21875 28.421875 74.21875 
Q 39.75 74.21875 46.484375 68.546875 
Q 53.21875 62.890625 53.21875 53.421875 
Q 53.21875 48.921875 51.53125 44.890625 
Q 49.859375 40.875 45.40625 35.40625 
Q 44.1875 33.984375 37.640625 27.21875 
Q 31.109375 20.453125 19.1875 8.296875 
z
" id="DejaVuSans-32"/>
       <path d="M 31.78125 66.40625 
Q 24.171875 66.40625 20.328125 58.90625 
Q 16.5 51.421875 16.5 36.375 
Q 16.5 21.390625 20.328125 13.890625 
Q 24.171875 6.390625 31.78125 6.390625 
Q 39.453125 6.390625 43.28125 13.890625 
Q 47.125 21.390625 47.125 36.375 
Q 47.125 51.421875 43.28125 58.90625 
Q 39.453125 66.40625 31.78125 66.40625 
z
M 31.78125 74.21875 
Q 44.046875 74.21875 50.515625 64.515625 
Q 56.984375 54.828125 56.984375 36.375 
Q 56.984375 17.96875 50.515625 8.265625 
Q 44.046875 -1.421875 31.78125 -1.421875 
Q 19.53125 -1.421875 13.0625 8.265625 
Q 6.59375 17.96875 6.59375 36.375 
Q 6.59375 54.828125 13.0625 64.515625 
Q 19.53125 74.21875 31.78125 74.21875 
z
" id="DejaVuSans-30"/>
      </defs>
      <g transform="translate(90.329175 285.484104)scale(0.08 -0.08)">
       <use xlink:href="#DejaVuSans-32"/>
       <use x="63.623047" xlink:href="#DejaVuSans-30"/>
       <use x="127.246094" xlink:href="#DejaVuSans-30"/>
      </g>
     </g>
    </g>
    <g id="xtick_2">
     <g id="line2d_3">
      <path clip-path="url(#pbb269c0e47)" d="M 178.566716 275.905354 
L 178.566716 2.834646 
" style="fill:none;opacity:0.1;stroke:#000000;stroke-linecap:square;stroke-width:0.5;"/>
     </g>
     <g id="line2d_4">
      <g>
       <use style="stroke:#000000;stroke-width:0.8;" x="178.566716" xlink:href="#m61f1ee4f77" y="275.905354"/>
      </g>
     </g>
     <g id="text_2">
      <!-- 400 -->
      <defs>
       <path d="M 37.796875 64.3125 
L 12.890625 25.390625 
L 37.796875 25.390625 
z
M 35.203125 72.90625 
L 47.609375 72.90625 
L 47.609375 25.390625 
L 58.015625 25.390625 
L 58.015625 17.1875 
L 47.609375 17.1875 
L 47.609375 0 
L 37.796875 0 
L 37.796875 17.1875 
L 4.890625 17.1875 
L 4.890625 26.703125 
z
" id="DejaVuSans-34"/>
      </defs>
      <g transform="translate(170.931716 285.484104)scale(0.08 -0.08)">
       <use xlink:href="#DejaVuSans-34"/>
       <use x="63.623047" xlink:href="#DejaVuSans-30"/>
       <use x="127.246094" xlink:href="#DejaVuSans-30"/>
      </g>
     </g>
    </g>
    <g id="xtick_3">
     <g id="line2d_5">
      <path clip-path="url(#pbb269c0e47)" d="M 259.169258 275.905354 
L 259.169258 2.834646 
" style="fill:none;opacity:0.1;stroke:#000000;stroke-linecap:square;stroke-width:0.5;"/>
     </g>
     <g id="line2d_6">
      <g>
       <use style="stroke:#000000;stroke-width:0.8;" x="259.169258" xlink:href="#m61f1ee4f77" y="275.905354"/>
      </g>
     </g>
     <g id="text_3">
      <!-- 600 -->
      <defs>
       <path d="M 33.015625 40.375 
Q 26.375 40.375 22.484375 35.828125 
Q 18.609375 31.296875 18.609375 23.390625 
Q 18.609375 15.53125 22.484375 10.953125 
Q 26.375 6.390625 33.015625 6.390625 
Q 39.65625 6.390625 43.53125 10.953125 
Q 47.40625 15.53125 47.40625 23.390625 
Q 47.40625 31.296875 43.53125 35.828125 
Q 39.65625 40.375 33.015625 40.375 
z
M 52.59375 71.296875 
L 52.59375 62.3125 
Q 48.875 64.0625 45.09375 64.984375 
Q 41.3125 65.921875 37.59375 65.921875 
Q 27.828125 65.921875 22.671875 59.328125 
Q 17.53125 52.734375 16.796875 39.40625 
Q 19.671875 43.65625 24.015625 45.921875 
Q 28.375 48.1875 33.59375 48.1875 
Q 44.578125 48.1875 50.953125 41.515625 
Q 57.328125 34.859375 57.328125 23.390625 
Q 57.328125 12.15625 50.6875 5.359375 
Q 44.046875 -1.421875 33.015625 -1.421875 
Q 20.359375 -1.421875 13.671875 8.265625 
Q 6.984375 17.96875 6.984375 36.375 
Q 6.984375 53.65625 15.1875 63.9375 
Q 23.390625 74.21875 37.203125 74.21875 
Q 40.921875 74.21875 44.703125 73.484375 
Q 48.484375 72.75 52.59375 71.296875 
z
" id="DejaVuSans-36"/>
      </defs>
      <g transform="translate(251.534258 285.484104)scale(0.08 -0.08)">
       <use xlink:href="#DejaVuSans-36"/>
       <use x="63.623047" xlink:href="#DejaVuSans-30"/>
       <use x="127.246094" xlink:href="#DejaVuSans-30"/>
      </g>
     </g>
    </g>
    <g id="xtick_4">
     <g id="line2d_7">
      <path clip-path="url(#pbb269c0e47)" d="M 339.7718 275.905354 
L 339.7718 2.834646 
" style="fill:none;opacity:0.1;stroke:#000000;stroke-linecap:square;stroke-width:0.5;"/>
     </g>
     <g id="line2d_8">
      <g>
       <use style="stroke:#000000;stroke-width:0.8;" x="339.7718" xlink:href="#m61f1ee4f77" y="275.905354"/>
      </g>
     </g>
     <g id="text_4">
      <!-- 800 -->
      <defs>
       <path d="M 31.78125 34.625 
Q 24.75 34.625 20.71875 30.859375 
Q 16.703125 27.09375 16.703125 20.515625 
Q 16.703125 13.921875 20.71875 10.15625 
Q 24.75 6.390625 31.78125 6.390625 
Q 38.8125 6.390625 42.859375 10.171875 
Q 46.921875 13.96875 46.921875 20.515625 
Q 46.921875 27.09375 42.890625 30.859375 
Q 38.875 34.625 31.78125 34.625 
z
M 21.921875 38.8125 
Q 15.578125 40.375 12.03125 44.71875 
Q 8.5 49.078125 8.5 55.328125 
Q 8.5 64.0625 14.71875 69.140625 
Q 20.953125 74.21875 31.78125 74.21875 
Q 42.671875 74.21875 48.875 69.140625 
Q 55.078125 64.0625 55.078125 55.328125 
Q 55.078125 49.078125 51.53125 44.71875 
Q 48 40.375 41.703125 38.8125 
Q 48.828125 37.15625 52.796875 32.3125 
Q 56.78125 27.484375 56.78125 20.515625 
Q 56.78125 9.90625 50.3125 4.234375 
Q 43.84375 -1.421875 31.78125 -1.421875 
Q 19.734375 -1.421875 13.25 4.234375 
Q 6.78125 9.90625 6.78125 20.515625 
Q 6.78125 27.484375 10.78125 32.3125 
Q 14.796875 37.15625 21.921875 38.8125 
z
M 18.3125 54.390625 
Q 18.3125 48.734375 21.84375 45.5625 
Q 25.390625 42.390625 31.78125 42.390625 
Q 38.140625 42.390625 41.71875 45.5625 
Q 45.3125 48.734375 45.3125 54.390625 
Q 45.3125 60.0625 41.71875 63.234375 
Q 38.140625 66.40625 31.78125 66.40625 
Q 25.390625 66.40625 21.84375 63.234375 
Q 18.3125 60.0625 18.3125 54.390625 
z
" id="DejaVuSans-38"/>
      </defs>
      <g transform="translate(332.1368 285.484104)scale(0.08 -0.08)">
       <use xlink:href="#DejaVuSans-38"/>
       <use x="63.623047" xlink:href="#DejaVuSans-30"/>
       <use x="127.246094" xlink:href="#DejaVuSans-30"/>
      </g>
     </g>
    </g>
    <g id="xtick_5">
     <g id="line2d_9">
      <path clip-path="url(#pbb269c0e47)" d="M 420.374342 275.905354 
L 420.374342 2.834646 
" style="fill:none;opacity:0.1;stroke:#000000;stroke-linecap:square;stroke-width:0.5;"/>
     </g>
     <g id="line2d_10">
      <g>
       <use style="stroke:#000000;stroke-width:0.8;" x="420.374342" xlink:href="#m61f1ee4f77" y="275.905354"/>
      </g>
     </g>
     <g id="text_5">
      <!-- 1000 -->
      <defs>
       <path d="M 12.40625 8.296875 
L 28.515625 8.296875 
L 28.515625 63.921875 
L 10.984375 60.40625 
L 10.984375 69.390625 
L 28.421875 72.90625 
L 38.28125 72.90625 
L 38.28125 8.296875 
L 54.390625 8.296875 
L 54.390625 0 
L 12.40625 0 
z
" id="DejaVuSans-31"/>
      </defs>
      <g transform="translate(410.194342 285.484104)scale(0.08 -0.08)">
       <use xlink:href="#DejaVuSans-31"/>
       <use x="63.623047" xlink:href="#DejaVuSans-30"/>
       <use x="127.246094" xlink:href="#DejaVuSans-30"/>
       <use x="190.869141" xlink:href="#DejaVuSans-30"/>
      </g>
     </g>
    </g>
   </g>
   <g id="matplotlib.axis_2">
    <g id="ytick_1">
     <g id="line2d_11">
      <path clip-path="url(#pbb269c0e47)" d="M 17.764646 265.48682 
L 420.777354 265.48682 
" style="fill:none;opacity:0.1;stroke:#000000;stroke-linecap:square;stroke-width:0.5;"/>
     </g>
     <g id="line2d_12">
      <defs>
       <path d="M 0 0 
L 3.5 0 
" id="m8a0b23c70e" style="stroke:#000000;stroke-width:0.8;"/>
      </defs>
      <g>
       <use style="stroke:#000000;stroke-width:0.8;" x="17.764646" xlink:href="#m8a0b23c70e" y="265.48682"/>
      </g>
     </g>
     <g id="text_6">
      <!-- 2.0 -->
      <defs>
       <path d="M 10.6875 12.40625 
L 21 12.40625 
L 21 0 
L 10.6875 0 
z
" id="DejaVuSans-2e"/>
      </defs>
      <g transform="translate(1.542146 268.526195)scale(0.08 -0.08)">
       <use xlink:href="#DejaVuSans-32"/>
       <use x="63.623047" xlink:href="#DejaVuSans-2e"/>
       <use x="95.410156" xlink:href="#DejaVuSans-30"/>
      </g>
     </g>
    </g>
    <g id="ytick_2">
     <g id="line2d_13">
      <path clip-path="url(#pbb269c0e47)" d="M 17.764646 220.938361 
L 420.777354 220.938361 
" style="fill:none;opacity:0.1;stroke:#000000;stroke-linecap:square;stroke-width:0.5;"/>
     </g>
     <g id="line2d_14">
      <g>
       <use style="stroke:#000000;stroke-width:0.8;" x="17.764646" xlink:href="#m8a0b23c70e" y="220.938361"/>
      </g>
     </g>
     <g id="text_7">
      <!-- 2.5 -->
      <defs>
       <path d="M 10.796875 72.90625 
L 49.515625 72.90625 
L 49.515625 64.59375 
L 19.828125 64.59375 
L 19.828125 46.734375 
Q 21.96875 47.46875 24.109375 47.828125 
Q 26.265625 48.1875 28.421875 48.1875 
Q 40.625 48.1875 47.75 41.5 
Q 54.890625 34.8125 54.890625 23.390625 
Q 54.890625 11.625 47.5625 5.09375 
Q 40.234375 -1.421875 26.90625 -1.421875 
Q 22.3125 -1.421875 17.546875 -0.640625 
Q 12.796875 0.140625 7.71875 1.703125 
L 7.71875 11.625 
Q 12.109375 9.234375 16.796875 8.0625 
Q 21.484375 6.890625 26.703125 6.890625 
Q 35.15625 6.890625 40.078125 11.328125 
Q 45.015625 15.765625 45.015625 23.390625 
Q 45.015625 31 40.078125 35.4375 
Q 35.15625 39.890625 26.703125 39.890625 
Q 22.75 39.890625 18.8125 39.015625 
Q 14.890625 38.140625 10.796875 36.28125 
z
" id="DejaVuSans-35"/>
      </defs>
      <g transform="translate(1.542146 223.977736)scale(0.08 -0.08)">
       <use xlink:href="#DejaVuSans-32"/>
       <use x="63.623047" xlink:href="#DejaVuSans-2e"/>
       <use x="95.410156" xlink:href="#DejaVuSans-35"/>
      </g>
     </g>
    </g>
    <g id="ytick_3">
     <g id="line2d_15">
      <path clip-path="url(#pbb269c0e47)" d="M 17.764646 176.389902 
L 420.777354 176.389902 
" style="fill:none;opacity:0.1;stroke:#000000;stroke-linecap:square;stroke-width:0.5;"/>
     </g>
     <g id="line2d_16">
      <g>
       <use style="stroke:#000000;stroke-width:0.8;" x="17.764646" xlink:href="#m8a0b23c70e" y="176.389902"/>
      </g>
     </g>
     <g id="text_8">
      <!-- 3.0 -->
      <defs>
       <path d="M 40.578125 39.3125 
Q 47.65625 37.796875 51.625 33 
Q 55.609375 28.21875 55.609375 21.1875 
Q 55.609375 10.40625 48.1875 4.484375 
Q 40.765625 -1.421875 27.09375 -1.421875 
Q 22.515625 -1.421875 17.65625 -0.515625 
Q 12.796875 0.390625 7.625 2.203125 
L 7.625 11.71875 
Q 11.71875 9.328125 16.59375 8.109375 
Q 21.484375 6.890625 26.8125 6.890625 
Q 36.078125 6.890625 40.9375 10.546875 
Q 45.796875 14.203125 45.796875 21.1875 
Q 45.796875 27.640625 41.28125 31.265625 
Q 36.765625 34.90625 28.71875 34.90625 
L 20.21875 34.90625 
L 20.21875 43.015625 
L 29.109375 43.015625 
Q 36.375 43.015625 40.234375 45.921875 
Q 44.09375 48.828125 44.09375 54.296875 
Q 44.09375 59.90625 40.109375 62.90625 
Q 36.140625 65.921875 28.71875 65.921875 
Q 24.65625 65.921875 20.015625 65.03125 
Q 15.375 64.15625 9.8125 62.3125 
L 9.8125 71.09375 
Q 15.4375 72.65625 20.34375 73.4375 
Q 25.25 74.21875 29.59375 74.21875 
Q 40.828125 74.21875 47.359375 69.109375 
Q 53.90625 64.015625 53.90625 55.328125 
Q 53.90625 49.265625 50.4375 45.09375 
Q 46.96875 40.921875 40.578125 39.3125 
z
" id="DejaVuSans-33"/>
      </defs>
      <g transform="translate(1.542146 179.429277)scale(0.08 -0.08)">
       <use xlink:href="#DejaVuSans-33"/>
       <use x="63.623047" xlink:href="#DejaVuSans-2e"/>
       <use x="95.410156" xlink:href="#DejaVuSans-30"/>
      </g>
     </g>
    </g>
    <g id="ytick_4">
     <g id="line2d_17">
      <path clip-path="url(#pbb269c0e47)" d="M 17.764646 131.841442 
L 420.777354 131.841442 
" style="fill:none;opacity:0.1;stroke:#000000;stroke-linecap:square;stroke-width:0.5;"/>
     </g>
     <g id="line2d_18">
      <g>
       <use style="stroke:#000000;stroke-width:0.8;" x="17.764646" xlink:href="#m8a0b23c70e" y="131.841442"/>
      </g>
     </g>
     <g id="text_9">
      <!-- 3.5 -->
      <g transform="translate(1.542146 134.880817)scale(0.08 -0.08)">
       <use xlink:href="#DejaVuSans-33"/>
       <use x="63.623047" xlink:href="#DejaVuSans-2e"/>
       <use x="95.410156" xlink:href="#DejaVuSans-35"/>
      </g>
     </g>
    </g>
    <g id="ytick_5">
     <g id="line2d_19">
      <path clip-path="url(#pbb269c0e47)" d="M 17.764646 87.292983 
L 420.777354 87.292983 
" style="fill:none;opacity:0.1;stroke:#000000;stroke-linecap:square;stroke-width:0.5;"/>
     </g>
     <g id="line2d_20">
      <g>
       <use style="stroke:#000000;stroke-width:0.8;" x="17.764646" xlink:href="#m8a0b23c70e" y="87.292983"/>
      </g>
     </g>
     <g id="text_10">
      <!-- 4.0 -->
      <g transform="translate(1.542146 90.332358)scale(0.08 -0.08)">
       <use xlink:href="#DejaVuSans-34"/>
       <use x="63.623047" xlink:href="#DejaVuSans-2e"/>
       <use x="95.410156" xlink:href="#DejaVuSans-30"/>
      </g>
     </g>
    </g>
    <g id="ytick_6">
     <g id="line2d_21">
      <path clip-path="url(#pbb269c0e47)" d="M 17.764646 42.744524 
L 420.777354 42.744524 
" style="fill:none;opacity:0.1;stroke:#000000;stroke-linecap:square;stroke-width:0.5;"/>
     </g>
     <g id="line2d_22">
      <g>
       <use style="stroke:#000000;stroke-width:0.8;" x="17.764646" xlink:href="#m8a0b23c70e" y="42.744524"/>
      </g>
     </g>
     <g id="text_11">
      <!-- 4.5 -->
      <g transform="translate(1.542146 45.783899)scale(0.08 -0.08)">
       <use xlink:href="#DejaVuSans-34"/>
       <use x="63.623047" xlink:href="#DejaVuSans-2e"/>
       <use x="95.410156" xlink:href="#DejaVuSans-35"/>
      </g>
     </g>
    </g>
   </g>
   <g id="line2d_23">
    <path clip-path="url(#pbb269c0e47)" d="M 17.764646 144.393927 
L 18.167658 167.064461 
L 18.973684 167.064461 
L 19.376697 238.285108 
L 19.779709 257.829024 
L 20.182722 225.017963 
L 20.585735 133.032927 
L 20.988747 219.289475 
L 21.39176 141.428549 
L 21.794773 141.428549 
L 22.197785 101.515085 
L 22.600798 140.69967 
L 23.003811 138.827358 
L 23.406824 138.827358 
L 23.809836 131.319498 
L 24.212849 94.343791 
L 24.615862 143.564616 
L 25.018874 143.564616 
L 25.421887 208.056707 
L 25.8249 137.106464 
L 26.227913 223.803775 
L 26.630925 223.803775 
L 27.033938 220.756879 
L 27.436951 248.151323 
L 27.839963 248.151323 
L 28.645989 36.430681 
L 29.049002 36.430681 
L 29.452014 91.437496 
L 29.855027 94.423679 
L 30.25804 135.091944 
L 30.661052 190.578013 
L 31.064065 168.656943 
L 31.467078 194.068967 
L 31.87009 194.068967 
L 32.273103 219.854521 
L 32.676116 219.854521 
L 33.079129 208.682576 
L 33.885154 208.682576 
L 34.288167 209.98303 
L 34.691179 173.775927 
L 35.094192 191.952972 
L 35.497205 191.952972 
L 35.900218 155.642994 
L 36.30323 148.047869 
L 36.706243 172.211772 
L 37.109256 151.856694 
L 37.512268 237.885383 
L 37.915281 237.885383 
L 38.318294 132.302754 
L 38.721307 132.302754 
L 39.124319 155.816836 
L 39.527332 142.614501 
L 40.333357 142.614501 
L 40.73637 191.462717 
L 41.139383 172.325663 
L 41.542395 132.313216 
L 41.945408 200.66632 
L 42.348421 200.66632 
L 42.751434 174.32281 
L 43.154446 174.32281 
L 43.557459 157.152118 
L 43.960472 181.609727 
L 44.766497 181.609727 
L 45.16951 215.100802 
L 45.572523 215.100802 
L 45.975535 164.162537 
L 46.781561 164.162537 
L 47.184573 201.206622 
L 48.393612 201.206622 
L 48.796624 87.967944 
L 49.199637 87.967944 
L 49.60265 132.803141 
L 50.005662 132.803141 
L 50.408675 82.517542 
L 50.811688 69.252354 
L 51.2147 69.252354 
L 52.423739 141.490564 
L 52.826751 102.243087 
L 53.229764 92.345419 
L 53.632777 92.345419 
L 54.035789 127.711819 
L 54.841815 127.711819 
L 55.244828 192.25655 
L 55.64784 223.464115 
L 56.453866 223.464115 
L 57.259891 148.640486 
L 57.662904 148.640486 
L 58.065917 220.610487 
L 58.468929 189.896613 
L 58.871942 173.834421 
L 59.677967 163.016945 
L 60.08098 111.423463 
L 60.887005 178.210437 
L 61.290018 161.611176 
L 61.693031 161.611176 
L 62.096044 235.396602 
L 62.499056 235.396602 
L 62.902069 172.852664 
L 63.305082 212.318677 
L 63.708094 212.318677 
L 64.111107 193.834272 
L 64.51412 184.823195 
L 65.320145 141.753282 
L 65.723158 134.182931 
L 66.126171 134.182931 
L 66.529183 128.241878 
L 66.932196 133.827638 
L 67.335209 105.700163 
L 67.738222 121.640563 
L 68.141234 91.997687 
L 68.544247 24.896895 
L 68.94726 24.896895 
L 69.350272 2.834646 
L 69.753285 234.345536 
L 70.156298 258.248777 
L 70.559311 206.8923 
L 70.962323 255.725147 
L 71.365336 34.347379 
L 71.768349 131.288034 
L 72.977387 131.288034 
L 73.380399 68.019171 
L 73.783412 99.437083 
L 74.186425 201.946606 
L 74.589438 201.946606 
L 74.99245 171.070825 
L 75.395463 171.070825 
L 75.798476 154.060066 
L 76.201488 154.618692 
L 77.410527 154.618692 
L 77.813539 215.853253 
L 78.216552 238.627331 
L 78.619565 246.23628 
L 80.231616 246.23628 
L 80.634628 177.012347 
L 81.440654 177.012347 
L 81.843666 163.819818 
L 82.246679 92.658285 
L 82.649692 150.494879 
L 83.455717 150.494879 
L 83.85873 144.883231 
L 84.261743 154.954452 
L 84.664755 193.709171 
L 85.067768 182.451524 
L 85.470781 165.682047 
L 85.873793 165.682047 
L 86.276806 74.532511 
L 86.679819 150.27731 
L 87.082832 158.703925 
L 87.485844 102.327613 
L 87.888857 131.909816 
L 88.29187 131.909816 
L 88.694882 206.553661 
L 89.097895 206.553661 
L 89.500908 135.450303 
L 89.903921 126.910747 
L 90.306933 126.910747 
L 90.709946 187.321738 
L 91.112959 184.885287 
L 92.321997 184.885287 
L 92.725009 180.532724 
L 93.128022 180.532724 
L 93.531035 101.841486 
L 93.934048 126.099564 
L 94.33706 126.099564 
L 94.740073 189.793474 
L 96.755137 189.793474 
L 97.158149 141.054336 
L 97.561162 174.049693 
L 97.964175 188.917468 
L 98.7702 188.917468 
L 99.576226 124.818004 
L 99.979238 124.818004 
L 100.785264 247.192149 
L 101.591289 247.192149 
L 101.994302 210.538974 
L 102.397314 243.144996 
L 102.800327 262.981296 
L 104.009365 262.981296 
L 104.412378 236.866682 
L 104.815391 241.447361 
L 105.218403 168.988682 
L 105.621416 168.988682 
L 106.024429 253.942519 
L 106.427442 257.572883 
L 106.830454 228.059422 
L 107.233467 228.059422 
L 107.63648 200.291486 
L 108.039492 212.763614 
L 108.442505 212.763614 
L 108.845518 225.090762 
L 109.651543 225.090762 
L 110.054556 245.15949 
L 110.457569 245.15949 
L 110.860581 211.241207 
L 111.263594 123.454177 
L 111.666607 195.490928 
L 112.069619 195.490928 
L 112.472632 191.213775 
L 112.875645 147.337974 
L 113.278658 147.337974 
L 113.68167 157.828502 
L 114.084683 160.731302 
L 116.502759 160.731302 
L 116.905772 193.869676 
L 117.308785 198.921765 
L 119.323848 198.921765 
L 119.726861 182.771451 
L 120.129874 227.486507 
L 121.741925 227.486507 
L 122.144937 172.084678 
L 122.54795 197.890898 
L 122.950963 130.927227 
L 123.353975 103.902794 
L 123.756988 103.902794 
L 124.160001 234.16667 
L 124.563013 152.449925 
L 124.966026 218.965516 
L 125.369039 187.348013 
L 125.772052 187.348013 
L 126.175064 213.603467 
L 126.578077 200.39397 
L 127.384102 200.39397 
L 127.787115 217.459296 
L 128.190128 191.781983 
L 128.593141 151.515017 
L 129.399166 151.515017 
L 129.802179 94.578281 
L 130.205191 150.45527 
L 130.608204 172.976765 
L 131.011217 172.976765 
L 131.41423 191.156695 
L 131.817242 148.20074 
L 132.220255 213.710799 
L 132.623268 238.962955 
L 133.02628 176.201784 
L 133.429293 201.784715 
L 133.832306 201.784715 
L 134.235318 145.176038 
L 134.638331 213.183309 
L 135.041344 240.972267 
L 135.444357 237.803513 
L 135.847369 107.525909 
L 137.056407 107.525909 
L 137.45942 140.971892 
L 137.862433 140.971892 
L 138.265446 136.816956 
L 139.071471 136.816956 
L 139.474484 89.570691 
L 139.877496 89.570691 
L 140.280509 194.393375 
L 141.086535 194.393375 
L 141.489547 205.525002 
L 141.89256 134.086095 
L 142.295573 184.011785 
L 142.698585 184.011785 
L 143.101598 182.641576 
L 143.504611 170.203039 
L 143.907623 170.203039 
L 144.310636 225.720536 
L 144.713649 256.810925 
L 145.519674 256.810925 
L 146.3257 149.79639 
L 146.728712 149.79639 
L 147.131725 264.74678 
L 147.534738 224.493786 
L 147.937751 224.493786 
L 148.340763 207.803942 
L 148.743776 112.0213 
L 149.146789 95.417375 
L 149.549801 200.880967 
L 149.952814 177.10034 
L 152.37089 177.10034 
L 152.773903 213.624027 
L 153.176916 174.65467 
L 153.579928 181.210919 
L 153.982941 181.210919 
L 154.385954 168.447603 
L 154.788967 193.256369 
L 155.998005 193.256369 
L 156.401017 169.913086 
L 156.80403 169.913086 
L 157.207043 199.705468 
L 158.013068 173.814022 
L 158.416081 173.814022 
L 158.819094 116.053041 
L 159.625119 116.053041 
L 160.028132 140.342426 
L 160.834157 140.342426 
L 161.23717 121.558044 
L 161.640183 193.616862 
L 162.849221 193.616862 
L 163.252233 209.726308 
L 163.655246 152.92234 
L 164.058259 132.767641 
L 164.461272 132.767641 
L 164.864284 80.390734 
L 165.267297 129.748477 
L 165.67031 209.777556 
L 166.073322 223.291676 
L 166.879348 223.291676 
L 167.282361 203.473187 
L 167.685373 203.473187 
L 168.088386 227.34243 
L 168.491399 138.272673 
L 168.894411 161.825327 
L 169.297424 111.988568 
L 169.700437 234.301162 
L 170.10345 161.141683 
L 170.506462 144.777063 
L 170.909475 233.071252 
L 171.312488 211.768563 
L 172.118513 211.768563 
L 172.521526 157.840593 
L 172.924539 157.840593 
L 173.327551 147.532332 
L 173.730564 187.271356 
L 174.133577 187.271356 
L 174.536589 241.635669 
L 174.939602 220.450203 
L 175.342615 220.450203 
L 175.745627 203.86789 
L 176.551653 203.86789 
L 176.954666 216.543567 
L 177.357678 187.795157 
L 178.163704 187.795157 
L 178.566716 209.347462 
L 178.969729 170.654314 
L 179.372742 223.523533 
L 179.775755 144.658137 
L 180.178767 154.015165 
L 180.58178 206.088054 
L 180.984793 188.387646 
L 181.387805 188.387646 
L 181.790818 112.100298 
L 182.193831 79.525303 
L 182.596844 33.717262 
L 182.999856 62.834831 
L 183.805882 207.727712 
L 184.208894 204.205485 
L 185.01492 204.205485 
L 185.417932 159.335148 
L 186.223958 159.335148 
L 186.626971 201.777218 
L 187.029983 142.820041 
L 187.432996 142.820041 
L 187.836009 183.858027 
L 188.239021 142.944627 
L 188.642034 213.149938 
L 189.045047 213.149938 
L 189.44806 139.878792 
L 189.851072 218.892878 
L 190.254085 141.806951 
L 190.657098 115.207214 
L 191.06011 112.007374 
L 191.463123 112.007374 
L 191.866136 183.202651 
L 192.269149 134.28762 
L 192.672161 130.095299 
L 193.478187 130.095299 
L 193.881199 158.530717 
L 194.284212 158.530717 
L 195.090237 245.024944 
L 195.49325 245.024944 
L 195.896263 260.534602 
L 196.299276 244.002746 
L 196.702288 208.154563 
L 197.105301 217.560373 
L 197.508314 104.835398 
L 197.911326 104.835398 
L 198.314339 188.43206 
L 198.717352 208.789542 
L 199.120365 208.789542 
L 199.523377 247.428986 
L 199.92639 204.046343 
L 200.329403 204.046343 
L 200.732415 250.879669 
L 201.941454 250.879669 
L 202.344466 230.269024 
L 202.747479 230.269024 
L 203.150492 235.395305 
L 203.553504 183.905203 
L 203.956517 167.367619 
L 204.35953 103.316122 
L 204.762542 171.199842 
L 205.165555 171.199842 
L 205.568568 202.063817 
L 205.971581 202.063817 
L 206.374593 258.637724 
L 206.777606 218.68733 
L 207.180619 218.68733 
L 207.583631 228.693291 
L 207.986644 232.419427 
L 208.389657 232.419427 
L 208.79267 246.353038 
L 209.195682 236.846955 
L 209.598695 236.846955 
L 210.001708 207.873177 
L 211.210746 207.873177 
L 211.613759 218.656488 
L 212.016771 180.56829 
L 212.419784 183.816211 
L 212.822797 183.816211 
L 213.225809 166.712269 
L 213.628822 166.712269 
L 214.031835 214.543395 
L 214.83786 214.543395 
L 215.240873 211.012741 
L 215.643886 211.012741 
L 216.046898 197.081465 
L 216.449911 130.025308 
L 216.852924 130.025308 
L 217.255936 160.900491 
L 217.658949 144.651937 
L 218.464975 144.651937 
L 218.867987 201.568207 
L 219.271 201.568207 
L 219.674013 212.140674 
L 220.077025 175.946212 
L 221.286064 175.946212 
L 221.689076 233.32772 
L 222.092089 233.32772 
L 222.495102 92.343542 
L 222.898114 92.343542 
L 223.70414 207.786951 
L 224.107153 181.494294 
L 224.510165 181.494294 
L 224.913178 80.146168 
L 225.316191 85.454874 
L 225.719203 151.009049 
L 226.122216 151.009049 
L 226.525229 186.015316 
L 226.928241 158.920581 
L 227.331254 158.920581 
L 227.734267 74.711106 
L 228.13728 53.689225 
L 228.943305 53.689225 
L 229.346318 11.896924 
L 229.74933 11.896924 
L 230.152343 32.731294 
L 230.958369 32.731294 
L 231.361381 31.868422 
L 231.764394 180.869401 
L 232.167407 186.870809 
L 232.570419 186.870809 
L 232.973432 187.863588 
L 233.376445 95.076938 
L 233.779458 113.401517 
L 234.18247 159.557186 
L 234.585483 159.557186 
L 234.988496 178.198112 
L 235.391508 178.198112 
L 235.794521 54.245259 
L 236.600546 181.665075 
L 237.003559 219.906552 
L 237.406572 231.193576 
L 237.809585 178.887785 
L 238.212597 182.893542 
L 238.61561 229.395042 
L 239.018623 237.734412 
L 239.421635 165.522232 
L 239.824648 186.250188 
L 240.630674 186.250188 
L 241.033686 198.863269 
L 241.436699 198.879257 
L 241.839712 165.29691 
L 243.04875 125.524699 
L 243.451763 139.613376 
L 243.854775 142.874456 
L 244.257788 160.213311 
L 244.660801 160.213311 
L 245.063813 144.272641 
L 245.466826 166.160333 
L 245.869839 158.385547 
L 246.272851 176.638938 
L 246.675864 222.409377 
L 247.078877 222.409377 
L 247.48189 188.366188 
L 247.884902 188.366188 
L 248.287915 213.254079 
L 248.690928 187.086937 
L 249.09394 191.529168 
L 249.496953 247.324011 
L 249.899966 248.29704 
L 250.302979 172.503364 
L 250.705991 211.668211 
L 251.915029 211.668211 
L 252.318042 135.815653 
L 252.721055 131.030176 
L 253.124068 83.695491 
L 253.930093 199.301423 
L 255.139131 199.301423 
L 255.542144 114.995251 
L 255.945156 139.173845 
L 256.348169 116.30657 
L 256.751182 116.30657 
L 257.154195 214.253884 
L 258.363233 214.253884 
L 258.766245 206.676902 
L 259.169258 187.407485 
L 259.572271 187.407485 
L 259.975284 180.376946 
L 260.378296 180.376946 
L 260.781309 175.888406 
L 261.184322 175.888406 
L 261.587334 220.533295 
L 261.990347 221.849025 
L 262.39336 235.37879 
L 263.199385 235.37879 
L 263.602398 261.40242 
L 264.408423 261.40242 
L 264.811436 197.833463 
L 265.214449 190.145626 
L 265.617461 190.145626 
L 266.020474 175.751162 
L 266.423487 175.751162 
L 266.8265 175.02108 
L 267.229512 202.770752 
L 267.632525 214.812644 
L 268.035538 214.812644 
L 268.43855 218.565367 
L 268.841563 218.565367 
L 269.244576 208.952589 
L 270.856627 208.952589 
L 271.259639 141.851817 
L 272.065665 141.851817 
L 272.87169 218.464834 
L 273.274703 189.705949 
L 273.677716 208.462679 
L 274.080728 187.267979 
L 274.483741 227.915101 
L 274.886754 227.915101 
L 275.289767 119.4543 
L 276.095792 119.4543 
L 276.498805 115.585307 
L 276.901817 119.666139 
L 277.30483 197.840082 
L 277.707843 197.840082 
L 278.110855 219.181625 
L 278.513868 225.64073 
L 278.916881 225.64073 
L 279.319894 214.115238 
L 279.722906 163.643001 
L 280.125919 213.39465 
L 280.528932 110.635599 
L 281.334957 110.635599 
L 281.73797 128.593424 
L 282.140983 110.063855 
L 282.543995 110.063855 
L 282.947008 71.263824 
L 283.350021 101.745663 
L 283.753033 95.245859 
L 284.156046 94.359677 
L 284.559059 60.104835 
L 284.962072 60.104835 
L 285.365084 163.862198 
L 285.768097 190.281181 
L 286.574122 190.281181 
L 286.977135 198.634771 
L 287.380148 203.929895 
L 287.78316 179.184538 
L 288.186173 216.383373 
L 288.589186 122.760475 
L 288.992199 199.155858 
L 289.395211 216.826774 
L 289.798224 104.870194 
L 290.201237 104.870194 
L 290.604249 200.946468 
L 291.007262 195.94244 
L 291.410275 205.751091 
L 291.813288 219.028244 
L 293.022326 219.028244 
L 293.425338 151.839307 
L 294.231364 151.839307 
L 294.634377 156.133549 
L 295.440402 156.133549 
L 295.843415 173.822296 
L 296.246427 208.214106 
L 296.64944 172.278109 
L 297.052453 66.014462 
L 297.455465 170.841711 
L 297.858478 159.377886 
L 298.261491 207.863015 
L 299.067516 207.863015 
L 299.470529 252.035755 
L 299.873542 241.040645 
L 300.276554 219.778228 
L 300.679567 190.061294 
L 301.08258 216.226005 
L 301.485593 194.612077 
L 301.888605 222.360565 
L 302.291618 214.312692 
L 303.097643 235.923648 
L 303.500656 238.463488 
L 303.903669 228.29914 
L 304.306682 228.29914 
L 304.709694 169.698272 
L 305.51572 169.698272 
L 305.918732 213.974726 
L 306.724758 213.974726 
L 307.12777 163.035295 
L 307.530783 146.506125 
L 307.933796 146.506125 
L 308.336809 129.79996 
L 308.739821 87.68366 
L 309.142834 80.407616 
L 310.351872 80.407616 
L 310.754885 57.652133 
L 311.157898 212.65297 
L 311.963923 166.585765 
L 312.366936 181.217819 
L 313.575974 181.217819 
L 313.978987 202.69752 
L 314.785012 202.69752 
L 315.188025 237.457913 
L 315.99405 237.457913 
L 316.397063 148.403241 
L 316.800075 187.424162 
L 317.203088 187.424162 
L 317.606101 189.940979 
L 318.009114 189.940979 
L 318.412126 201.643029 
L 318.815139 189.745587 
L 319.621164 189.745587 
L 320.024177 256.033869 
L 320.42719 256.033869 
L 320.830203 255.484617 
L 321.233215 132.246375 
L 321.636228 66.530458 
L 322.845266 66.530458 
L 323.248279 37.80346 
L 324.86033 37.80346 
L 325.263342 70.408382 
L 326.069368 240.336393 
L 326.472381 117.361706 
L 326.875393 117.361706 
L 327.278406 51.944589 
L 327.681419 51.944589 
L 328.084431 184.040267 
L 328.487444 200.191952 
L 328.890457 159.562679 
L 329.293469 209.370124 
L 330.099495 155.957363 
L 330.502508 230.879786 
L 330.90552 249.937913 
L 331.711546 191.840247 
L 332.114558 202.443645 
L 332.517571 178.883829 
L 332.920584 191.365141 
L 333.323597 191.365141 
L 333.726609 225.100009 
L 334.129622 225.100009 
L 334.532635 205.443616 
L 334.935647 208.651583 
L 335.33866 183.284982 
L 335.741673 181.90219 
L 336.144686 179.525719 
L 336.547698 179.525719 
L 336.950711 196.948638 
L 337.353724 255.487731 
L 337.756736 256.882394 
L 338.562762 256.882394 
L 338.965774 226.005797 
L 339.368787 228.428902 
L 339.7718 212.296936 
L 340.174813 143.34043 
L 340.980838 143.34043 
L 341.383851 164.25753 
L 341.786863 164.25753 
L 342.189876 223.224566 
L 342.592889 169.624196 
L 343.398914 264.451412 
L 344.20494 264.451412 
L 344.607952 229.192027 
L 345.413978 229.192027 
L 345.816991 239.058252 
L 346.220003 156.502992 
L 346.623016 201.886313 
L 347.429041 222.428053 
L 347.832054 127.363767 
L 348.235067 69.965913 
L 348.638079 69.965913 
L 349.041092 219.74794 
L 349.444105 108.960323 
L 349.847118 217.672297 
L 350.25013 175.946423 
L 350.653143 183.480133 
L 351.056156 212.475556 
L 351.459168 176.717012 
L 352.265194 176.717012 
L 352.668207 193.918644 
L 353.071219 111.968127 
L 353.474232 118.995804 
L 353.877245 200.731167 
L 354.280257 161.221177 
L 354.68327 239.935844 
L 355.086283 219.982564 
L 355.892308 219.982564 
L 356.295321 215.036229 
L 356.698334 153.810585 
L 357.101346 151.177437 
L 357.504359 150.163842 
L 357.907372 85.716012 
L 358.310384 189.743346 
L 358.713397 189.743346 
L 359.11641 202.645326 
L 359.519423 202.645326 
L 359.922435 164.50661 
L 360.728461 164.50661 
L 361.131473 242.980885 
L 361.534486 242.980885 
L 361.937499 203.327104 
L 362.340512 203.327104 
L 362.743524 249.015625 
L 363.952562 249.015625 
L 364.758588 221.002137 
L 365.161601 243.798672 
L 365.564613 205.502762 
L 365.967626 230.620078 
L 366.370639 238.003463 
L 366.773651 217.881426 
L 367.176664 239.133253 
L 367.579677 235.9512 
L 368.385702 235.9512 
L 368.788715 236.824473 
L 370.400766 236.824473 
L 370.803778 206.386419 
L 371.206791 232.518985 
L 371.609804 230.570854 
L 372.012817 224.124371 
L 372.415829 145.828125 
L 372.818842 186.325319 
L 374.02788 186.325319 
L 374.430893 211.795354 
L 374.833906 202.875476 
L 375.236918 186.947852 
L 375.639931 180.172264 
L 376.042944 210.399318 
L 376.445956 210.399318 
L 376.848969 143.153925 
L 377.251982 135.170688 
L 377.654995 135.170688 
L 378.058007 223.226869 
L 378.46102 131.932978 
L 378.864033 131.932978 
L 379.267045 201.0537 
L 379.670058 201.0537 
L 380.073071 192.655303 
L 380.476083 192.655303 
L 380.879096 113.569427 
L 381.282109 185.553627 
L 381.685122 218.324426 
L 382.088134 216.059659 
L 382.491147 230.244065 
L 382.89416 259.449777 
L 383.297172 261.240301 
L 384.103198 261.240301 
L 384.506211 234.958757 
L 384.909223 155.672542 
L 385.715249 173.337271 
L 386.118261 173.337271 
L 386.521274 187.092349 
L 386.924287 225.634165 
L 387.3273 222.448016 
L 387.730312 222.448016 
L 388.133325 221.206603 
L 388.536338 222.194781 
L 388.93935 196.57355 
L 389.342363 196.57355 
L 389.745376 176.143673 
L 390.148388 183.65132 
L 390.551401 215.992719 
L 391.760439 215.992719 
L 392.163452 184.752791 
L 392.566465 241.587746 
L 393.37249 241.587746 
L 393.775503 246.493989 
L 394.178516 246.493989 
L 394.581528 178.91252 
L 394.984541 237.765494 
L 395.387554 205.151049 
L 395.790566 205.151049 
L 396.193579 174.896603 
L 396.596592 200.529329 
L 396.999605 177.726027 
L 397.402617 177.726027 
L 397.80563 222.128142 
L 398.208643 79.666074 
L 398.611655 207.212514 
L 399.014668 94.663206 
L 399.417681 48.027826 
L 399.820693 95.585855 
L 401.432744 95.585855 
L 401.835757 140.352342 
L 402.23877 135.979985 
L 402.641782 135.979985 
L 403.044795 142.504569 
L 403.850821 142.504569 
L 404.253833 126.185847 
L 404.656846 251.793228 
L 405.865884 251.793228 
L 406.268897 275.905354 
L 406.67191 275.905354 
L 407.074922 266.820825 
L 407.880948 127.79218 
L 408.28396 127.79218 
L 408.686973 134.146262 
L 409.089986 156.181429 
L 409.492998 156.181429 
L 409.896011 190.089447 
L 410.299024 146.114153 
L 410.702037 231.107341 
L 411.105049 147.629027 
L 411.508062 211.462623 
L 411.911075 211.462623 
L 412.314087 166.806783 
L 412.7171 190.419368 
L 413.120113 190.419368 
L 413.523126 168.33709 
L 413.926138 179.672166 
L 414.732164 179.672166 
L 415.135176 193.502317 
L 415.538189 169.584297 
L 415.941202 169.584297 
L 416.344215 217.101229 
L 416.747227 242.273972 
L 417.15024 234.128845 
L 417.553253 242.206451 
L 418.359278 123.602392 
L 418.762291 215.195563 
L 419.165303 203.50795 
L 419.568316 188.023136 
L 419.971329 205.036467 
L 420.777354 205.036467 
L 420.777354 205.036467 
" style="fill:none;stroke:#009afa;stroke-linecap:round;"/>
   </g>
   <g id="patch_3">
    <path d="M 17.764646 275.905354 
L 17.764646 2.834646 
" style="fill:none;stroke:#000000;stroke-linecap:square;stroke-linejoin:miter;stroke-width:0.8;"/>
   </g>
   <g id="patch_4">
    <path d="M 17.764646 275.905354 
L 420.777354 275.905354 
" style="fill:none;stroke:#000000;stroke-linecap:square;stroke-linejoin:miter;stroke-width:0.8;"/>
   </g>
   <g id="legend_1">
    <g id="patch_5">
     <path d="M 379.752354 20.977146 
L 415.177354 20.977146 
Q 416.777354 20.977146 416.777354 19.377146 
L 416.777354 8.434646 
Q 416.777354 6.834646 415.177354 6.834646 
L 379.752354 6.834646 
Q 378.152354 6.834646 378.152354 8.434646 
L 378.152354 19.377146 
Q 378.152354 20.977146 379.752354 20.977146 
z
" style="fill:#ffffff;opacity:0.8;stroke:#000000;stroke-linejoin:miter;"/>
    </g>
    <g id="line2d_24">
     <path d="M 381.352354 13.313396 
L 397.352354 13.313396 
" style="fill:none;stroke:#009afa;stroke-linecap:square;"/>
    </g>
    <g id="line2d_25"/>
    <g id="text_12">
     <!-- y1 -->
     <defs>
      <path d="M 32.171875 -5.078125 
Q 28.375 -14.84375 24.75 -17.8125 
Q 21.140625 -20.796875 15.09375 -20.796875 
L 7.90625 -20.796875 
L 7.90625 -13.28125 
L 13.1875 -13.28125 
Q 16.890625 -13.28125 18.9375 -11.515625 
Q 21 -9.765625 23.484375 -3.21875 
L 25.09375 0.875 
L 2.984375 54.6875 
L 12.5 54.6875 
L 29.59375 11.921875 
L 46.6875 54.6875 
L 56.203125 54.6875 
z
" id="DejaVuSans-79"/>
     </defs>
     <g transform="translate(403.752354 16.113396)scale(0.08 -0.08)">
      <use xlink:href="#DejaVuSans-79"/>
      <use x="59.179688" xlink:href="#DejaVuSans-31"/>
     </g>
    </g>
   </g>
  </g>
 </g>
 <defs>
  <clipPath id="pbb269c0e47">
   <rect height="273.070709" width="403.012709" x="17.764646" y="2.834646"/>
  </clipPath>
 </defs>
</svg>
