<?xml version="1.0" encoding="utf-8" standalone="no"?>
<!DOCTYPE svg PUBLIC "-//W3C//DTD SVG 1.1//EN"
  "http://www.w3.org/Graphics/SVG/1.1/DTD/svg11.dtd">
<!-- Created with matplotlib (http://matplotlib.org/) -->
<svg height="288pt" version="1.1" viewBox="0 0 432 288" width="432pt" xmlns="http://www.w3.org/2000/svg" xmlns:xlink="http://www.w3.org/1999/xlink">
 <defs>
  <style type="text/css">
*{stroke-linecap:butt;stroke-linejoin:round;}
  </style>
 </defs>
 <g id="figure_1">
  <g id="patch_1">
   <path d="M 0 288 
L 432 288 
L 432 0 
L 0 0 
z
" style="fill:#ffffff;"/>
  </g>
  <g id="axes_1">
   <g id="patch_2">
    <path d="M 17.764646 275.905354 
L 429.165354 275.905354 
L 429.165354 2.834646 
L 17.764646 2.834646 
z
" style="fill:#ffffff;"/>
   </g>
   <g id="matplotlib.axis_1">
    <g id="xtick_1">
     <g id="line2d_1">
      <path clip-path="url(#pdf73ff9337)" d="M 23.562575 275.905354 
L 23.562575 2.834646 
" style="fill:none;opacity:0.1;stroke:#000000;stroke-linecap:square;stroke-width:0.5;"/>
     </g>
     <g id="line2d_2">
      <defs>
       <path d="M 0 0 
L 0 -3.5 
" id="mdc161e976e" style="stroke:#000000;stroke-width:0.8;"/>
      </defs>
      <g>
       <use style="stroke:#000000;stroke-width:0.8;" x="23.562575" xlink:href="#mdc161e976e" y="275.905354"/>
      </g>
     </g>
     <g id="text_1">
      <!-- 2 -->
      <defs>
       <path d="M 19.1875 8.296875 
L 53.609375 8.296875 
L 53.609375 0 
L 7.328125 0 
L 7.328125 8.296875 
Q 12.9375 14.109375 22.625 23.890625 
Q 32.328125 33.6875 34.8125 36.53125 
Q 39.546875 41.84375 41.421875 45.53125 
Q 43.3125 49.21875 43.3125 52.78125 
Q 43.3125 58.59375 39.234375 62.25 
Q 35.15625 65.921875 28.609375 65.921875 
Q 23.96875 65.921875 18.8125 64.3125 
Q 13.671875 62.703125 7.8125 59.421875 
L 7.8125 69.390625 
Q 13.765625 71.78125 18.9375 73 
Q 24.125 74.21875 28.421875 74.21875 
Q 39.75 74.21875 46.484375 68.546875 
Q 53.21875 62.890625 53.21875 53.421875 
Q 53.21875 48.921875 51.53125 44.890625 
Q 49.859375 40.875 45.40625 35.40625 
Q 44.1875 33.984375 37.640625 27.21875 
Q 31.109375 20.453125 19.1875 8.296875 
z
" id="DejaVuSans-32"/>
      </defs>
      <g transform="translate(21.017575 285.484104)scale(0.08 -0.08)">
       <use xlink:href="#DejaVuSans-32"/>
      </g>
     </g>
    </g>
    <g id="xtick_2">
     <g id="line2d_3">
      <path clip-path="url(#pdf73ff9337)" d="M 133.629988 275.905354 
L 133.629988 2.834646 
" style="fill:none;opacity:0.1;stroke:#000000;stroke-linecap:square;stroke-width:0.5;"/>
     </g>
     <g id="line2d_4">
      <g>
       <use style="stroke:#000000;stroke-width:0.8;" x="133.629988" xlink:href="#mdc161e976e" y="275.905354"/>
      </g>
     </g>
     <g id="text_2">
      <!-- 4 -->
      <defs>
       <path d="M 37.796875 64.3125 
L 12.890625 25.390625 
L 37.796875 25.390625 
z
M 35.203125 72.90625 
L 47.609375 72.90625 
L 47.609375 25.390625 
L 58.015625 25.390625 
L 58.015625 17.1875 
L 47.609375 17.1875 
L 47.609375 0 
L 37.796875 0 
L 37.796875 17.1875 
L 4.890625 17.1875 
L 4.890625 26.703125 
z
" id="DejaVuSans-34"/>
      </defs>
      <g transform="translate(131.084988 285.484104)scale(0.08 -0.08)">
       <use xlink:href="#DejaVuSans-34"/>
      </g>
     </g>
    </g>
    <g id="xtick_3">
     <g id="line2d_5">
      <path clip-path="url(#pdf73ff9337)" d="M 243.697401 275.905354 
L 243.697401 2.834646 
" style="fill:none;opacity:0.1;stroke:#000000;stroke-linecap:square;stroke-width:0.5;"/>
     </g>
     <g id="line2d_6">
      <g>
       <use style="stroke:#000000;stroke-width:0.8;" x="243.697401" xlink:href="#mdc161e976e" y="275.905354"/>
      </g>
     </g>
     <g id="text_3">
      <!-- 6 -->
      <defs>
       <path d="M 33.015625 40.375 
Q 26.375 40.375 22.484375 35.828125 
Q 18.609375 31.296875 18.609375 23.390625 
Q 18.609375 15.53125 22.484375 10.953125 
Q 26.375 6.390625 33.015625 6.390625 
Q 39.65625 6.390625 43.53125 10.953125 
Q 47.40625 15.53125 47.40625 23.390625 
Q 47.40625 31.296875 43.53125 35.828125 
Q 39.65625 40.375 33.015625 40.375 
z
M 52.59375 71.296875 
L 52.59375 62.3125 
Q 48.875 64.0625 45.09375 64.984375 
Q 41.3125 65.921875 37.59375 65.921875 
Q 27.828125 65.921875 22.671875 59.328125 
Q 17.53125 52.734375 16.796875 39.40625 
Q 19.671875 43.65625 24.015625 45.921875 
Q 28.375 48.1875 33.59375 48.1875 
Q 44.578125 48.1875 50.953125 41.515625 
Q 57.328125 34.859375 57.328125 23.390625 
Q 57.328125 12.15625 50.6875 5.359375 
Q 44.046875 -1.421875 33.015625 -1.421875 
Q 20.359375 -1.421875 13.671875 8.265625 
Q 6.984375 17.96875 6.984375 36.375 
Q 6.984375 53.65625 15.1875 63.9375 
Q 23.390625 74.21875 37.203125 74.21875 
Q 40.921875 74.21875 44.703125 73.484375 
Q 48.484375 72.75 52.59375 71.296875 
z
" id="DejaVuSans-36"/>
      </defs>
      <g transform="translate(241.152401 285.484104)scale(0.08 -0.08)">
       <use xlink:href="#DejaVuSans-36"/>
      </g>
     </g>
    </g>
    <g id="xtick_4">
     <g id="line2d_7">
      <path clip-path="url(#pdf73ff9337)" d="M 353.764814 275.905354 
L 353.764814 2.834646 
" style="fill:none;opacity:0.1;stroke:#000000;stroke-linecap:square;stroke-width:0.5;"/>
     </g>
     <g id="line2d_8">
      <g>
       <use style="stroke:#000000;stroke-width:0.8;" x="353.764814" xlink:href="#mdc161e976e" y="275.905354"/>
      </g>
     </g>
     <g id="text_4">
      <!-- 8 -->
      <defs>
       <path d="M 31.78125 34.625 
Q 24.75 34.625 20.71875 30.859375 
Q 16.703125 27.09375 16.703125 20.515625 
Q 16.703125 13.921875 20.71875 10.15625 
Q 24.75 6.390625 31.78125 6.390625 
Q 38.8125 6.390625 42.859375 10.171875 
Q 46.921875 13.96875 46.921875 20.515625 
Q 46.921875 27.09375 42.890625 30.859375 
Q 38.875 34.625 31.78125 34.625 
z
M 21.921875 38.8125 
Q 15.578125 40.375 12.03125 44.71875 
Q 8.5 49.078125 8.5 55.328125 
Q 8.5 64.0625 14.71875 69.140625 
Q 20.953125 74.21875 31.78125 74.21875 
Q 42.671875 74.21875 48.875 69.140625 
Q 55.078125 64.0625 55.078125 55.328125 
Q 55.078125 49.078125 51.53125 44.71875 
Q 48 40.375 41.703125 38.8125 
Q 48.828125 37.15625 52.796875 32.3125 
Q 56.78125 27.484375 56.78125 20.515625 
Q 56.78125 9.90625 50.3125 4.234375 
Q 43.84375 -1.421875 31.78125 -1.421875 
Q 19.734375 -1.421875 13.25 4.234375 
Q 6.78125 9.90625 6.78125 20.515625 
Q 6.78125 27.484375 10.78125 32.3125 
Q 14.796875 37.15625 21.921875 38.8125 
z
M 18.3125 54.390625 
Q 18.3125 48.734375 21.84375 45.5625 
Q 25.390625 42.390625 31.78125 42.390625 
Q 38.140625 42.390625 41.71875 45.5625 
Q 45.3125 48.734375 45.3125 54.390625 
Q 45.3125 60.0625 41.71875 63.234375 
Q 38.140625 66.40625 31.78125 66.40625 
Q 25.390625 66.40625 21.84375 63.234375 
Q 18.3125 60.0625 18.3125 54.390625 
z
" id="DejaVuSans-38"/>
      </defs>
      <g transform="translate(351.219814 285.484104)scale(0.08 -0.08)">
       <use xlink:href="#DejaVuSans-38"/>
      </g>
     </g>
    </g>
   </g>
   <g id="matplotlib.axis_2">
    <g id="ytick_1">
     <g id="line2d_9">
      <path clip-path="url(#pdf73ff9337)" d="M 17.764646 275.905354 
L 429.165354 275.905354 
" style="fill:none;opacity:0.1;stroke:#000000;stroke-linecap:square;stroke-width:0.5;"/>
     </g>
     <g id="line2d_10">
      <defs>
       <path d="M 0 0 
L 3.5 0 
" id="ma571a89dc8" style="stroke:#000000;stroke-width:0.8;"/>
      </defs>
      <g>
       <use style="stroke:#000000;stroke-width:0.8;" x="17.764646" xlink:href="#ma571a89dc8" y="275.905354"/>
      </g>
     </g>
     <g id="text_5">
      <!-- 0.0 -->
      <defs>
       <path d="M 31.78125 66.40625 
Q 24.171875 66.40625 20.328125 58.90625 
Q 16.5 51.421875 16.5 36.375 
Q 16.5 21.390625 20.328125 13.890625 
Q 24.171875 6.390625 31.78125 6.390625 
Q 39.453125 6.390625 43.28125 13.890625 
Q 47.125 21.390625 47.125 36.375 
Q 47.125 51.421875 43.28125 58.90625 
Q 39.453125 66.40625 31.78125 66.40625 
z
M 31.78125 74.21875 
Q 44.046875 74.21875 50.515625 64.515625 
Q 56.984375 54.828125 56.984375 36.375 
Q 56.984375 17.96875 50.515625 8.265625 
Q 44.046875 -1.421875 31.78125 -1.421875 
Q 19.53125 -1.421875 13.0625 8.265625 
Q 6.59375 17.96875 6.59375 36.375 
Q 6.59375 54.828125 13.0625 64.515625 
Q 19.53125 74.21875 31.78125 74.21875 
z
" id="DejaVuSans-30"/>
       <path d="M 10.6875 12.40625 
L 21 12.40625 
L 21 0 
L 10.6875 0 
z
" id="DejaVuSans-2e"/>
      </defs>
      <g transform="translate(1.542146 278.944729)scale(0.08 -0.08)">
       <use xlink:href="#DejaVuSans-30"/>
       <use x="63.623047" xlink:href="#DejaVuSans-2e"/>
       <use x="95.410156" xlink:href="#DejaVuSans-30"/>
      </g>
     </g>
    </g>
    <g id="ytick_2">
     <g id="line2d_11">
      <path clip-path="url(#pdf73ff9337)" d="M 17.764646 231.535504 
L 429.165354 231.535504 
" style="fill:none;opacity:0.1;stroke:#000000;stroke-linecap:square;stroke-width:0.5;"/>
     </g>
     <g id="line2d_12">
      <g>
       <use style="stroke:#000000;stroke-width:0.8;" x="17.764646" xlink:href="#ma571a89dc8" y="231.535504"/>
      </g>
     </g>
     <g id="text_6">
      <!-- 0.1 -->
      <defs>
       <path d="M 12.40625 8.296875 
L 28.515625 8.296875 
L 28.515625 63.921875 
L 10.984375 60.40625 
L 10.984375 69.390625 
L 28.421875 72.90625 
L 38.28125 72.90625 
L 38.28125 8.296875 
L 54.390625 8.296875 
L 54.390625 0 
L 12.40625 0 
z
" id="DejaVuSans-31"/>
      </defs>
      <g transform="translate(1.542146 234.574879)scale(0.08 -0.08)">
       <use xlink:href="#DejaVuSans-30"/>
       <use x="63.623047" xlink:href="#DejaVuSans-2e"/>
       <use x="95.410156" xlink:href="#DejaVuSans-31"/>
      </g>
     </g>
    </g>
    <g id="ytick_3">
     <g id="line2d_13">
      <path clip-path="url(#pdf73ff9337)" d="M 17.764646 187.165653 
L 429.165354 187.165653 
" style="fill:none;opacity:0.1;stroke:#000000;stroke-linecap:square;stroke-width:0.5;"/>
     </g>
     <g id="line2d_14">
      <g>
       <use style="stroke:#000000;stroke-width:0.8;" x="17.764646" xlink:href="#ma571a89dc8" y="187.165653"/>
      </g>
     </g>
     <g id="text_7">
      <!-- 0.2 -->
      <g transform="translate(1.542146 190.205028)scale(0.08 -0.08)">
       <use xlink:href="#DejaVuSans-30"/>
       <use x="63.623047" xlink:href="#DejaVuSans-2e"/>
       <use x="95.410156" xlink:href="#DejaVuSans-32"/>
      </g>
     </g>
    </g>
    <g id="ytick_4">
     <g id="line2d_15">
      <path clip-path="url(#pdf73ff9337)" d="M 17.764646 142.795803 
L 429.165354 142.795803 
" style="fill:none;opacity:0.1;stroke:#000000;stroke-linecap:square;stroke-width:0.5;"/>
     </g>
     <g id="line2d_16">
      <g>
       <use style="stroke:#000000;stroke-width:0.8;" x="17.764646" xlink:href="#ma571a89dc8" y="142.795803"/>
      </g>
     </g>
     <g id="text_8">
      <!-- 0.3 -->
      <defs>
       <path d="M 40.578125 39.3125 
Q 47.65625 37.796875 51.625 33 
Q 55.609375 28.21875 55.609375 21.1875 
Q 55.609375 10.40625 48.1875 4.484375 
Q 40.765625 -1.421875 27.09375 -1.421875 
Q 22.515625 -1.421875 17.65625 -0.515625 
Q 12.796875 0.390625 7.625 2.203125 
L 7.625 11.71875 
Q 11.71875 9.328125 16.59375 8.109375 
Q 21.484375 6.890625 26.8125 6.890625 
Q 36.078125 6.890625 40.9375 10.546875 
Q 45.796875 14.203125 45.796875 21.1875 
Q 45.796875 27.640625 41.28125 31.265625 
Q 36.765625 34.90625 28.71875 34.90625 
L 20.21875 34.90625 
L 20.21875 43.015625 
L 29.109375 43.015625 
Q 36.375 43.015625 40.234375 45.921875 
Q 44.09375 48.828125 44.09375 54.296875 
Q 44.09375 59.90625 40.109375 62.90625 
Q 36.140625 65.921875 28.71875 65.921875 
Q 24.65625 65.921875 20.015625 65.03125 
Q 15.375 64.15625 9.8125 62.3125 
L 9.8125 71.09375 
Q 15.4375 72.65625 20.34375 73.4375 
Q 25.25 74.21875 29.59375 74.21875 
Q 40.828125 74.21875 47.359375 69.109375 
Q 53.90625 64.015625 53.90625 55.328125 
Q 53.90625 49.265625 50.4375 45.09375 
Q 46.96875 40.921875 40.578125 39.3125 
z
" id="DejaVuSans-33"/>
      </defs>
      <g transform="translate(1.542146 145.835178)scale(0.08 -0.08)">
       <use xlink:href="#DejaVuSans-30"/>
       <use x="63.623047" xlink:href="#DejaVuSans-2e"/>
       <use x="95.410156" xlink:href="#DejaVuSans-33"/>
      </g>
     </g>
    </g>
    <g id="ytick_5">
     <g id="line2d_17">
      <path clip-path="url(#pdf73ff9337)" d="M 17.764646 98.425952 
L 429.165354 98.425952 
" style="fill:none;opacity:0.1;stroke:#000000;stroke-linecap:square;stroke-width:0.5;"/>
     </g>
     <g id="line2d_18">
      <g>
       <use style="stroke:#000000;stroke-width:0.8;" x="17.764646" xlink:href="#ma571a89dc8" y="98.425952"/>
      </g>
     </g>
     <g id="text_9">
      <!-- 0.4 -->
      <g transform="translate(1.542146 101.465327)scale(0.08 -0.08)">
       <use xlink:href="#DejaVuSans-30"/>
       <use x="63.623047" xlink:href="#DejaVuSans-2e"/>
       <use x="95.410156" xlink:href="#DejaVuSans-34"/>
      </g>
     </g>
    </g>
    <g id="ytick_6">
     <g id="line2d_19">
      <path clip-path="url(#pdf73ff9337)" d="M 17.764646 54.056102 
L 429.165354 54.056102 
" style="fill:none;opacity:0.1;stroke:#000000;stroke-linecap:square;stroke-width:0.5;"/>
     </g>
     <g id="line2d_20">
      <g>
       <use style="stroke:#000000;stroke-width:0.8;" x="17.764646" xlink:href="#ma571a89dc8" y="54.056102"/>
      </g>
     </g>
     <g id="text_10">
      <!-- 0.5 -->
      <defs>
       <path d="M 10.796875 72.90625 
L 49.515625 72.90625 
L 49.515625 64.59375 
L 19.828125 64.59375 
L 19.828125 46.734375 
Q 21.96875 47.46875 24.109375 47.828125 
Q 26.265625 48.1875 28.421875 48.1875 
Q 40.625 48.1875 47.75 41.5 
Q 54.890625 34.8125 54.890625 23.390625 
Q 54.890625 11.625 47.5625 5.09375 
Q 40.234375 -1.421875 26.90625 -1.421875 
Q 22.3125 -1.421875 17.546875 -0.640625 
Q 12.796875 0.140625 7.71875 1.703125 
L 7.71875 11.625 
Q 12.109375 9.234375 16.796875 8.0625 
Q 21.484375 6.890625 26.703125 6.890625 
Q 35.15625 6.890625 40.078125 11.328125 
Q 45.015625 15.765625 45.015625 23.390625 
Q 45.015625 31 40.078125 35.4375 
Q 35.15625 39.890625 26.703125 39.890625 
Q 22.75 39.890625 18.8125 39.015625 
Q 14.890625 38.140625 10.796875 36.28125 
z
" id="DejaVuSans-35"/>
      </defs>
      <g transform="translate(1.542146 57.095477)scale(0.08 -0.08)">
       <use xlink:href="#DejaVuSans-30"/>
       <use x="63.623047" xlink:href="#DejaVuSans-2e"/>
       <use x="95.410156" xlink:href="#DejaVuSans-35"/>
      </g>
     </g>
    </g>
    <g id="ytick_7">
     <g id="line2d_21">
      <path clip-path="url(#pdf73ff9337)" d="M 17.764646 9.686251 
L 429.165354 9.686251 
" style="fill:none;opacity:0.1;stroke:#000000;stroke-linecap:square;stroke-width:0.5;"/>
     </g>
     <g id="line2d_22">
      <g>
       <use style="stroke:#000000;stroke-width:0.8;" x="17.764646" xlink:href="#ma571a89dc8" y="9.686251"/>
      </g>
     </g>
     <g id="text_11">
      <!-- 0.6 -->
      <g transform="translate(1.542146 12.725626)scale(0.08 -0.08)">
       <use xlink:href="#DejaVuSans-30"/>
       <use x="63.623047" xlink:href="#DejaVuSans-2e"/>
       <use x="95.410156" xlink:href="#DejaVuSans-36"/>
      </g>
     </g>
    </g>
   </g>
   <g id="PolyCollection_1">
    <path clip-path="url(#pdf73ff9337)" d="M 17.764646 275.623982 
L 17.764646 275.905354 
L 18.279441 275.905354 
L 18.794237 275.905354 
L 19.309033 275.905354 
L 19.823829 275.905354 
L 20.338624 275.905354 
L 20.85342 275.905354 
L 21.368216 275.905354 
L 21.883012 275.905354 
L 22.397807 275.905354 
L 22.912603 275.905354 
L 23.427399 275.905354 
L 23.942195 275.905354 
L 24.45699 275.905354 
L 24.971786 275.905354 
L 25.486582 275.905354 
L 26.001378 275.905354 
L 26.516173 275.905354 
L 27.030969 275.905354 
L 27.545765 275.905354 
L 28.060561 275.905354 
L 28.575356 275.905354 
L 29.090152 275.905354 
L 29.604948 275.905354 
L 30.119744 275.905354 
L 30.634539 275.905354 
L 31.149335 275.905354 
L 31.664131 275.905354 
L 32.178927 275.905354 
L 32.693722 275.905354 
L 33.208518 275.905354 
L 33.723314 275.905354 
L 34.23811 275.905354 
L 34.752905 275.905354 
L 35.267701 275.905354 
L 35.782497 275.905354 
L 36.297293 275.905354 
L 36.812088 275.905354 
L 37.326884 275.905354 
L 37.84168 275.905354 
L 38.356476 275.905354 
L 38.871271 275.905354 
L 39.386067 275.905354 
L 39.900863 275.905354 
L 40.415659 275.905354 
L 40.930454 275.905354 
L 41.44525 275.905354 
L 41.960046 275.905354 
L 42.474842 275.905354 
L 42.989637 275.905354 
L 43.504433 275.905354 
L 44.019229 275.905354 
L 44.534025 275.905354 
L 45.04882 275.905354 
L 45.563616 275.905354 
L 46.078412 275.905354 
L 46.593208 275.905354 
L 47.108003 275.905354 
L 47.622799 275.905354 
L 48.137595 275.905354 
L 48.652391 275.905354 
L 49.167186 275.905354 
L 49.681982 275.905354 
L 50.196778 275.905354 
L 50.711574 275.905354 
L 51.226369 275.905354 
L 51.741165 275.905354 
L 52.255961 275.905354 
L 52.770757 275.905354 
L 53.285552 275.905354 
L 53.800348 275.905354 
L 54.315144 275.905354 
L 54.82994 275.905354 
L 55.344735 275.905354 
L 55.859531 275.905354 
L 56.374327 275.905354 
L 56.889123 275.905354 
L 57.403918 275.905354 
L 57.918714 275.905354 
L 58.43351 275.905354 
L 58.948306 275.905354 
L 59.463101 275.905354 
L 59.977897 275.905354 
L 60.492693 275.905354 
L 61.007489 275.905354 
L 61.522284 275.905354 
L 62.03708 275.905354 
L 62.551876 275.905354 
L 63.066671 275.905354 
L 63.581467 275.905354 
L 64.096263 275.905354 
L 64.611059 275.905354 
L 65.125854 275.905354 
L 65.64065 275.905354 
L 66.155446 275.905354 
L 66.670242 275.905354 
L 67.185037 275.905354 
L 67.699833 275.905354 
L 68.214629 275.905354 
L 68.729425 275.905354 
L 68.729425 173.424324 
L 68.729425 173.424324 
L 68.214629 176.57416 
L 67.699833 179.63629 
L 67.185037 182.609954 
L 66.670242 185.499495 
L 66.155446 188.312897 
L 65.64065 191.060007 
L 65.125854 193.750928 
L 64.611059 196.394448 
L 64.096263 198.99715 
L 63.581467 201.562877 
L 63.066671 204.092758 
L 62.551876 206.585633 
L 62.03708 209.038764 
L 61.522284 211.448639 
L 61.007489 213.811823 
L 60.492693 216.125669 
L 59.977897 218.388829 
L 59.463101 220.601544 
L 58.948306 222.765667 
L 58.43351 224.884407 
L 57.918714 226.961837 
L 57.403918 229.002274 
L 56.889123 231.009464 
L 56.374327 232.985886 
L 55.859531 234.932098 
L 55.344735 236.846361 
L 54.82994 238.72454 
L 54.315144 240.560428 
L 53.800348 242.346269 
L 53.285552 244.073696 
L 52.770757 245.734664 
L 52.255961 247.322391 
L 51.741165 248.832195 
L 51.226369 250.261924 
L 50.711574 251.612122 
L 50.196778 252.885779 
L 49.681982 254.087818 
L 49.167186 255.224307 
L 48.652391 256.301741 
L 48.137595 257.326213 
L 47.622799 258.302912 
L 47.108003 259.235779 
L 46.593208 260.127414 
L 46.078412 260.979265 
L 45.563616 261.791929 
L 45.04882 262.565566 
L 44.534025 263.300313 
L 44.019229 263.99662 
L 43.504433 264.655498 
L 42.989637 265.278619 
L 42.474842 265.868331 
L 41.960046 266.42757 
L 41.44525 266.959699 
L 40.930454 267.468378 
L 40.415659 267.957326 
L 39.900863 268.430179 
L 39.386067 268.890262 
L 38.871271 269.340386 
L 38.356476 269.782656 
L 37.84168 270.218255 
L 37.326884 270.647299 
L 36.812088 271.068757 
L 36.297293 271.480484 
L 35.782497 271.879351 
L 35.267701 272.261569 
L 34.752905 272.623023 
L 34.23811 272.959768 
L 33.723314 273.268452 
L 33.208518 273.546703 
L 32.693722 273.793418 
L 32.178927 274.008869 
L 31.664131 274.194655 
L 31.149335 274.353496 
L 30.634539 274.48893 
L 30.119744 274.604884 
L 29.604948 274.70533 
L 29.090152 274.793883 
L 28.575356 274.873564 
L 28.060561 274.946643 
L 27.545765 275.014586 
L 27.030969 275.078144 
L 26.516173 275.137486 
L 26.001378 275.192401 
L 25.486582 275.242512 
L 24.971786 275.287462 
L 24.45699 275.327063 
L 23.942195 275.361393 
L 23.427399 275.390827 
L 22.912603 275.416019 
L 22.397807 275.437834 
L 21.883012 275.457273 
L 21.368216 275.475363 
L 20.85342 275.493079 
L 20.338624 275.511258 
L 19.823829 275.530548 
L 19.309033 275.551378 
L 18.794237 275.573944 
L 18.279441 275.59822 
L 17.764646 275.623982 
z
" style="fill:#ffa500;fill-opacity:0.5;"/>
   </g>
   <g id="line2d_23">
    <path clip-path="url(#pdf73ff9337)" d="M 17.764646 275.623982 
L 18.279441 275.59822 
L 18.794237 275.573944 
L 19.309033 275.551378 
L 19.823829 275.530548 
L 20.338624 275.511258 
L 20.85342 275.493079 
L 21.368216 275.475363 
L 21.883012 275.457273 
L 22.397807 275.437834 
L 22.912603 275.416019 
L 23.427399 275.390827 
L 23.942195 275.361393 
L 24.45699 275.327063 
L 24.971786 275.287462 
L 25.486582 275.242512 
L 26.001378 275.192401 
L 26.516173 275.137486 
L 27.030969 275.078144 
L 27.545765 275.014586 
L 28.060561 274.946643 
L 28.575356 274.873564 
L 29.090152 274.793883 
L 29.604948 274.70533 
L 30.119744 274.604884 
L 30.634539 274.48893 
L 31.149335 274.353496 
L 31.664131 274.194655 
L 32.178927 274.008869 
L 32.693722 273.793418 
L 33.208518 273.546703 
L 33.723314 273.268452 
L 34.23811 272.959768 
L 34.752905 272.623023 
L 35.267701 272.261569 
L 35.782497 271.879351 
L 36.297293 271.480484 
L 36.812088 271.068757 
L 37.326884 270.647299 
L 37.84168 270.218255 
L 38.356476 269.782656 
L 38.871271 269.340386 
L 39.386067 268.890262 
L 39.900863 268.430179 
L 40.415659 267.957326 
L 40.930454 267.468378 
L 41.44525 266.959699 
L 41.960046 266.42757 
L 42.474842 265.868331 
L 42.989637 265.278619 
L 43.504433 264.655498 
L 44.019229 263.99662 
L 44.534025 263.300313 
L 45.04882 262.565566 
L 45.563616 261.791929 
L 46.078412 260.979265 
L 46.593208 260.127414 
L 47.108003 259.235779 
L 47.622799 258.302912 
L 48.137595 257.326213 
L 48.652391 256.301741 
L 49.167186 255.224307 
L 49.681982 254.087818 
L 50.196778 252.885779 
L 50.711574 251.612122 
L 51.226369 250.261924 
L 51.741165 248.832195 
L 52.255961 247.322391 
L 52.770757 245.734664 
L 53.285552 244.073696 
L 53.800348 242.346269 
L 54.315144 240.560428 
L 54.82994 238.72454 
L 55.344735 236.846361 
L 55.859531 234.932098 
L 56.374327 232.985886 
L 56.889123 231.009464 
L 57.403918 229.002274 
L 57.918714 226.961837 
L 58.43351 224.884407 
L 58.948306 222.765667 
L 59.463101 220.601544 
L 59.977897 218.388829 
L 60.492693 216.125669 
L 61.007489 213.811823 
L 61.522284 211.448639 
L 62.03708 209.038764 
L 62.551876 206.585633 
L 63.066671 204.092758 
L 63.581467 201.562877 
L 64.096263 198.99715 
L 64.611059 196.394448 
L 65.125854 193.750928 
L 65.64065 191.060007 
L 66.155446 188.312897 
L 66.670242 185.499495 
L 67.185037 182.609954 
L 67.699833 179.63629 
L 68.214629 176.57416 
L 68.729425 173.424324 
" style="fill:none;stroke:#ffa500;stroke-linecap:round;"/>
   </g>
   <g id="PolyCollection_2">
    <path clip-path="url(#pdf73ff9337)" d="M 68.729425 173.424324 
L 68.729425 275.905354 
L 69.983315 275.905354 
L 71.237206 275.905354 
L 72.491097 275.905354 
L 73.744987 275.905354 
L 74.998878 275.905354 
L 76.252768 275.905354 
L 77.506659 275.905354 
L 78.760549 275.905354 
L 80.01444 275.905354 
L 81.268331 275.905354 
L 82.522221 275.905354 
L 83.776112 275.905354 
L 85.030002 275.905354 
L 86.283893 275.905354 
L 87.537784 275.905354 
L 88.791674 275.905354 
L 90.045565 275.905354 
L 91.299455 275.905354 
L 92.553346 275.905354 
L 93.807237 275.905354 
L 95.061127 275.905354 
L 96.315018 275.905354 
L 97.568908 275.905354 
L 98.822799 275.905354 
L 100.07669 275.905354 
L 101.33058 275.905354 
L 102.584471 275.905354 
L 103.838361 275.905354 
L 105.092252 275.905354 
L 106.346143 275.905354 
L 107.600033 275.905354 
L 108.853924 275.905354 
L 110.107814 275.905354 
L 111.361705 275.905354 
L 112.615596 275.905354 
L 113.869486 275.905354 
L 115.123377 275.905354 
L 116.377267 275.905354 
L 117.631158 275.905354 
L 118.885048 275.905354 
L 120.138939 275.905354 
L 121.39283 275.905354 
L 122.64672 275.905354 
L 123.900611 275.905354 
L 125.154501 275.905354 
L 126.408392 275.905354 
L 127.662283 275.905354 
L 128.916173 275.905354 
L 130.170064 275.905354 
L 131.423954 275.905354 
L 132.677845 275.905354 
L 133.931736 275.905354 
L 135.185626 275.905354 
L 136.439517 275.905354 
L 137.693407 275.905354 
L 138.947298 275.905354 
L 140.201189 275.905354 
L 141.455079 275.905354 
L 142.70897 275.905354 
L 143.96286 275.905354 
L 145.216751 275.905354 
L 146.470642 275.905354 
L 147.724532 275.905354 
L 148.978423 275.905354 
L 150.232313 275.905354 
L 151.486204 275.905354 
L 152.740095 275.905354 
L 153.993985 275.905354 
L 155.247876 275.905354 
L 156.501766 275.905354 
L 157.755657 275.905354 
L 159.009548 275.905354 
L 160.263438 275.905354 
L 161.517329 275.905354 
L 162.771219 275.905354 
L 164.02511 275.905354 
L 165.279 275.905354 
L 166.532891 275.905354 
L 167.786782 275.905354 
L 169.040672 275.905354 
L 170.294563 275.905354 
L 171.548453 275.905354 
L 172.802344 275.905354 
L 174.056235 275.905354 
L 175.310125 275.905354 
L 176.564016 275.905354 
L 177.817906 275.905354 
L 179.071797 275.905354 
L 180.325688 275.905354 
L 181.579578 275.905354 
L 182.833469 275.905354 
L 184.087359 275.905354 
L 185.34125 275.905354 
L 186.595141 275.905354 
L 187.849031 275.905354 
L 189.102922 275.905354 
L 190.356812 275.905354 
L 191.610703 275.905354 
L 192.864594 275.905354 
L 192.864594 228.53734 
L 192.864594 228.53734 
L 191.610703 225.826045 
L 190.356812 223.284326 
L 189.102922 220.935134 
L 187.849031 218.711961 
L 186.595141 216.504518 
L 185.34125 214.220315 
L 184.087359 211.828184 
L 182.833469 209.350901 
L 181.579578 206.809667 
L 180.325688 204.172229 
L 179.071797 201.361341 
L 177.817906 198.321058 
L 176.564016 195.075903 
L 175.310125 191.726536 
L 174.056235 188.39586 
L 172.802344 185.186596 
L 171.548453 182.181163 
L 170.294563 179.450664 
L 169.040672 177.023918 
L 167.786782 174.819196 
L 166.532891 172.598363 
L 165.279 170.002973 
L 164.02511 166.678922 
L 162.771219 162.439454 
L 161.517329 157.384838 
L 160.263438 151.898004 
L 159.009548 146.482414 
L 157.755657 141.505447 
L 156.501766 137.000801 
L 155.247876 132.673202 
L 153.993985 128.115967 
L 152.740095 123.093201 
L 151.486204 117.687829 
L 150.232313 112.220317 
L 148.978423 107.013167 
L 147.724532 102.17611 
L 146.470642 97.552205 
L 145.216751 92.843407 
L 143.96286 87.817532 
L 142.70897 82.452699 
L 141.455079 76.927382 
L 140.201189 71.487116 
L 138.947298 66.317496 
L 137.693407 61.526963 
L 136.439517 57.210859 
L 135.185626 53.477212 
L 133.931736 50.37235 
L 132.677845 47.780505 
L 131.423954 45.419542 
L 130.170064 42.958692 
L 128.916173 40.161049 
L 127.662283 36.944895 
L 126.408392 33.35785 
L 125.154501 29.535414 
L 123.900611 25.684682 
L 122.64672 22.05843 
L 121.39283 18.877774 
L 120.138939 16.231455 
L 118.885048 14.029118 
L 117.631158 12.052648 
L 116.377267 10.078449 
L 115.123377 8.007424 
L 113.869486 5.942778 
L 112.615596 4.171463 
L 111.361705 3.046037 
L 110.107814 2.834646 
L 108.853924 3.637339 
L 107.600033 5.395306 
L 106.346143 7.923015 
L 105.092252 10.906019 
L 103.838361 13.914886 
L 102.584471 16.525038 
L 101.33058 18.523437 
L 100.07669 20.051707 
L 98.822799 21.553096 
L 97.568908 23.551257 
L 96.315018 26.421673 
L 95.061127 30.29528 
L 93.807237 35.105315 
L 92.553346 40.690418 
L 91.299455 46.869647 
L 90.045565 53.466621 
L 88.791674 60.307838 
L 87.537784 67.227398 
L 86.283893 74.092495 
L 85.030002 80.838407 
L 83.776112 87.482374 
L 82.522221 94.092931 
L 81.268331 100.729035 
L 80.01444 107.396286 
L 78.760549 114.057879 
L 77.506659 120.693362 
L 76.252768 127.360916 
L 74.998878 134.212978 
L 73.744987 141.436979 
L 72.491097 149.137586 
L 71.237206 157.231067 
L 69.983315 165.441179 
L 68.729425 173.424324 
z
" style="fill:#008000;fill-opacity:0.5;"/>
   </g>
   <g id="line2d_24">
    <path clip-path="url(#pdf73ff9337)" d="M 68.729425 173.424324 
L 69.983315 165.441179 
L 71.237206 157.231067 
L 72.491097 149.137586 
L 73.744987 141.436979 
L 74.998878 134.212978 
L 76.252768 127.360916 
L 77.506659 120.693362 
L 78.760549 114.057879 
L 80.01444 107.396286 
L 81.268331 100.729035 
L 82.522221 94.092931 
L 83.776112 87.482374 
L 85.030002 80.838407 
L 86.283893 74.092495 
L 87.537784 67.227398 
L 88.791674 60.307838 
L 90.045565 53.466621 
L 91.299455 46.869647 
L 92.553346 40.690418 
L 93.807237 35.105315 
L 95.061127 30.29528 
L 96.315018 26.421673 
L 97.568908 23.551257 
L 98.822799 21.553096 
L 100.07669 20.051707 
L 101.33058 18.523437 
L 102.584471 16.525038 
L 103.838361 13.914886 
L 105.092252 10.906019 
L 106.346143 7.923015 
L 107.600033 5.395306 
L 108.853924 3.637339 
L 110.107814 2.834646 
L 111.361705 3.046037 
L 112.615596 4.171463 
L 113.869486 5.942778 
L 115.123377 8.007424 
L 116.377267 10.078449 
L 117.631158 12.052648 
L 118.885048 14.029118 
L 120.138939 16.231455 
L 121.39283 18.877774 
L 122.64672 22.05843 
L 123.900611 25.684682 
L 125.154501 29.535414 
L 126.408392 33.35785 
L 127.662283 36.944895 
L 128.916173 40.161049 
L 130.170064 42.958692 
L 131.423954 45.419542 
L 132.677845 47.780505 
L 133.931736 50.37235 
L 135.185626 53.477212 
L 136.439517 57.210859 
L 137.693407 61.526963 
L 138.947298 66.317496 
L 140.201189 71.487116 
L 141.455079 76.927382 
L 142.70897 82.452699 
L 143.96286 87.817532 
L 145.216751 92.843407 
L 146.470642 97.552205 
L 147.724532 102.17611 
L 148.978423 107.013167 
L 150.232313 112.220317 
L 151.486204 117.687829 
L 152.740095 123.093201 
L 153.993985 128.115967 
L 155.247876 132.673202 
L 156.501766 137.000801 
L 157.755657 141.505447 
L 159.009548 146.482414 
L 160.263438 151.898004 
L 161.517329 157.384838 
L 162.771219 162.439454 
L 164.02511 166.678922 
L 165.279 170.002973 
L 166.532891 172.598363 
L 167.786782 174.819196 
L 169.040672 177.023918 
L 170.294563 179.450664 
L 171.548453 182.181163 
L 172.802344 185.186596 
L 174.056235 188.39586 
L 175.310125 191.726536 
L 176.564016 195.075903 
L 177.817906 198.321058 
L 179.071797 201.361341 
L 180.325688 204.172229 
L 181.579578 206.809667 
L 182.833469 209.350901 
L 184.087359 211.828184 
L 185.34125 214.220315 
L 186.595141 216.504518 
L 187.849031 218.711961 
L 189.102922 220.935134 
L 190.356812 223.284326 
L 191.610703 225.826045 
L 192.864594 228.53734 
" style="fill:none;stroke:#008000;stroke-linecap:round;"/>
   </g>
   <g id="patch_3">
    <path d="M 17.764646 275.905354 
L 17.764646 2.834646 
" style="fill:none;stroke:#000000;stroke-linecap:square;stroke-linejoin:miter;stroke-width:0.8;"/>
   </g>
   <g id="patch_4">
    <path d="M 17.764646 275.905354 
L 429.165354 275.905354 
" style="fill:none;stroke:#000000;stroke-linecap:square;stroke-linejoin:miter;stroke-width:0.8;"/>
   </g>
   <g id="PolyCollection_3">
    <path clip-path="url(#pdf73ff9337)" d="M 192.864594 228.53734 
L 192.864594 275.905354 
L 195.25147 275.905354 
L 197.638346 275.905354 
L 200.025223 275.905354 
L 202.412099 275.905354 
L 204.798975 275.905354 
L 207.185852 275.905354 
L 209.572728 275.905354 
L 211.959605 275.905354 
L 214.346481 275.905354 
L 216.733357 275.905354 
L 219.120234 275.905354 
L 221.50711 275.905354 
L 223.893986 275.905354 
L 226.280863 275.905354 
L 228.667739 275.905354 
L 231.054616 275.905354 
L 233.441492 275.905354 
L 235.828368 275.905354 
L 238.215245 275.905354 
L 240.602121 275.905354 
L 242.988997 275.905354 
L 245.375874 275.905354 
L 247.76275 275.905354 
L 250.149626 275.905354 
L 252.536503 275.905354 
L 254.923379 275.905354 
L 257.310256 275.905354 
L 259.697132 275.905354 
L 262.084008 275.905354 
L 264.470885 275.905354 
L 266.857761 275.905354 
L 269.244637 275.905354 
L 271.631514 275.905354 
L 274.01839 275.905354 
L 276.405267 275.905354 
L 278.792143 275.905354 
L 281.179019 275.905354 
L 283.565896 275.905354 
L 285.952772 275.905354 
L 288.339648 275.905354 
L 290.726525 275.905354 
L 293.113401 275.905354 
L 295.500278 275.905354 
L 297.887154 275.905354 
L 300.27403 275.905354 
L 302.660907 275.905354 
L 305.047783 275.905354 
L 307.434659 275.905354 
L 309.821536 275.905354 
L 312.208412 275.905354 
L 314.595289 275.905354 
L 316.982165 275.905354 
L 319.369041 275.905354 
L 321.755918 275.905354 
L 324.142794 275.905354 
L 326.52967 275.905354 
L 328.916547 275.905354 
L 331.303423 275.905354 
L 333.690299 275.905354 
L 336.077176 275.905354 
L 338.464052 275.905354 
L 340.850929 275.905354 
L 343.237805 275.905354 
L 345.624681 275.905354 
L 348.011558 275.905354 
L 350.398434 275.905354 
L 352.78531 275.905354 
L 355.172187 275.905354 
L 357.559063 275.905354 
L 359.94594 275.905354 
L 362.332816 275.905354 
L 364.719692 275.905354 
L 367.106569 275.905354 
L 369.493445 275.905354 
L 371.880321 275.905354 
L 374.267198 275.905354 
L 376.654074 275.905354 
L 379.040951 275.905354 
L 381.427827 275.905354 
L 383.814703 275.905354 
L 386.20158 275.905354 
L 388.588456 275.905354 
L 390.975332 275.905354 
L 393.362209 275.905354 
L 395.749085 275.905354 
L 398.135962 275.905354 
L 400.522838 275.905354 
L 402.909714 275.905354 
L 405.296591 275.905354 
L 407.683467 275.905354 
L 410.070343 275.905354 
L 412.45722 275.905354 
L 414.844096 275.905354 
L 417.230972 275.905354 
L 419.617849 275.905354 
L 422.004725 275.905354 
L 424.391602 275.905354 
L 426.778478 275.905354 
L 429.165354 275.905354 
L 429.165354 275.847275 
L 429.165354 275.847275 
L 426.778478 275.860167 
L 424.391602 275.883197 
L 422.004725 275.892621 
L 419.617849 275.878077 
L 417.230972 275.843903 
L 414.844096 275.818947 
L 412.45722 275.831983 
L 410.070343 275.867787 
L 407.683467 275.893757 
L 405.296591 275.903194 
L 402.909714 275.905078 
L 400.522838 275.904929 
L 398.135962 275.902364 
L 395.749085 275.892123 
L 393.362209 275.869467 
L 390.975332 275.843336 
L 388.588456 275.829509 
L 386.20158 275.827913 
L 383.814703 275.836517 
L 381.427827 275.8594 
L 379.040951 275.885236 
L 376.654074 275.899903 
L 374.267198 275.904454 
L 371.880321 275.905213 
L 369.493445 275.90484 
L 367.106569 275.902351 
L 364.719692 275.894578 
L 362.332816 275.881272 
L 359.94594 275.869144 
L 357.559063 275.861226 
L 355.172187 275.852543 
L 352.78531 275.845449 
L 350.398434 275.842361 
L 348.011558 275.83123 
L 345.624681 275.814503 
L 343.237805 275.819562 
L 340.850929 275.841521 
L 338.464052 275.829247 
L 336.077176 275.749253 
L 333.690299 275.630134 
L 331.303423 275.540121 
L 328.916547 275.529579 
L 326.52967 275.585486 
L 324.142794 275.616956 
L 321.755918 275.520913 
L 319.369041 275.320559 
L 316.982165 275.17149 
L 314.595289 275.137856 
L 312.208412 275.128901 
L 309.821536 275.088299 
L 307.434659 275.055053 
L 305.047783 275.09471 
L 302.660907 275.221796 
L 300.27403 275.355846 
L 297.887154 275.373343 
L 295.500278 275.221493 
L 293.113401 274.99253 
L 290.726525 274.824648 
L 288.339648 274.726477 
L 285.952772 274.6084 
L 283.565896 274.429731 
L 281.179019 274.210258 
L 278.792143 273.982202 
L 276.405267 273.818876 
L 274.01839 273.791822 
L 271.631514 273.834792 
L 269.244637 273.783831 
L 266.857761 273.555038 
L 264.470885 273.196826 
L 262.084008 272.868672 
L 259.697132 272.722917 
L 257.310256 272.67083 
L 254.923379 272.46874 
L 252.536503 272.054992 
L 250.149626 271.452907 
L 247.76275 270.600849 
L 245.375874 269.633002 
L 242.988997 268.785003 
L 240.602121 268.012075 
L 238.215245 267.182376 
L 235.828368 266.370718 
L 233.441492 265.72445 
L 231.054616 265.10799 
L 228.667739 264.155227 
L 226.280863 262.769642 
L 223.893986 261.211904 
L 221.50711 259.760962 
L 219.120234 258.475704 
L 216.733357 257.146512 
L 214.346481 255.426331 
L 211.959605 253.067308 
L 209.572728 250.152748 
L 207.185852 246.994289 
L 204.798975 244.03471 
L 202.412099 241.819045 
L 200.025223 240.127749 
L 197.638346 237.707898 
L 195.25147 233.672613 
L 192.864594 228.53734 
z
" style="fill:#ffa500;fill-opacity:0.5;"/>
   </g>
   <g id="line2d_25">
    <path clip-path="url(#pdf73ff9337)" d="M 192.864594 228.53734 
L 195.25147 233.672613 
L 197.638346 237.707898 
L 200.025223 240.127749 
L 202.412099 241.819045 
L 204.798975 244.03471 
L 207.185852 246.994289 
L 209.572728 250.152748 
L 211.959605 253.067308 
L 214.346481 255.426331 
L 216.733357 257.146512 
L 219.120234 258.475704 
L 221.50711 259.760962 
L 223.893986 261.211904 
L 226.280863 262.769642 
L 228.667739 264.155227 
L 231.054616 265.10799 
L 233.441492 265.72445 
L 235.828368 266.370718 
L 238.215245 267.182376 
L 240.602121 268.012075 
L 242.988997 268.785003 
L 245.375874 269.633002 
L 247.76275 270.600849 
L 250.149626 271.452907 
L 252.536503 272.054992 
L 254.923379 272.46874 
L 257.310256 272.67083 
L 259.697132 272.722917 
L 262.084008 272.868672 
L 264.470885 273.196826 
L 266.857761 273.555038 
L 269.244637 273.783831 
L 271.631514 273.834792 
L 274.01839 273.791822 
L 276.405267 273.818876 
L 278.792143 273.982202 
L 281.179019 274.210258 
L 283.565896 274.429731 
L 285.952772 274.6084 
L 288.339648 274.726477 
L 290.726525 274.824648 
L 293.113401 274.99253 
L 295.500278 275.221493 
L 297.887154 275.373343 
L 300.27403 275.355846 
L 302.660907 275.221796 
L 305.047783 275.09471 
L 307.434659 275.055053 
L 309.821536 275.088299 
L 312.208412 275.128901 
L 314.595289 275.137856 
L 316.982165 275.17149 
L 319.369041 275.320559 
L 321.755918 275.520913 
L 324.142794 275.616956 
L 326.52967 275.585486 
L 328.916547 275.529579 
L 331.303423 275.540121 
L 333.690299 275.630134 
L 336.077176 275.749253 
L 338.464052 275.829247 
L 340.850929 275.841521 
L 343.237805 275.819562 
L 345.624681 275.814503 
L 348.011558 275.83123 
L 350.398434 275.842361 
L 352.78531 275.845449 
L 355.172187 275.852543 
L 357.559063 275.861226 
L 359.94594 275.869144 
L 362.332816 275.881272 
L 364.719692 275.894578 
L 367.106569 275.902351 
L 369.493445 275.90484 
L 371.880321 275.905213 
L 374.267198 275.904454 
L 376.654074 275.899903 
L 379.040951 275.885236 
L 381.427827 275.8594 
L 383.814703 275.836517 
L 386.20158 275.827913 
L 388.588456 275.829509 
L 390.975332 275.843336 
L 393.362209 275.869467 
L 395.749085 275.892123 
L 398.135962 275.902364 
L 400.522838 275.904929 
L 402.909714 275.905078 
L 405.296591 275.903194 
L 407.683467 275.893757 
L 410.070343 275.867787 
L 412.45722 275.831983 
L 414.844096 275.818947 
L 417.230972 275.843903 
L 419.617849 275.878077 
L 422.004725 275.892621 
L 424.391602 275.883197 
L 426.778478 275.860167 
L 429.165354 275.847275 
" style="fill:none;stroke:#ffa500;stroke-linecap:round;"/>
   </g>
   <g id="line2d_26">
    <path clip-path="url(#pdf73ff9337)" d="M 123.304015 275.905354 
L 123.304015 23.915808 
" style="fill:none;stroke:#0000ff;stroke-linecap:round;"/>
   </g>
   <g id="line2d_27">
    <path clip-path="url(#pdf73ff9337)" d="M 118.811317 275.905354 
L 118.811317 13.909069 
" style="fill:none;stroke:#000000;stroke-linecap:round;"/>
   </g>
   <g id="legend_1">
    <g id="patch_5">
     <path d="M 303.492854 67.947146 
L 423.565354 67.947146 
Q 425.165354 67.947146 425.165354 66.347146 
L 425.165354 8.434646 
Q 425.165354 6.834646 423.565354 6.834646 
L 303.492854 6.834646 
Q 301.892854 6.834646 301.892854 8.434646 
L 301.892854 66.347146 
Q 301.892854 67.947146 303.492854 67.947146 
z
" style="fill:#ffffff;opacity:0.8;stroke:#000000;stroke-linejoin:miter;"/>
    </g>
    <g id="patch_6">
     <path d="M 305.092854 16.113396 
L 321.092854 16.113396 
L 321.092854 10.513396 
L 305.092854 10.513396 
z
" style="fill:#ffa500;fill-opacity:0.5;stroke:#ffa500;stroke-linejoin:miter;"/>
    </g>
    <g id="text_12">
     <!-- q05 -->
     <defs>
      <path d="M 14.796875 27.296875 
Q 14.796875 17.390625 18.875 11.75 
Q 22.953125 6.109375 30.078125 6.109375 
Q 37.203125 6.109375 41.296875 11.75 
Q 45.40625 17.390625 45.40625 27.296875 
Q 45.40625 37.203125 41.296875 42.84375 
Q 37.203125 48.484375 30.078125 48.484375 
Q 22.953125 48.484375 18.875 42.84375 
Q 14.796875 37.203125 14.796875 27.296875 
z
M 45.40625 8.203125 
Q 42.578125 3.328125 38.25 0.953125 
Q 33.9375 -1.421875 27.875 -1.421875 
Q 17.96875 -1.421875 11.734375 6.484375 
Q 5.515625 14.40625 5.515625 27.296875 
Q 5.515625 40.1875 11.734375 48.09375 
Q 17.96875 56 27.875 56 
Q 33.9375 56 38.25 53.625 
Q 42.578125 51.265625 45.40625 46.390625 
L 45.40625 54.6875 
L 54.390625 54.6875 
L 54.390625 -20.796875 
L 45.40625 -20.796875 
z
" id="DejaVuSans-71"/>
     </defs>
     <g transform="translate(327.492854 16.113396)scale(0.08 -0.08)">
      <use xlink:href="#DejaVuSans-71"/>
      <use x="63.476562" xlink:href="#DejaVuSans-30"/>
      <use x="127.099609" xlink:href="#DejaVuSans-35"/>
     </g>
    </g>
    <g id="patch_7">
     <path d="M 305.092854 27.855896 
L 321.092854 27.855896 
L 321.092854 22.255896 
L 305.092854 22.255896 
z
" style="fill:#008000;fill-opacity:0.5;stroke:#008000;stroke-linejoin:miter;"/>
    </g>
    <g id="text_13">
     <!-- 90% acceptance region -->
     <defs>
      <path d="M 10.984375 1.515625 
L 10.984375 10.5 
Q 14.703125 8.734375 18.5 7.8125 
Q 22.3125 6.890625 25.984375 6.890625 
Q 35.75 6.890625 40.890625 13.453125 
Q 46.046875 20.015625 46.78125 33.40625 
Q 43.953125 29.203125 39.59375 26.953125 
Q 35.25 24.703125 29.984375 24.703125 
Q 19.046875 24.703125 12.671875 31.3125 
Q 6.296875 37.9375 6.296875 49.421875 
Q 6.296875 60.640625 12.9375 67.421875 
Q 19.578125 74.21875 30.609375 74.21875 
Q 43.265625 74.21875 49.921875 64.515625 
Q 56.59375 54.828125 56.59375 36.375 
Q 56.59375 19.140625 48.40625 8.859375 
Q 40.234375 -1.421875 26.421875 -1.421875 
Q 22.703125 -1.421875 18.890625 -0.6875 
Q 15.09375 0.046875 10.984375 1.515625 
z
M 30.609375 32.421875 
Q 37.25 32.421875 41.125 36.953125 
Q 45.015625 41.5 45.015625 49.421875 
Q 45.015625 57.28125 41.125 61.84375 
Q 37.25 66.40625 30.609375 66.40625 
Q 23.96875 66.40625 20.09375 61.84375 
Q 16.21875 57.28125 16.21875 49.421875 
Q 16.21875 41.5 20.09375 36.953125 
Q 23.96875 32.421875 30.609375 32.421875 
z
" id="DejaVuSans-39"/>
      <path d="M 72.703125 32.078125 
Q 68.453125 32.078125 66.03125 28.46875 
Q 63.625 24.859375 63.625 18.40625 
Q 63.625 12.0625 66.03125 8.421875 
Q 68.453125 4.78125 72.703125 4.78125 
Q 76.859375 4.78125 79.265625 8.421875 
Q 81.6875 12.0625 81.6875 18.40625 
Q 81.6875 24.8125 79.265625 28.4375 
Q 76.859375 32.078125 72.703125 32.078125 
z
M 72.703125 38.28125 
Q 80.421875 38.28125 84.953125 32.90625 
Q 89.5 27.546875 89.5 18.40625 
Q 89.5 9.28125 84.9375 3.921875 
Q 80.375 -1.421875 72.703125 -1.421875 
Q 64.890625 -1.421875 60.34375 3.921875 
Q 55.8125 9.28125 55.8125 18.40625 
Q 55.8125 27.59375 60.375 32.9375 
Q 64.9375 38.28125 72.703125 38.28125 
z
M 22.3125 68.015625 
Q 18.109375 68.015625 15.6875 64.375 
Q 13.28125 60.75 13.28125 54.390625 
Q 13.28125 47.953125 15.671875 44.328125 
Q 18.0625 40.71875 22.3125 40.71875 
Q 26.5625 40.71875 28.96875 44.328125 
Q 31.390625 47.953125 31.390625 54.390625 
Q 31.390625 60.6875 28.953125 64.34375 
Q 26.515625 68.015625 22.3125 68.015625 
z
M 66.40625 74.21875 
L 74.21875 74.21875 
L 28.609375 -1.421875 
L 20.796875 -1.421875 
z
M 22.3125 74.21875 
Q 30.03125 74.21875 34.609375 68.875 
Q 39.203125 63.53125 39.203125 54.390625 
Q 39.203125 45.171875 34.640625 39.84375 
Q 30.078125 34.515625 22.3125 34.515625 
Q 14.546875 34.515625 10.03125 39.859375 
Q 5.515625 45.21875 5.515625 54.390625 
Q 5.515625 63.484375 10.046875 68.84375 
Q 14.59375 74.21875 22.3125 74.21875 
z
" id="DejaVuSans-25"/>
      <path id="DejaVuSans-20"/>
      <path d="M 34.28125 27.484375 
Q 23.390625 27.484375 19.1875 25 
Q 14.984375 22.515625 14.984375 16.5 
Q 14.984375 11.71875 18.140625 8.90625 
Q 21.296875 6.109375 26.703125 6.109375 
Q 34.1875 6.109375 38.703125 11.40625 
Q 43.21875 16.703125 43.21875 25.484375 
L 43.21875 27.484375 
z
M 52.203125 31.203125 
L 52.203125 0 
L 43.21875 0 
L 43.21875 8.296875 
Q 40.140625 3.328125 35.546875 0.953125 
Q 30.953125 -1.421875 24.3125 -1.421875 
Q 15.921875 -1.421875 10.953125 3.296875 
Q 6 8.015625 6 15.921875 
Q 6 25.140625 12.171875 29.828125 
Q 18.359375 34.515625 30.609375 34.515625 
L 43.21875 34.515625 
L 43.21875 35.40625 
Q 43.21875 41.609375 39.140625 45 
Q 35.0625 48.390625 27.6875 48.390625 
Q 23 48.390625 18.546875 47.265625 
Q 14.109375 46.140625 10.015625 43.890625 
L 10.015625 52.203125 
Q 14.9375 54.109375 19.578125 55.046875 
Q 24.21875 56 28.609375 56 
Q 40.484375 56 46.34375 49.84375 
Q 52.203125 43.703125 52.203125 31.203125 
z
" id="DejaVuSans-61"/>
      <path d="M 48.78125 52.59375 
L 48.78125 44.1875 
Q 44.96875 46.296875 41.140625 47.34375 
Q 37.3125 48.390625 33.40625 48.390625 
Q 24.65625 48.390625 19.8125 42.84375 
Q 14.984375 37.3125 14.984375 27.296875 
Q 14.984375 17.28125 19.8125 11.734375 
Q 24.65625 6.203125 33.40625 6.203125 
Q 37.3125 6.203125 41.140625 7.25 
Q 44.96875 8.296875 48.78125 10.40625 
L 48.78125 2.09375 
Q 45.015625 0.34375 40.984375 -0.53125 
Q 36.96875 -1.421875 32.421875 -1.421875 
Q 20.0625 -1.421875 12.78125 6.34375 
Q 5.515625 14.109375 5.515625 27.296875 
Q 5.515625 40.671875 12.859375 48.328125 
Q 20.21875 56 33.015625 56 
Q 37.15625 56 41.109375 55.140625 
Q 45.0625 54.296875 48.78125 52.59375 
z
" id="DejaVuSans-63"/>
      <path d="M 56.203125 29.59375 
L 56.203125 25.203125 
L 14.890625 25.203125 
Q 15.484375 15.921875 20.484375 11.0625 
Q 25.484375 6.203125 34.421875 6.203125 
Q 39.59375 6.203125 44.453125 7.46875 
Q 49.3125 8.734375 54.109375 11.28125 
L 54.109375 2.78125 
Q 49.265625 0.734375 44.1875 -0.34375 
Q 39.109375 -1.421875 33.890625 -1.421875 
Q 20.796875 -1.421875 13.15625 6.1875 
Q 5.515625 13.8125 5.515625 26.8125 
Q 5.515625 40.234375 12.765625 48.109375 
Q 20.015625 56 32.328125 56 
Q 43.359375 56 49.78125 48.890625 
Q 56.203125 41.796875 56.203125 29.59375 
z
M 47.21875 32.234375 
Q 47.125 39.59375 43.09375 43.984375 
Q 39.0625 48.390625 32.421875 48.390625 
Q 24.90625 48.390625 20.390625 44.140625 
Q 15.875 39.890625 15.1875 32.171875 
z
" id="DejaVuSans-65"/>
      <path d="M 18.109375 8.203125 
L 18.109375 -20.796875 
L 9.078125 -20.796875 
L 9.078125 54.6875 
L 18.109375 54.6875 
L 18.109375 46.390625 
Q 20.953125 51.265625 25.265625 53.625 
Q 29.59375 56 35.59375 56 
Q 45.5625 56 51.78125 48.09375 
Q 58.015625 40.1875 58.015625 27.296875 
Q 58.015625 14.40625 51.78125 6.484375 
Q 45.5625 -1.421875 35.59375 -1.421875 
Q 29.59375 -1.421875 25.265625 0.953125 
Q 20.953125 3.328125 18.109375 8.203125 
z
M 48.6875 27.296875 
Q 48.6875 37.203125 44.609375 42.84375 
Q 40.53125 48.484375 33.40625 48.484375 
Q 26.265625 48.484375 22.1875 42.84375 
Q 18.109375 37.203125 18.109375 27.296875 
Q 18.109375 17.390625 22.1875 11.75 
Q 26.265625 6.109375 33.40625 6.109375 
Q 40.53125 6.109375 44.609375 11.75 
Q 48.6875 17.390625 48.6875 27.296875 
z
" id="DejaVuSans-70"/>
      <path d="M 18.3125 70.21875 
L 18.3125 54.6875 
L 36.8125 54.6875 
L 36.8125 47.703125 
L 18.3125 47.703125 
L 18.3125 18.015625 
Q 18.3125 11.328125 20.140625 9.421875 
Q 21.96875 7.515625 27.59375 7.515625 
L 36.8125 7.515625 
L 36.8125 0 
L 27.59375 0 
Q 17.1875 0 13.234375 3.875 
Q 9.28125 7.765625 9.28125 18.015625 
L 9.28125 47.703125 
L 2.6875 47.703125 
L 2.6875 54.6875 
L 9.28125 54.6875 
L 9.28125 70.21875 
z
" id="DejaVuSans-74"/>
      <path d="M 54.890625 33.015625 
L 54.890625 0 
L 45.90625 0 
L 45.90625 32.71875 
Q 45.90625 40.484375 42.875 44.328125 
Q 39.84375 48.1875 33.796875 48.1875 
Q 26.515625 48.1875 22.3125 43.546875 
Q 18.109375 38.921875 18.109375 30.90625 
L 18.109375 0 
L 9.078125 0 
L 9.078125 54.6875 
L 18.109375 54.6875 
L 18.109375 46.1875 
Q 21.34375 51.125 25.703125 53.5625 
Q 30.078125 56 35.796875 56 
Q 45.21875 56 50.046875 50.171875 
Q 54.890625 44.34375 54.890625 33.015625 
z
" id="DejaVuSans-6e"/>
      <path d="M 41.109375 46.296875 
Q 39.59375 47.171875 37.8125 47.578125 
Q 36.03125 48 33.890625 48 
Q 26.265625 48 22.1875 43.046875 
Q 18.109375 38.09375 18.109375 28.8125 
L 18.109375 0 
L 9.078125 0 
L 9.078125 54.6875 
L 18.109375 54.6875 
L 18.109375 46.1875 
Q 20.953125 51.171875 25.484375 53.578125 
Q 30.03125 56 36.53125 56 
Q 37.453125 56 38.578125 55.875 
Q 39.703125 55.765625 41.0625 55.515625 
z
" id="DejaVuSans-72"/>
      <path d="M 45.40625 27.984375 
Q 45.40625 37.75 41.375 43.109375 
Q 37.359375 48.484375 30.078125 48.484375 
Q 22.859375 48.484375 18.828125 43.109375 
Q 14.796875 37.75 14.796875 27.984375 
Q 14.796875 18.265625 18.828125 12.890625 
Q 22.859375 7.515625 30.078125 7.515625 
Q 37.359375 7.515625 41.375 12.890625 
Q 45.40625 18.265625 45.40625 27.984375 
z
M 54.390625 6.78125 
Q 54.390625 -7.171875 48.1875 -13.984375 
Q 42 -20.796875 29.203125 -20.796875 
Q 24.46875 -20.796875 20.265625 -20.09375 
Q 16.0625 -19.390625 12.109375 -17.921875 
L 12.109375 -9.1875 
Q 16.0625 -11.328125 19.921875 -12.34375 
Q 23.78125 -13.375 27.78125 -13.375 
Q 36.625 -13.375 41.015625 -8.765625 
Q 45.40625 -4.15625 45.40625 5.171875 
L 45.40625 9.625 
Q 42.625 4.78125 38.28125 2.390625 
Q 33.9375 0 27.875 0 
Q 17.828125 0 11.671875 7.65625 
Q 5.515625 15.328125 5.515625 27.984375 
Q 5.515625 40.671875 11.671875 48.328125 
Q 17.828125 56 27.875 56 
Q 33.9375 56 38.28125 53.609375 
Q 42.625 51.21875 45.40625 46.390625 
L 45.40625 54.6875 
L 54.390625 54.6875 
z
" id="DejaVuSans-67"/>
      <path d="M 9.421875 54.6875 
L 18.40625 54.6875 
L 18.40625 0 
L 9.421875 0 
z
M 9.421875 75.984375 
L 18.40625 75.984375 
L 18.40625 64.59375 
L 9.421875 64.59375 
z
" id="DejaVuSans-69"/>
      <path d="M 30.609375 48.390625 
Q 23.390625 48.390625 19.1875 42.75 
Q 14.984375 37.109375 14.984375 27.296875 
Q 14.984375 17.484375 19.15625 11.84375 
Q 23.34375 6.203125 30.609375 6.203125 
Q 37.796875 6.203125 41.984375 11.859375 
Q 46.1875 17.53125 46.1875 27.296875 
Q 46.1875 37.015625 41.984375 42.703125 
Q 37.796875 48.390625 30.609375 48.390625 
z
M 30.609375 56 
Q 42.328125 56 49.015625 48.375 
Q 55.71875 40.765625 55.71875 27.296875 
Q 55.71875 13.875 49.015625 6.21875 
Q 42.328125 -1.421875 30.609375 -1.421875 
Q 18.84375 -1.421875 12.171875 6.21875 
Q 5.515625 13.875 5.515625 27.296875 
Q 5.515625 40.765625 12.171875 48.375 
Q 18.84375 56 30.609375 56 
z
" id="DejaVuSans-6f"/>
     </defs>
     <g transform="translate(327.492854 27.855896)scale(0.08 -0.08)">
      <use xlink:href="#DejaVuSans-39"/>
      <use x="63.623047" xlink:href="#DejaVuSans-30"/>
      <use x="127.246094" xlink:href="#DejaVuSans-25"/>
      <use x="222.265625" xlink:href="#DejaVuSans-20"/>
      <use x="254.052734" xlink:href="#DejaVuSans-61"/>
      <use x="315.332031" xlink:href="#DejaVuSans-63"/>
      <use x="370.3125" xlink:href="#DejaVuSans-63"/>
      <use x="425.292969" xlink:href="#DejaVuSans-65"/>
      <use x="486.816406" xlink:href="#DejaVuSans-70"/>
      <use x="550.292969" xlink:href="#DejaVuSans-74"/>
      <use x="589.501953" xlink:href="#DejaVuSans-61"/>
      <use x="650.78125" xlink:href="#DejaVuSans-6e"/>
      <use x="714.160156" xlink:href="#DejaVuSans-63"/>
      <use x="769.140625" xlink:href="#DejaVuSans-65"/>
      <use x="830.664062" xlink:href="#DejaVuSans-20"/>
      <use x="862.451172" xlink:href="#DejaVuSans-72"/>
      <use x="903.533203" xlink:href="#DejaVuSans-65"/>
      <use x="965.056641" xlink:href="#DejaVuSans-67"/>
      <use x="1028.533203" xlink:href="#DejaVuSans-69"/>
      <use x="1056.316406" xlink:href="#DejaVuSans-6f"/>
      <use x="1117.498047" xlink:href="#DejaVuSans-6e"/>
     </g>
    </g>
    <g id="patch_8">
     <path d="M 305.092854 39.598396 
L 321.092854 39.598396 
L 321.092854 33.998396 
L 305.092854 33.998396 
z
" style="fill:#ffa500;fill-opacity:0.5;stroke:#ffa500;stroke-linejoin:miter;"/>
    </g>
    <g id="text_14">
     <!-- q95 -->
     <g transform="translate(327.492854 39.598396)scale(0.08 -0.08)">
      <use xlink:href="#DejaVuSans-71"/>
      <use x="63.476562" xlink:href="#DejaVuSans-39"/>
      <use x="127.099609" xlink:href="#DejaVuSans-35"/>
     </g>
    </g>
    <g id="line2d_28">
     <path d="M 305.092854 48.540896 
L 321.092854 48.540896 
" style="fill:none;stroke:#0000ff;stroke-linecap:square;"/>
    </g>
    <g id="line2d_29"/>
    <g id="text_15">
     <!-- mean -->
     <defs>
      <path d="M 52 44.1875 
Q 55.375 50.25 60.0625 53.125 
Q 64.75 56 71.09375 56 
Q 79.640625 56 84.28125 50.015625 
Q 88.921875 44.046875 88.921875 33.015625 
L 88.921875 0 
L 79.890625 0 
L 79.890625 32.71875 
Q 79.890625 40.578125 77.09375 44.375 
Q 74.3125 48.1875 68.609375 48.1875 
Q 61.625 48.1875 57.5625 43.546875 
Q 53.515625 38.921875 53.515625 30.90625 
L 53.515625 0 
L 44.484375 0 
L 44.484375 32.71875 
Q 44.484375 40.625 41.703125 44.40625 
Q 38.921875 48.1875 33.109375 48.1875 
Q 26.21875 48.1875 22.15625 43.53125 
Q 18.109375 38.875 18.109375 30.90625 
L 18.109375 0 
L 9.078125 0 
L 9.078125 54.6875 
L 18.109375 54.6875 
L 18.109375 46.1875 
Q 21.1875 51.21875 25.484375 53.609375 
Q 29.78125 56 35.6875 56 
Q 41.65625 56 45.828125 52.96875 
Q 50 49.953125 52 44.1875 
z
" id="DejaVuSans-6d"/>
     </defs>
     <g transform="translate(327.492854 51.340896)scale(0.08 -0.08)">
      <use xlink:href="#DejaVuSans-6d"/>
      <use x="97.412109" xlink:href="#DejaVuSans-65"/>
      <use x="158.935547" xlink:href="#DejaVuSans-61"/>
      <use x="220.214844" xlink:href="#DejaVuSans-6e"/>
     </g>
    </g>
    <g id="line2d_30">
     <path d="M 305.092854 60.283396 
L 321.092854 60.283396 
" style="fill:none;stroke:#000000;stroke-linecap:square;"/>
    </g>
    <g id="line2d_31"/>
    <g id="text_16">
     <!-- median -->
     <defs>
      <path d="M 45.40625 46.390625 
L 45.40625 75.984375 
L 54.390625 75.984375 
L 54.390625 0 
L 45.40625 0 
L 45.40625 8.203125 
Q 42.578125 3.328125 38.25 0.953125 
Q 33.9375 -1.421875 27.875 -1.421875 
Q 17.96875 -1.421875 11.734375 6.484375 
Q 5.515625 14.40625 5.515625 27.296875 
Q 5.515625 40.1875 11.734375 48.09375 
Q 17.96875 56 27.875 56 
Q 33.9375 56 38.25 53.625 
Q 42.578125 51.265625 45.40625 46.390625 
z
M 14.796875 27.296875 
Q 14.796875 17.390625 18.875 11.75 
Q 22.953125 6.109375 30.078125 6.109375 
Q 37.203125 6.109375 41.296875 11.75 
Q 45.40625 17.390625 45.40625 27.296875 
Q 45.40625 37.203125 41.296875 42.84375 
Q 37.203125 48.484375 30.078125 48.484375 
Q 22.953125 48.484375 18.875 42.84375 
Q 14.796875 37.203125 14.796875 27.296875 
z
" id="DejaVuSans-64"/>
     </defs>
     <g transform="translate(327.492854 63.083396)scale(0.08 -0.08)">
      <use xlink:href="#DejaVuSans-6d"/>
      <use x="97.412109" xlink:href="#DejaVuSans-65"/>
      <use x="158.935547" xlink:href="#DejaVuSans-64"/>
      <use x="222.412109" xlink:href="#DejaVuSans-69"/>
      <use x="250.195312" xlink:href="#DejaVuSans-61"/>
      <use x="311.474609" xlink:href="#DejaVuSans-6e"/>
     </g>
    </g>
   </g>
  </g>
 </g>
 <defs>
  <clipPath id="pdf73ff9337">
   <rect height="273.070709" width="411.400709" x="17.764646" y="2.834646"/>
  </clipPath>
 </defs>
</svg>
