<?xml version="1.0" encoding="utf-8"?>
<svg xmlns="http://www.w3.org/2000/svg" xmlns:xlink="http://www.w3.org/1999/xlink" width="600" height="400" viewBox="0 0 2400 1600">
<defs>
  <clipPath id="clip650">
    <rect x="0" y="0" width="2400" height="1600"/>
  </clipPath>
</defs>
<path clip-path="url(#clip650)" d="
M0 1600 L2400 1600 L2400 0 L0 0  Z
  " fill="#ffffff" fill-rule="evenodd" fill-opacity="1"/>
<defs>
  <clipPath id="clip651">
    <rect x="138" y="47" width="2215" height="1440"/>
  </clipPath>
</defs>
<path clip-path="url(#clip650)" d="
M138.959 1486.45 L2352.76 1486.45 L2352.76 47.2441 L138.959 47.2441  Z
  " fill="#ffffff" fill-rule="evenodd" fill-opacity="1"/>
<polyline clip-path="url(#clip651)" style="stroke:#000000; stroke-linecap:butt; stroke-linejoin:round; stroke-width:2; stroke-opacity:0.1; fill:none" points="
  433.668,1486.45 433.668,47.2441 
  "/>
<polyline clip-path="url(#clip651)" style="stroke:#000000; stroke-linecap:butt; stroke-linejoin:round; stroke-width:2; stroke-opacity:0.1; fill:none" points="
  897.776,1486.45 897.776,47.2441 
  "/>
<polyline clip-path="url(#clip651)" style="stroke:#000000; stroke-linecap:butt; stroke-linejoin:round; stroke-width:2; stroke-opacity:0.1; fill:none" points="
  1361.88,1486.45 1361.88,47.2441 
  "/>
<polyline clip-path="url(#clip651)" style="stroke:#000000; stroke-linecap:butt; stroke-linejoin:round; stroke-width:2; stroke-opacity:0.1; fill:none" points="
  1825.99,1486.45 1825.99,47.2441 
  "/>
<polyline clip-path="url(#clip651)" style="stroke:#000000; stroke-linecap:butt; stroke-linejoin:round; stroke-width:2; stroke-opacity:0.1; fill:none" points="
  2290.1,1486.45 2290.1,47.2441 
  "/>
<polyline clip-path="url(#clip650)" style="stroke:#000000; stroke-linecap:butt; stroke-linejoin:round; stroke-width:4; stroke-opacity:1; fill:none" points="
  138.959,1486.45 2352.76,1486.45 
  "/>
<polyline clip-path="url(#clip650)" style="stroke:#000000; stroke-linecap:butt; stroke-linejoin:round; stroke-width:4; stroke-opacity:1; fill:none" points="
  433.668,1486.45 433.668,1467.55 
  "/>
<polyline clip-path="url(#clip650)" style="stroke:#000000; stroke-linecap:butt; stroke-linejoin:round; stroke-width:4; stroke-opacity:1; fill:none" points="
  897.776,1486.45 897.776,1467.55 
  "/>
<polyline clip-path="url(#clip650)" style="stroke:#000000; stroke-linecap:butt; stroke-linejoin:round; stroke-width:4; stroke-opacity:1; fill:none" points="
  1361.88,1486.45 1361.88,1467.55 
  "/>
<polyline clip-path="url(#clip650)" style="stroke:#000000; stroke-linecap:butt; stroke-linejoin:round; stroke-width:4; stroke-opacity:1; fill:none" points="
  1825.99,1486.45 1825.99,1467.55 
  "/>
<polyline clip-path="url(#clip650)" style="stroke:#000000; stroke-linecap:butt; stroke-linejoin:round; stroke-width:4; stroke-opacity:1; fill:none" points="
  2290.1,1486.45 2290.1,1467.55 
  "/>
<path clip-path="url(#clip650)" d="M428.321 1544.91 L444.64 1544.91 L444.64 1548.85 L422.696 1548.85 L422.696 1544.91 Q425.358 1542.16 429.941 1537.53 Q434.548 1532.88 435.728 1531.53 Q437.974 1529.01 438.853 1527.27 Q439.756 1525.51 439.756 1523.82 Q439.756 1521.07 437.812 1519.33 Q435.89 1517.6 432.789 1517.6 Q430.59 1517.6 428.136 1518.36 Q425.705 1519.13 422.928 1520.68 L422.928 1515.95 Q425.752 1514.82 428.205 1514.24 Q430.659 1513.66 432.696 1513.66 Q438.066 1513.66 441.261 1516.35 Q444.455 1519.03 444.455 1523.52 Q444.455 1525.65 443.645 1527.57 Q442.858 1529.47 440.751 1532.07 Q440.173 1532.74 437.071 1535.95 Q433.969 1539.15 428.321 1544.91 Z" fill="#000000" fill-rule="evenodd" fill-opacity="1" /><path clip-path="url(#clip650)" d="M900.786 1518.36 L888.98 1536.81 L900.786 1536.81 L900.786 1518.36 M899.559 1514.29 L905.438 1514.29 L905.438 1536.81 L910.369 1536.81 L910.369 1540.7 L905.438 1540.7 L905.438 1548.85 L900.786 1548.85 L900.786 1540.7 L885.184 1540.7 L885.184 1536.19 L899.559 1514.29 Z" fill="#000000" fill-rule="evenodd" fill-opacity="1" /><path clip-path="url(#clip650)" d="M1362.29 1529.7 Q1359.14 1529.7 1357.29 1531.86 Q1355.46 1534.01 1355.46 1537.76 Q1355.46 1541.49 1357.29 1543.66 Q1359.14 1545.82 1362.29 1545.82 Q1365.44 1545.82 1367.27 1543.66 Q1369.12 1541.49 1369.12 1537.76 Q1369.12 1534.01 1367.27 1531.86 Q1365.44 1529.7 1362.29 1529.7 M1371.57 1515.05 L1371.57 1519.31 Q1369.81 1518.48 1368.01 1518.04 Q1366.22 1517.6 1364.47 1517.6 Q1359.84 1517.6 1357.38 1520.72 Q1354.95 1523.85 1354.6 1530.17 Q1355.97 1528.15 1358.03 1527.09 Q1360.09 1526 1362.57 1526 Q1367.78 1526 1370.79 1529.17 Q1373.82 1532.32 1373.82 1537.76 Q1373.82 1543.08 1370.67 1546.3 Q1367.52 1549.52 1362.29 1549.52 Q1356.29 1549.52 1353.12 1544.94 Q1349.95 1540.33 1349.95 1531.6 Q1349.95 1523.41 1353.84 1518.55 Q1357.73 1513.66 1364.28 1513.66 Q1366.04 1513.66 1367.82 1514.01 Q1369.63 1514.36 1371.57 1515.05 Z" fill="#000000" fill-rule="evenodd" fill-opacity="1" /><path clip-path="url(#clip650)" d="M1825.99 1532.44 Q1822.66 1532.44 1820.74 1534.22 Q1818.84 1536 1818.84 1539.13 Q1818.84 1542.25 1820.74 1544.03 Q1822.66 1545.82 1825.99 1545.82 Q1829.33 1545.82 1831.25 1544.03 Q1833.17 1542.23 1833.17 1539.13 Q1833.17 1536 1831.25 1534.22 Q1829.35 1532.44 1825.99 1532.44 M1821.32 1530.45 Q1818.31 1529.7 1816.62 1527.64 Q1814.95 1525.58 1814.95 1522.62 Q1814.95 1518.48 1817.89 1516.07 Q1820.85 1513.66 1825.99 1513.66 Q1831.16 1513.66 1834.09 1516.07 Q1837.03 1518.48 1837.03 1522.62 Q1837.03 1525.58 1835.34 1527.64 Q1833.68 1529.7 1830.69 1530.45 Q1834.07 1531.23 1835.95 1533.52 Q1837.84 1535.82 1837.84 1539.13 Q1837.84 1544.15 1834.77 1546.83 Q1831.71 1549.52 1825.99 1549.52 Q1820.28 1549.52 1817.2 1546.83 Q1814.14 1544.15 1814.14 1539.13 Q1814.14 1535.82 1816.04 1533.52 Q1817.94 1531.23 1821.32 1530.45 M1819.6 1523.06 Q1819.6 1525.75 1821.27 1527.25 Q1822.96 1528.76 1825.99 1528.76 Q1829 1528.76 1830.69 1527.25 Q1832.41 1525.75 1832.41 1523.06 Q1832.41 1520.38 1830.69 1518.87 Q1829 1517.37 1825.99 1517.37 Q1822.96 1517.37 1821.27 1518.87 Q1819.6 1520.38 1819.6 1523.06 Z" fill="#000000" fill-rule="evenodd" fill-opacity="1" /><path clip-path="url(#clip650)" d="M2264.79 1544.91 L2272.43 1544.91 L2272.43 1518.55 L2264.12 1520.21 L2264.12 1515.95 L2272.38 1514.29 L2277.06 1514.29 L2277.06 1544.91 L2284.7 1544.91 L2284.7 1548.85 L2264.79 1548.85 L2264.79 1544.91 Z" fill="#000000" fill-rule="evenodd" fill-opacity="1" /><path clip-path="url(#clip650)" d="M2304.14 1517.37 Q2300.53 1517.37 2298.7 1520.93 Q2296.9 1524.47 2296.9 1531.6 Q2296.9 1538.71 2298.7 1542.27 Q2300.53 1545.82 2304.14 1545.82 Q2307.77 1545.82 2309.58 1542.27 Q2311.41 1538.71 2311.41 1531.6 Q2311.41 1524.47 2309.58 1520.93 Q2307.77 1517.37 2304.14 1517.37 M2304.14 1513.66 Q2309.95 1513.66 2313.01 1518.27 Q2316.08 1522.85 2316.08 1531.6 Q2316.08 1540.33 2313.01 1544.94 Q2309.95 1549.52 2304.14 1549.52 Q2298.33 1549.52 2295.25 1544.94 Q2292.2 1540.33 2292.2 1531.6 Q2292.2 1522.85 2295.25 1518.27 Q2298.33 1513.66 2304.14 1513.66 Z" fill="#000000" fill-rule="evenodd" fill-opacity="1" /><polyline clip-path="url(#clip651)" style="stroke:#000000; stroke-linecap:butt; stroke-linejoin:round; stroke-width:2; stroke-opacity:0.1; fill:none" points="
  138.959,1294.86 2352.76,1294.86 
  "/>
<polyline clip-path="url(#clip651)" style="stroke:#000000; stroke-linecap:butt; stroke-linejoin:round; stroke-width:2; stroke-opacity:0.1; fill:none" points="
  138.959,993.136 2352.76,993.136 
  "/>
<polyline clip-path="url(#clip651)" style="stroke:#000000; stroke-linecap:butt; stroke-linejoin:round; stroke-width:2; stroke-opacity:0.1; fill:none" points="
  138.959,691.416 2352.76,691.416 
  "/>
<polyline clip-path="url(#clip651)" style="stroke:#000000; stroke-linecap:butt; stroke-linejoin:round; stroke-width:2; stroke-opacity:0.1; fill:none" points="
  138.959,389.696 2352.76,389.696 
  "/>
<polyline clip-path="url(#clip651)" style="stroke:#000000; stroke-linecap:butt; stroke-linejoin:round; stroke-width:2; stroke-opacity:0.1; fill:none" points="
  138.959,87.9763 2352.76,87.9763 
  "/>
<polyline clip-path="url(#clip650)" style="stroke:#000000; stroke-linecap:butt; stroke-linejoin:round; stroke-width:4; stroke-opacity:1; fill:none" points="
  138.959,1486.45 138.959,47.2441 
  "/>
<polyline clip-path="url(#clip650)" style="stroke:#000000; stroke-linecap:butt; stroke-linejoin:round; stroke-width:4; stroke-opacity:1; fill:none" points="
  138.959,1294.86 157.857,1294.86 
  "/>
<polyline clip-path="url(#clip650)" style="stroke:#000000; stroke-linecap:butt; stroke-linejoin:round; stroke-width:4; stroke-opacity:1; fill:none" points="
  138.959,993.136 157.857,993.136 
  "/>
<polyline clip-path="url(#clip650)" style="stroke:#000000; stroke-linecap:butt; stroke-linejoin:round; stroke-width:4; stroke-opacity:1; fill:none" points="
  138.959,691.416 157.857,691.416 
  "/>
<polyline clip-path="url(#clip650)" style="stroke:#000000; stroke-linecap:butt; stroke-linejoin:round; stroke-width:4; stroke-opacity:1; fill:none" points="
  138.959,389.696 157.857,389.696 
  "/>
<polyline clip-path="url(#clip650)" style="stroke:#000000; stroke-linecap:butt; stroke-linejoin:round; stroke-width:4; stroke-opacity:1; fill:none" points="
  138.959,87.9763 157.857,87.9763 
  "/>
<path clip-path="url(#clip650)" d="M86.6401 1308.2 L102.959 1308.2 L102.959 1312.14 L81.0151 1312.14 L81.0151 1308.2 Q83.6771 1305.45 88.2604 1300.82 Q92.8669 1296.16 94.0475 1294.82 Q96.2928 1292.3 97.1724 1290.56 Q98.0752 1288.8 98.0752 1287.11 Q98.0752 1284.36 96.1308 1282.62 Q94.2095 1280.89 91.1077 1280.89 Q88.9086 1280.89 86.4549 1281.65 Q84.0244 1282.41 81.2466 1283.96 L81.2466 1279.24 Q84.0707 1278.11 86.5243 1277.53 Q88.978 1276.95 91.0151 1276.95 Q96.3854 1276.95 99.5798 1279.64 Q102.774 1282.32 102.774 1286.81 Q102.774 1288.94 101.964 1290.86 Q101.177 1292.76 99.0706 1295.35 Q98.4919 1296.02 95.39 1299.24 Q92.2882 1302.44 86.6401 1308.2 Z" fill="#000000" fill-rule="evenodd" fill-opacity="1" /><path clip-path="url(#clip650)" d="M93.3762 979.93 L81.5707 998.379 L93.3762 998.379 L93.3762 979.93 M92.1493 975.856 L98.0289 975.856 L98.0289 998.379 L102.959 998.379 L102.959 1002.27 L98.0289 1002.27 L98.0289 1010.42 L93.3762 1010.42 L93.3762 1002.27 L77.7744 1002.27 L77.7744 997.754 L92.1493 975.856 Z" fill="#000000" fill-rule="evenodd" fill-opacity="1" /><path clip-path="url(#clip650)" d="M91.4317 689.553 Q88.2836 689.553 86.4318 691.705 Q84.6031 693.858 84.6031 697.608 Q84.6031 701.335 86.4318 703.511 Q88.2836 705.664 91.4317 705.664 Q94.5799 705.664 96.4085 703.511 Q98.2604 701.335 98.2604 697.608 Q98.2604 693.858 96.4085 691.705 Q94.5799 689.553 91.4317 689.553 M100.714 674.9 L100.714 679.159 Q98.9548 678.326 97.1493 677.886 Q95.3669 677.446 93.6076 677.446 Q88.978 677.446 86.5243 680.571 Q84.0938 683.696 83.7466 690.016 Q85.1123 688.002 87.1725 686.937 Q89.2327 685.849 91.7095 685.849 Q96.9178 685.849 99.927 689.02 Q102.959 692.168 102.959 697.608 Q102.959 702.932 99.8113 706.15 Q96.6632 709.367 91.4317 709.367 Q85.4364 709.367 82.2651 704.784 Q79.0938 700.178 79.0938 691.451 Q79.0938 683.256 82.9827 678.395 Q86.8716 673.511 93.4225 673.511 Q95.1817 673.511 96.9641 673.858 Q98.7696 674.205 100.714 674.9 Z" fill="#000000" fill-rule="evenodd" fill-opacity="1" /><path clip-path="url(#clip650)" d="M91.1077 390.564 Q87.7743 390.564 85.8531 392.347 Q83.9549 394.129 83.9549 397.254 Q83.9549 400.379 85.8531 402.161 Q87.7743 403.944 91.1077 403.944 Q94.441 403.944 96.3623 402.161 Q98.2835 400.356 98.2835 397.254 Q98.2835 394.129 96.3623 392.347 Q94.4641 390.564 91.1077 390.564 M86.4318 388.573 Q83.4225 387.833 81.7327 385.773 Q80.066 383.712 80.066 380.749 Q80.066 376.606 83.0058 374.199 Q85.9688 371.791 91.1077 371.791 Q96.2697 371.791 99.2095 374.199 Q102.149 376.606 102.149 380.749 Q102.149 383.712 100.459 385.773 Q98.7928 387.833 95.8067 388.573 Q99.1863 389.361 101.061 391.652 Q102.959 393.944 102.959 397.254 Q102.959 402.277 99.8808 404.962 Q96.8252 407.647 91.1077 407.647 Q85.3901 407.647 82.3114 404.962 Q79.2559 402.277 79.2559 397.254 Q79.2559 393.944 81.154 391.652 Q83.0521 389.361 86.4318 388.573 M84.7188 381.189 Q84.7188 383.874 86.3855 385.379 Q88.0753 386.884 91.1077 386.884 Q94.1169 386.884 95.8067 385.379 Q97.5197 383.874 97.5197 381.189 Q97.5197 378.504 95.8067 376.999 Q94.1169 375.495 91.1077 375.495 Q88.0753 375.495 86.3855 376.999 Q84.7188 378.504 84.7188 381.189 Z" fill="#000000" fill-rule="evenodd" fill-opacity="1" /><path clip-path="url(#clip650)" d="M51.6634 101.321 L59.3023 101.321 L59.3023 74.9555 L50.9921 76.6222 L50.9921 72.3629 L59.256 70.6963 L63.9319 70.6963 L63.9319 101.321 L71.5707 101.321 L71.5707 105.256 L51.6634 105.256 L51.6634 101.321 Z" fill="#000000" fill-rule="evenodd" fill-opacity="1" /><path clip-path="url(#clip650)" d="M91.0151 73.775 Q87.404 73.775 85.5753 77.3398 Q83.7697 80.8814 83.7697 88.011 Q83.7697 95.1174 85.5753 98.6822 Q87.404 102.224 91.0151 102.224 Q94.6493 102.224 96.4548 98.6822 Q98.2835 95.1174 98.2835 88.011 Q98.2835 80.8814 96.4548 77.3398 Q94.6493 73.775 91.0151 73.775 M91.0151 70.0713 Q96.8252 70.0713 99.8808 74.6777 Q102.959 79.261 102.959 88.011 Q102.959 96.7378 99.8808 101.344 Q96.8252 105.928 91.0151 105.928 Q85.2049 105.928 82.1262 101.344 Q79.0707 96.7378 79.0707 88.011 Q79.0707 79.261 82.1262 74.6777 Q85.2049 70.0713 91.0151 70.0713 Z" fill="#000000" fill-rule="evenodd" fill-opacity="1" /><polyline clip-path="url(#clip651)" style="stroke:#009af9; stroke-linecap:butt; stroke-linejoin:round; stroke-width:4; stroke-opacity:1; fill:none" points="
  201.614,1445.72 433.668,1294.86 665.722,1144 897.776,993.136 1129.83,842.276 1361.88,691.416 1593.94,540.556 1825.99,389.696 2058.05,238.836 2290.1,87.9763 
  
  "/>
<path clip-path="url(#clip650)" d="
M1980.56 198.898 L2278.96 198.898 L2278.96 95.2176 L1980.56 95.2176  Z
  " fill="#ffffff" fill-rule="evenodd" fill-opacity="1"/>
<polyline clip-path="url(#clip650)" style="stroke:#000000; stroke-linecap:butt; stroke-linejoin:round; stroke-width:4; stroke-opacity:1; fill:none" points="
  1980.56,198.898 2278.96,198.898 2278.96,95.2176 1980.56,95.2176 1980.56,198.898 
  "/>
<polyline clip-path="url(#clip650)" style="stroke:#009af9; stroke-linecap:butt; stroke-linejoin:round; stroke-width:4; stroke-opacity:1; fill:none" points="
  2005.15,147.058 2152.74,147.058 
  "/>
<path clip-path="url(#clip650)" d="M2191.18 166.745 Q2189.37 171.375 2187.66 172.787 Q2185.95 174.199 2183.08 174.199 L2179.67 174.199 L2179.67 170.634 L2182.17 170.634 Q2183.93 170.634 2184.91 169.8 Q2185.88 168.967 2187.06 165.865 L2187.82 163.921 L2177.34 138.412 L2181.85 138.412 L2189.95 158.689 L2198.05 138.412 L2202.57 138.412 L2191.18 166.745 Z" fill="#000000" fill-rule="evenodd" fill-opacity="1" /><path clip-path="url(#clip650)" d="M2209.86 160.402 L2217.5 160.402 L2217.5 134.037 L2209.19 135.703 L2209.19 131.444 L2217.45 129.778 L2222.13 129.778 L2222.13 160.402 L2229.77 160.402 L2229.77 164.338 L2209.86 164.338 L2209.86 160.402 Z" fill="#000000" fill-rule="evenodd" fill-opacity="1" /></svg>
