<?xml version="1.0" encoding="utf-8"?>
<svg xmlns="http://www.w3.org/2000/svg" xmlns:xlink="http://www.w3.org/1999/xlink" width="600" height="400" viewBox="0 0 2400 1600">
<defs>
  <clipPath id="clip4200">
    <rect x="0" y="0" width="2400" height="1600"/>
  </clipPath>
</defs>
<polygon clip-path="url(#clip4200)" points="
0,1600 2400,1600 2400,0 0,0 
  " fill="#ffffff" fill-rule="evenodd" fill-opacity="1"/>
<defs>
  <clipPath id="clip4201">
    <rect x="480" y="0" width="1681" height="1600"/>
  </clipPath>
</defs>
<polygon clip-path="url(#clip4200)" points="
113.754,687.475 1139.37,687.475 1139.37,47.2441 113.754,47.2441 
  " fill="#ffffff" fill-rule="evenodd" fill-opacity="1"/>
<defs>
  <clipPath id="clip4202">
    <rect x="113" y="47" width="1027" height="641"/>
  </clipPath>
</defs>
<polyline clip-path="url(#clip4202)" style="stroke:#000000; stroke-width:2; stroke-opacity:0.1; fill:none" points="
  265.546,687.475 265.546,47.2441 
  "/>
<polyline clip-path="url(#clip4202)" style="stroke:#000000; stroke-width:2; stroke-opacity:0.1; fill:none" points="
  493.135,687.475 493.135,47.2441 
  "/>
<polyline clip-path="url(#clip4202)" style="stroke:#000000; stroke-width:2; stroke-opacity:0.1; fill:none" points="
  720.724,687.475 720.724,47.2441 
  "/>
<polyline clip-path="url(#clip4202)" style="stroke:#000000; stroke-width:2; stroke-opacity:0.1; fill:none" points="
  948.314,687.475 948.314,47.2441 
  "/>
<polyline clip-path="url(#clip4202)" style="stroke:#000000; stroke-width:2; stroke-opacity:0.1; fill:none" points="
  113.754,669.355 1139.37,669.355 
  "/>
<polyline clip-path="url(#clip4202)" style="stroke:#000000; stroke-width:2; stroke-opacity:0.1; fill:none" points="
  113.754,556.332 1139.37,556.332 
  "/>
<polyline clip-path="url(#clip4202)" style="stroke:#000000; stroke-width:2; stroke-opacity:0.1; fill:none" points="
  113.754,443.309 1139.37,443.309 
  "/>
<polyline clip-path="url(#clip4202)" style="stroke:#000000; stroke-width:2; stroke-opacity:0.1; fill:none" points="
  113.754,330.286 1139.37,330.286 
  "/>
<polyline clip-path="url(#clip4202)" style="stroke:#000000; stroke-width:2; stroke-opacity:0.1; fill:none" points="
  113.754,217.263 1139.37,217.263 
  "/>
<polyline clip-path="url(#clip4202)" style="stroke:#000000; stroke-width:2; stroke-opacity:0.1; fill:none" points="
  113.754,104.241 1139.37,104.241 
  "/>
<polyline clip-path="url(#clip4200)" style="stroke:#000000; stroke-width:4; stroke-opacity:1; fill:none" points="
  113.754,687.475 1139.37,687.475 
  "/>
<polyline clip-path="url(#clip4200)" style="stroke:#000000; stroke-width:4; stroke-opacity:1; fill:none" points="
  113.754,687.475 113.754,47.2441 
  "/>
<polyline clip-path="url(#clip4200)" style="stroke:#000000; stroke-width:4; stroke-opacity:1; fill:none" points="
  265.546,687.475 265.546,677.871 
  "/>
<polyline clip-path="url(#clip4200)" style="stroke:#000000; stroke-width:4; stroke-opacity:1; fill:none" points="
  493.135,687.475 493.135,677.871 
  "/>
<polyline clip-path="url(#clip4200)" style="stroke:#000000; stroke-width:4; stroke-opacity:1; fill:none" points="
  720.724,687.475 720.724,677.871 
  "/>
<polyline clip-path="url(#clip4200)" style="stroke:#000000; stroke-width:4; stroke-opacity:1; fill:none" points="
  948.314,687.475 948.314,677.871 
  "/>
<polyline clip-path="url(#clip4200)" style="stroke:#000000; stroke-width:4; stroke-opacity:1; fill:none" points="
  113.754,669.355 129.139,669.355 
  "/>
<polyline clip-path="url(#clip4200)" style="stroke:#000000; stroke-width:4; stroke-opacity:1; fill:none" points="
  113.754,556.332 129.139,556.332 
  "/>
<polyline clip-path="url(#clip4200)" style="stroke:#000000; stroke-width:4; stroke-opacity:1; fill:none" points="
  113.754,443.309 129.139,443.309 
  "/>
<polyline clip-path="url(#clip4200)" style="stroke:#000000; stroke-width:4; stroke-opacity:1; fill:none" points="
  113.754,330.286 129.139,330.286 
  "/>
<polyline clip-path="url(#clip4200)" style="stroke:#000000; stroke-width:4; stroke-opacity:1; fill:none" points="
  113.754,217.263 129.139,217.263 
  "/>
<polyline clip-path="url(#clip4200)" style="stroke:#000000; stroke-width:4; stroke-opacity:1; fill:none" points="
  113.754,104.241 129.139,104.241 
  "/>
<g clip-path="url(#clip4200)">
<text style="fill:#000000; fill-opacity:1; font-family:Arial,Helvetica Neue,Helvetica,sans-serif; font-size:48px; text-anchor:middle;" transform="rotate(0, 265.546, 741.475)" x="265.546" y="741.475">0.6</text>
</g>
<g clip-path="url(#clip4200)">
<text style="fill:#000000; fill-opacity:1; font-family:Arial,Helvetica Neue,Helvetica,sans-serif; font-size:48px; text-anchor:middle;" transform="rotate(0, 493.135, 741.475)" x="493.135" y="741.475">0.9</text>
</g>
<g clip-path="url(#clip4200)">
<text style="fill:#000000; fill-opacity:1; font-family:Arial,Helvetica Neue,Helvetica,sans-serif; font-size:48px; text-anchor:middle;" transform="rotate(0, 720.724, 741.475)" x="720.724" y="741.475">1.2</text>
</g>
<g clip-path="url(#clip4200)">
<text style="fill:#000000; fill-opacity:1; font-family:Arial,Helvetica Neue,Helvetica,sans-serif; font-size:48px; text-anchor:middle;" transform="rotate(0, 948.314, 741.475)" x="948.314" y="741.475">1.5</text>
</g>
<g clip-path="url(#clip4200)">
<text style="fill:#000000; fill-opacity:1; font-family:Arial,Helvetica Neue,Helvetica,sans-serif; font-size:48px; text-anchor:end;" transform="rotate(0, 89.7545, 686.855)" x="89.7545" y="686.855">0</text>
</g>
<g clip-path="url(#clip4200)">
<text style="fill:#000000; fill-opacity:1; font-family:Arial,Helvetica Neue,Helvetica,sans-serif; font-size:48px; text-anchor:end;" transform="rotate(0, 89.7545, 573.832)" x="89.7545" y="573.832">1</text>
</g>
<g clip-path="url(#clip4200)">
<text style="fill:#000000; fill-opacity:1; font-family:Arial,Helvetica Neue,Helvetica,sans-serif; font-size:48px; text-anchor:end;" transform="rotate(0, 89.7545, 460.809)" x="89.7545" y="460.809">2</text>
</g>
<g clip-path="url(#clip4200)">
<text style="fill:#000000; fill-opacity:1; font-family:Arial,Helvetica Neue,Helvetica,sans-serif; font-size:48px; text-anchor:end;" transform="rotate(0, 89.7545, 347.786)" x="89.7545" y="347.786">3</text>
</g>
<g clip-path="url(#clip4200)">
<text style="fill:#000000; fill-opacity:1; font-family:Arial,Helvetica Neue,Helvetica,sans-serif; font-size:48px; text-anchor:end;" transform="rotate(0, 89.7545, 234.763)" x="89.7545" y="234.763">4</text>
</g>
<g clip-path="url(#clip4200)">
<text style="fill:#000000; fill-opacity:1; font-family:Arial,Helvetica Neue,Helvetica,sans-serif; font-size:48px; text-anchor:end;" transform="rotate(0, 89.7545, 121.741)" x="89.7545" y="121.741">5</text>
</g>
<polygon clip-path="url(#clip4202)" points="
142.781,666.452 143.8,666.375 144.819,666.3 145.838,666.224 146.857,666.145 147.876,666.063 148.894,665.974 149.913,665.877 150.932,665.77 151.951,665.65 
  152.97,665.516 153.988,665.365 155.007,665.196 156.026,665.007 157.045,664.796 158.064,664.563 159.083,664.306 160.101,664.025 161.12,663.72 162.139,663.39 
  163.158,663.037 164.177,662.659 165.195,662.258 166.214,661.835 167.233,661.39 168.252,660.923 169.271,660.436 170.289,659.929 171.308,659.403 172.327,658.857 
  173.346,658.29 174.365,657.703 175.384,657.095 176.402,656.464 177.421,655.808 178.44,655.126 179.459,654.415 180.478,653.673 181.496,652.896 182.515,652.083 
  183.534,651.231 184.553,650.337 185.572,649.398 186.591,648.413 187.609,647.38 188.628,646.298 189.647,645.165 190.666,643.981 191.685,642.748 192.703,641.465 
  193.722,640.133 194.741,638.756 195.76,637.334 196.779,635.869 197.798,634.365 198.816,632.824 199.835,631.247 200.854,629.636 201.873,627.993 202.892,626.319 
  203.91,624.612 204.929,622.872 205.948,621.097 206.967,619.284 207.986,617.429 209.004,615.526 210.023,613.57 211.042,611.553 212.061,609.468 213.08,607.307 
  214.099,605.06 215.117,602.72 216.136,600.278 217.155,597.726 218.174,595.056 219.193,592.261 220.211,589.337 221.23,586.28 222.249,583.086 223.268,579.756 
  224.287,576.29 225.306,572.692 226.324,568.967 227.343,565.121 228.362,561.162 229.381,557.102 230.4,552.95 231.418,548.719 232.437,544.42 233.456,540.068 
  234.475,535.674 235.494,531.249 236.513,526.805 237.531,522.35 238.55,517.891 239.569,513.433 240.588,508.979 241.607,504.527 242.625,500.076 243.644,495.618 
  243.644,669.355 242.625,669.355 241.607,669.355 240.588,669.355 239.569,669.355 238.55,669.355 237.531,669.355 236.513,669.355 235.494,669.355 234.475,669.355 
  233.456,669.355 232.437,669.355 231.418,669.355 230.4,669.355 229.381,669.355 228.362,669.355 227.343,669.355 226.324,669.355 225.306,669.355 224.287,669.355 
  223.268,669.355 222.249,669.355 221.23,669.355 220.211,669.355 219.193,669.355 218.174,669.355 217.155,669.355 216.136,669.355 215.117,669.355 214.099,669.355 
  213.08,669.355 212.061,669.355 211.042,669.355 210.023,669.355 209.004,669.355 207.986,669.355 206.967,669.355 205.948,669.355 204.929,669.355 203.91,669.355 
  202.892,669.355 201.873,669.355 200.854,669.355 199.835,669.355 198.816,669.355 197.798,669.355 196.779,669.355 195.76,669.355 194.741,669.355 193.722,669.355 
  192.703,669.355 191.685,669.355 190.666,669.355 189.647,669.355 188.628,669.355 187.609,669.355 186.591,669.355 185.572,669.355 184.553,669.355 183.534,669.355 
  182.515,669.355 181.496,669.355 180.478,669.355 179.459,669.355 178.44,669.355 177.421,669.355 176.402,669.355 175.384,669.355 174.365,669.355 173.346,669.355 
  172.327,669.355 171.308,669.355 170.289,669.355 169.271,669.355 168.252,669.355 167.233,669.355 166.214,669.355 165.195,669.355 164.177,669.355 163.158,669.355 
  162.139,669.355 161.12,669.355 160.101,669.355 159.083,669.355 158.064,669.355 157.045,669.355 156.026,669.355 155.007,669.355 153.988,669.355 152.97,669.355 
  151.951,669.355 150.932,669.355 149.913,669.355 148.894,669.355 147.876,669.355 146.857,669.355 145.838,669.355 144.819,669.355 143.8,669.355 142.781,669.355 
  
  " fill="#ffa500" fill-rule="evenodd" fill-opacity="0.5"/>
<polyline clip-path="url(#clip4202)" style="stroke:#ffa500; stroke-width:4; stroke-opacity:1; fill:none" points="
  142.781,666.452 143.8,666.375 144.819,666.3 145.838,666.224 146.857,666.145 147.876,666.063 148.894,665.974 149.913,665.877 150.932,665.77 151.951,665.65 
  152.97,665.516 153.988,665.365 155.007,665.196 156.026,665.007 157.045,664.796 158.064,664.563 159.083,664.306 160.101,664.025 161.12,663.72 162.139,663.39 
  163.158,663.037 164.177,662.659 165.195,662.258 166.214,661.835 167.233,661.39 168.252,660.923 169.271,660.436 170.289,659.929 171.308,659.403 172.327,658.857 
  173.346,658.29 174.365,657.703 175.384,657.095 176.402,656.464 177.421,655.808 178.44,655.126 179.459,654.415 180.478,653.673 181.496,652.896 182.515,652.083 
  183.534,651.231 184.553,650.337 185.572,649.398 186.591,648.413 187.609,647.38 188.628,646.298 189.647,645.165 190.666,643.981 191.685,642.748 192.703,641.465 
  193.722,640.133 194.741,638.756 195.76,637.334 196.779,635.869 197.798,634.365 198.816,632.824 199.835,631.247 200.854,629.636 201.873,627.993 202.892,626.319 
  203.91,624.612 204.929,622.872 205.948,621.097 206.967,619.284 207.986,617.429 209.004,615.526 210.023,613.57 211.042,611.553 212.061,609.468 213.08,607.307 
  214.099,605.06 215.117,602.72 216.136,600.278 217.155,597.726 218.174,595.056 219.193,592.261 220.211,589.337 221.23,586.28 222.249,583.086 223.268,579.756 
  224.287,576.29 225.306,572.692 226.324,568.967 227.343,565.121 228.362,561.162 229.381,557.102 230.4,552.95 231.418,548.719 232.437,544.42 233.456,540.068 
  234.475,535.674 235.494,531.249 236.513,526.805 237.531,522.35 238.55,517.891 239.569,513.433 240.588,508.979 241.607,504.527 242.625,500.076 243.644,495.618 
  
  "/>
<polygon clip-path="url(#clip4202)" points="
243.644,495.618 245.953,485.446 248.261,475.044 250.569,464.215 252.877,452.736 255.186,440.394 257.494,427.015 259.802,412.492 262.111,396.807 264.419,380.034 
  266.727,362.34 269.035,343.969 271.344,325.224 273.652,306.436 275.96,287.935 278.269,270.024 280.577,252.95 282.885,236.881 285.194,221.898 287.502,207.986 
  289.81,195.041 292.118,182.894 294.427,171.33 296.735,160.126 299.043,149.09 301.352,138.092 303.66,127.09 305.968,116.153 308.277,105.459 310.585,95.2858 
  312.893,85.9875 315.201,77.9632 317.51,71.6168 319.818,67.3176 322.126,65.3638 324.435,65.9523 326.743,69.1585 329.051,74.9284 331.359,83.0811 333.668,93.3238 
  335.976,105.276 338.284,118.5 340.593,132.533 342.901,146.925 345.209,161.264 347.518,175.204 349.826,188.479 352.134,200.907 354.442,212.396 356.751,222.929 
  359.059,232.557 361.367,241.381 363.676,249.542 365.984,257.203 368.292,264.54 370.6,271.728 372.909,278.931 375.217,286.29 377.525,293.911 379.834,301.855 
  382.142,310.134 384.45,318.712 386.759,327.51 389.067,336.425 391.375,345.354 393.683,354.211 395.992,362.952 398.3,371.59 400.608,380.202 402.917,388.914 
  405.225,397.895 407.533,407.325 409.841,417.37 412.15,428.158 414.458,439.759 416.766,452.172 419.075,465.321 421.383,479.065 423.691,493.207 426,507.511 
  428.308,521.723 430.616,535.588 432.924,548.86 435.233,561.325 437.541,572.801 439.849,583.148 442.158,592.276 444.466,600.139 446.774,606.74 449.083,612.131 
  451.391,616.405 453.699,619.694 456.007,622.161 458.316,623.987 460.624,625.368 462.932,626.494 465.241,627.539 467.549,628.649 469.857,629.934 472.165,631.459 
  472.165,669.355 469.857,669.355 467.549,669.355 465.241,669.355 462.932,669.355 460.624,669.355 458.316,669.355 456.007,669.355 453.699,669.355 451.391,669.355 
  449.083,669.355 446.774,669.355 444.466,669.355 442.158,669.355 439.849,669.355 437.541,669.355 435.233,669.355 432.924,669.355 430.616,669.355 428.308,669.355 
  426,669.355 423.691,669.355 421.383,669.355 419.075,669.355 416.766,669.355 414.458,669.355 412.15,669.355 409.841,669.355 407.533,669.355 405.225,669.355 
  402.917,669.355 400.608,669.355 398.3,669.355 395.992,669.355 393.683,669.355 391.375,669.355 389.067,669.355 386.759,669.355 384.45,669.355 382.142,669.355 
  379.834,669.355 377.525,669.355 375.217,669.355 372.909,669.355 370.6,669.355 368.292,669.355 365.984,669.355 363.676,669.355 361.367,669.355 359.059,669.355 
  356.751,669.355 354.442,669.355 352.134,669.355 349.826,669.355 347.518,669.355 345.209,669.355 342.901,669.355 340.593,669.355 338.284,669.355 335.976,669.355 
  333.668,669.355 331.359,669.355 329.051,669.355 326.743,669.355 324.435,669.355 322.126,669.355 319.818,669.355 317.51,669.355 315.201,669.355 312.893,669.355 
  310.585,669.355 308.277,669.355 305.968,669.355 303.66,669.355 301.352,669.355 299.043,669.355 296.735,669.355 294.427,669.355 292.118,669.355 289.81,669.355 
  287.502,669.355 285.194,669.355 282.885,669.355 280.577,669.355 278.269,669.355 275.96,669.355 273.652,669.355 271.344,669.355 269.035,669.355 266.727,669.355 
  264.419,669.355 262.111,669.355 259.802,669.355 257.494,669.355 255.186,669.355 252.877,669.355 250.569,669.355 248.261,669.355 245.953,669.355 243.644,669.355 
  
  " fill="#008000" fill-rule="evenodd" fill-opacity="0.5"/>
<polyline clip-path="url(#clip4202)" style="stroke:#008000; stroke-width:4; stroke-opacity:1; fill:none" points="
  243.644,495.618 245.953,485.446 248.261,475.044 250.569,464.215 252.877,452.736 255.186,440.394 257.494,427.015 259.802,412.492 262.111,396.807 264.419,380.034 
  266.727,362.34 269.035,343.969 271.344,325.224 273.652,306.436 275.96,287.935 278.269,270.024 280.577,252.95 282.885,236.881 285.194,221.898 287.502,207.986 
  289.81,195.041 292.118,182.894 294.427,171.33 296.735,160.126 299.043,149.09 301.352,138.092 303.66,127.09 305.968,116.153 308.277,105.459 310.585,95.2858 
  312.893,85.9875 315.201,77.9632 317.51,71.6168 319.818,67.3176 322.126,65.3638 324.435,65.9523 326.743,69.1585 329.051,74.9284 331.359,83.0811 333.668,93.3238 
  335.976,105.276 338.284,118.5 340.593,132.533 342.901,146.925 345.209,161.264 347.518,175.204 349.826,188.479 352.134,200.907 354.442,212.396 356.751,222.929 
  359.059,232.557 361.367,241.381 363.676,249.542 365.984,257.203 368.292,264.54 370.6,271.728 372.909,278.931 375.217,286.29 377.525,293.911 379.834,301.855 
  382.142,310.134 384.45,318.712 386.759,327.51 389.067,336.425 391.375,345.354 393.683,354.211 395.992,362.952 398.3,371.59 400.608,380.202 402.917,388.914 
  405.225,397.895 407.533,407.325 409.841,417.37 412.15,428.158 414.458,439.759 416.766,452.172 419.075,465.321 421.383,479.065 423.691,493.207 426,507.511 
  428.308,521.723 430.616,535.588 432.924,548.86 435.233,561.325 437.541,572.801 439.849,583.148 442.158,592.276 444.466,600.139 446.774,606.74 449.083,612.131 
  451.391,616.405 453.699,619.694 456.007,622.161 458.316,623.987 460.624,625.368 462.932,626.494 465.241,627.539 467.549,628.649 469.857,629.934 472.165,631.459 
  
  "/>
<polygon clip-path="url(#clip4202)" points="
472.165,631.459 478.612,636.987 485.058,643.285 491.504,648.384 497.951,651.129 504.397,651.742 510.843,651.186 517.289,650.298 523.736,649.401 530.182,648.49 
  536.628,647.656 543.075,647.206 549.521,647.326 555.967,647.84 562.413,648.565 568.86,649.746 575.306,651.802 581.752,654.666 588.199,657.673 594.645,660.118 
  601.091,661.715 607.537,662.472 613.984,662.425 620.43,661.705 626.876,660.775 633.323,660.394 639.769,661.154 646.215,663.001 652.661,665.264 659.108,667.187 
  665.554,668.405 672,668.976 678.447,669.102 684.893,668.91 691.339,668.43 697.785,667.707 704.232,666.898 710.678,666.22 717.124,665.809 723.571,665.652 
  730.017,665.657 736.463,665.678 742.909,665.491 749.356,664.897 755.802,663.965 762.248,663.115 768.695,662.864 775.141,663.462 781.587,664.744 788.033,666.272 
  794.48,667.608 800.926,668.524 807.372,669.026 813.819,669.248 820.265,669.326 826.711,669.347 833.157,669.343 839.604,669.31 846.05,669.203 852.496,668.941 
  858.943,668.424 865.389,667.605 871.835,666.53 878.281,665.29 884.728,663.924 891.174,662.471 897.62,661.117 904.067,660.189 910.513,659.928 916.959,660.337 
  923.405,661.246 929.852,662.431 936.298,663.653 942.744,664.735 949.191,665.634 955.637,666.357 962.083,666.823 968.529,666.939 974.976,666.809 981.422,666.735 
  987.868,666.953 994.315,667.383 1000.76,667.684 1007.21,667.529 1013.65,666.821 1020.1,665.693 1026.55,664.379 1032.99,663.131 1039.44,662.253 1045.88,662.065 
  1052.33,662.729 1058.78,664.085 1065.22,665.714 1071.67,667.159 1078.12,668.109 1084.56,668.456 1091.01,668.257 1097.46,667.71 1103.9,667.144 1110.35,666.905 
  1110.35,669.355 1103.9,669.355 1097.46,669.355 1091.01,669.355 1084.56,669.355 1078.12,669.355 1071.67,669.355 1065.22,669.355 1058.78,669.355 1052.33,669.355 
  1045.88,669.355 1039.44,669.355 1032.99,669.355 1026.55,669.355 1020.1,669.355 1013.65,669.355 1007.21,669.355 1000.76,669.355 994.315,669.355 987.868,669.355 
  981.422,669.355 974.976,669.355 968.529,669.355 962.083,669.355 955.637,669.355 949.191,669.355 942.744,669.355 936.298,669.355 929.852,669.355 923.405,669.355 
  916.959,669.355 910.513,669.355 904.067,669.355 897.62,669.355 891.174,669.355 884.728,669.355 878.281,669.355 871.835,669.355 865.389,669.355 858.943,669.355 
  852.496,669.355 846.05,669.355 839.604,669.355 833.157,669.355 826.711,669.355 820.265,669.355 813.819,669.355 807.372,669.355 800.926,669.355 794.48,669.355 
  788.033,669.355 781.587,669.355 775.141,669.355 768.695,669.355 762.248,669.355 755.802,669.355 749.356,669.355 742.909,669.355 736.463,669.355 730.017,669.355 
  723.571,669.355 717.124,669.355 710.678,669.355 704.232,669.355 697.785,669.355 691.339,669.355 684.893,669.355 678.447,669.355 672,669.355 665.554,669.355 
  659.108,669.355 652.661,669.355 646.215,669.355 639.769,669.355 633.323,669.355 626.876,669.355 620.43,669.355 613.984,669.355 607.537,669.355 601.091,669.355 
  594.645,669.355 588.199,669.355 581.752,669.355 575.306,669.355 568.86,669.355 562.413,669.355 555.967,669.355 549.521,669.355 543.075,669.355 536.628,669.355 
  530.182,669.355 523.736,669.355 517.289,669.355 510.843,669.355 504.397,669.355 497.951,669.355 491.504,669.355 485.058,669.355 478.612,669.355 472.165,669.355 
  
  " fill="#ffa500" fill-rule="evenodd" fill-opacity="0.5"/>
<polyline clip-path="url(#clip4202)" style="stroke:#ffa500; stroke-width:4; stroke-opacity:1; fill:none" points="
  472.165,631.459 478.612,636.987 485.058,643.285 491.504,648.384 497.951,651.129 504.397,651.742 510.843,651.186 517.289,650.298 523.736,649.401 530.182,648.49 
  536.628,647.656 543.075,647.206 549.521,647.326 555.967,647.84 562.413,648.565 568.86,649.746 575.306,651.802 581.752,654.666 588.199,657.673 594.645,660.118 
  601.091,661.715 607.537,662.472 613.984,662.425 620.43,661.705 626.876,660.775 633.323,660.394 639.769,661.154 646.215,663.001 652.661,665.264 659.108,667.187 
  665.554,668.405 672,668.976 678.447,669.102 684.893,668.91 691.339,668.43 697.785,667.707 704.232,666.898 710.678,666.22 717.124,665.809 723.571,665.652 
  730.017,665.657 736.463,665.678 742.909,665.491 749.356,664.897 755.802,663.965 762.248,663.115 768.695,662.864 775.141,663.462 781.587,664.744 788.033,666.272 
  794.48,667.608 800.926,668.524 807.372,669.026 813.819,669.248 820.265,669.326 826.711,669.347 833.157,669.343 839.604,669.31 846.05,669.203 852.496,668.941 
  858.943,668.424 865.389,667.605 871.835,666.53 878.281,665.29 884.728,663.924 891.174,662.471 897.62,661.117 904.067,660.189 910.513,659.928 916.959,660.337 
  923.405,661.246 929.852,662.431 936.298,663.653 942.744,664.735 949.191,665.634 955.637,666.357 962.083,666.823 968.529,666.939 974.976,666.809 981.422,666.735 
  987.868,666.953 994.315,667.383 1000.76,667.684 1007.21,667.529 1013.65,666.821 1020.1,665.693 1026.55,664.379 1032.99,663.131 1039.44,662.253 1045.88,662.065 
  1052.33,662.729 1058.78,664.085 1065.22,665.714 1071.67,667.159 1078.12,668.109 1084.56,668.456 1091.01,668.257 1097.46,667.71 1103.9,667.144 1110.35,666.905 
  
  "/>
<polyline clip-path="url(#clip4202)" style="stroke:#0000ff; stroke-width:4; stroke-opacity:1; fill:none" points="
  347.506,669.355 347.506,175.136 
  "/>
<polyline clip-path="url(#clip4202)" style="stroke:#000000; stroke-width:4; stroke-opacity:1; fill:none" points="
  330.528,669.355 330.528,79.8844 
  "/>
<polygon clip-path="url(#clip4200)" points="
1327.14,687.475 2352.76,687.475 2352.76,47.2441 1327.14,47.2441 
  " fill="#ffffff" fill-rule="evenodd" fill-opacity="1"/>
<defs>
  <clipPath id="clip4203">
    <rect x="1327" y="47" width="1027" height="641"/>
  </clipPath>
</defs>
<polyline clip-path="url(#clip4203)" style="stroke:#000000; stroke-width:2; stroke-opacity:0.1; fill:none" points="
  1447.79,687.475 1447.79,47.2441 
  "/>
<polyline clip-path="url(#clip4203)" style="stroke:#000000; stroke-width:2; stroke-opacity:0.1; fill:none" points="
  1667.87,687.475 1667.87,47.2441 
  "/>
<polyline clip-path="url(#clip4203)" style="stroke:#000000; stroke-width:2; stroke-opacity:0.1; fill:none" points="
  1887.94,687.475 1887.94,47.2441 
  "/>
<polyline clip-path="url(#clip4203)" style="stroke:#000000; stroke-width:2; stroke-opacity:0.1; fill:none" points="
  2108.02,687.475 2108.02,47.2441 
  "/>
<polyline clip-path="url(#clip4203)" style="stroke:#000000; stroke-width:2; stroke-opacity:0.1; fill:none" points="
  2328.1,687.475 2328.1,47.2441 
  "/>
<polyline clip-path="url(#clip4203)" style="stroke:#000000; stroke-width:2; stroke-opacity:0.1; fill:none" points="
  1327.14,669.355 2352.76,669.355 
  "/>
<polyline clip-path="url(#clip4203)" style="stroke:#000000; stroke-width:2; stroke-opacity:0.1; fill:none" points="
  1327.14,503.215 2352.76,503.215 
  "/>
<polyline clip-path="url(#clip4203)" style="stroke:#000000; stroke-width:2; stroke-opacity:0.1; fill:none" points="
  1327.14,337.076 2352.76,337.076 
  "/>
<polyline clip-path="url(#clip4203)" style="stroke:#000000; stroke-width:2; stroke-opacity:0.1; fill:none" points="
  1327.14,170.936 2352.76,170.936 
  "/>
<polyline clip-path="url(#clip4200)" style="stroke:#000000; stroke-width:4; stroke-opacity:1; fill:none" points="
  1327.14,687.475 2352.76,687.475 
  "/>
<polyline clip-path="url(#clip4200)" style="stroke:#000000; stroke-width:4; stroke-opacity:1; fill:none" points="
  1327.14,687.475 1327.14,47.2441 
  "/>
<polyline clip-path="url(#clip4200)" style="stroke:#000000; stroke-width:4; stroke-opacity:1; fill:none" points="
  1447.79,687.475 1447.79,677.871 
  "/>
<polyline clip-path="url(#clip4200)" style="stroke:#000000; stroke-width:4; stroke-opacity:1; fill:none" points="
  1667.87,687.475 1667.87,677.871 
  "/>
<polyline clip-path="url(#clip4200)" style="stroke:#000000; stroke-width:4; stroke-opacity:1; fill:none" points="
  1887.94,687.475 1887.94,677.871 
  "/>
<polyline clip-path="url(#clip4200)" style="stroke:#000000; stroke-width:4; stroke-opacity:1; fill:none" points="
  2108.02,687.475 2108.02,677.871 
  "/>
<polyline clip-path="url(#clip4200)" style="stroke:#000000; stroke-width:4; stroke-opacity:1; fill:none" points="
  2328.1,687.475 2328.1,677.871 
  "/>
<polyline clip-path="url(#clip4200)" style="stroke:#000000; stroke-width:4; stroke-opacity:1; fill:none" points="
  1327.14,669.355 1342.52,669.355 
  "/>
<polyline clip-path="url(#clip4200)" style="stroke:#000000; stroke-width:4; stroke-opacity:1; fill:none" points="
  1327.14,503.215 1342.52,503.215 
  "/>
<polyline clip-path="url(#clip4200)" style="stroke:#000000; stroke-width:4; stroke-opacity:1; fill:none" points="
  1327.14,337.076 1342.52,337.076 
  "/>
<polyline clip-path="url(#clip4200)" style="stroke:#000000; stroke-width:4; stroke-opacity:1; fill:none" points="
  1327.14,170.936 1342.52,170.936 
  "/>
<g clip-path="url(#clip4200)">
<text style="fill:#000000; fill-opacity:1; font-family:Arial,Helvetica Neue,Helvetica,sans-serif; font-size:48px; text-anchor:middle;" transform="rotate(0, 1447.79, 741.475)" x="1447.79" y="741.475">0.900</text>
</g>
<g clip-path="url(#clip4200)">
<text style="fill:#000000; fill-opacity:1; font-family:Arial,Helvetica Neue,Helvetica,sans-serif; font-size:48px; text-anchor:middle;" transform="rotate(0, 1667.87, 741.475)" x="1667.87" y="741.475">0.925</text>
</g>
<g clip-path="url(#clip4200)">
<text style="fill:#000000; fill-opacity:1; font-family:Arial,Helvetica Neue,Helvetica,sans-serif; font-size:48px; text-anchor:middle;" transform="rotate(0, 1887.94, 741.475)" x="1887.94" y="741.475">0.950</text>
</g>
<g clip-path="url(#clip4200)">
<text style="fill:#000000; fill-opacity:1; font-family:Arial,Helvetica Neue,Helvetica,sans-serif; font-size:48px; text-anchor:middle;" transform="rotate(0, 2108.02, 741.475)" x="2108.02" y="741.475">0.975</text>
</g>
<g clip-path="url(#clip4200)">
<text style="fill:#000000; fill-opacity:1; font-family:Arial,Helvetica Neue,Helvetica,sans-serif; font-size:48px; text-anchor:middle;" transform="rotate(0, 2328.1, 741.475)" x="2328.1" y="741.475">1.000</text>
</g>
<g clip-path="url(#clip4200)">
<text style="fill:#000000; fill-opacity:1; font-family:Arial,Helvetica Neue,Helvetica,sans-serif; font-size:48px; text-anchor:end;" transform="rotate(0, 1303.14, 686.855)" x="1303.14" y="686.855">0</text>
</g>
<g clip-path="url(#clip4200)">
<text style="fill:#000000; fill-opacity:1; font-family:Arial,Helvetica Neue,Helvetica,sans-serif; font-size:48px; text-anchor:end;" transform="rotate(0, 1303.14, 520.715)" x="1303.14" y="520.715">5</text>
</g>
<g clip-path="url(#clip4200)">
<text style="fill:#000000; fill-opacity:1; font-family:Arial,Helvetica Neue,Helvetica,sans-serif; font-size:48px; text-anchor:end;" transform="rotate(0, 1303.14, 354.576)" x="1303.14" y="354.576">10</text>
</g>
<g clip-path="url(#clip4200)">
<text style="fill:#000000; fill-opacity:1; font-family:Arial,Helvetica Neue,Helvetica,sans-serif; font-size:48px; text-anchor:end;" transform="rotate(0, 1303.14, 188.436)" x="1303.14" y="188.436">15</text>
</g>
<polygon clip-path="url(#clip4203)" points="
1356.16,662.097 1359.28,661.77 1362.4,661.449 1365.51,661.135 1368.63,660.828 1371.75,660.527 1374.86,660.232 1377.98,659.941 1381.1,659.653 1384.21,659.365 
  1387.33,659.075 1390.45,658.78 1393.57,658.477 1396.68,658.162 1399.8,657.833 1402.92,657.486 1406.03,657.119 1409.15,656.727 1412.27,656.31 1415.38,655.864 
  1418.5,655.387 1421.62,654.879 1424.73,654.339 1427.85,653.766 1430.97,653.162 1434.09,652.526 1437.2,651.862 1440.32,651.171 1443.44,650.456 1446.55,649.719 
  1449.67,648.965 1452.79,648.197 1455.9,647.418 1459.02,646.632 1462.14,645.843 1465.25,645.054 1468.37,644.268 1471.49,643.487 1474.61,642.714 1477.72,641.949 
  1480.84,641.194 1483.96,640.448 1487.07,639.711 1490.19,638.982 1493.31,638.257 1496.42,637.534 1499.54,636.809 1502.66,636.077 1505.77,635.333 1508.89,634.572 
  1512.01,633.787 1515.13,632.972 1518.24,632.12 1521.36,631.224 1524.48,630.276 1527.59,629.271 1530.71,628.201 1533.83,627.06 1536.94,625.844 1540.06,624.546 
  1543.18,623.164 1546.29,621.693 1549.41,620.133 1552.53,618.48 1555.64,616.737 1558.76,614.903 1561.88,612.98 1565,610.972 1568.11,608.883 1571.23,606.716 
  1574.35,604.478 1577.46,602.173 1580.58,599.808 1583.7,597.388 1586.81,594.92 1589.93,592.407 1593.05,589.855 1596.16,587.268 1599.28,584.649 1602.4,582 
  1605.52,579.321 1608.63,576.613 1611.75,573.872 1614.87,571.097 1617.98,568.282 1621.1,565.423 1624.22,562.512 1627.33,559.543 1630.45,556.506 1633.57,553.394 
  1636.68,550.196 1639.8,546.903 1642.92,543.507 1646.04,539.999 1649.15,536.37 1652.27,532.614 1655.39,528.725 1658.5,524.698 1661.62,520.53 1664.74,516.222 
  1664.74,669.355 1661.62,669.355 1658.5,669.355 1655.39,669.355 1652.27,669.355 1649.15,669.355 1646.04,669.355 1642.92,669.355 1639.8,669.355 1636.68,669.355 
  1633.57,669.355 1630.45,669.355 1627.33,669.355 1624.22,669.355 1621.1,669.355 1617.98,669.355 1614.87,669.355 1611.75,669.355 1608.63,669.355 1605.52,669.355 
  1602.4,669.355 1599.28,669.355 1596.16,669.355 1593.05,669.355 1589.93,669.355 1586.81,669.355 1583.7,669.355 1580.58,669.355 1577.46,669.355 1574.35,669.355 
  1571.23,669.355 1568.11,669.355 1565,669.355 1561.88,669.355 1558.76,669.355 1555.64,669.355 1552.53,669.355 1549.41,669.355 1546.29,669.355 1543.18,669.355 
  1540.06,669.355 1536.94,669.355 1533.83,669.355 1530.71,669.355 1527.59,669.355 1524.48,669.355 1521.36,669.355 1518.24,669.355 1515.13,669.355 1512.01,669.355 
  1508.89,669.355 1505.77,669.355 1502.66,669.355 1499.54,669.355 1496.42,669.355 1493.31,669.355 1490.19,669.355 1487.07,669.355 1483.96,669.355 1480.84,669.355 
  1477.72,669.355 1474.61,669.355 1471.49,669.355 1468.37,669.355 1465.25,669.355 1462.14,669.355 1459.02,669.355 1455.9,669.355 1452.79,669.355 1449.67,669.355 
  1446.55,669.355 1443.44,669.355 1440.32,669.355 1437.2,669.355 1434.09,669.355 1430.97,669.355 1427.85,669.355 1424.73,669.355 1421.62,669.355 1418.5,669.355 
  1415.38,669.355 1412.27,669.355 1409.15,669.355 1406.03,669.355 1402.92,669.355 1399.8,669.355 1396.68,669.355 1393.57,669.355 1390.45,669.355 1387.33,669.355 
  1384.21,669.355 1381.1,669.355 1377.98,669.355 1374.86,669.355 1371.75,669.355 1368.63,669.355 1365.51,669.355 1362.4,669.355 1359.28,669.355 1356.16,669.355 
  
  " fill="#ffa500" fill-rule="evenodd" fill-opacity="0.5"/>
<polyline clip-path="url(#clip4203)" style="stroke:#ffa500; stroke-width:4; stroke-opacity:1; fill:none" points="
  1356.16,662.097 1359.28,661.77 1362.4,661.449 1365.51,661.135 1368.63,660.828 1371.75,660.527 1374.86,660.232 1377.98,659.941 1381.1,659.653 1384.21,659.365 
  1387.33,659.075 1390.45,658.78 1393.57,658.477 1396.68,658.162 1399.8,657.833 1402.92,657.486 1406.03,657.119 1409.15,656.727 1412.27,656.31 1415.38,655.864 
  1418.5,655.387 1421.62,654.879 1424.73,654.339 1427.85,653.766 1430.97,653.162 1434.09,652.526 1437.2,651.862 1440.32,651.171 1443.44,650.456 1446.55,649.719 
  1449.67,648.965 1452.79,648.197 1455.9,647.418 1459.02,646.632 1462.14,645.843 1465.25,645.054 1468.37,644.268 1471.49,643.487 1474.61,642.714 1477.72,641.949 
  1480.84,641.194 1483.96,640.448 1487.07,639.711 1490.19,638.982 1493.31,638.257 1496.42,637.534 1499.54,636.809 1502.66,636.077 1505.77,635.333 1508.89,634.572 
  1512.01,633.787 1515.13,632.972 1518.24,632.12 1521.36,631.224 1524.48,630.276 1527.59,629.271 1530.71,628.201 1533.83,627.06 1536.94,625.844 1540.06,624.546 
  1543.18,623.164 1546.29,621.693 1549.41,620.133 1552.53,618.48 1555.64,616.737 1558.76,614.903 1561.88,612.98 1565,610.972 1568.11,608.883 1571.23,606.716 
  1574.35,604.478 1577.46,602.173 1580.58,599.808 1583.7,597.388 1586.81,594.92 1589.93,592.407 1593.05,589.855 1596.16,587.268 1599.28,584.649 1602.4,582 
  1605.52,579.321 1608.63,576.613 1611.75,573.872 1614.87,571.097 1617.98,568.282 1621.1,565.423 1624.22,562.512 1627.33,559.543 1630.45,556.506 1633.57,553.394 
  1636.68,550.196 1639.8,546.903 1642.92,543.507 1646.04,539.999 1649.15,536.37 1652.27,532.614 1655.39,528.725 1658.5,524.698 1661.62,520.53 1664.74,516.222 
  
  "/>
<polygon clip-path="url(#clip4203)" points="
1664.74,516.222 1670.93,507.243 1677.13,497.749 1683.33,487.812 1689.53,477.538 1695.72,467.061 1701.92,456.539 1708.12,446.138 1714.32,436.02 1720.51,426.33 
  1726.71,417.18 1732.91,408.638 1739.11,400.725 1745.3,393.405 1751.5,386.594 1757.7,380.168 1763.89,373.97 1770.09,367.833 1776.29,361.591 1782.49,355.095 
  1788.68,348.229 1794.88,340.912 1801.08,333.106 1807.28,324.811 1813.47,316.057 1819.67,306.892 1825.87,297.373 1832.07,287.545 1838.26,277.437 1844.46,267.05 
  1850.66,256.355 1856.86,245.301 1863.05,233.818 1869.25,221.839 1875.45,209.316 1881.65,196.237 1887.84,182.643 1894.04,168.646 1900.24,154.426 1906.43,140.234 
  1912.63,126.378 1918.83,113.202 1925.03,101.065 1931.22,90.3127 1937.42,81.2464 1943.62,74.1053 1949.82,69.0469 1956.01,66.1398 1962.21,65.3638 1968.41,66.6195 
  1974.61,69.7434 1980.8,74.5279 1987,80.7415 1993.2,88.148 1999.4,96.5201 2005.59,105.648 2011.79,115.34 2017.99,125.42 2024.18,135.718 2030.38,146.059 
  2036.58,156.256 2042.78,166.103 2048.97,175.377 2055.17,183.845 2061.37,191.274 2067.57,197.457 2073.76,202.226 2079.96,205.48 2086.16,207.199 2092.36,207.458 
  2098.55,206.426 2104.75,204.365 2110.95,201.606 2117.15,198.53 2123.34,195.539 2129.54,193.018 2135.74,191.311 2141.93,190.693 2148.13,191.353 2154.33,193.383 
  2160.53,196.778 2166.72,201.448 2172.92,207.231 2179.12,213.911 2185.32,221.246 2191.51,228.985 2197.71,236.895 2203.91,244.78 2210.11,252.492 2216.3,259.952 
  2222.5,267.152 2228.7,274.164 2234.9,281.132 2241.09,288.271 2247.29,295.85 2253.49,304.171 2259.68,313.548 2265.88,324.275 2272.08,336.599 2278.28,350.694 
  2278.28,669.355 2272.08,669.355 2265.88,669.355 2259.68,669.355 2253.49,669.355 2247.29,669.355 2241.09,669.355 2234.9,669.355 2228.7,669.355 2222.5,669.355 
  2216.3,669.355 2210.11,669.355 2203.91,669.355 2197.71,669.355 2191.51,669.355 2185.32,669.355 2179.12,669.355 2172.92,669.355 2166.72,669.355 2160.53,669.355 
  2154.33,669.355 2148.13,669.355 2141.93,669.355 2135.74,669.355 2129.54,669.355 2123.34,669.355 2117.15,669.355 2110.95,669.355 2104.75,669.355 2098.55,669.355 
  2092.36,669.355 2086.16,669.355 2079.96,669.355 2073.76,669.355 2067.57,669.355 2061.37,669.355 2055.17,669.355 2048.97,669.355 2042.78,669.355 2036.58,669.355 
  2030.38,669.355 2024.18,669.355 2017.99,669.355 2011.79,669.355 2005.59,669.355 1999.4,669.355 1993.2,669.355 1987,669.355 1980.8,669.355 1974.61,669.355 
  1968.41,669.355 1962.21,669.355 1956.01,669.355 1949.82,669.355 1943.62,669.355 1937.42,669.355 1931.22,669.355 1925.03,669.355 1918.83,669.355 1912.63,669.355 
  1906.43,669.355 1900.24,669.355 1894.04,669.355 1887.84,669.355 1881.65,669.355 1875.45,669.355 1869.25,669.355 1863.05,669.355 1856.86,669.355 1850.66,669.355 
  1844.46,669.355 1838.26,669.355 1832.07,669.355 1825.87,669.355 1819.67,669.355 1813.47,669.355 1807.28,669.355 1801.08,669.355 1794.88,669.355 1788.68,669.355 
  1782.49,669.355 1776.29,669.355 1770.09,669.355 1763.89,669.355 1757.7,669.355 1751.5,669.355 1745.3,669.355 1739.11,669.355 1732.91,669.355 1726.71,669.355 
  1720.51,669.355 1714.32,669.355 1708.12,669.355 1701.92,669.355 1695.72,669.355 1689.53,669.355 1683.33,669.355 1677.13,669.355 1670.93,669.355 1664.74,669.355 
  
  " fill="#008000" fill-rule="evenodd" fill-opacity="0.5"/>
<polyline clip-path="url(#clip4203)" style="stroke:#008000; stroke-width:4; stroke-opacity:1; fill:none" points="
  1664.74,516.222 1670.93,507.243 1677.13,497.749 1683.33,487.812 1689.53,477.538 1695.72,467.061 1701.92,456.539 1708.12,446.138 1714.32,436.02 1720.51,426.33 
  1726.71,417.18 1732.91,408.638 1739.11,400.725 1745.3,393.405 1751.5,386.594 1757.7,380.168 1763.89,373.97 1770.09,367.833 1776.29,361.591 1782.49,355.095 
  1788.68,348.229 1794.88,340.912 1801.08,333.106 1807.28,324.811 1813.47,316.057 1819.67,306.892 1825.87,297.373 1832.07,287.545 1838.26,277.437 1844.46,267.05 
  1850.66,256.355 1856.86,245.301 1863.05,233.818 1869.25,221.839 1875.45,209.316 1881.65,196.237 1887.84,182.643 1894.04,168.646 1900.24,154.426 1906.43,140.234 
  1912.63,126.378 1918.83,113.202 1925.03,101.065 1931.22,90.3127 1937.42,81.2464 1943.62,74.1053 1949.82,69.0469 1956.01,66.1398 1962.21,65.3638 1968.41,66.6195 
  1974.61,69.7434 1980.8,74.5279 1987,80.7415 1993.2,88.148 1999.4,96.5201 2005.59,105.648 2011.79,115.34 2017.99,125.42 2024.18,135.718 2030.38,146.059 
  2036.58,156.256 2042.78,166.103 2048.97,175.377 2055.17,183.845 2061.37,191.274 2067.57,197.457 2073.76,202.226 2079.96,205.48 2086.16,207.199 2092.36,207.458 
  2098.55,206.426 2104.75,204.365 2110.95,201.606 2117.15,198.53 2123.34,195.539 2129.54,193.018 2135.74,191.311 2141.93,190.693 2148.13,191.353 2154.33,193.383 
  2160.53,196.778 2166.72,201.448 2172.92,207.231 2179.12,213.911 2185.32,221.246 2191.51,228.985 2197.71,236.895 2203.91,244.78 2210.11,252.492 2216.3,259.952 
  2222.5,267.152 2228.7,274.164 2234.9,281.132 2241.09,288.271 2247.29,295.85 2253.49,304.171 2259.68,313.548 2265.88,324.275 2272.08,336.599 2278.28,350.694 
  
  "/>
<polygon clip-path="url(#clip4203)" points="
2278.28,350.694 2278.74,351.811 2279.2,352.938 2279.65,354.076 2280.11,355.224 2280.57,356.382 2281.03,357.55 2281.49,358.729 2281.95,359.918 2282.41,361.116 
  2282.87,362.325 2283.33,363.544 2283.79,364.773 2284.25,366.013 2284.7,367.262 2285.16,368.521 2285.62,369.79 2286.08,371.069 2286.54,372.358 2287,373.656 
  2287.46,374.965 2287.92,376.283 2288.38,377.61 2288.84,378.947 2289.3,380.294 2289.75,381.65 2290.21,383.015 2290.67,384.39 2291.13,385.774 2291.59,387.167 
  2292.05,388.568 2292.51,389.979 2292.97,391.399 2293.43,392.827 2293.89,394.264 2294.35,395.709 2294.8,397.162 2295.26,398.624 2295.72,400.094 2296.18,401.572 
  2296.64,403.058 2297.1,404.552 2297.56,406.053 2298.02,407.562 2298.48,409.079 2298.94,410.602 2299.4,412.133 2299.86,413.67 2300.31,415.215 2300.77,416.766 
  2301.23,418.323 2301.69,419.887 2302.15,421.457 2302.61,423.034 2303.07,424.616 2303.53,426.203 2303.99,427.797 2304.45,429.396 2304.91,431 2305.36,432.609 
  2305.82,434.223 2306.28,435.841 2306.74,437.464 2307.2,439.092 2307.66,440.724 2308.12,442.359 2308.58,443.999 2309.04,445.642 2309.5,447.289 2309.96,448.939 
  2310.41,450.591 2310.87,452.247 2311.33,453.906 2311.79,455.567 2312.25,457.23 2312.71,458.895 2313.17,460.562 2313.63,462.231 2314.09,463.902 2314.55,465.574 
  2315.01,467.247 2315.46,468.921 2315.92,470.595 2316.38,472.27 2316.84,473.946 2317.3,475.622 2317.76,477.297 2318.22,478.972 2318.68,480.647 2319.14,482.321 
  2319.6,483.995 2320.06,485.667 2320.52,487.338 2320.97,489.008 2321.43,490.676 2321.89,492.342 2322.35,494.006 2322.81,495.668 2323.27,497.327 2323.73,498.984 
  2323.73,669.355 2323.27,669.355 2322.81,669.355 2322.35,669.355 2321.89,669.355 2321.43,669.355 2320.97,669.355 2320.52,669.355 2320.06,669.355 2319.6,669.355 
  2319.14,669.355 2318.68,669.355 2318.22,669.355 2317.76,669.355 2317.3,669.355 2316.84,669.355 2316.38,669.355 2315.92,669.355 2315.46,669.355 2315.01,669.355 
  2314.55,669.355 2314.09,669.355 2313.63,669.355 2313.17,669.355 2312.71,669.355 2312.25,669.355 2311.79,669.355 2311.33,669.355 2310.87,669.355 2310.41,669.355 
  2309.96,669.355 2309.5,669.355 2309.04,669.355 2308.58,669.355 2308.12,669.355 2307.66,669.355 2307.2,669.355 2306.74,669.355 2306.28,669.355 2305.82,669.355 
  2305.36,669.355 2304.91,669.355 2304.45,669.355 2303.99,669.355 2303.53,669.355 2303.07,669.355 2302.61,669.355 2302.15,669.355 2301.69,669.355 2301.23,669.355 
  2300.77,669.355 2300.31,669.355 2299.86,669.355 2299.4,669.355 2298.94,669.355 2298.48,669.355 2298.02,669.355 2297.56,669.355 2297.1,669.355 2296.64,669.355 
  2296.18,669.355 2295.72,669.355 2295.26,669.355 2294.8,669.355 2294.35,669.355 2293.89,669.355 2293.43,669.355 2292.97,669.355 2292.51,669.355 2292.05,669.355 
  2291.59,669.355 2291.13,669.355 2290.67,669.355 2290.21,669.355 2289.75,669.355 2289.3,669.355 2288.84,669.355 2288.38,669.355 2287.92,669.355 2287.46,669.355 
  2287,669.355 2286.54,669.355 2286.08,669.355 2285.62,669.355 2285.16,669.355 2284.7,669.355 2284.25,669.355 2283.79,669.355 2283.33,669.355 2282.87,669.355 
  2282.41,669.355 2281.95,669.355 2281.49,669.355 2281.03,669.355 2280.57,669.355 2280.11,669.355 2279.65,669.355 2279.2,669.355 2278.74,669.355 2278.28,669.355 
  
  " fill="#ffa500" fill-rule="evenodd" fill-opacity="0.5"/>
<polyline clip-path="url(#clip4203)" style="stroke:#ffa500; stroke-width:4; stroke-opacity:1; fill:none" points="
  2278.28,350.694 2278.74,351.811 2279.2,352.938 2279.65,354.076 2280.11,355.224 2280.57,356.382 2281.03,357.55 2281.49,358.729 2281.95,359.918 2282.41,361.116 
  2282.87,362.325 2283.33,363.544 2283.79,364.773 2284.25,366.013 2284.7,367.262 2285.16,368.521 2285.62,369.79 2286.08,371.069 2286.54,372.358 2287,373.656 
  2287.46,374.965 2287.92,376.283 2288.38,377.61 2288.84,378.947 2289.3,380.294 2289.75,381.65 2290.21,383.015 2290.67,384.39 2291.13,385.774 2291.59,387.167 
  2292.05,388.568 2292.51,389.979 2292.97,391.399 2293.43,392.827 2293.89,394.264 2294.35,395.709 2294.8,397.162 2295.26,398.624 2295.72,400.094 2296.18,401.572 
  2296.64,403.058 2297.1,404.552 2297.56,406.053 2298.02,407.562 2298.48,409.079 2298.94,410.602 2299.4,412.133 2299.86,413.67 2300.31,415.215 2300.77,416.766 
  2301.23,418.323 2301.69,419.887 2302.15,421.457 2302.61,423.034 2303.07,424.616 2303.53,426.203 2303.99,427.797 2304.45,429.396 2304.91,431 2305.36,432.609 
  2305.82,434.223 2306.28,435.841 2306.74,437.464 2307.2,439.092 2307.66,440.724 2308.12,442.359 2308.58,443.999 2309.04,445.642 2309.5,447.289 2309.96,448.939 
  2310.41,450.591 2310.87,452.247 2311.33,453.906 2311.79,455.567 2312.25,457.23 2312.71,458.895 2313.17,460.562 2313.63,462.231 2314.09,463.902 2314.55,465.574 
  2315.01,467.247 2315.46,468.921 2315.92,470.595 2316.38,472.27 2316.84,473.946 2317.3,475.622 2317.76,477.297 2318.22,478.972 2318.68,480.647 2319.14,482.321 
  2319.6,483.995 2320.06,485.667 2320.52,487.338 2320.97,489.008 2321.43,490.676 2321.89,492.342 2322.35,494.006 2322.81,495.668 2323.27,497.327 2323.73,498.984 
  
  "/>
<polyline clip-path="url(#clip4203)" style="stroke:#0000ff; stroke-width:4; stroke-opacity:1; fill:none" points="
  1990.57,669.355 1990.57,84.8781 
  "/>
<polyline clip-path="url(#clip4203)" style="stroke:#000000; stroke-width:4; stroke-opacity:1; fill:none" points="
  1993.18,669.355 1993.18,88.1227 
  "/>
<polygon clip-path="url(#clip4200)" points="
113.754,1487.47 1139.37,1487.47 1139.37,847.244 113.754,847.244 
  " fill="#ffffff" fill-rule="evenodd" fill-opacity="1"/>
<defs>
  <clipPath id="clip4204">
    <rect x="113" y="847" width="1027" height="641"/>
  </clipPath>
</defs>
<polyline clip-path="url(#clip4204)" style="stroke:#000000; stroke-width:2; stroke-opacity:0.1; fill:none" points="
  257.874,1487.47 257.874,847.244 
  "/>
<polyline clip-path="url(#clip4204)" style="stroke:#000000; stroke-width:2; stroke-opacity:0.1; fill:none" points="
  462.787,1487.47 462.787,847.244 
  "/>
<polyline clip-path="url(#clip4204)" style="stroke:#000000; stroke-width:2; stroke-opacity:0.1; fill:none" points="
  667.7,1487.47 667.7,847.244 
  "/>
<polyline clip-path="url(#clip4204)" style="stroke:#000000; stroke-width:2; stroke-opacity:0.1; fill:none" points="
  872.614,1487.47 872.614,847.244 
  "/>
<polyline clip-path="url(#clip4204)" style="stroke:#000000; stroke-width:2; stroke-opacity:0.1; fill:none" points="
  1077.53,1487.47 1077.53,847.244 
  "/>
<polyline clip-path="url(#clip4204)" style="stroke:#000000; stroke-width:2; stroke-opacity:0.1; fill:none" points="
  113.754,1469.35 1139.37,1469.35 
  "/>
<polyline clip-path="url(#clip4204)" style="stroke:#000000; stroke-width:2; stroke-opacity:0.1; fill:none" points="
  113.754,1335.75 1139.37,1335.75 
  "/>
<polyline clip-path="url(#clip4204)" style="stroke:#000000; stroke-width:2; stroke-opacity:0.1; fill:none" points="
  113.754,1202.14 1139.37,1202.14 
  "/>
<polyline clip-path="url(#clip4204)" style="stroke:#000000; stroke-width:2; stroke-opacity:0.1; fill:none" points="
  113.754,1068.54 1139.37,1068.54 
  "/>
<polyline clip-path="url(#clip4204)" style="stroke:#000000; stroke-width:2; stroke-opacity:0.1; fill:none" points="
  113.754,934.933 1139.37,934.933 
  "/>
<polyline clip-path="url(#clip4200)" style="stroke:#000000; stroke-width:4; stroke-opacity:1; fill:none" points="
  113.754,1487.47 1139.37,1487.47 
  "/>
<polyline clip-path="url(#clip4200)" style="stroke:#000000; stroke-width:4; stroke-opacity:1; fill:none" points="
  113.754,1487.47 113.754,847.244 
  "/>
<polyline clip-path="url(#clip4200)" style="stroke:#000000; stroke-width:4; stroke-opacity:1; fill:none" points="
  257.874,1487.47 257.874,1477.87 
  "/>
<polyline clip-path="url(#clip4200)" style="stroke:#000000; stroke-width:4; stroke-opacity:1; fill:none" points="
  462.787,1487.47 462.787,1477.87 
  "/>
<polyline clip-path="url(#clip4200)" style="stroke:#000000; stroke-width:4; stroke-opacity:1; fill:none" points="
  667.7,1487.47 667.7,1477.87 
  "/>
<polyline clip-path="url(#clip4200)" style="stroke:#000000; stroke-width:4; stroke-opacity:1; fill:none" points="
  872.614,1487.47 872.614,1477.87 
  "/>
<polyline clip-path="url(#clip4200)" style="stroke:#000000; stroke-width:4; stroke-opacity:1; fill:none" points="
  1077.53,1487.47 1077.53,1477.87 
  "/>
<polyline clip-path="url(#clip4200)" style="stroke:#000000; stroke-width:4; stroke-opacity:1; fill:none" points="
  113.754,1469.35 129.139,1469.35 
  "/>
<polyline clip-path="url(#clip4200)" style="stroke:#000000; stroke-width:4; stroke-opacity:1; fill:none" points="
  113.754,1335.75 129.139,1335.75 
  "/>
<polyline clip-path="url(#clip4200)" style="stroke:#000000; stroke-width:4; stroke-opacity:1; fill:none" points="
  113.754,1202.14 129.139,1202.14 
  "/>
<polyline clip-path="url(#clip4200)" style="stroke:#000000; stroke-width:4; stroke-opacity:1; fill:none" points="
  113.754,1068.54 129.139,1068.54 
  "/>
<polyline clip-path="url(#clip4200)" style="stroke:#000000; stroke-width:4; stroke-opacity:1; fill:none" points="
  113.754,934.933 129.139,934.933 
  "/>
<g clip-path="url(#clip4200)">
<text style="fill:#000000; fill-opacity:1; font-family:Arial,Helvetica Neue,Helvetica,sans-serif; font-size:48px; text-anchor:middle;" transform="rotate(0, 257.874, 1541.47)" x="257.874" y="1541.47">0.1</text>
</g>
<g clip-path="url(#clip4200)">
<text style="fill:#000000; fill-opacity:1; font-family:Arial,Helvetica Neue,Helvetica,sans-serif; font-size:48px; text-anchor:middle;" transform="rotate(0, 462.787, 1541.47)" x="462.787" y="1541.47">0.2</text>
</g>
<g clip-path="url(#clip4200)">
<text style="fill:#000000; fill-opacity:1; font-family:Arial,Helvetica Neue,Helvetica,sans-serif; font-size:48px; text-anchor:middle;" transform="rotate(0, 667.7, 1541.47)" x="667.7" y="1541.47">0.3</text>
</g>
<g clip-path="url(#clip4200)">
<text style="fill:#000000; fill-opacity:1; font-family:Arial,Helvetica Neue,Helvetica,sans-serif; font-size:48px; text-anchor:middle;" transform="rotate(0, 872.614, 1541.47)" x="872.614" y="1541.47">0.4</text>
</g>
<g clip-path="url(#clip4200)">
<text style="fill:#000000; fill-opacity:1; font-family:Arial,Helvetica Neue,Helvetica,sans-serif; font-size:48px; text-anchor:middle;" transform="rotate(0, 1077.53, 1541.47)" x="1077.53" y="1541.47">0.5</text>
</g>
<g clip-path="url(#clip4200)">
<text style="fill:#000000; fill-opacity:1; font-family:Arial,Helvetica Neue,Helvetica,sans-serif; font-size:48px; text-anchor:end;" transform="rotate(0, 89.7545, 1486.85)" x="89.7545" y="1486.85">0</text>
</g>
<g clip-path="url(#clip4200)">
<text style="fill:#000000; fill-opacity:1; font-family:Arial,Helvetica Neue,Helvetica,sans-serif; font-size:48px; text-anchor:end;" transform="rotate(0, 89.7545, 1353.25)" x="89.7545" y="1353.25">1</text>
</g>
<g clip-path="url(#clip4200)">
<text style="fill:#000000; fill-opacity:1; font-family:Arial,Helvetica Neue,Helvetica,sans-serif; font-size:48px; text-anchor:end;" transform="rotate(0, 89.7545, 1219.64)" x="89.7545" y="1219.64">2</text>
</g>
<g clip-path="url(#clip4200)">
<text style="fill:#000000; fill-opacity:1; font-family:Arial,Helvetica Neue,Helvetica,sans-serif; font-size:48px; text-anchor:end;" transform="rotate(0, 89.7545, 1086.04)" x="89.7545" y="1086.04">3</text>
</g>
<g clip-path="url(#clip4200)">
<text style="fill:#000000; fill-opacity:1; font-family:Arial,Helvetica Neue,Helvetica,sans-serif; font-size:48px; text-anchor:end;" transform="rotate(0, 89.7545, 952.433)" x="89.7545" y="952.433">4</text>
</g>
<polygon clip-path="url(#clip4204)" points="
142.781,1442.18 144.028,1441.13 145.274,1440.05 146.52,1438.95 147.767,1437.82 149.013,1436.67 150.259,1435.49 151.505,1434.29 152.752,1433.06 153.998,1431.8 
  155.244,1430.52 156.491,1429.22 157.737,1427.89 158.983,1426.54 160.229,1425.16 161.476,1423.76 162.722,1422.33 163.968,1420.88 165.215,1419.41 166.461,1417.91 
  167.707,1416.4 168.953,1414.86 170.2,1413.29 171.446,1411.71 172.692,1410.1 173.939,1408.48 175.185,1406.83 176.431,1405.16 177.677,1403.48 178.924,1401.77 
  180.17,1400.05 181.416,1398.3 182.663,1396.54 183.909,1394.76 185.155,1392.96 186.401,1391.14 187.648,1389.31 188.894,1387.46 190.14,1385.6 191.387,1383.72 
  192.633,1381.83 193.879,1379.92 195.126,1377.99 196.372,1376.06 197.618,1374.1 198.864,1372.14 200.111,1370.16 201.357,1368.18 202.603,1366.18 203.85,1364.17 
  205.096,1362.14 206.342,1360.11 207.588,1358.07 208.835,1356.02 210.081,1353.96 211.327,1351.9 212.574,1349.82 213.82,1347.74 215.066,1345.65 216.312,1343.56 
  217.559,1341.46 218.805,1339.35 220.051,1337.24 221.298,1335.13 222.544,1333.02 223.79,1330.9 225.036,1328.78 226.283,1326.66 227.529,1324.54 228.775,1322.41 
  230.022,1320.29 231.268,1318.18 232.514,1316.06 233.76,1313.94 235.007,1311.83 236.253,1309.73 237.499,1307.63 238.746,1305.53 239.992,1303.44 241.238,1301.36 
  242.484,1299.28 243.731,1297.22 244.977,1295.16 246.223,1293.11 247.47,1291.07 248.716,1289.05 249.962,1287.03 251.208,1285.03 252.455,1283.04 253.701,1281.07 
  254.947,1279.11 256.194,1277.16 257.44,1275.23 258.686,1273.32 259.932,1271.42 261.179,1269.54 262.425,1267.68 263.671,1265.84 264.918,1264.01 266.164,1262.21 
  266.164,1469.35 264.918,1469.35 263.671,1469.35 262.425,1469.35 261.179,1469.35 259.932,1469.35 258.686,1469.35 257.44,1469.35 256.194,1469.35 254.947,1469.35 
  253.701,1469.35 252.455,1469.35 251.208,1469.35 249.962,1469.35 248.716,1469.35 247.47,1469.35 246.223,1469.35 244.977,1469.35 243.731,1469.35 242.484,1469.35 
  241.238,1469.35 239.992,1469.35 238.746,1469.35 237.499,1469.35 236.253,1469.35 235.007,1469.35 233.76,1469.35 232.514,1469.35 231.268,1469.35 230.022,1469.35 
  228.775,1469.35 227.529,1469.35 226.283,1469.35 225.036,1469.35 223.79,1469.35 222.544,1469.35 221.298,1469.35 220.051,1469.35 218.805,1469.35 217.559,1469.35 
  216.312,1469.35 215.066,1469.35 213.82,1469.35 212.574,1469.35 211.327,1469.35 210.081,1469.35 208.835,1469.35 207.588,1469.35 206.342,1469.35 205.096,1469.35 
  203.85,1469.35 202.603,1469.35 201.357,1469.35 200.111,1469.35 198.864,1469.35 197.618,1469.35 196.372,1469.35 195.126,1469.35 193.879,1469.35 192.633,1469.35 
  191.387,1469.35 190.14,1469.35 188.894,1469.35 187.648,1469.35 186.401,1469.35 185.155,1469.35 183.909,1469.35 182.663,1469.35 181.416,1469.35 180.17,1469.35 
  178.924,1469.35 177.677,1469.35 176.431,1469.35 175.185,1469.35 173.939,1469.35 172.692,1469.35 171.446,1469.35 170.2,1469.35 168.953,1469.35 167.707,1469.35 
  166.461,1469.35 165.215,1469.35 163.968,1469.35 162.722,1469.35 161.476,1469.35 160.229,1469.35 158.983,1469.35 157.737,1469.35 156.491,1469.35 155.244,1469.35 
  153.998,1469.35 152.752,1469.35 151.505,1469.35 150.259,1469.35 149.013,1469.35 147.767,1469.35 146.52,1469.35 145.274,1469.35 144.028,1469.35 142.781,1469.35 
  
  " fill="#ffa500" fill-rule="evenodd" fill-opacity="0.5"/>
<polyline clip-path="url(#clip4204)" style="stroke:#ffa500; stroke-width:4; stroke-opacity:1; fill:none" points="
  142.781,1442.18 144.028,1441.13 145.274,1440.05 146.52,1438.95 147.767,1437.82 149.013,1436.67 150.259,1435.49 151.505,1434.29 152.752,1433.06 153.998,1431.8 
  155.244,1430.52 156.491,1429.22 157.737,1427.89 158.983,1426.54 160.229,1425.16 161.476,1423.76 162.722,1422.33 163.968,1420.88 165.215,1419.41 166.461,1417.91 
  167.707,1416.4 168.953,1414.86 170.2,1413.29 171.446,1411.71 172.692,1410.1 173.939,1408.48 175.185,1406.83 176.431,1405.16 177.677,1403.48 178.924,1401.77 
  180.17,1400.05 181.416,1398.3 182.663,1396.54 183.909,1394.76 185.155,1392.96 186.401,1391.14 187.648,1389.31 188.894,1387.46 190.14,1385.6 191.387,1383.72 
  192.633,1381.83 193.879,1379.92 195.126,1377.99 196.372,1376.06 197.618,1374.1 198.864,1372.14 200.111,1370.16 201.357,1368.18 202.603,1366.18 203.85,1364.17 
  205.096,1362.14 206.342,1360.11 207.588,1358.07 208.835,1356.02 210.081,1353.96 211.327,1351.9 212.574,1349.82 213.82,1347.74 215.066,1345.65 216.312,1343.56 
  217.559,1341.46 218.805,1339.35 220.051,1337.24 221.298,1335.13 222.544,1333.02 223.79,1330.9 225.036,1328.78 226.283,1326.66 227.529,1324.54 228.775,1322.41 
  230.022,1320.29 231.268,1318.18 232.514,1316.06 233.76,1313.94 235.007,1311.83 236.253,1309.73 237.499,1307.63 238.746,1305.53 239.992,1303.44 241.238,1301.36 
  242.484,1299.28 243.731,1297.22 244.977,1295.16 246.223,1293.11 247.47,1291.07 248.716,1289.05 249.962,1287.03 251.208,1285.03 252.455,1283.04 253.701,1281.07 
  254.947,1279.11 256.194,1277.16 257.44,1275.23 258.686,1273.32 259.932,1271.42 261.179,1269.54 262.425,1267.68 263.671,1265.84 264.918,1264.01 266.164,1262.21 
  
  "/>
<polygon clip-path="url(#clip4204)" points="
266.164,1262.21 271.82,1254.28 277.475,1246.8 283.131,1239.8 288.786,1233.28 294.442,1227.23 300.098,1221.61 305.753,1216.32 311.409,1211.25 317.065,1206.23 
  322.72,1201.07 328.376,1195.52 334.032,1189.35 339.687,1182.31 345.343,1174.2 350.998,1164.85 356.654,1154.18 362.31,1142.17 367.965,1128.94 373.621,1114.67 
  379.277,1099.65 384.932,1084.26 390.588,1068.91 396.244,1054.02 401.899,1040.02 407.555,1027.29 413.211,1016.14 418.866,1006.77 424.522,999.284 430.177,993.684 
  435.833,989.852 441.489,987.58 447.144,986.583 452.8,986.527 458.456,987.049 464.111,987.786 469.767,988.395 475.423,988.577 481.078,988.089 486.734,986.759 
  492.389,984.488 498.045,981.254 503.701,977.108 509.356,972.163 515.012,966.582 520.668,960.563 526.323,954.319 531.979,948.056 537.635,941.956 543.29,936.16 
  548.946,930.755 554.602,925.77 560.257,921.176 565.913,916.897 571.568,912.819 577.224,908.817 582.88,904.77 588.535,900.581 594.191,896.2 599.847,891.63 
  605.502,886.937 611.158,882.242 616.814,877.72 622.469,873.581 628.125,870.057 633.78,867.377 639.436,865.754 645.092,865.364 650.747,866.333 656.403,868.731 
  662.059,872.567 667.714,877.796 673.37,884.328 679.026,892.042 684.681,900.811 690.337,910.512 695.993,921.052 701.648,932.374 707.304,944.461 712.959,957.336 
  718.615,971.047 724.271,985.65 729.926,1001.19 735.582,1017.67 741.238,1035.06 746.893,1053.26 752.549,1072.13 758.205,1091.44 763.86,1110.98 769.516,1130.48 
  775.172,1149.68 780.827,1168.38 786.483,1186.37 792.138,1203.53 797.794,1219.76 803.45,1235.02 809.105,1249.33 814.761,1262.71 820.417,1275.22 826.072,1286.93 
  826.072,1469.35 820.417,1469.35 814.761,1469.35 809.105,1469.35 803.45,1469.35 797.794,1469.35 792.138,1469.35 786.483,1469.35 780.827,1469.35 775.172,1469.35 
  769.516,1469.35 763.86,1469.35 758.205,1469.35 752.549,1469.35 746.893,1469.35 741.238,1469.35 735.582,1469.35 729.926,1469.35 724.271,1469.35 718.615,1469.35 
  712.959,1469.35 707.304,1469.35 701.648,1469.35 695.993,1469.35 690.337,1469.35 684.681,1469.35 679.026,1469.35 673.37,1469.35 667.714,1469.35 662.059,1469.35 
  656.403,1469.35 650.747,1469.35 645.092,1469.35 639.436,1469.35 633.78,1469.35 628.125,1469.35 622.469,1469.35 616.814,1469.35 611.158,1469.35 605.502,1469.35 
  599.847,1469.35 594.191,1469.35 588.535,1469.35 582.88,1469.35 577.224,1469.35 571.568,1469.35 565.913,1469.35 560.257,1469.35 554.602,1469.35 548.946,1469.35 
  543.29,1469.35 537.635,1469.35 531.979,1469.35 526.323,1469.35 520.668,1469.35 515.012,1469.35 509.356,1469.35 503.701,1469.35 498.045,1469.35 492.389,1469.35 
  486.734,1469.35 481.078,1469.35 475.423,1469.35 469.767,1469.35 464.111,1469.35 458.456,1469.35 452.8,1469.35 447.144,1469.35 441.489,1469.35 435.833,1469.35 
  430.177,1469.35 424.522,1469.35 418.866,1469.35 413.211,1469.35 407.555,1469.35 401.899,1469.35 396.244,1469.35 390.588,1469.35 384.932,1469.35 379.277,1469.35 
  373.621,1469.35 367.965,1469.35 362.31,1469.35 356.654,1469.35 350.998,1469.35 345.343,1469.35 339.687,1469.35 334.032,1469.35 328.376,1469.35 322.72,1469.35 
  317.065,1469.35 311.409,1469.35 305.753,1469.35 300.098,1469.35 294.442,1469.35 288.786,1469.35 283.131,1469.35 277.475,1469.35 271.82,1469.35 266.164,1469.35 
  
  " fill="#008000" fill-rule="evenodd" fill-opacity="0.5"/>
<polyline clip-path="url(#clip4204)" style="stroke:#008000; stroke-width:4; stroke-opacity:1; fill:none" points="
  266.164,1262.21 271.82,1254.28 277.475,1246.8 283.131,1239.8 288.786,1233.28 294.442,1227.23 300.098,1221.61 305.753,1216.32 311.409,1211.25 317.065,1206.23 
  322.72,1201.07 328.376,1195.52 334.032,1189.35 339.687,1182.31 345.343,1174.2 350.998,1164.85 356.654,1154.18 362.31,1142.17 367.965,1128.94 373.621,1114.67 
  379.277,1099.65 384.932,1084.26 390.588,1068.91 396.244,1054.02 401.899,1040.02 407.555,1027.29 413.211,1016.14 418.866,1006.77 424.522,999.284 430.177,993.684 
  435.833,989.852 441.489,987.58 447.144,986.583 452.8,986.527 458.456,987.049 464.111,987.786 469.767,988.395 475.423,988.577 481.078,988.089 486.734,986.759 
  492.389,984.488 498.045,981.254 503.701,977.108 509.356,972.163 515.012,966.582 520.668,960.563 526.323,954.319 531.979,948.056 537.635,941.956 543.29,936.16 
  548.946,930.755 554.602,925.77 560.257,921.176 565.913,916.897 571.568,912.819 577.224,908.817 582.88,904.77 588.535,900.581 594.191,896.2 599.847,891.63 
  605.502,886.937 611.158,882.242 616.814,877.72 622.469,873.581 628.125,870.057 633.78,867.377 639.436,865.754 645.092,865.364 650.747,866.333 656.403,868.731 
  662.059,872.567 667.714,877.796 673.37,884.328 679.026,892.042 684.681,900.811 690.337,910.512 695.993,921.052 701.648,932.374 707.304,944.461 712.959,957.336 
  718.615,971.047 724.271,985.65 729.926,1001.19 735.582,1017.67 741.238,1035.06 746.893,1053.26 752.549,1072.13 758.205,1091.44 763.86,1110.98 769.516,1130.48 
  775.172,1149.68 780.827,1168.38 786.483,1186.37 792.138,1203.53 797.794,1219.76 803.45,1235.02 809.105,1249.33 814.761,1262.71 820.417,1275.22 826.072,1286.93 
  
  "/>
<polygon clip-path="url(#clip4204)" points="
826.072,1286.93 828.944,1292.59 831.815,1298.07 834.687,1303.38 837.558,1308.53 840.43,1313.52 843.301,1318.36 846.173,1323.06 849.044,1327.62 851.915,1332.06 
  854.787,1336.36 857.658,1340.54 860.53,1344.61 863.401,1348.56 866.273,1352.4 869.144,1356.14 872.016,1359.77 874.887,1363.31 877.759,1366.74 880.63,1370.08 
  883.502,1373.33 886.373,1376.48 889.245,1379.55 892.116,1382.52 894.988,1385.41 897.859,1388.21 900.73,1390.93 903.602,1393.55 906.473,1396.1 909.345,1398.56 
  912.216,1400.94 915.088,1403.24 917.959,1405.46 920.831,1407.6 923.702,1409.67 926.574,1411.67 929.445,1413.6 932.317,1415.46 935.188,1417.27 938.06,1419.02 
  940.931,1420.71 943.803,1422.36 946.674,1423.97 949.545,1425.54 952.417,1427.08 955.288,1428.59 958.16,1430.07 961.031,1431.53 963.903,1432.97 966.774,1434.4 
  969.646,1435.81 972.517,1437.21 975.389,1438.59 978.26,1439.97 981.132,1441.33 984.003,1442.68 986.875,1444.02 989.746,1445.33 992.617,1446.63 995.489,1447.91 
  998.36,1449.16 1001.23,1450.39 1004.1,1451.58 1006.97,1452.74 1009.85,1453.86 1012.72,1454.93 1015.59,1455.95 1018.46,1456.93 1021.33,1457.85 1024.2,1458.72 
  1027.08,1459.52 1029.95,1460.26 1032.82,1460.94 1035.69,1461.56 1038.56,1462.11 1041.43,1462.59 1044.3,1463.02 1047.18,1463.38 1050.05,1463.68 1052.92,1463.92 
  1055.79,1464.1 1058.66,1464.24 1061.53,1464.33 1064.4,1464.38 1067.28,1464.39 1070.15,1464.37 1073.02,1464.32 1075.89,1464.25 1078.76,1464.17 1081.63,1464.07 
  1084.5,1463.98 1087.38,1463.88 1090.25,1463.79 1093.12,1463.71 1095.99,1463.65 1098.86,1463.6 1101.73,1463.58 1104.6,1463.57 1107.48,1463.6 1110.35,1463.65 
  1110.35,1469.35 1107.48,1469.35 1104.6,1469.35 1101.73,1469.35 1098.86,1469.35 1095.99,1469.35 1093.12,1469.35 1090.25,1469.35 1087.38,1469.35 1084.5,1469.35 
  1081.63,1469.35 1078.76,1469.35 1075.89,1469.35 1073.02,1469.35 1070.15,1469.35 1067.28,1469.35 1064.4,1469.35 1061.53,1469.35 1058.66,1469.35 1055.79,1469.35 
  1052.92,1469.35 1050.05,1469.35 1047.18,1469.35 1044.3,1469.35 1041.43,1469.35 1038.56,1469.35 1035.69,1469.35 1032.82,1469.35 1029.95,1469.35 1027.08,1469.35 
  1024.2,1469.35 1021.33,1469.35 1018.46,1469.35 1015.59,1469.35 1012.72,1469.35 1009.85,1469.35 1006.97,1469.35 1004.1,1469.35 1001.23,1469.35 998.36,1469.35 
  995.489,1469.35 992.617,1469.35 989.746,1469.35 986.875,1469.35 984.003,1469.35 981.132,1469.35 978.26,1469.35 975.389,1469.35 972.517,1469.35 969.646,1469.35 
  966.774,1469.35 963.903,1469.35 961.031,1469.35 958.16,1469.35 955.288,1469.35 952.417,1469.35 949.545,1469.35 946.674,1469.35 943.803,1469.35 940.931,1469.35 
  938.06,1469.35 935.188,1469.35 932.317,1469.35 929.445,1469.35 926.574,1469.35 923.702,1469.35 920.831,1469.35 917.959,1469.35 915.088,1469.35 912.216,1469.35 
  909.345,1469.35 906.473,1469.35 903.602,1469.35 900.73,1469.35 897.859,1469.35 894.988,1469.35 892.116,1469.35 889.245,1469.35 886.373,1469.35 883.502,1469.35 
  880.63,1469.35 877.759,1469.35 874.887,1469.35 872.016,1469.35 869.144,1469.35 866.273,1469.35 863.401,1469.35 860.53,1469.35 857.658,1469.35 854.787,1469.35 
  851.915,1469.35 849.044,1469.35 846.173,1469.35 843.301,1469.35 840.43,1469.35 837.558,1469.35 834.687,1469.35 831.815,1469.35 828.944,1469.35 826.072,1469.35 
  
  " fill="#ffa500" fill-rule="evenodd" fill-opacity="0.5"/>
<polyline clip-path="url(#clip4204)" style="stroke:#ffa500; stroke-width:4; stroke-opacity:1; fill:none" points="
  826.072,1286.93 828.944,1292.59 831.815,1298.07 834.687,1303.38 837.558,1308.53 840.43,1313.52 843.301,1318.36 846.173,1323.06 849.044,1327.62 851.915,1332.06 
  854.787,1336.36 857.658,1340.54 860.53,1344.61 863.401,1348.56 866.273,1352.4 869.144,1356.14 872.016,1359.77 874.887,1363.31 877.759,1366.74 880.63,1370.08 
  883.502,1373.33 886.373,1376.48 889.245,1379.55 892.116,1382.52 894.988,1385.41 897.859,1388.21 900.73,1390.93 903.602,1393.55 906.473,1396.1 909.345,1398.56 
  912.216,1400.94 915.088,1403.24 917.959,1405.46 920.831,1407.6 923.702,1409.67 926.574,1411.67 929.445,1413.6 932.317,1415.46 935.188,1417.27 938.06,1419.02 
  940.931,1420.71 943.803,1422.36 946.674,1423.97 949.545,1425.54 952.417,1427.08 955.288,1428.59 958.16,1430.07 961.031,1431.53 963.903,1432.97 966.774,1434.4 
  969.646,1435.81 972.517,1437.21 975.389,1438.59 978.26,1439.97 981.132,1441.33 984.003,1442.68 986.875,1444.02 989.746,1445.33 992.617,1446.63 995.489,1447.91 
  998.36,1449.16 1001.23,1450.39 1004.1,1451.58 1006.97,1452.74 1009.85,1453.86 1012.72,1454.93 1015.59,1455.95 1018.46,1456.93 1021.33,1457.85 1024.2,1458.72 
  1027.08,1459.52 1029.95,1460.26 1032.82,1460.94 1035.69,1461.56 1038.56,1462.11 1041.43,1462.59 1044.3,1463.02 1047.18,1463.38 1050.05,1463.68 1052.92,1463.92 
  1055.79,1464.1 1058.66,1464.24 1061.53,1464.33 1064.4,1464.38 1067.28,1464.39 1070.15,1464.37 1073.02,1464.32 1075.89,1464.25 1078.76,1464.17 1081.63,1464.07 
  1084.5,1463.98 1087.38,1463.88 1090.25,1463.79 1093.12,1463.71 1095.99,1463.65 1098.86,1463.6 1101.73,1463.58 1104.6,1463.57 1107.48,1463.6 1110.35,1463.65 
  
  "/>
<polyline clip-path="url(#clip4204)" style="stroke:#0000ff; stroke-width:4; stroke-opacity:1; fill:none" points="
  559.504,1469.35 559.504,921.768 
  "/>
<polyline clip-path="url(#clip4204)" style="stroke:#000000; stroke-width:4; stroke-opacity:1; fill:none" points="
  569.988,1469.35 569.988,913.946 
  "/>
</svg>
