<?xml version="1.0" encoding="utf-8" standalone="no"?>
<!DOCTYPE svg PUBLIC "-//W3C//DTD SVG 1.1//EN"
  "http://www.w3.org/Graphics/SVG/1.1/DTD/svg11.dtd">
<!-- Created with matplotlib (http://matplotlib.org/) -->
<svg height="288pt" version="1.1" viewBox="0 0 432 288" width="432pt" xmlns="http://www.w3.org/2000/svg" xmlns:xlink="http://www.w3.org/1999/xlink">
 <defs>
  <style type="text/css">
*{stroke-linecap:butt;stroke-linejoin:round;}
  </style>
 </defs>
 <g id="figure_1">
  <g id="patch_1">
   <path d="M 0 288 
L 432 288 
L 432 0 
L 0 0 
z
" style="fill:#ffffff;"/>
  </g>
  <g id="axes_1">
   <g id="patch_2">
    <path d="M 15.324646 273.485354 
L 429.165354 273.485354 
L 429.165354 2.834646 
L 15.324646 2.834646 
z
" style="fill:#ffffff;"/>
   </g>
   <g id="matplotlib.axis_1">
    <g id="xtick_1">
     <g id="line2d_1">
      <path clip-path="url(#p745cc8c073)" d="M 38.7679 273.485354 
L 38.7679 2.834646 
" style="fill:none;stroke:#000000;stroke-dasharray:0.8,1.32;stroke-dashoffset:0;stroke-width:0.8;"/>
     </g>
     <g id="line2d_2">
      <defs>
       <path d="M 0 0 
L 0 3.5 
" id="m631ce34a34" style="stroke:#000000;stroke-width:0.8;"/>
      </defs>
      <g>
       <use style="stroke:#000000;stroke-width:0.8;" x="38.7679" xlink:href="#m631ce34a34" y="273.485354"/>
      </g>
     </g>
     <g id="text_1">
      <!-- -3 -->
      <defs>
       <path d="M 4.890625 31.390625 
L 31.203125 31.390625 
L 31.203125 23.390625 
L 4.890625 23.390625 
z
" id="DejaVuSans-2d"/>
       <path d="M 40.578125 39.3125 
Q 47.65625 37.796875 51.625 33 
Q 55.609375 28.21875 55.609375 21.1875 
Q 55.609375 10.40625 48.1875 4.484375 
Q 40.765625 -1.421875 27.09375 -1.421875 
Q 22.515625 -1.421875 17.65625 -0.515625 
Q 12.796875 0.390625 7.625 2.203125 
L 7.625 11.71875 
Q 11.71875 9.328125 16.59375 8.109375 
Q 21.484375 6.890625 26.8125 6.890625 
Q 36.078125 6.890625 40.9375 10.546875 
Q 45.796875 14.203125 45.796875 21.1875 
Q 45.796875 27.640625 41.28125 31.265625 
Q 36.765625 34.90625 28.71875 34.90625 
L 20.21875 34.90625 
L 20.21875 43.015625 
L 29.109375 43.015625 
Q 36.375 43.015625 40.234375 45.921875 
Q 44.09375 48.828125 44.09375 54.296875 
Q 44.09375 59.90625 40.109375 62.90625 
Q 36.140625 65.921875 28.71875 65.921875 
Q 24.65625 65.921875 20.015625 65.03125 
Q 15.375 64.15625 9.8125 62.3125 
L 9.8125 71.09375 
Q 15.4375 72.65625 20.34375 73.4375 
Q 25.25 74.21875 29.59375 74.21875 
Q 40.828125 74.21875 47.359375 69.109375 
Q 53.90625 64.015625 53.90625 55.328125 
Q 53.90625 49.265625 50.4375 45.09375 
Q 46.96875 40.921875 40.578125 39.3125 
z
" id="DejaVuSans-33"/>
      </defs>
      <g transform="translate(34.779775 286.564104)scale(0.08 -0.08)">
       <use xlink:href="#DejaVuSans-2d"/>
       <use x="36.083984" xlink:href="#DejaVuSans-33"/>
      </g>
     </g>
    </g>
    <g id="xtick_2">
     <g id="line2d_3">
      <path clip-path="url(#p745cc8c073)" d="M 121.616698 273.485354 
L 121.616698 2.834646 
" style="fill:none;stroke:#000000;stroke-dasharray:0.8,1.32;stroke-dashoffset:0;stroke-width:0.8;"/>
     </g>
     <g id="line2d_4">
      <g>
       <use style="stroke:#000000;stroke-width:0.8;" x="121.616698" xlink:href="#m631ce34a34" y="273.485354"/>
      </g>
     </g>
     <g id="text_2">
      <!-- -2 -->
      <defs>
       <path d="M 19.1875 8.296875 
L 53.609375 8.296875 
L 53.609375 0 
L 7.328125 0 
L 7.328125 8.296875 
Q 12.9375 14.109375 22.625 23.890625 
Q 32.328125 33.6875 34.8125 36.53125 
Q 39.546875 41.84375 41.421875 45.53125 
Q 43.3125 49.21875 43.3125 52.78125 
Q 43.3125 58.59375 39.234375 62.25 
Q 35.15625 65.921875 28.609375 65.921875 
Q 23.96875 65.921875 18.8125 64.3125 
Q 13.671875 62.703125 7.8125 59.421875 
L 7.8125 69.390625 
Q 13.765625 71.78125 18.9375 73 
Q 24.125 74.21875 28.421875 74.21875 
Q 39.75 74.21875 46.484375 68.546875 
Q 53.21875 62.890625 53.21875 53.421875 
Q 53.21875 48.921875 51.53125 44.890625 
Q 49.859375 40.875 45.40625 35.40625 
Q 44.1875 33.984375 37.640625 27.21875 
Q 31.109375 20.453125 19.1875 8.296875 
z
" id="DejaVuSans-32"/>
      </defs>
      <g transform="translate(117.628573 286.564104)scale(0.08 -0.08)">
       <use xlink:href="#DejaVuSans-2d"/>
       <use x="36.083984" xlink:href="#DejaVuSans-32"/>
      </g>
     </g>
    </g>
    <g id="xtick_3">
     <g id="line2d_5">
      <path clip-path="url(#p745cc8c073)" d="M 204.465496 273.485354 
L 204.465496 2.834646 
" style="fill:none;stroke:#000000;stroke-dasharray:0.8,1.32;stroke-dashoffset:0;stroke-width:0.8;"/>
     </g>
     <g id="line2d_6">
      <g>
       <use style="stroke:#000000;stroke-width:0.8;" x="204.465496" xlink:href="#m631ce34a34" y="273.485354"/>
      </g>
     </g>
     <g id="text_3">
      <!-- -1 -->
      <defs>
       <path d="M 12.40625 8.296875 
L 28.515625 8.296875 
L 28.515625 63.921875 
L 10.984375 60.40625 
L 10.984375 69.390625 
L 28.421875 72.90625 
L 38.28125 72.90625 
L 38.28125 8.296875 
L 54.390625 8.296875 
L 54.390625 0 
L 12.40625 0 
z
" id="DejaVuSans-31"/>
      </defs>
      <g transform="translate(200.477371 286.564104)scale(0.08 -0.08)">
       <use xlink:href="#DejaVuSans-2d"/>
       <use x="36.083984" xlink:href="#DejaVuSans-31"/>
      </g>
     </g>
    </g>
    <g id="xtick_4">
     <g id="line2d_7">
      <path clip-path="url(#p745cc8c073)" d="M 287.314294 273.485354 
L 287.314294 2.834646 
" style="fill:none;stroke:#000000;stroke-dasharray:0.8,1.32;stroke-dashoffset:0;stroke-width:0.8;"/>
     </g>
     <g id="line2d_8">
      <g>
       <use style="stroke:#000000;stroke-width:0.8;" x="287.314294" xlink:href="#m631ce34a34" y="273.485354"/>
      </g>
     </g>
     <g id="text_4">
      <!-- 0 -->
      <defs>
       <path d="M 31.78125 66.40625 
Q 24.171875 66.40625 20.328125 58.90625 
Q 16.5 51.421875 16.5 36.375 
Q 16.5 21.390625 20.328125 13.890625 
Q 24.171875 6.390625 31.78125 6.390625 
Q 39.453125 6.390625 43.28125 13.890625 
Q 47.125 21.390625 47.125 36.375 
Q 47.125 51.421875 43.28125 58.90625 
Q 39.453125 66.40625 31.78125 66.40625 
z
M 31.78125 74.21875 
Q 44.046875 74.21875 50.515625 64.515625 
Q 56.984375 54.828125 56.984375 36.375 
Q 56.984375 17.96875 50.515625 8.265625 
Q 44.046875 -1.421875 31.78125 -1.421875 
Q 19.53125 -1.421875 13.0625 8.265625 
Q 6.59375 17.96875 6.59375 36.375 
Q 6.59375 54.828125 13.0625 64.515625 
Q 19.53125 74.21875 31.78125 74.21875 
z
" id="DejaVuSans-30"/>
      </defs>
      <g transform="translate(284.769294 286.564104)scale(0.08 -0.08)">
       <use xlink:href="#DejaVuSans-30"/>
      </g>
     </g>
    </g>
    <g id="xtick_5">
     <g id="line2d_9">
      <path clip-path="url(#p745cc8c073)" d="M 370.163092 273.485354 
L 370.163092 2.834646 
" style="fill:none;stroke:#000000;stroke-dasharray:0.8,1.32;stroke-dashoffset:0;stroke-width:0.8;"/>
     </g>
     <g id="line2d_10">
      <g>
       <use style="stroke:#000000;stroke-width:0.8;" x="370.163092" xlink:href="#m631ce34a34" y="273.485354"/>
      </g>
     </g>
     <g id="text_5">
      <!-- 1 -->
      <g transform="translate(367.618092 286.564104)scale(0.08 -0.08)">
       <use xlink:href="#DejaVuSans-31"/>
      </g>
     </g>
    </g>
   </g>
   <g id="matplotlib.axis_2">
    <g id="ytick_1">
     <g id="line2d_11">
      <path clip-path="url(#p745cc8c073)" d="M 15.324646 224.492293 
L 429.165354 224.492293 
" style="fill:none;stroke:#000000;stroke-dasharray:0.8,1.32;stroke-dashoffset:0;stroke-width:0.8;"/>
     </g>
     <g id="line2d_12">
      <defs>
       <path d="M 0 0 
L -3.5 0 
" id="m66ea9c0d0e" style="stroke:#000000;stroke-width:0.8;"/>
      </defs>
      <g>
       <use style="stroke:#000000;stroke-width:0.8;" x="15.324646" xlink:href="#m66ea9c0d0e" y="224.492293"/>
      </g>
     </g>
     <g id="text_6">
      <!-- -1 -->
      <g transform="translate(0.348396 227.531668)scale(0.08 -0.08)">
       <use xlink:href="#DejaVuSans-2d"/>
       <use x="36.083984" xlink:href="#DejaVuSans-31"/>
      </g>
     </g>
    </g>
    <g id="ytick_2">
     <g id="line2d_13">
      <path clip-path="url(#p745cc8c073)" d="M 15.324646 122.168258 
L 429.165354 122.168258 
" style="fill:none;stroke:#000000;stroke-dasharray:0.8,1.32;stroke-dashoffset:0;stroke-width:0.8;"/>
     </g>
     <g id="line2d_14">
      <g>
       <use style="stroke:#000000;stroke-width:0.8;" x="15.324646" xlink:href="#m66ea9c0d0e" y="122.168258"/>
      </g>
     </g>
     <g id="text_7">
      <!-- 0 -->
      <g transform="translate(3.234646 125.207633)scale(0.08 -0.08)">
       <use xlink:href="#DejaVuSans-30"/>
      </g>
     </g>
    </g>
    <g id="ytick_3">
     <g id="line2d_15">
      <path clip-path="url(#p745cc8c073)" d="M 15.324646 19.844223 
L 429.165354 19.844223 
" style="fill:none;stroke:#000000;stroke-dasharray:0.8,1.32;stroke-dashoffset:0;stroke-width:0.8;"/>
     </g>
     <g id="line2d_16">
      <g>
       <use style="stroke:#000000;stroke-width:0.8;" x="15.324646" xlink:href="#m66ea9c0d0e" y="19.844223"/>
      </g>
     </g>
     <g id="text_8">
      <!-- 1 -->
      <g transform="translate(3.234646 22.883598)scale(0.08 -0.08)">
       <use xlink:href="#DejaVuSans-31"/>
      </g>
     </g>
    </g>
   </g>
   <g id="line2d_17">
    <path clip-path="url(#p745cc8c073)" d="M 27.037119 53.005849 
L 30.945184 98.405272 
L 35.634863 152.504663 
L 38.370509 181.463769 
L 40.715348 203.736885 
L 42.669381 220.083747 
L 44.232608 231.530336 
L 45.795834 241.418629 
L 47.35906 249.674423 
L 48.53148 254.763983 
L 49.7039 258.894331 
L 50.876319 262.060398 
L 51.657932 263.636072 
L 52.439546 264.786141 
L 53.221159 265.514126 
L 54.002772 265.824785 
L 54.784385 265.724059 
L 55.565998 265.21902 
L 56.347611 264.31782 
L 57.129224 263.029628 
L 57.910838 261.36458 
L 59.083257 258.184779 
L 60.255677 254.222825 
L 61.428097 249.523261 
L 62.991323 242.192935 
L 64.554549 233.757866 
L 66.508582 221.856255 
L 68.853421 205.928666 
L 71.589067 185.663116 
L 75.88794 151.842933 
L 81.359232 109.039244 
L 84.485684 86.398548 
L 86.830524 70.851362 
L 89.175363 56.804388 
L 91.129396 46.383629 
L 93.083429 37.221957 
L 94.646655 30.840604 
L 96.209881 25.324766 
L 97.773108 20.686076 
L 98.945527 17.784905 
L 100.117947 15.377464 
L 101.290367 13.459746 
L 102.462786 12.025491 
L 103.2444 11.333859 
L 104.026013 10.850446 
L 104.807626 10.571914 
L 105.589239 10.494571 
L 106.370852 10.614402 
L 107.152465 10.927081 
L 107.934078 11.427992 
L 109.106498 12.521551 
L 110.278918 14.010092 
L 111.451338 15.875013 
L 112.623757 18.096756 
L 114.186984 21.57884 
L 115.75021 25.608947 
L 117.704243 31.338567 
L 119.658276 37.741086 
L 122.003115 46.166557 
L 125.129567 58.369623 
L 129.42844 76.270079 
L 138.416991 114.050727 
L 141.93425 127.766529 
L 145.060703 139.053123 
L 147.796349 148.099304 
L 150.141188 155.173985 
L 152.486027 161.584818 
L 154.830867 167.309613 
L 156.7849 171.548032 
L 158.738932 175.301445 
L 160.692965 178.57352 
L 162.646998 181.371986 
L 164.210224 183.277265 
L 165.773451 184.893909 
L 167.336677 186.230351 
L 168.899903 187.296038 
L 170.46313 188.101291 
L 172.026356 188.657179 
L 173.589582 188.975391 
L 175.152808 189.068116 
L 176.716035 188.947931 
L 178.279261 188.627694 
L 180.233294 187.965952 
L 182.187327 187.037656 
L 184.141359 185.868415 
L 186.486199 184.182932 
L 188.831038 182.229825 
L 191.566684 179.668178 
L 194.693137 176.443911 
L 198.601203 172.095684 
L 204.854108 164.758298 
L 213.061046 155.16599 
L 217.750724 150.006563 
L 222.049597 145.604234 
L 225.957662 141.923263 
L 229.474922 138.895613 
L 232.992181 136.149878 
L 236.50944 133.690062 
L 240.026699 131.514162 
L 243.543958 129.615147 
L 247.061217 127.981859 
L 250.578476 126.599817 
L 254.095735 125.451924 
L 258.003801 124.427818 
L 261.911867 123.640824 
L 266.210739 123.013247 
L 270.900418 122.566009 
L 276.37171 122.286134 
L 283.406228 122.173628 
L 299.429297 122.008292 
L 304.900589 121.679082 
L 309.590268 121.174637 
L 313.889141 120.482735 
L 317.797206 119.627689 
L 321.314465 118.648788 
L 324.831724 117.450451 
L 328.348984 116.013972 
L 331.866243 114.32278 
L 335.383502 112.363068 
L 338.900761 110.12452 
L 342.41802 107.601144 
L 345.935279 104.792183 
L 349.452538 101.703118 
L 353.360604 97.958128 
L 357.659476 93.493659 
L 362.349155 88.281067 
L 368.60206 80.969704 
L 377.590611 70.468119 
L 381.498677 66.246067 
L 384.62513 63.170581 
L 387.360776 60.776964 
L 389.705615 58.997571 
L 392.050454 57.514249 
L 394.004487 56.535721 
L 395.95852 55.818614 
L 397.521746 55.450397 
L 399.084973 55.278984 
L 400.648199 55.31729 
L 402.211425 55.57797 
L 403.774652 56.073322 
L 405.337878 56.81517 
L 406.901104 57.814749 
L 408.46433 59.08258 
L 410.027557 60.628341 
L 411.590783 62.460732 
L 413.154009 64.587335 
L 415.108042 67.668827 
L 417.062075 71.229028 
L 417.452881 71.999056 
L 417.452881 71.999056 
" style="fill:none;stroke:#009afa;stroke-linecap:round;"/>
   </g>
   <g id="PathCollection_1">
    <defs>
     <path d="M 0 2 
C 0.530406 2 1.03916 1.789267 1.414214 1.414214 
C 1.789267 1.03916 2 0.530406 2 0 
C 2 -0.530406 1.789267 -1.03916 1.414214 -1.414214 
C 1.03916 -1.789267 0.530406 -2 0 -2 
C -0.530406 -2 -1.03916 -1.789267 -1.414214 -1.414214 
C -1.789267 -1.03916 -2 -0.530406 -2 0 
C -2 0.530406 -1.789267 1.03916 -1.414214 1.414214 
C -1.03916 1.789267 -0.530406 2 0 2 
z
" id="m9f46957e0f" style="stroke:#000000;"/>
    </defs>
    <g clip-path="url(#p745cc8c073)">
     <use style="fill:#e36f47;stroke:#000000;" x="27.037119" xlink:href="#m9f46957e0f" y="53.005849"/>
     <use style="fill:#e36f47;stroke:#000000;" x="70.416648" xlink:href="#m9f46957e0f" y="194.527239"/>
     <use style="fill:#e36f47;stroke:#000000;" x="113.796177" xlink:href="#m9f46957e0f" y="20.654956"/>
     <use style="fill:#e36f47;stroke:#000000;" x="157.175706" xlink:href="#m9f46957e0f" y="172.33746"/>
     <use style="fill:#e36f47;stroke:#000000;" x="200.555235" xlink:href="#m9f46957e0f" y="169.833895"/>
     <use style="fill:#e36f47;stroke:#000000;" x="243.934765" xlink:href="#m9f46957e0f" y="129.420787"/>
     <use style="fill:#e36f47;stroke:#000000;" x="287.314294" xlink:href="#m9f46957e0f" y="122.168258"/>
     <use style="fill:#e36f47;stroke:#000000;" x="330.693823" xlink:href="#m9f46957e0f" y="114.915729"/>
     <use style="fill:#e36f47;stroke:#000000;" x="374.073352" xlink:href="#m9f46957e0f" y="74.502621"/>
     <use style="fill:#e36f47;stroke:#000000;" x="417.452881" xlink:href="#m9f46957e0f" y="71.999056"/>
    </g>
   </g>
   <g id="patch_3">
    <path d="M 15.324646 273.485354 
L 15.324646 2.834646 
" style="fill:none;stroke:#000000;stroke-linecap:square;stroke-linejoin:miter;stroke-width:0.8;"/>
   </g>
   <g id="patch_4">
    <path d="M 429.165354 273.485354 
L 429.165354 2.834646 
" style="fill:none;stroke:#000000;stroke-linecap:square;stroke-linejoin:miter;stroke-width:0.8;"/>
   </g>
   <g id="patch_5">
    <path d="M 15.324646 273.485354 
L 429.165354 273.485354 
" style="fill:none;stroke:#000000;stroke-linecap:square;stroke-linejoin:miter;stroke-width:0.8;"/>
   </g>
   <g id="patch_6">
    <path d="M 15.324646 2.834646 
L 429.165354 2.834646 
" style="fill:none;stroke:#000000;stroke-linecap:square;stroke-linejoin:miter;stroke-width:0.8;"/>
   </g>
   <g id="PathCollection_2">
    <defs>
     <path d="M 0 5 
C 1.326016 5 2.597899 4.473168 3.535534 3.535534 
C 4.473168 2.597899 5 1.326016 5 0 
C 5 -1.326016 4.473168 -2.597899 3.535534 -3.535534 
C 2.597899 -4.473168 1.326016 -5 0 -5 
C -1.326016 -5 -2.597899 -4.473168 -3.535534 -3.535534 
C -4.473168 -2.597899 -5 -1.326016 -5 0 
C -5 1.326016 -4.473168 2.597899 -3.535534 3.535534 
C -2.597899 4.473168 -1.326016 5 0 5 
z
" id="md6178497c3" style="stroke:#000000;"/>
    </defs>
    <g clip-path="url(#p745cc8c073)">
     <use style="fill:#3ea44e;stroke:#000000;" x="70.416648" xlink:href="#md6178497c3" y="194.527239"/>
    </g>
   </g>
   <g id="legend_1">
    <g id="patch_7">
     <path d="M 388.140354 44.462146 
L 423.565354 44.462146 
Q 425.165354 44.462146 425.165354 42.862146 
L 425.165354 8.434646 
Q 425.165354 6.834646 423.565354 6.834646 
L 388.140354 6.834646 
Q 386.540354 6.834646 386.540354 8.434646 
L 386.540354 42.862146 
Q 386.540354 44.462146 388.140354 44.462146 
z
" style="fill:#ffffff;opacity:0.8;stroke:#000000;stroke-linejoin:miter;"/>
    </g>
    <g id="line2d_18">
     <path d="M 389.740354 13.313396 
L 405.740354 13.313396 
" style="fill:none;stroke:#009afa;stroke-linecap:round;"/>
    </g>
    <g id="line2d_19"/>
    <g id="text_9">
     <!-- y1 -->
     <defs>
      <path d="M 32.171875 -5.078125 
Q 28.375 -14.84375 24.75 -17.8125 
Q 21.140625 -20.796875 15.09375 -20.796875 
L 7.90625 -20.796875 
L 7.90625 -13.28125 
L 13.1875 -13.28125 
Q 16.890625 -13.28125 18.9375 -11.515625 
Q 21 -9.765625 23.484375 -3.21875 
L 25.09375 0.875 
L 2.984375 54.6875 
L 12.5 54.6875 
L 29.59375 11.921875 
L 46.6875 54.6875 
L 56.203125 54.6875 
z
" id="DejaVuSans-79"/>
     </defs>
     <g transform="translate(412.140354 16.113396)scale(0.08 -0.08)">
      <use xlink:href="#DejaVuSans-79"/>
      <use x="59.179688" xlink:href="#DejaVuSans-31"/>
     </g>
    </g>
    <g id="PathCollection_3">
     <g>
      <use style="fill:#e36f47;stroke:#000000;" x="397.740354" xlink:href="#m9f46957e0f" y="25.755896"/>
     </g>
    </g>
    <g id="text_10">
     <!-- y2 -->
     <g transform="translate(412.140354 27.855896)scale(0.08 -0.08)">
      <use xlink:href="#DejaVuSans-79"/>
      <use x="59.179688" xlink:href="#DejaVuSans-32"/>
     </g>
    </g>
    <g id="PathCollection_4">
     <g>
      <use style="fill:#3ea44e;stroke:#000000;" x="397.740354" xlink:href="#md6178497c3" y="37.498396"/>
     </g>
    </g>
    <g id="text_11">
     <!-- y3 -->
     <g transform="translate(412.140354 39.598396)scale(0.08 -0.08)">
      <use xlink:href="#DejaVuSans-79"/>
      <use x="59.179688" xlink:href="#DejaVuSans-33"/>
     </g>
    </g>
   </g>
  </g>
 </g>
 <defs>
  <clipPath id="p745cc8c073">
   <rect height="270.650709" width="413.840709" x="15.324646" y="2.834646"/>
  </clipPath>
 </defs>
</svg>
