<?xml version="1.0" encoding="utf-8"?>
<svg xmlns="http://www.w3.org/2000/svg" xmlns:xlink="http://www.w3.org/1999/xlink" width="600" height="400" viewBox="0 0 600 400">
<defs>
  <clipPath id="clip0800">
    <rect x="0" y="0" width="600" height="400"/>
  </clipPath>
</defs>
<polygon clip-path="url(#clip0800)" points="
0,400 600,400 600,0 0,0 
  " fill="#ffffff" fill-opacity="1"/>
<defs>
  <clipPath id="clip0801">
    <rect x="120" y="0" width="421" height="400"/>
  </clipPath>
</defs>
<polygon clip-path="url(#clip0800)" points="
43.6938,375.869 580.315,375.869 580.315,11.811 43.6938,11.811 
  " fill="#ffffff" fill-opacity="1"/>
<defs>
  <clipPath id="clip0802">
    <rect x="43" y="11" width="538" height="365"/>
  </clipPath>
</defs>
<polyline clip-path="url(#clip0802)" style="stroke:#000000; stroke-width:0.5; stroke-opacity:0.1; fill:none" points="
  98.3453,375.869 98.3453,11.811 
  "/>
<polyline clip-path="url(#clip0802)" style="stroke:#000000; stroke-width:0.5; stroke-opacity:0.1; fill:none" points="
  198.891,375.869 198.891,11.811 
  "/>
<polyline clip-path="url(#clip0802)" style="stroke:#000000; stroke-width:0.5; stroke-opacity:0.1; fill:none" points="
  299.436,375.869 299.436,11.811 
  "/>
<polyline clip-path="url(#clip0802)" style="stroke:#000000; stroke-width:0.5; stroke-opacity:0.1; fill:none" points="
  399.982,375.869 399.982,11.811 
  "/>
<polyline clip-path="url(#clip0802)" style="stroke:#000000; stroke-width:0.5; stroke-opacity:0.1; fill:none" points="
  500.527,375.869 500.527,11.811 
  "/>
<polyline clip-path="url(#clip0802)" style="stroke:#000000; stroke-width:0.5; stroke-opacity:0.1; fill:none" points="
  43.6938,365.565 580.315,365.565 
  "/>
<polyline clip-path="url(#clip0802)" style="stroke:#000000; stroke-width:0.5; stroke-opacity:0.1; fill:none" points="
  43.6938,267.436 580.315,267.436 
  "/>
<polyline clip-path="url(#clip0802)" style="stroke:#000000; stroke-width:0.5; stroke-opacity:0.1; fill:none" points="
  43.6938,169.308 580.315,169.308 
  "/>
<polyline clip-path="url(#clip0802)" style="stroke:#000000; stroke-width:0.5; stroke-opacity:0.1; fill:none" points="
  43.6938,71.1789 580.315,71.1789 
  "/>
<polyline clip-path="url(#clip0800)" style="stroke:#000000; stroke-width:1; stroke-opacity:1; fill:none" points="
  43.6938,375.869 580.315,375.869 
  "/>
<polyline clip-path="url(#clip0800)" style="stroke:#000000; stroke-width:1; stroke-opacity:1; fill:none" points="
  43.6938,375.869 43.6938,11.811 
  "/>
<polyline clip-path="url(#clip0800)" style="stroke:#000000; stroke-width:1; stroke-opacity:1; fill:none" points="
  98.3453,375.869 98.3453,370.408 
  "/>
<polyline clip-path="url(#clip0800)" style="stroke:#000000; stroke-width:1; stroke-opacity:1; fill:none" points="
  198.891,375.869 198.891,370.408 
  "/>
<polyline clip-path="url(#clip0800)" style="stroke:#000000; stroke-width:1; stroke-opacity:1; fill:none" points="
  299.436,375.869 299.436,370.408 
  "/>
<polyline clip-path="url(#clip0800)" style="stroke:#000000; stroke-width:1; stroke-opacity:1; fill:none" points="
  399.982,375.869 399.982,370.408 
  "/>
<polyline clip-path="url(#clip0800)" style="stroke:#000000; stroke-width:1; stroke-opacity:1; fill:none" points="
  500.527,375.869 500.527,370.408 
  "/>
<polyline clip-path="url(#clip0800)" style="stroke:#000000; stroke-width:1; stroke-opacity:1; fill:none" points="
  43.6938,365.565 51.7431,365.565 
  "/>
<polyline clip-path="url(#clip0800)" style="stroke:#000000; stroke-width:1; stroke-opacity:1; fill:none" points="
  43.6938,267.436 51.7431,267.436 
  "/>
<polyline clip-path="url(#clip0800)" style="stroke:#000000; stroke-width:1; stroke-opacity:1; fill:none" points="
  43.6938,169.308 51.7431,169.308 
  "/>
<polyline clip-path="url(#clip0800)" style="stroke:#000000; stroke-width:1; stroke-opacity:1; fill:none" points="
  43.6938,71.1789 51.7431,71.1789 
  "/>
<g clip-path="url(#clip0800)">
<text style="fill:#000000; fill-opacity:1; font-family:Arial,Helvetica Neue,Helvetica,sans-serif; font-size:12; text-anchor:middle;" transform="rotate(0, 98.3453, 389.669)" x="98.3453" y="389.669">-0.8</text>
</g>
<g clip-path="url(#clip0800)">
<text style="fill:#000000; fill-opacity:1; font-family:Arial,Helvetica Neue,Helvetica,sans-serif; font-size:12; text-anchor:middle;" transform="rotate(0, 198.891, 389.669)" x="198.891" y="389.669">-0.6</text>
</g>
<g clip-path="url(#clip0800)">
<text style="fill:#000000; fill-opacity:1; font-family:Arial,Helvetica Neue,Helvetica,sans-serif; font-size:12; text-anchor:middle;" transform="rotate(0, 299.436, 389.669)" x="299.436" y="389.669">-0.4</text>
</g>
<g clip-path="url(#clip0800)">
<text style="fill:#000000; fill-opacity:1; font-family:Arial,Helvetica Neue,Helvetica,sans-serif; font-size:12; text-anchor:middle;" transform="rotate(0, 399.982, 389.669)" x="399.982" y="389.669">-0.2</text>
</g>
<g clip-path="url(#clip0800)">
<text style="fill:#000000; fill-opacity:1; font-family:Arial,Helvetica Neue,Helvetica,sans-serif; font-size:12; text-anchor:middle;" transform="rotate(0, 500.527, 389.669)" x="500.527" y="389.669">0.0</text>
</g>
<g clip-path="url(#clip0800)">
<text style="fill:#000000; fill-opacity:1; font-family:Arial,Helvetica Neue,Helvetica,sans-serif; font-size:12; text-anchor:end;" transform="rotate(0, 37.6938, 370.065)" x="37.6938" y="370.065">0</text>
</g>
<g clip-path="url(#clip0800)">
<text style="fill:#000000; fill-opacity:1; font-family:Arial,Helvetica Neue,Helvetica,sans-serif; font-size:12; text-anchor:end;" transform="rotate(0, 37.6938, 271.936)" x="37.6938" y="271.936">50</text>
</g>
<g clip-path="url(#clip0800)">
<text style="fill:#000000; fill-opacity:1; font-family:Arial,Helvetica Neue,Helvetica,sans-serif; font-size:12; text-anchor:end;" transform="rotate(0, 37.6938, 173.808)" x="37.6938" y="173.808">100</text>
</g>
<g clip-path="url(#clip0800)">
<text style="fill:#000000; fill-opacity:1; font-family:Arial,Helvetica Neue,Helvetica,sans-serif; font-size:12; text-anchor:end;" transform="rotate(0, 37.6938, 75.6789)" x="37.6938" y="75.6789">150</text>
</g>
<polygon clip-path="url(#clip0802)" points="
73.2089,363.603 73.2089,365.565 98.3453,365.565 98.3453,363.603 73.2089,363.603 73.2089,363.603 
  " fill="#009af9" fill-opacity="1"/>
<polyline clip-path="url(#clip0802)" style="stroke:#000000; stroke-width:1; stroke-opacity:1; fill:none" points="
  73.2089,363.603 73.2089,365.565 98.3453,365.565 98.3453,363.603 73.2089,363.603 
  "/>
<polygon clip-path="url(#clip0802)" points="
98.3453,363.603 98.3453,365.565 123.482,365.565 123.482,363.603 98.3453,363.603 98.3453,363.603 
  " fill="#009af9" fill-opacity="1"/>
<polyline clip-path="url(#clip0802)" style="stroke:#000000; stroke-width:1; stroke-opacity:1; fill:none" points="
  98.3453,363.603 98.3453,365.565 123.482,365.565 123.482,363.603 98.3453,363.603 
  "/>
<polygon clip-path="url(#clip0802)" points="
123.482,363.603 123.482,365.565 148.618,365.565 148.618,363.603 123.482,363.603 123.482,363.603 
  " fill="#009af9" fill-opacity="1"/>
<polyline clip-path="url(#clip0802)" style="stroke:#000000; stroke-width:1; stroke-opacity:1; fill:none" points="
  123.482,363.603 123.482,365.565 148.618,365.565 148.618,363.603 123.482,363.603 
  "/>
<polygon clip-path="url(#clip0802)" points="
148.618,355.752 148.618,365.565 173.754,365.565 173.754,355.752 148.618,355.752 148.618,355.752 
  " fill="#009af9" fill-opacity="1"/>
<polyline clip-path="url(#clip0802)" style="stroke:#000000; stroke-width:1; stroke-opacity:1; fill:none" points="
  148.618,355.752 148.618,365.565 173.754,365.565 173.754,355.752 148.618,355.752 
  "/>
<polygon clip-path="url(#clip0802)" points="
173.754,357.715 173.754,365.565 198.891,365.565 198.891,357.715 173.754,357.715 173.754,357.715 
  " fill="#009af9" fill-opacity="1"/>
<polyline clip-path="url(#clip0802)" style="stroke:#000000; stroke-width:1; stroke-opacity:1; fill:none" points="
  173.754,357.715 173.754,365.565 198.891,365.565 198.891,357.715 173.754,357.715 
  "/>
<polygon clip-path="url(#clip0802)" points="
198.891,355.752 198.891,365.565 224.027,365.565 224.027,355.752 198.891,355.752 198.891,355.752 
  " fill="#009af9" fill-opacity="1"/>
<polyline clip-path="url(#clip0802)" style="stroke:#000000; stroke-width:1; stroke-opacity:1; fill:none" points="
  198.891,355.752 198.891,365.565 224.027,365.565 224.027,355.752 198.891,355.752 
  "/>
<polygon clip-path="url(#clip0802)" points="
224.027,338.089 224.027,365.565 249.163,365.565 249.163,338.089 224.027,338.089 224.027,338.089 
  " fill="#009af9" fill-opacity="1"/>
<polyline clip-path="url(#clip0802)" style="stroke:#000000; stroke-width:1; stroke-opacity:1; fill:none" points="
  224.027,338.089 224.027,365.565 249.163,365.565 249.163,338.089 224.027,338.089 
  "/>
<polygon clip-path="url(#clip0802)" points="
249.163,342.014 249.163,365.565 274.3,365.565 274.3,342.014 249.163,342.014 249.163,342.014 
  " fill="#009af9" fill-opacity="1"/>
<polyline clip-path="url(#clip0802)" style="stroke:#000000; stroke-width:1; stroke-opacity:1; fill:none" points="
  249.163,342.014 249.163,365.565 274.3,365.565 274.3,342.014 249.163,342.014 
  "/>
<polygon clip-path="url(#clip0802)" points="
274.3,332.201 274.3,365.565 299.436,365.565 299.436,332.201 274.3,332.201 274.3,332.201 
  " fill="#009af9" fill-opacity="1"/>
<polyline clip-path="url(#clip0802)" style="stroke:#000000; stroke-width:1; stroke-opacity:1; fill:none" points="
  274.3,332.201 274.3,365.565 299.436,365.565 299.436,332.201 274.3,332.201 
  "/>
<polygon clip-path="url(#clip0802)" points="
299.436,316.501 299.436,365.565 324.573,365.565 324.573,316.501 299.436,316.501 299.436,316.501 
  " fill="#009af9" fill-opacity="1"/>
<polyline clip-path="url(#clip0802)" style="stroke:#000000; stroke-width:1; stroke-opacity:1; fill:none" points="
  299.436,316.501 299.436,365.565 324.573,365.565 324.573,316.501 299.436,316.501 
  "/>
<polygon clip-path="url(#clip0802)" points="
324.573,287.062 324.573,365.565 349.709,365.565 349.709,287.062 324.573,287.062 324.573,287.062 
  " fill="#009af9" fill-opacity="1"/>
<polyline clip-path="url(#clip0802)" style="stroke:#000000; stroke-width:1; stroke-opacity:1; fill:none" points="
  324.573,287.062 324.573,365.565 349.709,365.565 349.709,287.062 324.573,287.062 
  "/>
<polygon clip-path="url(#clip0802)" points="
349.709,245.848 349.709,365.565 374.845,365.565 374.845,245.848 349.709,245.848 349.709,245.848 
  " fill="#009af9" fill-opacity="1"/>
<polyline clip-path="url(#clip0802)" style="stroke:#000000; stroke-width:1; stroke-opacity:1; fill:none" points="
  349.709,245.848 349.709,365.565 374.845,365.565 374.845,245.848 349.709,245.848 
  "/>
<polygon clip-path="url(#clip0802)" points="
374.845,214.447 374.845,365.565 399.982,365.565 399.982,214.447 374.845,214.447 374.845,214.447 
  " fill="#009af9" fill-opacity="1"/>
<polyline clip-path="url(#clip0802)" style="stroke:#000000; stroke-width:1; stroke-opacity:1; fill:none" points="
  374.845,214.447 374.845,365.565 399.982,365.565 399.982,214.447 374.845,214.447 
  "/>
<polygon clip-path="url(#clip0802)" points="
399.982,167.345 399.982,365.565 425.118,365.565 425.118,167.345 399.982,167.345 399.982,167.345 
  " fill="#009af9" fill-opacity="1"/>
<polyline clip-path="url(#clip0802)" style="stroke:#000000; stroke-width:1; stroke-opacity:1; fill:none" points="
  399.982,167.345 399.982,365.565 425.118,365.565 425.118,167.345 399.982,167.345 
  "/>
<polygon clip-path="url(#clip0802)" points="
425.118,128.094 425.118,365.565 450.254,365.565 450.254,128.094 425.118,128.094 425.118,128.094 
  " fill="#009af9" fill-opacity="1"/>
<polyline clip-path="url(#clip0802)" style="stroke:#000000; stroke-width:1; stroke-opacity:1; fill:none" points="
  425.118,128.094 425.118,365.565 450.254,365.565 450.254,128.094 425.118,128.094 
  "/>
<polygon clip-path="url(#clip0802)" points="
450.254,22.1145 450.254,365.565 475.391,365.565 475.391,22.1145 450.254,22.1145 450.254,22.1145 
  " fill="#009af9" fill-opacity="1"/>
<polyline clip-path="url(#clip0802)" style="stroke:#000000; stroke-width:1; stroke-opacity:1; fill:none" points="
  450.254,22.1145 450.254,365.565 475.391,365.565 475.391,22.1145 450.254,22.1145 
  "/>
<polygon clip-path="url(#clip0802)" points="
475.391,35.8526 475.391,365.565 500.527,365.565 500.527,35.8526 475.391,35.8526 475.391,35.8526 
  " fill="#009af9" fill-opacity="1"/>
<polyline clip-path="url(#clip0802)" style="stroke:#000000; stroke-width:1; stroke-opacity:1; fill:none" points="
  475.391,35.8526 475.391,365.565 500.527,365.565 500.527,35.8526 475.391,35.8526 
  "/>
<polygon clip-path="url(#clip0802)" points="
500.527,90.8047 500.527,365.565 525.663,365.565 525.663,90.8047 500.527,90.8047 500.527,90.8047 
  " fill="#009af9" fill-opacity="1"/>
<polyline clip-path="url(#clip0802)" style="stroke:#000000; stroke-width:1; stroke-opacity:1; fill:none" points="
  500.527,90.8047 500.527,365.565 525.663,365.565 525.663,90.8047 500.527,90.8047 
  "/>
<polygon clip-path="url(#clip0802)" points="
525.663,302.763 525.663,365.565 550.8,365.565 550.8,302.763 525.663,302.763 525.663,302.763 
  " fill="#009af9" fill-opacity="1"/>
<polyline clip-path="url(#clip0802)" style="stroke:#000000; stroke-width:1; stroke-opacity:1; fill:none" points="
  525.663,302.763 525.663,365.565 550.8,365.565 550.8,302.763 525.663,302.763 
  "/>
</svg>
