<?xml version="1.0" encoding="utf-8"?>
<svg xmlns="http://www.w3.org/2000/svg" xmlns:xlink="http://www.w3.org/1999/xlink" width="600" height="400" viewBox="0 0 600 400">
<defs>
  <clipPath id="clip1100">
    <rect x="0" y="0" width="600" height="400"/>
  </clipPath>
</defs>
<polygon clip-path="url(#clip1100)" points="
0,400 600,400 600,0 0,0 
  " fill="#ffffff" fill-opacity="1"/>
<defs>
  <clipPath id="clip1101">
    <rect x="120" y="0" width="421" height="400"/>
  </clipPath>
</defs>
<polygon clip-path="url(#clip1100)" points="
50.3844,375.869 580.315,375.869 580.315,11.811 50.3844,11.811 
  " fill="#ffffff" fill-opacity="1"/>
<defs>
  <clipPath id="clip1102">
    <rect x="50" y="11" width="531" height="365"/>
  </clipPath>
</defs>
<polyline clip-path="url(#clip1102)" style="stroke:#000000; stroke-width:0.5; stroke-opacity:0.1; fill:none" points="
  158.138,375.869 158.138,11.811 
  "/>
<polyline clip-path="url(#clip1102)" style="stroke:#000000; stroke-width:0.5; stroke-opacity:0.1; fill:none" points="
  289.148,375.869 289.148,11.811 
  "/>
<polyline clip-path="url(#clip1102)" style="stroke:#000000; stroke-width:0.5; stroke-opacity:0.1; fill:none" points="
  420.158,375.869 420.158,11.811 
  "/>
<polyline clip-path="url(#clip1102)" style="stroke:#000000; stroke-width:0.5; stroke-opacity:0.1; fill:none" points="
  551.168,375.869 551.168,11.811 
  "/>
<polyline clip-path="url(#clip1102)" style="stroke:#000000; stroke-width:0.5; stroke-opacity:0.1; fill:none" points="
  50.3844,365.565 580.315,365.565 
  "/>
<polyline clip-path="url(#clip1102)" style="stroke:#000000; stroke-width:0.5; stroke-opacity:0.1; fill:none" points="
  50.3844,293.107 580.315,293.107 
  "/>
<polyline clip-path="url(#clip1102)" style="stroke:#000000; stroke-width:0.5; stroke-opacity:0.1; fill:none" points="
  50.3844,220.649 580.315,220.649 
  "/>
<polyline clip-path="url(#clip1102)" style="stroke:#000000; stroke-width:0.5; stroke-opacity:0.1; fill:none" points="
  50.3844,148.191 580.315,148.191 
  "/>
<polyline clip-path="url(#clip1102)" style="stroke:#000000; stroke-width:0.5; stroke-opacity:0.1; fill:none" points="
  50.3844,75.7334 580.315,75.7334 
  "/>
<polyline clip-path="url(#clip1100)" style="stroke:#000000; stroke-width:1; stroke-opacity:1; fill:none" points="
  50.3844,375.869 580.315,375.869 
  "/>
<polyline clip-path="url(#clip1100)" style="stroke:#000000; stroke-width:1; stroke-opacity:1; fill:none" points="
  50.3844,375.869 50.3844,11.811 
  "/>
<polyline clip-path="url(#clip1100)" style="stroke:#000000; stroke-width:1; stroke-opacity:1; fill:none" points="
  158.138,375.869 158.138,370.408 
  "/>
<polyline clip-path="url(#clip1100)" style="stroke:#000000; stroke-width:1; stroke-opacity:1; fill:none" points="
  289.148,375.869 289.148,370.408 
  "/>
<polyline clip-path="url(#clip1100)" style="stroke:#000000; stroke-width:1; stroke-opacity:1; fill:none" points="
  420.158,375.869 420.158,370.408 
  "/>
<polyline clip-path="url(#clip1100)" style="stroke:#000000; stroke-width:1; stroke-opacity:1; fill:none" points="
  551.168,375.869 551.168,370.408 
  "/>
<polyline clip-path="url(#clip1100)" style="stroke:#000000; stroke-width:1; stroke-opacity:1; fill:none" points="
  50.3844,365.565 58.3333,365.565 
  "/>
<polyline clip-path="url(#clip1100)" style="stroke:#000000; stroke-width:1; stroke-opacity:1; fill:none" points="
  50.3844,293.107 58.3333,293.107 
  "/>
<polyline clip-path="url(#clip1100)" style="stroke:#000000; stroke-width:1; stroke-opacity:1; fill:none" points="
  50.3844,220.649 58.3333,220.649 
  "/>
<polyline clip-path="url(#clip1100)" style="stroke:#000000; stroke-width:1; stroke-opacity:1; fill:none" points="
  50.3844,148.191 58.3333,148.191 
  "/>
<polyline clip-path="url(#clip1100)" style="stroke:#000000; stroke-width:1; stroke-opacity:1; fill:none" points="
  50.3844,75.7334 58.3333,75.7334 
  "/>
<g clip-path="url(#clip1100)">
<text style="fill:#000000; fill-opacity:1; font-family:Arial,Helvetica Neue,Helvetica,sans-serif; font-size:12; text-anchor:middle;" transform="rotate(0, 158.138, 389.669)" x="158.138" y="389.669">0.2</text>
</g>
<g clip-path="url(#clip1100)">
<text style="fill:#000000; fill-opacity:1; font-family:Arial,Helvetica Neue,Helvetica,sans-serif; font-size:12; text-anchor:middle;" transform="rotate(0, 289.148, 389.669)" x="289.148" y="389.669">0.3</text>
</g>
<g clip-path="url(#clip1100)">
<text style="fill:#000000; fill-opacity:1; font-family:Arial,Helvetica Neue,Helvetica,sans-serif; font-size:12; text-anchor:middle;" transform="rotate(0, 420.158, 389.669)" x="420.158" y="389.669">0.4</text>
</g>
<g clip-path="url(#clip1100)">
<text style="fill:#000000; fill-opacity:1; font-family:Arial,Helvetica Neue,Helvetica,sans-serif; font-size:12; text-anchor:middle;" transform="rotate(0, 551.168, 389.669)" x="551.168" y="389.669">0.5</text>
</g>
<g clip-path="url(#clip1100)">
<text style="fill:#000000; fill-opacity:1; font-family:Arial,Helvetica Neue,Helvetica,sans-serif; font-size:12; text-anchor:end;" transform="rotate(0, 44.3844, 370.065)" x="44.3844" y="370.065">0</text>
</g>
<g clip-path="url(#clip1100)">
<text style="fill:#000000; fill-opacity:1; font-family:Arial,Helvetica Neue,Helvetica,sans-serif; font-size:12; text-anchor:end;" transform="rotate(0, 44.3844, 297.607)" x="44.3844" y="297.607">500</text>
</g>
<g clip-path="url(#clip1100)">
<text style="fill:#000000; fill-opacity:1; font-family:Arial,Helvetica Neue,Helvetica,sans-serif; font-size:12; text-anchor:end;" transform="rotate(0, 44.3844, 225.149)" x="44.3844" y="225.149">1000</text>
</g>
<g clip-path="url(#clip1100)">
<text style="fill:#000000; fill-opacity:1; font-family:Arial,Helvetica Neue,Helvetica,sans-serif; font-size:12; text-anchor:end;" transform="rotate(0, 44.3844, 152.691)" x="44.3844" y="152.691">1500</text>
</g>
<g clip-path="url(#clip1100)">
<text style="fill:#000000; fill-opacity:1; font-family:Arial,Helvetica Neue,Helvetica,sans-serif; font-size:12; text-anchor:end;" transform="rotate(0, 44.3844, 80.2334)" x="44.3844" y="80.2334">2000</text>
</g>
<polygon clip-path="url(#clip1102)" points="
79.5315,364.406 79.5315,365.565 105.734,365.565 105.734,364.406 79.5315,364.406 79.5315,364.406 
  " fill="#009af9" fill-opacity="1"/>
<polyline clip-path="url(#clip1102)" style="stroke:#000000; stroke-width:1; stroke-opacity:1; fill:none" points="
  79.5315,364.406 79.5315,365.565 105.734,365.565 105.734,364.406 79.5315,364.406 
  "/>
<polygon clip-path="url(#clip1102)" points="
105.734,361.508 105.734,365.565 131.936,365.565 131.936,361.508 105.734,361.508 105.734,361.508 
  " fill="#009af9" fill-opacity="1"/>
<polyline clip-path="url(#clip1102)" style="stroke:#000000; stroke-width:1; stroke-opacity:1; fill:none" points="
  105.734,361.508 105.734,365.565 131.936,365.565 131.936,361.508 105.734,361.508 
  "/>
<polygon clip-path="url(#clip1102)" points="
131.936,336.292 131.936,365.565 158.138,365.565 158.138,336.292 131.936,336.292 131.936,336.292 
  " fill="#009af9" fill-opacity="1"/>
<polyline clip-path="url(#clip1102)" style="stroke:#000000; stroke-width:1; stroke-opacity:1; fill:none" points="
  131.936,336.292 131.936,365.565 158.138,365.565 158.138,336.292 131.936,336.292 
  "/>
<polygon clip-path="url(#clip1102)" points="
158.138,259.052 158.138,365.565 184.34,365.565 184.34,259.052 158.138,259.052 158.138,259.052 
  " fill="#009af9" fill-opacity="1"/>
<polyline clip-path="url(#clip1102)" style="stroke:#000000; stroke-width:1; stroke-opacity:1; fill:none" points="
  158.138,259.052 158.138,365.565 184.34,365.565 184.34,259.052 158.138,259.052 
  "/>
<polygon clip-path="url(#clip1102)" points="
184.34,129.062 184.34,365.565 210.542,365.565 210.542,129.062 184.34,129.062 184.34,129.062 
  " fill="#009af9" fill-opacity="1"/>
<polyline clip-path="url(#clip1102)" style="stroke:#000000; stroke-width:1; stroke-opacity:1; fill:none" points="
  184.34,129.062 184.34,365.565 210.542,365.565 210.542,129.062 184.34,129.062 
  "/>
<polygon clip-path="url(#clip1102)" points="
210.542,22.1145 210.542,365.565 236.744,365.565 236.744,22.1145 210.542,22.1145 210.542,22.1145 
  " fill="#009af9" fill-opacity="1"/>
<polyline clip-path="url(#clip1102)" style="stroke:#000000; stroke-width:1; stroke-opacity:1; fill:none" points="
  210.542,22.1145 210.542,365.565 236.744,365.565 236.744,22.1145 210.542,22.1145 
  "/>
<polygon clip-path="url(#clip1102)" points="
236.744,59.7927 236.744,365.565 262.946,365.565 262.946,59.7927 236.744,59.7927 236.744,59.7927 
  " fill="#009af9" fill-opacity="1"/>
<polyline clip-path="url(#clip1102)" style="stroke:#000000; stroke-width:1; stroke-opacity:1; fill:none" points="
  236.744,59.7927 236.744,365.565 262.946,365.565 262.946,59.7927 236.744,59.7927 
  "/>
<polygon clip-path="url(#clip1102)" points="
262.946,148.046 262.946,365.565 289.148,365.565 289.148,148.046 262.946,148.046 262.946,148.046 
  " fill="#009af9" fill-opacity="1"/>
<polyline clip-path="url(#clip1102)" style="stroke:#000000; stroke-width:1; stroke-opacity:1; fill:none" points="
  262.946,148.046 262.946,365.565 289.148,365.565 289.148,148.046 262.946,148.046 
  "/>
<polygon clip-path="url(#clip1102)" points="
289.148,254.415 289.148,365.565 315.35,365.565 315.35,254.415 289.148,254.415 289.148,254.415 
  " fill="#009af9" fill-opacity="1"/>
<polyline clip-path="url(#clip1102)" style="stroke:#000000; stroke-width:1; stroke-opacity:1; fill:none" points="
  289.148,254.415 289.148,365.565 315.35,365.565 315.35,254.415 289.148,254.415 
  "/>
<polygon clip-path="url(#clip1102)" points="
315.35,310.062 315.35,365.565 341.552,365.565 341.552,310.062 315.35,310.062 315.35,310.062 
  " fill="#009af9" fill-opacity="1"/>
<polyline clip-path="url(#clip1102)" style="stroke:#000000; stroke-width:1; stroke-opacity:1; fill:none" points="
  315.35,310.062 315.35,365.565 341.552,365.565 341.552,310.062 315.35,310.062 
  "/>
<polygon clip-path="url(#clip1102)" points="
341.552,340.495 341.552,365.565 367.754,365.565 367.754,340.495 341.552,340.495 341.552,340.495 
  " fill="#009af9" fill-opacity="1"/>
<polyline clip-path="url(#clip1102)" style="stroke:#000000; stroke-width:1; stroke-opacity:1; fill:none" points="
  341.552,340.495 341.552,365.565 367.754,365.565 367.754,340.495 341.552,340.495 
  "/>
<polygon clip-path="url(#clip1102)" points="
367.754,357.305 367.754,365.565 393.956,365.565 393.956,357.305 367.754,357.305 367.754,357.305 
  " fill="#009af9" fill-opacity="1"/>
<polyline clip-path="url(#clip1102)" style="stroke:#000000; stroke-width:1; stroke-opacity:1; fill:none" points="
  367.754,357.305 367.754,365.565 393.956,365.565 393.956,357.305 367.754,357.305 
  "/>
<polygon clip-path="url(#clip1102)" points="
393.956,363.102 393.956,365.565 420.158,365.565 420.158,363.102 393.956,363.102 393.956,363.102 
  " fill="#009af9" fill-opacity="1"/>
<polyline clip-path="url(#clip1102)" style="stroke:#000000; stroke-width:1; stroke-opacity:1; fill:none" points="
  393.956,363.102 393.956,365.565 420.158,365.565 420.158,363.102 393.956,363.102 
  "/>
<polygon clip-path="url(#clip1102)" points="
420.158,363.971 420.158,365.565 446.36,365.565 446.36,363.971 420.158,363.971 420.158,363.971 
  " fill="#009af9" fill-opacity="1"/>
<polyline clip-path="url(#clip1102)" style="stroke:#000000; stroke-width:1; stroke-opacity:1; fill:none" points="
  420.158,363.971 420.158,365.565 446.36,365.565 446.36,363.971 420.158,363.971 
  "/>
<polygon clip-path="url(#clip1102)" points="
446.36,364.985 446.36,365.565 472.562,365.565 472.562,364.985 446.36,364.985 446.36,364.985 
  " fill="#009af9" fill-opacity="1"/>
<polyline clip-path="url(#clip1102)" style="stroke:#000000; stroke-width:1; stroke-opacity:1; fill:none" points="
  446.36,364.985 446.36,365.565 472.562,365.565 472.562,364.985 446.36,364.985 
  "/>
<polygon clip-path="url(#clip1102)" points="
472.562,365.42 472.562,365.565 498.764,365.565 498.764,365.42 472.562,365.42 472.562,365.42 
  " fill="#009af9" fill-opacity="1"/>
<polyline clip-path="url(#clip1102)" style="stroke:#000000; stroke-width:1; stroke-opacity:1; fill:none" points="
  472.562,365.42 472.562,365.565 498.764,365.565 498.764,365.42 472.562,365.42 
  "/>
<polygon clip-path="url(#clip1102)" points="
498.764,365.565 498.764,365.565 524.966,365.565 524.966,365.565 498.764,365.565 498.764,365.565 
  " fill="#009af9" fill-opacity="1"/>
<polyline clip-path="url(#clip1102)" style="stroke:#000000; stroke-width:1; stroke-opacity:1; fill:none" points="
  498.764,365.565 498.764,365.565 524.966,365.565 498.764,365.565 
  "/>
<polygon clip-path="url(#clip1102)" points="
524.966,365.42 524.966,365.565 551.168,365.565 551.168,365.42 524.966,365.42 524.966,365.42 
  " fill="#009af9" fill-opacity="1"/>
<polyline clip-path="url(#clip1102)" style="stroke:#000000; stroke-width:1; stroke-opacity:1; fill:none" points="
  524.966,365.42 524.966,365.565 551.168,365.565 551.168,365.42 524.966,365.42 
  "/>
</svg>
