<?xml version="1.0" encoding="utf-8" standalone="no"?>
<!DOCTYPE svg PUBLIC "-//W3C//DTD SVG 1.1//EN"
  "http://www.w3.org/Graphics/SVG/1.1/DTD/svg11.dtd">
<!-- Created with matplotlib (http://matplotlib.org/) -->
<svg height="288pt" version="1.1" viewBox="0 0 432 288" width="432pt" xmlns="http://www.w3.org/2000/svg" xmlns:xlink="http://www.w3.org/1999/xlink">
 <defs>
  <style type="text/css">
*{stroke-linecap:butt;stroke-linejoin:round;}
  </style>
 </defs>
 <g id="figure_1">
  <g id="patch_1">
   <path d="M 0 288 
L 432 288 
L 432 0 
L 0 0 
z
" style="fill:#ffffff;"/>
  </g>
  <g id="axes_1">
   <g id="patch_2">
    <path d="M 10.024646 275.905354 
L 429.165354 275.905354 
L 429.165354 2.834646 
L 10.024646 2.834646 
z
" style="fill:#ffffff;"/>
   </g>
   <g id="matplotlib.axis_1">
    <g id="xtick_1">
     <g id="line2d_1">
      <path clip-path="url(#pe6a1646576)" d="M 14.490305 275.905354 
L 14.490305 2.834646 
" style="fill:none;opacity:0.1;stroke:#000000;stroke-linecap:square;stroke-width:0.5;"/>
     </g>
     <g id="line2d_2">
      <defs>
       <path d="M 0 0 
L 0 -3.5 
" id="ma5ea562df6" style="stroke:#000000;stroke-width:0.8;"/>
      </defs>
      <g>
       <use style="stroke:#000000;stroke-width:0.8;" x="14.490305" xlink:href="#ma5ea562df6" y="275.905354"/>
      </g>
     </g>
     <g id="text_1">
      <!-- 1.9 -->
      <defs>
       <path d="M 12.40625 8.296875 
L 28.515625 8.296875 
L 28.515625 63.921875 
L 10.984375 60.40625 
L 10.984375 69.390625 
L 28.421875 72.90625 
L 38.28125 72.90625 
L 38.28125 8.296875 
L 54.390625 8.296875 
L 54.390625 0 
L 12.40625 0 
z
" id="DejaVuSans-31"/>
       <path d="M 10.6875 12.40625 
L 21 12.40625 
L 21 0 
L 10.6875 0 
z
" id="DejaVuSans-2e"/>
       <path d="M 10.984375 1.515625 
L 10.984375 10.5 
Q 14.703125 8.734375 18.5 7.8125 
Q 22.3125 6.890625 25.984375 6.890625 
Q 35.75 6.890625 40.890625 13.453125 
Q 46.046875 20.015625 46.78125 33.40625 
Q 43.953125 29.203125 39.59375 26.953125 
Q 35.25 24.703125 29.984375 24.703125 
Q 19.046875 24.703125 12.671875 31.3125 
Q 6.296875 37.9375 6.296875 49.421875 
Q 6.296875 60.640625 12.9375 67.421875 
Q 19.578125 74.21875 30.609375 74.21875 
Q 43.265625 74.21875 49.921875 64.515625 
Q 56.59375 54.828125 56.59375 36.375 
Q 56.59375 19.140625 48.40625 8.859375 
Q 40.234375 -1.421875 26.421875 -1.421875 
Q 22.703125 -1.421875 18.890625 -0.6875 
Q 15.09375 0.046875 10.984375 1.515625 
z
M 30.609375 32.421875 
Q 37.25 32.421875 41.125 36.953125 
Q 45.015625 41.5 45.015625 49.421875 
Q 45.015625 57.28125 41.125 61.84375 
Q 37.25 66.40625 30.609375 66.40625 
Q 23.96875 66.40625 20.09375 61.84375 
Q 16.21875 57.28125 16.21875 49.421875 
Q 16.21875 41.5 20.09375 36.953125 
Q 23.96875 32.421875 30.609375 32.421875 
z
" id="DejaVuSans-39"/>
      </defs>
      <g transform="translate(8.129055 285.484104)scale(0.08 -0.08)">
       <use xlink:href="#DejaVuSans-31"/>
       <use x="63.623047" xlink:href="#DejaVuSans-2e"/>
       <use x="95.410156" xlink:href="#DejaVuSans-39"/>
      </g>
     </g>
    </g>
    <g id="xtick_2">
     <g id="line2d_3">
      <path clip-path="url(#pe6a1646576)" d="M 97.962818 275.905354 
L 97.962818 2.834646 
" style="fill:none;opacity:0.1;stroke:#000000;stroke-linecap:square;stroke-width:0.5;"/>
     </g>
     <g id="line2d_4">
      <g>
       <use style="stroke:#000000;stroke-width:0.8;" x="97.962818" xlink:href="#ma5ea562df6" y="275.905354"/>
      </g>
     </g>
     <g id="text_2">
      <!-- 2.0 -->
      <defs>
       <path d="M 19.1875 8.296875 
L 53.609375 8.296875 
L 53.609375 0 
L 7.328125 0 
L 7.328125 8.296875 
Q 12.9375 14.109375 22.625 23.890625 
Q 32.328125 33.6875 34.8125 36.53125 
Q 39.546875 41.84375 41.421875 45.53125 
Q 43.3125 49.21875 43.3125 52.78125 
Q 43.3125 58.59375 39.234375 62.25 
Q 35.15625 65.921875 28.609375 65.921875 
Q 23.96875 65.921875 18.8125 64.3125 
Q 13.671875 62.703125 7.8125 59.421875 
L 7.8125 69.390625 
Q 13.765625 71.78125 18.9375 73 
Q 24.125 74.21875 28.421875 74.21875 
Q 39.75 74.21875 46.484375 68.546875 
Q 53.21875 62.890625 53.21875 53.421875 
Q 53.21875 48.921875 51.53125 44.890625 
Q 49.859375 40.875 45.40625 35.40625 
Q 44.1875 33.984375 37.640625 27.21875 
Q 31.109375 20.453125 19.1875 8.296875 
z
" id="DejaVuSans-32"/>
       <path d="M 31.78125 66.40625 
Q 24.171875 66.40625 20.328125 58.90625 
Q 16.5 51.421875 16.5 36.375 
Q 16.5 21.390625 20.328125 13.890625 
Q 24.171875 6.390625 31.78125 6.390625 
Q 39.453125 6.390625 43.28125 13.890625 
Q 47.125 21.390625 47.125 36.375 
Q 47.125 51.421875 43.28125 58.90625 
Q 39.453125 66.40625 31.78125 66.40625 
z
M 31.78125 74.21875 
Q 44.046875 74.21875 50.515625 64.515625 
Q 56.984375 54.828125 56.984375 36.375 
Q 56.984375 17.96875 50.515625 8.265625 
Q 44.046875 -1.421875 31.78125 -1.421875 
Q 19.53125 -1.421875 13.0625 8.265625 
Q 6.59375 17.96875 6.59375 36.375 
Q 6.59375 54.828125 13.0625 64.515625 
Q 19.53125 74.21875 31.78125 74.21875 
z
" id="DejaVuSans-30"/>
      </defs>
      <g transform="translate(91.601568 285.484104)scale(0.08 -0.08)">
       <use xlink:href="#DejaVuSans-32"/>
       <use x="63.623047" xlink:href="#DejaVuSans-2e"/>
       <use x="95.410156" xlink:href="#DejaVuSans-30"/>
      </g>
     </g>
    </g>
    <g id="xtick_3">
     <g id="line2d_5">
      <path clip-path="url(#pe6a1646576)" d="M 181.435331 275.905354 
L 181.435331 2.834646 
" style="fill:none;opacity:0.1;stroke:#000000;stroke-linecap:square;stroke-width:0.5;"/>
     </g>
     <g id="line2d_6">
      <g>
       <use style="stroke:#000000;stroke-width:0.8;" x="181.435331" xlink:href="#ma5ea562df6" y="275.905354"/>
      </g>
     </g>
     <g id="text_3">
      <!-- 2.1 -->
      <g transform="translate(175.074081 285.484104)scale(0.08 -0.08)">
       <use xlink:href="#DejaVuSans-32"/>
       <use x="63.623047" xlink:href="#DejaVuSans-2e"/>
       <use x="95.410156" xlink:href="#DejaVuSans-31"/>
      </g>
     </g>
    </g>
    <g id="xtick_4">
     <g id="line2d_7">
      <path clip-path="url(#pe6a1646576)" d="M 264.907845 275.905354 
L 264.907845 2.834646 
" style="fill:none;opacity:0.1;stroke:#000000;stroke-linecap:square;stroke-width:0.5;"/>
     </g>
     <g id="line2d_8">
      <g>
       <use style="stroke:#000000;stroke-width:0.8;" x="264.907845" xlink:href="#ma5ea562df6" y="275.905354"/>
      </g>
     </g>
     <g id="text_4">
      <!-- 2.2 -->
      <g transform="translate(258.546595 285.484104)scale(0.08 -0.08)">
       <use xlink:href="#DejaVuSans-32"/>
       <use x="63.623047" xlink:href="#DejaVuSans-2e"/>
       <use x="95.410156" xlink:href="#DejaVuSans-32"/>
      </g>
     </g>
    </g>
    <g id="xtick_5">
     <g id="line2d_9">
      <path clip-path="url(#pe6a1646576)" d="M 348.380358 275.905354 
L 348.380358 2.834646 
" style="fill:none;opacity:0.1;stroke:#000000;stroke-linecap:square;stroke-width:0.5;"/>
     </g>
     <g id="line2d_10">
      <g>
       <use style="stroke:#000000;stroke-width:0.8;" x="348.380358" xlink:href="#ma5ea562df6" y="275.905354"/>
      </g>
     </g>
     <g id="text_5">
      <!-- 2.3 -->
      <defs>
       <path d="M 40.578125 39.3125 
Q 47.65625 37.796875 51.625 33 
Q 55.609375 28.21875 55.609375 21.1875 
Q 55.609375 10.40625 48.1875 4.484375 
Q 40.765625 -1.421875 27.09375 -1.421875 
Q 22.515625 -1.421875 17.65625 -0.515625 
Q 12.796875 0.390625 7.625 2.203125 
L 7.625 11.71875 
Q 11.71875 9.328125 16.59375 8.109375 
Q 21.484375 6.890625 26.8125 6.890625 
Q 36.078125 6.890625 40.9375 10.546875 
Q 45.796875 14.203125 45.796875 21.1875 
Q 45.796875 27.640625 41.28125 31.265625 
Q 36.765625 34.90625 28.71875 34.90625 
L 20.21875 34.90625 
L 20.21875 43.015625 
L 29.109375 43.015625 
Q 36.375 43.015625 40.234375 45.921875 
Q 44.09375 48.828125 44.09375 54.296875 
Q 44.09375 59.90625 40.109375 62.90625 
Q 36.140625 65.921875 28.71875 65.921875 
Q 24.65625 65.921875 20.015625 65.03125 
Q 15.375 64.15625 9.8125 62.3125 
L 9.8125 71.09375 
Q 15.4375 72.65625 20.34375 73.4375 
Q 25.25 74.21875 29.59375 74.21875 
Q 40.828125 74.21875 47.359375 69.109375 
Q 53.90625 64.015625 53.90625 55.328125 
Q 53.90625 49.265625 50.4375 45.09375 
Q 46.96875 40.921875 40.578125 39.3125 
z
" id="DejaVuSans-33"/>
      </defs>
      <g transform="translate(342.019108 285.484104)scale(0.08 -0.08)">
       <use xlink:href="#DejaVuSans-32"/>
       <use x="63.623047" xlink:href="#DejaVuSans-2e"/>
       <use x="95.410156" xlink:href="#DejaVuSans-33"/>
      </g>
     </g>
    </g>
   </g>
   <g id="matplotlib.axis_2">
    <g id="ytick_1">
     <g id="line2d_11">
      <path clip-path="url(#pe6a1646576)" d="M 10.024646 275.905354 
L 429.165354 275.905354 
" style="fill:none;opacity:0.1;stroke:#000000;stroke-linecap:square;stroke-width:0.5;"/>
     </g>
     <g id="line2d_12">
      <defs>
       <path d="M 0 0 
L 3.5 0 
" id="m05b914caa7" style="stroke:#000000;stroke-width:0.8;"/>
      </defs>
      <g>
       <use style="stroke:#000000;stroke-width:0.8;" x="10.024646" xlink:href="#m05b914caa7" y="275.905354"/>
      </g>
     </g>
     <g id="text_6">
      <!-- 0 -->
      <g transform="translate(1.434646 278.944729)scale(0.08 -0.08)">
       <use xlink:href="#DejaVuSans-30"/>
      </g>
     </g>
    </g>
    <g id="ytick_2">
     <g id="line2d_13">
      <path clip-path="url(#pe6a1646576)" d="M 10.024646 210.068903 
L 429.165354 210.068903 
" style="fill:none;opacity:0.1;stroke:#000000;stroke-linecap:square;stroke-width:0.5;"/>
     </g>
     <g id="line2d_14">
      <g>
       <use style="stroke:#000000;stroke-width:0.8;" x="10.024646" xlink:href="#m05b914caa7" y="210.068903"/>
      </g>
     </g>
     <g id="text_7">
      <!-- 2 -->
      <g transform="translate(1.434646 213.108278)scale(0.08 -0.08)">
       <use xlink:href="#DejaVuSans-32"/>
      </g>
     </g>
    </g>
    <g id="ytick_3">
     <g id="line2d_15">
      <path clip-path="url(#pe6a1646576)" d="M 10.024646 144.232452 
L 429.165354 144.232452 
" style="fill:none;opacity:0.1;stroke:#000000;stroke-linecap:square;stroke-width:0.5;"/>
     </g>
     <g id="line2d_16">
      <g>
       <use style="stroke:#000000;stroke-width:0.8;" x="10.024646" xlink:href="#m05b914caa7" y="144.232452"/>
      </g>
     </g>
     <g id="text_8">
      <!-- 4 -->
      <defs>
       <path d="M 37.796875 64.3125 
L 12.890625 25.390625 
L 37.796875 25.390625 
z
M 35.203125 72.90625 
L 47.609375 72.90625 
L 47.609375 25.390625 
L 58.015625 25.390625 
L 58.015625 17.1875 
L 47.609375 17.1875 
L 47.609375 0 
L 37.796875 0 
L 37.796875 17.1875 
L 4.890625 17.1875 
L 4.890625 26.703125 
z
" id="DejaVuSans-34"/>
      </defs>
      <g transform="translate(1.434646 147.271827)scale(0.08 -0.08)">
       <use xlink:href="#DejaVuSans-34"/>
      </g>
     </g>
    </g>
    <g id="ytick_4">
     <g id="line2d_17">
      <path clip-path="url(#pe6a1646576)" d="M 10.024646 78.396001 
L 429.165354 78.396001 
" style="fill:none;opacity:0.1;stroke:#000000;stroke-linecap:square;stroke-width:0.5;"/>
     </g>
     <g id="line2d_18">
      <g>
       <use style="stroke:#000000;stroke-width:0.8;" x="10.024646" xlink:href="#m05b914caa7" y="78.396001"/>
      </g>
     </g>
     <g id="text_9">
      <!-- 6 -->
      <defs>
       <path d="M 33.015625 40.375 
Q 26.375 40.375 22.484375 35.828125 
Q 18.609375 31.296875 18.609375 23.390625 
Q 18.609375 15.53125 22.484375 10.953125 
Q 26.375 6.390625 33.015625 6.390625 
Q 39.65625 6.390625 43.53125 10.953125 
Q 47.40625 15.53125 47.40625 23.390625 
Q 47.40625 31.296875 43.53125 35.828125 
Q 39.65625 40.375 33.015625 40.375 
z
M 52.59375 71.296875 
L 52.59375 62.3125 
Q 48.875 64.0625 45.09375 64.984375 
Q 41.3125 65.921875 37.59375 65.921875 
Q 27.828125 65.921875 22.671875 59.328125 
Q 17.53125 52.734375 16.796875 39.40625 
Q 19.671875 43.65625 24.015625 45.921875 
Q 28.375 48.1875 33.59375 48.1875 
Q 44.578125 48.1875 50.953125 41.515625 
Q 57.328125 34.859375 57.328125 23.390625 
Q 57.328125 12.15625 50.6875 5.359375 
Q 44.046875 -1.421875 33.015625 -1.421875 
Q 20.359375 -1.421875 13.671875 8.265625 
Q 6.984375 17.96875 6.984375 36.375 
Q 6.984375 53.65625 15.1875 63.9375 
Q 23.390625 74.21875 37.203125 74.21875 
Q 40.921875 74.21875 44.703125 73.484375 
Q 48.484375 72.75 52.59375 71.296875 
z
" id="DejaVuSans-36"/>
      </defs>
      <g transform="translate(1.434646 81.435376)scale(0.08 -0.08)">
       <use xlink:href="#DejaVuSans-36"/>
      </g>
     </g>
    </g>
    <g id="ytick_5">
     <g id="line2d_19">
      <path clip-path="url(#pe6a1646576)" d="M 10.024646 12.55955 
L 429.165354 12.55955 
" style="fill:none;opacity:0.1;stroke:#000000;stroke-linecap:square;stroke-width:0.5;"/>
     </g>
     <g id="line2d_20">
      <g>
       <use style="stroke:#000000;stroke-width:0.8;" x="10.024646" xlink:href="#m05b914caa7" y="12.55955"/>
      </g>
     </g>
     <g id="text_10">
      <!-- 8 -->
      <defs>
       <path d="M 31.78125 34.625 
Q 24.75 34.625 20.71875 30.859375 
Q 16.703125 27.09375 16.703125 20.515625 
Q 16.703125 13.921875 20.71875 10.15625 
Q 24.75 6.390625 31.78125 6.390625 
Q 38.8125 6.390625 42.859375 10.171875 
Q 46.921875 13.96875 46.921875 20.515625 
Q 46.921875 27.09375 42.890625 30.859375 
Q 38.875 34.625 31.78125 34.625 
z
M 21.921875 38.8125 
Q 15.578125 40.375 12.03125 44.71875 
Q 8.5 49.078125 8.5 55.328125 
Q 8.5 64.0625 14.71875 69.140625 
Q 20.953125 74.21875 31.78125 74.21875 
Q 42.671875 74.21875 48.875 69.140625 
Q 55.078125 64.0625 55.078125 55.328125 
Q 55.078125 49.078125 51.53125 44.71875 
Q 48 40.375 41.703125 38.8125 
Q 48.828125 37.15625 52.796875 32.3125 
Q 56.78125 27.484375 56.78125 20.515625 
Q 56.78125 9.90625 50.3125 4.234375 
Q 43.84375 -1.421875 31.78125 -1.421875 
Q 19.734375 -1.421875 13.25 4.234375 
Q 6.78125 9.90625 6.78125 20.515625 
Q 6.78125 27.484375 10.78125 32.3125 
Q 14.796875 37.15625 21.921875 38.8125 
z
M 18.3125 54.390625 
Q 18.3125 48.734375 21.84375 45.5625 
Q 25.390625 42.390625 31.78125 42.390625 
Q 38.140625 42.390625 41.71875 45.5625 
Q 45.3125 48.734375 45.3125 54.390625 
Q 45.3125 60.0625 41.71875 63.234375 
Q 38.140625 66.40625 31.78125 66.40625 
Q 25.390625 66.40625 21.84375 63.234375 
Q 18.3125 60.0625 18.3125 54.390625 
z
" id="DejaVuSans-38"/>
      </defs>
      <g transform="translate(1.434646 15.598925)scale(0.08 -0.08)">
       <use xlink:href="#DejaVuSans-38"/>
      </g>
     </g>
    </g>
   </g>
   <g id="PolyCollection_1">
    <path clip-path="url(#pe6a1646576)" d="M 10.024646 275.739817 
L 10.024646 275.905354 
L 11.056197 275.905354 
L 12.087748 275.905354 
L 13.119299 275.905354 
L 14.15085 275.905354 
L 15.182402 275.905354 
L 16.213953 275.905354 
L 17.245504 275.905354 
L 18.277055 275.905354 
L 19.308606 275.905354 
L 20.340158 275.905354 
L 21.371709 275.905354 
L 22.40326 275.905354 
L 23.434811 275.905354 
L 24.466362 275.905354 
L 25.497914 275.905354 
L 26.529465 275.905354 
L 27.561016 275.905354 
L 28.592567 275.905354 
L 29.624118 275.905354 
L 30.65567 275.905354 
L 31.687221 275.905354 
L 32.718772 275.905354 
L 33.750323 275.905354 
L 34.781874 275.905354 
L 35.813426 275.905354 
L 36.844977 275.905354 
L 37.876528 275.905354 
L 38.908079 275.905354 
L 39.93963 275.905354 
L 40.971182 275.905354 
L 42.002733 275.905354 
L 43.034284 275.905354 
L 44.065835 275.905354 
L 45.097387 275.905354 
L 46.128938 275.905354 
L 47.160489 275.905354 
L 48.19204 275.905354 
L 49.223591 275.905354 
L 50.255143 275.905354 
L 51.286694 275.905354 
L 52.318245 275.905354 
L 53.349796 275.905354 
L 54.381347 275.905354 
L 55.412899 275.905354 
L 56.44445 275.905354 
L 57.476001 275.905354 
L 58.507552 275.905354 
L 59.539103 275.905354 
L 60.570655 275.905354 
L 61.602206 275.905354 
L 62.633757 275.905354 
L 63.665308 275.905354 
L 64.696859 275.905354 
L 65.728411 275.905354 
L 66.759962 275.905354 
L 67.791513 275.905354 
L 68.823064 275.905354 
L 69.854615 275.905354 
L 70.886167 275.905354 
L 71.917718 275.905354 
L 72.949269 275.905354 
L 73.98082 275.905354 
L 75.012371 275.905354 
L 76.043923 275.905354 
L 77.075474 275.905354 
L 78.107025 275.905354 
L 79.138576 275.905354 
L 80.170127 275.905354 
L 81.201679 275.905354 
L 82.23323 275.905354 
L 83.264781 275.905354 
L 84.296332 275.905354 
L 85.327883 275.905354 
L 86.359435 275.905354 
L 87.390986 275.905354 
L 88.422537 275.905354 
L 89.454088 275.905354 
L 90.485639 275.905354 
L 91.517191 275.905354 
L 92.548742 275.905354 
L 93.580293 275.905354 
L 94.611844 275.905354 
L 95.643395 275.905354 
L 96.674947 275.905354 
L 97.706498 275.905354 
L 98.738049 275.905354 
L 99.7696 275.905354 
L 100.801151 275.905354 
L 101.832703 275.905354 
L 102.864254 275.905354 
L 103.895805 275.905354 
L 104.927356 275.905354 
L 105.958907 275.905354 
L 106.990459 275.905354 
L 108.02201 275.905354 
L 109.053561 275.905354 
L 110.085112 275.905354 
L 111.116663 275.905354 
L 112.148215 275.905354 
L 112.148215 204.577163 
L 112.148215 204.577163 
L 111.116663 207.425326 
L 110.085112 210.147538 
L 109.053561 212.76137 
L 108.02201 215.281055 
L 106.990459 217.718678 
L 105.958907 220.086211 
L 104.927356 222.397726 
L 103.895805 224.670781 
L 102.864254 226.92582 
L 101.832703 229.183163 
L 100.801151 231.458088 
L 99.7696 233.755457 
L 98.738049 236.065913 
L 97.706498 238.365283 
L 96.674947 240.617868 
L 95.643395 242.782863 
L 94.611844 244.822316 
L 93.580293 246.708119 
L 92.548742 248.426421 
L 91.517191 249.978364 
L 90.485639 251.377522 
L 89.454088 252.645223 
L 88.422537 253.805513 
L 87.390986 254.881154 
L 86.359435 255.891536 
L 85.327883 256.852503 
L 84.296332 257.777282 
L 83.264781 258.677623 
L 82.23323 259.564169 
L 81.201679 260.445762 
L 80.170127 261.32791 
L 79.138576 262.211133 
L 78.107025 263.09006 
L 77.075474 263.953899 
L 76.043923 264.788425 
L 75.012371 265.579009 
L 73.98082 266.313947 
L 72.949269 266.987031 
L 71.917718 267.598749 
L 70.886167 268.155734 
L 69.854615 268.668774 
L 68.823064 269.149934 
L 67.791513 269.609695 
L 66.759962 270.054787 
L 65.728411 270.487237 
L 64.696859 270.904716 
L 63.665308 271.301956 
L 62.633757 271.672704 
L 61.602206 272.011667 
L 60.570655 272.315922 
L 59.539103 272.585486 
L 58.507552 272.823019 
L 57.476001 273.032873 
L 56.44445 273.219866 
L 55.412899 273.3882 
L 54.381347 273.540847 
L 53.349796 273.679517 
L 52.318245 273.80511 
L 51.286694 273.918378 
L 50.255143 274.020466 
L 49.223591 274.113116 
L 48.19204 274.198434 
L 47.160489 274.278379 
L 46.128938 274.354206 
L 45.097387 274.426157 
L 44.065835 274.493551 
L 43.034284 274.555273 
L 42.002733 274.610486 
L 40.971182 274.659298 
L 39.93963 274.703136 
L 38.908079 274.74469 
L 37.876528 274.78743 
L 36.844977 274.834867 
L 35.813426 274.889756 
L 34.781874 274.953466 
L 33.750323 275.025674 
L 32.718772 275.104426 
L 31.687221 275.186526 
L 30.65567 275.268137 
L 29.624118 275.345453 
L 28.592567 275.415278 
L 27.561016 275.47543 
L 26.529465 275.524899 
L 25.497914 275.563789 
L 24.466362 275.593096 
L 23.434811 275.614391 
L 22.40326 275.6295 
L 21.371709 275.640231 
L 20.340158 275.648183 
L 19.308606 275.654643 
L 18.277055 275.660558 
L 17.245504 275.666583 
L 16.213953 275.673152 
L 15.182402 275.680578 
L 14.15085 275.689133 
L 13.119299 275.699094 
L 12.087748 275.710739 
L 11.056197 275.724288 
L 10.024646 275.739817 
z
" style="fill:#ffa500;fill-opacity:0.5;"/>
   </g>
   <g id="line2d_21">
    <path clip-path="url(#pe6a1646576)" d="M 10.024646 275.739817 
L 11.056197 275.724288 
L 12.087748 275.710739 
L 13.119299 275.699094 
L 14.15085 275.689133 
L 15.182402 275.680578 
L 16.213953 275.673152 
L 17.245504 275.666583 
L 18.277055 275.660558 
L 19.308606 275.654643 
L 20.340158 275.648183 
L 21.371709 275.640231 
L 22.40326 275.6295 
L 23.434811 275.614391 
L 24.466362 275.593096 
L 25.497914 275.563789 
L 26.529465 275.524899 
L 27.561016 275.47543 
L 28.592567 275.415278 
L 29.624118 275.345453 
L 30.65567 275.268137 
L 31.687221 275.186526 
L 32.718772 275.104426 
L 33.750323 275.025674 
L 34.781874 274.953466 
L 35.813426 274.889756 
L 36.844977 274.834867 
L 37.876528 274.78743 
L 38.908079 274.74469 
L 39.93963 274.703136 
L 40.971182 274.659298 
L 42.002733 274.610486 
L 43.034284 274.555273 
L 44.065835 274.493551 
L 45.097387 274.426157 
L 46.128938 274.354206 
L 47.160489 274.278379 
L 48.19204 274.198434 
L 49.223591 274.113116 
L 50.255143 274.020466 
L 51.286694 273.918378 
L 52.318245 273.80511 
L 53.349796 273.679517 
L 54.381347 273.540847 
L 55.412899 273.3882 
L 56.44445 273.219866 
L 57.476001 273.032873 
L 58.507552 272.823019 
L 59.539103 272.585486 
L 60.570655 272.315922 
L 61.602206 272.011667 
L 62.633757 271.672704 
L 63.665308 271.301956 
L 64.696859 270.904716 
L 65.728411 270.487237 
L 66.759962 270.054787 
L 67.791513 269.609695 
L 68.823064 269.149934 
L 69.854615 268.668774 
L 70.886167 268.155734 
L 71.917718 267.598749 
L 72.949269 266.987031 
L 73.98082 266.313947 
L 75.012371 265.579009 
L 76.043923 264.788425 
L 77.075474 263.953899 
L 78.107025 263.09006 
L 79.138576 262.211133 
L 80.170127 261.32791 
L 81.201679 260.445762 
L 82.23323 259.564169 
L 83.264781 258.677623 
L 84.296332 257.777282 
L 85.327883 256.852503 
L 86.359435 255.891536 
L 87.390986 254.881154 
L 88.422537 253.805513 
L 89.454088 252.645223 
L 90.485639 251.377522 
L 91.517191 249.978364 
L 92.548742 248.426421 
L 93.580293 246.708119 
L 94.611844 244.822316 
L 95.643395 242.782863 
L 96.674947 240.617868 
L 97.706498 238.365283 
L 98.738049 236.065913 
L 99.7696 233.755457 
L 100.801151 231.458088 
L 101.832703 229.183163 
L 102.864254 226.92582 
L 103.895805 224.670781 
L 104.927356 222.397726 
L 105.958907 220.086211 
L 106.990459 217.718678 
L 108.02201 215.281055 
L 109.053561 212.76137 
L 110.085112 210.147538 
L 111.116663 207.425326 
L 112.148215 204.577163 
" style="fill:none;stroke:#ffa500;stroke-linecap:round;"/>
   </g>
   <g id="PolyCollection_2">
    <path clip-path="url(#pe6a1646576)" d="M 112.148215 204.577163 
L 112.148215 275.905354 
L 113.503522 275.905354 
L 114.85883 275.905354 
L 116.214137 275.905354 
L 117.569445 275.905354 
L 118.924752 275.905354 
L 120.28006 275.905354 
L 121.635367 275.905354 
L 122.990675 275.905354 
L 124.345982 275.905354 
L 125.70129 275.905354 
L 127.056597 275.905354 
L 128.411905 275.905354 
L 129.767212 275.905354 
L 131.12252 275.905354 
L 132.477827 275.905354 
L 133.833135 275.905354 
L 135.188442 275.905354 
L 136.54375 275.905354 
L 137.899057 275.905354 
L 139.254365 275.905354 
L 140.609672 275.905354 
L 141.96498 275.905354 
L 143.320287 275.905354 
L 144.675595 275.905354 
L 146.030902 275.905354 
L 147.38621 275.905354 
L 148.741517 275.905354 
L 150.096825 275.905354 
L 151.452132 275.905354 
L 152.80744 275.905354 
L 154.162747 275.905354 
L 155.518055 275.905354 
L 156.873362 275.905354 
L 158.22867 275.905354 
L 159.583977 275.905354 
L 160.939285 275.905354 
L 162.294592 275.905354 
L 163.6499 275.905354 
L 165.005207 275.905354 
L 166.360515 275.905354 
L 167.715822 275.905354 
L 169.07113 275.905354 
L 170.426437 275.905354 
L 171.781745 275.905354 
L 173.137052 275.905354 
L 174.49236 275.905354 
L 175.847667 275.905354 
L 177.202975 275.905354 
L 178.558282 275.905354 
L 179.91359 275.905354 
L 181.268897 275.905354 
L 182.624205 275.905354 
L 183.979512 275.905354 
L 185.33482 275.905354 
L 186.690127 275.905354 
L 188.045435 275.905354 
L 189.400742 275.905354 
L 190.75605 275.905354 
L 192.111357 275.905354 
L 193.466665 275.905354 
L 194.821972 275.905354 
L 196.17728 275.905354 
L 197.532587 275.905354 
L 198.887895 275.905354 
L 200.243202 275.905354 
L 201.59851 275.905354 
L 202.953817 275.905354 
L 204.309125 275.905354 
L 205.664432 275.905354 
L 207.01974 275.905354 
L 208.375047 275.905354 
L 209.730355 275.905354 
L 211.085662 275.905354 
L 212.44097 275.905354 
L 213.796277 275.905354 
L 215.151585 275.905354 
L 216.506892 275.905354 
L 217.8622 275.905354 
L 219.217507 275.905354 
L 220.572815 275.905354 
L 221.928122 275.905354 
L 223.28343 275.905354 
L 224.638737 275.905354 
L 225.994045 275.905354 
L 227.349352 275.905354 
L 228.70466 275.905354 
L 230.059967 275.905354 
L 231.415275 275.905354 
L 232.770582 275.905354 
L 234.12589 275.905354 
L 235.481197 275.905354 
L 236.836505 275.905354 
L 238.191812 275.905354 
L 239.54712 275.905354 
L 240.902427 275.905354 
L 242.257735 275.905354 
L 243.613042 275.905354 
L 244.96835 275.905354 
L 246.323657 275.905354 
L 246.323657 217.777874 
L 246.323657 217.777874 
L 244.96835 214.53319 
L 243.613042 211.037117 
L 242.257735 207.339783 
L 240.902427 203.495319 
L 239.54712 199.556128 
L 238.191812 195.572386 
L 236.836505 191.592573 
L 235.481197 187.661551 
L 234.12589 183.81451 
L 232.770582 180.067 
L 231.415275 176.403291 
L 230.059967 172.767894 
L 228.70466 169.066756 
L 227.349352 165.183171 
L 225.994045 161.007695 
L 224.638737 156.473474 
L 223.28343 151.583144 
L 221.928122 146.414633 
L 220.572815 141.101175 
L 219.217507 135.791682 
L 217.8622 130.60589 
L 216.506892 125.600687 
L 215.151585 120.759414 
L 213.796277 116.007261 
L 212.44097 111.246352 
L 211.085662 106.396617 
L 209.730355 101.425797 
L 208.375047 96.355888 
L 207.01974 91.243825 
L 205.664432 86.146956 
L 204.309125 81.091761 
L 202.953817 76.061906 
L 201.59851 71.009918 
L 200.243202 65.883212 
L 198.887895 60.648719 
L 197.532587 55.304535 
L 196.17728 49.877579 
L 194.821972 44.415058 
L 193.466665 38.978991 
L 192.111357 33.647541 
L 190.75605 28.51943 
L 189.400742 23.713445 
L 188.045435 19.356474 
L 186.690127 15.559589 
L 185.33482 12.389277 
L 183.979512 9.845994 
L 182.624205 7.861678 
L 181.268897 6.321241 
L 179.91359 5.10294 
L 178.558282 4.123626 
L 177.202975 3.371333 
L 175.847667 2.911282 
L 174.49236 2.86064 
L 173.137052 3.338917 
L 171.781745 4.410242 
L 170.426437 6.037697 
L 169.07113 8.067082 
L 167.715822 10.248852 
L 166.360515 12.295109 
L 165.005207 13.956411 
L 163.6499 15.094379 
L 162.294592 15.724631 
L 160.939285 16.013257 
L 159.583977 16.227654 
L 158.22867 16.66192 
L 156.873362 17.567691 
L 155.518055 19.116296 
L 154.162747 21.399581 
L 152.80744 24.455626 
L 151.452132 28.294894 
L 150.096825 32.907884 
L 148.741517 38.252455 
L 147.38621 44.235331 
L 146.030902 50.707101 
L 144.675595 57.480554 
L 143.320287 64.365901 
L 141.96498 71.205147 
L 140.609672 77.889504 
L 139.254365 84.356548 
L 137.899057 90.577828 
L 136.54375 96.55222 
L 135.188442 102.312516 
L 133.833135 107.938815 
L 132.477827 113.563073 
L 131.12252 119.351514 
L 129.767212 125.463938 
L 128.411905 132.003283 
L 127.056597 138.976199 
L 125.70129 146.281949 
L 124.345982 153.734785 
L 122.990675 161.11076 
L 121.635367 168.200723 
L 120.28006 174.850972 
L 118.924752 180.98071 
L 117.569445 186.576486 
L 116.214137 191.672383 
L 114.85883 196.327324 
L 113.503522 200.607651 
L 112.148215 204.577163 
z
" style="fill:#008000;fill-opacity:0.5;"/>
   </g>
   <g id="line2d_22">
    <path clip-path="url(#pe6a1646576)" d="M 112.148215 204.577163 
L 113.503522 200.607651 
L 114.85883 196.327324 
L 116.214137 191.672383 
L 117.569445 186.576486 
L 118.924752 180.98071 
L 120.28006 174.850972 
L 121.635367 168.200723 
L 122.990675 161.11076 
L 124.345982 153.734785 
L 125.70129 146.281949 
L 127.056597 138.976199 
L 128.411905 132.003283 
L 129.767212 125.463938 
L 131.12252 119.351514 
L 132.477827 113.563073 
L 133.833135 107.938815 
L 135.188442 102.312516 
L 136.54375 96.55222 
L 137.899057 90.577828 
L 139.254365 84.356548 
L 140.609672 77.889504 
L 141.96498 71.205147 
L 143.320287 64.365901 
L 144.675595 57.480554 
L 146.030902 50.707101 
L 147.38621 44.235331 
L 148.741517 38.252455 
L 150.096825 32.907884 
L 151.452132 28.294894 
L 152.80744 24.455626 
L 154.162747 21.399581 
L 155.518055 19.116296 
L 156.873362 17.567691 
L 158.22867 16.66192 
L 159.583977 16.227654 
L 160.939285 16.013257 
L 162.294592 15.724631 
L 163.6499 15.094379 
L 165.005207 13.956411 
L 166.360515 12.295109 
L 167.715822 10.248852 
L 169.07113 8.067082 
L 170.426437 6.037697 
L 171.781745 4.410242 
L 173.137052 3.338917 
L 174.49236 2.86064 
L 175.847667 2.911282 
L 177.202975 3.371333 
L 178.558282 4.123626 
L 179.91359 5.10294 
L 181.268897 6.321241 
L 182.624205 7.861678 
L 183.979512 9.845994 
L 185.33482 12.389277 
L 186.690127 15.559589 
L 188.045435 19.356474 
L 189.400742 23.713445 
L 190.75605 28.51943 
L 192.111357 33.647541 
L 193.466665 38.978991 
L 194.821972 44.415058 
L 196.17728 49.877579 
L 197.532587 55.304535 
L 198.887895 60.648719 
L 200.243202 65.883212 
L 201.59851 71.009918 
L 202.953817 76.061906 
L 204.309125 81.091761 
L 205.664432 86.146956 
L 207.01974 91.243825 
L 208.375047 96.355888 
L 209.730355 101.425797 
L 211.085662 106.396617 
L 212.44097 111.246352 
L 213.796277 116.007261 
L 215.151585 120.759414 
L 216.506892 125.600687 
L 217.8622 130.60589 
L 219.217507 135.791682 
L 220.572815 141.101175 
L 221.928122 146.414633 
L 223.28343 151.583144 
L 224.638737 156.473474 
L 225.994045 161.007695 
L 227.349352 165.183171 
L 228.70466 169.066756 
L 230.059967 172.767894 
L 231.415275 176.403291 
L 232.770582 180.067 
L 234.12589 183.81451 
L 235.481197 187.661551 
L 236.836505 191.592573 
L 238.191812 195.572386 
L 239.54712 199.556128 
L 240.902427 203.495319 
L 242.257735 207.339783 
L 243.613042 211.037117 
L 244.96835 214.53319 
L 246.323657 217.777874 
" style="fill:none;stroke:#008000;stroke-linecap:round;"/>
   </g>
   <g id="patch_3">
    <path d="M 10.024646 275.905354 
L 10.024646 2.834646 
" style="fill:none;stroke:#000000;stroke-linecap:square;stroke-linejoin:miter;stroke-width:0.8;"/>
   </g>
   <g id="patch_4">
    <path d="M 10.024646 275.905354 
L 429.165354 275.905354 
" style="fill:none;stroke:#000000;stroke-linecap:square;stroke-linejoin:miter;stroke-width:0.8;"/>
   </g>
   <g id="PolyCollection_3">
    <path clip-path="url(#pe6a1646576)" d="M 246.323657 217.777874 
L 246.323657 275.905354 
L 248.170543 275.905354 
L 250.017429 275.905354 
L 251.864315 275.905354 
L 253.711201 275.905354 
L 255.558087 275.905354 
L 257.404972 275.905354 
L 259.251858 275.905354 
L 261.098744 275.905354 
L 262.94563 275.905354 
L 264.792516 275.905354 
L 266.639402 275.905354 
L 268.486287 275.905354 
L 270.333173 275.905354 
L 272.180059 275.905354 
L 274.026945 275.905354 
L 275.873831 275.905354 
L 277.720716 275.905354 
L 279.567602 275.905354 
L 281.414488 275.905354 
L 283.261374 275.905354 
L 285.10826 275.905354 
L 286.955146 275.905354 
L 288.802031 275.905354 
L 290.648917 275.905354 
L 292.495803 275.905354 
L 294.342689 275.905354 
L 296.189575 275.905354 
L 298.036461 275.905354 
L 299.883346 275.905354 
L 301.730232 275.905354 
L 303.577118 275.905354 
L 305.424004 275.905354 
L 307.27089 275.905354 
L 309.117776 275.905354 
L 310.964661 275.905354 
L 312.811547 275.905354 
L 314.658433 275.905354 
L 316.505319 275.905354 
L 318.352205 275.905354 
L 320.199091 275.905354 
L 322.045976 275.905354 
L 323.892862 275.905354 
L 325.739748 275.905354 
L 327.586634 275.905354 
L 329.43352 275.905354 
L 331.280405 275.905354 
L 333.127291 275.905354 
L 334.974177 275.905354 
L 336.821063 275.905354 
L 338.667949 275.905354 
L 340.514835 275.905354 
L 342.36172 275.905354 
L 344.208606 275.905354 
L 346.055492 275.905354 
L 347.902378 275.905354 
L 349.749264 275.905354 
L 351.59615 275.905354 
L 353.443035 275.905354 
L 355.289921 275.905354 
L 357.136807 275.905354 
L 358.983693 275.905354 
L 360.830579 275.905354 
L 362.677465 275.905354 
L 364.52435 275.905354 
L 366.371236 275.905354 
L 368.218122 275.905354 
L 370.065008 275.905354 
L 371.911894 275.905354 
L 373.75878 275.905354 
L 375.605665 275.905354 
L 377.452551 275.905354 
L 379.299437 275.905354 
L 381.146323 275.905354 
L 382.993209 275.905354 
L 384.840094 275.905354 
L 386.68698 275.905354 
L 388.533866 275.905354 
L 390.380752 275.905354 
L 392.227638 275.905354 
L 394.074524 275.905354 
L 395.921409 275.905354 
L 397.768295 275.905354 
L 399.615181 275.905354 
L 401.462067 275.905354 
L 403.308953 275.905354 
L 405.155839 275.905354 
L 407.002724 275.905354 
L 408.84961 275.905354 
L 410.696496 275.905354 
L 412.543382 275.905354 
L 414.390268 275.905354 
L 416.237154 275.905354 
L 418.084039 275.905354 
L 419.930925 275.905354 
L 421.777811 275.905354 
L 423.624697 275.905354 
L 425.471583 275.905354 
L 427.318469 275.905354 
L 429.165354 275.905354 
L 429.165354 275.787363 
L 429.165354 275.787363 
L 427.318469 275.785185 
L 425.471583 275.788163 
L 423.624697 275.789061 
L 421.777811 275.783104 
L 419.930925 275.770823 
L 418.084039 275.756762 
L 416.237154 275.745871 
L 414.390268 275.741159 
L 412.543382 275.744024 
L 410.696496 275.755425 
L 408.84961 275.77562 
L 407.002724 275.802729 
L 405.155839 275.832334 
L 403.308953 275.85918 
L 401.462067 275.87961 
L 399.615181 275.892761 
L 397.768295 275.899965 
L 395.921409 275.90334 
L 394.074524 275.904698 
L 392.227638 275.905168 
L 390.380752 275.905308 
L 388.533866 275.905344 
L 386.68698 275.90535 
L 384.840094 275.905344 
L 382.993209 275.905306 
L 381.146323 275.905161 
L 379.299437 275.904678 
L 377.452551 275.903291 
L 375.605665 275.899869 
L 373.75878 275.892647 
L 371.911894 275.879703 
L 370.065008 275.860235 
L 368.218122 275.836187 
L 366.371236 275.812901 
L 364.52435 275.797435 
L 362.677465 275.794765 
L 360.830579 275.804129 
L 358.983693 275.818056 
L 357.136807 275.824719 
L 355.289921 275.811986 
L 353.443035 275.77119 
L 351.59615 275.699489 
L 349.749264 275.600161 
L 347.902378 275.480143 
L 346.055492 275.34541 
L 344.208606 275.197258 
L 342.36172 275.033462 
L 340.514835 274.854834 
L 338.667949 274.672012 
L 336.821063 274.504978 
L 334.974177 274.372619 
L 333.127291 274.278966 
L 331.280405 274.207991 
L 329.43352 274.133639 
L 327.586634 274.039095 
L 325.739748 273.930417 
L 323.892862 273.833151 
L 322.045976 273.773619 
L 320.199091 273.757708 
L 318.352205 273.760794 
L 316.505319 273.734419 
L 314.658433 273.625527 
L 312.811547 273.398064 
L 310.964661 273.045874 
L 309.117776 272.590261 
L 307.27089 272.064522 
L 305.424004 271.496557 
L 303.577118 270.901917 
L 301.730232 270.290652 
L 299.883346 269.678909 
L 298.036461 269.091811 
L 296.189575 268.551883 
L 294.342689 268.059409 
L 292.495803 267.577518 
L 290.648917 267.033175 
L 288.802031 266.338493 
L 286.955146 265.426191 
L 285.10826 264.28166 
L 283.261374 262.951663 
L 281.414488 261.521949 
L 279.567602 260.074801 
L 277.720716 258.649759 
L 275.873831 257.23117 
L 274.026945 255.773745 
L 272.180059 254.251018 
L 270.333173 252.684966 
L 268.486287 251.11984 
L 266.639402 249.551722 
L 264.792516 247.877087 
L 262.94563 245.920267 
L 261.098744 243.535052 
L 259.251858 240.709105 
L 257.404972 237.59019 
L 255.558087 234.404764 
L 253.711201 231.314542 
L 251.864315 228.306295 
L 250.017429 225.195128 
L 248.170543 221.739384 
L 246.323657 217.777874 
z
" style="fill:#ffa500;fill-opacity:0.5;"/>
   </g>
   <g id="line2d_23">
    <path clip-path="url(#pe6a1646576)" d="M 246.323657 217.777874 
L 248.170543 221.739384 
L 250.017429 225.195128 
L 251.864315 228.306295 
L 253.711201 231.314542 
L 255.558087 234.404764 
L 257.404972 237.59019 
L 259.251858 240.709105 
L 261.098744 243.535052 
L 262.94563 245.920267 
L 264.792516 247.877087 
L 266.639402 249.551722 
L 268.486287 251.11984 
L 270.333173 252.684966 
L 272.180059 254.251018 
L 274.026945 255.773745 
L 275.873831 257.23117 
L 277.720716 258.649759 
L 279.567602 260.074801 
L 281.414488 261.521949 
L 283.261374 262.951663 
L 285.10826 264.28166 
L 286.955146 265.426191 
L 288.802031 266.338493 
L 290.648917 267.033175 
L 292.495803 267.577518 
L 294.342689 268.059409 
L 296.189575 268.551883 
L 298.036461 269.091811 
L 299.883346 269.678909 
L 301.730232 270.290652 
L 303.577118 270.901917 
L 305.424004 271.496557 
L 307.27089 272.064522 
L 309.117776 272.590261 
L 310.964661 273.045874 
L 312.811547 273.398064 
L 314.658433 273.625527 
L 316.505319 273.734419 
L 318.352205 273.760794 
L 320.199091 273.757708 
L 322.045976 273.773619 
L 323.892862 273.833151 
L 325.739748 273.930417 
L 327.586634 274.039095 
L 329.43352 274.133639 
L 331.280405 274.207991 
L 333.127291 274.278966 
L 334.974177 274.372619 
L 336.821063 274.504978 
L 338.667949 274.672012 
L 340.514835 274.854834 
L 342.36172 275.033462 
L 344.208606 275.197258 
L 346.055492 275.34541 
L 347.902378 275.480143 
L 349.749264 275.600161 
L 351.59615 275.699489 
L 353.443035 275.77119 
L 355.289921 275.811986 
L 357.136807 275.824719 
L 358.983693 275.818056 
L 360.830579 275.804129 
L 362.677465 275.794765 
L 364.52435 275.797435 
L 366.371236 275.812901 
L 368.218122 275.836187 
L 370.065008 275.860235 
L 371.911894 275.879703 
L 373.75878 275.892647 
L 375.605665 275.899869 
L 377.452551 275.903291 
L 379.299437 275.904678 
L 381.146323 275.905161 
L 382.993209 275.905306 
L 384.840094 275.905344 
L 386.68698 275.90535 
L 388.533866 275.905344 
L 390.380752 275.905308 
L 392.227638 275.905168 
L 394.074524 275.904698 
L 395.921409 275.90334 
L 397.768295 275.899965 
L 399.615181 275.892761 
L 401.462067 275.87961 
L 403.308953 275.85918 
L 405.155839 275.832334 
L 407.002724 275.802729 
L 408.84961 275.77562 
L 410.696496 275.755425 
L 412.543382 275.744024 
L 414.390268 275.741159 
L 416.237154 275.745871 
L 418.084039 275.756762 
L 419.930925 275.770823 
L 421.777811 275.783104 
L 423.624697 275.789061 
L 425.471583 275.788163 
L 427.318469 275.785185 
L 429.165354 275.787363 
" style="fill:none;stroke:#ffa500;stroke-linecap:round;"/>
   </g>
   <g id="line2d_24">
    <path clip-path="url(#pe6a1646576)" d="M 176.422735 275.905354 
L 176.422735 3.063968 
" style="fill:none;stroke:#0000ff;stroke-linecap:round;"/>
   </g>
   <g id="line2d_25">
    <path clip-path="url(#pe6a1646576)" d="M 174.725135 275.905354 
L 174.725135 2.834646 
" style="fill:none;stroke:#000000;stroke-linecap:round;"/>
   </g>
   <g id="legend_1">
    <g id="patch_5">
     <path d="M 303.492854 67.947146 
L 423.565354 67.947146 
Q 425.165354 67.947146 425.165354 66.347146 
L 425.165354 8.434646 
Q 425.165354 6.834646 423.565354 6.834646 
L 303.492854 6.834646 
Q 301.892854 6.834646 301.892854 8.434646 
L 301.892854 66.347146 
Q 301.892854 67.947146 303.492854 67.947146 
z
" style="fill:#ffffff;stroke:#000000;stroke-linejoin:miter;"/>
    </g>
    <g id="patch_6">
     <path d="M 305.092854 16.113396 
L 321.092854 16.113396 
L 321.092854 10.513396 
L 305.092854 10.513396 
z
" style="fill:#ffa500;fill-opacity:0.5;stroke:#ffa500;stroke-linejoin:miter;"/>
    </g>
    <g id="text_11">
     <!-- q05 -->
     <defs>
      <path d="M 14.796875 27.296875 
Q 14.796875 17.390625 18.875 11.75 
Q 22.953125 6.109375 30.078125 6.109375 
Q 37.203125 6.109375 41.296875 11.75 
Q 45.40625 17.390625 45.40625 27.296875 
Q 45.40625 37.203125 41.296875 42.84375 
Q 37.203125 48.484375 30.078125 48.484375 
Q 22.953125 48.484375 18.875 42.84375 
Q 14.796875 37.203125 14.796875 27.296875 
z
M 45.40625 8.203125 
Q 42.578125 3.328125 38.25 0.953125 
Q 33.9375 -1.421875 27.875 -1.421875 
Q 17.96875 -1.421875 11.734375 6.484375 
Q 5.515625 14.40625 5.515625 27.296875 
Q 5.515625 40.1875 11.734375 48.09375 
Q 17.96875 56 27.875 56 
Q 33.9375 56 38.25 53.625 
Q 42.578125 51.265625 45.40625 46.390625 
L 45.40625 54.6875 
L 54.390625 54.6875 
L 54.390625 -20.796875 
L 45.40625 -20.796875 
z
" id="DejaVuSans-71"/>
      <path d="M 10.796875 72.90625 
L 49.515625 72.90625 
L 49.515625 64.59375 
L 19.828125 64.59375 
L 19.828125 46.734375 
Q 21.96875 47.46875 24.109375 47.828125 
Q 26.265625 48.1875 28.421875 48.1875 
Q 40.625 48.1875 47.75 41.5 
Q 54.890625 34.8125 54.890625 23.390625 
Q 54.890625 11.625 47.5625 5.09375 
Q 40.234375 -1.421875 26.90625 -1.421875 
Q 22.3125 -1.421875 17.546875 -0.640625 
Q 12.796875 0.140625 7.71875 1.703125 
L 7.71875 11.625 
Q 12.109375 9.234375 16.796875 8.0625 
Q 21.484375 6.890625 26.703125 6.890625 
Q 35.15625 6.890625 40.078125 11.328125 
Q 45.015625 15.765625 45.015625 23.390625 
Q 45.015625 31 40.078125 35.4375 
Q 35.15625 39.890625 26.703125 39.890625 
Q 22.75 39.890625 18.8125 39.015625 
Q 14.890625 38.140625 10.796875 36.28125 
z
" id="DejaVuSans-35"/>
     </defs>
     <g transform="translate(327.492854 16.113396)scale(0.08 -0.08)">
      <use xlink:href="#DejaVuSans-71"/>
      <use x="63.476562" xlink:href="#DejaVuSans-30"/>
      <use x="127.099609" xlink:href="#DejaVuSans-35"/>
     </g>
    </g>
    <g id="patch_7">
     <path d="M 305.092854 27.855896 
L 321.092854 27.855896 
L 321.092854 22.255896 
L 305.092854 22.255896 
z
" style="fill:#008000;fill-opacity:0.5;stroke:#008000;stroke-linejoin:miter;"/>
    </g>
    <g id="text_12">
     <!-- 90% acceptance region -->
     <defs>
      <path d="M 72.703125 32.078125 
Q 68.453125 32.078125 66.03125 28.46875 
Q 63.625 24.859375 63.625 18.40625 
Q 63.625 12.0625 66.03125 8.421875 
Q 68.453125 4.78125 72.703125 4.78125 
Q 76.859375 4.78125 79.265625 8.421875 
Q 81.6875 12.0625 81.6875 18.40625 
Q 81.6875 24.8125 79.265625 28.4375 
Q 76.859375 32.078125 72.703125 32.078125 
z
M 72.703125 38.28125 
Q 80.421875 38.28125 84.953125 32.90625 
Q 89.5 27.546875 89.5 18.40625 
Q 89.5 9.28125 84.9375 3.921875 
Q 80.375 -1.421875 72.703125 -1.421875 
Q 64.890625 -1.421875 60.34375 3.921875 
Q 55.8125 9.28125 55.8125 18.40625 
Q 55.8125 27.59375 60.375 32.9375 
Q 64.9375 38.28125 72.703125 38.28125 
z
M 22.3125 68.015625 
Q 18.109375 68.015625 15.6875 64.375 
Q 13.28125 60.75 13.28125 54.390625 
Q 13.28125 47.953125 15.671875 44.328125 
Q 18.0625 40.71875 22.3125 40.71875 
Q 26.5625 40.71875 28.96875 44.328125 
Q 31.390625 47.953125 31.390625 54.390625 
Q 31.390625 60.6875 28.953125 64.34375 
Q 26.515625 68.015625 22.3125 68.015625 
z
M 66.40625 74.21875 
L 74.21875 74.21875 
L 28.609375 -1.421875 
L 20.796875 -1.421875 
z
M 22.3125 74.21875 
Q 30.03125 74.21875 34.609375 68.875 
Q 39.203125 63.53125 39.203125 54.390625 
Q 39.203125 45.171875 34.640625 39.84375 
Q 30.078125 34.515625 22.3125 34.515625 
Q 14.546875 34.515625 10.03125 39.859375 
Q 5.515625 45.21875 5.515625 54.390625 
Q 5.515625 63.484375 10.046875 68.84375 
Q 14.59375 74.21875 22.3125 74.21875 
z
" id="DejaVuSans-25"/>
      <path id="DejaVuSans-20"/>
      <path d="M 34.28125 27.484375 
Q 23.390625 27.484375 19.1875 25 
Q 14.984375 22.515625 14.984375 16.5 
Q 14.984375 11.71875 18.140625 8.90625 
Q 21.296875 6.109375 26.703125 6.109375 
Q 34.1875 6.109375 38.703125 11.40625 
Q 43.21875 16.703125 43.21875 25.484375 
L 43.21875 27.484375 
z
M 52.203125 31.203125 
L 52.203125 0 
L 43.21875 0 
L 43.21875 8.296875 
Q 40.140625 3.328125 35.546875 0.953125 
Q 30.953125 -1.421875 24.3125 -1.421875 
Q 15.921875 -1.421875 10.953125 3.296875 
Q 6 8.015625 6 15.921875 
Q 6 25.140625 12.171875 29.828125 
Q 18.359375 34.515625 30.609375 34.515625 
L 43.21875 34.515625 
L 43.21875 35.40625 
Q 43.21875 41.609375 39.140625 45 
Q 35.0625 48.390625 27.6875 48.390625 
Q 23 48.390625 18.546875 47.265625 
Q 14.109375 46.140625 10.015625 43.890625 
L 10.015625 52.203125 
Q 14.9375 54.109375 19.578125 55.046875 
Q 24.21875 56 28.609375 56 
Q 40.484375 56 46.34375 49.84375 
Q 52.203125 43.703125 52.203125 31.203125 
z
" id="DejaVuSans-61"/>
      <path d="M 48.78125 52.59375 
L 48.78125 44.1875 
Q 44.96875 46.296875 41.140625 47.34375 
Q 37.3125 48.390625 33.40625 48.390625 
Q 24.65625 48.390625 19.8125 42.84375 
Q 14.984375 37.3125 14.984375 27.296875 
Q 14.984375 17.28125 19.8125 11.734375 
Q 24.65625 6.203125 33.40625 6.203125 
Q 37.3125 6.203125 41.140625 7.25 
Q 44.96875 8.296875 48.78125 10.40625 
L 48.78125 2.09375 
Q 45.015625 0.34375 40.984375 -0.53125 
Q 36.96875 -1.421875 32.421875 -1.421875 
Q 20.0625 -1.421875 12.78125 6.34375 
Q 5.515625 14.109375 5.515625 27.296875 
Q 5.515625 40.671875 12.859375 48.328125 
Q 20.21875 56 33.015625 56 
Q 37.15625 56 41.109375 55.140625 
Q 45.0625 54.296875 48.78125 52.59375 
z
" id="DejaVuSans-63"/>
      <path d="M 56.203125 29.59375 
L 56.203125 25.203125 
L 14.890625 25.203125 
Q 15.484375 15.921875 20.484375 11.0625 
Q 25.484375 6.203125 34.421875 6.203125 
Q 39.59375 6.203125 44.453125 7.46875 
Q 49.3125 8.734375 54.109375 11.28125 
L 54.109375 2.78125 
Q 49.265625 0.734375 44.1875 -0.34375 
Q 39.109375 -1.421875 33.890625 -1.421875 
Q 20.796875 -1.421875 13.15625 6.1875 
Q 5.515625 13.8125 5.515625 26.8125 
Q 5.515625 40.234375 12.765625 48.109375 
Q 20.015625 56 32.328125 56 
Q 43.359375 56 49.78125 48.890625 
Q 56.203125 41.796875 56.203125 29.59375 
z
M 47.21875 32.234375 
Q 47.125 39.59375 43.09375 43.984375 
Q 39.0625 48.390625 32.421875 48.390625 
Q 24.90625 48.390625 20.390625 44.140625 
Q 15.875 39.890625 15.1875 32.171875 
z
" id="DejaVuSans-65"/>
      <path d="M 18.109375 8.203125 
L 18.109375 -20.796875 
L 9.078125 -20.796875 
L 9.078125 54.6875 
L 18.109375 54.6875 
L 18.109375 46.390625 
Q 20.953125 51.265625 25.265625 53.625 
Q 29.59375 56 35.59375 56 
Q 45.5625 56 51.78125 48.09375 
Q 58.015625 40.1875 58.015625 27.296875 
Q 58.015625 14.40625 51.78125 6.484375 
Q 45.5625 -1.421875 35.59375 -1.421875 
Q 29.59375 -1.421875 25.265625 0.953125 
Q 20.953125 3.328125 18.109375 8.203125 
z
M 48.6875 27.296875 
Q 48.6875 37.203125 44.609375 42.84375 
Q 40.53125 48.484375 33.40625 48.484375 
Q 26.265625 48.484375 22.1875 42.84375 
Q 18.109375 37.203125 18.109375 27.296875 
Q 18.109375 17.390625 22.1875 11.75 
Q 26.265625 6.109375 33.40625 6.109375 
Q 40.53125 6.109375 44.609375 11.75 
Q 48.6875 17.390625 48.6875 27.296875 
z
" id="DejaVuSans-70"/>
      <path d="M 18.3125 70.21875 
L 18.3125 54.6875 
L 36.8125 54.6875 
L 36.8125 47.703125 
L 18.3125 47.703125 
L 18.3125 18.015625 
Q 18.3125 11.328125 20.140625 9.421875 
Q 21.96875 7.515625 27.59375 7.515625 
L 36.8125 7.515625 
L 36.8125 0 
L 27.59375 0 
Q 17.1875 0 13.234375 3.875 
Q 9.28125 7.765625 9.28125 18.015625 
L 9.28125 47.703125 
L 2.6875 47.703125 
L 2.6875 54.6875 
L 9.28125 54.6875 
L 9.28125 70.21875 
z
" id="DejaVuSans-74"/>
      <path d="M 54.890625 33.015625 
L 54.890625 0 
L 45.90625 0 
L 45.90625 32.71875 
Q 45.90625 40.484375 42.875 44.328125 
Q 39.84375 48.1875 33.796875 48.1875 
Q 26.515625 48.1875 22.3125 43.546875 
Q 18.109375 38.921875 18.109375 30.90625 
L 18.109375 0 
L 9.078125 0 
L 9.078125 54.6875 
L 18.109375 54.6875 
L 18.109375 46.1875 
Q 21.34375 51.125 25.703125 53.5625 
Q 30.078125 56 35.796875 56 
Q 45.21875 56 50.046875 50.171875 
Q 54.890625 44.34375 54.890625 33.015625 
z
" id="DejaVuSans-6e"/>
      <path d="M 41.109375 46.296875 
Q 39.59375 47.171875 37.8125 47.578125 
Q 36.03125 48 33.890625 48 
Q 26.265625 48 22.1875 43.046875 
Q 18.109375 38.09375 18.109375 28.8125 
L 18.109375 0 
L 9.078125 0 
L 9.078125 54.6875 
L 18.109375 54.6875 
L 18.109375 46.1875 
Q 20.953125 51.171875 25.484375 53.578125 
Q 30.03125 56 36.53125 56 
Q 37.453125 56 38.578125 55.875 
Q 39.703125 55.765625 41.0625 55.515625 
z
" id="DejaVuSans-72"/>
      <path d="M 45.40625 27.984375 
Q 45.40625 37.75 41.375 43.109375 
Q 37.359375 48.484375 30.078125 48.484375 
Q 22.859375 48.484375 18.828125 43.109375 
Q 14.796875 37.75 14.796875 27.984375 
Q 14.796875 18.265625 18.828125 12.890625 
Q 22.859375 7.515625 30.078125 7.515625 
Q 37.359375 7.515625 41.375 12.890625 
Q 45.40625 18.265625 45.40625 27.984375 
z
M 54.390625 6.78125 
Q 54.390625 -7.171875 48.1875 -13.984375 
Q 42 -20.796875 29.203125 -20.796875 
Q 24.46875 -20.796875 20.265625 -20.09375 
Q 16.0625 -19.390625 12.109375 -17.921875 
L 12.109375 -9.1875 
Q 16.0625 -11.328125 19.921875 -12.34375 
Q 23.78125 -13.375 27.78125 -13.375 
Q 36.625 -13.375 41.015625 -8.765625 
Q 45.40625 -4.15625 45.40625 5.171875 
L 45.40625 9.625 
Q 42.625 4.78125 38.28125 2.390625 
Q 33.9375 0 27.875 0 
Q 17.828125 0 11.671875 7.65625 
Q 5.515625 15.328125 5.515625 27.984375 
Q 5.515625 40.671875 11.671875 48.328125 
Q 17.828125 56 27.875 56 
Q 33.9375 56 38.28125 53.609375 
Q 42.625 51.21875 45.40625 46.390625 
L 45.40625 54.6875 
L 54.390625 54.6875 
z
" id="DejaVuSans-67"/>
      <path d="M 9.421875 54.6875 
L 18.40625 54.6875 
L 18.40625 0 
L 9.421875 0 
z
M 9.421875 75.984375 
L 18.40625 75.984375 
L 18.40625 64.59375 
L 9.421875 64.59375 
z
" id="DejaVuSans-69"/>
      <path d="M 30.609375 48.390625 
Q 23.390625 48.390625 19.1875 42.75 
Q 14.984375 37.109375 14.984375 27.296875 
Q 14.984375 17.484375 19.15625 11.84375 
Q 23.34375 6.203125 30.609375 6.203125 
Q 37.796875 6.203125 41.984375 11.859375 
Q 46.1875 17.53125 46.1875 27.296875 
Q 46.1875 37.015625 41.984375 42.703125 
Q 37.796875 48.390625 30.609375 48.390625 
z
M 30.609375 56 
Q 42.328125 56 49.015625 48.375 
Q 55.71875 40.765625 55.71875 27.296875 
Q 55.71875 13.875 49.015625 6.21875 
Q 42.328125 -1.421875 30.609375 -1.421875 
Q 18.84375 -1.421875 12.171875 6.21875 
Q 5.515625 13.875 5.515625 27.296875 
Q 5.515625 40.765625 12.171875 48.375 
Q 18.84375 56 30.609375 56 
z
" id="DejaVuSans-6f"/>
     </defs>
     <g transform="translate(327.492854 27.855896)scale(0.08 -0.08)">
      <use xlink:href="#DejaVuSans-39"/>
      <use x="63.623047" xlink:href="#DejaVuSans-30"/>
      <use x="127.246094" xlink:href="#DejaVuSans-25"/>
      <use x="222.265625" xlink:href="#DejaVuSans-20"/>
      <use x="254.052734" xlink:href="#DejaVuSans-61"/>
      <use x="315.332031" xlink:href="#DejaVuSans-63"/>
      <use x="370.3125" xlink:href="#DejaVuSans-63"/>
      <use x="425.292969" xlink:href="#DejaVuSans-65"/>
      <use x="486.816406" xlink:href="#DejaVuSans-70"/>
      <use x="550.292969" xlink:href="#DejaVuSans-74"/>
      <use x="589.501953" xlink:href="#DejaVuSans-61"/>
      <use x="650.78125" xlink:href="#DejaVuSans-6e"/>
      <use x="714.160156" xlink:href="#DejaVuSans-63"/>
      <use x="769.140625" xlink:href="#DejaVuSans-65"/>
      <use x="830.664062" xlink:href="#DejaVuSans-20"/>
      <use x="862.451172" xlink:href="#DejaVuSans-72"/>
      <use x="903.533203" xlink:href="#DejaVuSans-65"/>
      <use x="965.056641" xlink:href="#DejaVuSans-67"/>
      <use x="1028.533203" xlink:href="#DejaVuSans-69"/>
      <use x="1056.316406" xlink:href="#DejaVuSans-6f"/>
      <use x="1117.498047" xlink:href="#DejaVuSans-6e"/>
     </g>
    </g>
    <g id="patch_8">
     <path d="M 305.092854 39.598396 
L 321.092854 39.598396 
L 321.092854 33.998396 
L 305.092854 33.998396 
z
" style="fill:#ffa500;fill-opacity:0.5;stroke:#ffa500;stroke-linejoin:miter;"/>
    </g>
    <g id="text_13">
     <!-- q95 -->
     <g transform="translate(327.492854 39.598396)scale(0.08 -0.08)">
      <use xlink:href="#DejaVuSans-71"/>
      <use x="63.476562" xlink:href="#DejaVuSans-39"/>
      <use x="127.099609" xlink:href="#DejaVuSans-35"/>
     </g>
    </g>
    <g id="line2d_26">
     <path d="M 305.092854 48.540896 
L 321.092854 48.540896 
" style="fill:none;stroke:#0000ff;stroke-linecap:square;"/>
    </g>
    <g id="line2d_27"/>
    <g id="text_14">
     <!-- mean -->
     <defs>
      <path d="M 52 44.1875 
Q 55.375 50.25 60.0625 53.125 
Q 64.75 56 71.09375 56 
Q 79.640625 56 84.28125 50.015625 
Q 88.921875 44.046875 88.921875 33.015625 
L 88.921875 0 
L 79.890625 0 
L 79.890625 32.71875 
Q 79.890625 40.578125 77.09375 44.375 
Q 74.3125 48.1875 68.609375 48.1875 
Q 61.625 48.1875 57.5625 43.546875 
Q 53.515625 38.921875 53.515625 30.90625 
L 53.515625 0 
L 44.484375 0 
L 44.484375 32.71875 
Q 44.484375 40.625 41.703125 44.40625 
Q 38.921875 48.1875 33.109375 48.1875 
Q 26.21875 48.1875 22.15625 43.53125 
Q 18.109375 38.875 18.109375 30.90625 
L 18.109375 0 
L 9.078125 0 
L 9.078125 54.6875 
L 18.109375 54.6875 
L 18.109375 46.1875 
Q 21.1875 51.21875 25.484375 53.609375 
Q 29.78125 56 35.6875 56 
Q 41.65625 56 45.828125 52.96875 
Q 50 49.953125 52 44.1875 
z
" id="DejaVuSans-6d"/>
     </defs>
     <g transform="translate(327.492854 51.340896)scale(0.08 -0.08)">
      <use xlink:href="#DejaVuSans-6d"/>
      <use x="97.412109" xlink:href="#DejaVuSans-65"/>
      <use x="158.935547" xlink:href="#DejaVuSans-61"/>
      <use x="220.214844" xlink:href="#DejaVuSans-6e"/>
     </g>
    </g>
    <g id="line2d_28">
     <path d="M 305.092854 60.283396 
L 321.092854 60.283396 
" style="fill:none;stroke:#000000;stroke-linecap:square;"/>
    </g>
    <g id="line2d_29"/>
    <g id="text_15">
     <!-- median -->
     <defs>
      <path d="M 45.40625 46.390625 
L 45.40625 75.984375 
L 54.390625 75.984375 
L 54.390625 0 
L 45.40625 0 
L 45.40625 8.203125 
Q 42.578125 3.328125 38.25 0.953125 
Q 33.9375 -1.421875 27.875 -1.421875 
Q 17.96875 -1.421875 11.734375 6.484375 
Q 5.515625 14.40625 5.515625 27.296875 
Q 5.515625 40.1875 11.734375 48.09375 
Q 17.96875 56 27.875 56 
Q 33.9375 56 38.25 53.625 
Q 42.578125 51.265625 45.40625 46.390625 
z
M 14.796875 27.296875 
Q 14.796875 17.390625 18.875 11.75 
Q 22.953125 6.109375 30.078125 6.109375 
Q 37.203125 6.109375 41.296875 11.75 
Q 45.40625 17.390625 45.40625 27.296875 
Q 45.40625 37.203125 41.296875 42.84375 
Q 37.203125 48.484375 30.078125 48.484375 
Q 22.953125 48.484375 18.875 42.84375 
Q 14.796875 37.203125 14.796875 27.296875 
z
" id="DejaVuSans-64"/>
     </defs>
     <g transform="translate(327.492854 63.083396)scale(0.08 -0.08)">
      <use xlink:href="#DejaVuSans-6d"/>
      <use x="97.412109" xlink:href="#DejaVuSans-65"/>
      <use x="158.935547" xlink:href="#DejaVuSans-64"/>
      <use x="222.412109" xlink:href="#DejaVuSans-69"/>
      <use x="250.195312" xlink:href="#DejaVuSans-61"/>
      <use x="311.474609" xlink:href="#DejaVuSans-6e"/>
     </g>
    </g>
   </g>
  </g>
 </g>
 <defs>
  <clipPath id="pe6a1646576">
   <rect height="273.070709" width="419.140709" x="10.024646" y="2.834646"/>
  </clipPath>
 </defs>
</svg>
