<?xml version="1.0" encoding="utf-8" standalone="no"?>
<!DOCTYPE svg PUBLIC "-//W3C//DTD SVG 1.1//EN"
  "http://www.w3.org/Graphics/SVG/1.1/DTD/svg11.dtd">
<!-- Created with matplotlib (http://matplotlib.org/) -->
<svg height="288pt" version="1.1" viewBox="0 0 432 288" width="432pt" xmlns="http://www.w3.org/2000/svg" xmlns:xlink="http://www.w3.org/1999/xlink">
 <defs>
  <style type="text/css">
*{stroke-linecap:butt;stroke-linejoin:round;}
  </style>
 </defs>
 <g id="figure_1">
  <g id="patch_1">
   <path d="M 0 288 
L 432 288 
L 432 0 
L 0 0 
z
" style="fill:#ffffff;"/>
  </g>
  <g id="axes_1">
   <g id="patch_2">
    <path d="M 17.584646 275.905354 
L 429.165354 275.905354 
L 429.165354 2.834646 
L 17.584646 2.834646 
z
" style="fill:#ffffff;"/>
   </g>
   <g id="matplotlib.axis_1">
    <g id="xtick_1">
     <g id="line2d_1">
      <path clip-path="url(#pa2eed0dc5e)" d="M 92.652825 275.905354 
L 92.652825 2.834646 
" style="fill:none;opacity:0.1;stroke:#000000;stroke-linecap:square;stroke-width:0.5;"/>
     </g>
     <g id="line2d_2">
      <defs>
       <path d="M 0 0 
L 0 -3.5 
" id="m93e75fb8fa" style="stroke:#000000;stroke-width:0.8;"/>
      </defs>
      <g>
       <use style="stroke:#000000;stroke-width:0.8;" x="92.652825" xlink:href="#m93e75fb8fa" y="275.905354"/>
      </g>
     </g>
     <g id="text_1">
      <!-- 30 -->
      <defs>
       <path d="M 40.578125 39.3125 
Q 47.65625 37.796875 51.625 33 
Q 55.609375 28.21875 55.609375 21.1875 
Q 55.609375 10.40625 48.1875 4.484375 
Q 40.765625 -1.421875 27.09375 -1.421875 
Q 22.515625 -1.421875 17.65625 -0.515625 
Q 12.796875 0.390625 7.625 2.203125 
L 7.625 11.71875 
Q 11.71875 9.328125 16.59375 8.109375 
Q 21.484375 6.890625 26.8125 6.890625 
Q 36.078125 6.890625 40.9375 10.546875 
Q 45.796875 14.203125 45.796875 21.1875 
Q 45.796875 27.640625 41.28125 31.265625 
Q 36.765625 34.90625 28.71875 34.90625 
L 20.21875 34.90625 
L 20.21875 43.015625 
L 29.109375 43.015625 
Q 36.375 43.015625 40.234375 45.921875 
Q 44.09375 48.828125 44.09375 54.296875 
Q 44.09375 59.90625 40.109375 62.90625 
Q 36.140625 65.921875 28.71875 65.921875 
Q 24.65625 65.921875 20.015625 65.03125 
Q 15.375 64.15625 9.8125 62.3125 
L 9.8125 71.09375 
Q 15.4375 72.65625 20.34375 73.4375 
Q 25.25 74.21875 29.59375 74.21875 
Q 40.828125 74.21875 47.359375 69.109375 
Q 53.90625 64.015625 53.90625 55.328125 
Q 53.90625 49.265625 50.4375 45.09375 
Q 46.96875 40.921875 40.578125 39.3125 
z
" id="DejaVuSans-33"/>
       <path d="M 31.78125 66.40625 
Q 24.171875 66.40625 20.328125 58.90625 
Q 16.5 51.421875 16.5 36.375 
Q 16.5 21.390625 20.328125 13.890625 
Q 24.171875 6.390625 31.78125 6.390625 
Q 39.453125 6.390625 43.28125 13.890625 
Q 47.125 21.390625 47.125 36.375 
Q 47.125 51.421875 43.28125 58.90625 
Q 39.453125 66.40625 31.78125 66.40625 
z
M 31.78125 74.21875 
Q 44.046875 74.21875 50.515625 64.515625 
Q 56.984375 54.828125 56.984375 36.375 
Q 56.984375 17.96875 50.515625 8.265625 
Q 44.046875 -1.421875 31.78125 -1.421875 
Q 19.53125 -1.421875 13.0625 8.265625 
Q 6.59375 17.96875 6.59375 36.375 
Q 6.59375 54.828125 13.0625 64.515625 
Q 19.53125 74.21875 31.78125 74.21875 
z
" id="DejaVuSans-30"/>
      </defs>
      <g transform="translate(87.562825 285.484104)scale(0.08 -0.08)">
       <use xlink:href="#DejaVuSans-33"/>
       <use x="63.623047" xlink:href="#DejaVuSans-30"/>
      </g>
     </g>
    </g>
    <g id="xtick_2">
     <g id="line2d_3">
      <path clip-path="url(#pa2eed0dc5e)" d="M 170.309563 275.905354 
L 170.309563 2.834646 
" style="fill:none;opacity:0.1;stroke:#000000;stroke-linecap:square;stroke-width:0.5;"/>
     </g>
     <g id="line2d_4">
      <g>
       <use style="stroke:#000000;stroke-width:0.8;" x="170.309563" xlink:href="#m93e75fb8fa" y="275.905354"/>
      </g>
     </g>
     <g id="text_2">
      <!-- 60 -->
      <defs>
       <path d="M 33.015625 40.375 
Q 26.375 40.375 22.484375 35.828125 
Q 18.609375 31.296875 18.609375 23.390625 
Q 18.609375 15.53125 22.484375 10.953125 
Q 26.375 6.390625 33.015625 6.390625 
Q 39.65625 6.390625 43.53125 10.953125 
Q 47.40625 15.53125 47.40625 23.390625 
Q 47.40625 31.296875 43.53125 35.828125 
Q 39.65625 40.375 33.015625 40.375 
z
M 52.59375 71.296875 
L 52.59375 62.3125 
Q 48.875 64.0625 45.09375 64.984375 
Q 41.3125 65.921875 37.59375 65.921875 
Q 27.828125 65.921875 22.671875 59.328125 
Q 17.53125 52.734375 16.796875 39.40625 
Q 19.671875 43.65625 24.015625 45.921875 
Q 28.375 48.1875 33.59375 48.1875 
Q 44.578125 48.1875 50.953125 41.515625 
Q 57.328125 34.859375 57.328125 23.390625 
Q 57.328125 12.15625 50.6875 5.359375 
Q 44.046875 -1.421875 33.015625 -1.421875 
Q 20.359375 -1.421875 13.671875 8.265625 
Q 6.984375 17.96875 6.984375 36.375 
Q 6.984375 53.65625 15.1875 63.9375 
Q 23.390625 74.21875 37.203125 74.21875 
Q 40.921875 74.21875 44.703125 73.484375 
Q 48.484375 72.75 52.59375 71.296875 
z
" id="DejaVuSans-36"/>
      </defs>
      <g transform="translate(165.219563 285.484104)scale(0.08 -0.08)">
       <use xlink:href="#DejaVuSans-36"/>
       <use x="63.623047" xlink:href="#DejaVuSans-30"/>
      </g>
     </g>
    </g>
    <g id="xtick_3">
     <g id="line2d_5">
      <path clip-path="url(#pa2eed0dc5e)" d="M 247.9663 275.905354 
L 247.9663 2.834646 
" style="fill:none;opacity:0.1;stroke:#000000;stroke-linecap:square;stroke-width:0.5;"/>
     </g>
     <g id="line2d_6">
      <g>
       <use style="stroke:#000000;stroke-width:0.8;" x="247.9663" xlink:href="#m93e75fb8fa" y="275.905354"/>
      </g>
     </g>
     <g id="text_3">
      <!-- 90 -->
      <defs>
       <path d="M 10.984375 1.515625 
L 10.984375 10.5 
Q 14.703125 8.734375 18.5 7.8125 
Q 22.3125 6.890625 25.984375 6.890625 
Q 35.75 6.890625 40.890625 13.453125 
Q 46.046875 20.015625 46.78125 33.40625 
Q 43.953125 29.203125 39.59375 26.953125 
Q 35.25 24.703125 29.984375 24.703125 
Q 19.046875 24.703125 12.671875 31.3125 
Q 6.296875 37.9375 6.296875 49.421875 
Q 6.296875 60.640625 12.9375 67.421875 
Q 19.578125 74.21875 30.609375 74.21875 
Q 43.265625 74.21875 49.921875 64.515625 
Q 56.59375 54.828125 56.59375 36.375 
Q 56.59375 19.140625 48.40625 8.859375 
Q 40.234375 -1.421875 26.421875 -1.421875 
Q 22.703125 -1.421875 18.890625 -0.6875 
Q 15.09375 0.046875 10.984375 1.515625 
z
M 30.609375 32.421875 
Q 37.25 32.421875 41.125 36.953125 
Q 45.015625 41.5 45.015625 49.421875 
Q 45.015625 57.28125 41.125 61.84375 
Q 37.25 66.40625 30.609375 66.40625 
Q 23.96875 66.40625 20.09375 61.84375 
Q 16.21875 57.28125 16.21875 49.421875 
Q 16.21875 41.5 20.09375 36.953125 
Q 23.96875 32.421875 30.609375 32.421875 
z
" id="DejaVuSans-39"/>
      </defs>
      <g transform="translate(242.8763 285.484104)scale(0.08 -0.08)">
       <use xlink:href="#DejaVuSans-39"/>
       <use x="63.623047" xlink:href="#DejaVuSans-30"/>
      </g>
     </g>
    </g>
    <g id="xtick_4">
     <g id="line2d_7">
      <path clip-path="url(#pa2eed0dc5e)" d="M 325.623038 275.905354 
L 325.623038 2.834646 
" style="fill:none;opacity:0.1;stroke:#000000;stroke-linecap:square;stroke-width:0.5;"/>
     </g>
     <g id="line2d_8">
      <g>
       <use style="stroke:#000000;stroke-width:0.8;" x="325.623038" xlink:href="#m93e75fb8fa" y="275.905354"/>
      </g>
     </g>
     <g id="text_4">
      <!-- 120 -->
      <defs>
       <path d="M 12.40625 8.296875 
L 28.515625 8.296875 
L 28.515625 63.921875 
L 10.984375 60.40625 
L 10.984375 69.390625 
L 28.421875 72.90625 
L 38.28125 72.90625 
L 38.28125 8.296875 
L 54.390625 8.296875 
L 54.390625 0 
L 12.40625 0 
z
" id="DejaVuSans-31"/>
       <path d="M 19.1875 8.296875 
L 53.609375 8.296875 
L 53.609375 0 
L 7.328125 0 
L 7.328125 8.296875 
Q 12.9375 14.109375 22.625 23.890625 
Q 32.328125 33.6875 34.8125 36.53125 
Q 39.546875 41.84375 41.421875 45.53125 
Q 43.3125 49.21875 43.3125 52.78125 
Q 43.3125 58.59375 39.234375 62.25 
Q 35.15625 65.921875 28.609375 65.921875 
Q 23.96875 65.921875 18.8125 64.3125 
Q 13.671875 62.703125 7.8125 59.421875 
L 7.8125 69.390625 
Q 13.765625 71.78125 18.9375 73 
Q 24.125 74.21875 28.421875 74.21875 
Q 39.75 74.21875 46.484375 68.546875 
Q 53.21875 62.890625 53.21875 53.421875 
Q 53.21875 48.921875 51.53125 44.890625 
Q 49.859375 40.875 45.40625 35.40625 
Q 44.1875 33.984375 37.640625 27.21875 
Q 31.109375 20.453125 19.1875 8.296875 
z
" id="DejaVuSans-32"/>
      </defs>
      <g transform="translate(317.988038 285.484104)scale(0.08 -0.08)">
       <use xlink:href="#DejaVuSans-31"/>
       <use x="63.623047" xlink:href="#DejaVuSans-32"/>
       <use x="127.246094" xlink:href="#DejaVuSans-30"/>
      </g>
     </g>
    </g>
    <g id="xtick_5">
     <g id="line2d_9">
      <path clip-path="url(#pa2eed0dc5e)" d="M 403.279775 275.905354 
L 403.279775 2.834646 
" style="fill:none;opacity:0.1;stroke:#000000;stroke-linecap:square;stroke-width:0.5;"/>
     </g>
     <g id="line2d_10">
      <g>
       <use style="stroke:#000000;stroke-width:0.8;" x="403.279775" xlink:href="#m93e75fb8fa" y="275.905354"/>
      </g>
     </g>
     <g id="text_5">
      <!-- 150 -->
      <defs>
       <path d="M 10.796875 72.90625 
L 49.515625 72.90625 
L 49.515625 64.59375 
L 19.828125 64.59375 
L 19.828125 46.734375 
Q 21.96875 47.46875 24.109375 47.828125 
Q 26.265625 48.1875 28.421875 48.1875 
Q 40.625 48.1875 47.75 41.5 
Q 54.890625 34.8125 54.890625 23.390625 
Q 54.890625 11.625 47.5625 5.09375 
Q 40.234375 -1.421875 26.90625 -1.421875 
Q 22.3125 -1.421875 17.546875 -0.640625 
Q 12.796875 0.140625 7.71875 1.703125 
L 7.71875 11.625 
Q 12.109375 9.234375 16.796875 8.0625 
Q 21.484375 6.890625 26.703125 6.890625 
Q 35.15625 6.890625 40.078125 11.328125 
Q 45.015625 15.765625 45.015625 23.390625 
Q 45.015625 31 40.078125 35.4375 
Q 35.15625 39.890625 26.703125 39.890625 
Q 22.75 39.890625 18.8125 39.015625 
Q 14.890625 38.140625 10.796875 36.28125 
z
" id="DejaVuSans-35"/>
      </defs>
      <g transform="translate(395.644775 285.484104)scale(0.08 -0.08)">
       <use xlink:href="#DejaVuSans-31"/>
       <use x="63.623047" xlink:href="#DejaVuSans-35"/>
       <use x="127.246094" xlink:href="#DejaVuSans-30"/>
      </g>
     </g>
    </g>
   </g>
   <g id="matplotlib.axis_2">
    <g id="ytick_1">
     <g id="line2d_11">
      <path clip-path="url(#pa2eed0dc5e)" d="M 17.584646 216.804992 
L 429.165354 216.804992 
" style="fill:none;opacity:0.1;stroke:#000000;stroke-linecap:square;stroke-width:0.5;"/>
     </g>
     <g id="line2d_12">
      <defs>
       <path d="M 0 0 
L 3.5 0 
" id="mcbe784adab" style="stroke:#000000;stroke-width:0.8;"/>
      </defs>
      <g>
       <use style="stroke:#000000;stroke-width:0.8;" x="17.584646" xlink:href="#mcbe784adab" y="216.804992"/>
      </g>
     </g>
     <g id="text_6">
      <!-- 0.5 -->
      <defs>
       <path d="M 10.6875 12.40625 
L 21 12.40625 
L 21 0 
L 10.6875 0 
z
" id="DejaVuSans-2e"/>
      </defs>
      <g transform="translate(1.362146 219.844367)scale(0.08 -0.08)">
       <use xlink:href="#DejaVuSans-30"/>
       <use x="63.623047" xlink:href="#DejaVuSans-2e"/>
       <use x="95.410156" xlink:href="#DejaVuSans-35"/>
      </g>
     </g>
    </g>
    <g id="ytick_2">
     <g id="line2d_13">
      <path clip-path="url(#pa2eed0dc5e)" d="M 17.584646 154.333941 
L 429.165354 154.333941 
" style="fill:none;opacity:0.1;stroke:#000000;stroke-linecap:square;stroke-width:0.5;"/>
     </g>
     <g id="line2d_14">
      <g>
       <use style="stroke:#000000;stroke-width:0.8;" x="17.584646" xlink:href="#mcbe784adab" y="154.333941"/>
      </g>
     </g>
     <g id="text_7">
      <!-- 1.0 -->
      <g transform="translate(1.362146 157.373316)scale(0.08 -0.08)">
       <use xlink:href="#DejaVuSans-31"/>
       <use x="63.623047" xlink:href="#DejaVuSans-2e"/>
       <use x="95.410156" xlink:href="#DejaVuSans-30"/>
      </g>
     </g>
    </g>
    <g id="ytick_3">
     <g id="line2d_15">
      <path clip-path="url(#pa2eed0dc5e)" d="M 17.584646 91.86289 
L 429.165354 91.86289 
" style="fill:none;opacity:0.1;stroke:#000000;stroke-linecap:square;stroke-width:0.5;"/>
     </g>
     <g id="line2d_16">
      <g>
       <use style="stroke:#000000;stroke-width:0.8;" x="17.584646" xlink:href="#mcbe784adab" y="91.86289"/>
      </g>
     </g>
     <g id="text_8">
      <!-- 1.5 -->
      <g transform="translate(1.362146 94.902265)scale(0.08 -0.08)">
       <use xlink:href="#DejaVuSans-31"/>
       <use x="63.623047" xlink:href="#DejaVuSans-2e"/>
       <use x="95.410156" xlink:href="#DejaVuSans-35"/>
      </g>
     </g>
    </g>
    <g id="ytick_4">
     <g id="line2d_17">
      <path clip-path="url(#pa2eed0dc5e)" d="M 17.584646 29.391839 
L 429.165354 29.391839 
" style="fill:none;opacity:0.1;stroke:#000000;stroke-linecap:square;stroke-width:0.5;"/>
     </g>
     <g id="line2d_18">
      <g>
       <use style="stroke:#000000;stroke-width:0.8;" x="17.584646" xlink:href="#mcbe784adab" y="29.391839"/>
      </g>
     </g>
     <g id="text_9">
      <!-- 2.0 -->
      <g transform="translate(1.362146 32.431214)scale(0.08 -0.08)">
       <use xlink:href="#DejaVuSans-32"/>
       <use x="63.623047" xlink:href="#DejaVuSans-2e"/>
       <use x="95.410156" xlink:href="#DejaVuSans-30"/>
      </g>
     </g>
    </g>
   </g>
   <g id="line2d_19">
    <path clip-path="url(#pa2eed0dc5e)" d="M 17.584646 147.687646 
L 20.173204 155.690812 
L 22.761762 161.370055 
L 25.350319 157.266457 
L 27.938877 154.884186 
L 30.527435 148.059223 
L 33.115993 148.648076 
L 35.704551 149.389107 
L 38.293109 157.66927 
L 40.881667 158.32734 
L 43.470225 155.248767 
L 46.058783 145.69282 
L 48.647341 158.903698 
L 51.235899 161.228371 
L 53.824456 160.405002 
L 56.413014 161.142161 
L 59.001572 168.463768 
L 61.59013 159.753929 
L 64.178688 158.179659 
L 66.767246 161.47838 
L 69.355804 159.792411 
L 71.944362 156.293658 
L 74.53292 158.148173 
L 77.121478 160.902022 
L 79.710036 152.786658 
L 82.298594 157.007202 
L 84.887151 145.059364 
L 87.475709 150.383646 
L 90.064267 151.351448 
L 92.652825 152.813895 
L 95.241383 161.534979 
L 97.829941 157.934147 
L 100.418499 150.638403 
L 103.007057 147.21424 
L 105.595615 149.49106 
L 108.184173 155.378332 
L 110.772731 152.685704 
L 113.361289 153.906639 
L 115.949846 159.209556 
L 118.538404 152.382595 
L 121.126962 166.163459 
L 123.71552 173.265668 
L 126.304078 164.301822 
L 128.892636 167.680256 
L 131.481194 174.150383 
L 134.069752 173.459703 
L 136.65831 165.609091 
L 139.246868 162.949698 
L 144.423984 173.37999 
L 147.012541 166.126101 
L 149.601099 160.198348 
L 152.189657 162.614728 
L 154.778215 163.327523 
L 157.366773 156.276291 
L 159.955331 151.744516 
L 162.543889 146.779067 
L 165.132447 133.372029 
L 167.721005 142.99432 
L 170.309563 136.913763 
L 172.898121 142.853136 
L 175.486679 151.151041 
L 178.075236 144.631687 
L 180.663794 136.265189 
L 183.252352 142.801785 
L 185.84091 144.270979 
L 188.429468 149.391731 
L 191.018026 142.761303 
L 193.606584 146.812426 
L 196.195142 143.503959 
L 198.7837 146.258058 
L 201.372258 136.781075 
L 203.960816 138.49578 
L 206.549374 144.959785 
L 209.137931 141.3116 
L 211.726489 140.786843 
L 214.315047 136.689492 
L 216.903605 140.073424 
L 219.492163 140.922031 
L 222.080721 139.26305 
L 224.669279 150.781087 
L 227.257837 151.488634 
L 229.846395 157.383652 
L 232.434953 161.385798 
L 235.023511 158.929686 
L 237.612069 160.357025 
L 240.200626 165.093455 
L 242.789184 161.274974 
L 245.377742 169.665086 
L 247.9663 177.237827 
L 250.554858 181.853813 
L 253.143416 177.975485 
L 255.731974 172.517764 
L 258.320532 160.012934 
L 260.90909 160.10714 
L 263.497648 157.884295 
L 266.086206 152.691952 
L 268.674764 164.473742 
L 271.263321 158.639945 
L 273.851879 160.372143 
L 276.440437 161.257107 
L 281.617553 165.336967 
L 284.206111 165.178665 
L 286.794669 158.053467 
L 289.383227 155.096837 
L 291.971785 164.416019 
L 294.560343 161.686159 
L 297.148901 159.211805 
L 299.737459 153.64501 
L 302.326016 157.471112 
L 304.914574 159.970704 
L 307.503132 165.492895 
L 310.09169 162.483414 
L 312.680248 159.942467 
L 315.268806 162.798393 
L 317.857364 166.93835 
L 320.445922 163.368004 
L 323.03448 167.040677 
L 325.623038 170.479459 
L 328.211596 174.416759 
L 330.800154 172.504645 
L 333.388711 174.381276 
L 335.977269 173.386737 
L 338.565827 173.807542 
L 341.154385 166.920483 
L 343.742943 168.229626 
L 346.331501 165.781386 
L 348.920059 170.576914 
L 351.508617 167.67076 
L 354.097175 176.694579 
L 356.685733 172.40844 
L 359.274291 173.429467 
L 361.862849 171.126409 
L 364.451406 168.379432 
L 367.039964 166.070252 
L 369.628522 168.789242 
L 372.21708 171.673281 
L 374.805638 171.018584 
L 377.394196 166.249544 
L 379.982754 157.424134 
L 382.571312 141.201276 
L 385.15987 136.439983 
L 387.748428 134.477267 
L 390.336986 131.035737 
L 392.925544 137.125165 
L 395.514101 149.075877 
L 398.102659 152.937088 
L 400.691217 150.772966 
L 403.279775 149.940102 
L 405.868333 147.568826 
L 411.045449 157.354291 
L 413.634007 150.258704 
L 416.222565 150.160874 
L 418.811123 151.538611 
L 421.399681 147.23648 
L 423.988238 156.026656 
L 426.576796 150.945136 
L 429.165354 157.100034 
L 429.165354 157.100034 
" style="fill:none;stroke:#009afa;stroke-linecap:round;"/>
   </g>
   <g id="line2d_20">
    <path clip-path="url(#pa2eed0dc5e)" d="M 17.584646 182.321721 
L 22.761762 183.631739 
L 25.350319 183.61837 
L 27.938877 183.37061 
L 30.527435 182.800249 
L 35.704551 182.667186 
L 38.293109 183.373609 
L 40.881667 183.677718 
L 43.470225 183.416214 
L 46.058783 182.399935 
L 48.647341 183.408592 
L 51.235899 183.831272 
L 53.824456 183.83502 
L 56.413014 184.19098 
L 59.001572 185.016722 
L 61.59013 184.596417 
L 64.178688 184.495214 
L 66.767246 184.799823 
L 69.355804 184.843802 
L 71.944362 184.500711 
L 74.53292 184.539443 
L 77.121478 184.803321 
L 79.710036 184.381017 
L 82.298594 184.82781 
L 84.887151 183.601128 
L 87.475709 183.891369 
L 90.064267 183.672845 
L 92.652825 183.798912 
L 95.241383 184.591919 
L 103.007057 183.407468 
L 105.595615 183.458569 
L 108.184173 183.85626 
L 110.772731 183.554775 
L 113.361289 183.611373 
L 115.949846 184.155996 
L 118.538404 183.637861 
L 123.71552 185.874825 
L 126.304078 185.432405 
L 128.892636 186.086851 
L 131.481194 186.928711 
L 134.069752 187.397619 
L 136.65831 186.941455 
L 139.246868 186.662085 
L 144.423984 187.963732 
L 149.601099 187.220451 
L 152.189657 187.531057 
L 154.778215 187.707101 
L 157.366773 186.824759 
L 159.955331 186.161317 
L 162.543889 185.244242 
L 165.132447 183.743187 
L 167.721005 184.078782 
L 170.309563 183.088866 
L 172.898121 183.41309 
L 175.486679 183.992822 
L 180.663794 182.314724 
L 183.252352 182.557112 
L 185.84091 182.325095 
L 188.429468 182.534373 
L 191.018026 181.823202 
L 193.606584 182.083831 
L 196.195142 181.56857 
L 198.7837 181.523966 
L 201.372258 180.504563 
L 203.960816 180.48907 
L 206.549374 180.736706 
L 209.137931 180.30653 
L 211.726489 180.082509 
L 214.315047 179.428187 
L 216.903605 179.555378 
L 219.492163 179.413319 
L 222.080721 178.9684 
L 224.669279 180.052273 
L 227.257837 180.149228 
L 229.846395 180.914998 
L 232.434953 181.54683 
L 235.023511 181.704757 
L 237.612069 182.027108 
L 240.200626 182.793128 
L 242.789184 182.655317 
L 250.554858 185.826972 
L 253.143416 186.148573 
L 255.731974 186.041497 
L 258.320532 185.234746 
L 260.90909 185.304589 
L 263.497648 185.23837 
L 266.086206 184.599915 
L 268.674764 185.663797 
L 271.263321 185.229749 
L 276.440437 185.647805 
L 281.617553 186.203048 
L 284.206111 186.267892 
L 289.383227 185.624566 
L 291.971785 186.498536 
L 297.148901 186.080354 
L 299.737459 185.567717 
L 302.326016 185.7655 
L 307.503132 186.831007 
L 310.09169 186.823385 
L 312.680248 186.504408 
L 315.268806 186.69457 
L 317.857364 187.216953 
L 320.445922 187.056652 
L 328.211596 188.597188 
L 330.800154 188.567202 
L 333.388711 189.191788 
L 335.977269 189.320978 
L 338.565827 189.75915 
L 341.154385 189.332472 
L 343.742943 189.5966 
L 346.331501 189.462287 
L 348.920059 190.06076 
L 351.508617 189.815498 
L 354.097175 190.806664 
L 356.685733 190.659357 
L 359.274291 191.089158 
L 364.451406 190.55728 
L 367.039964 190.304522 
L 372.21708 191.15063 
L 374.805638 191.244961 
L 377.394196 190.877631 
L 379.982754 189.85623 
L 382.571312 187.830044 
L 385.15987 186.597989 
L 387.748428 185.957786 
L 390.336986 184.862794 
L 392.925544 184.703118 
L 395.514101 185.303214 
L 398.102659 185.351692 
L 400.691217 184.870165 
L 403.279775 184.871664 
L 405.868333 184.485219 
L 411.045449 185.078569 
L 413.634007 184.605163 
L 416.222565 184.33029 
L 418.811123 184.281063 
L 421.399681 183.793664 
L 423.988238 184.350156 
L 426.576796 183.769925 
L 429.165354 184.393511 
L 429.165354 184.393511 
" style="fill:none;stroke:#e36f47;stroke-linecap:round;"/>
   </g>
   <g id="patch_3">
    <path d="M 17.584646 275.905354 
L 17.584646 2.834646 
" style="fill:none;stroke:#000000;stroke-linecap:square;stroke-linejoin:miter;stroke-width:0.8;"/>
   </g>
   <g id="patch_4">
    <path d="M 17.584646 275.905354 
L 429.165354 275.905354 
" style="fill:none;stroke:#000000;stroke-linecap:square;stroke-linejoin:miter;stroke-width:0.8;"/>
   </g>
   <g id="line2d_21">
    <path clip-path="url(#pa2eed0dc5e)" d="M 17.584646 236.548842 
L 20.173204 238.91737 
L 22.761762 240.154921 
L 25.350319 237.959314 
L 27.938877 237.666699 
L 30.527435 235.492207 
L 33.115993 235.506575 
L 35.704551 236.15415 
L 38.293109 238.53942 
L 40.881667 238.028032 
L 43.470225 237.390077 
L 46.058783 235.384632 
L 48.647341 239.526212 
L 51.235899 239.806333 
L 53.824456 239.831821 
L 56.413014 239.34892 
L 59.001572 241.63586 
L 61.59013 238.271044 
L 64.178688 237.949443 
L 66.767246 239.222978 
L 69.355804 238.292159 
L 71.944362 237.611475 
L 74.53292 238.806546 
L 77.121478 239.814704 
L 79.710036 236.247482 
L 82.298594 236.973645 
L 84.887151 234.006395 
L 87.475709 235.525941 
L 90.064267 236.783483 
L 92.652825 236.918546 
L 95.241383 239.464741 
L 97.829941 239.054306 
L 100.418499 236.066066 
L 103.007057 234.843632 
L 105.595615 235.543058 
L 108.184173 237.504774 
L 110.772731 236.996135 
L 113.361289 237.449675 
L 115.949846 238.768439 
L 118.538404 236.566834 
L 121.126962 241.145212 
L 123.71552 242.712236 
L 126.304078 239.478859 
L 128.892636 239.792839 
L 131.481194 241.930598 
L 134.069752 240.799372 
L 136.65831 238.077384 
L 139.246868 237.892719 
L 141.835426 239.174625 
L 144.423984 241.177322 
L 147.012541 238.225065 
L 149.601099 236.01509 
L 152.189657 236.381795 
L 154.778215 236.266598 
L 157.366773 235.145118 
L 159.955331 234.414831 
L 162.543889 234.285766 
L 165.132447 230.548623 
L 167.721005 233.54336 
L 170.309563 232.595424 
L 172.898121 233.471643 
L 175.486679 235.573294 
L 178.075236 234.498667 
L 180.663794 231.449455 
L 183.252352 233.309968 
L 185.84091 234.495794 
L 188.429468 236.379796 
L 191.018026 234.702948 
L 193.606584 235.484585 
L 196.195142 235.093891 
L 198.7837 236.511485 
L 201.372258 234.292138 
L 203.960816 234.322124 
L 206.549374 236.607315 
L 209.137931 235.685492 
L 211.726489 235.675122 
L 214.315047 235.254567 
L 216.903605 235.948745 
L 219.492163 236.506987 
L 222.080721 236.878689 
L 224.669279 239.060678 
L 227.257837 239.385153 
L 229.846395 240.371821 
L 232.434953 241.151584 
L 235.023511 239.796462 
L 237.612069 240.171039 
L 240.200626 241.062501 
L 242.789184 240.135305 
L 245.377742 242.249201 
L 247.9663 244.620352 
L 250.554858 245.888264 
L 253.143416 243.962407 
L 255.731974 242.217465 
L 258.320532 237.871729 
L 260.90909 237.912585 
L 263.497648 236.837833 
L 266.086206 236.021337 
L 268.674764 239.536833 
L 271.263321 237.819129 
L 273.851879 238.370373 
L 276.440437 238.281414 
L 279.028995 238.875889 
L 281.617553 239.669146 
L 284.206111 239.903538 
L 286.794669 236.883687 
L 289.383227 235.847917 
L 291.971785 238.567657 
L 297.148901 237.315862 
L 299.737459 235.544558 
L 302.326016 237.033618 
L 304.914574 236.58545 
L 307.503132 238.255676 
L 310.09169 236.540096 
L 312.680248 236.354682 
L 315.268806 237.729795 
L 317.857364 238.85115 
L 320.445922 237.485658 
L 323.03448 238.405857 
L 325.623038 239.501724 
L 328.211596 240.976415 
L 333.388711 240.505509 
L 335.977269 240.234134 
L 338.565827 239.581687 
L 341.154385 236.933164 
L 343.742943 237.038115 
L 346.331501 236.054571 
L 348.920059 237.303368 
L 351.508617 236.63905 
L 354.097175 239.76885 
L 356.685733 238.001419 
L 359.274291 237.5034 
L 361.862849 237.753409 
L 364.451406 236.991637 
L 367.039964 236.484372 
L 369.628522 236.699897 
L 372.21708 237.321359 
L 374.805638 236.804099 
L 377.394196 234.928718 
L 379.982754 232.476354 
L 382.571312 228.633135 
L 385.15987 228.752455 
L 387.748428 227.634723 
L 390.336986 227.83588 
L 392.925544 230.247262 
L 395.514101 234.091606 
L 398.102659 235.838796 
L 400.691217 235.990976 
L 403.279775 234.692078 
L 405.868333 234.040754 
L 408.456891 235.199343 
L 411.045449 237.185547 
L 413.634007 234.130713 
L 418.811123 235.440356 
L 421.399681 234.154702 
L 423.988238 237.233275 
L 426.576796 236.244358 
L 429.165354 237.466917 
L 429.165354 237.466917 
" style="fill:none;stroke:#3ea44e;stroke-linecap:round;"/>
   </g>
   <g id="line2d_22">
    <path clip-path="url(#pa2eed0dc5e)" d="M 17.584646 274.719904 
L 22.761762 275.201306 
L 30.527435 274.69554 
L 35.704551 274.778876 
L 38.293109 275.077863 
L 40.881667 275.085984 
L 43.470225 274.963416 
L 46.058783 274.625322 
L 48.647341 275.110223 
L 51.235899 275.172569 
L 56.413014 275.123717 
L 59.001572 275.360107 
L 61.59013 275.006146 
L 64.178688 274.934804 
L 66.767246 275.044128 
L 74.53292 274.889575 
L 77.121478 274.981407 
L 79.710036 274.668677 
L 82.298594 274.83535 
L 84.887151 274.399052 
L 87.475709 274.634068 
L 92.652825 274.755012 
L 95.241383 275.074739 
L 97.829941 274.924184 
L 100.418499 274.652685 
L 103.007057 274.547983 
L 105.595615 274.659182 
L 108.184173 274.887451 
L 110.772731 274.789746 
L 113.361289 274.839848 
L 115.949846 275.02951 
L 118.538404 274.77188 
L 121.126962 275.268649 
L 123.71552 275.486174 
L 126.304078 275.107099 
L 134.069752 275.326747 
L 136.65831 274.980658 
L 139.246868 274.856216 
L 144.423984 275.210426 
L 149.601099 274.629945 
L 154.778215 274.748141 
L 157.366773 274.463772 
L 162.543889 274.151417 
L 165.132447 273.695129 
L 167.721005 274.173407 
L 170.309563 274.010482 
L 175.486679 274.663305 
L 180.663794 274.1894 
L 183.252352 274.492384 
L 185.84091 274.585091 
L 188.429468 274.794744 
L 191.018026 274.578844 
L 193.606584 274.752514 
L 196.195142 274.659057 
L 198.7837 274.781375 
L 201.372258 274.47989 
L 203.960816 274.587715 
L 206.549374 274.842597 
L 209.137931 274.738645 
L 211.726489 274.749015 
L 214.315047 274.643689 
L 219.492163 274.845845 
L 222.080721 274.814485 
L 224.669279 275.204929 
L 227.257837 275.217173 
L 232.434953 275.49492 
L 235.023511 275.379598 
L 242.789184 275.354859 
L 247.9663 275.811898 
L 250.554858 275.905354 
L 255.731974 275.431199 
L 258.320532 274.923559 
L 263.497648 274.822231 
L 266.086206 274.628696 
L 268.674764 275.075489 
L 271.263321 274.834601 
L 281.617553 275.031884 
L 284.206111 274.999649 
L 286.794669 274.706035 
L 289.383227 274.596711 
L 291.971785 274.960292 
L 299.737459 274.519372 
L 307.503132 274.98578 
L 312.680248 274.739894 
L 317.857364 274.990903 
L 320.445922 274.827104 
L 328.211596 275.18044 
L 330.800154 275.057247 
L 333.388711 275.091232 
L 338.565827 274.982907 
L 341.154385 274.660806 
L 343.742943 274.702412 
L 346.331501 274.584716 
L 348.920059 274.777002 
L 351.508617 274.631944 
L 354.097175 274.995401 
L 356.685733 274.769256 
L 359.274291 274.784124 
L 367.039964 274.409173 
L 372.21708 274.641065 
L 374.805638 274.591588 
L 377.394196 274.367942 
L 379.982754 273.991116 
L 382.571312 273.343666 
L 385.15987 273.278572 
L 390.336986 273.360659 
L 392.925544 273.751602 
L 395.514101 274.313717 
L 398.102659 274.501255 
L 405.868333 274.384434 
L 411.045449 274.802615 
L 413.634007 274.540737 
L 421.399681 274.500131 
L 423.988238 274.849344 
L 426.576796 274.665304 
L 429.165354 274.902194 
L 429.165354 274.902194 
" style="fill:none;stroke:#c371d2;stroke-linecap:round;"/>
   </g>
   <g id="line2d_23">
    <path clip-path="url(#pa2eed0dc5e)" d="M 17.584646 21.467886 
L 20.173204 22.937705 
L 22.761762 26.980956 
L 25.350319 32.074346 
L 27.938877 29.020011 
L 30.527435 28.400174 
L 33.115993 29.443815 
L 35.704551 27.130387 
L 38.293109 29.381469 
L 40.881667 33.815164 
L 43.470225 31.401533 
L 46.058783 24.50173 
L 48.647341 25.777889 
L 51.235899 28.909188 
L 53.824456 26.999698 
L 56.413014 31.596193 
L 59.001572 32.829496 
L 61.59013 35.273114 
L 64.178688 33.983086 
L 66.767246 33.078006 
L 69.355804 35.22626 
L 71.944362 32.18392 
L 74.53292 28.722774 
L 77.121478 28.163283 
L 79.710036 33.193952 
L 82.298594 37.322039 
L 84.887151 31.087303 
L 87.475709 32.654577 
L 90.064267 27.262326 
L 92.652825 29.348484 
L 95.241383 31.701769 
L 97.829941 26.734071 
L 100.418499 30.065402 
L 105.595615 30.848914 
L 108.184173 30.980853 
L 110.772731 28.636439 
L 113.361289 28.361816 
L 115.949846 31.152398 
L 118.538404 30.561297 
L 121.126962 30.951116 
L 123.71552 36.56439 
L 126.304078 37.433612 
L 128.892636 42.672435 
L 131.481194 43.624619 
L 134.069752 49.051479 
L 136.65831 48.319818 
L 139.246868 43.971708 
L 141.835426 47.087139 
L 144.423984 46.594742 
L 147.012541 48.547212 
L 149.601099 48.869188 
L 152.189657 51.614916 
L 154.778215 53.61349 
L 157.366773 45.971781 
L 159.955331 41.310566 
L 162.543889 32.749908 
L 165.132447 28.622446 
L 167.721005 29.821015 
L 170.309563 23.981596 
L 172.898121 29.952829 
L 175.486679 33.85677 
L 178.075236 27.558564 
L 180.663794 28.962288 
L 183.252352 30.735716 
L 185.84091 26.900618 
L 188.429468 25.809124 
L 191.018026 22.891851 
L 193.606584 26.060508 
L 196.195142 22.030375 
L 198.7837 18.894578 
L 201.372258 14.103049 
L 203.960816 17.120401 
L 209.137931 14.329944 
L 211.726489 13.385257 
L 214.315047 8.133315 
L 216.903605 10.329797 
L 219.492163 8.482029 
L 222.080721 2.834646 
L 224.669279 11.813735 
L 227.257837 11.12243 
L 229.846395 17.00408 
L 232.434953 20.424495 
L 235.023511 24.099916 
L 237.612069 24.710134 
L 240.200626 29.146953 
L 242.789184 26.904866 
L 245.377742 31.463879 
L 247.9663 32.792388 
L 250.554858 34.991619 
L 253.143416 39.128827 
L 255.731974 38.115921 
L 260.90909 38.103302 
L 263.497648 39.826878 
L 266.086206 34.297941 
L 268.674764 37.443233 
L 271.263321 35.684673 
L 273.851879 35.946427 
L 276.440437 38.281595 
L 279.028995 39.002635 
L 281.617553 38.460012 
L 284.206111 36.690582 
L 286.794669 39.903593 
L 289.383227 39.914338 
L 291.971785 43.083494 
L 294.560343 41.173379 
L 297.148901 39.749289 
L 302.326016 37.899647 
L 304.914574 45.335951 
L 307.503132 47.078143 
L 310.09169 50.508304 
L 312.680248 46.540767 
L 315.268806 44.590296 
L 317.857364 46.651216 
L 320.445922 47.103631 
L 323.03448 49.397943 
L 325.623038 50.298526 
L 328.211596 50.081252 
L 330.800154 47.023044 
L 333.388711 52.795119 
L 335.977269 52.2435 
L 338.565827 56.868606 
L 341.154385 57.185834 
L 343.742943 59.230887 
L 346.331501 59.50476 
L 348.920059 62.52461 
L 351.508617 60.203186 
L 354.097175 61.940631 
L 356.685733 62.582209 
L 359.274291 67.223183 
L 361.862849 61.306675 
L 364.451406 59.80512 
L 367.039964 57.892382 
L 369.628522 62.121172 
L 372.21708 64.657372 
L 374.805638 65.992503 
L 377.394196 66.031985 
L 379.982754 61.424245 
L 382.571312 51.120145 
L 385.15987 42.658191 
L 387.748428 44.586423 
L 390.336986 38.050452 
L 392.925544 36.57626 
L 395.514101 38.06482 
L 398.102659 35.801494 
L 400.691217 30.758831 
L 403.279775 36.436325 
L 405.868333 35.544238 
L 408.456891 38.219123 
L 411.045449 36.794034 
L 413.634007 40.046027 
L 416.222565 36.45744 
L 421.399681 34.31081 
L 423.988238 33.874637 
L 426.576796 29.628979 
L 429.165354 34.652776 
L 429.165354 34.652776 
" style="fill:none;stroke:#ac8e18;stroke-linecap:round;"/>
   </g>
   <g id="legend_1">
    <g id="patch_5">
     <path d="M 325.360354 169.92625 
L 423.565354 169.92625 
Q 425.165354 169.92625 425.165354 168.32625 
L 425.165354 110.41375 
Q 425.165354 108.81375 423.565354 108.81375 
L 325.360354 108.81375 
Q 323.760354 108.81375 323.760354 110.41375 
L 323.760354 168.32625 
Q 323.760354 169.92625 325.360354 169.92625 
z
" style="fill:#ffffff;stroke:#000000;stroke-linejoin:miter;"/>
    </g>
    <g id="line2d_24">
     <path d="M 326.960354 115.2925 
L 342.960354 115.2925 
" style="fill:none;stroke:#009afa;stroke-linecap:square;"/>
    </g>
    <g id="line2d_25"/>
    <g id="text_10">
     <!-- ['y', 'c', 'n', 'r', 'w'] -->
     <defs>
      <path d="M 8.59375 75.984375 
L 29.296875 75.984375 
L 29.296875 69 
L 17.578125 69 
L 17.578125 -6.203125 
L 29.296875 -6.203125 
L 29.296875 -13.1875 
L 8.59375 -13.1875 
z
" id="DejaVuSans-5b"/>
      <path d="M 17.921875 72.90625 
L 17.921875 45.796875 
L 9.625 45.796875 
L 9.625 72.90625 
z
" id="DejaVuSans-27"/>
      <path d="M 32.171875 -5.078125 
Q 28.375 -14.84375 24.75 -17.8125 
Q 21.140625 -20.796875 15.09375 -20.796875 
L 7.90625 -20.796875 
L 7.90625 -13.28125 
L 13.1875 -13.28125 
Q 16.890625 -13.28125 18.9375 -11.515625 
Q 21 -9.765625 23.484375 -3.21875 
L 25.09375 0.875 
L 2.984375 54.6875 
L 12.5 54.6875 
L 29.59375 11.921875 
L 46.6875 54.6875 
L 56.203125 54.6875 
z
" id="DejaVuSans-79"/>
      <path d="M 11.71875 12.40625 
L 22.015625 12.40625 
L 22.015625 4 
L 14.015625 -11.625 
L 7.71875 -11.625 
L 11.71875 4 
z
" id="DejaVuSans-2c"/>
      <path id="DejaVuSans-20"/>
      <path d="M 48.78125 52.59375 
L 48.78125 44.1875 
Q 44.96875 46.296875 41.140625 47.34375 
Q 37.3125 48.390625 33.40625 48.390625 
Q 24.65625 48.390625 19.8125 42.84375 
Q 14.984375 37.3125 14.984375 27.296875 
Q 14.984375 17.28125 19.8125 11.734375 
Q 24.65625 6.203125 33.40625 6.203125 
Q 37.3125 6.203125 41.140625 7.25 
Q 44.96875 8.296875 48.78125 10.40625 
L 48.78125 2.09375 
Q 45.015625 0.34375 40.984375 -0.53125 
Q 36.96875 -1.421875 32.421875 -1.421875 
Q 20.0625 -1.421875 12.78125 6.34375 
Q 5.515625 14.109375 5.515625 27.296875 
Q 5.515625 40.671875 12.859375 48.328125 
Q 20.21875 56 33.015625 56 
Q 37.15625 56 41.109375 55.140625 
Q 45.0625 54.296875 48.78125 52.59375 
z
" id="DejaVuSans-63"/>
      <path d="M 54.890625 33.015625 
L 54.890625 0 
L 45.90625 0 
L 45.90625 32.71875 
Q 45.90625 40.484375 42.875 44.328125 
Q 39.84375 48.1875 33.796875 48.1875 
Q 26.515625 48.1875 22.3125 43.546875 
Q 18.109375 38.921875 18.109375 30.90625 
L 18.109375 0 
L 9.078125 0 
L 9.078125 54.6875 
L 18.109375 54.6875 
L 18.109375 46.1875 
Q 21.34375 51.125 25.703125 53.5625 
Q 30.078125 56 35.796875 56 
Q 45.21875 56 50.046875 50.171875 
Q 54.890625 44.34375 54.890625 33.015625 
z
" id="DejaVuSans-6e"/>
      <path d="M 41.109375 46.296875 
Q 39.59375 47.171875 37.8125 47.578125 
Q 36.03125 48 33.890625 48 
Q 26.265625 48 22.1875 43.046875 
Q 18.109375 38.09375 18.109375 28.8125 
L 18.109375 0 
L 9.078125 0 
L 9.078125 54.6875 
L 18.109375 54.6875 
L 18.109375 46.1875 
Q 20.953125 51.171875 25.484375 53.578125 
Q 30.03125 56 36.53125 56 
Q 37.453125 56 38.578125 55.875 
Q 39.703125 55.765625 41.0625 55.515625 
z
" id="DejaVuSans-72"/>
      <path d="M 4.203125 54.6875 
L 13.1875 54.6875 
L 24.421875 12.015625 
L 35.59375 54.6875 
L 46.1875 54.6875 
L 57.421875 12.015625 
L 68.609375 54.6875 
L 77.59375 54.6875 
L 63.28125 0 
L 52.6875 0 
L 40.921875 44.828125 
L 29.109375 0 
L 18.5 0 
z
" id="DejaVuSans-77"/>
      <path d="M 30.421875 75.984375 
L 30.421875 -13.1875 
L 9.71875 -13.1875 
L 9.71875 -6.203125 
L 21.390625 -6.203125 
L 21.390625 69 
L 9.71875 69 
L 9.71875 75.984375 
z
" id="DejaVuSans-5d"/>
     </defs>
     <g transform="translate(349.360354 118.0925)scale(0.08 -0.08)">
      <use xlink:href="#DejaVuSans-5b"/>
      <use x="39.013672" xlink:href="#DejaVuSans-27"/>
      <use x="66.503906" xlink:href="#DejaVuSans-79"/>
      <use x="125.683594" xlink:href="#DejaVuSans-27"/>
      <use x="153.173828" xlink:href="#DejaVuSans-2c"/>
      <use x="184.960938" xlink:href="#DejaVuSans-20"/>
      <use x="216.748047" xlink:href="#DejaVuSans-27"/>
      <use x="244.238281" xlink:href="#DejaVuSans-63"/>
      <use x="299.21875" xlink:href="#DejaVuSans-27"/>
      <use x="326.708984" xlink:href="#DejaVuSans-2c"/>
      <use x="358.496094" xlink:href="#DejaVuSans-20"/>
      <use x="390.283203" xlink:href="#DejaVuSans-27"/>
      <use x="417.773438" xlink:href="#DejaVuSans-6e"/>
      <use x="481.152344" xlink:href="#DejaVuSans-27"/>
      <use x="508.642578" xlink:href="#DejaVuSans-2c"/>
      <use x="540.429688" xlink:href="#DejaVuSans-20"/>
      <use x="572.216797" xlink:href="#DejaVuSans-27"/>
      <use x="599.707031" xlink:href="#DejaVuSans-72"/>
      <use x="640.820312" xlink:href="#DejaVuSans-27"/>
      <use x="668.310547" xlink:href="#DejaVuSans-2c"/>
      <use x="700.097656" xlink:href="#DejaVuSans-20"/>
      <use x="731.884766" xlink:href="#DejaVuSans-27"/>
      <use x="759.375" xlink:href="#DejaVuSans-77"/>
      <use x="841.162109" xlink:href="#DejaVuSans-27"/>
      <use x="868.652344" xlink:href="#DejaVuSans-5d"/>
     </g>
    </g>
    <g id="line2d_26">
     <path d="M 326.960354 127.035 
L 342.960354 127.035 
" style="fill:none;stroke:#e36f47;stroke-linecap:square;"/>
    </g>
    <g id="line2d_27"/>
    <g id="text_11">
     <!-- ['y', 'c', 'n', 'r', 'w'] -->
     <g transform="translate(349.360354 129.835)scale(0.08 -0.08)">
      <use xlink:href="#DejaVuSans-5b"/>
      <use x="39.013672" xlink:href="#DejaVuSans-27"/>
      <use x="66.503906" xlink:href="#DejaVuSans-79"/>
      <use x="125.683594" xlink:href="#DejaVuSans-27"/>
      <use x="153.173828" xlink:href="#DejaVuSans-2c"/>
      <use x="184.960938" xlink:href="#DejaVuSans-20"/>
      <use x="216.748047" xlink:href="#DejaVuSans-27"/>
      <use x="244.238281" xlink:href="#DejaVuSans-63"/>
      <use x="299.21875" xlink:href="#DejaVuSans-27"/>
      <use x="326.708984" xlink:href="#DejaVuSans-2c"/>
      <use x="358.496094" xlink:href="#DejaVuSans-20"/>
      <use x="390.283203" xlink:href="#DejaVuSans-27"/>
      <use x="417.773438" xlink:href="#DejaVuSans-6e"/>
      <use x="481.152344" xlink:href="#DejaVuSans-27"/>
      <use x="508.642578" xlink:href="#DejaVuSans-2c"/>
      <use x="540.429688" xlink:href="#DejaVuSans-20"/>
      <use x="572.216797" xlink:href="#DejaVuSans-27"/>
      <use x="599.707031" xlink:href="#DejaVuSans-72"/>
      <use x="640.820312" xlink:href="#DejaVuSans-27"/>
      <use x="668.310547" xlink:href="#DejaVuSans-2c"/>
      <use x="700.097656" xlink:href="#DejaVuSans-20"/>
      <use x="731.884766" xlink:href="#DejaVuSans-27"/>
      <use x="759.375" xlink:href="#DejaVuSans-77"/>
      <use x="841.162109" xlink:href="#DejaVuSans-27"/>
      <use x="868.652344" xlink:href="#DejaVuSans-5d"/>
     </g>
    </g>
    <g id="line2d_28">
     <path d="M 326.960354 138.7775 
L 342.960354 138.7775 
" style="fill:none;stroke:#3ea44e;stroke-linecap:square;"/>
    </g>
    <g id="line2d_29"/>
    <g id="text_12">
     <!-- ['y', 'c', 'n', 'r', 'w'] -->
     <g transform="translate(349.360354 141.5775)scale(0.08 -0.08)">
      <use xlink:href="#DejaVuSans-5b"/>
      <use x="39.013672" xlink:href="#DejaVuSans-27"/>
      <use x="66.503906" xlink:href="#DejaVuSans-79"/>
      <use x="125.683594" xlink:href="#DejaVuSans-27"/>
      <use x="153.173828" xlink:href="#DejaVuSans-2c"/>
      <use x="184.960938" xlink:href="#DejaVuSans-20"/>
      <use x="216.748047" xlink:href="#DejaVuSans-27"/>
      <use x="244.238281" xlink:href="#DejaVuSans-63"/>
      <use x="299.21875" xlink:href="#DejaVuSans-27"/>
      <use x="326.708984" xlink:href="#DejaVuSans-2c"/>
      <use x="358.496094" xlink:href="#DejaVuSans-20"/>
      <use x="390.283203" xlink:href="#DejaVuSans-27"/>
      <use x="417.773438" xlink:href="#DejaVuSans-6e"/>
      <use x="481.152344" xlink:href="#DejaVuSans-27"/>
      <use x="508.642578" xlink:href="#DejaVuSans-2c"/>
      <use x="540.429688" xlink:href="#DejaVuSans-20"/>
      <use x="572.216797" xlink:href="#DejaVuSans-27"/>
      <use x="599.707031" xlink:href="#DejaVuSans-72"/>
      <use x="640.820312" xlink:href="#DejaVuSans-27"/>
      <use x="668.310547" xlink:href="#DejaVuSans-2c"/>
      <use x="700.097656" xlink:href="#DejaVuSans-20"/>
      <use x="731.884766" xlink:href="#DejaVuSans-27"/>
      <use x="759.375" xlink:href="#DejaVuSans-77"/>
      <use x="841.162109" xlink:href="#DejaVuSans-27"/>
      <use x="868.652344" xlink:href="#DejaVuSans-5d"/>
     </g>
    </g>
    <g id="line2d_30">
     <path d="M 326.960354 150.52 
L 342.960354 150.52 
" style="fill:none;stroke:#c371d2;stroke-linecap:square;"/>
    </g>
    <g id="line2d_31"/>
    <g id="text_13">
     <!-- ['y', 'c', 'n', 'r', 'w'] -->
     <g transform="translate(349.360354 153.32)scale(0.08 -0.08)">
      <use xlink:href="#DejaVuSans-5b"/>
      <use x="39.013672" xlink:href="#DejaVuSans-27"/>
      <use x="66.503906" xlink:href="#DejaVuSans-79"/>
      <use x="125.683594" xlink:href="#DejaVuSans-27"/>
      <use x="153.173828" xlink:href="#DejaVuSans-2c"/>
      <use x="184.960938" xlink:href="#DejaVuSans-20"/>
      <use x="216.748047" xlink:href="#DejaVuSans-27"/>
      <use x="244.238281" xlink:href="#DejaVuSans-63"/>
      <use x="299.21875" xlink:href="#DejaVuSans-27"/>
      <use x="326.708984" xlink:href="#DejaVuSans-2c"/>
      <use x="358.496094" xlink:href="#DejaVuSans-20"/>
      <use x="390.283203" xlink:href="#DejaVuSans-27"/>
      <use x="417.773438" xlink:href="#DejaVuSans-6e"/>
      <use x="481.152344" xlink:href="#DejaVuSans-27"/>
      <use x="508.642578" xlink:href="#DejaVuSans-2c"/>
      <use x="540.429688" xlink:href="#DejaVuSans-20"/>
      <use x="572.216797" xlink:href="#DejaVuSans-27"/>
      <use x="599.707031" xlink:href="#DejaVuSans-72"/>
      <use x="640.820312" xlink:href="#DejaVuSans-27"/>
      <use x="668.310547" xlink:href="#DejaVuSans-2c"/>
      <use x="700.097656" xlink:href="#DejaVuSans-20"/>
      <use x="731.884766" xlink:href="#DejaVuSans-27"/>
      <use x="759.375" xlink:href="#DejaVuSans-77"/>
      <use x="841.162109" xlink:href="#DejaVuSans-27"/>
      <use x="868.652344" xlink:href="#DejaVuSans-5d"/>
     </g>
    </g>
    <g id="line2d_32">
     <path d="M 326.960354 162.2625 
L 342.960354 162.2625 
" style="fill:none;stroke:#ac8e18;stroke-linecap:square;"/>
    </g>
    <g id="line2d_33"/>
    <g id="text_14">
     <!-- ['y', 'c', 'n', 'r', 'w'] -->
     <g transform="translate(349.360354 165.0625)scale(0.08 -0.08)">
      <use xlink:href="#DejaVuSans-5b"/>
      <use x="39.013672" xlink:href="#DejaVuSans-27"/>
      <use x="66.503906" xlink:href="#DejaVuSans-79"/>
      <use x="125.683594" xlink:href="#DejaVuSans-27"/>
      <use x="153.173828" xlink:href="#DejaVuSans-2c"/>
      <use x="184.960938" xlink:href="#DejaVuSans-20"/>
      <use x="216.748047" xlink:href="#DejaVuSans-27"/>
      <use x="244.238281" xlink:href="#DejaVuSans-63"/>
      <use x="299.21875" xlink:href="#DejaVuSans-27"/>
      <use x="326.708984" xlink:href="#DejaVuSans-2c"/>
      <use x="358.496094" xlink:href="#DejaVuSans-20"/>
      <use x="390.283203" xlink:href="#DejaVuSans-27"/>
      <use x="417.773438" xlink:href="#DejaVuSans-6e"/>
      <use x="481.152344" xlink:href="#DejaVuSans-27"/>
      <use x="508.642578" xlink:href="#DejaVuSans-2c"/>
      <use x="540.429688" xlink:href="#DejaVuSans-20"/>
      <use x="572.216797" xlink:href="#DejaVuSans-27"/>
      <use x="599.707031" xlink:href="#DejaVuSans-72"/>
      <use x="640.820312" xlink:href="#DejaVuSans-27"/>
      <use x="668.310547" xlink:href="#DejaVuSans-2c"/>
      <use x="700.097656" xlink:href="#DejaVuSans-20"/>
      <use x="731.884766" xlink:href="#DejaVuSans-27"/>
      <use x="759.375" xlink:href="#DejaVuSans-77"/>
      <use x="841.162109" xlink:href="#DejaVuSans-27"/>
      <use x="868.652344" xlink:href="#DejaVuSans-5d"/>
     </g>
    </g>
   </g>
  </g>
 </g>
 <defs>
  <clipPath id="pa2eed0dc5e">
   <rect height="273.070709" width="411.580709" x="17.584646" y="2.834646"/>
  </clipPath>
 </defs>
</svg>
