<?xml version="1.0" encoding="utf-8"?>
<svg xmlns="http://www.w3.org/2000/svg" xmlns:xlink="http://www.w3.org/1999/xlink" width="600" height="400" viewBox="0 0 600 400">
<defs>
  <clipPath id="clip7000">
    <rect x="0" y="0" width="600" height="400"/>
  </clipPath>
</defs>
<polygon clip-path="url(#clip7000)" points="
0,400 600,400 600,0 0,0 
  " fill="#ffffff" fill-opacity="1"/>
<defs>
  <clipPath id="clip7001">
    <rect x="120" y="0" width="421" height="400"/>
  </clipPath>
</defs>
<polygon clip-path="url(#clip7000)" points="
40.3485,175.869 580.315,175.869 580.315,31.4961 40.3485,31.4961 
  " fill="#ffffff" fill-opacity="1"/>
<defs>
  <clipPath id="clip7002">
    <rect x="40" y="31" width="541" height="145"/>
  </clipPath>
</defs>
<polyline clip-path="url(#clip7002)" style="stroke:#000000; stroke-width:0.5; stroke-opacity:0.1; fill:none" points="
  156.746,175.869 156.746,31.4961 
  "/>
<polyline clip-path="url(#clip7002)" style="stroke:#000000; stroke-width:0.5; stroke-opacity:0.1; fill:none" points="
  294.744,175.869 294.744,31.4961 
  "/>
<polyline clip-path="url(#clip7002)" style="stroke:#000000; stroke-width:0.5; stroke-opacity:0.1; fill:none" points="
  432.742,175.869 432.742,31.4961 
  "/>
<polyline clip-path="url(#clip7002)" style="stroke:#000000; stroke-width:0.5; stroke-opacity:0.1; fill:none" points="
  570.74,175.869 570.74,31.4961 
  "/>
<polyline clip-path="url(#clip7002)" style="stroke:#000000; stroke-width:0.5; stroke-opacity:0.1; fill:none" points="
  40.3485,171.783 580.315,171.783 
  "/>
<polyline clip-path="url(#clip7002)" style="stroke:#000000; stroke-width:0.5; stroke-opacity:0.1; fill:none" points="
  40.3485,125.996 580.315,125.996 
  "/>
<polyline clip-path="url(#clip7002)" style="stroke:#000000; stroke-width:0.5; stroke-opacity:0.1; fill:none" points="
  40.3485,80.2088 580.315,80.2088 
  "/>
<polyline clip-path="url(#clip7002)" style="stroke:#000000; stroke-width:0.5; stroke-opacity:0.1; fill:none" points="
  40.3485,34.4218 580.315,34.4218 
  "/>
<polyline clip-path="url(#clip7000)" style="stroke:#000000; stroke-width:1; stroke-opacity:1; fill:none" points="
  40.3485,175.869 580.315,175.869 
  "/>
<polyline clip-path="url(#clip7000)" style="stroke:#000000; stroke-width:1; stroke-opacity:1; fill:none" points="
  40.3485,175.869 40.3485,31.4961 
  "/>
<polyline clip-path="url(#clip7000)" style="stroke:#000000; stroke-width:1; stroke-opacity:1; fill:none" points="
  156.746,175.869 156.746,173.703 
  "/>
<polyline clip-path="url(#clip7000)" style="stroke:#000000; stroke-width:1; stroke-opacity:1; fill:none" points="
  294.744,175.869 294.744,173.703 
  "/>
<polyline clip-path="url(#clip7000)" style="stroke:#000000; stroke-width:1; stroke-opacity:1; fill:none" points="
  432.742,175.869 432.742,173.703 
  "/>
<polyline clip-path="url(#clip7000)" style="stroke:#000000; stroke-width:1; stroke-opacity:1; fill:none" points="
  570.74,175.869 570.74,173.703 
  "/>
<polyline clip-path="url(#clip7000)" style="stroke:#000000; stroke-width:1; stroke-opacity:1; fill:none" points="
  40.3485,171.783 48.448,171.783 
  "/>
<polyline clip-path="url(#clip7000)" style="stroke:#000000; stroke-width:1; stroke-opacity:1; fill:none" points="
  40.3485,125.996 48.448,125.996 
  "/>
<polyline clip-path="url(#clip7000)" style="stroke:#000000; stroke-width:1; stroke-opacity:1; fill:none" points="
  40.3485,80.2088 48.448,80.2088 
  "/>
<polyline clip-path="url(#clip7000)" style="stroke:#000000; stroke-width:1; stroke-opacity:1; fill:none" points="
  40.3485,34.4218 48.448,34.4218 
  "/>
<g clip-path="url(#clip7000)">
<text style="fill:#000000; fill-opacity:1; font-family:Arial,Helvetica Neue,Helvetica,sans-serif; font-size:12; text-anchor:middle;" transform="rotate(0, 156.746, 189.669)" x="156.746" y="189.669">2.45</text>
</g>
<g clip-path="url(#clip7000)">
<text style="fill:#000000; fill-opacity:1; font-family:Arial,Helvetica Neue,Helvetica,sans-serif; font-size:12; text-anchor:middle;" transform="rotate(0, 294.744, 189.669)" x="294.744" y="189.669">2.50</text>
</g>
<g clip-path="url(#clip7000)">
<text style="fill:#000000; fill-opacity:1; font-family:Arial,Helvetica Neue,Helvetica,sans-serif; font-size:12; text-anchor:middle;" transform="rotate(0, 432.742, 189.669)" x="432.742" y="189.669">2.55</text>
</g>
<g clip-path="url(#clip7000)">
<text style="fill:#000000; fill-opacity:1; font-family:Arial,Helvetica Neue,Helvetica,sans-serif; font-size:12; text-anchor:middle;" transform="rotate(0, 570.74, 189.669)" x="570.74" y="189.669">2.60</text>
</g>
<g clip-path="url(#clip7000)">
<text style="fill:#000000; fill-opacity:1; font-family:Arial,Helvetica Neue,Helvetica,sans-serif; font-size:12; text-anchor:end;" transform="rotate(0, 34.3485, 176.283)" x="34.3485" y="176.283">0</text>
</g>
<g clip-path="url(#clip7000)">
<text style="fill:#000000; fill-opacity:1; font-family:Arial,Helvetica Neue,Helvetica,sans-serif; font-size:12; text-anchor:end;" transform="rotate(0, 34.3485, 130.496)" x="34.3485" y="130.496">5</text>
</g>
<g clip-path="url(#clip7000)">
<text style="fill:#000000; fill-opacity:1; font-family:Arial,Helvetica Neue,Helvetica,sans-serif; font-size:12; text-anchor:end;" transform="rotate(0, 34.3485, 84.7088)" x="34.3485" y="84.7088">10</text>
</g>
<g clip-path="url(#clip7000)">
<text style="fill:#000000; fill-opacity:1; font-family:Arial,Helvetica Neue,Helvetica,sans-serif; font-size:12; text-anchor:end;" transform="rotate(0, 34.3485, 38.9218)" x="34.3485" y="38.9218">15</text>
</g>
<g clip-path="url(#clip7000)">
<text style="fill:#000000; fill-opacity:1; font-family:Arial,Helvetica Neue,Helvetica,sans-serif; font-size:21; text-anchor:middle;" transform="rotate(0, 310.332, 18)" x="310.332" y="18">OLS</text>
</g>
<polygon clip-path="url(#clip7002)" points="
55.6306,169.968 56.8851,169.911 58.1396,169.861 59.3942,169.818 60.6487,169.782 61.9033,169.755 63.1578,169.734 64.4123,169.722 65.6669,169.716 66.9214,169.716 
  68.1759,169.722 69.4305,169.732 70.685,169.747 71.9395,169.764 73.1941,169.784 74.4486,169.804 75.7031,169.825 76.9577,169.844 78.2122,169.862 79.4668,169.877 
  80.7213,169.889 81.9758,169.897 83.2304,169.9 84.4849,169.898 85.7394,169.89 86.994,169.875 88.2485,169.853 89.503,169.824 90.7576,169.786 92.0121,169.74 
  93.2666,169.685 94.5212,169.62 95.7757,169.544 97.0303,169.456 98.2848,169.357 99.5393,169.245 100.794,169.119 102.048,168.978 103.303,168.823 104.557,168.651 
  105.812,168.463 107.067,168.259 108.321,168.037 109.576,167.797 110.83,167.54 112.085,167.266 113.339,166.975 114.594,166.667 115.848,166.344 117.103,166.005 
  118.357,165.652 119.612,165.286 120.866,164.907 122.121,164.518 123.375,164.118 124.63,163.709 125.885,163.293 127.139,162.869 128.394,162.438 129.648,162.001 
  130.903,161.559 132.157,161.11 133.412,160.656 134.666,160.196 135.921,159.73 137.175,159.256 138.43,158.773 139.684,158.282 140.939,157.779 142.194,157.265 
  143.448,156.738 144.703,156.195 145.957,155.636 147.212,155.058 148.466,154.461 149.721,153.843 150.975,153.201 152.23,152.535 153.484,151.844 154.739,151.125 
  155.993,150.379 157.248,149.603 158.502,148.798 159.757,147.962 161.012,147.096 162.266,146.2 163.521,145.272 164.775,144.315 166.03,143.327 167.284,142.311 
  168.539,141.267 169.793,140.196 171.048,139.099 172.302,137.979 173.557,136.836 174.811,135.673 176.066,134.491 177.321,133.292 178.575,132.078 179.83,130.85 
  179.83,171.783 178.575,171.783 177.321,171.783 176.066,171.783 174.811,171.783 173.557,171.783 172.302,171.783 171.048,171.783 169.793,171.783 168.539,171.783 
  167.284,171.783 166.03,171.783 164.775,171.783 163.521,171.783 162.266,171.783 161.012,171.783 159.757,171.783 158.502,171.783 157.248,171.783 155.993,171.783 
  154.739,171.783 153.484,171.783 152.23,171.783 150.975,171.783 149.721,171.783 148.466,171.783 147.212,171.783 145.957,171.783 144.703,171.783 143.448,171.783 
  142.194,171.783 140.939,171.783 139.684,171.783 138.43,171.783 137.175,171.783 135.921,171.783 134.666,171.783 133.412,171.783 132.157,171.783 130.903,171.783 
  129.648,171.783 128.394,171.783 127.139,171.783 125.885,171.783 124.63,171.783 123.375,171.783 122.121,171.783 120.866,171.783 119.612,171.783 118.357,171.783 
  117.103,171.783 115.848,171.783 114.594,171.783 113.339,171.783 112.085,171.783 110.83,171.783 109.576,171.783 108.321,171.783 107.067,171.783 105.812,171.783 
  104.557,171.783 103.303,171.783 102.048,171.783 100.794,171.783 99.5393,171.783 98.2848,171.783 97.0303,171.783 95.7757,171.783 94.5212,171.783 93.2666,171.783 
  92.0121,171.783 90.7576,171.783 89.503,171.783 88.2485,171.783 86.994,171.783 85.7394,171.783 84.4849,171.783 83.2304,171.783 81.9758,171.783 80.7213,171.783 
  79.4668,171.783 78.2122,171.783 76.9577,171.783 75.7031,171.783 74.4486,171.783 73.1941,171.783 71.9395,171.783 70.685,171.783 69.4305,171.783 68.1759,171.783 
  66.9214,171.783 65.6669,171.783 64.4123,171.783 63.1578,171.783 61.9033,171.783 60.6487,171.783 59.3942,171.783 58.1396,171.783 56.8851,171.783 55.6306,171.783 
  
  " fill="#ffa500" fill-opacity="0.5"/>
<polyline clip-path="url(#clip7002)" style="stroke:#ffa500; stroke-width:1; stroke-opacity:1; fill:none" points="
  55.6306,169.968 56.8851,169.911 58.1396,169.861 59.3942,169.818 60.6487,169.782 61.9033,169.755 63.1578,169.734 64.4123,169.722 65.6669,169.716 66.9214,169.716 
  68.1759,169.722 69.4305,169.732 70.685,169.747 71.9395,169.764 73.1941,169.784 74.4486,169.804 75.7031,169.825 76.9577,169.844 78.2122,169.862 79.4668,169.877 
  80.7213,169.889 81.9758,169.897 83.2304,169.9 84.4849,169.898 85.7394,169.89 86.994,169.875 88.2485,169.853 89.503,169.824 90.7576,169.786 92.0121,169.74 
  93.2666,169.685 94.5212,169.62 95.7757,169.544 97.0303,169.456 98.2848,169.357 99.5393,169.245 100.794,169.119 102.048,168.978 103.303,168.823 104.557,168.651 
  105.812,168.463 107.067,168.259 108.321,168.037 109.576,167.797 110.83,167.54 112.085,167.266 113.339,166.975 114.594,166.667 115.848,166.344 117.103,166.005 
  118.357,165.652 119.612,165.286 120.866,164.907 122.121,164.518 123.375,164.118 124.63,163.709 125.885,163.293 127.139,162.869 128.394,162.438 129.648,162.001 
  130.903,161.559 132.157,161.11 133.412,160.656 134.666,160.196 135.921,159.73 137.175,159.256 138.43,158.773 139.684,158.282 140.939,157.779 142.194,157.265 
  143.448,156.738 144.703,156.195 145.957,155.636 147.212,155.058 148.466,154.461 149.721,153.843 150.975,153.201 152.23,152.535 153.484,151.844 154.739,151.125 
  155.993,150.379 157.248,149.603 158.502,148.798 159.757,147.962 161.012,147.096 162.266,146.2 163.521,145.272 164.775,144.315 166.03,143.327 167.284,142.311 
  168.539,141.267 169.793,140.196 171.048,139.099 172.302,137.979 173.557,136.836 174.811,135.673 176.066,134.491 177.321,133.292 178.575,132.078 179.83,130.85 
  
  "/>
<polygon clip-path="url(#clip7002)" points="
179.83,130.85 182.215,128.484 184.601,126.085 186.986,123.66 189.372,121.216 191.757,118.756 194.143,116.284 196.528,113.8 198.914,111.306 201.299,108.804 
  203.685,106.294 206.07,103.777 208.456,101.252 210.841,98.7144 213.227,96.1573 215.612,93.5692 217.998,90.935 220.383,88.2371 222.769,85.457 225.154,82.5775 
  227.54,79.5856 229.925,76.4747 232.311,73.2465 234.696,69.9126 237.082,66.4951 239.467,63.0263 241.853,59.5485 244.239,56.1119 246.624,52.7735 249.01,49.5939 
  251.395,46.6348 253.781,43.9549 256.166,41.6063 258.552,39.6298 260.937,38.0513 263.323,36.8787 265.708,36.1 268.094,35.684 270.479,35.5821 272.865,35.7329 
  275.25,36.0678 277.636,36.5175 280.021,37.0183 282.407,37.5174 284.792,37.9767 287.178,38.375 289.563,38.7067 291.949,38.9805 294.334,39.2156 296.72,39.4374 
  299.105,39.6734 301.491,39.9492 303.876,40.2856 306.262,40.6968 308.647,41.1897 311.033,41.7647 313.418,42.4175 315.804,43.1411 318.189,43.929 320.575,44.7771 
  322.961,45.6863 325.346,46.6633 327.732,47.7208 330.117,48.8767 332.503,50.1527 334.888,51.5721 337.274,53.1576 339.659,54.9297 342.045,56.9053 344.43,59.0968 
  346.816,61.5122 349.201,64.1548 351.587,67.0237 353.972,70.1139 356.358,73.4157 358.743,76.9147 361.129,80.5908 363.514,84.4174 365.9,88.3609 368.285,92.3807 
  370.671,96.4297 373.056,100.456 375.442,104.404 377.827,108.218 380.213,111.845 382.598,115.237 384.984,118.357 387.369,121.177 389.755,123.682 392.14,125.872 
  394.526,127.762 396.911,129.38 399.297,130.763 401.683,131.958 404.068,133.018 406.454,133.995 408.839,134.94 411.225,135.894 413.61,136.894 415.996,137.962 
  415.996,171.783 413.61,171.783 411.225,171.783 408.839,171.783 406.454,171.783 404.068,171.783 401.683,171.783 399.297,171.783 396.911,171.783 394.526,171.783 
  392.14,171.783 389.755,171.783 387.369,171.783 384.984,171.783 382.598,171.783 380.213,171.783 377.827,171.783 375.442,171.783 373.056,171.783 370.671,171.783 
  368.285,171.783 365.9,171.783 363.514,171.783 361.129,171.783 358.743,171.783 356.358,171.783 353.972,171.783 351.587,171.783 349.201,171.783 346.816,171.783 
  344.43,171.783 342.045,171.783 339.659,171.783 337.274,171.783 334.888,171.783 332.503,171.783 330.117,171.783 327.732,171.783 325.346,171.783 322.961,171.783 
  320.575,171.783 318.189,171.783 315.804,171.783 313.418,171.783 311.033,171.783 308.647,171.783 306.262,171.783 303.876,171.783 301.491,171.783 299.105,171.783 
  296.72,171.783 294.334,171.783 291.949,171.783 289.563,171.783 287.178,171.783 284.792,171.783 282.407,171.783 280.021,171.783 277.636,171.783 275.25,171.783 
  272.865,171.783 270.479,171.783 268.094,171.783 265.708,171.783 263.323,171.783 260.937,171.783 258.552,171.783 256.166,171.783 253.781,171.783 251.395,171.783 
  249.01,171.783 246.624,171.783 244.239,171.783 241.853,171.783 239.467,171.783 237.082,171.783 234.696,171.783 232.311,171.783 229.925,171.783 227.54,171.783 
  225.154,171.783 222.769,171.783 220.383,171.783 217.998,171.783 215.612,171.783 213.227,171.783 210.841,171.783 208.456,171.783 206.07,171.783 203.685,171.783 
  201.299,171.783 198.914,171.783 196.528,171.783 194.143,171.783 191.757,171.783 189.372,171.783 186.986,171.783 184.601,171.783 182.215,171.783 179.83,171.783 
  
  " fill="#008000" fill-opacity="0.5"/>
<polyline clip-path="url(#clip7002)" style="stroke:#008000; stroke-width:1; stroke-opacity:1; fill:none" points="
  179.83,130.85 182.215,128.484 184.601,126.085 186.986,123.66 189.372,121.216 191.757,118.756 194.143,116.284 196.528,113.8 198.914,111.306 201.299,108.804 
  203.685,106.294 206.07,103.777 208.456,101.252 210.841,98.7144 213.227,96.1573 215.612,93.5692 217.998,90.935 220.383,88.2371 222.769,85.457 225.154,82.5775 
  227.54,79.5856 229.925,76.4747 232.311,73.2465 234.696,69.9126 237.082,66.4951 239.467,63.0263 241.853,59.5485 244.239,56.1119 246.624,52.7735 249.01,49.5939 
  251.395,46.6348 253.781,43.9549 256.166,41.6063 258.552,39.6298 260.937,38.0513 263.323,36.8787 265.708,36.1 268.094,35.684 270.479,35.5821 272.865,35.7329 
  275.25,36.0678 277.636,36.5175 280.021,37.0183 282.407,37.5174 284.792,37.9767 287.178,38.375 289.563,38.7067 291.949,38.9805 294.334,39.2156 296.72,39.4374 
  299.105,39.6734 301.491,39.9492 303.876,40.2856 306.262,40.6968 308.647,41.1897 311.033,41.7647 313.418,42.4175 315.804,43.1411 318.189,43.929 320.575,44.7771 
  322.961,45.6863 325.346,46.6633 327.732,47.7208 330.117,48.8767 332.503,50.1527 334.888,51.5721 337.274,53.1576 339.659,54.9297 342.045,56.9053 344.43,59.0968 
  346.816,61.5122 349.201,64.1548 351.587,67.0237 353.972,70.1139 356.358,73.4157 358.743,76.9147 361.129,80.5908 363.514,84.4174 365.9,88.3609 368.285,92.3807 
  370.671,96.4297 373.056,100.456 375.442,104.404 377.827,108.218 380.213,111.845 382.598,115.237 384.984,118.357 387.369,121.177 389.755,123.682 392.14,125.872 
  394.526,127.762 396.911,129.38 399.297,130.763 401.683,131.958 404.068,133.018 406.454,133.995 408.839,134.94 411.225,135.894 413.61,136.894 415.996,137.962 
  
  "/>
<polygon clip-path="url(#clip7002)" points="
415.996,137.962 417.501,138.678 419.006,139.427 420.512,140.209 422.017,141.022 423.523,141.861 425.028,142.724 426.534,143.604 428.039,144.497 429.544,145.397 
  431.05,146.298 432.555,147.196 434.061,148.086 435.566,148.963 437.072,149.825 438.577,150.668 440.082,151.49 441.588,152.29 443.093,153.066 444.599,153.817 
  446.104,154.543 447.61,155.244 449.115,155.919 450.62,156.567 452.126,157.19 453.631,157.786 455.137,158.354 456.642,158.895 458.148,159.409 459.653,159.894 
  461.158,160.351 462.664,160.781 464.169,161.183 465.675,161.558 467.18,161.908 468.686,162.234 470.191,162.538 471.696,162.823 473.202,163.09 474.707,163.342 
  476.213,163.582 477.718,163.812 479.224,164.035 480.729,164.253 482.234,164.467 483.74,164.681 485.245,164.895 486.751,165.11 488.256,165.328 489.762,165.548 
  491.267,165.773 492.772,166.001 494.278,166.234 495.783,166.47 497.289,166.711 498.794,166.954 500.3,167.201 501.805,167.45 503.31,167.7 504.816,167.951 
  506.321,168.202 507.827,168.451 509.332,168.697 510.838,168.94 512.343,169.177 513.848,169.407 515.354,169.628 516.859,169.84 518.365,170.042 519.87,170.231 
  521.376,170.407 522.881,170.57 524.386,170.718 525.892,170.852 527.397,170.971 528.903,171.076 530.408,171.166 531.913,171.242 533.419,171.304 534.924,171.354 
  536.43,171.392 537.935,171.418 539.441,171.434 540.946,171.441 542.451,171.44 543.957,171.432 545.462,171.417 546.968,171.397 548.473,171.374 549.979,171.347 
  551.484,171.319 552.989,171.29 554.495,171.262 556,171.235 557.506,171.211 559.011,171.19 560.517,171.173 562.022,171.16 563.527,171.153 565.033,171.15 
  565.033,171.783 563.527,171.783 562.022,171.783 560.517,171.783 559.011,171.783 557.506,171.783 556,171.783 554.495,171.783 552.989,171.783 551.484,171.783 
  549.979,171.783 548.473,171.783 546.968,171.783 545.462,171.783 543.957,171.783 542.451,171.783 540.946,171.783 539.441,171.783 537.935,171.783 536.43,171.783 
  534.924,171.783 533.419,171.783 531.913,171.783 530.408,171.783 528.903,171.783 527.397,171.783 525.892,171.783 524.386,171.783 522.881,171.783 521.376,171.783 
  519.87,171.783 518.365,171.783 516.859,171.783 515.354,171.783 513.848,171.783 512.343,171.783 510.838,171.783 509.332,171.783 507.827,171.783 506.321,171.783 
  504.816,171.783 503.31,171.783 501.805,171.783 500.3,171.783 498.794,171.783 497.289,171.783 495.783,171.783 494.278,171.783 492.772,171.783 491.267,171.783 
  489.762,171.783 488.256,171.783 486.751,171.783 485.245,171.783 483.74,171.783 482.234,171.783 480.729,171.783 479.224,171.783 477.718,171.783 476.213,171.783 
  474.707,171.783 473.202,171.783 471.696,171.783 470.191,171.783 468.686,171.783 467.18,171.783 465.675,171.783 464.169,171.783 462.664,171.783 461.158,171.783 
  459.653,171.783 458.148,171.783 456.642,171.783 455.137,171.783 453.631,171.783 452.126,171.783 450.62,171.783 449.115,171.783 447.61,171.783 446.104,171.783 
  444.599,171.783 443.093,171.783 441.588,171.783 440.082,171.783 438.577,171.783 437.072,171.783 435.566,171.783 434.061,171.783 432.555,171.783 431.05,171.783 
  429.544,171.783 428.039,171.783 426.534,171.783 425.028,171.783 423.523,171.783 422.017,171.783 420.512,171.783 419.006,171.783 417.501,171.783 415.996,171.783 
  
  " fill="#ffa500" fill-opacity="0.5"/>
<polyline clip-path="url(#clip7002)" style="stroke:#ffa500; stroke-width:1; stroke-opacity:1; fill:none" points="
  415.996,137.962 417.501,138.678 419.006,139.427 420.512,140.209 422.017,141.022 423.523,141.861 425.028,142.724 426.534,143.604 428.039,144.497 429.544,145.397 
  431.05,146.298 432.555,147.196 434.061,148.086 435.566,148.963 437.072,149.825 438.577,150.668 440.082,151.49 441.588,152.29 443.093,153.066 444.599,153.817 
  446.104,154.543 447.61,155.244 449.115,155.919 450.62,156.567 452.126,157.19 453.631,157.786 455.137,158.354 456.642,158.895 458.148,159.409 459.653,159.894 
  461.158,160.351 462.664,160.781 464.169,161.183 465.675,161.558 467.18,161.908 468.686,162.234 470.191,162.538 471.696,162.823 473.202,163.09 474.707,163.342 
  476.213,163.582 477.718,163.812 479.224,164.035 480.729,164.253 482.234,164.467 483.74,164.681 485.245,164.895 486.751,165.11 488.256,165.328 489.762,165.548 
  491.267,165.773 492.772,166.001 494.278,166.234 495.783,166.47 497.289,166.711 498.794,166.954 500.3,167.201 501.805,167.45 503.31,167.7 504.816,167.951 
  506.321,168.202 507.827,168.451 509.332,168.697 510.838,168.94 512.343,169.177 513.848,169.407 515.354,169.628 516.859,169.84 518.365,170.042 519.87,170.231 
  521.376,170.407 522.881,170.57 524.386,170.718 525.892,170.852 527.397,170.971 528.903,171.076 530.408,171.166 531.913,171.242 533.419,171.304 534.924,171.354 
  536.43,171.392 537.935,171.418 539.441,171.434 540.946,171.441 542.451,171.44 543.957,171.432 545.462,171.417 546.968,171.397 548.473,171.374 549.979,171.347 
  551.484,171.319 552.989,171.29 554.495,171.262 556,171.235 557.506,171.211 559.011,171.19 560.517,171.173 562.022,171.16 563.527,171.153 565.033,171.15 
  
  "/>
<polyline clip-path="url(#clip7002)" style="stroke:#0000ff; stroke-width:1; stroke-opacity:1; fill:none" points="
  294.087,171.783 294.087,39.1922 
  "/>
<polyline clip-path="url(#clip7002)" style="stroke:#000000; stroke-width:1; stroke-opacity:1; fill:none" points="
  292.856,171.783 292.856,39.0732 
  "/>
<polygon clip-path="url(#clip7000)" points="
376.566,143.096 562.315,143.096 562.315,52.3761 376.566,52.3761 
  " fill="#ffffff" fill-opacity="1"/>
<polyline clip-path="url(#clip7000)" style="stroke:#000000; stroke-width:1; stroke-opacity:1; fill:none" points="
  376.566,143.096 562.315,143.096 562.315,52.3761 376.566,52.3761 376.566,143.096 
  "/>
<polygon clip-path="url(#clip7000)" points="
382.566,73.5441 418.566,73.5441 418.566,61.4481 382.566,61.4481 382.566,73.5441 
  " fill="#ffa500" fill-opacity="0.5"/>
<polyline clip-path="url(#clip7000)" style="stroke:#ffa500; stroke-width:1; stroke-opacity:1; fill:none" points="
  382.566,61.4481 418.566,61.4481 
  "/>
<g clip-path="url(#clip7000)">
<text style="fill:#000000; fill-opacity:1; font-family:Arial,Helvetica Neue,Helvetica,sans-serif; font-size:12; text-anchor:start;" transform="rotate(0, 424.566, 71.9961)" x="424.566" y="71.9961">q05</text>
</g>
<polygon clip-path="url(#clip7000)" points="
382.566,88.6641 418.566,88.6641 418.566,76.5681 382.566,76.5681 382.566,88.6641 
  " fill="#008000" fill-opacity="0.5"/>
<polyline clip-path="url(#clip7000)" style="stroke:#008000; stroke-width:1; stroke-opacity:1; fill:none" points="
  382.566,76.5681 418.566,76.5681 
  "/>
<g clip-path="url(#clip7000)">
<text style="fill:#000000; fill-opacity:1; font-family:Arial,Helvetica Neue,Helvetica,sans-serif; font-size:12; text-anchor:start;" transform="rotate(0, 424.566, 87.1161)" x="424.566" y="87.1161">90% acceptance region</text>
</g>
<polygon clip-path="url(#clip7000)" points="
382.566,103.784 418.566,103.784 418.566,91.6881 382.566,91.6881 382.566,103.784 
  " fill="#ffa500" fill-opacity="0.5"/>
<polyline clip-path="url(#clip7000)" style="stroke:#ffa500; stroke-width:1; stroke-opacity:1; fill:none" points="
  382.566,91.6881 418.566,91.6881 
  "/>
<g clip-path="url(#clip7000)">
<text style="fill:#000000; fill-opacity:1; font-family:Arial,Helvetica Neue,Helvetica,sans-serif; font-size:12; text-anchor:start;" transform="rotate(0, 424.566, 102.236)" x="424.566" y="102.236">q95</text>
</g>
<polyline clip-path="url(#clip7000)" style="stroke:#0000ff; stroke-width:1; stroke-opacity:1; fill:none" points="
  382.566,112.856 418.566,112.856 
  "/>
<g clip-path="url(#clip7000)">
<text style="fill:#000000; fill-opacity:1; font-family:Arial,Helvetica Neue,Helvetica,sans-serif; font-size:12; text-anchor:start;" transform="rotate(0, 424.566, 117.356)" x="424.566" y="117.356">mean</text>
</g>
<polyline clip-path="url(#clip7000)" style="stroke:#000000; stroke-width:1; stroke-opacity:1; fill:none" points="
  382.566,127.976 418.566,127.976 
  "/>
<g clip-path="url(#clip7000)">
<text style="fill:#000000; fill-opacity:1; font-family:Arial,Helvetica Neue,Helvetica,sans-serif; font-size:12; text-anchor:start;" transform="rotate(0, 424.566, 132.476)" x="424.566" y="132.476">median</text>
</g>
<polygon clip-path="url(#clip7000)" points="
40.3485,375.869 580.315,375.869 580.315,231.496 40.3485,231.496 
  " fill="#ffffff" fill-opacity="1"/>
<defs>
  <clipPath id="clip7003">
    <rect x="40" y="231" width="541" height="145"/>
  </clipPath>
</defs>
<polyline clip-path="url(#clip7003)" style="stroke:#000000; stroke-width:0.5; stroke-opacity:0.1; fill:none" points="
  105.986,375.869 105.986,231.496 
  "/>
<polyline clip-path="url(#clip7003)" style="stroke:#000000; stroke-width:0.5; stroke-opacity:0.1; fill:none" points="
  203.179,375.869 203.179,231.496 
  "/>
<polyline clip-path="url(#clip7003)" style="stroke:#000000; stroke-width:0.5; stroke-opacity:0.1; fill:none" points="
  300.373,375.869 300.373,231.496 
  "/>
<polyline clip-path="url(#clip7003)" style="stroke:#000000; stroke-width:0.5; stroke-opacity:0.1; fill:none" points="
  397.566,375.869 397.566,231.496 
  "/>
<polyline clip-path="url(#clip7003)" style="stroke:#000000; stroke-width:0.5; stroke-opacity:0.1; fill:none" points="
  494.759,375.869 494.759,231.496 
  "/>
<polyline clip-path="url(#clip7003)" style="stroke:#000000; stroke-width:0.5; stroke-opacity:0.1; fill:none" points="
  40.3485,371.783 580.315,371.783 
  "/>
<polyline clip-path="url(#clip7003)" style="stroke:#000000; stroke-width:0.5; stroke-opacity:0.1; fill:none" points="
  40.3485,345.791 580.315,345.791 
  "/>
<polyline clip-path="url(#clip7003)" style="stroke:#000000; stroke-width:0.5; stroke-opacity:0.1; fill:none" points="
  40.3485,319.8 580.315,319.8 
  "/>
<polyline clip-path="url(#clip7003)" style="stroke:#000000; stroke-width:0.5; stroke-opacity:0.1; fill:none" points="
  40.3485,293.809 580.315,293.809 
  "/>
<polyline clip-path="url(#clip7003)" style="stroke:#000000; stroke-width:0.5; stroke-opacity:0.1; fill:none" points="
  40.3485,267.817 580.315,267.817 
  "/>
<polyline clip-path="url(#clip7003)" style="stroke:#000000; stroke-width:0.5; stroke-opacity:0.1; fill:none" points="
  40.3485,241.826 580.315,241.826 
  "/>
<polyline clip-path="url(#clip7000)" style="stroke:#000000; stroke-width:1; stroke-opacity:1; fill:none" points="
  40.3485,375.869 580.315,375.869 
  "/>
<polyline clip-path="url(#clip7000)" style="stroke:#000000; stroke-width:1; stroke-opacity:1; fill:none" points="
  40.3485,375.869 40.3485,231.496 
  "/>
<polyline clip-path="url(#clip7000)" style="stroke:#000000; stroke-width:1; stroke-opacity:1; fill:none" points="
  105.986,375.869 105.986,373.703 
  "/>
<polyline clip-path="url(#clip7000)" style="stroke:#000000; stroke-width:1; stroke-opacity:1; fill:none" points="
  203.179,375.869 203.179,373.703 
  "/>
<polyline clip-path="url(#clip7000)" style="stroke:#000000; stroke-width:1; stroke-opacity:1; fill:none" points="
  300.373,375.869 300.373,373.703 
  "/>
<polyline clip-path="url(#clip7000)" style="stroke:#000000; stroke-width:1; stroke-opacity:1; fill:none" points="
  397.566,375.869 397.566,373.703 
  "/>
<polyline clip-path="url(#clip7000)" style="stroke:#000000; stroke-width:1; stroke-opacity:1; fill:none" points="
  494.759,375.869 494.759,373.703 
  "/>
<polyline clip-path="url(#clip7000)" style="stroke:#000000; stroke-width:1; stroke-opacity:1; fill:none" points="
  40.3485,371.783 48.448,371.783 
  "/>
<polyline clip-path="url(#clip7000)" style="stroke:#000000; stroke-width:1; stroke-opacity:1; fill:none" points="
  40.3485,345.791 48.448,345.791 
  "/>
<polyline clip-path="url(#clip7000)" style="stroke:#000000; stroke-width:1; stroke-opacity:1; fill:none" points="
  40.3485,319.8 48.448,319.8 
  "/>
<polyline clip-path="url(#clip7000)" style="stroke:#000000; stroke-width:1; stroke-opacity:1; fill:none" points="
  40.3485,293.809 48.448,293.809 
  "/>
<polyline clip-path="url(#clip7000)" style="stroke:#000000; stroke-width:1; stroke-opacity:1; fill:none" points="
  40.3485,267.817 48.448,267.817 
  "/>
<polyline clip-path="url(#clip7000)" style="stroke:#000000; stroke-width:1; stroke-opacity:1; fill:none" points="
  40.3485,241.826 48.448,241.826 
  "/>
<g clip-path="url(#clip7000)">
<text style="fill:#000000; fill-opacity:1; font-family:Arial,Helvetica Neue,Helvetica,sans-serif; font-size:12; text-anchor:middle;" transform="rotate(0, 105.986, 389.669)" x="105.986" y="389.669">1.25</text>
</g>
<g clip-path="url(#clip7000)">
<text style="fill:#000000; fill-opacity:1; font-family:Arial,Helvetica Neue,Helvetica,sans-serif; font-size:12; text-anchor:middle;" transform="rotate(0, 203.179, 389.669)" x="203.179" y="389.669">1.50</text>
</g>
<g clip-path="url(#clip7000)">
<text style="fill:#000000; fill-opacity:1; font-family:Arial,Helvetica Neue,Helvetica,sans-serif; font-size:12; text-anchor:middle;" transform="rotate(0, 300.373, 389.669)" x="300.373" y="389.669">1.75</text>
</g>
<g clip-path="url(#clip7000)">
<text style="fill:#000000; fill-opacity:1; font-family:Arial,Helvetica Neue,Helvetica,sans-serif; font-size:12; text-anchor:middle;" transform="rotate(0, 397.566, 389.669)" x="397.566" y="389.669">2.00</text>
</g>
<g clip-path="url(#clip7000)">
<text style="fill:#000000; fill-opacity:1; font-family:Arial,Helvetica Neue,Helvetica,sans-serif; font-size:12; text-anchor:middle;" transform="rotate(0, 494.759, 389.669)" x="494.759" y="389.669">2.25</text>
</g>
<g clip-path="url(#clip7000)">
<text style="fill:#000000; fill-opacity:1; font-family:Arial,Helvetica Neue,Helvetica,sans-serif; font-size:12; text-anchor:end;" transform="rotate(0, 34.3485, 376.283)" x="34.3485" y="376.283">0.0</text>
</g>
<g clip-path="url(#clip7000)">
<text style="fill:#000000; fill-opacity:1; font-family:Arial,Helvetica Neue,Helvetica,sans-serif; font-size:12; text-anchor:end;" transform="rotate(0, 34.3485, 350.291)" x="34.3485" y="350.291">0.5</text>
</g>
<g clip-path="url(#clip7000)">
<text style="fill:#000000; fill-opacity:1; font-family:Arial,Helvetica Neue,Helvetica,sans-serif; font-size:12; text-anchor:end;" transform="rotate(0, 34.3485, 324.3)" x="34.3485" y="324.3">1.0</text>
</g>
<g clip-path="url(#clip7000)">
<text style="fill:#000000; fill-opacity:1; font-family:Arial,Helvetica Neue,Helvetica,sans-serif; font-size:12; text-anchor:end;" transform="rotate(0, 34.3485, 298.309)" x="34.3485" y="298.309">1.5</text>
</g>
<g clip-path="url(#clip7000)">
<text style="fill:#000000; fill-opacity:1; font-family:Arial,Helvetica Neue,Helvetica,sans-serif; font-size:12; text-anchor:end;" transform="rotate(0, 34.3485, 272.317)" x="34.3485" y="272.317">2.0</text>
</g>
<g clip-path="url(#clip7000)">
<text style="fill:#000000; fill-opacity:1; font-family:Arial,Helvetica Neue,Helvetica,sans-serif; font-size:12; text-anchor:end;" transform="rotate(0, 34.3485, 246.326)" x="34.3485" y="246.326">2.5</text>
</g>
<g clip-path="url(#clip7000)">
<text style="fill:#000000; fill-opacity:1; font-family:Arial,Helvetica Neue,Helvetica,sans-serif; font-size:21; text-anchor:middle;" transform="rotate(0, 310.332, 218)" x="310.332" y="218">IV</text>
</g>
<polygon clip-path="url(#clip7003)" points="
55.6306,371.199 57.9107,371.206 60.1908,371.23 62.4708,371.266 64.7509,371.313 67.031,371.367 69.3111,371.425 71.5912,371.483 73.8713,371.539 76.1514,371.589 
  78.4315,371.633 80.7116,371.671 82.9917,371.701 85.2717,371.724 87.5518,371.742 89.8319,371.755 92.112,371.764 94.3921,371.77 96.6722,371.774 98.9523,371.776 
  101.232,371.775 103.512,371.773 105.793,371.767 108.073,371.759 110.353,371.745 112.633,371.725 114.913,371.696 117.193,371.654 119.473,371.598 121.753,371.524 
  124.033,371.429 126.313,371.311 128.593,371.168 130.874,371.002 133.154,370.815 135.434,370.612 137.714,370.4 139.994,370.19 142.274,369.991 144.554,369.815 
  146.834,369.672 149.114,369.572 151.394,369.518 153.674,369.513 155.955,369.552 158.235,369.629 160.515,369.733 162.795,369.848 165.075,369.961 167.355,370.056 
  169.635,370.12 171.915,370.142 174.195,370.116 176.475,370.037 178.755,369.905 181.036,369.724 183.316,369.499 185.596,369.235 187.876,368.94 190.156,368.619 
  192.436,368.277 194.716,367.919 196.996,367.546 199.276,367.163 201.556,366.771 203.836,366.376 206.116,365.982 208.397,365.597 210.677,365.23 212.957,364.891 
  215.237,364.59 217.517,364.336 219.797,364.134 222.077,363.988 224.357,363.896 226.637,363.852 228.917,363.846 231.197,363.864 233.478,363.891 235.758,363.907 
  238.038,363.894 240.318,363.832 242.598,363.698 244.878,363.474 247.158,363.138 249.438,362.671 251.718,362.057 253.998,361.282 256.278,360.339 258.559,359.226 
  260.839,357.947 263.119,356.514 265.399,354.944 267.679,353.261 269.959,351.49 272.239,349.658 274.519,347.796 276.799,345.932 279.079,344.095 281.359,342.313 
  281.359,371.783 279.079,371.783 276.799,371.783 274.519,371.783 272.239,371.783 269.959,371.783 267.679,371.783 265.399,371.783 263.119,371.783 260.839,371.783 
  258.559,371.783 256.278,371.783 253.998,371.783 251.718,371.783 249.438,371.783 247.158,371.783 244.878,371.783 242.598,371.783 240.318,371.783 238.038,371.783 
  235.758,371.783 233.478,371.783 231.197,371.783 228.917,371.783 226.637,371.783 224.357,371.783 222.077,371.783 219.797,371.783 217.517,371.783 215.237,371.783 
  212.957,371.783 210.677,371.783 208.397,371.783 206.116,371.783 203.836,371.783 201.556,371.783 199.276,371.783 196.996,371.783 194.716,371.783 192.436,371.783 
  190.156,371.783 187.876,371.783 185.596,371.783 183.316,371.783 181.036,371.783 178.755,371.783 176.475,371.783 174.195,371.783 171.915,371.783 169.635,371.783 
  167.355,371.783 165.075,371.783 162.795,371.783 160.515,371.783 158.235,371.783 155.955,371.783 153.674,371.783 151.394,371.783 149.114,371.783 146.834,371.783 
  144.554,371.783 142.274,371.783 139.994,371.783 137.714,371.783 135.434,371.783 133.154,371.783 130.874,371.783 128.593,371.783 126.313,371.783 124.033,371.783 
  121.753,371.783 119.473,371.783 117.193,371.783 114.913,371.783 112.633,371.783 110.353,371.783 108.073,371.783 105.793,371.783 103.512,371.783 101.232,371.783 
  98.9523,371.783 96.6722,371.783 94.3921,371.783 92.112,371.783 89.8319,371.783 87.5518,371.783 85.2717,371.783 82.9917,371.783 80.7116,371.783 78.4315,371.783 
  76.1514,371.783 73.8713,371.783 71.5912,371.783 69.3111,371.783 67.031,371.783 64.7509,371.783 62.4708,371.783 60.1908,371.783 57.9107,371.783 55.6306,371.783 
  
  " fill="#ffa500" fill-opacity="0.5"/>
<polyline clip-path="url(#clip7003)" style="stroke:#ffa500; stroke-width:1; stroke-opacity:1; fill:none" points="
  55.6306,371.199 57.9107,371.206 60.1908,371.23 62.4708,371.266 64.7509,371.313 67.031,371.367 69.3111,371.425 71.5912,371.483 73.8713,371.539 76.1514,371.589 
  78.4315,371.633 80.7116,371.671 82.9917,371.701 85.2717,371.724 87.5518,371.742 89.8319,371.755 92.112,371.764 94.3921,371.77 96.6722,371.774 98.9523,371.776 
  101.232,371.775 103.512,371.773 105.793,371.767 108.073,371.759 110.353,371.745 112.633,371.725 114.913,371.696 117.193,371.654 119.473,371.598 121.753,371.524 
  124.033,371.429 126.313,371.311 128.593,371.168 130.874,371.002 133.154,370.815 135.434,370.612 137.714,370.4 139.994,370.19 142.274,369.991 144.554,369.815 
  146.834,369.672 149.114,369.572 151.394,369.518 153.674,369.513 155.955,369.552 158.235,369.629 160.515,369.733 162.795,369.848 165.075,369.961 167.355,370.056 
  169.635,370.12 171.915,370.142 174.195,370.116 176.475,370.037 178.755,369.905 181.036,369.724 183.316,369.499 185.596,369.235 187.876,368.94 190.156,368.619 
  192.436,368.277 194.716,367.919 196.996,367.546 199.276,367.163 201.556,366.771 203.836,366.376 206.116,365.982 208.397,365.597 210.677,365.23 212.957,364.891 
  215.237,364.59 217.517,364.336 219.797,364.134 222.077,363.988 224.357,363.896 226.637,363.852 228.917,363.846 231.197,363.864 233.478,363.891 235.758,363.907 
  238.038,363.894 240.318,363.832 242.598,363.698 244.878,363.474 247.158,363.138 249.438,362.671 251.718,362.057 253.998,361.282 256.278,360.339 258.559,359.226 
  260.839,357.947 263.119,356.514 265.399,354.944 267.679,353.261 269.959,351.49 272.239,349.658 274.519,347.796 276.799,345.932 279.079,344.095 281.359,342.313 
  
  "/>
<polygon clip-path="url(#clip7003)" points="
281.359,342.313 283.489,340.723 285.618,339.224 287.748,337.834 289.877,336.561 292.006,335.409 294.136,334.373 296.265,333.435 298.395,332.57 300.524,331.742 
  302.653,330.911 304.783,330.033 306.912,329.066 309.041,327.977 311.171,326.741 313.3,325.345 315.43,323.791 317.559,322.09 319.688,320.265 321.818,318.342 
  323.947,316.349 326.077,314.312 328.206,312.25 330.335,310.174 332.465,308.088 334.594,305.988 336.724,303.864 338.853,301.706 340.982,299.503 343.112,297.245 
  345.241,294.931 347.37,292.56 349.5,290.14 351.629,287.679 353.759,285.191 355.888,282.688 358.017,280.181 360.147,277.68 362.276,275.194 364.406,272.728 
  366.535,270.288 368.664,267.878 370.794,265.502 372.923,263.164 375.052,260.867 377.182,258.614 379.311,256.408 381.441,254.249 383.57,252.135 385.699,250.067 
  387.829,248.046 389.958,246.077 392.088,244.173 394.217,242.356 396.346,240.657 398.476,239.117 400.605,237.785 402.734,236.716 404.864,235.965 406.993,235.582 
  409.123,235.608 411.252,236.072 413.381,236.982 415.511,238.331 417.64,240.093 419.77,242.224 421.899,244.668 424.028,247.358 426.158,250.225 428.287,253.199 
  430.417,256.211 432.546,259.202 434.675,262.121 436.805,264.926 438.934,267.589 441.063,270.091 443.193,272.428 445.322,274.606 447.452,276.643 449.581,278.565 
  451.71,280.409 453.84,282.214 455.969,284.024 458.099,285.882 460.228,287.827 462.357,289.89 464.487,292.095 466.616,294.452 468.745,296.965 470.875,299.624 
  473.004,302.414 475.134,305.311 477.263,308.291 479.392,311.326 481.522,314.39 483.651,317.46 485.781,320.514 487.91,323.532 490.039,326.498 492.169,329.395 
  492.169,371.783 490.039,371.783 487.91,371.783 485.781,371.783 483.651,371.783 481.522,371.783 479.392,371.783 477.263,371.783 475.134,371.783 473.004,371.783 
  470.875,371.783 468.745,371.783 466.616,371.783 464.487,371.783 462.357,371.783 460.228,371.783 458.099,371.783 455.969,371.783 453.84,371.783 451.71,371.783 
  449.581,371.783 447.452,371.783 445.322,371.783 443.193,371.783 441.063,371.783 438.934,371.783 436.805,371.783 434.675,371.783 432.546,371.783 430.417,371.783 
  428.287,371.783 426.158,371.783 424.028,371.783 421.899,371.783 419.77,371.783 417.64,371.783 415.511,371.783 413.381,371.783 411.252,371.783 409.123,371.783 
  406.993,371.783 404.864,371.783 402.734,371.783 400.605,371.783 398.476,371.783 396.346,371.783 394.217,371.783 392.088,371.783 389.958,371.783 387.829,371.783 
  385.699,371.783 383.57,371.783 381.441,371.783 379.311,371.783 377.182,371.783 375.052,371.783 372.923,371.783 370.794,371.783 368.664,371.783 366.535,371.783 
  364.406,371.783 362.276,371.783 360.147,371.783 358.017,371.783 355.888,371.783 353.759,371.783 351.629,371.783 349.5,371.783 347.37,371.783 345.241,371.783 
  343.112,371.783 340.982,371.783 338.853,371.783 336.724,371.783 334.594,371.783 332.465,371.783 330.335,371.783 328.206,371.783 326.077,371.783 323.947,371.783 
  321.818,371.783 319.688,371.783 317.559,371.783 315.43,371.783 313.3,371.783 311.171,371.783 309.041,371.783 306.912,371.783 304.783,371.783 302.653,371.783 
  300.524,371.783 298.395,371.783 296.265,371.783 294.136,371.783 292.006,371.783 289.877,371.783 287.748,371.783 285.618,371.783 283.489,371.783 281.359,371.783 
  
  " fill="#008000" fill-opacity="0.5"/>
<polyline clip-path="url(#clip7003)" style="stroke:#008000; stroke-width:1; stroke-opacity:1; fill:none" points="
  281.359,342.313 283.489,340.723 285.618,339.224 287.748,337.834 289.877,336.561 292.006,335.409 294.136,334.373 296.265,333.435 298.395,332.57 300.524,331.742 
  302.653,330.911 304.783,330.033 306.912,329.066 309.041,327.977 311.171,326.741 313.3,325.345 315.43,323.791 317.559,322.09 319.688,320.265 321.818,318.342 
  323.947,316.349 326.077,314.312 328.206,312.25 330.335,310.174 332.465,308.088 334.594,305.988 336.724,303.864 338.853,301.706 340.982,299.503 343.112,297.245 
  345.241,294.931 347.37,292.56 349.5,290.14 351.629,287.679 353.759,285.191 355.888,282.688 358.017,280.181 360.147,277.68 362.276,275.194 364.406,272.728 
  366.535,270.288 368.664,267.878 370.794,265.502 372.923,263.164 375.052,260.867 377.182,258.614 379.311,256.408 381.441,254.249 383.57,252.135 385.699,250.067 
  387.829,248.046 389.958,246.077 392.088,244.173 394.217,242.356 396.346,240.657 398.476,239.117 400.605,237.785 402.734,236.716 404.864,235.965 406.993,235.582 
  409.123,235.608 411.252,236.072 413.381,236.982 415.511,238.331 417.64,240.093 419.77,242.224 421.899,244.668 424.028,247.358 426.158,250.225 428.287,253.199 
  430.417,256.211 432.546,259.202 434.675,262.121 436.805,264.926 438.934,267.589 441.063,270.091 443.193,272.428 445.322,274.606 447.452,276.643 449.581,278.565 
  451.71,280.409 453.84,282.214 455.969,284.024 458.099,285.882 460.228,287.827 462.357,289.89 464.487,292.095 466.616,294.452 468.745,296.965 470.875,299.624 
  473.004,302.414 475.134,305.311 477.263,308.291 479.392,311.326 481.522,314.39 483.651,317.46 485.781,320.514 487.91,323.532 490.039,326.498 492.169,329.395 
  
  "/>
<polygon clip-path="url(#clip7003)" points="
492.169,329.395 492.905,330.378 493.641,331.35 494.377,332.311 495.113,333.26 495.849,334.197 496.585,335.121 497.321,336.032 498.057,336.929 498.793,337.811 
  499.529,338.679 500.265,339.531 501.001,340.367 501.737,341.187 502.473,341.99 503.209,342.776 503.945,343.545 504.681,344.296 505.417,345.03 506.153,345.745 
  506.889,346.442 507.625,347.122 508.361,347.783 509.097,348.426 509.833,349.051 510.569,349.658 511.305,350.248 512.041,350.82 512.777,351.376 513.513,351.915 
  514.249,352.438 514.985,352.945 515.721,353.437 516.457,353.914 517.193,354.377 517.929,354.827 518.665,355.265 519.401,355.69 520.137,356.103 520.873,356.506 
  521.609,356.899 522.345,357.282 523.081,357.656 523.817,358.022 524.553,358.381 525.289,358.732 526.025,359.077 526.761,359.415 527.497,359.749 528.233,360.076 
  528.969,360.399 529.705,360.718 530.441,361.032 531.177,361.342 531.913,361.648 532.649,361.949 533.385,362.247 534.121,362.541 534.857,362.831 535.593,363.116 
  536.329,363.397 537.065,363.674 537.801,363.945 538.537,364.212 539.273,364.473 540.009,364.728 540.745,364.978 541.481,365.221 542.217,365.458 542.953,365.687 
  543.689,365.91 544.425,366.125 545.161,366.333 545.897,366.534 546.633,366.726 547.369,366.911 548.105,367.088 548.841,367.258 549.577,367.419 550.313,367.573 
  551.049,367.72 551.785,367.859 552.521,367.992 553.257,368.118 553.993,368.238 554.729,368.351 555.465,368.46 556.201,368.563 556.937,368.662 557.673,368.756 
  558.409,368.847 559.145,368.934 559.881,369.018 560.617,369.1 561.353,369.18 562.089,369.257 562.825,369.334 563.561,369.409 564.297,369.484 565.033,369.557 
  565.033,371.783 564.297,371.783 563.561,371.783 562.825,371.783 562.089,371.783 561.353,371.783 560.617,371.783 559.881,371.783 559.145,371.783 558.409,371.783 
  557.673,371.783 556.937,371.783 556.201,371.783 555.465,371.783 554.729,371.783 553.993,371.783 553.257,371.783 552.521,371.783 551.785,371.783 551.049,371.783 
  550.313,371.783 549.577,371.783 548.841,371.783 548.105,371.783 547.369,371.783 546.633,371.783 545.897,371.783 545.161,371.783 544.425,371.783 543.689,371.783 
  542.953,371.783 542.217,371.783 541.481,371.783 540.745,371.783 540.009,371.783 539.273,371.783 538.537,371.783 537.801,371.783 537.065,371.783 536.329,371.783 
  535.593,371.783 534.857,371.783 534.121,371.783 533.385,371.783 532.649,371.783 531.913,371.783 531.177,371.783 530.441,371.783 529.705,371.783 528.969,371.783 
  528.233,371.783 527.497,371.783 526.761,371.783 526.025,371.783 525.289,371.783 524.553,371.783 523.817,371.783 523.081,371.783 522.345,371.783 521.609,371.783 
  520.873,371.783 520.137,371.783 519.401,371.783 518.665,371.783 517.929,371.783 517.193,371.783 516.457,371.783 515.721,371.783 514.985,371.783 514.249,371.783 
  513.513,371.783 512.777,371.783 512.041,371.783 511.305,371.783 510.569,371.783 509.833,371.783 509.097,371.783 508.361,371.783 507.625,371.783 506.889,371.783 
  506.153,371.783 505.417,371.783 504.681,371.783 503.945,371.783 503.209,371.783 502.473,371.783 501.737,371.783 501.001,371.783 500.265,371.783 499.529,371.783 
  498.793,371.783 498.057,371.783 497.321,371.783 496.585,371.783 495.849,371.783 495.113,371.783 494.377,371.783 493.641,371.783 492.905,371.783 492.169,371.783 
  
  " fill="#ffa500" fill-opacity="0.5"/>
<polyline clip-path="url(#clip7003)" style="stroke:#ffa500; stroke-width:1; stroke-opacity:1; fill:none" points="
  492.169,329.395 492.905,330.378 493.641,331.35 494.377,332.311 495.113,333.26 495.849,334.197 496.585,335.121 497.321,336.032 498.057,336.929 498.793,337.811 
  499.529,338.679 500.265,339.531 501.001,340.367 501.737,341.187 502.473,341.99 503.209,342.776 503.945,343.545 504.681,344.296 505.417,345.03 506.153,345.745 
  506.889,346.442 507.625,347.122 508.361,347.783 509.097,348.426 509.833,349.051 510.569,349.658 511.305,350.248 512.041,350.82 512.777,351.376 513.513,351.915 
  514.249,352.438 514.985,352.945 515.721,353.437 516.457,353.914 517.193,354.377 517.929,354.827 518.665,355.265 519.401,355.69 520.137,356.103 520.873,356.506 
  521.609,356.899 522.345,357.282 523.081,357.656 523.817,358.022 524.553,358.381 525.289,358.732 526.025,359.077 526.761,359.415 527.497,359.749 528.233,360.076 
  528.969,360.399 529.705,360.718 530.441,361.032 531.177,361.342 531.913,361.648 532.649,361.949 533.385,362.247 534.121,362.541 534.857,362.831 535.593,363.116 
  536.329,363.397 537.065,363.674 537.801,363.945 538.537,364.212 539.273,364.473 540.009,364.728 540.745,364.978 541.481,365.221 542.217,365.458 542.953,365.687 
  543.689,365.91 544.425,366.125 545.161,366.333 545.897,366.534 546.633,366.726 547.369,366.911 548.105,367.088 548.841,367.258 549.577,367.419 550.313,367.573 
  551.049,367.72 551.785,367.859 552.521,367.992 553.257,368.118 553.993,368.238 554.729,368.351 555.465,368.46 556.201,368.563 556.937,368.662 557.673,368.756 
  558.409,368.847 559.145,368.934 559.881,369.018 560.617,369.1 561.353,369.18 562.089,369.257 562.825,369.334 563.561,369.409 564.297,369.484 565.033,369.557 
  
  "/>
<polyline clip-path="url(#clip7003)" style="stroke:#0000ff; stroke-width:1; stroke-opacity:1; fill:none" points="
  394.203,371.783 394.203,242.368 
  "/>
<polyline clip-path="url(#clip7003)" style="stroke:#000000; stroke-width:1; stroke-opacity:1; fill:none" points="
  400.198,371.783 400.198,238.021 
  "/>
<polygon clip-path="url(#clip7000)" points="
376.566,343.096 562.315,343.096 562.315,252.376 376.566,252.376 
  " fill="#ffffff" fill-opacity="1"/>
<polyline clip-path="url(#clip7000)" style="stroke:#000000; stroke-width:1; stroke-opacity:1; fill:none" points="
  376.566,343.096 562.315,343.096 562.315,252.376 376.566,252.376 376.566,343.096 
  "/>
<polygon clip-path="url(#clip7000)" points="
382.566,273.544 418.566,273.544 418.566,261.448 382.566,261.448 382.566,273.544 
  " fill="#ffa500" fill-opacity="0.5"/>
<polyline clip-path="url(#clip7000)" style="stroke:#ffa500; stroke-width:1; stroke-opacity:1; fill:none" points="
  382.566,261.448 418.566,261.448 
  "/>
<g clip-path="url(#clip7000)">
<text style="fill:#000000; fill-opacity:1; font-family:Arial,Helvetica Neue,Helvetica,sans-serif; font-size:12; text-anchor:start;" transform="rotate(0, 424.566, 271.996)" x="424.566" y="271.996">q05</text>
</g>
<polygon clip-path="url(#clip7000)" points="
382.566,288.664 418.566,288.664 418.566,276.568 382.566,276.568 382.566,288.664 
  " fill="#008000" fill-opacity="0.5"/>
<polyline clip-path="url(#clip7000)" style="stroke:#008000; stroke-width:1; stroke-opacity:1; fill:none" points="
  382.566,276.568 418.566,276.568 
  "/>
<g clip-path="url(#clip7000)">
<text style="fill:#000000; fill-opacity:1; font-family:Arial,Helvetica Neue,Helvetica,sans-serif; font-size:12; text-anchor:start;" transform="rotate(0, 424.566, 287.116)" x="424.566" y="287.116">90% acceptance region</text>
</g>
<polygon clip-path="url(#clip7000)" points="
382.566,303.784 418.566,303.784 418.566,291.688 382.566,291.688 382.566,303.784 
  " fill="#ffa500" fill-opacity="0.5"/>
<polyline clip-path="url(#clip7000)" style="stroke:#ffa500; stroke-width:1; stroke-opacity:1; fill:none" points="
  382.566,291.688 418.566,291.688 
  "/>
<g clip-path="url(#clip7000)">
<text style="fill:#000000; fill-opacity:1; font-family:Arial,Helvetica Neue,Helvetica,sans-serif; font-size:12; text-anchor:start;" transform="rotate(0, 424.566, 302.236)" x="424.566" y="302.236">q95</text>
</g>
<polyline clip-path="url(#clip7000)" style="stroke:#0000ff; stroke-width:1; stroke-opacity:1; fill:none" points="
  382.566,312.856 418.566,312.856 
  "/>
<g clip-path="url(#clip7000)">
<text style="fill:#000000; fill-opacity:1; font-family:Arial,Helvetica Neue,Helvetica,sans-serif; font-size:12; text-anchor:start;" transform="rotate(0, 424.566, 317.356)" x="424.566" y="317.356">mean</text>
</g>
<polyline clip-path="url(#clip7000)" style="stroke:#000000; stroke-width:1; stroke-opacity:1; fill:none" points="
  382.566,327.976 418.566,327.976 
  "/>
<g clip-path="url(#clip7000)">
<text style="fill:#000000; fill-opacity:1; font-family:Arial,Helvetica Neue,Helvetica,sans-serif; font-size:12; text-anchor:start;" transform="rotate(0, 424.566, 332.476)" x="424.566" y="332.476">median</text>
</g>
</svg>
