<?xml version="1.0" encoding="utf-8"?>
<svg xmlns="http://www.w3.org/2000/svg" xmlns:xlink="http://www.w3.org/1999/xlink" width="600" height="400" viewBox="0 0 2400 1600">
<defs>
  <clipPath id="clip2300">
    <rect x="0" y="0" width="2400" height="1600"/>
  </clipPath>
</defs>
<polygon clip-path="url(#clip2300)" points="
0,1600 2400,1600 2400,0 0,0 
  " fill="#ffffff" fill-rule="evenodd" fill-opacity="1"/>
<defs>
  <clipPath id="clip2301">
    <rect x="480" y="0" width="1681" height="1600"/>
  </clipPath>
</defs>
<polygon clip-path="url(#clip2300)" points="
113.754,687.475 1139.37,687.475 1139.37,47.2441 113.754,47.2441 
  " fill="#ffffff" fill-rule="evenodd" fill-opacity="1"/>
<defs>
  <clipPath id="clip2302">
    <rect x="113" y="47" width="1027" height="641"/>
  </clipPath>
</defs>
<polyline clip-path="url(#clip2302)" style="stroke:#000000; stroke-width:2; stroke-opacity:0.1; fill:none" points="
  342.046,687.475 342.046,47.2441 
  "/>
<polyline clip-path="url(#clip2302)" style="stroke:#000000; stroke-width:2; stroke-opacity:0.1; fill:none" points="
  595.051,687.475 595.051,47.2441 
  "/>
<polyline clip-path="url(#clip2302)" style="stroke:#000000; stroke-width:2; stroke-opacity:0.1; fill:none" points="
  848.056,687.475 848.056,47.2441 
  "/>
<polyline clip-path="url(#clip2302)" style="stroke:#000000; stroke-width:2; stroke-opacity:0.1; fill:none" points="
  1101.06,687.475 1101.06,47.2441 
  "/>
<polyline clip-path="url(#clip2302)" style="stroke:#000000; stroke-width:2; stroke-opacity:0.1; fill:none" points="
  113.754,669.355 1139.37,669.355 
  "/>
<polyline clip-path="url(#clip2302)" style="stroke:#000000; stroke-width:2; stroke-opacity:0.1; fill:none" points="
  113.754,560.07 1139.37,560.07 
  "/>
<polyline clip-path="url(#clip2302)" style="stroke:#000000; stroke-width:2; stroke-opacity:0.1; fill:none" points="
  113.754,450.785 1139.37,450.785 
  "/>
<polyline clip-path="url(#clip2302)" style="stroke:#000000; stroke-width:2; stroke-opacity:0.1; fill:none" points="
  113.754,341.5 1139.37,341.5 
  "/>
<polyline clip-path="url(#clip2302)" style="stroke:#000000; stroke-width:2; stroke-opacity:0.1; fill:none" points="
  113.754,232.215 1139.37,232.215 
  "/>
<polyline clip-path="url(#clip2302)" style="stroke:#000000; stroke-width:2; stroke-opacity:0.1; fill:none" points="
  113.754,122.93 1139.37,122.93 
  "/>
<polyline clip-path="url(#clip2300)" style="stroke:#000000; stroke-width:4; stroke-opacity:1; fill:none" points="
  113.754,687.475 1139.37,687.475 
  "/>
<polyline clip-path="url(#clip2300)" style="stroke:#000000; stroke-width:4; stroke-opacity:1; fill:none" points="
  113.754,687.475 113.754,47.2441 
  "/>
<polyline clip-path="url(#clip2300)" style="stroke:#000000; stroke-width:4; stroke-opacity:1; fill:none" points="
  342.046,687.475 342.046,677.871 
  "/>
<polyline clip-path="url(#clip2300)" style="stroke:#000000; stroke-width:4; stroke-opacity:1; fill:none" points="
  595.051,687.475 595.051,677.871 
  "/>
<polyline clip-path="url(#clip2300)" style="stroke:#000000; stroke-width:4; stroke-opacity:1; fill:none" points="
  848.056,687.475 848.056,677.871 
  "/>
<polyline clip-path="url(#clip2300)" style="stroke:#000000; stroke-width:4; stroke-opacity:1; fill:none" points="
  1101.06,687.475 1101.06,677.871 
  "/>
<polyline clip-path="url(#clip2300)" style="stroke:#000000; stroke-width:4; stroke-opacity:1; fill:none" points="
  113.754,669.355 129.139,669.355 
  "/>
<polyline clip-path="url(#clip2300)" style="stroke:#000000; stroke-width:4; stroke-opacity:1; fill:none" points="
  113.754,560.07 129.139,560.07 
  "/>
<polyline clip-path="url(#clip2300)" style="stroke:#000000; stroke-width:4; stroke-opacity:1; fill:none" points="
  113.754,450.785 129.139,450.785 
  "/>
<polyline clip-path="url(#clip2300)" style="stroke:#000000; stroke-width:4; stroke-opacity:1; fill:none" points="
  113.754,341.5 129.139,341.5 
  "/>
<polyline clip-path="url(#clip2300)" style="stroke:#000000; stroke-width:4; stroke-opacity:1; fill:none" points="
  113.754,232.215 129.139,232.215 
  "/>
<polyline clip-path="url(#clip2300)" style="stroke:#000000; stroke-width:4; stroke-opacity:1; fill:none" points="
  113.754,122.93 129.139,122.93 
  "/>
<g clip-path="url(#clip2300)">
<text style="fill:#000000; fill-opacity:1; font-family:Arial,Helvetica Neue,Helvetica,sans-serif; font-size:48px; text-anchor:middle;" transform="rotate(0, 342.046, 741.475)" x="342.046" y="741.475">0.6</text>
</g>
<g clip-path="url(#clip2300)">
<text style="fill:#000000; fill-opacity:1; font-family:Arial,Helvetica Neue,Helvetica,sans-serif; font-size:48px; text-anchor:middle;" transform="rotate(0, 595.051, 741.475)" x="595.051" y="741.475">0.8</text>
</g>
<g clip-path="url(#clip2300)">
<text style="fill:#000000; fill-opacity:1; font-family:Arial,Helvetica Neue,Helvetica,sans-serif; font-size:48px; text-anchor:middle;" transform="rotate(0, 848.056, 741.475)" x="848.056" y="741.475">1.0</text>
</g>
<g clip-path="url(#clip2300)">
<text style="fill:#000000; fill-opacity:1; font-family:Arial,Helvetica Neue,Helvetica,sans-serif; font-size:48px; text-anchor:middle;" transform="rotate(0, 1101.06, 741.475)" x="1101.06" y="741.475">1.2</text>
</g>
<g clip-path="url(#clip2300)">
<text style="fill:#000000; fill-opacity:1; font-family:Arial,Helvetica Neue,Helvetica,sans-serif; font-size:48px; text-anchor:end;" transform="rotate(0, 89.7545, 686.855)" x="89.7545" y="686.855">0</text>
</g>
<g clip-path="url(#clip2300)">
<text style="fill:#000000; fill-opacity:1; font-family:Arial,Helvetica Neue,Helvetica,sans-serif; font-size:48px; text-anchor:end;" transform="rotate(0, 89.7545, 577.57)" x="89.7545" y="577.57">1</text>
</g>
<g clip-path="url(#clip2300)">
<text style="fill:#000000; fill-opacity:1; font-family:Arial,Helvetica Neue,Helvetica,sans-serif; font-size:48px; text-anchor:end;" transform="rotate(0, 89.7545, 468.285)" x="89.7545" y="468.285">2</text>
</g>
<g clip-path="url(#clip2300)">
<text style="fill:#000000; fill-opacity:1; font-family:Arial,Helvetica Neue,Helvetica,sans-serif; font-size:48px; text-anchor:end;" transform="rotate(0, 89.7545, 359)" x="89.7545" y="359">3</text>
</g>
<g clip-path="url(#clip2300)">
<text style="fill:#000000; fill-opacity:1; font-family:Arial,Helvetica Neue,Helvetica,sans-serif; font-size:48px; text-anchor:end;" transform="rotate(0, 89.7545, 249.715)" x="89.7545" y="249.715">4</text>
</g>
<g clip-path="url(#clip2300)">
<text style="fill:#000000; fill-opacity:1; font-family:Arial,Helvetica Neue,Helvetica,sans-serif; font-size:48px; text-anchor:end;" transform="rotate(0, 89.7545, 140.43)" x="89.7545" y="140.43">5</text>
</g>
<polygon clip-path="url(#clip2302)" points="
142.781,658.145 144.542,657.376 146.302,656.579 148.063,655.756 149.823,654.91 151.583,654.043 153.344,653.159 155.104,652.26 156.864,651.352 158.625,650.44 
  160.385,649.53 162.146,648.626 163.906,647.737 165.666,646.867 167.427,646.025 169.187,645.215 170.948,644.444 172.708,643.718 174.468,643.042 176.229,642.418 
  177.989,641.851 179.749,641.342 181.51,640.892 183.27,640.501 185.031,640.167 186.791,639.888 188.551,639.661 190.312,639.481 192.072,639.343 193.832,639.244 
  195.593,639.176 197.353,639.136 199.114,639.118 200.874,639.117 202.634,639.13 204.395,639.153 206.155,639.184 207.915,639.221 209.676,639.264 211.436,639.312 
  213.197,639.365 214.957,639.426 216.717,639.495 218.478,639.574 220.238,639.662 221.998,639.762 223.759,639.873 225.519,639.994 227.28,640.123 229.04,640.256 
  230.8,640.389 232.561,640.516 234.321,640.628 236.081,640.718 237.842,640.775 239.602,640.788 241.363,640.745 243.123,640.633 244.883,640.439 246.644,640.151 
  248.404,639.756 250.165,639.242 251.925,638.599 253.685,637.818 255.446,636.89 257.206,635.81 258.966,634.574 260.727,633.18 262.487,631.63 264.248,629.925 
  266.008,628.071 267.768,626.075 269.529,623.945 271.289,621.693 273.049,619.329 274.81,616.867 276.57,614.319 278.331,611.699 280.091,609.02 281.851,606.294 
  283.612,603.532 285.372,600.745 287.132,597.939 288.893,595.121 290.653,592.295 292.414,589.461 294.174,586.619 295.934,583.764 297.695,580.889 299.455,577.987 
  301.215,575.046 302.976,572.055 304.736,568.998 306.497,565.861 308.257,562.629 310.017,559.284 311.778,555.813 313.538,552.199 315.298,548.43 317.059,544.492 
  317.059,669.355 315.298,669.355 313.538,669.355 311.778,669.355 310.017,669.355 308.257,669.355 306.497,669.355 304.736,669.355 302.976,669.355 301.215,669.355 
  299.455,669.355 297.695,669.355 295.934,669.355 294.174,669.355 292.414,669.355 290.653,669.355 288.893,669.355 287.132,669.355 285.372,669.355 283.612,669.355 
  281.851,669.355 280.091,669.355 278.331,669.355 276.57,669.355 274.81,669.355 273.049,669.355 271.289,669.355 269.529,669.355 267.768,669.355 266.008,669.355 
  264.248,669.355 262.487,669.355 260.727,669.355 258.966,669.355 257.206,669.355 255.446,669.355 253.685,669.355 251.925,669.355 250.165,669.355 248.404,669.355 
  246.644,669.355 244.883,669.355 243.123,669.355 241.363,669.355 239.602,669.355 237.842,669.355 236.081,669.355 234.321,669.355 232.561,669.355 230.8,669.355 
  229.04,669.355 227.28,669.355 225.519,669.355 223.759,669.355 221.998,669.355 220.238,669.355 218.478,669.355 216.717,669.355 214.957,669.355 213.197,669.355 
  211.436,669.355 209.676,669.355 207.915,669.355 206.155,669.355 204.395,669.355 202.634,669.355 200.874,669.355 199.114,669.355 197.353,669.355 195.593,669.355 
  193.832,669.355 192.072,669.355 190.312,669.355 188.551,669.355 186.791,669.355 185.031,669.355 183.27,669.355 181.51,669.355 179.749,669.355 177.989,669.355 
  176.229,669.355 174.468,669.355 172.708,669.355 170.948,669.355 169.187,669.355 167.427,669.355 165.666,669.355 163.906,669.355 162.146,669.355 160.385,669.355 
  158.625,669.355 156.864,669.355 155.104,669.355 153.344,669.355 151.583,669.355 149.823,669.355 148.063,669.355 146.302,669.355 144.542,669.355 142.781,669.355 
  
  " fill="#ffa500" fill-rule="evenodd" fill-opacity="0.5"/>
<polyline clip-path="url(#clip2302)" style="stroke:#ffa500; stroke-width:4; stroke-opacity:1; fill:none" points="
  142.781,658.145 144.542,657.376 146.302,656.579 148.063,655.756 149.823,654.91 151.583,654.043 153.344,653.159 155.104,652.26 156.864,651.352 158.625,650.44 
  160.385,649.53 162.146,648.626 163.906,647.737 165.666,646.867 167.427,646.025 169.187,645.215 170.948,644.444 172.708,643.718 174.468,643.042 176.229,642.418 
  177.989,641.851 179.749,641.342 181.51,640.892 183.27,640.501 185.031,640.167 186.791,639.888 188.551,639.661 190.312,639.481 192.072,639.343 193.832,639.244 
  195.593,639.176 197.353,639.136 199.114,639.118 200.874,639.117 202.634,639.13 204.395,639.153 206.155,639.184 207.915,639.221 209.676,639.264 211.436,639.312 
  213.197,639.365 214.957,639.426 216.717,639.495 218.478,639.574 220.238,639.662 221.998,639.762 223.759,639.873 225.519,639.994 227.28,640.123 229.04,640.256 
  230.8,640.389 232.561,640.516 234.321,640.628 236.081,640.718 237.842,640.775 239.602,640.788 241.363,640.745 243.123,640.633 244.883,640.439 246.644,640.151 
  248.404,639.756 250.165,639.242 251.925,638.599 253.685,637.818 255.446,636.89 257.206,635.81 258.966,634.574 260.727,633.18 262.487,631.63 264.248,629.925 
  266.008,628.071 267.768,626.075 269.529,623.945 271.289,621.693 273.049,619.329 274.81,616.867 276.57,614.319 278.331,611.699 280.091,609.02 281.851,606.294 
  283.612,603.532 285.372,600.745 287.132,597.939 288.893,595.121 290.653,592.295 292.414,589.461 294.174,586.619 295.934,583.764 297.695,580.889 299.455,577.987 
  301.215,575.046 302.976,572.055 304.736,568.998 306.497,565.861 308.257,562.629 310.017,559.284 311.778,555.813 313.538,552.199 315.298,548.43 317.059,544.492 
  
  "/>
<polygon clip-path="url(#clip2302)" points="
317.059,544.492 321.164,534.603 325.268,523.663 329.373,511.662 333.478,498.66 337.583,484.777 341.688,470.166 345.793,454.994 349.897,439.413 354.002,423.543 
  358.107,407.467 362.212,391.234 366.317,374.867 370.421,358.384 374.526,341.805 378.631,325.161 382.736,308.498 386.841,291.867 390.946,275.317 395.05,258.887 
  399.155,242.604 403.26,226.481 407.365,210.526 411.47,194.757 415.574,179.212 419.679,163.96 423.784,149.111 427.889,134.817 431.994,121.264 436.098,108.665 
  440.203,97.2489 444.308,87.2452 448.413,78.873 452.518,72.3335 456.623,67.8046 460.727,65.4391 464.832,65.3638 468.937,67.6768 473.042,72.4421 477.147,79.6811 
  481.251,89.3615 485.356,101.386 489.461,115.585 493.566,131.711 497.671,149.444 501.775,168.401 505.88,188.152 509.985,208.242 514.09,228.209 518.195,247.617 
  522.3,266.078 526.404,283.279 530.509,299.01 534.614,313.182 538.719,325.839 542.824,337.155 546.928,347.419 551.033,356.998 555.138,366.295 559.243,375.698 
  563.348,385.525 567.453,395.993 571.557,407.186 575.662,419.059 579.767,431.451 583.872,444.116 587.977,456.766 592.081,469.113 596.186,480.91 600.291,491.973 
  604.396,502.196 608.501,511.552 612.605,520.076 616.71,527.841 620.815,534.93 624.92,541.411 629.025,547.316 633.13,552.63 637.234,557.299 641.339,561.24 
  645.444,564.364 649.549,566.602 653.654,567.933 657.758,568.397 661.863,568.11 665.968,567.256 670.073,566.081 674.178,564.863 678.282,563.889 682.387,563.425 
  686.492,563.682 690.597,564.802 694.702,566.841 698.807,569.767 702.911,573.472 707.016,577.789 711.121,582.517 715.226,587.45 719.331,592.404 723.435,597.234 
  723.435,669.355 719.331,669.355 715.226,669.355 711.121,669.355 707.016,669.355 702.911,669.355 698.807,669.355 694.702,669.355 690.597,669.355 686.492,669.355 
  682.387,669.355 678.282,669.355 674.178,669.355 670.073,669.355 665.968,669.355 661.863,669.355 657.758,669.355 653.654,669.355 649.549,669.355 645.444,669.355 
  641.339,669.355 637.234,669.355 633.13,669.355 629.025,669.355 624.92,669.355 620.815,669.355 616.71,669.355 612.605,669.355 608.501,669.355 604.396,669.355 
  600.291,669.355 596.186,669.355 592.081,669.355 587.977,669.355 583.872,669.355 579.767,669.355 575.662,669.355 571.557,669.355 567.453,669.355 563.348,669.355 
  559.243,669.355 555.138,669.355 551.033,669.355 546.928,669.355 542.824,669.355 538.719,669.355 534.614,669.355 530.509,669.355 526.404,669.355 522.3,669.355 
  518.195,669.355 514.09,669.355 509.985,669.355 505.88,669.355 501.775,669.355 497.671,669.355 493.566,669.355 489.461,669.355 485.356,669.355 481.251,669.355 
  477.147,669.355 473.042,669.355 468.937,669.355 464.832,669.355 460.727,669.355 456.623,669.355 452.518,669.355 448.413,669.355 444.308,669.355 440.203,669.355 
  436.098,669.355 431.994,669.355 427.889,669.355 423.784,669.355 419.679,669.355 415.574,669.355 411.47,669.355 407.365,669.355 403.26,669.355 399.155,669.355 
  395.05,669.355 390.946,669.355 386.841,669.355 382.736,669.355 378.631,669.355 374.526,669.355 370.421,669.355 366.317,669.355 362.212,669.355 358.107,669.355 
  354.002,669.355 349.897,669.355 345.793,669.355 341.688,669.355 337.583,669.355 333.478,669.355 329.373,669.355 325.268,669.355 321.164,669.355 317.059,669.355 
  
  " fill="#008000" fill-rule="evenodd" fill-opacity="0.5"/>
<polyline clip-path="url(#clip2302)" style="stroke:#008000; stroke-width:4; stroke-opacity:1; fill:none" points="
  317.059,544.492 321.164,534.603 325.268,523.663 329.373,511.662 333.478,498.66 337.583,484.777 341.688,470.166 345.793,454.994 349.897,439.413 354.002,423.543 
  358.107,407.467 362.212,391.234 366.317,374.867 370.421,358.384 374.526,341.805 378.631,325.161 382.736,308.498 386.841,291.867 390.946,275.317 395.05,258.887 
  399.155,242.604 403.26,226.481 407.365,210.526 411.47,194.757 415.574,179.212 419.679,163.96 423.784,149.111 427.889,134.817 431.994,121.264 436.098,108.665 
  440.203,97.2489 444.308,87.2452 448.413,78.873 452.518,72.3335 456.623,67.8046 460.727,65.4391 464.832,65.3638 468.937,67.6768 473.042,72.4421 477.147,79.6811 
  481.251,89.3615 485.356,101.386 489.461,115.585 493.566,131.711 497.671,149.444 501.775,168.401 505.88,188.152 509.985,208.242 514.09,228.209 518.195,247.617 
  522.3,266.078 526.404,283.279 530.509,299.01 534.614,313.182 538.719,325.839 542.824,337.155 546.928,347.419 551.033,356.998 555.138,366.295 559.243,375.698 
  563.348,385.525 567.453,395.993 571.557,407.186 575.662,419.059 579.767,431.451 583.872,444.116 587.977,456.766 592.081,469.113 596.186,480.91 600.291,491.973 
  604.396,502.196 608.501,511.552 612.605,520.076 616.71,527.841 620.815,534.93 624.92,541.411 629.025,547.316 633.13,552.63 637.234,557.299 641.339,561.24 
  645.444,564.364 649.549,566.602 653.654,567.933 657.758,568.397 661.863,568.11 665.968,567.256 670.073,566.081 674.178,564.863 678.282,563.889 682.387,563.425 
  686.492,563.682 690.597,564.802 694.702,566.841 698.807,569.767 702.911,573.472 707.016,577.789 711.121,582.517 715.226,587.45 719.331,592.404 723.435,597.234 
  
  "/>
<polygon clip-path="url(#clip2302)" points="
723.435,597.234 727.344,601.628 731.252,605.785 735.16,609.702 739.068,613.407 742.976,616.942 746.885,620.355 750.793,623.684 754.701,626.96 758.609,630.191 
  762.517,633.369 766.426,636.469 770.334,639.453 774.242,642.274 778.15,644.884 782.059,647.238 785.967,649.304 789.875,651.064 793.783,652.52 797.691,653.691 
  801.6,654.612 805.508,655.329 809.416,655.89 813.324,656.341 817.232,656.718 821.141,657.044 825.049,657.328 828.957,657.568 832.865,657.754 836.773,657.876 
  840.682,657.927 844.59,657.91 848.498,657.838 852.406,657.732 856.314,657.615 860.223,657.512 864.131,657.436 868.039,657.388 871.947,657.353 875.855,657.304 
  879.764,657.205 883.672,657.019 887.58,656.718 891.488,656.292 895.396,655.752 899.305,655.133 903.213,654.492 907.121,653.896 911.029,653.418 914.937,653.12 
  918.846,653.044 922.754,653.204 926.662,653.586 930.57,654.139 934.479,654.792 938.387,655.455 942.295,656.033 946.203,656.437 950.111,656.594 954.02,656.458 
  957.928,656.014 961.836,655.283 965.744,654.313 969.652,653.184 973.561,651.99 977.469,650.834 981.377,649.819 985.285,649.034 989.193,648.55 993.102,648.41 
  997.01,648.635 1000.92,649.218 1004.83,650.127 1008.73,651.311 1012.64,652.705 1016.55,654.23 1020.46,655.804 1024.37,657.343 1028.28,658.768 1032.18,660.013 
  1036.09,661.024 1040,661.767 1043.91,662.231 1047.82,662.425 1051.72,662.377 1055.63,662.133 1059.54,661.745 1063.45,661.271 1067.36,660.764 1071.27,660.271 
  1075.17,659.828 1079.08,659.457 1082.99,659.173 1086.9,658.984 1090.81,658.894 1094.71,658.906 1098.62,659.027 1102.53,659.263 1106.44,659.62 1110.35,660.103 
  1110.35,669.355 1106.44,669.355 1102.53,669.355 1098.62,669.355 1094.71,669.355 1090.81,669.355 1086.9,669.355 1082.99,669.355 1079.08,669.355 1075.17,669.355 
  1071.27,669.355 1067.36,669.355 1063.45,669.355 1059.54,669.355 1055.63,669.355 1051.72,669.355 1047.82,669.355 1043.91,669.355 1040,669.355 1036.09,669.355 
  1032.18,669.355 1028.28,669.355 1024.37,669.355 1020.46,669.355 1016.55,669.355 1012.64,669.355 1008.73,669.355 1004.83,669.355 1000.92,669.355 997.01,669.355 
  993.102,669.355 989.193,669.355 985.285,669.355 981.377,669.355 977.469,669.355 973.561,669.355 969.652,669.355 965.744,669.355 961.836,669.355 957.928,669.355 
  954.02,669.355 950.111,669.355 946.203,669.355 942.295,669.355 938.387,669.355 934.479,669.355 930.57,669.355 926.662,669.355 922.754,669.355 918.846,669.355 
  914.937,669.355 911.029,669.355 907.121,669.355 903.213,669.355 899.305,669.355 895.396,669.355 891.488,669.355 887.58,669.355 883.672,669.355 879.764,669.355 
  875.855,669.355 871.947,669.355 868.039,669.355 864.131,669.355 860.223,669.355 856.314,669.355 852.406,669.355 848.498,669.355 844.59,669.355 840.682,669.355 
  836.773,669.355 832.865,669.355 828.957,669.355 825.049,669.355 821.141,669.355 817.232,669.355 813.324,669.355 809.416,669.355 805.508,669.355 801.6,669.355 
  797.691,669.355 793.783,669.355 789.875,669.355 785.967,669.355 782.059,669.355 778.15,669.355 774.242,669.355 770.334,669.355 766.426,669.355 762.517,669.355 
  758.609,669.355 754.701,669.355 750.793,669.355 746.885,669.355 742.976,669.355 739.068,669.355 735.16,669.355 731.252,669.355 727.344,669.355 723.435,669.355 
  
  " fill="#ffa500" fill-rule="evenodd" fill-opacity="0.5"/>
<polyline clip-path="url(#clip2302)" style="stroke:#ffa500; stroke-width:4; stroke-opacity:1; fill:none" points="
  723.435,597.234 727.344,601.628 731.252,605.785 735.16,609.702 739.068,613.407 742.976,616.942 746.885,620.355 750.793,623.684 754.701,626.96 758.609,630.191 
  762.517,633.369 766.426,636.469 770.334,639.453 774.242,642.274 778.15,644.884 782.059,647.238 785.967,649.304 789.875,651.064 793.783,652.52 797.691,653.691 
  801.6,654.612 805.508,655.329 809.416,655.89 813.324,656.341 817.232,656.718 821.141,657.044 825.049,657.328 828.957,657.568 832.865,657.754 836.773,657.876 
  840.682,657.927 844.59,657.91 848.498,657.838 852.406,657.732 856.314,657.615 860.223,657.512 864.131,657.436 868.039,657.388 871.947,657.353 875.855,657.304 
  879.764,657.205 883.672,657.019 887.58,656.718 891.488,656.292 895.396,655.752 899.305,655.133 903.213,654.492 907.121,653.896 911.029,653.418 914.937,653.12 
  918.846,653.044 922.754,653.204 926.662,653.586 930.57,654.139 934.479,654.792 938.387,655.455 942.295,656.033 946.203,656.437 950.111,656.594 954.02,656.458 
  957.928,656.014 961.836,655.283 965.744,654.313 969.652,653.184 973.561,651.99 977.469,650.834 981.377,649.819 985.285,649.034 989.193,648.55 993.102,648.41 
  997.01,648.635 1000.92,649.218 1004.83,650.127 1008.73,651.311 1012.64,652.705 1016.55,654.23 1020.46,655.804 1024.37,657.343 1028.28,658.768 1032.18,660.013 
  1036.09,661.024 1040,661.767 1043.91,662.231 1047.82,662.425 1051.72,662.377 1055.63,662.133 1059.54,661.745 1063.45,661.271 1067.36,660.764 1071.27,660.271 
  1075.17,659.828 1079.08,659.457 1082.99,659.173 1086.9,658.984 1090.81,658.894 1094.71,658.906 1098.62,659.027 1102.53,659.263 1106.44,659.62 1110.35,660.103 
  
  "/>
<polyline clip-path="url(#clip2302)" style="stroke:#0000ff; stroke-width:4; stroke-opacity:1; fill:none" points="
  490.623,669.355 490.623,119.965 
  "/>
<polyline clip-path="url(#clip2302)" style="stroke:#000000; stroke-width:4; stroke-opacity:1; fill:none" points="
  471.868,669.355 471.868,70.8271 
  "/>
<polygon clip-path="url(#clip2300)" points="
1327.14,687.475 2352.76,687.475 2352.76,47.2441 1327.14,47.2441 
  " fill="#ffffff" fill-rule="evenodd" fill-opacity="1"/>
<defs>
  <clipPath id="clip2303">
    <rect x="1327" y="47" width="1027" height="641"/>
  </clipPath>
</defs>
<polyline clip-path="url(#clip2303)" style="stroke:#000000; stroke-width:2; stroke-opacity:0.1; fill:none" points="
  1527.41,687.475 1527.41,47.2441 
  "/>
<polyline clip-path="url(#clip2303)" style="stroke:#000000; stroke-width:2; stroke-opacity:0.1; fill:none" points="
  1727.76,687.475 1727.76,47.2441 
  "/>
<polyline clip-path="url(#clip2303)" style="stroke:#000000; stroke-width:2; stroke-opacity:0.1; fill:none" points="
  1928.11,687.475 1928.11,47.2441 
  "/>
<polyline clip-path="url(#clip2303)" style="stroke:#000000; stroke-width:2; stroke-opacity:0.1; fill:none" points="
  2128.46,687.475 2128.46,47.2441 
  "/>
<polyline clip-path="url(#clip2303)" style="stroke:#000000; stroke-width:2; stroke-opacity:0.1; fill:none" points="
  2328.81,687.475 2328.81,47.2441 
  "/>
<polyline clip-path="url(#clip2303)" style="stroke:#000000; stroke-width:2; stroke-opacity:0.1; fill:none" points="
  1327.14,669.355 2352.76,669.355 
  "/>
<polyline clip-path="url(#clip2303)" style="stroke:#000000; stroke-width:2; stroke-opacity:0.1; fill:none" points="
  1327.14,475.501 2352.76,475.501 
  "/>
<polyline clip-path="url(#clip2303)" style="stroke:#000000; stroke-width:2; stroke-opacity:0.1; fill:none" points="
  1327.14,281.648 2352.76,281.648 
  "/>
<polyline clip-path="url(#clip2303)" style="stroke:#000000; stroke-width:2; stroke-opacity:0.1; fill:none" points="
  1327.14,87.7944 2352.76,87.7944 
  "/>
<polyline clip-path="url(#clip2300)" style="stroke:#000000; stroke-width:4; stroke-opacity:1; fill:none" points="
  1327.14,687.475 2352.76,687.475 
  "/>
<polyline clip-path="url(#clip2300)" style="stroke:#000000; stroke-width:4; stroke-opacity:1; fill:none" points="
  1327.14,687.475 1327.14,47.2441 
  "/>
<polyline clip-path="url(#clip2300)" style="stroke:#000000; stroke-width:4; stroke-opacity:1; fill:none" points="
  1527.41,687.475 1527.41,677.871 
  "/>
<polyline clip-path="url(#clip2300)" style="stroke:#000000; stroke-width:4; stroke-opacity:1; fill:none" points="
  1727.76,687.475 1727.76,677.871 
  "/>
<polyline clip-path="url(#clip2300)" style="stroke:#000000; stroke-width:4; stroke-opacity:1; fill:none" points="
  1928.11,687.475 1928.11,677.871 
  "/>
<polyline clip-path="url(#clip2300)" style="stroke:#000000; stroke-width:4; stroke-opacity:1; fill:none" points="
  2128.46,687.475 2128.46,677.871 
  "/>
<polyline clip-path="url(#clip2300)" style="stroke:#000000; stroke-width:4; stroke-opacity:1; fill:none" points="
  2328.81,687.475 2328.81,677.871 
  "/>
<polyline clip-path="url(#clip2300)" style="stroke:#000000; stroke-width:4; stroke-opacity:1; fill:none" points="
  1327.14,669.355 1342.52,669.355 
  "/>
<polyline clip-path="url(#clip2300)" style="stroke:#000000; stroke-width:4; stroke-opacity:1; fill:none" points="
  1327.14,475.501 1342.52,475.501 
  "/>
<polyline clip-path="url(#clip2300)" style="stroke:#000000; stroke-width:4; stroke-opacity:1; fill:none" points="
  1327.14,281.648 1342.52,281.648 
  "/>
<polyline clip-path="url(#clip2300)" style="stroke:#000000; stroke-width:4; stroke-opacity:1; fill:none" points="
  1327.14,87.7944 1342.52,87.7944 
  "/>
<g clip-path="url(#clip2300)">
<text style="fill:#000000; fill-opacity:1; font-family:Arial,Helvetica Neue,Helvetica,sans-serif; font-size:48px; text-anchor:middle;" transform="rotate(0, 1527.41, 741.475)" x="1527.41" y="741.475">0.900</text>
</g>
<g clip-path="url(#clip2300)">
<text style="fill:#000000; fill-opacity:1; font-family:Arial,Helvetica Neue,Helvetica,sans-serif; font-size:48px; text-anchor:middle;" transform="rotate(0, 1727.76, 741.475)" x="1727.76" y="741.475">0.925</text>
</g>
<g clip-path="url(#clip2300)">
<text style="fill:#000000; fill-opacity:1; font-family:Arial,Helvetica Neue,Helvetica,sans-serif; font-size:48px; text-anchor:middle;" transform="rotate(0, 1928.11, 741.475)" x="1928.11" y="741.475">0.950</text>
</g>
<g clip-path="url(#clip2300)">
<text style="fill:#000000; fill-opacity:1; font-family:Arial,Helvetica Neue,Helvetica,sans-serif; font-size:48px; text-anchor:middle;" transform="rotate(0, 2128.46, 741.475)" x="2128.46" y="741.475">0.975</text>
</g>
<g clip-path="url(#clip2300)">
<text style="fill:#000000; fill-opacity:1; font-family:Arial,Helvetica Neue,Helvetica,sans-serif; font-size:48px; text-anchor:middle;" transform="rotate(0, 2328.81, 741.475)" x="2328.81" y="741.475">1.000</text>
</g>
<g clip-path="url(#clip2300)">
<text style="fill:#000000; fill-opacity:1; font-family:Arial,Helvetica Neue,Helvetica,sans-serif; font-size:48px; text-anchor:end;" transform="rotate(0, 1303.14, 686.855)" x="1303.14" y="686.855">0</text>
</g>
<g clip-path="url(#clip2300)">
<text style="fill:#000000; fill-opacity:1; font-family:Arial,Helvetica Neue,Helvetica,sans-serif; font-size:48px; text-anchor:end;" transform="rotate(0, 1303.14, 493.001)" x="1303.14" y="493.001">5</text>
</g>
<g clip-path="url(#clip2300)">
<text style="fill:#000000; fill-opacity:1; font-family:Arial,Helvetica Neue,Helvetica,sans-serif; font-size:48px; text-anchor:end;" transform="rotate(0, 1303.14, 299.148)" x="1303.14" y="299.148">10</text>
</g>
<g clip-path="url(#clip2300)">
<text style="fill:#000000; fill-opacity:1; font-family:Arial,Helvetica Neue,Helvetica,sans-serif; font-size:48px; text-anchor:end;" transform="rotate(0, 1303.14, 105.294)" x="1303.14" y="105.294">15</text>
</g>
<polygon clip-path="url(#clip2303)" points="
1356.16,663.867 1359.33,663.692 1362.49,663.527 1365.66,663.373 1368.82,663.228 1371.99,663.091 1375.15,662.96 1378.32,662.832 1381.49,662.705 1384.65,662.575 
  1387.82,662.438 1390.98,662.29 1394.15,662.128 1397.31,661.946 1400.48,661.741 1403.64,661.507 1406.81,661.242 1409.97,660.94 1413.14,660.599 1416.3,660.216 
  1419.47,659.788 1422.64,659.313 1425.8,658.791 1428.97,658.22 1432.13,657.602 1435.3,656.938 1438.46,656.229 1441.63,655.478 1444.79,654.689 1447.96,653.866 
  1451.12,653.013 1454.29,652.134 1457.45,651.235 1460.62,650.321 1463.79,649.396 1466.95,648.465 1470.12,647.532 1473.28,646.6 1476.45,645.673 1479.61,644.752 
  1482.78,643.839 1485.94,642.932 1489.11,642.031 1492.27,641.134 1495.44,640.237 1498.6,639.334 1501.77,638.422 1504.94,637.492 1508.1,636.538 1511.27,635.552 
  1514.43,634.524 1517.6,633.446 1520.76,632.309 1523.93,631.104 1527.09,629.822 1530.26,628.454 1533.42,626.994 1536.59,625.433 1539.75,623.766 1542.92,621.988 
  1546.09,620.096 1549.25,618.087 1552.42,615.961 1555.58,613.717 1558.75,611.359 1561.91,608.889 1565.08,606.313 1568.24,603.637 1571.41,600.869 1574.57,598.018 
  1577.74,595.093 1580.9,592.106 1584.07,589.066 1587.24,585.986 1590.4,582.878 1593.57,579.752 1596.73,576.62 1599.9,573.493 1603.06,570.38 1606.23,567.29 
  1609.39,564.23 1612.56,561.205 1615.72,558.219 1618.89,555.276 1622.05,552.374 1625.22,549.513 1628.39,546.69 1631.55,543.899 1634.72,541.133 1637.88,538.384 
  1641.05,535.642 1644.21,532.895 1647.38,530.131 1650.54,527.336 1653.71,524.496 1656.87,521.596 1660.04,518.62 1663.2,515.554 1666.37,512.381 1669.54,509.086 
  1669.54,669.355 1666.37,669.355 1663.2,669.355 1660.04,669.355 1656.87,669.355 1653.71,669.355 1650.54,669.355 1647.38,669.355 1644.21,669.355 1641.05,669.355 
  1637.88,669.355 1634.72,669.355 1631.55,669.355 1628.39,669.355 1625.22,669.355 1622.05,669.355 1618.89,669.355 1615.72,669.355 1612.56,669.355 1609.39,669.355 
  1606.23,669.355 1603.06,669.355 1599.9,669.355 1596.73,669.355 1593.57,669.355 1590.4,669.355 1587.24,669.355 1584.07,669.355 1580.9,669.355 1577.74,669.355 
  1574.57,669.355 1571.41,669.355 1568.24,669.355 1565.08,669.355 1561.91,669.355 1558.75,669.355 1555.58,669.355 1552.42,669.355 1549.25,669.355 1546.09,669.355 
  1542.92,669.355 1539.75,669.355 1536.59,669.355 1533.42,669.355 1530.26,669.355 1527.09,669.355 1523.93,669.355 1520.76,669.355 1517.6,669.355 1514.43,669.355 
  1511.27,669.355 1508.1,669.355 1504.94,669.355 1501.77,669.355 1498.6,669.355 1495.44,669.355 1492.27,669.355 1489.11,669.355 1485.94,669.355 1482.78,669.355 
  1479.61,669.355 1476.45,669.355 1473.28,669.355 1470.12,669.355 1466.95,669.355 1463.79,669.355 1460.62,669.355 1457.45,669.355 1454.29,669.355 1451.12,669.355 
  1447.96,669.355 1444.79,669.355 1441.63,669.355 1438.46,669.355 1435.3,669.355 1432.13,669.355 1428.97,669.355 1425.8,669.355 1422.64,669.355 1419.47,669.355 
  1416.3,669.355 1413.14,669.355 1409.97,669.355 1406.81,669.355 1403.64,669.355 1400.48,669.355 1397.31,669.355 1394.15,669.355 1390.98,669.355 1387.82,669.355 
  1384.65,669.355 1381.49,669.355 1378.32,669.355 1375.15,669.355 1371.99,669.355 1368.82,669.355 1365.66,669.355 1362.49,669.355 1359.33,669.355 1356.16,669.355 
  
  " fill="#ffa500" fill-rule="evenodd" fill-opacity="0.5"/>
<polyline clip-path="url(#clip2303)" style="stroke:#ffa500; stroke-width:4; stroke-opacity:1; fill:none" points="
  1356.16,663.867 1359.33,663.692 1362.49,663.527 1365.66,663.373 1368.82,663.228 1371.99,663.091 1375.15,662.96 1378.32,662.832 1381.49,662.705 1384.65,662.575 
  1387.82,662.438 1390.98,662.29 1394.15,662.128 1397.31,661.946 1400.48,661.741 1403.64,661.507 1406.81,661.242 1409.97,660.94 1413.14,660.599 1416.3,660.216 
  1419.47,659.788 1422.64,659.313 1425.8,658.791 1428.97,658.22 1432.13,657.602 1435.3,656.938 1438.46,656.229 1441.63,655.478 1444.79,654.689 1447.96,653.866 
  1451.12,653.013 1454.29,652.134 1457.45,651.235 1460.62,650.321 1463.79,649.396 1466.95,648.465 1470.12,647.532 1473.28,646.6 1476.45,645.673 1479.61,644.752 
  1482.78,643.839 1485.94,642.932 1489.11,642.031 1492.27,641.134 1495.44,640.237 1498.6,639.334 1501.77,638.422 1504.94,637.492 1508.1,636.538 1511.27,635.552 
  1514.43,634.524 1517.6,633.446 1520.76,632.309 1523.93,631.104 1527.09,629.822 1530.26,628.454 1533.42,626.994 1536.59,625.433 1539.75,623.766 1542.92,621.988 
  1546.09,620.096 1549.25,618.087 1552.42,615.961 1555.58,613.717 1558.75,611.359 1561.91,608.889 1565.08,606.313 1568.24,603.637 1571.41,600.869 1574.57,598.018 
  1577.74,595.093 1580.9,592.106 1584.07,589.066 1587.24,585.986 1590.4,582.878 1593.57,579.752 1596.73,576.62 1599.9,573.493 1603.06,570.38 1606.23,567.29 
  1609.39,564.23 1612.56,561.205 1615.72,558.219 1618.89,555.276 1622.05,552.374 1625.22,549.513 1628.39,546.69 1631.55,543.899 1634.72,541.133 1637.88,538.384 
  1641.05,535.642 1644.21,532.895 1647.38,530.131 1650.54,527.336 1653.71,524.496 1656.87,521.596 1660.04,518.62 1663.2,515.554 1666.37,512.381 1669.54,509.086 
  
  "/>
<polygon clip-path="url(#clip2303)" points="
1669.54,509.086 1675.72,502.239 1681.91,494.764 1688.09,486.564 1694.27,477.559 1700.46,467.688 1706.64,456.912 1712.83,445.22 1719.01,432.63 1725.2,419.188 
  1731.38,404.973 1737.57,390.091 1743.75,374.672 1749.94,358.866 1756.12,342.838 1762.31,326.76 1768.49,310.812 1774.68,295.17 1780.86,280.009 1787.05,265.499 
  1793.23,251.798 1799.42,239.051 1805.6,227.381 1811.79,216.879 1817.97,207.596 1824.16,199.532 1830.34,192.628 1836.53,186.761 1842.71,181.745 1848.9,177.336 
  1855.08,173.247 1861.27,169.172 1867.45,164.802 1873.64,159.863 1879.82,154.135 1886.01,147.482 1892.19,139.867 1898.38,131.361 1904.56,122.145 1910.75,112.499 
  1916.93,102.78 1923.12,93.3954 1929.3,84.7747 1935.49,77.3314 1941.67,71.4339 1947.86,67.3774 1954.04,65.3638 1960.23,65.4898 1966.41,67.7427 1972.6,72.0058 
  1978.78,78.0692 1984.97,85.6474 1991.15,94.3989 1997.34,103.949 2003.52,113.911 2009.71,123.911 2015.89,133.6 2022.08,142.68 2028.26,150.908 2034.45,158.114 
  2040.63,164.198 2046.82,169.135 2053,172.968 2059.19,175.801 2065.37,177.781 2071.56,179.088 2077.74,179.917 2083.93,180.458 2090.11,180.887 2096.29,181.355 
  2102.48,181.977 2108.66,182.838 2114.85,183.984 2121.03,185.435 2127.22,187.186 2133.4,189.212 2139.59,191.477 2145.77,193.939 2151.96,196.552 2158.14,199.269 
  2164.33,202.049 2170.51,204.853 2176.7,207.653 2182.88,210.434 2189.07,213.193 2195.25,215.947 2201.44,218.737 2207.62,221.629 2213.81,224.716 2219.99,228.125 
  2226.18,232.012 2232.36,236.559 2238.55,241.977 2244.73,248.492 2250.92,256.335 2257.1,265.731 2263.29,276.882 2269.47,289.947 2275.66,305.024 2281.84,322.136 
  2281.84,669.355 2275.66,669.355 2269.47,669.355 2263.29,669.355 2257.1,669.355 2250.92,669.355 2244.73,669.355 2238.55,669.355 2232.36,669.355 2226.18,669.355 
  2219.99,669.355 2213.81,669.355 2207.62,669.355 2201.44,669.355 2195.25,669.355 2189.07,669.355 2182.88,669.355 2176.7,669.355 2170.51,669.355 2164.33,669.355 
  2158.14,669.355 2151.96,669.355 2145.77,669.355 2139.59,669.355 2133.4,669.355 2127.22,669.355 2121.03,669.355 2114.85,669.355 2108.66,669.355 2102.48,669.355 
  2096.29,669.355 2090.11,669.355 2083.93,669.355 2077.74,669.355 2071.56,669.355 2065.37,669.355 2059.19,669.355 2053,669.355 2046.82,669.355 2040.63,669.355 
  2034.45,669.355 2028.26,669.355 2022.08,669.355 2015.89,669.355 2009.71,669.355 2003.52,669.355 1997.34,669.355 1991.15,669.355 1984.97,669.355 1978.78,669.355 
  1972.6,669.355 1966.41,669.355 1960.23,669.355 1954.04,669.355 1947.86,669.355 1941.67,669.355 1935.49,669.355 1929.3,669.355 1923.12,669.355 1916.93,669.355 
  1910.75,669.355 1904.56,669.355 1898.38,669.355 1892.19,669.355 1886.01,669.355 1879.82,669.355 1873.64,669.355 1867.45,669.355 1861.27,669.355 1855.08,669.355 
  1848.9,669.355 1842.71,669.355 1836.53,669.355 1830.34,669.355 1824.16,669.355 1817.97,669.355 1811.79,669.355 1805.6,669.355 1799.42,669.355 1793.23,669.355 
  1787.05,669.355 1780.86,669.355 1774.68,669.355 1768.49,669.355 1762.31,669.355 1756.12,669.355 1749.94,669.355 1743.75,669.355 1737.57,669.355 1731.38,669.355 
  1725.2,669.355 1719.01,669.355 1712.83,669.355 1706.64,669.355 1700.46,669.355 1694.27,669.355 1688.09,669.355 1681.91,669.355 1675.72,669.355 1669.54,669.355 
  
  " fill="#008000" fill-rule="evenodd" fill-opacity="0.5"/>
<polyline clip-path="url(#clip2303)" style="stroke:#008000; stroke-width:4; stroke-opacity:1; fill:none" points="
  1669.54,509.086 1675.72,502.239 1681.91,494.764 1688.09,486.564 1694.27,477.559 1700.46,467.688 1706.64,456.912 1712.83,445.22 1719.01,432.63 1725.2,419.188 
  1731.38,404.973 1737.57,390.091 1743.75,374.672 1749.94,358.866 1756.12,342.838 1762.31,326.76 1768.49,310.812 1774.68,295.17 1780.86,280.009 1787.05,265.499 
  1793.23,251.798 1799.42,239.051 1805.6,227.381 1811.79,216.879 1817.97,207.596 1824.16,199.532 1830.34,192.628 1836.53,186.761 1842.71,181.745 1848.9,177.336 
  1855.08,173.247 1861.27,169.172 1867.45,164.802 1873.64,159.863 1879.82,154.135 1886.01,147.482 1892.19,139.867 1898.38,131.361 1904.56,122.145 1910.75,112.499 
  1916.93,102.78 1923.12,93.3954 1929.3,84.7747 1935.49,77.3314 1941.67,71.4339 1947.86,67.3774 1954.04,65.3638 1960.23,65.4898 1966.41,67.7427 1972.6,72.0058 
  1978.78,78.0692 1984.97,85.6474 1991.15,94.3989 1997.34,103.949 2003.52,113.911 2009.71,123.911 2015.89,133.6 2022.08,142.68 2028.26,150.908 2034.45,158.114 
  2040.63,164.198 2046.82,169.135 2053,172.968 2059.19,175.801 2065.37,177.781 2071.56,179.088 2077.74,179.917 2083.93,180.458 2090.11,180.887 2096.29,181.355 
  2102.48,181.977 2108.66,182.838 2114.85,183.984 2121.03,185.435 2127.22,187.186 2133.4,189.212 2139.59,191.477 2145.77,193.939 2151.96,196.552 2158.14,199.269 
  2164.33,202.049 2170.51,204.853 2176.7,207.653 2182.88,210.434 2189.07,213.193 2195.25,215.947 2201.44,218.737 2207.62,221.629 2213.81,224.716 2219.99,228.125 
  2226.18,232.012 2232.36,236.559 2238.55,241.977 2244.73,248.492 2250.92,256.335 2257.1,265.731 2263.29,276.882 2269.47,289.947 2275.66,305.024 2281.84,322.136 
  
  "/>
<polygon clip-path="url(#clip2303)" points="
2281.84,322.136 2282.27,323.38 2282.69,324.633 2283.11,325.895 2283.53,327.167 2283.96,328.447 2284.38,329.736 2284.8,331.035 2285.23,332.342 2285.65,333.658 
  2286.07,334.984 2286.5,336.317 2286.92,337.66 2287.34,339.011 2287.77,340.371 2288.19,341.739 2288.61,343.116 2289.04,344.501 2289.46,345.895 2289.88,347.297 
  2290.3,348.706 2290.73,350.124 2291.15,351.55 2291.57,352.984 2292,354.426 2292.42,355.876 2292.84,357.333 2293.27,358.798 2293.69,360.27 2294.11,361.749 
  2294.54,363.236 2294.96,364.731 2295.38,366.232 2295.8,367.74 2296.23,369.255 2296.65,370.777 2297.07,372.305 2297.5,373.841 2297.92,375.382 2298.34,376.93 
  2298.77,378.484 2299.19,380.045 2299.61,381.611 2300.04,383.183 2300.46,384.761 2300.88,386.344 2301.3,387.933 2301.73,389.528 2302.15,391.127 2302.57,392.732 
  2303,394.342 2303.42,395.957 2303.84,397.576 2304.27,399.2 2304.69,400.828 2305.11,402.461 2305.54,404.098 2305.96,405.739 2306.38,407.384 2306.81,409.033 
  2307.23,410.685 2307.65,412.341 2308.07,414 2308.5,415.662 2308.92,417.327 2309.34,418.995 2309.77,420.666 2310.19,422.34 2310.61,424.016 2311.04,425.694 
  2311.46,427.374 2311.88,429.057 2312.31,430.741 2312.73,432.427 2313.15,434.114 2313.57,435.803 2314,437.493 2314.42,439.184 2314.84,440.876 2315.27,442.569 
  2315.69,444.262 2316.11,445.956 2316.54,447.65 2316.96,449.344 2317.38,451.038 2317.81,452.732 2318.23,454.425 2318.65,456.118 2319.07,457.811 2319.5,459.502 
  2319.92,461.193 2320.34,462.882 2320.77,464.571 2321.19,466.258 2321.61,467.943 2322.04,469.626 2322.46,471.308 2322.88,472.987 2323.31,474.665 2323.73,476.339 
  2323.73,669.355 2323.31,669.355 2322.88,669.355 2322.46,669.355 2322.04,669.355 2321.61,669.355 2321.19,669.355 2320.77,669.355 2320.34,669.355 2319.92,669.355 
  2319.5,669.355 2319.07,669.355 2318.65,669.355 2318.23,669.355 2317.81,669.355 2317.38,669.355 2316.96,669.355 2316.54,669.355 2316.11,669.355 2315.69,669.355 
  2315.27,669.355 2314.84,669.355 2314.42,669.355 2314,669.355 2313.57,669.355 2313.15,669.355 2312.73,669.355 2312.31,669.355 2311.88,669.355 2311.46,669.355 
  2311.04,669.355 2310.61,669.355 2310.19,669.355 2309.77,669.355 2309.34,669.355 2308.92,669.355 2308.5,669.355 2308.07,669.355 2307.65,669.355 2307.23,669.355 
  2306.81,669.355 2306.38,669.355 2305.96,669.355 2305.54,669.355 2305.11,669.355 2304.69,669.355 2304.27,669.355 2303.84,669.355 2303.42,669.355 2303,669.355 
  2302.57,669.355 2302.15,669.355 2301.73,669.355 2301.3,669.355 2300.88,669.355 2300.46,669.355 2300.04,669.355 2299.61,669.355 2299.19,669.355 2298.77,669.355 
  2298.34,669.355 2297.92,669.355 2297.5,669.355 2297.07,669.355 2296.65,669.355 2296.23,669.355 2295.8,669.355 2295.38,669.355 2294.96,669.355 2294.54,669.355 
  2294.11,669.355 2293.69,669.355 2293.27,669.355 2292.84,669.355 2292.42,669.355 2292,669.355 2291.57,669.355 2291.15,669.355 2290.73,669.355 2290.3,669.355 
  2289.88,669.355 2289.46,669.355 2289.04,669.355 2288.61,669.355 2288.19,669.355 2287.77,669.355 2287.34,669.355 2286.92,669.355 2286.5,669.355 2286.07,669.355 
  2285.65,669.355 2285.23,669.355 2284.8,669.355 2284.38,669.355 2283.96,669.355 2283.53,669.355 2283.11,669.355 2282.69,669.355 2282.27,669.355 2281.84,669.355 
  
  " fill="#ffa500" fill-rule="evenodd" fill-opacity="0.5"/>
<polyline clip-path="url(#clip2303)" style="stroke:#ffa500; stroke-width:4; stroke-opacity:1; fill:none" points="
  2281.84,322.136 2282.27,323.38 2282.69,324.633 2283.11,325.895 2283.53,327.167 2283.96,328.447 2284.38,329.736 2284.8,331.035 2285.23,332.342 2285.65,333.658 
  2286.07,334.984 2286.5,336.317 2286.92,337.66 2287.34,339.011 2287.77,340.371 2288.19,341.739 2288.61,343.116 2289.04,344.501 2289.46,345.895 2289.88,347.297 
  2290.3,348.706 2290.73,350.124 2291.15,351.55 2291.57,352.984 2292,354.426 2292.42,355.876 2292.84,357.333 2293.27,358.798 2293.69,360.27 2294.11,361.749 
  2294.54,363.236 2294.96,364.731 2295.38,366.232 2295.8,367.74 2296.23,369.255 2296.65,370.777 2297.07,372.305 2297.5,373.841 2297.92,375.382 2298.34,376.93 
  2298.77,378.484 2299.19,380.045 2299.61,381.611 2300.04,383.183 2300.46,384.761 2300.88,386.344 2301.3,387.933 2301.73,389.528 2302.15,391.127 2302.57,392.732 
  2303,394.342 2303.42,395.957 2303.84,397.576 2304.27,399.2 2304.69,400.828 2305.11,402.461 2305.54,404.098 2305.96,405.739 2306.38,407.384 2306.81,409.033 
  2307.23,410.685 2307.65,412.341 2308.07,414 2308.5,415.662 2308.92,417.327 2309.34,418.995 2309.77,420.666 2310.19,422.34 2310.61,424.016 2311.04,425.694 
  2311.46,427.374 2311.88,429.057 2312.31,430.741 2312.73,432.427 2313.15,434.114 2313.57,435.803 2314,437.493 2314.42,439.184 2314.84,440.876 2315.27,442.569 
  2315.69,444.262 2316.11,445.956 2316.54,447.65 2316.96,449.344 2317.38,451.038 2317.81,452.732 2318.23,454.425 2318.65,456.118 2319.07,457.811 2319.5,459.502 
  2319.92,461.193 2320.34,462.882 2320.77,464.571 2321.19,466.258 2321.61,467.943 2322.04,469.626 2322.46,471.308 2322.88,472.987 2323.31,474.665 2323.73,476.339 
  
  "/>
<polyline clip-path="url(#clip2303)" style="stroke:#0000ff; stroke-width:4; stroke-opacity:1; fill:none" points="
  1990,669.355 1990,92.6961 
  "/>
<polyline clip-path="url(#clip2303)" style="stroke:#000000; stroke-width:4; stroke-opacity:1; fill:none" points="
  1987.64,669.355 1987.64,89.3095 
  "/>
<polygon clip-path="url(#clip2300)" points="
113.754,1487.47 1139.37,1487.47 1139.37,847.244 113.754,847.244 
  " fill="#ffffff" fill-rule="evenodd" fill-opacity="1"/>
<defs>
  <clipPath id="clip2304">
    <rect x="113" y="847" width="1027" height="641"/>
  </clipPath>
</defs>
<polyline clip-path="url(#clip2304)" style="stroke:#000000; stroke-width:2; stroke-opacity:0.1; fill:none" points="
  248.199,1487.47 248.199,847.244 
  "/>
<polyline clip-path="url(#clip2304)" style="stroke:#000000; stroke-width:2; stroke-opacity:0.1; fill:none" points="
  464.353,1487.47 464.353,847.244 
  "/>
<polyline clip-path="url(#clip2304)" style="stroke:#000000; stroke-width:2; stroke-opacity:0.1; fill:none" points="
  680.507,1487.47 680.507,847.244 
  "/>
<polyline clip-path="url(#clip2304)" style="stroke:#000000; stroke-width:2; stroke-opacity:0.1; fill:none" points="
  896.66,1487.47 896.66,847.244 
  "/>
<polyline clip-path="url(#clip2304)" style="stroke:#000000; stroke-width:2; stroke-opacity:0.1; fill:none" points="
  1112.81,1487.47 1112.81,847.244 
  "/>
<polyline clip-path="url(#clip2304)" style="stroke:#000000; stroke-width:2; stroke-opacity:0.1; fill:none" points="
  113.754,1469.35 1139.37,1469.35 
  "/>
<polyline clip-path="url(#clip2304)" style="stroke:#000000; stroke-width:2; stroke-opacity:0.1; fill:none" points="
  113.754,1346.96 1139.37,1346.96 
  "/>
<polyline clip-path="url(#clip2304)" style="stroke:#000000; stroke-width:2; stroke-opacity:0.1; fill:none" points="
  113.754,1224.57 1139.37,1224.57 
  "/>
<polyline clip-path="url(#clip2304)" style="stroke:#000000; stroke-width:2; stroke-opacity:0.1; fill:none" points="
  113.754,1102.18 1139.37,1102.18 
  "/>
<polyline clip-path="url(#clip2304)" style="stroke:#000000; stroke-width:2; stroke-opacity:0.1; fill:none" points="
  113.754,979.792 1139.37,979.792 
  "/>
<polyline clip-path="url(#clip2304)" style="stroke:#000000; stroke-width:2; stroke-opacity:0.1; fill:none" points="
  113.754,857.401 1139.37,857.401 
  "/>
<polyline clip-path="url(#clip2300)" style="stroke:#000000; stroke-width:4; stroke-opacity:1; fill:none" points="
  113.754,1487.47 1139.37,1487.47 
  "/>
<polyline clip-path="url(#clip2300)" style="stroke:#000000; stroke-width:4; stroke-opacity:1; fill:none" points="
  113.754,1487.47 113.754,847.244 
  "/>
<polyline clip-path="url(#clip2300)" style="stroke:#000000; stroke-width:4; stroke-opacity:1; fill:none" points="
  248.199,1487.47 248.199,1477.87 
  "/>
<polyline clip-path="url(#clip2300)" style="stroke:#000000; stroke-width:4; stroke-opacity:1; fill:none" points="
  464.353,1487.47 464.353,1477.87 
  "/>
<polyline clip-path="url(#clip2300)" style="stroke:#000000; stroke-width:4; stroke-opacity:1; fill:none" points="
  680.507,1487.47 680.507,1477.87 
  "/>
<polyline clip-path="url(#clip2300)" style="stroke:#000000; stroke-width:4; stroke-opacity:1; fill:none" points="
  896.66,1487.47 896.66,1477.87 
  "/>
<polyline clip-path="url(#clip2300)" style="stroke:#000000; stroke-width:4; stroke-opacity:1; fill:none" points="
  1112.81,1487.47 1112.81,1477.87 
  "/>
<polyline clip-path="url(#clip2300)" style="stroke:#000000; stroke-width:4; stroke-opacity:1; fill:none" points="
  113.754,1469.35 129.139,1469.35 
  "/>
<polyline clip-path="url(#clip2300)" style="stroke:#000000; stroke-width:4; stroke-opacity:1; fill:none" points="
  113.754,1346.96 129.139,1346.96 
  "/>
<polyline clip-path="url(#clip2300)" style="stroke:#000000; stroke-width:4; stroke-opacity:1; fill:none" points="
  113.754,1224.57 129.139,1224.57 
  "/>
<polyline clip-path="url(#clip2300)" style="stroke:#000000; stroke-width:4; stroke-opacity:1; fill:none" points="
  113.754,1102.18 129.139,1102.18 
  "/>
<polyline clip-path="url(#clip2300)" style="stroke:#000000; stroke-width:4; stroke-opacity:1; fill:none" points="
  113.754,979.792 129.139,979.792 
  "/>
<polyline clip-path="url(#clip2300)" style="stroke:#000000; stroke-width:4; stroke-opacity:1; fill:none" points="
  113.754,857.401 129.139,857.401 
  "/>
<g clip-path="url(#clip2300)">
<text style="fill:#000000; fill-opacity:1; font-family:Arial,Helvetica Neue,Helvetica,sans-serif; font-size:48px; text-anchor:middle;" transform="rotate(0, 248.199, 1541.47)" x="248.199" y="1541.47">0.1</text>
</g>
<g clip-path="url(#clip2300)">
<text style="fill:#000000; fill-opacity:1; font-family:Arial,Helvetica Neue,Helvetica,sans-serif; font-size:48px; text-anchor:middle;" transform="rotate(0, 464.353, 1541.47)" x="464.353" y="1541.47">0.2</text>
</g>
<g clip-path="url(#clip2300)">
<text style="fill:#000000; fill-opacity:1; font-family:Arial,Helvetica Neue,Helvetica,sans-serif; font-size:48px; text-anchor:middle;" transform="rotate(0, 680.507, 1541.47)" x="680.507" y="1541.47">0.3</text>
</g>
<g clip-path="url(#clip2300)">
<text style="fill:#000000; fill-opacity:1; font-family:Arial,Helvetica Neue,Helvetica,sans-serif; font-size:48px; text-anchor:middle;" transform="rotate(0, 896.66, 1541.47)" x="896.66" y="1541.47">0.4</text>
</g>
<g clip-path="url(#clip2300)">
<text style="fill:#000000; fill-opacity:1; font-family:Arial,Helvetica Neue,Helvetica,sans-serif; font-size:48px; text-anchor:middle;" transform="rotate(0, 1112.81, 1541.47)" x="1112.81" y="1541.47">0.5</text>
</g>
<g clip-path="url(#clip2300)">
<text style="fill:#000000; fill-opacity:1; font-family:Arial,Helvetica Neue,Helvetica,sans-serif; font-size:48px; text-anchor:end;" transform="rotate(0, 89.7545, 1486.85)" x="89.7545" y="1486.85">0</text>
</g>
<g clip-path="url(#clip2300)">
<text style="fill:#000000; fill-opacity:1; font-family:Arial,Helvetica Neue,Helvetica,sans-serif; font-size:48px; text-anchor:end;" transform="rotate(0, 89.7545, 1364.46)" x="89.7545" y="1364.46">1</text>
</g>
<g clip-path="url(#clip2300)">
<text style="fill:#000000; fill-opacity:1; font-family:Arial,Helvetica Neue,Helvetica,sans-serif; font-size:48px; text-anchor:end;" transform="rotate(0, 89.7545, 1242.07)" x="89.7545" y="1242.07">2</text>
</g>
<g clip-path="url(#clip2300)">
<text style="fill:#000000; fill-opacity:1; font-family:Arial,Helvetica Neue,Helvetica,sans-serif; font-size:48px; text-anchor:end;" transform="rotate(0, 89.7545, 1119.68)" x="89.7545" y="1119.68">3</text>
</g>
<g clip-path="url(#clip2300)">
<text style="fill:#000000; fill-opacity:1; font-family:Arial,Helvetica Neue,Helvetica,sans-serif; font-size:48px; text-anchor:end;" transform="rotate(0, 89.7545, 997.292)" x="89.7545" y="997.292">4</text>
</g>
<g clip-path="url(#clip2300)">
<text style="fill:#000000; fill-opacity:1; font-family:Arial,Helvetica Neue,Helvetica,sans-serif; font-size:48px; text-anchor:end;" transform="rotate(0, 89.7545, 874.901)" x="89.7545" y="874.901">5</text>
</g>
<polygon clip-path="url(#clip2304)" points="
142.781,1416.23 143.787,1414.85 144.793,1413.45 145.798,1412.03 146.804,1410.6 147.81,1409.15 148.815,1407.68 149.821,1406.21 150.827,1404.71 151.832,1403.21 
  152.838,1401.69 153.843,1400.16 154.849,1398.62 155.855,1397.07 156.86,1395.51 157.866,1393.93 158.872,1392.35 159.877,1390.76 160.883,1389.17 161.889,1387.56 
  162.894,1385.95 163.9,1384.34 164.905,1382.72 165.911,1381.09 166.917,1379.46 167.922,1377.83 168.928,1376.19 169.934,1374.56 170.939,1372.92 171.945,1371.28 
  172.951,1369.65 173.956,1368.01 174.962,1366.38 175.967,1364.75 176.973,1363.12 177.979,1361.49 178.984,1359.87 179.99,1358.26 180.996,1356.65 182.001,1355.04 
  183.007,1353.44 184.013,1351.85 185.018,1350.27 186.024,1348.7 187.03,1347.13 188.035,1345.57 189.041,1344.03 190.046,1342.49 191.052,1340.97 192.058,1339.45 
  193.063,1337.95 194.069,1336.46 195.075,1334.98 196.08,1333.52 197.086,1332.07 198.092,1330.63 199.097,1329.21 200.103,1327.8 201.108,1326.41 202.114,1325.03 
  203.12,1323.67 204.125,1322.32 205.131,1320.99 206.137,1319.68 207.142,1318.39 208.148,1317.11 209.154,1315.84 210.159,1314.6 211.165,1313.37 212.17,1312.16 
  213.176,1310.97 214.182,1309.8 215.187,1308.65 216.193,1307.51 217.199,1306.4 218.204,1305.3 219.21,1304.22 220.216,1303.16 221.221,1302.12 222.227,1301.1 
  223.232,1300.1 224.238,1299.12 225.244,1298.15 226.249,1297.21 227.255,1296.29 228.261,1295.38 229.266,1294.5 230.272,1293.63 231.278,1292.78 232.283,1291.95 
  233.289,1291.14 234.294,1290.35 235.3,1289.58 236.306,1288.82 237.311,1288.08 238.317,1287.36 239.323,1286.66 240.328,1285.97 241.334,1285.3 242.34,1284.65 
  242.34,1469.35 241.334,1469.35 240.328,1469.35 239.323,1469.35 238.317,1469.35 237.311,1469.35 236.306,1469.35 235.3,1469.35 234.294,1469.35 233.289,1469.35 
  232.283,1469.35 231.278,1469.35 230.272,1469.35 229.266,1469.35 228.261,1469.35 227.255,1469.35 226.249,1469.35 225.244,1469.35 224.238,1469.35 223.232,1469.35 
  222.227,1469.35 221.221,1469.35 220.216,1469.35 219.21,1469.35 218.204,1469.35 217.199,1469.35 216.193,1469.35 215.187,1469.35 214.182,1469.35 213.176,1469.35 
  212.17,1469.35 211.165,1469.35 210.159,1469.35 209.154,1469.35 208.148,1469.35 207.142,1469.35 206.137,1469.35 205.131,1469.35 204.125,1469.35 203.12,1469.35 
  202.114,1469.35 201.108,1469.35 200.103,1469.35 199.097,1469.35 198.092,1469.35 197.086,1469.35 196.08,1469.35 195.075,1469.35 194.069,1469.35 193.063,1469.35 
  192.058,1469.35 191.052,1469.35 190.046,1469.35 189.041,1469.35 188.035,1469.35 187.03,1469.35 186.024,1469.35 185.018,1469.35 184.013,1469.35 183.007,1469.35 
  182.001,1469.35 180.996,1469.35 179.99,1469.35 178.984,1469.35 177.979,1469.35 176.973,1469.35 175.967,1469.35 174.962,1469.35 173.956,1469.35 172.951,1469.35 
  171.945,1469.35 170.939,1469.35 169.934,1469.35 168.928,1469.35 167.922,1469.35 166.917,1469.35 165.911,1469.35 164.905,1469.35 163.9,1469.35 162.894,1469.35 
  161.889,1469.35 160.883,1469.35 159.877,1469.35 158.872,1469.35 157.866,1469.35 156.86,1469.35 155.855,1469.35 154.849,1469.35 153.843,1469.35 152.838,1469.35 
  151.832,1469.35 150.827,1469.35 149.821,1469.35 148.815,1469.35 147.81,1469.35 146.804,1469.35 145.798,1469.35 144.793,1469.35 143.787,1469.35 142.781,1469.35 
  
  " fill="#ffa500" fill-rule="evenodd" fill-opacity="0.5"/>
<polyline clip-path="url(#clip2304)" style="stroke:#ffa500; stroke-width:4; stroke-opacity:1; fill:none" points="
  142.781,1416.23 143.787,1414.85 144.793,1413.45 145.798,1412.03 146.804,1410.6 147.81,1409.15 148.815,1407.68 149.821,1406.21 150.827,1404.71 151.832,1403.21 
  152.838,1401.69 153.843,1400.16 154.849,1398.62 155.855,1397.07 156.86,1395.51 157.866,1393.93 158.872,1392.35 159.877,1390.76 160.883,1389.17 161.889,1387.56 
  162.894,1385.95 163.9,1384.34 164.905,1382.72 165.911,1381.09 166.917,1379.46 167.922,1377.83 168.928,1376.19 169.934,1374.56 170.939,1372.92 171.945,1371.28 
  172.951,1369.65 173.956,1368.01 174.962,1366.38 175.967,1364.75 176.973,1363.12 177.979,1361.49 178.984,1359.87 179.99,1358.26 180.996,1356.65 182.001,1355.04 
  183.007,1353.44 184.013,1351.85 185.018,1350.27 186.024,1348.7 187.03,1347.13 188.035,1345.57 189.041,1344.03 190.046,1342.49 191.052,1340.97 192.058,1339.45 
  193.063,1337.95 194.069,1336.46 195.075,1334.98 196.08,1333.52 197.086,1332.07 198.092,1330.63 199.097,1329.21 200.103,1327.8 201.108,1326.41 202.114,1325.03 
  203.12,1323.67 204.125,1322.32 205.131,1320.99 206.137,1319.68 207.142,1318.39 208.148,1317.11 209.154,1315.84 210.159,1314.6 211.165,1313.37 212.17,1312.16 
  213.176,1310.97 214.182,1309.8 215.187,1308.65 216.193,1307.51 217.199,1306.4 218.204,1305.3 219.21,1304.22 220.216,1303.16 221.221,1302.12 222.227,1301.1 
  223.232,1300.1 224.238,1299.12 225.244,1298.15 226.249,1297.21 227.255,1296.29 228.261,1295.38 229.266,1294.5 230.272,1293.63 231.278,1292.78 232.283,1291.95 
  233.289,1291.14 234.294,1290.35 235.3,1289.58 236.306,1288.82 237.311,1288.08 238.317,1287.36 239.323,1286.66 240.328,1285.97 241.334,1285.3 242.34,1284.65 
  
  "/>
<polygon clip-path="url(#clip2304)" points="
242.34,1284.65 248.162,1281.14 253.984,1278.04 259.806,1275.21 265.629,1272.49 271.451,1269.7 277.273,1266.66 283.095,1263.19 288.918,1259.17 294.74,1254.5 
  300.562,1249.11 306.384,1243.03 312.207,1236.32 318.029,1229.09 323.851,1221.49 329.673,1213.71 335.496,1205.92 341.318,1198.28 347.14,1190.95 352.962,1184 
  358.785,1177.49 364.607,1171.38 370.429,1165.62 376.251,1160.06 382.074,1154.54 387.896,1148.86 393.718,1142.81 399.541,1136.2 405.363,1128.84 411.185,1120.6 
  417.007,1111.42 422.83,1101.28 428.652,1090.24 434.474,1078.45 440.296,1066.08 446.119,1053.4 451.941,1040.69 457.763,1028.24 463.585,1016.35 469.408,1005.25 
  475.23,995.145 481.052,986.152 486.874,978.302 492.697,971.538 498.519,965.717 504.341,960.627 510.163,956.007 515.986,951.568 521.808,947.031 527.63,942.145 
  533.452,936.721 539.275,930.648 545.097,923.903 550.919,916.56 556.741,908.783 562.564,900.81 568.386,892.937 574.208,885.493 580.031,878.812 585.853,873.211 
  591.675,868.968 597.497,866.301 603.32,865.364 609.142,866.235 614.964,868.922 620.786,873.361 626.609,879.429 632.431,886.951 638.253,895.71 644.075,905.463 
  649.898,915.946 655.72,926.892 661.542,938.041 667.364,949.152 673.187,960.017 679.009,970.467 684.831,980.388 690.653,989.721 696.476,998.466 702.298,1006.68 
  708.12,1014.48 713.942,1022.03 719.765,1029.5 725.587,1037.13 731.409,1045.11 737.231,1053.68 743.054,1063 748.876,1073.22 754.698,1084.44 760.521,1096.7 
  766.343,1109.97 772.165,1124.18 777.987,1139.19 783.81,1154.83 789.632,1170.87 795.454,1187.09 801.276,1203.27 807.099,1219.21 812.921,1234.73 818.743,1249.68 
  818.743,1469.35 812.921,1469.35 807.099,1469.35 801.276,1469.35 795.454,1469.35 789.632,1469.35 783.81,1469.35 777.987,1469.35 772.165,1469.35 766.343,1469.35 
  760.521,1469.35 754.698,1469.35 748.876,1469.35 743.054,1469.35 737.231,1469.35 731.409,1469.35 725.587,1469.35 719.765,1469.35 713.942,1469.35 708.12,1469.35 
  702.298,1469.35 696.476,1469.35 690.653,1469.35 684.831,1469.35 679.009,1469.35 673.187,1469.35 667.364,1469.35 661.542,1469.35 655.72,1469.35 649.898,1469.35 
  644.075,1469.35 638.253,1469.35 632.431,1469.35 626.609,1469.35 620.786,1469.35 614.964,1469.35 609.142,1469.35 603.32,1469.35 597.497,1469.35 591.675,1469.35 
  585.853,1469.35 580.031,1469.35 574.208,1469.35 568.386,1469.35 562.564,1469.35 556.741,1469.35 550.919,1469.35 545.097,1469.35 539.275,1469.35 533.452,1469.35 
  527.63,1469.35 521.808,1469.35 515.986,1469.35 510.163,1469.35 504.341,1469.35 498.519,1469.35 492.697,1469.35 486.874,1469.35 481.052,1469.35 475.23,1469.35 
  469.408,1469.35 463.585,1469.35 457.763,1469.35 451.941,1469.35 446.119,1469.35 440.296,1469.35 434.474,1469.35 428.652,1469.35 422.83,1469.35 417.007,1469.35 
  411.185,1469.35 405.363,1469.35 399.541,1469.35 393.718,1469.35 387.896,1469.35 382.074,1469.35 376.251,1469.35 370.429,1469.35 364.607,1469.35 358.785,1469.35 
  352.962,1469.35 347.14,1469.35 341.318,1469.35 335.496,1469.35 329.673,1469.35 323.851,1469.35 318.029,1469.35 312.207,1469.35 306.384,1469.35 300.562,1469.35 
  294.74,1469.35 288.918,1469.35 283.095,1469.35 277.273,1469.35 271.451,1469.35 265.629,1469.35 259.806,1469.35 253.984,1469.35 248.162,1469.35 242.34,1469.35 
  
  " fill="#008000" fill-rule="evenodd" fill-opacity="0.5"/>
<polyline clip-path="url(#clip2304)" style="stroke:#008000; stroke-width:4; stroke-opacity:1; fill:none" points="
  242.34,1284.65 248.162,1281.14 253.984,1278.04 259.806,1275.21 265.629,1272.49 271.451,1269.7 277.273,1266.66 283.095,1263.19 288.918,1259.17 294.74,1254.5 
  300.562,1249.11 306.384,1243.03 312.207,1236.32 318.029,1229.09 323.851,1221.49 329.673,1213.71 335.496,1205.92 341.318,1198.28 347.14,1190.95 352.962,1184 
  358.785,1177.49 364.607,1171.38 370.429,1165.62 376.251,1160.06 382.074,1154.54 387.896,1148.86 393.718,1142.81 399.541,1136.2 405.363,1128.84 411.185,1120.6 
  417.007,1111.42 422.83,1101.28 428.652,1090.24 434.474,1078.45 440.296,1066.08 446.119,1053.4 451.941,1040.69 457.763,1028.24 463.585,1016.35 469.408,1005.25 
  475.23,995.145 481.052,986.152 486.874,978.302 492.697,971.538 498.519,965.717 504.341,960.627 510.163,956.007 515.986,951.568 521.808,947.031 527.63,942.145 
  533.452,936.721 539.275,930.648 545.097,923.903 550.919,916.56 556.741,908.783 562.564,900.81 568.386,892.937 574.208,885.493 580.031,878.812 585.853,873.211 
  591.675,868.968 597.497,866.301 603.32,865.364 609.142,866.235 614.964,868.922 620.786,873.361 626.609,879.429 632.431,886.951 638.253,895.71 644.075,905.463 
  649.898,915.946 655.72,926.892 661.542,938.041 667.364,949.152 673.187,960.017 679.009,970.467 684.831,980.388 690.653,989.721 696.476,998.466 702.298,1006.68 
  708.12,1014.48 713.942,1022.03 719.765,1029.5 725.587,1037.13 731.409,1045.11 737.231,1053.68 743.054,1063 748.876,1073.22 754.698,1084.44 760.521,1096.7 
  766.343,1109.97 772.165,1124.18 777.987,1139.19 783.81,1154.83 789.632,1170.87 795.454,1187.09 801.276,1203.27 807.099,1219.21 812.921,1234.73 818.743,1249.68 
  
  "/>
<polygon clip-path="url(#clip2304)" points="
818.743,1249.68 821.689,1257 824.634,1264.15 827.58,1271.11 830.525,1277.89 833.471,1284.48 836.416,1290.88 839.362,1297.11 842.307,1303.15 845.253,1309.02 
  848.198,1314.72 851.144,1320.27 854.089,1325.65 857.035,1330.88 859.98,1335.98 862.926,1340.93 865.871,1345.75 868.817,1350.44 871.762,1355 874.708,1359.44 
  877.653,1363.76 880.599,1367.96 883.544,1372.04 886.49,1376.01 889.435,1379.86 892.381,1383.6 895.326,1387.22 898.272,1390.73 901.217,1394.13 904.163,1397.41 
  907.108,1400.59 910.054,1403.65 912.999,1406.61 915.945,1409.47 918.89,1412.22 921.836,1414.88 924.781,1417.44 927.727,1419.92 930.672,1422.3 933.618,1424.6 
  936.563,1426.82 939.509,1428.96 942.454,1431.03 945.4,1433.03 948.345,1434.95 951.291,1436.81 954.236,1438.61 957.182,1440.34 960.127,1442.01 963.073,1443.62 
  966.018,1445.16 968.964,1446.65 971.909,1448.07 974.855,1449.43 977.8,1450.73 980.746,1451.96 983.691,1453.13 986.637,1454.24 989.582,1455.28 992.528,1456.26 
  995.473,1457.18 998.419,1458.04 1001.36,1458.84 1004.31,1459.58 1007.26,1460.27 1010.2,1460.9 1013.15,1461.48 1016.09,1462.02 1019.04,1462.51 1021.98,1462.95 
  1024.93,1463.36 1027.87,1463.73 1030.82,1464.06 1033.76,1464.37 1036.71,1464.64 1039.66,1464.88 1042.6,1465.1 1045.55,1465.29 1048.49,1465.46 1051.44,1465.61 
  1054.38,1465.74 1057.33,1465.86 1060.27,1465.95 1063.22,1466.03 1066.17,1466.09 1069.11,1466.14 1072.06,1466.18 1075,1466.21 1077.95,1466.24 1080.89,1466.25 
  1083.84,1466.26 1086.78,1466.27 1089.73,1466.27 1092.67,1466.28 1095.62,1466.29 1098.57,1466.3 1101.51,1466.31 1104.46,1466.34 1107.4,1466.37 1110.35,1466.41 
  1110.35,1469.35 1107.4,1469.35 1104.46,1469.35 1101.51,1469.35 1098.57,1469.35 1095.62,1469.35 1092.67,1469.35 1089.73,1469.35 1086.78,1469.35 1083.84,1469.35 
  1080.89,1469.35 1077.95,1469.35 1075,1469.35 1072.06,1469.35 1069.11,1469.35 1066.17,1469.35 1063.22,1469.35 1060.27,1469.35 1057.33,1469.35 1054.38,1469.35 
  1051.44,1469.35 1048.49,1469.35 1045.55,1469.35 1042.6,1469.35 1039.66,1469.35 1036.71,1469.35 1033.76,1469.35 1030.82,1469.35 1027.87,1469.35 1024.93,1469.35 
  1021.98,1469.35 1019.04,1469.35 1016.09,1469.35 1013.15,1469.35 1010.2,1469.35 1007.26,1469.35 1004.31,1469.35 1001.36,1469.35 998.419,1469.35 995.473,1469.35 
  992.528,1469.35 989.582,1469.35 986.637,1469.35 983.691,1469.35 980.746,1469.35 977.8,1469.35 974.855,1469.35 971.909,1469.35 968.964,1469.35 966.018,1469.35 
  963.073,1469.35 960.127,1469.35 957.182,1469.35 954.236,1469.35 951.291,1469.35 948.345,1469.35 945.4,1469.35 942.454,1469.35 939.509,1469.35 936.563,1469.35 
  933.618,1469.35 930.672,1469.35 927.727,1469.35 924.781,1469.35 921.836,1469.35 918.89,1469.35 915.945,1469.35 912.999,1469.35 910.054,1469.35 907.108,1469.35 
  904.163,1469.35 901.217,1469.35 898.272,1469.35 895.326,1469.35 892.381,1469.35 889.435,1469.35 886.49,1469.35 883.544,1469.35 880.599,1469.35 877.653,1469.35 
  874.708,1469.35 871.762,1469.35 868.817,1469.35 865.871,1469.35 862.926,1469.35 859.98,1469.35 857.035,1469.35 854.089,1469.35 851.144,1469.35 848.198,1469.35 
  845.253,1469.35 842.307,1469.35 839.362,1469.35 836.416,1469.35 833.471,1469.35 830.525,1469.35 827.58,1469.35 824.634,1469.35 821.689,1469.35 818.743,1469.35 
  
  " fill="#ffa500" fill-rule="evenodd" fill-opacity="0.5"/>
<polyline clip-path="url(#clip2304)" style="stroke:#ffa500; stroke-width:4; stroke-opacity:1; fill:none" points="
  818.743,1249.68 821.689,1257 824.634,1264.15 827.58,1271.11 830.525,1277.89 833.471,1284.48 836.416,1290.88 839.362,1297.11 842.307,1303.15 845.253,1309.02 
  848.198,1314.72 851.144,1320.27 854.089,1325.65 857.035,1330.88 859.98,1335.98 862.926,1340.93 865.871,1345.75 868.817,1350.44 871.762,1355 874.708,1359.44 
  877.653,1363.76 880.599,1367.96 883.544,1372.04 886.49,1376.01 889.435,1379.86 892.381,1383.6 895.326,1387.22 898.272,1390.73 901.217,1394.13 904.163,1397.41 
  907.108,1400.59 910.054,1403.65 912.999,1406.61 915.945,1409.47 918.89,1412.22 921.836,1414.88 924.781,1417.44 927.727,1419.92 930.672,1422.3 933.618,1424.6 
  936.563,1426.82 939.509,1428.96 942.454,1431.03 945.4,1433.03 948.345,1434.95 951.291,1436.81 954.236,1438.61 957.182,1440.34 960.127,1442.01 963.073,1443.62 
  966.018,1445.16 968.964,1446.65 971.909,1448.07 974.855,1449.43 977.8,1450.73 980.746,1451.96 983.691,1453.13 986.637,1454.24 989.582,1455.28 992.528,1456.26 
  995.473,1457.18 998.419,1458.04 1001.36,1458.84 1004.31,1459.58 1007.26,1460.27 1010.2,1460.9 1013.15,1461.48 1016.09,1462.02 1019.04,1462.51 1021.98,1462.95 
  1024.93,1463.36 1027.87,1463.73 1030.82,1464.06 1033.76,1464.37 1036.71,1464.64 1039.66,1464.88 1042.6,1465.1 1045.55,1465.29 1048.49,1465.46 1051.44,1465.61 
  1054.38,1465.74 1057.33,1465.86 1060.27,1465.95 1063.22,1466.03 1066.17,1466.09 1069.11,1466.14 1072.06,1466.18 1075,1466.21 1077.95,1466.24 1080.89,1466.25 
  1083.84,1466.26 1086.78,1466.27 1089.73,1466.27 1092.67,1466.28 1095.62,1466.29 1098.57,1466.3 1101.51,1466.31 1104.46,1466.34 1107.4,1466.37 1110.35,1466.41 
  
  "/>
<polyline clip-path="url(#clip2304)" style="stroke:#0000ff; stroke-width:4; stroke-opacity:1; fill:none" points="
  555.655,1469.35 555.655,910.257 
  "/>
<polyline clip-path="url(#clip2304)" style="stroke:#000000; stroke-width:4; stroke-opacity:1; fill:none" points="
  570.874,1469.35 570.874,889.685 
  "/>
</svg>
