<?xml version="1.0" encoding="utf-8"?>
<svg xmlns="http://www.w3.org/2000/svg" xmlns:xlink="http://www.w3.org/1999/xlink" width="600" height="400" viewBox="0 0 2400 1600">
<defs>
  <clipPath id="clip1000">
    <rect x="0" y="0" width="2400" height="1600"/>
  </clipPath>
</defs>
<polygon clip-path="url(#clip1000)" points="
0,1600 2400,1600 2400,0 0,0 
  " fill="#ffffff" fill-rule="evenodd" fill-opacity="1"/>
<defs>
  <clipPath id="clip1001">
    <rect x="480" y="0" width="1681" height="1600"/>
  </clipPath>
</defs>
<polygon clip-path="url(#clip1000)" points="
180.66,687.475 1172.83,687.475 1172.83,47.2441 180.66,47.2441 
  " fill="#ffffff" fill-rule="evenodd" fill-opacity="1"/>
<defs>
  <clipPath id="clip1002">
    <rect x="180" y="47" width="993" height="641"/>
  </clipPath>
</defs>
<polyline clip-path="url(#clip1002)" style="stroke:#000000; stroke-width:2; stroke-opacity:0.1; fill:none" points="
  300.569,687.475 300.569,47.2441 
  "/>
<polyline clip-path="url(#clip1002)" style="stroke:#000000; stroke-width:2; stroke-opacity:0.1; fill:none" points="
  443.183,687.475 443.183,47.2441 
  "/>
<polyline clip-path="url(#clip1002)" style="stroke:#000000; stroke-width:2; stroke-opacity:0.1; fill:none" points="
  585.798,687.475 585.798,47.2441 
  "/>
<polyline clip-path="url(#clip1002)" style="stroke:#000000; stroke-width:2; stroke-opacity:0.1; fill:none" points="
  728.412,687.475 728.412,47.2441 
  "/>
<polyline clip-path="url(#clip1002)" style="stroke:#000000; stroke-width:2; stroke-opacity:0.1; fill:none" points="
  871.026,687.475 871.026,47.2441 
  "/>
<polyline clip-path="url(#clip1002)" style="stroke:#000000; stroke-width:2; stroke-opacity:0.1; fill:none" points="
  1013.64,687.475 1013.64,47.2441 
  "/>
<polyline clip-path="url(#clip1002)" style="stroke:#000000; stroke-width:2; stroke-opacity:0.1; fill:none" points="
  1156.26,687.475 1156.26,47.2441 
  "/>
<polyline clip-path="url(#clip1002)" style="stroke:#000000; stroke-width:2; stroke-opacity:0.1; fill:none" points="
  180.66,669.355 1172.83,669.355 
  "/>
<polyline clip-path="url(#clip1002)" style="stroke:#000000; stroke-width:2; stroke-opacity:0.1; fill:none" points="
  180.66,534.265 1172.83,534.265 
  "/>
<polyline clip-path="url(#clip1002)" style="stroke:#000000; stroke-width:2; stroke-opacity:0.1; fill:none" points="
  180.66,399.175 1172.83,399.175 
  "/>
<polyline clip-path="url(#clip1002)" style="stroke:#000000; stroke-width:2; stroke-opacity:0.1; fill:none" points="
  180.66,264.085 1172.83,264.085 
  "/>
<polyline clip-path="url(#clip1002)" style="stroke:#000000; stroke-width:2; stroke-opacity:0.1; fill:none" points="
  180.66,128.995 1172.83,128.995 
  "/>
<polyline clip-path="url(#clip1000)" style="stroke:#000000; stroke-width:4; stroke-opacity:1; fill:none" points="
  180.66,687.475 1172.83,687.475 
  "/>
<polyline clip-path="url(#clip1000)" style="stroke:#000000; stroke-width:4; stroke-opacity:1; fill:none" points="
  180.66,687.475 180.66,47.2441 
  "/>
<polyline clip-path="url(#clip1000)" style="stroke:#000000; stroke-width:4; stroke-opacity:1; fill:none" points="
  300.569,687.475 300.569,677.871 
  "/>
<polyline clip-path="url(#clip1000)" style="stroke:#000000; stroke-width:4; stroke-opacity:1; fill:none" points="
  443.183,687.475 443.183,677.871 
  "/>
<polyline clip-path="url(#clip1000)" style="stroke:#000000; stroke-width:4; stroke-opacity:1; fill:none" points="
  585.798,687.475 585.798,677.871 
  "/>
<polyline clip-path="url(#clip1000)" style="stroke:#000000; stroke-width:4; stroke-opacity:1; fill:none" points="
  728.412,687.475 728.412,677.871 
  "/>
<polyline clip-path="url(#clip1000)" style="stroke:#000000; stroke-width:4; stroke-opacity:1; fill:none" points="
  871.026,687.475 871.026,677.871 
  "/>
<polyline clip-path="url(#clip1000)" style="stroke:#000000; stroke-width:4; stroke-opacity:1; fill:none" points="
  1013.64,687.475 1013.64,677.871 
  "/>
<polyline clip-path="url(#clip1000)" style="stroke:#000000; stroke-width:4; stroke-opacity:1; fill:none" points="
  1156.26,687.475 1156.26,677.871 
  "/>
<polyline clip-path="url(#clip1000)" style="stroke:#000000; stroke-width:4; stroke-opacity:1; fill:none" points="
  180.66,669.355 195.543,669.355 
  "/>
<polyline clip-path="url(#clip1000)" style="stroke:#000000; stroke-width:4; stroke-opacity:1; fill:none" points="
  180.66,534.265 195.543,534.265 
  "/>
<polyline clip-path="url(#clip1000)" style="stroke:#000000; stroke-width:4; stroke-opacity:1; fill:none" points="
  180.66,399.175 195.543,399.175 
  "/>
<polyline clip-path="url(#clip1000)" style="stroke:#000000; stroke-width:4; stroke-opacity:1; fill:none" points="
  180.66,264.085 195.543,264.085 
  "/>
<polyline clip-path="url(#clip1000)" style="stroke:#000000; stroke-width:4; stroke-opacity:1; fill:none" points="
  180.66,128.995 195.543,128.995 
  "/>
<g clip-path="url(#clip1000)">
<text style="fill:#000000; fill-opacity:1; font-family:Arial,Helvetica Neue,Helvetica,sans-serif; font-size:48px; text-anchor:middle;" transform="rotate(0, 300.569, 741.475)" x="300.569" y="741.475">0.55</text>
</g>
<g clip-path="url(#clip1000)">
<text style="fill:#000000; fill-opacity:1; font-family:Arial,Helvetica Neue,Helvetica,sans-serif; font-size:48px; text-anchor:middle;" transform="rotate(0, 443.183, 741.475)" x="443.183" y="741.475">0.60</text>
</g>
<g clip-path="url(#clip1000)">
<text style="fill:#000000; fill-opacity:1; font-family:Arial,Helvetica Neue,Helvetica,sans-serif; font-size:48px; text-anchor:middle;" transform="rotate(0, 585.798, 741.475)" x="585.798" y="741.475">0.65</text>
</g>
<g clip-path="url(#clip1000)">
<text style="fill:#000000; fill-opacity:1; font-family:Arial,Helvetica Neue,Helvetica,sans-serif; font-size:48px; text-anchor:middle;" transform="rotate(0, 728.412, 741.475)" x="728.412" y="741.475">0.70</text>
</g>
<g clip-path="url(#clip1000)">
<text style="fill:#000000; fill-opacity:1; font-family:Arial,Helvetica Neue,Helvetica,sans-serif; font-size:48px; text-anchor:middle;" transform="rotate(0, 871.026, 741.475)" x="871.026" y="741.475">0.75</text>
</g>
<g clip-path="url(#clip1000)">
<text style="fill:#000000; fill-opacity:1; font-family:Arial,Helvetica Neue,Helvetica,sans-serif; font-size:48px; text-anchor:middle;" transform="rotate(0, 1013.64, 741.475)" x="1013.64" y="741.475">0.80</text>
</g>
<g clip-path="url(#clip1000)">
<text style="fill:#000000; fill-opacity:1; font-family:Arial,Helvetica Neue,Helvetica,sans-serif; font-size:48px; text-anchor:middle;" transform="rotate(0, 1156.26, 741.475)" x="1156.26" y="741.475">0.85</text>
</g>
<g clip-path="url(#clip1000)">
<text style="fill:#000000; fill-opacity:1; font-family:Arial,Helvetica Neue,Helvetica,sans-serif; font-size:48px; text-anchor:end;" transform="rotate(0, 156.66, 686.855)" x="156.66" y="686.855">0.0</text>
</g>
<g clip-path="url(#clip1000)">
<text style="fill:#000000; fill-opacity:1; font-family:Arial,Helvetica Neue,Helvetica,sans-serif; font-size:48px; text-anchor:end;" transform="rotate(0, 156.66, 551.765)" x="156.66" y="551.765">2.5</text>
</g>
<g clip-path="url(#clip1000)">
<text style="fill:#000000; fill-opacity:1; font-family:Arial,Helvetica Neue,Helvetica,sans-serif; font-size:48px; text-anchor:end;" transform="rotate(0, 156.66, 416.675)" x="156.66" y="416.675">5.0</text>
</g>
<g clip-path="url(#clip1000)">
<text style="fill:#000000; fill-opacity:1; font-family:Arial,Helvetica Neue,Helvetica,sans-serif; font-size:48px; text-anchor:end;" transform="rotate(0, 156.66, 281.585)" x="156.66" y="281.585">7.5</text>
</g>
<g clip-path="url(#clip1000)">
<text style="fill:#000000; fill-opacity:1; font-family:Arial,Helvetica Neue,Helvetica,sans-serif; font-size:48px; text-anchor:end;" transform="rotate(0, 156.66, 146.495)" x="156.66" y="146.495">10.0</text>
</g>
<polygon clip-path="url(#clip1002)" points="
208.741,666.785 211.463,666.8 214.185,666.847 216.907,666.924 219.629,667.027 222.351,667.153 225.074,667.295 227.796,667.448 230.518,667.607 233.24,667.764 
  235.962,667.915 238.684,668.053 241.407,668.174 244.129,668.272 246.851,668.344 249.573,668.386 252.295,668.395 255.017,668.37 257.74,668.309 260.462,668.21 
  263.184,668.073 265.906,667.897 268.628,667.683 271.35,667.432 274.072,667.145 276.795,666.824 279.517,666.471 282.239,666.087 284.961,665.677 287.683,665.244 
  290.405,664.79 293.128,664.32 295.85,663.837 298.572,663.345 301.294,662.848 304.016,662.349 306.738,661.853 309.461,661.363 312.183,660.883 314.905,660.416 
  317.627,659.966 320.349,659.535 323.071,659.127 325.794,658.745 328.516,658.389 331.238,658.062 333.96,657.763 336.682,657.491 339.404,657.242 342.127,657.01 
  344.849,656.789 347.571,656.566 350.293,656.329 353.015,656.062 355.737,655.747 358.46,655.365 361.182,654.896 363.904,654.32 366.626,653.62 369.348,652.78 
  372.07,651.789 374.793,650.639 377.515,649.329 380.237,647.862 382.959,646.246 385.681,644.497 388.403,642.63 391.126,640.667 393.848,638.627 396.57,636.531 
  399.292,634.395 402.014,632.233 404.736,630.051 407.459,627.85 410.181,625.622 412.903,623.352 415.625,621.018 418.347,618.59 421.069,616.034 423.792,613.312 
  426.514,610.386 429.236,607.217 431.958,603.77 434.68,600.015 437.402,595.93 440.125,591.504 442.847,586.733 445.569,581.628 448.291,576.212 451.013,570.516 
  453.735,564.584 456.458,558.468 459.18,552.225 461.902,545.915 464.624,539.595 467.346,533.321 470.068,527.139 472.791,521.083 475.513,515.176 478.235,509.421 
  478.235,669.355 475.513,669.355 472.791,669.355 470.068,669.355 467.346,669.355 464.624,669.355 461.902,669.355 459.18,669.355 456.458,669.355 453.735,669.355 
  451.013,669.355 448.291,669.355 445.569,669.355 442.847,669.355 440.125,669.355 437.402,669.355 434.68,669.355 431.958,669.355 429.236,669.355 426.514,669.355 
  423.792,669.355 421.069,669.355 418.347,669.355 415.625,669.355 412.903,669.355 410.181,669.355 407.459,669.355 404.736,669.355 402.014,669.355 399.292,669.355 
  396.57,669.355 393.848,669.355 391.126,669.355 388.403,669.355 385.681,669.355 382.959,669.355 380.237,669.355 377.515,669.355 374.793,669.355 372.07,669.355 
  369.348,669.355 366.626,669.355 363.904,669.355 361.182,669.355 358.46,669.355 355.737,669.355 353.015,669.355 350.293,669.355 347.571,669.355 344.849,669.355 
  342.127,669.355 339.404,669.355 336.682,669.355 333.96,669.355 331.238,669.355 328.516,669.355 325.794,669.355 323.071,669.355 320.349,669.355 317.627,669.355 
  314.905,669.355 312.183,669.355 309.461,669.355 306.738,669.355 304.016,669.355 301.294,669.355 298.572,669.355 295.85,669.355 293.128,669.355 290.405,669.355 
  287.683,669.355 284.961,669.355 282.239,669.355 279.517,669.355 276.795,669.355 274.072,669.355 271.35,669.355 268.628,669.355 265.906,669.355 263.184,669.355 
  260.462,669.355 257.74,669.355 255.017,669.355 252.295,669.355 249.573,669.355 246.851,669.355 244.129,669.355 241.407,669.355 238.684,669.355 235.962,669.355 
  233.24,669.355 230.518,669.355 227.796,669.355 225.074,669.355 222.351,669.355 219.629,669.355 216.907,669.355 214.185,669.355 211.463,669.355 208.741,669.355 
  
  " fill="#ffa500" fill-rule="evenodd" fill-opacity="0.5"/>
<polyline clip-path="url(#clip1002)" style="stroke:#ffa500; stroke-width:4; stroke-opacity:1; fill:none" points="
  208.741,666.785 211.463,666.8 214.185,666.847 216.907,666.924 219.629,667.027 222.351,667.153 225.074,667.295 227.796,667.448 230.518,667.607 233.24,667.764 
  235.962,667.915 238.684,668.053 241.407,668.174 244.129,668.272 246.851,668.344 249.573,668.386 252.295,668.395 255.017,668.37 257.74,668.309 260.462,668.21 
  263.184,668.073 265.906,667.897 268.628,667.683 271.35,667.432 274.072,667.145 276.795,666.824 279.517,666.471 282.239,666.087 284.961,665.677 287.683,665.244 
  290.405,664.79 293.128,664.32 295.85,663.837 298.572,663.345 301.294,662.848 304.016,662.349 306.738,661.853 309.461,661.363 312.183,660.883 314.905,660.416 
  317.627,659.966 320.349,659.535 323.071,659.127 325.794,658.745 328.516,658.389 331.238,658.062 333.96,657.763 336.682,657.491 339.404,657.242 342.127,657.01 
  344.849,656.789 347.571,656.566 350.293,656.329 353.015,656.062 355.737,655.747 358.46,655.365 361.182,654.896 363.904,654.32 366.626,653.62 369.348,652.78 
  372.07,651.789 374.793,650.639 377.515,649.329 380.237,647.862 382.959,646.246 385.681,644.497 388.403,642.63 391.126,640.667 393.848,638.627 396.57,636.531 
  399.292,634.395 402.014,632.233 404.736,630.051 407.459,627.85 410.181,625.622 412.903,623.352 415.625,621.018 418.347,618.59 421.069,616.034 423.792,613.312 
  426.514,610.386 429.236,607.217 431.958,603.77 434.68,600.015 437.402,595.93 440.125,591.504 442.847,586.733 445.569,581.628 448.291,576.212 451.013,570.516 
  453.735,564.584 456.458,558.468 459.18,552.225 461.902,545.915 464.624,539.595 467.346,533.321 470.068,527.139 472.791,521.083 475.513,515.176 478.235,509.421 
  
  "/>
<polygon clip-path="url(#clip1002)" points="
478.235,509.421 481.965,501.762 485.696,494.286 489.426,486.86 493.157,479.305 496.887,471.414 500.617,462.97 504.348,453.765 508.078,443.621 511.809,432.401 
  515.539,420.028 519.269,406.492 523,391.852 526.73,376.234 530.461,359.828 534.191,342.871 537.922,325.632 541.652,308.398 545.382,291.446 549.113,275.03 
  552.843,259.363 556.574,244.601 560.304,230.838 564.034,218.1 567.765,206.349 571.495,195.489 575.226,185.376 578.956,175.833 582.687,166.669 586.417,157.697 
  590.147,148.754 593.878,139.724 597.608,130.553 601.339,121.262 605.069,111.954 608.799,102.809 612.53,94.0701 616.26,86.0205 619.991,78.9583 623.721,73.1633 
  627.452,68.8694 631.182,66.2417 634.912,65.3638 638.643,66.236 642.373,68.7838 646.104,72.8749 649.834,78.3416 653.564,85.0029 657.295,92.6847 661.025,101.233 
  664.756,110.521 668.486,120.45 672.217,130.942 675.947,141.935 679.677,153.371 683.408,165.188 687.138,177.317 690.869,189.681 694.599,202.191 698.329,214.754 
  702.06,227.279 705.79,239.679 709.521,251.88 713.251,263.825 716.982,275.475 720.712,286.815 724.442,297.847 728.173,308.591 731.903,319.081 735.634,329.354 
  739.364,339.448 743.094,349.398 746.825,359.225 750.555,368.939 754.286,378.533 758.016,387.989 761.747,397.274 765.477,406.347 769.207,415.161 772.938,423.663 
  776.668,431.799 780.399,439.515 784.129,446.756 787.859,453.474 791.59,459.628 795.32,465.19 799.051,470.154 802.781,474.541 806.512,478.405 810.242,481.84 
  813.972,484.98 817.703,487.991 821.433,491.067 825.164,494.41 828.894,498.215 832.624,502.644 836.355,507.816 840.085,513.783 843.816,520.53 847.546,527.966 
  847.546,669.355 843.816,669.355 840.085,669.355 836.355,669.355 832.624,669.355 828.894,669.355 825.164,669.355 821.433,669.355 817.703,669.355 813.972,669.355 
  810.242,669.355 806.512,669.355 802.781,669.355 799.051,669.355 795.32,669.355 791.59,669.355 787.859,669.355 784.129,669.355 780.399,669.355 776.668,669.355 
  772.938,669.355 769.207,669.355 765.477,669.355 761.747,669.355 758.016,669.355 754.286,669.355 750.555,669.355 746.825,669.355 743.094,669.355 739.364,669.355 
  735.634,669.355 731.903,669.355 728.173,669.355 724.442,669.355 720.712,669.355 716.982,669.355 713.251,669.355 709.521,669.355 705.79,669.355 702.06,669.355 
  698.329,669.355 694.599,669.355 690.869,669.355 687.138,669.355 683.408,669.355 679.677,669.355 675.947,669.355 672.217,669.355 668.486,669.355 664.756,669.355 
  661.025,669.355 657.295,669.355 653.564,669.355 649.834,669.355 646.104,669.355 642.373,669.355 638.643,669.355 634.912,669.355 631.182,669.355 627.452,669.355 
  623.721,669.355 619.991,669.355 616.26,669.355 612.53,669.355 608.799,669.355 605.069,669.355 601.339,669.355 597.608,669.355 593.878,669.355 590.147,669.355 
  586.417,669.355 582.687,669.355 578.956,669.355 575.226,669.355 571.495,669.355 567.765,669.355 564.034,669.355 560.304,669.355 556.574,669.355 552.843,669.355 
  549.113,669.355 545.382,669.355 541.652,669.355 537.922,669.355 534.191,669.355 530.461,669.355 526.73,669.355 523,669.355 519.269,669.355 515.539,669.355 
  511.809,669.355 508.078,669.355 504.348,669.355 500.617,669.355 496.887,669.355 493.157,669.355 489.426,669.355 485.696,669.355 481.965,669.355 478.235,669.355 
  
  " fill="#008000" fill-rule="evenodd" fill-opacity="0.5"/>
<polyline clip-path="url(#clip1002)" style="stroke:#008000; stroke-width:4; stroke-opacity:1; fill:none" points="
  478.235,509.421 481.965,501.762 485.696,494.286 489.426,486.86 493.157,479.305 496.887,471.414 500.617,462.97 504.348,453.765 508.078,443.621 511.809,432.401 
  515.539,420.028 519.269,406.492 523,391.852 526.73,376.234 530.461,359.828 534.191,342.871 537.922,325.632 541.652,308.398 545.382,291.446 549.113,275.03 
  552.843,259.363 556.574,244.601 560.304,230.838 564.034,218.1 567.765,206.349 571.495,195.489 575.226,185.376 578.956,175.833 582.687,166.669 586.417,157.697 
  590.147,148.754 593.878,139.724 597.608,130.553 601.339,121.262 605.069,111.954 608.799,102.809 612.53,94.0701 616.26,86.0205 619.991,78.9583 623.721,73.1633 
  627.452,68.8694 631.182,66.2417 634.912,65.3638 638.643,66.236 642.373,68.7838 646.104,72.8749 649.834,78.3416 653.564,85.0029 657.295,92.6847 661.025,101.233 
  664.756,110.521 668.486,120.45 672.217,130.942 675.947,141.935 679.677,153.371 683.408,165.188 687.138,177.317 690.869,189.681 694.599,202.191 698.329,214.754 
  702.06,227.279 705.79,239.679 709.521,251.88 713.251,263.825 716.982,275.475 720.712,286.815 724.442,297.847 728.173,308.591 731.903,319.081 735.634,329.354 
  739.364,339.448 743.094,349.398 746.825,359.225 750.555,368.939 754.286,378.533 758.016,387.989 761.747,397.274 765.477,406.347 769.207,415.161 772.938,423.663 
  776.668,431.799 780.399,439.515 784.129,446.756 787.859,453.474 791.59,459.628 795.32,465.19 799.051,470.154 802.781,474.541 806.512,478.405 810.242,481.84 
  813.972,484.98 817.703,487.991 821.433,491.067 825.164,494.41 828.894,498.215 832.624,502.644 836.355,507.816 840.085,513.783 843.816,520.53 847.546,527.966 
  
  "/>
<polygon clip-path="url(#clip1002)" points="
847.546,527.966 850.548,534.349 853.55,540.978 856.552,547.734 859.554,554.496 862.556,561.144 865.558,567.567 868.56,573.672 871.562,579.39 874.564,584.671 
  877.566,589.496 880.568,593.866 883.571,597.802 886.573,601.342 889.575,604.532 892.577,607.422 895.579,610.063 898.581,612.497 901.583,614.76 904.585,616.877 
  907.587,618.864 910.589,620.729 913.591,622.473 916.593,624.095 919.595,625.594 922.597,626.971 925.599,628.232 928.601,629.39 931.603,630.463 934.605,631.475 
  937.607,632.455 940.609,633.433 943.611,634.439 946.613,635.501 949.615,636.641 952.617,637.873 955.619,639.206 958.621,640.637 961.623,642.157 964.625,643.749 
  967.627,645.39 970.63,647.053 973.632,648.711 976.634,650.335 979.636,651.901 982.638,653.388 985.64,654.779 988.642,656.064 991.644,657.237 994.646,658.297 
  997.648,659.248 1000.65,660.095 1003.65,660.847 1006.65,661.513 1009.66,662.102 1012.66,662.624 1015.66,663.088 1018.66,663.503 1021.66,663.876 1024.67,664.216 
  1027.67,664.528 1030.67,664.821 1033.67,665.1 1036.67,665.369 1039.68,665.634 1042.68,665.898 1045.68,666.162 1048.68,666.427 1051.68,666.692 1054.69,666.955 
  1057.69,667.214 1060.69,667.466 1063.69,667.706 1066.69,667.932 1069.7,668.139 1072.7,668.325 1075.7,668.487 1078.7,668.624 1081.7,668.734 1084.71,668.817 
  1087.71,668.872 1090.71,668.898 1093.71,668.897 1096.71,668.868 1099.72,668.812 1102.72,668.729 1105.72,668.621 1108.72,668.489 1111.73,668.337 1114.73,668.167 
  1117.73,667.985 1120.73,667.794 1123.73,667.603 1126.74,667.417 1129.74,667.243 1132.74,667.09 1135.74,666.962 1138.74,666.867 1141.75,666.807 1144.75,666.787 
  1144.75,669.355 1141.75,669.355 1138.74,669.355 1135.74,669.355 1132.74,669.355 1129.74,669.355 1126.74,669.355 1123.73,669.355 1120.73,669.355 1117.73,669.355 
  1114.73,669.355 1111.73,669.355 1108.72,669.355 1105.72,669.355 1102.72,669.355 1099.72,669.355 1096.71,669.355 1093.71,669.355 1090.71,669.355 1087.71,669.355 
  1084.71,669.355 1081.7,669.355 1078.7,669.355 1075.7,669.355 1072.7,669.355 1069.7,669.355 1066.69,669.355 1063.69,669.355 1060.69,669.355 1057.69,669.355 
  1054.69,669.355 1051.68,669.355 1048.68,669.355 1045.68,669.355 1042.68,669.355 1039.68,669.355 1036.67,669.355 1033.67,669.355 1030.67,669.355 1027.67,669.355 
  1024.67,669.355 1021.66,669.355 1018.66,669.355 1015.66,669.355 1012.66,669.355 1009.66,669.355 1006.65,669.355 1003.65,669.355 1000.65,669.355 997.648,669.355 
  994.646,669.355 991.644,669.355 988.642,669.355 985.64,669.355 982.638,669.355 979.636,669.355 976.634,669.355 973.632,669.355 970.63,669.355 967.627,669.355 
  964.625,669.355 961.623,669.355 958.621,669.355 955.619,669.355 952.617,669.355 949.615,669.355 946.613,669.355 943.611,669.355 940.609,669.355 937.607,669.355 
  934.605,669.355 931.603,669.355 928.601,669.355 925.599,669.355 922.597,669.355 919.595,669.355 916.593,669.355 913.591,669.355 910.589,669.355 907.587,669.355 
  904.585,669.355 901.583,669.355 898.581,669.355 895.579,669.355 892.577,669.355 889.575,669.355 886.573,669.355 883.571,669.355 880.568,669.355 877.566,669.355 
  874.564,669.355 871.562,669.355 868.56,669.355 865.558,669.355 862.556,669.355 859.554,669.355 856.552,669.355 853.55,669.355 850.548,669.355 847.546,669.355 
  
  " fill="#ffa500" fill-rule="evenodd" fill-opacity="0.5"/>
<polyline clip-path="url(#clip1002)" style="stroke:#ffa500; stroke-width:4; stroke-opacity:1; fill:none" points="
  847.546,527.966 850.548,534.349 853.55,540.978 856.552,547.734 859.554,554.496 862.556,561.144 865.558,567.567 868.56,573.672 871.562,579.39 874.564,584.671 
  877.566,589.496 880.568,593.866 883.571,597.802 886.573,601.342 889.575,604.532 892.577,607.422 895.579,610.063 898.581,612.497 901.583,614.76 904.585,616.877 
  907.587,618.864 910.589,620.729 913.591,622.473 916.593,624.095 919.595,625.594 922.597,626.971 925.599,628.232 928.601,629.39 931.603,630.463 934.605,631.475 
  937.607,632.455 940.609,633.433 943.611,634.439 946.613,635.501 949.615,636.641 952.617,637.873 955.619,639.206 958.621,640.637 961.623,642.157 964.625,643.749 
  967.627,645.39 970.63,647.053 973.632,648.711 976.634,650.335 979.636,651.901 982.638,653.388 985.64,654.779 988.642,656.064 991.644,657.237 994.646,658.297 
  997.648,659.248 1000.65,660.095 1003.65,660.847 1006.65,661.513 1009.66,662.102 1012.66,662.624 1015.66,663.088 1018.66,663.503 1021.66,663.876 1024.67,664.216 
  1027.67,664.528 1030.67,664.821 1033.67,665.1 1036.67,665.369 1039.68,665.634 1042.68,665.898 1045.68,666.162 1048.68,666.427 1051.68,666.692 1054.69,666.955 
  1057.69,667.214 1060.69,667.466 1063.69,667.706 1066.69,667.932 1069.7,668.139 1072.7,668.325 1075.7,668.487 1078.7,668.624 1081.7,668.734 1084.71,668.817 
  1087.71,668.872 1090.71,668.898 1093.71,668.897 1096.71,668.868 1099.72,668.812 1102.72,668.729 1105.72,668.621 1108.72,668.489 1111.73,668.337 1114.73,668.167 
  1117.73,667.985 1120.73,667.794 1123.73,667.603 1126.74,667.417 1129.74,667.243 1132.74,667.09 1135.74,666.962 1138.74,666.867 1141.75,666.807 1144.75,666.787 
  
  "/>
<polyline clip-path="url(#clip1002)" style="stroke:#0000ff; stroke-width:4; stroke-opacity:1; fill:none" points="
  651.717,669.355 651.717,81.5658 
  "/>
<polyline clip-path="url(#clip1002)" style="stroke:#000000; stroke-width:4; stroke-opacity:1; fill:none" points="
  642.068,669.355 642.068,68.5156 
  "/>
<polygon clip-path="url(#clip1000)" points="
1360.59,687.475 2352.76,687.475 2352.76,47.2441 1360.59,47.2441 
  " fill="#ffffff" fill-rule="evenodd" fill-opacity="1"/>
<defs>
  <clipPath id="clip1003">
    <rect x="1360" y="47" width="993" height="641"/>
  </clipPath>
</defs>
<polyline clip-path="url(#clip1003)" style="stroke:#000000; stroke-width:2; stroke-opacity:0.1; fill:none" points="
  1441.61,687.475 1441.61,47.2441 
  "/>
<polyline clip-path="url(#clip1003)" style="stroke:#000000; stroke-width:2; stroke-opacity:0.1; fill:none" points="
  1706.29,687.475 1706.29,47.2441 
  "/>
<polyline clip-path="url(#clip1003)" style="stroke:#000000; stroke-width:2; stroke-opacity:0.1; fill:none" points="
  1970.98,687.475 1970.98,47.2441 
  "/>
<polyline clip-path="url(#clip1003)" style="stroke:#000000; stroke-width:2; stroke-opacity:0.1; fill:none" points="
  2235.67,687.475 2235.67,47.2441 
  "/>
<polyline clip-path="url(#clip1003)" style="stroke:#000000; stroke-width:2; stroke-opacity:0.1; fill:none" points="
  1360.59,669.355 2352.76,669.355 
  "/>
<polyline clip-path="url(#clip1003)" style="stroke:#000000; stroke-width:2; stroke-opacity:0.1; fill:none" points="
  1360.59,572.434 2352.76,572.434 
  "/>
<polyline clip-path="url(#clip1003)" style="stroke:#000000; stroke-width:2; stroke-opacity:0.1; fill:none" points="
  1360.59,475.512 2352.76,475.512 
  "/>
<polyline clip-path="url(#clip1003)" style="stroke:#000000; stroke-width:2; stroke-opacity:0.1; fill:none" points="
  1360.59,378.591 2352.76,378.591 
  "/>
<polyline clip-path="url(#clip1003)" style="stroke:#000000; stroke-width:2; stroke-opacity:0.1; fill:none" points="
  1360.59,281.669 2352.76,281.669 
  "/>
<polyline clip-path="url(#clip1003)" style="stroke:#000000; stroke-width:2; stroke-opacity:0.1; fill:none" points="
  1360.59,184.748 2352.76,184.748 
  "/>
<polyline clip-path="url(#clip1003)" style="stroke:#000000; stroke-width:2; stroke-opacity:0.1; fill:none" points="
  1360.59,87.8266 2352.76,87.8266 
  "/>
<polyline clip-path="url(#clip1000)" style="stroke:#000000; stroke-width:4; stroke-opacity:1; fill:none" points="
  1360.59,687.475 2352.76,687.475 
  "/>
<polyline clip-path="url(#clip1000)" style="stroke:#000000; stroke-width:4; stroke-opacity:1; fill:none" points="
  1360.59,687.475 1360.59,47.2441 
  "/>
<polyline clip-path="url(#clip1000)" style="stroke:#000000; stroke-width:4; stroke-opacity:1; fill:none" points="
  1441.61,687.475 1441.61,677.871 
  "/>
<polyline clip-path="url(#clip1000)" style="stroke:#000000; stroke-width:4; stroke-opacity:1; fill:none" points="
  1706.29,687.475 1706.29,677.871 
  "/>
<polyline clip-path="url(#clip1000)" style="stroke:#000000; stroke-width:4; stroke-opacity:1; fill:none" points="
  1970.98,687.475 1970.98,677.871 
  "/>
<polyline clip-path="url(#clip1000)" style="stroke:#000000; stroke-width:4; stroke-opacity:1; fill:none" points="
  2235.67,687.475 2235.67,677.871 
  "/>
<polyline clip-path="url(#clip1000)" style="stroke:#000000; stroke-width:4; stroke-opacity:1; fill:none" points="
  1360.59,669.355 1375.47,669.355 
  "/>
<polyline clip-path="url(#clip1000)" style="stroke:#000000; stroke-width:4; stroke-opacity:1; fill:none" points="
  1360.59,572.434 1375.47,572.434 
  "/>
<polyline clip-path="url(#clip1000)" style="stroke:#000000; stroke-width:4; stroke-opacity:1; fill:none" points="
  1360.59,475.512 1375.47,475.512 
  "/>
<polyline clip-path="url(#clip1000)" style="stroke:#000000; stroke-width:4; stroke-opacity:1; fill:none" points="
  1360.59,378.591 1375.47,378.591 
  "/>
<polyline clip-path="url(#clip1000)" style="stroke:#000000; stroke-width:4; stroke-opacity:1; fill:none" points="
  1360.59,281.669 1375.47,281.669 
  "/>
<polyline clip-path="url(#clip1000)" style="stroke:#000000; stroke-width:4; stroke-opacity:1; fill:none" points="
  1360.59,184.748 1375.47,184.748 
  "/>
<polyline clip-path="url(#clip1000)" style="stroke:#000000; stroke-width:4; stroke-opacity:1; fill:none" points="
  1360.59,87.8266 1375.47,87.8266 
  "/>
<g clip-path="url(#clip1000)">
<text style="fill:#000000; fill-opacity:1; font-family:Arial,Helvetica Neue,Helvetica,sans-serif; font-size:48px; text-anchor:middle;" transform="rotate(0, 1441.61, 741.475)" x="1441.61" y="741.475">0.80</text>
</g>
<g clip-path="url(#clip1000)">
<text style="fill:#000000; fill-opacity:1; font-family:Arial,Helvetica Neue,Helvetica,sans-serif; font-size:48px; text-anchor:middle;" transform="rotate(0, 1706.29, 741.475)" x="1706.29" y="741.475">0.85</text>
</g>
<g clip-path="url(#clip1000)">
<text style="fill:#000000; fill-opacity:1; font-family:Arial,Helvetica Neue,Helvetica,sans-serif; font-size:48px; text-anchor:middle;" transform="rotate(0, 1970.98, 741.475)" x="1970.98" y="741.475">0.90</text>
</g>
<g clip-path="url(#clip1000)">
<text style="fill:#000000; fill-opacity:1; font-family:Arial,Helvetica Neue,Helvetica,sans-serif; font-size:48px; text-anchor:middle;" transform="rotate(0, 2235.67, 741.475)" x="2235.67" y="741.475">0.95</text>
</g>
<g clip-path="url(#clip1000)">
<text style="fill:#000000; fill-opacity:1; font-family:Arial,Helvetica Neue,Helvetica,sans-serif; font-size:48px; text-anchor:end;" transform="rotate(0, 1336.59, 686.855)" x="1336.59" y="686.855">0</text>
</g>
<g clip-path="url(#clip1000)">
<text style="fill:#000000; fill-opacity:1; font-family:Arial,Helvetica Neue,Helvetica,sans-serif; font-size:48px; text-anchor:end;" transform="rotate(0, 1336.59, 589.934)" x="1336.59" y="589.934">2</text>
</g>
<g clip-path="url(#clip1000)">
<text style="fill:#000000; fill-opacity:1; font-family:Arial,Helvetica Neue,Helvetica,sans-serif; font-size:48px; text-anchor:end;" transform="rotate(0, 1336.59, 493.012)" x="1336.59" y="493.012">4</text>
</g>
<g clip-path="url(#clip1000)">
<text style="fill:#000000; fill-opacity:1; font-family:Arial,Helvetica Neue,Helvetica,sans-serif; font-size:48px; text-anchor:end;" transform="rotate(0, 1336.59, 396.091)" x="1336.59" y="396.091">6</text>
</g>
<g clip-path="url(#clip1000)">
<text style="fill:#000000; fill-opacity:1; font-family:Arial,Helvetica Neue,Helvetica,sans-serif; font-size:48px; text-anchor:end;" transform="rotate(0, 1336.59, 299.169)" x="1336.59" y="299.169">8</text>
</g>
<g clip-path="url(#clip1000)">
<text style="fill:#000000; fill-opacity:1; font-family:Arial,Helvetica Neue,Helvetica,sans-serif; font-size:48px; text-anchor:end;" transform="rotate(0, 1336.59, 202.248)" x="1336.59" y="202.248">10</text>
</g>
<g clip-path="url(#clip1000)">
<text style="fill:#000000; fill-opacity:1; font-family:Arial,Helvetica Neue,Helvetica,sans-serif; font-size:48px; text-anchor:end;" transform="rotate(0, 1336.59, 105.327)" x="1336.59" y="105.327">12</text>
</g>
<polygon clip-path="url(#clip1003)" points="
1388.67,661.94 1391.39,661.461 1394.12,660.969 1396.84,660.463 1399.56,659.943 1402.29,659.41 1405.01,658.864 1407.74,658.305 1410.46,657.734 1413.18,657.15 
  1415.91,656.554 1418.63,655.946 1421.36,655.327 1424.08,654.697 1426.8,654.057 1429.53,653.406 1432.25,652.746 1434.98,652.077 1437.7,651.399 1440.42,650.714 
  1443.15,650.022 1445.87,649.323 1448.6,648.619 1451.32,647.911 1454.04,647.198 1456.77,646.483 1459.49,645.766 1462.22,645.048 1464.94,644.33 1467.66,643.614 
  1470.39,642.901 1473.11,642.192 1475.84,641.489 1478.56,640.792 1481.28,640.104 1484.01,639.425 1486.73,638.756 1489.46,638.098 1492.18,637.452 1494.9,636.819 
  1497.63,636.198 1500.35,635.59 1503.08,634.993 1505.8,634.406 1508.52,633.829 1511.25,633.258 1513.97,632.691 1516.7,632.126 1519.42,631.558 1522.14,630.983 
  1524.87,630.398 1527.59,629.798 1530.32,629.177 1533.04,628.53 1535.76,627.852 1538.49,627.137 1541.21,626.379 1543.94,625.574 1546.66,624.714 1549.38,623.795 
  1552.11,622.81 1554.83,621.755 1557.56,620.624 1560.28,619.41 1563,618.109 1565.73,616.715 1568.45,615.222 1571.18,613.624 1573.9,611.914 1576.62,610.088 
  1579.35,608.137 1582.07,606.056 1584.8,603.838 1587.52,601.475 1590.24,598.962 1592.97,596.29 1595.69,593.455 1598.42,590.45 1601.14,587.269 1603.86,583.908 
  1606.59,580.363 1609.31,576.631 1612.04,572.712 1614.76,568.605 1617.48,564.312 1620.21,559.837 1622.93,555.186 1625.66,550.365 1628.38,545.385 1631.1,540.255 
  1633.83,534.989 1636.55,529.602 1639.28,524.109 1642,518.527 1644.72,512.875 1647.45,507.171 1650.17,501.434 1652.9,495.684 1655.62,489.94 1658.34,484.219 
  1658.34,669.355 1655.62,669.355 1652.9,669.355 1650.17,669.355 1647.45,669.355 1644.72,669.355 1642,669.355 1639.28,669.355 1636.55,669.355 1633.83,669.355 
  1631.1,669.355 1628.38,669.355 1625.66,669.355 1622.93,669.355 1620.21,669.355 1617.48,669.355 1614.76,669.355 1612.04,669.355 1609.31,669.355 1606.59,669.355 
  1603.86,669.355 1601.14,669.355 1598.42,669.355 1595.69,669.355 1592.97,669.355 1590.24,669.355 1587.52,669.355 1584.8,669.355 1582.07,669.355 1579.35,669.355 
  1576.62,669.355 1573.9,669.355 1571.18,669.355 1568.45,669.355 1565.73,669.355 1563,669.355 1560.28,669.355 1557.56,669.355 1554.83,669.355 1552.11,669.355 
  1549.38,669.355 1546.66,669.355 1543.94,669.355 1541.21,669.355 1538.49,669.355 1535.76,669.355 1533.04,669.355 1530.32,669.355 1527.59,669.355 1524.87,669.355 
  1522.14,669.355 1519.42,669.355 1516.7,669.355 1513.97,669.355 1511.25,669.355 1508.52,669.355 1505.8,669.355 1503.08,669.355 1500.35,669.355 1497.63,669.355 
  1494.9,669.355 1492.18,669.355 1489.46,669.355 1486.73,669.355 1484.01,669.355 1481.28,669.355 1478.56,669.355 1475.84,669.355 1473.11,669.355 1470.39,669.355 
  1467.66,669.355 1464.94,669.355 1462.22,669.355 1459.49,669.355 1456.77,669.355 1454.04,669.355 1451.32,669.355 1448.6,669.355 1445.87,669.355 1443.15,669.355 
  1440.42,669.355 1437.7,669.355 1434.98,669.355 1432.25,669.355 1429.53,669.355 1426.8,669.355 1424.08,669.355 1421.36,669.355 1418.63,669.355 1415.91,669.355 
  1413.18,669.355 1410.46,669.355 1407.74,669.355 1405.01,669.355 1402.29,669.355 1399.56,669.355 1396.84,669.355 1394.12,669.355 1391.39,669.355 1388.67,669.355 
  
  " fill="#ffa500" fill-rule="evenodd" fill-opacity="0.5"/>
<polyline clip-path="url(#clip1003)" style="stroke:#ffa500; stroke-width:4; stroke-opacity:1; fill:none" points="
  1388.67,661.94 1391.39,661.461 1394.12,660.969 1396.84,660.463 1399.56,659.943 1402.29,659.41 1405.01,658.864 1407.74,658.305 1410.46,657.734 1413.18,657.15 
  1415.91,656.554 1418.63,655.946 1421.36,655.327 1424.08,654.697 1426.8,654.057 1429.53,653.406 1432.25,652.746 1434.98,652.077 1437.7,651.399 1440.42,650.714 
  1443.15,650.022 1445.87,649.323 1448.6,648.619 1451.32,647.911 1454.04,647.198 1456.77,646.483 1459.49,645.766 1462.22,645.048 1464.94,644.33 1467.66,643.614 
  1470.39,642.901 1473.11,642.192 1475.84,641.489 1478.56,640.792 1481.28,640.104 1484.01,639.425 1486.73,638.756 1489.46,638.098 1492.18,637.452 1494.9,636.819 
  1497.63,636.198 1500.35,635.59 1503.08,634.993 1505.8,634.406 1508.52,633.829 1511.25,633.258 1513.97,632.691 1516.7,632.126 1519.42,631.558 1522.14,630.983 
  1524.87,630.398 1527.59,629.798 1530.32,629.177 1533.04,628.53 1535.76,627.852 1538.49,627.137 1541.21,626.379 1543.94,625.574 1546.66,624.714 1549.38,623.795 
  1552.11,622.81 1554.83,621.755 1557.56,620.624 1560.28,619.41 1563,618.109 1565.73,616.715 1568.45,615.222 1571.18,613.624 1573.9,611.914 1576.62,610.088 
  1579.35,608.137 1582.07,606.056 1584.8,603.838 1587.52,601.475 1590.24,598.962 1592.97,596.29 1595.69,593.455 1598.42,590.45 1601.14,587.269 1603.86,583.908 
  1606.59,580.363 1609.31,576.631 1612.04,572.712 1614.76,568.605 1617.48,564.312 1620.21,559.837 1622.93,555.186 1625.66,550.365 1628.38,545.385 1631.1,540.255 
  1633.83,534.989 1636.55,529.602 1639.28,524.109 1642,518.527 1644.72,512.875 1647.45,507.171 1650.17,501.434 1652.9,495.684 1655.62,489.94 1658.34,484.219 
  
  "/>
<polygon clip-path="url(#clip1003)" points="
1658.34,484.219 1663.39,473.731 1668.44,463.476 1673.49,453.526 1678.54,443.923 1683.59,434.679 1688.64,425.769 1693.69,417.134 1698.74,408.679 1703.79,400.281 
  1708.84,391.792 1713.89,383.047 1718.94,373.878 1723.99,364.127 1729.04,353.657 1734.09,342.371 1739.14,330.225 1744.19,317.24 1749.24,303.507 1754.29,289.191 
  1759.34,274.525 1764.39,259.801 1769.44,245.35 1774.49,231.529 1779.54,218.692 1784.59,207.173 1789.64,197.262 1794.69,189.19 1799.74,183.116 1804.79,179.116 
  1809.84,177.181 1814.89,177.216 1819.94,179.045 1824.99,182.416 1830.04,187.015 1835.09,192.475 1840.14,198.394 1845.19,204.35 1850.24,209.918 1855.3,214.694 
  1860.35,218.305 1865.4,220.432 1870.45,220.825 1875.5,219.309 1880.55,215.799 1885.6,210.296 1890.65,202.894 1895.7,193.767 1900.75,183.165 1905.8,171.402 
  1910.85,158.837 1915.9,145.858 1920.95,132.866 1926,120.254 1931.05,108.39 1936.1,97.5983 1941.15,88.1484 1946.2,80.2412 1951.25,74.0021 1956.3,69.4777 
  1961.35,66.6346 1966.4,65.3638 1971.45,65.4879 1976.5,66.771 1981.55,68.9331 1986.6,71.6663 1991.65,74.654 1996.7,77.5918 2001.75,80.2096 2006.8,82.2927 
  2011.85,83.7007 2016.9,84.383 2021.95,84.3867 2027,83.8582 2032.05,83.0365 2037.1,82.2377 2042.15,81.8335 2047.2,82.2249 2052.25,83.8132 2057.3,86.9721 
  2062.35,92.0222 2067.4,99.2112 2072.45,108.7 2077.5,120.555 2082.55,134.746 2087.6,151.155 2092.65,169.58 2097.7,189.751 2102.75,211.342 2107.8,233.99 
  2112.85,257.311 2117.9,280.917 2122.95,304.43 2128,327.504 2133.05,349.83 2138.1,371.154 2143.15,391.281 2148.2,410.08 2153.25,427.485 2158.3,443.489 
  2158.3,669.355 2153.25,669.355 2148.2,669.355 2143.15,669.355 2138.1,669.355 2133.05,669.355 2128,669.355 2122.95,669.355 2117.9,669.355 2112.85,669.355 
  2107.8,669.355 2102.75,669.355 2097.7,669.355 2092.65,669.355 2087.6,669.355 2082.55,669.355 2077.5,669.355 2072.45,669.355 2067.4,669.355 2062.35,669.355 
  2057.3,669.355 2052.25,669.355 2047.2,669.355 2042.15,669.355 2037.1,669.355 2032.05,669.355 2027,669.355 2021.95,669.355 2016.9,669.355 2011.85,669.355 
  2006.8,669.355 2001.75,669.355 1996.7,669.355 1991.65,669.355 1986.6,669.355 1981.55,669.355 1976.5,669.355 1971.45,669.355 1966.4,669.355 1961.35,669.355 
  1956.3,669.355 1951.25,669.355 1946.2,669.355 1941.15,669.355 1936.1,669.355 1931.05,669.355 1926,669.355 1920.95,669.355 1915.9,669.355 1910.85,669.355 
  1905.8,669.355 1900.75,669.355 1895.7,669.355 1890.65,669.355 1885.6,669.355 1880.55,669.355 1875.5,669.355 1870.45,669.355 1865.4,669.355 1860.35,669.355 
  1855.3,669.355 1850.24,669.355 1845.19,669.355 1840.14,669.355 1835.09,669.355 1830.04,669.355 1824.99,669.355 1819.94,669.355 1814.89,669.355 1809.84,669.355 
  1804.79,669.355 1799.74,669.355 1794.69,669.355 1789.64,669.355 1784.59,669.355 1779.54,669.355 1774.49,669.355 1769.44,669.355 1764.39,669.355 1759.34,669.355 
  1754.29,669.355 1749.24,669.355 1744.19,669.355 1739.14,669.355 1734.09,669.355 1729.04,669.355 1723.99,669.355 1718.94,669.355 1713.89,669.355 1708.84,669.355 
  1703.79,669.355 1698.74,669.355 1693.69,669.355 1688.64,669.355 1683.59,669.355 1678.54,669.355 1673.49,669.355 1668.44,669.355 1663.39,669.355 1658.34,669.355 
  
  " fill="#008000" fill-rule="evenodd" fill-opacity="0.5"/>
<polyline clip-path="url(#clip1003)" style="stroke:#008000; stroke-width:4; stroke-opacity:1; fill:none" points="
  1658.34,484.219 1663.39,473.731 1668.44,463.476 1673.49,453.526 1678.54,443.923 1683.59,434.679 1688.64,425.769 1693.69,417.134 1698.74,408.679 1703.79,400.281 
  1708.84,391.792 1713.89,383.047 1718.94,373.878 1723.99,364.127 1729.04,353.657 1734.09,342.371 1739.14,330.225 1744.19,317.24 1749.24,303.507 1754.29,289.191 
  1759.34,274.525 1764.39,259.801 1769.44,245.35 1774.49,231.529 1779.54,218.692 1784.59,207.173 1789.64,197.262 1794.69,189.19 1799.74,183.116 1804.79,179.116 
  1809.84,177.181 1814.89,177.216 1819.94,179.045 1824.99,182.416 1830.04,187.015 1835.09,192.475 1840.14,198.394 1845.19,204.35 1850.24,209.918 1855.3,214.694 
  1860.35,218.305 1865.4,220.432 1870.45,220.825 1875.5,219.309 1880.55,215.799 1885.6,210.296 1890.65,202.894 1895.7,193.767 1900.75,183.165 1905.8,171.402 
  1910.85,158.837 1915.9,145.858 1920.95,132.866 1926,120.254 1931.05,108.39 1936.1,97.5983 1941.15,88.1484 1946.2,80.2412 1951.25,74.0021 1956.3,69.4777 
  1961.35,66.6346 1966.4,65.3638 1971.45,65.4879 1976.5,66.771 1981.55,68.9331 1986.6,71.6663 1991.65,74.654 1996.7,77.5918 2001.75,80.2096 2006.8,82.2927 
  2011.85,83.7007 2016.9,84.383 2021.95,84.3867 2027,83.8582 2032.05,83.0365 2037.1,82.2377 2042.15,81.8335 2047.2,82.2249 2052.25,83.8132 2057.3,86.9721 
  2062.35,92.0222 2067.4,99.2112 2072.45,108.7 2077.5,120.555 2082.55,134.746 2087.6,151.155 2092.65,169.58 2097.7,189.751 2102.75,211.342 2107.8,233.99 
  2112.85,257.311 2117.9,280.917 2122.95,304.43 2128,327.504 2133.05,349.83 2138.1,371.154 2143.15,391.281 2148.2,410.08 2153.25,427.485 2158.3,443.489 
  
  "/>
<polygon clip-path="url(#clip1003)" points="
2158.3,443.489 2159.98,448.511 2161.66,453.386 2163.34,458.117 2165.02,462.709 2166.7,467.165 2168.38,471.489 2170.06,475.688 2171.74,479.766 2173.42,483.728 
  2175.1,487.58 2176.78,491.328 2178.46,494.977 2180.15,498.533 2181.83,502.001 2183.51,505.387 2185.19,508.696 2186.87,511.933 2188.55,515.105 2190.23,518.214 
  2191.91,521.267 2193.59,524.267 2195.27,527.218 2196.95,530.125 2198.63,532.991 2200.31,535.818 2201.99,538.61 2203.67,541.37 2205.35,544.1 2207.03,546.801 
  2208.72,549.477 2210.4,552.127 2212.08,554.754 2213.76,557.359 2215.44,559.942 2217.12,562.503 2218.8,565.044 2220.48,567.565 2222.16,570.065 2223.84,572.545 
  2225.52,575.004 2227.2,577.442 2228.88,579.859 2230.56,582.254 2232.24,584.627 2233.92,586.977 2235.6,589.303 2237.29,591.604 2238.97,593.881 2240.65,596.131 
  2242.33,598.355 2244.01,600.551 2245.69,602.718 2247.37,604.857 2249.05,606.965 2250.73,609.042 2252.41,611.087 2254.09,613.1 2255.77,615.079 2257.45,617.023 
  2259.13,618.933 2260.81,620.806 2262.49,622.642 2264.17,624.441 2265.86,626.201 2267.54,627.922 2269.22,629.603 2270.9,631.243 2272.58,632.842 2274.26,634.4 
  2275.94,635.915 2277.62,637.387 2279.3,638.816 2280.98,640.202 2282.66,641.544 2284.34,642.842 2286.02,644.096 2287.7,645.306 2289.38,646.472 2291.06,647.595 
  2292.74,648.674 2294.43,649.71 2296.11,650.704 2297.79,651.656 2299.47,652.566 2301.15,653.437 2302.83,654.267 2304.51,655.059 2306.19,655.813 2307.87,656.53 
  2309.55,657.212 2311.23,657.86 2312.91,658.474 2314.59,659.057 2316.27,659.609 2317.95,660.132 2319.63,660.627 2321.31,661.095 2323,661.539 2324.68,661.958 
  2324.68,669.355 2323,669.355 2321.31,669.355 2319.63,669.355 2317.95,669.355 2316.27,669.355 2314.59,669.355 2312.91,669.355 2311.23,669.355 2309.55,669.355 
  2307.87,669.355 2306.19,669.355 2304.51,669.355 2302.83,669.355 2301.15,669.355 2299.47,669.355 2297.79,669.355 2296.11,669.355 2294.43,669.355 2292.74,669.355 
  2291.06,669.355 2289.38,669.355 2287.7,669.355 2286.02,669.355 2284.34,669.355 2282.66,669.355 2280.98,669.355 2279.3,669.355 2277.62,669.355 2275.94,669.355 
  2274.26,669.355 2272.58,669.355 2270.9,669.355 2269.22,669.355 2267.54,669.355 2265.86,669.355 2264.17,669.355 2262.49,669.355 2260.81,669.355 2259.13,669.355 
  2257.45,669.355 2255.77,669.355 2254.09,669.355 2252.41,669.355 2250.73,669.355 2249.05,669.355 2247.37,669.355 2245.69,669.355 2244.01,669.355 2242.33,669.355 
  2240.65,669.355 2238.97,669.355 2237.29,669.355 2235.6,669.355 2233.92,669.355 2232.24,669.355 2230.56,669.355 2228.88,669.355 2227.2,669.355 2225.52,669.355 
  2223.84,669.355 2222.16,669.355 2220.48,669.355 2218.8,669.355 2217.12,669.355 2215.44,669.355 2213.76,669.355 2212.08,669.355 2210.4,669.355 2208.72,669.355 
  2207.03,669.355 2205.35,669.355 2203.67,669.355 2201.99,669.355 2200.31,669.355 2198.63,669.355 2196.95,669.355 2195.27,669.355 2193.59,669.355 2191.91,669.355 
  2190.23,669.355 2188.55,669.355 2186.87,669.355 2185.19,669.355 2183.51,669.355 2181.83,669.355 2180.15,669.355 2178.46,669.355 2176.78,669.355 2175.1,669.355 
  2173.42,669.355 2171.74,669.355 2170.06,669.355 2168.38,669.355 2166.7,669.355 2165.02,669.355 2163.34,669.355 2161.66,669.355 2159.98,669.355 2158.3,669.355 
  
  " fill="#ffa500" fill-rule="evenodd" fill-opacity="0.5"/>
<polyline clip-path="url(#clip1003)" style="stroke:#ffa500; stroke-width:4; stroke-opacity:1; fill:none" points="
  2158.3,443.489 2159.98,448.511 2161.66,453.386 2163.34,458.117 2165.02,462.709 2166.7,467.165 2168.38,471.489 2170.06,475.688 2171.74,479.766 2173.42,483.728 
  2175.1,487.58 2176.78,491.328 2178.46,494.977 2180.15,498.533 2181.83,502.001 2183.51,505.387 2185.19,508.696 2186.87,511.933 2188.55,515.105 2190.23,518.214 
  2191.91,521.267 2193.59,524.267 2195.27,527.218 2196.95,530.125 2198.63,532.991 2200.31,535.818 2201.99,538.61 2203.67,541.37 2205.35,544.1 2207.03,546.801 
  2208.72,549.477 2210.4,552.127 2212.08,554.754 2213.76,557.359 2215.44,559.942 2217.12,562.503 2218.8,565.044 2220.48,567.565 2222.16,570.065 2223.84,572.545 
  2225.52,575.004 2227.2,577.442 2228.88,579.859 2230.56,582.254 2232.24,584.627 2233.92,586.977 2235.6,589.303 2237.29,591.604 2238.97,593.881 2240.65,596.131 
  2242.33,598.355 2244.01,600.551 2245.69,602.718 2247.37,604.857 2249.05,606.965 2250.73,609.042 2252.41,611.087 2254.09,613.1 2255.77,615.079 2257.45,617.023 
  2259.13,618.933 2260.81,620.806 2262.49,622.642 2264.17,624.441 2265.86,626.201 2267.54,627.922 2269.22,629.603 2270.9,631.243 2272.58,632.842 2274.26,634.4 
  2275.94,635.915 2277.62,637.387 2279.3,638.816 2280.98,640.202 2282.66,641.544 2284.34,642.842 2286.02,644.096 2287.7,645.306 2289.38,646.472 2291.06,647.595 
  2292.74,648.674 2294.43,649.71 2296.11,650.704 2297.79,651.656 2299.47,652.566 2301.15,653.437 2302.83,654.267 2304.51,655.059 2306.19,655.813 2307.87,656.53 
  2309.55,657.212 2311.23,657.86 2312.91,658.474 2314.59,659.057 2316.27,659.609 2317.95,660.132 2319.63,660.627 2321.31,661.095 2323,661.539 2324.68,661.958 
  
  "/>
<polyline clip-path="url(#clip1003)" style="stroke:#0000ff; stroke-width:4; stroke-opacity:1; fill:none" points="
  1922.05,669.355 1922.05,130.06 
  "/>
<polyline clip-path="url(#clip1003)" style="stroke:#000000; stroke-width:4; stroke-opacity:1; fill:none" points="
  1940.4,669.355 1940.4,89.4454 
  "/>
<polygon clip-path="url(#clip1000)" points="
180.66,1487.47 1172.83,1487.47 1172.83,847.244 180.66,847.244 
  " fill="#ffffff" fill-rule="evenodd" fill-opacity="1"/>
<defs>
  <clipPath id="clip1004">
    <rect x="180" y="847" width="993" height="641"/>
  </clipPath>
</defs>
<polyline clip-path="url(#clip1004)" style="stroke:#000000; stroke-width:2; stroke-opacity:0.1; fill:none" points="
  191.126,1487.47 191.126,847.244 
  "/>
<polyline clip-path="url(#clip1004)" style="stroke:#000000; stroke-width:2; stroke-opacity:0.1; fill:none" points="
  452.197,1487.47 452.197,847.244 
  "/>
<polyline clip-path="url(#clip1004)" style="stroke:#000000; stroke-width:2; stroke-opacity:0.1; fill:none" points="
  713.268,1487.47 713.268,847.244 
  "/>
<polyline clip-path="url(#clip1004)" style="stroke:#000000; stroke-width:2; stroke-opacity:0.1; fill:none" points="
  974.339,1487.47 974.339,847.244 
  "/>
<polyline clip-path="url(#clip1004)" style="stroke:#000000; stroke-width:2; stroke-opacity:0.1; fill:none" points="
  180.66,1469.35 1172.83,1469.35 
  "/>
<polyline clip-path="url(#clip1004)" style="stroke:#000000; stroke-width:2; stroke-opacity:0.1; fill:none" points="
  180.66,1368.16 1172.83,1368.16 
  "/>
<polyline clip-path="url(#clip1004)" style="stroke:#000000; stroke-width:2; stroke-opacity:0.1; fill:none" points="
  180.66,1266.96 1172.83,1266.96 
  "/>
<polyline clip-path="url(#clip1004)" style="stroke:#000000; stroke-width:2; stroke-opacity:0.1; fill:none" points="
  180.66,1165.76 1172.83,1165.76 
  "/>
<polyline clip-path="url(#clip1004)" style="stroke:#000000; stroke-width:2; stroke-opacity:0.1; fill:none" points="
  180.66,1064.56 1172.83,1064.56 
  "/>
<polyline clip-path="url(#clip1004)" style="stroke:#000000; stroke-width:2; stroke-opacity:0.1; fill:none" points="
  180.66,963.36 1172.83,963.36 
  "/>
<polyline clip-path="url(#clip1004)" style="stroke:#000000; stroke-width:2; stroke-opacity:0.1; fill:none" points="
  180.66,862.161 1172.83,862.161 
  "/>
<polyline clip-path="url(#clip1000)" style="stroke:#000000; stroke-width:4; stroke-opacity:1; fill:none" points="
  180.66,1487.47 1172.83,1487.47 
  "/>
<polyline clip-path="url(#clip1000)" style="stroke:#000000; stroke-width:4; stroke-opacity:1; fill:none" points="
  180.66,1487.47 180.66,847.244 
  "/>
<polyline clip-path="url(#clip1000)" style="stroke:#000000; stroke-width:4; stroke-opacity:1; fill:none" points="
  191.126,1487.47 191.126,1477.87 
  "/>
<polyline clip-path="url(#clip1000)" style="stroke:#000000; stroke-width:4; stroke-opacity:1; fill:none" points="
  452.197,1487.47 452.197,1477.87 
  "/>
<polyline clip-path="url(#clip1000)" style="stroke:#000000; stroke-width:4; stroke-opacity:1; fill:none" points="
  713.268,1487.47 713.268,1477.87 
  "/>
<polyline clip-path="url(#clip1000)" style="stroke:#000000; stroke-width:4; stroke-opacity:1; fill:none" points="
  974.339,1487.47 974.339,1477.87 
  "/>
<polyline clip-path="url(#clip1000)" style="stroke:#000000; stroke-width:4; stroke-opacity:1; fill:none" points="
  180.66,1469.35 195.543,1469.35 
  "/>
<polyline clip-path="url(#clip1000)" style="stroke:#000000; stroke-width:4; stroke-opacity:1; fill:none" points="
  180.66,1368.16 195.543,1368.16 
  "/>
<polyline clip-path="url(#clip1000)" style="stroke:#000000; stroke-width:4; stroke-opacity:1; fill:none" points="
  180.66,1266.96 195.543,1266.96 
  "/>
<polyline clip-path="url(#clip1000)" style="stroke:#000000; stroke-width:4; stroke-opacity:1; fill:none" points="
  180.66,1165.76 195.543,1165.76 
  "/>
<polyline clip-path="url(#clip1000)" style="stroke:#000000; stroke-width:4; stroke-opacity:1; fill:none" points="
  180.66,1064.56 195.543,1064.56 
  "/>
<polyline clip-path="url(#clip1000)" style="stroke:#000000; stroke-width:4; stroke-opacity:1; fill:none" points="
  180.66,963.36 195.543,963.36 
  "/>
<polyline clip-path="url(#clip1000)" style="stroke:#000000; stroke-width:4; stroke-opacity:1; fill:none" points="
  180.66,862.161 195.543,862.161 
  "/>
<g clip-path="url(#clip1000)">
<text style="fill:#000000; fill-opacity:1; font-family:Arial,Helvetica Neue,Helvetica,sans-serif; font-size:48px; text-anchor:middle;" transform="rotate(0, 191.126, 1541.47)" x="191.126" y="1541.47">0.2</text>
</g>
<g clip-path="url(#clip1000)">
<text style="fill:#000000; fill-opacity:1; font-family:Arial,Helvetica Neue,Helvetica,sans-serif; font-size:48px; text-anchor:middle;" transform="rotate(0, 452.197, 1541.47)" x="452.197" y="1541.47">0.3</text>
</g>
<g clip-path="url(#clip1000)">
<text style="fill:#000000; fill-opacity:1; font-family:Arial,Helvetica Neue,Helvetica,sans-serif; font-size:48px; text-anchor:middle;" transform="rotate(0, 713.268, 1541.47)" x="713.268" y="1541.47">0.4</text>
</g>
<g clip-path="url(#clip1000)">
<text style="fill:#000000; fill-opacity:1; font-family:Arial,Helvetica Neue,Helvetica,sans-serif; font-size:48px; text-anchor:middle;" transform="rotate(0, 974.339, 1541.47)" x="974.339" y="1541.47">0.5</text>
</g>
<g clip-path="url(#clip1000)">
<text style="fill:#000000; fill-opacity:1; font-family:Arial,Helvetica Neue,Helvetica,sans-serif; font-size:48px; text-anchor:end;" transform="rotate(0, 156.66, 1486.85)" x="156.66" y="1486.85">0</text>
</g>
<g clip-path="url(#clip1000)">
<text style="fill:#000000; fill-opacity:1; font-family:Arial,Helvetica Neue,Helvetica,sans-serif; font-size:48px; text-anchor:end;" transform="rotate(0, 156.66, 1385.66)" x="156.66" y="1385.66">1</text>
</g>
<g clip-path="url(#clip1000)">
<text style="fill:#000000; fill-opacity:1; font-family:Arial,Helvetica Neue,Helvetica,sans-serif; font-size:48px; text-anchor:end;" transform="rotate(0, 156.66, 1284.46)" x="156.66" y="1284.46">2</text>
</g>
<g clip-path="url(#clip1000)">
<text style="fill:#000000; fill-opacity:1; font-family:Arial,Helvetica Neue,Helvetica,sans-serif; font-size:48px; text-anchor:end;" transform="rotate(0, 156.66, 1183.26)" x="156.66" y="1183.26">3</text>
</g>
<g clip-path="url(#clip1000)">
<text style="fill:#000000; fill-opacity:1; font-family:Arial,Helvetica Neue,Helvetica,sans-serif; font-size:48px; text-anchor:end;" transform="rotate(0, 156.66, 1082.06)" x="156.66" y="1082.06">4</text>
</g>
<g clip-path="url(#clip1000)">
<text style="fill:#000000; fill-opacity:1; font-family:Arial,Helvetica Neue,Helvetica,sans-serif; font-size:48px; text-anchor:end;" transform="rotate(0, 156.66, 980.86)" x="156.66" y="980.86">5</text>
</g>
<g clip-path="url(#clip1000)">
<text style="fill:#000000; fill-opacity:1; font-family:Arial,Helvetica Neue,Helvetica,sans-serif; font-size:48px; text-anchor:end;" transform="rotate(0, 156.66, 879.661)" x="156.66" y="879.661">6</text>
</g>
<polygon clip-path="url(#clip1004)" points="
208.741,1460.06 210.652,1459.61 212.563,1459.14 214.475,1458.66 216.386,1458.17 218.297,1457.66 220.209,1457.13 222.12,1456.59 224.031,1456.03 225.943,1455.45 
  227.854,1454.85 229.765,1454.23 231.677,1453.58 233.588,1452.91 235.499,1452.21 237.411,1451.48 239.322,1450.72 241.233,1449.93 243.145,1449.1 245.056,1448.23 
  246.967,1447.33 248.879,1446.38 250.79,1445.38 252.701,1444.34 254.613,1443.25 256.524,1442.1 258.435,1440.91 260.347,1439.65 262.258,1438.34 264.169,1436.97 
  266.081,1435.54 267.992,1434.04 269.903,1432.48 271.815,1430.86 273.726,1429.17 275.637,1427.42 277.549,1425.61 279.46,1423.73 281.371,1421.8 283.283,1419.8 
  285.194,1417.74 287.105,1415.63 289.017,1413.46 290.928,1411.25 292.839,1408.99 294.751,1406.68 296.662,1404.34 298.573,1401.96 300.485,1399.56 302.396,1397.13 
  304.307,1394.68 306.219,1392.21 308.13,1389.73 310.041,1387.25 311.953,1384.77 313.864,1382.29 315.775,1379.81 317.687,1377.35 319.598,1374.91 321.509,1372.48 
  323.421,1370.08 325.332,1367.69 327.243,1365.33 329.155,1363 331.066,1360.69 332.977,1358.41 334.889,1356.14 336.8,1353.9 338.711,1351.67 340.623,1349.46 
  342.534,1347.26 344.445,1345.06 346.357,1342.85 348.268,1340.63 350.179,1338.4 352.091,1336.13 354.002,1333.83 355.913,1331.48 357.825,1329.08 359.736,1326.61 
  361.647,1324.06 363.559,1321.43 365.47,1318.69 367.381,1315.85 369.293,1312.89 371.204,1309.8 373.115,1306.57 375.027,1303.2 376.938,1299.67 378.849,1295.98 
  380.761,1292.12 382.672,1288.08 384.583,1283.87 386.495,1279.47 388.406,1274.9 390.317,1270.14 392.229,1265.19 394.14,1260.07 396.051,1254.76 397.963,1249.29 
  397.963,1469.35 396.051,1469.35 394.14,1469.35 392.229,1469.35 390.317,1469.35 388.406,1469.35 386.495,1469.35 384.583,1469.35 382.672,1469.35 380.761,1469.35 
  378.849,1469.35 376.938,1469.35 375.027,1469.35 373.115,1469.35 371.204,1469.35 369.293,1469.35 367.381,1469.35 365.47,1469.35 363.559,1469.35 361.647,1469.35 
  359.736,1469.35 357.825,1469.35 355.913,1469.35 354.002,1469.35 352.091,1469.35 350.179,1469.35 348.268,1469.35 346.357,1469.35 344.445,1469.35 342.534,1469.35 
  340.623,1469.35 338.711,1469.35 336.8,1469.35 334.889,1469.35 332.977,1469.35 331.066,1469.35 329.155,1469.35 327.243,1469.35 325.332,1469.35 323.421,1469.35 
  321.509,1469.35 319.598,1469.35 317.687,1469.35 315.775,1469.35 313.864,1469.35 311.953,1469.35 310.041,1469.35 308.13,1469.35 306.219,1469.35 304.307,1469.35 
  302.396,1469.35 300.485,1469.35 298.573,1469.35 296.662,1469.35 294.751,1469.35 292.839,1469.35 290.928,1469.35 289.017,1469.35 287.105,1469.35 285.194,1469.35 
  283.283,1469.35 281.371,1469.35 279.46,1469.35 277.549,1469.35 275.637,1469.35 273.726,1469.35 271.815,1469.35 269.903,1469.35 267.992,1469.35 266.081,1469.35 
  264.169,1469.35 262.258,1469.35 260.347,1469.35 258.435,1469.35 256.524,1469.35 254.613,1469.35 252.701,1469.35 250.79,1469.35 248.879,1469.35 246.967,1469.35 
  245.056,1469.35 243.145,1469.35 241.233,1469.35 239.322,1469.35 237.411,1469.35 235.499,1469.35 233.588,1469.35 231.677,1469.35 229.765,1469.35 227.854,1469.35 
  225.943,1469.35 224.031,1469.35 222.12,1469.35 220.209,1469.35 218.297,1469.35 216.386,1469.35 214.475,1469.35 212.563,1469.35 210.652,1469.35 208.741,1469.35 
  
  " fill="#ffa500" fill-rule="evenodd" fill-opacity="0.5"/>
<polyline clip-path="url(#clip1004)" style="stroke:#ffa500; stroke-width:4; stroke-opacity:1; fill:none" points="
  208.741,1460.06 210.652,1459.61 212.563,1459.14 214.475,1458.66 216.386,1458.17 218.297,1457.66 220.209,1457.13 222.12,1456.59 224.031,1456.03 225.943,1455.45 
  227.854,1454.85 229.765,1454.23 231.677,1453.58 233.588,1452.91 235.499,1452.21 237.411,1451.48 239.322,1450.72 241.233,1449.93 243.145,1449.1 245.056,1448.23 
  246.967,1447.33 248.879,1446.38 250.79,1445.38 252.701,1444.34 254.613,1443.25 256.524,1442.1 258.435,1440.91 260.347,1439.65 262.258,1438.34 264.169,1436.97 
  266.081,1435.54 267.992,1434.04 269.903,1432.48 271.815,1430.86 273.726,1429.17 275.637,1427.42 277.549,1425.61 279.46,1423.73 281.371,1421.8 283.283,1419.8 
  285.194,1417.74 287.105,1415.63 289.017,1413.46 290.928,1411.25 292.839,1408.99 294.751,1406.68 296.662,1404.34 298.573,1401.96 300.485,1399.56 302.396,1397.13 
  304.307,1394.68 306.219,1392.21 308.13,1389.73 310.041,1387.25 311.953,1384.77 313.864,1382.29 315.775,1379.81 317.687,1377.35 319.598,1374.91 321.509,1372.48 
  323.421,1370.08 325.332,1367.69 327.243,1365.33 329.155,1363 331.066,1360.69 332.977,1358.41 334.889,1356.14 336.8,1353.9 338.711,1351.67 340.623,1349.46 
  342.534,1347.26 344.445,1345.06 346.357,1342.85 348.268,1340.63 350.179,1338.4 352.091,1336.13 354.002,1333.83 355.913,1331.48 357.825,1329.08 359.736,1326.61 
  361.647,1324.06 363.559,1321.43 365.47,1318.69 367.381,1315.85 369.293,1312.89 371.204,1309.8 373.115,1306.57 375.027,1303.2 376.938,1299.67 378.849,1295.98 
  380.761,1292.12 382.672,1288.08 384.583,1283.87 386.495,1279.47 388.406,1274.9 390.317,1270.14 392.229,1265.19 394.14,1260.07 396.051,1254.76 397.963,1249.29 
  
  "/>
<polygon clip-path="url(#clip1004)" points="
397.963,1249.29 403.107,1233.73 408.251,1217.12 413.396,1199.66 418.54,1181.6 423.684,1163.24 428.829,1144.88 433.973,1126.82 439.117,1109.36 444.262,1092.79 
  449.406,1077.34 454.55,1063.23 459.695,1050.6 464.839,1039.57 469.983,1030.18 475.128,1022.42 480.272,1016.23 485.416,1011.48 490.561,1008.02 495.705,1005.65 
  500.849,1004.13 505.994,1003.24 511.138,1002.72 516.282,1002.32 521.427,1001.83 526.571,1001 531.715,999.655 536.86,997.606 542.004,994.71 547.148,990.861 
  552.293,985.995 557.437,980.101 562.581,973.225 567.726,965.473 572.87,957.014 578.014,948.067 583.159,938.892 588.303,929.771 593.447,920.989 598.592,912.807 
  603.736,905.442 608.88,899.048 614.025,893.706 619.169,889.415 624.313,886.103 629.458,883.633 634.602,881.823 639.746,880.469 644.89,879.367 650.035,878.333 
  655.179,877.219 660.323,875.931 665.468,874.43 670.612,872.733 675.756,870.918 680.901,869.104 686.045,867.452 691.189,866.147 696.334,865.386 701.478,865.364 
  706.622,866.259 711.767,868.223 716.911,871.365 722.055,875.749 727.2,881.387 732.344,888.238 737.488,896.218 742.633,905.202 747.777,915.043 752.921,925.58 
  758.066,936.655 763.21,948.124 768.354,959.864 773.499,971.785 778.643,983.822 783.787,995.942 788.932,1008.13 794.076,1020.4 799.22,1032.75 804.365,1045.22 
  809.509,1057.8 814.653,1070.51 819.798,1083.33 824.942,1096.25 830.086,1109.25 835.231,1122.27 840.375,1135.28 845.519,1148.21 850.664,1161.01 855.808,1173.62 
  860.952,1185.98 866.097,1198.06 871.241,1209.82 876.385,1221.23 881.53,1232.31 886.674,1243.05 891.818,1253.48 896.963,1263.63 902.107,1273.54 907.251,1283.25 
  907.251,1469.35 902.107,1469.35 896.963,1469.35 891.818,1469.35 886.674,1469.35 881.53,1469.35 876.385,1469.35 871.241,1469.35 866.097,1469.35 860.952,1469.35 
  855.808,1469.35 850.664,1469.35 845.519,1469.35 840.375,1469.35 835.231,1469.35 830.086,1469.35 824.942,1469.35 819.798,1469.35 814.653,1469.35 809.509,1469.35 
  804.365,1469.35 799.22,1469.35 794.076,1469.35 788.932,1469.35 783.787,1469.35 778.643,1469.35 773.499,1469.35 768.354,1469.35 763.21,1469.35 758.066,1469.35 
  752.921,1469.35 747.777,1469.35 742.633,1469.35 737.488,1469.35 732.344,1469.35 727.2,1469.35 722.055,1469.35 716.911,1469.35 711.767,1469.35 706.622,1469.35 
  701.478,1469.35 696.334,1469.35 691.189,1469.35 686.045,1469.35 680.901,1469.35 675.756,1469.35 670.612,1469.35 665.468,1469.35 660.323,1469.35 655.179,1469.35 
  650.035,1469.35 644.89,1469.35 639.746,1469.35 634.602,1469.35 629.458,1469.35 624.313,1469.35 619.169,1469.35 614.025,1469.35 608.88,1469.35 603.736,1469.35 
  598.592,1469.35 593.447,1469.35 588.303,1469.35 583.159,1469.35 578.014,1469.35 572.87,1469.35 567.726,1469.35 562.581,1469.35 557.437,1469.35 552.293,1469.35 
  547.148,1469.35 542.004,1469.35 536.86,1469.35 531.715,1469.35 526.571,1469.35 521.427,1469.35 516.282,1469.35 511.138,1469.35 505.994,1469.35 500.849,1469.35 
  495.705,1469.35 490.561,1469.35 485.416,1469.35 480.272,1469.35 475.128,1469.35 469.983,1469.35 464.839,1469.35 459.695,1469.35 454.55,1469.35 449.406,1469.35 
  444.262,1469.35 439.117,1469.35 433.973,1469.35 428.829,1469.35 423.684,1469.35 418.54,1469.35 413.396,1469.35 408.251,1469.35 403.107,1469.35 397.963,1469.35 
  
  " fill="#008000" fill-rule="evenodd" fill-opacity="0.5"/>
<polyline clip-path="url(#clip1004)" style="stroke:#008000; stroke-width:4; stroke-opacity:1; fill:none" points="
  397.963,1249.29 403.107,1233.73 408.251,1217.12 413.396,1199.66 418.54,1181.6 423.684,1163.24 428.829,1144.88 433.973,1126.82 439.117,1109.36 444.262,1092.79 
  449.406,1077.34 454.55,1063.23 459.695,1050.6 464.839,1039.57 469.983,1030.18 475.128,1022.42 480.272,1016.23 485.416,1011.48 490.561,1008.02 495.705,1005.65 
  500.849,1004.13 505.994,1003.24 511.138,1002.72 516.282,1002.32 521.427,1001.83 526.571,1001 531.715,999.655 536.86,997.606 542.004,994.71 547.148,990.861 
  552.293,985.995 557.437,980.101 562.581,973.225 567.726,965.473 572.87,957.014 578.014,948.067 583.159,938.892 588.303,929.771 593.447,920.989 598.592,912.807 
  603.736,905.442 608.88,899.048 614.025,893.706 619.169,889.415 624.313,886.103 629.458,883.633 634.602,881.823 639.746,880.469 644.89,879.367 650.035,878.333 
  655.179,877.219 660.323,875.931 665.468,874.43 670.612,872.733 675.756,870.918 680.901,869.104 686.045,867.452 691.189,866.147 696.334,865.386 701.478,865.364 
  706.622,866.259 711.767,868.223 716.911,871.365 722.055,875.749 727.2,881.387 732.344,888.238 737.488,896.218 742.633,905.202 747.777,915.043 752.921,925.58 
  758.066,936.655 763.21,948.124 768.354,959.864 773.499,971.785 778.643,983.822 783.787,995.942 788.932,1008.13 794.076,1020.4 799.22,1032.75 804.365,1045.22 
  809.509,1057.8 814.653,1070.51 819.798,1083.33 824.942,1096.25 830.086,1109.25 835.231,1122.27 840.375,1135.28 845.519,1148.21 850.664,1161.01 855.808,1173.62 
  860.952,1185.98 866.097,1198.06 871.241,1209.82 876.385,1221.23 881.53,1232.31 886.674,1243.05 891.818,1253.48 896.963,1263.63 902.107,1273.54 907.251,1283.25 
  
  "/>
<polygon clip-path="url(#clip1004)" points="
907.251,1283.25 909.65,1287.71 912.049,1292.14 914.448,1296.53 916.847,1300.88 919.246,1305.2 921.645,1309.48 924.044,1313.72 926.443,1317.92 928.842,1322.08 
  931.241,1326.18 933.64,1330.23 936.039,1334.21 938.438,1338.13 940.837,1341.98 943.236,1345.75 945.635,1349.43 948.033,1353.03 950.432,1356.53 952.831,1359.92 
  955.23,1363.22 957.629,1366.4 960.028,1369.47 962.427,1372.43 964.826,1375.28 967.225,1378.01 969.624,1380.63 972.023,1383.13 974.422,1385.53 976.821,1387.83 
  979.22,1390.02 981.619,1392.12 984.018,1394.13 986.417,1396.05 988.816,1397.9 991.215,1399.68 993.614,1401.4 996.012,1403.06 998.411,1404.67 1000.81,1406.24 
  1003.21,1407.77 1005.61,1409.27 1008.01,1410.74 1010.41,1412.2 1012.81,1413.64 1015.2,1415.07 1017.6,1416.49 1020,1417.9 1022.4,1419.31 1024.8,1420.71 
  1027.2,1422.12 1029.6,1423.52 1032,1424.92 1034.4,1426.32 1036.79,1427.71 1039.19,1429.1 1041.59,1430.48 1043.99,1431.85 1046.39,1433.2 1048.79,1434.54 
  1051.19,1435.85 1053.59,1437.14 1055.99,1438.41 1058.39,1439.64 1060.78,1440.84 1063.18,1442.01 1065.58,1443.13 1067.98,1444.21 1070.38,1445.24 1072.78,1446.23 
  1075.18,1447.16 1077.58,1448.05 1079.98,1448.88 1082.37,1449.66 1084.77,1450.39 1087.17,1451.07 1089.57,1451.69 1091.97,1452.27 1094.37,1452.8 1096.77,1453.29 
  1099.17,1453.74 1101.57,1454.15 1103.97,1454.53 1106.36,1454.88 1108.76,1455.2 1111.16,1455.5 1113.56,1455.78 1115.96,1456.05 1118.36,1456.31 1120.76,1456.57 
  1123.16,1456.82 1125.56,1457.07 1127.95,1457.33 1130.35,1457.59 1132.75,1457.86 1135.15,1458.14 1137.55,1458.44 1139.95,1458.74 1142.35,1459.06 1144.75,1459.39 
  1144.75,1469.35 1142.35,1469.35 1139.95,1469.35 1137.55,1469.35 1135.15,1469.35 1132.75,1469.35 1130.35,1469.35 1127.95,1469.35 1125.56,1469.35 1123.16,1469.35 
  1120.76,1469.35 1118.36,1469.35 1115.96,1469.35 1113.56,1469.35 1111.16,1469.35 1108.76,1469.35 1106.36,1469.35 1103.97,1469.35 1101.57,1469.35 1099.17,1469.35 
  1096.77,1469.35 1094.37,1469.35 1091.97,1469.35 1089.57,1469.35 1087.17,1469.35 1084.77,1469.35 1082.37,1469.35 1079.98,1469.35 1077.58,1469.35 1075.18,1469.35 
  1072.78,1469.35 1070.38,1469.35 1067.98,1469.35 1065.58,1469.35 1063.18,1469.35 1060.78,1469.35 1058.39,1469.35 1055.99,1469.35 1053.59,1469.35 1051.19,1469.35 
  1048.79,1469.35 1046.39,1469.35 1043.99,1469.35 1041.59,1469.35 1039.19,1469.35 1036.79,1469.35 1034.4,1469.35 1032,1469.35 1029.6,1469.35 1027.2,1469.35 
  1024.8,1469.35 1022.4,1469.35 1020,1469.35 1017.6,1469.35 1015.2,1469.35 1012.81,1469.35 1010.41,1469.35 1008.01,1469.35 1005.61,1469.35 1003.21,1469.35 
  1000.81,1469.35 998.411,1469.35 996.012,1469.35 993.614,1469.35 991.215,1469.35 988.816,1469.35 986.417,1469.35 984.018,1469.35 981.619,1469.35 979.22,1469.35 
  976.821,1469.35 974.422,1469.35 972.023,1469.35 969.624,1469.35 967.225,1469.35 964.826,1469.35 962.427,1469.35 960.028,1469.35 957.629,1469.35 955.23,1469.35 
  952.831,1469.35 950.432,1469.35 948.033,1469.35 945.635,1469.35 943.236,1469.35 940.837,1469.35 938.438,1469.35 936.039,1469.35 933.64,1469.35 931.241,1469.35 
  928.842,1469.35 926.443,1469.35 924.044,1469.35 921.645,1469.35 919.246,1469.35 916.847,1469.35 914.448,1469.35 912.049,1469.35 909.65,1469.35 907.251,1469.35 
  
  " fill="#ffa500" fill-rule="evenodd" fill-opacity="0.5"/>
<polyline clip-path="url(#clip1004)" style="stroke:#ffa500; stroke-width:4; stroke-opacity:1; fill:none" points="
  907.251,1283.25 909.65,1287.71 912.049,1292.14 914.448,1296.53 916.847,1300.88 919.246,1305.2 921.645,1309.48 924.044,1313.72 926.443,1317.92 928.842,1322.08 
  931.241,1326.18 933.64,1330.23 936.039,1334.21 938.438,1338.13 940.837,1341.98 943.236,1345.75 945.635,1349.43 948.033,1353.03 950.432,1356.53 952.831,1359.92 
  955.23,1363.22 957.629,1366.4 960.028,1369.47 962.427,1372.43 964.826,1375.28 967.225,1378.01 969.624,1380.63 972.023,1383.13 974.422,1385.53 976.821,1387.83 
  979.22,1390.02 981.619,1392.12 984.018,1394.13 986.417,1396.05 988.816,1397.9 991.215,1399.68 993.614,1401.4 996.012,1403.06 998.411,1404.67 1000.81,1406.24 
  1003.21,1407.77 1005.61,1409.27 1008.01,1410.74 1010.41,1412.2 1012.81,1413.64 1015.2,1415.07 1017.6,1416.49 1020,1417.9 1022.4,1419.31 1024.8,1420.71 
  1027.2,1422.12 1029.6,1423.52 1032,1424.92 1034.4,1426.32 1036.79,1427.71 1039.19,1429.1 1041.59,1430.48 1043.99,1431.85 1046.39,1433.2 1048.79,1434.54 
  1051.19,1435.85 1053.59,1437.14 1055.99,1438.41 1058.39,1439.64 1060.78,1440.84 1063.18,1442.01 1065.58,1443.13 1067.98,1444.21 1070.38,1445.24 1072.78,1446.23 
  1075.18,1447.16 1077.58,1448.05 1079.98,1448.88 1082.37,1449.66 1084.77,1450.39 1087.17,1451.07 1089.57,1451.69 1091.97,1452.27 1094.37,1452.8 1096.77,1453.29 
  1099.17,1453.74 1101.57,1454.15 1103.97,1454.53 1106.36,1454.88 1108.76,1455.2 1111.16,1455.5 1113.56,1455.78 1115.96,1456.05 1118.36,1456.31 1120.76,1456.57 
  1123.16,1456.82 1125.56,1457.07 1127.95,1457.33 1130.35,1457.59 1132.75,1457.86 1135.15,1458.14 1137.55,1458.44 1139.95,1458.74 1142.35,1459.06 1144.75,1459.39 
  
  "/>
<polyline clip-path="url(#clip1004)" style="stroke:#0000ff; stroke-width:4; stroke-opacity:1; fill:none" points="
  647.585,1469.35 647.585,878.828 
  "/>
<polyline clip-path="url(#clip1004)" style="stroke:#000000; stroke-width:4; stroke-opacity:1; fill:none" points="
  652.581,1469.35 652.581,877.799 
  "/>
</svg>
