<?xml version="1.0" encoding="utf-8"?>
<svg xmlns="http://www.w3.org/2000/svg" xmlns:xlink="http://www.w3.org/1999/xlink" width="600" height="400" viewBox="0 0 600 400">
<defs>
  <clipPath id="clip9500">
    <rect x="0" y="0" width="600" height="400"/>
  </clipPath>
</defs>
<polygon clip-path="url(#clip9500)" points="
0,400 600,400 600,0 0,0 
  " fill="#ffffff" fill-opacity="1"/>
<defs>
  <clipPath id="clip9501">
    <rect x="120" y="0" width="421" height="400"/>
  </clipPath>
</defs>
<polygon clip-path="url(#clip9500)" points="
40.3485,375.869 580.315,375.869 580.315,11.811 40.3485,11.811 
  " fill="#ffffff" fill-opacity="1"/>
<defs>
  <clipPath id="clip9502">
    <rect x="40" y="11" width="541" height="365"/>
  </clipPath>
</defs>
<polyline clip-path="url(#clip9502)" style="stroke:#000000; stroke-width:0.5; stroke-opacity:0.1; fill:none" points="
  43.3494,375.869 43.3494,11.811 
  "/>
<polyline clip-path="url(#clip9502)" style="stroke:#000000; stroke-width:0.5; stroke-opacity:0.1; fill:none" points="
  176.841,375.869 176.841,11.811 
  "/>
<polyline clip-path="url(#clip9502)" style="stroke:#000000; stroke-width:0.5; stroke-opacity:0.1; fill:none" points="
  310.332,375.869 310.332,11.811 
  "/>
<polyline clip-path="url(#clip9502)" style="stroke:#000000; stroke-width:0.5; stroke-opacity:0.1; fill:none" points="
  443.823,375.869 443.823,11.811 
  "/>
<polyline clip-path="url(#clip9502)" style="stroke:#000000; stroke-width:0.5; stroke-opacity:0.1; fill:none" points="
  577.314,375.869 577.314,11.811 
  "/>
<polyline clip-path="url(#clip9502)" style="stroke:#000000; stroke-width:0.5; stroke-opacity:0.1; fill:none" points="
  40.3485,365.565 580.315,365.565 
  "/>
<polyline clip-path="url(#clip9502)" style="stroke:#000000; stroke-width:0.5; stroke-opacity:0.1; fill:none" points="
  40.3485,273.24 580.315,273.24 
  "/>
<polyline clip-path="url(#clip9502)" style="stroke:#000000; stroke-width:0.5; stroke-opacity:0.1; fill:none" points="
  40.3485,180.914 580.315,180.914 
  "/>
<polyline clip-path="url(#clip9502)" style="stroke:#000000; stroke-width:0.5; stroke-opacity:0.1; fill:none" points="
  40.3485,88.5889 580.315,88.5889 
  "/>
<polyline clip-path="url(#clip9500)" style="stroke:#000000; stroke-width:1; stroke-opacity:1; fill:none" points="
  40.3485,375.869 580.315,375.869 
  "/>
<polyline clip-path="url(#clip9500)" style="stroke:#000000; stroke-width:1; stroke-opacity:1; fill:none" points="
  40.3485,375.869 40.3485,11.811 
  "/>
<polyline clip-path="url(#clip9500)" style="stroke:#000000; stroke-width:1; stroke-opacity:1; fill:none" points="
  43.3494,375.869 43.3494,370.408 
  "/>
<polyline clip-path="url(#clip9500)" style="stroke:#000000; stroke-width:1; stroke-opacity:1; fill:none" points="
  176.841,375.869 176.841,370.408 
  "/>
<polyline clip-path="url(#clip9500)" style="stroke:#000000; stroke-width:1; stroke-opacity:1; fill:none" points="
  310.332,375.869 310.332,370.408 
  "/>
<polyline clip-path="url(#clip9500)" style="stroke:#000000; stroke-width:1; stroke-opacity:1; fill:none" points="
  443.823,375.869 443.823,370.408 
  "/>
<polyline clip-path="url(#clip9500)" style="stroke:#000000; stroke-width:1; stroke-opacity:1; fill:none" points="
  577.314,375.869 577.314,370.408 
  "/>
<polyline clip-path="url(#clip9500)" style="stroke:#000000; stroke-width:1; stroke-opacity:1; fill:none" points="
  40.3485,365.565 48.448,365.565 
  "/>
<polyline clip-path="url(#clip9500)" style="stroke:#000000; stroke-width:1; stroke-opacity:1; fill:none" points="
  40.3485,273.24 48.448,273.24 
  "/>
<polyline clip-path="url(#clip9500)" style="stroke:#000000; stroke-width:1; stroke-opacity:1; fill:none" points="
  40.3485,180.914 48.448,180.914 
  "/>
<polyline clip-path="url(#clip9500)" style="stroke:#000000; stroke-width:1; stroke-opacity:1; fill:none" points="
  40.3485,88.5889 48.448,88.5889 
  "/>
<g clip-path="url(#clip9500)">
<text style="fill:#000000; fill-opacity:1; font-family:Arial,Helvetica Neue,Helvetica,sans-serif; font-size:12; text-anchor:middle;" transform="rotate(0, 43.3494, 389.669)" x="43.3494" y="389.669">-0.5</text>
</g>
<g clip-path="url(#clip9500)">
<text style="fill:#000000; fill-opacity:1; font-family:Arial,Helvetica Neue,Helvetica,sans-serif; font-size:12; text-anchor:middle;" transform="rotate(0, 176.841, 389.669)" x="176.841" y="389.669">0.0</text>
</g>
<g clip-path="url(#clip9500)">
<text style="fill:#000000; fill-opacity:1; font-family:Arial,Helvetica Neue,Helvetica,sans-serif; font-size:12; text-anchor:middle;" transform="rotate(0, 310.332, 389.669)" x="310.332" y="389.669">0.5</text>
</g>
<g clip-path="url(#clip9500)">
<text style="fill:#000000; fill-opacity:1; font-family:Arial,Helvetica Neue,Helvetica,sans-serif; font-size:12; text-anchor:middle;" transform="rotate(0, 443.823, 389.669)" x="443.823" y="389.669">1.0</text>
</g>
<g clip-path="url(#clip9500)">
<text style="fill:#000000; fill-opacity:1; font-family:Arial,Helvetica Neue,Helvetica,sans-serif; font-size:12; text-anchor:middle;" transform="rotate(0, 577.314, 389.669)" x="577.314" y="389.669">1.5</text>
</g>
<g clip-path="url(#clip9500)">
<text style="fill:#000000; fill-opacity:1; font-family:Arial,Helvetica Neue,Helvetica,sans-serif; font-size:12; text-anchor:end;" transform="rotate(0, 34.3485, 370.065)" x="34.3485" y="370.065">0.0</text>
</g>
<g clip-path="url(#clip9500)">
<text style="fill:#000000; fill-opacity:1; font-family:Arial,Helvetica Neue,Helvetica,sans-serif; font-size:12; text-anchor:end;" transform="rotate(0, 34.3485, 277.74)" x="34.3485" y="277.74">0.1</text>
</g>
<g clip-path="url(#clip9500)">
<text style="fill:#000000; fill-opacity:1; font-family:Arial,Helvetica Neue,Helvetica,sans-serif; font-size:12; text-anchor:end;" transform="rotate(0, 34.3485, 185.414)" x="34.3485" y="185.414">0.2</text>
</g>
<g clip-path="url(#clip9500)">
<text style="fill:#000000; fill-opacity:1; font-family:Arial,Helvetica Neue,Helvetica,sans-serif; font-size:12; text-anchor:end;" transform="rotate(0, 34.3485, 93.0889)" x="34.3485" y="93.0889">0.3</text>
</g>
<polygon clip-path="url(#clip9502)" points="
70.0476,266.777 70.0476,365.565 283.634,365.565 283.634,266.777 70.0476,266.777 70.0476,266.777 
  " fill="#009af9" fill-opacity="1"/>
<polyline clip-path="url(#clip9502)" style="stroke:#000000; stroke-width:1; stroke-opacity:1; fill:none" points="
  70.0476,266.777 70.0476,365.565 283.634,365.565 283.634,266.777 70.0476,266.777 
  "/>
<polygon clip-path="url(#clip9502)" points="
337.03,22.1145 337.03,365.565 550.616,365.565 550.616,22.1145 337.03,22.1145 337.03,22.1145 
  " fill="#009af9" fill-opacity="1"/>
<polyline clip-path="url(#clip9502)" style="stroke:#000000; stroke-width:1; stroke-opacity:1; fill:none" points="
  337.03,22.1145 337.03,365.565 550.616,365.565 550.616,22.1145 337.03,22.1145 
  "/>
<polygon clip-path="url(#clip9500)" points="
376.578,62.931 562.315,62.931 562.315,32.691 376.578,32.691 
  " fill="#ffffff" fill-opacity="1"/>
<polyline clip-path="url(#clip9500)" style="stroke:#000000; stroke-width:1; stroke-opacity:1; fill:none" points="
  376.578,62.931 562.315,62.931 562.315,32.691 376.578,32.691 376.578,62.931 
  "/>
<polygon clip-path="url(#clip9500)" points="
382.578,53.859 418.578,53.859 418.578,41.763 382.578,41.763 382.578,53.859 
  " fill="#009af9" fill-opacity="1"/>
<polyline clip-path="url(#clip9500)" style="stroke:#000000; stroke-width:1; stroke-opacity:1; fill:none" points="
  382.578,53.859 418.578,53.859 418.578,41.763 382.578,41.763 382.578,53.859 
  "/>
<g clip-path="url(#clip9500)">
<text style="fill:#000000; fill-opacity:1; font-family:Arial,Helvetica Neue,Helvetica,sans-serif; font-size:12; text-anchor:start;" transform="rotate(0, 424.578, 52.311)" x="424.578" y="52.311">0 is intercept, 1 is slope</text>
</g>
</svg>
