<?xml version="1.0" encoding="utf-8" standalone="no"?>
<!DOCTYPE svg PUBLIC "-//W3C//DTD SVG 1.1//EN"
  "http://www.w3.org/Graphics/SVG/1.1/DTD/svg11.dtd">
<!-- Created with matplotlib (http://matplotlib.org/) -->
<svg height="288pt" version="1.1" viewBox="0 0 432 288" width="432pt" xmlns="http://www.w3.org/2000/svg" xmlns:xlink="http://www.w3.org/1999/xlink">
 <defs>
  <style type="text/css">
*{stroke-linecap:butt;stroke-linejoin:round;}
  </style>
 </defs>
 <g id="figure_1">
  <g id="patch_1">
   <path d="M 0 288 
L 432 288 
L 432 0 
L 0 0 
z
" style="fill:#ffffff;"/>
  </g>
  <g id="axes_1">
   <g id="patch_2">
    <path d="M 17.574646 273.485354 
L 429.165354 273.485354 
L 429.165354 2.834646 
L 17.574646 2.834646 
z
" style="fill:#ffffff;"/>
   </g>
   <g id="matplotlib.axis_1">
    <g id="xtick_1">
     <g id="line2d_1">
      <path clip-path="url(#p80f5f89308)" d="M 80.314639 273.485354 
L 80.314639 2.834646 
" style="fill:none;stroke:#000000;stroke-dasharray:0.8,1.32;stroke-dashoffset:0;stroke-width:0.8;"/>
     </g>
     <g id="line2d_2">
      <defs>
       <path d="M 0 0 
L 0 3.5 
" id="m6925d5ffa7" style="stroke:#000000;stroke-width:0.8;"/>
      </defs>
      <g>
       <use style="stroke:#000000;stroke-width:0.8;" x="80.314639" xlink:href="#m6925d5ffa7" y="273.485354"/>
      </g>
     </g>
     <g id="text_1">
      <!-- -10 -->
      <defs>
       <path d="M 4.890625 31.390625 
L 31.203125 31.390625 
L 31.203125 23.390625 
L 4.890625 23.390625 
z
" id="DejaVuSans-2d"/>
       <path d="M 12.40625 8.296875 
L 28.515625 8.296875 
L 28.515625 63.921875 
L 10.984375 60.40625 
L 10.984375 69.390625 
L 28.421875 72.90625 
L 38.28125 72.90625 
L 38.28125 8.296875 
L 54.390625 8.296875 
L 54.390625 0 
L 12.40625 0 
z
" id="DejaVuSans-31"/>
       <path d="M 31.78125 66.40625 
Q 24.171875 66.40625 20.328125 58.90625 
Q 16.5 51.421875 16.5 36.375 
Q 16.5 21.390625 20.328125 13.890625 
Q 24.171875 6.390625 31.78125 6.390625 
Q 39.453125 6.390625 43.28125 13.890625 
Q 47.125 21.390625 47.125 36.375 
Q 47.125 51.421875 43.28125 58.90625 
Q 39.453125 66.40625 31.78125 66.40625 
z
M 31.78125 74.21875 
Q 44.046875 74.21875 50.515625 64.515625 
Q 56.984375 54.828125 56.984375 36.375 
Q 56.984375 17.96875 50.515625 8.265625 
Q 44.046875 -1.421875 31.78125 -1.421875 
Q 19.53125 -1.421875 13.0625 8.265625 
Q 6.59375 17.96875 6.59375 36.375 
Q 6.59375 54.828125 13.0625 64.515625 
Q 19.53125 74.21875 31.78125 74.21875 
z
" id="DejaVuSans-30"/>
      </defs>
      <g transform="translate(73.781514 286.564104)scale(0.08 -0.08)">
       <use xlink:href="#DejaVuSans-2d"/>
       <use x="36.083984" xlink:href="#DejaVuSans-31"/>
       <use x="99.707031" xlink:href="#DejaVuSans-30"/>
      </g>
     </g>
    </g>
    <g id="xtick_2">
     <g id="line2d_3">
      <path clip-path="url(#p80f5f89308)" d="M 182.49704 273.485354 
L 182.49704 2.834646 
" style="fill:none;stroke:#000000;stroke-dasharray:0.8,1.32;stroke-dashoffset:0;stroke-width:0.8;"/>
     </g>
     <g id="line2d_4">
      <g>
       <use style="stroke:#000000;stroke-width:0.8;" x="182.49704" xlink:href="#m6925d5ffa7" y="273.485354"/>
      </g>
     </g>
     <g id="text_2">
      <!-- 0 -->
      <g transform="translate(179.95204 286.564104)scale(0.08 -0.08)">
       <use xlink:href="#DejaVuSans-30"/>
      </g>
     </g>
    </g>
    <g id="xtick_3">
     <g id="line2d_5">
      <path clip-path="url(#p80f5f89308)" d="M 284.67944 273.485354 
L 284.67944 2.834646 
" style="fill:none;stroke:#000000;stroke-dasharray:0.8,1.32;stroke-dashoffset:0;stroke-width:0.8;"/>
     </g>
     <g id="line2d_6">
      <g>
       <use style="stroke:#000000;stroke-width:0.8;" x="284.67944" xlink:href="#m6925d5ffa7" y="273.485354"/>
      </g>
     </g>
     <g id="text_3">
      <!-- 10 -->
      <g transform="translate(279.58944 286.564104)scale(0.08 -0.08)">
       <use xlink:href="#DejaVuSans-31"/>
       <use x="63.623047" xlink:href="#DejaVuSans-30"/>
      </g>
     </g>
    </g>
    <g id="xtick_4">
     <g id="line2d_7">
      <path clip-path="url(#p80f5f89308)" d="M 386.861841 273.485354 
L 386.861841 2.834646 
" style="fill:none;stroke:#000000;stroke-dasharray:0.8,1.32;stroke-dashoffset:0;stroke-width:0.8;"/>
     </g>
     <g id="line2d_8">
      <g>
       <use style="stroke:#000000;stroke-width:0.8;" x="386.861841" xlink:href="#m6925d5ffa7" y="273.485354"/>
      </g>
     </g>
     <g id="text_4">
      <!-- 20 -->
      <defs>
       <path d="M 19.1875 8.296875 
L 53.609375 8.296875 
L 53.609375 0 
L 7.328125 0 
L 7.328125 8.296875 
Q 12.9375 14.109375 22.625 23.890625 
Q 32.328125 33.6875 34.8125 36.53125 
Q 39.546875 41.84375 41.421875 45.53125 
Q 43.3125 49.21875 43.3125 52.78125 
Q 43.3125 58.59375 39.234375 62.25 
Q 35.15625 65.921875 28.609375 65.921875 
Q 23.96875 65.921875 18.8125 64.3125 
Q 13.671875 62.703125 7.8125 59.421875 
L 7.8125 69.390625 
Q 13.765625 71.78125 18.9375 73 
Q 24.125 74.21875 28.421875 74.21875 
Q 39.75 74.21875 46.484375 68.546875 
Q 53.21875 62.890625 53.21875 53.421875 
Q 53.21875 48.921875 51.53125 44.890625 
Q 49.859375 40.875 45.40625 35.40625 
Q 44.1875 33.984375 37.640625 27.21875 
Q 31.109375 20.453125 19.1875 8.296875 
z
" id="DejaVuSans-32"/>
      </defs>
      <g transform="translate(381.771841 286.564104)scale(0.08 -0.08)">
       <use xlink:href="#DejaVuSans-32"/>
       <use x="63.623047" xlink:href="#DejaVuSans-30"/>
      </g>
     </g>
    </g>
   </g>
   <g id="matplotlib.axis_2">
    <g id="ytick_1">
     <g id="line2d_9">
      <path clip-path="url(#p80f5f89308)" d="M 17.574646 273.485354 
L 429.165354 273.485354 
" style="fill:none;stroke:#000000;stroke-dasharray:0.8,1.32;stroke-dashoffset:0;stroke-width:0.8;"/>
     </g>
     <g id="line2d_10">
      <defs>
       <path d="M 0 0 
L -3.5 0 
" id="m407ca80991" style="stroke:#000000;stroke-width:0.8;"/>
      </defs>
      <g>
       <use style="stroke:#000000;stroke-width:0.8;" x="17.574646" xlink:href="#m407ca80991" y="273.485354"/>
      </g>
     </g>
     <g id="text_5">
      <!-- 0 -->
      <g transform="translate(5.484646 276.524729)scale(0.08 -0.08)">
       <use xlink:href="#DejaVuSans-30"/>
      </g>
     </g>
    </g>
    <g id="ytick_2">
     <g id="line2d_11">
      <path clip-path="url(#p80f5f89308)" d="M 17.574646 196.595948 
L 429.165354 196.595948 
" style="fill:none;stroke:#000000;stroke-dasharray:0.8,1.32;stroke-dashoffset:0;stroke-width:0.8;"/>
     </g>
     <g id="line2d_12">
      <g>
       <use style="stroke:#000000;stroke-width:0.8;" x="17.574646" xlink:href="#m407ca80991" y="196.595948"/>
      </g>
     </g>
     <g id="text_6">
      <!-- 25 -->
      <defs>
       <path d="M 10.796875 72.90625 
L 49.515625 72.90625 
L 49.515625 64.59375 
L 19.828125 64.59375 
L 19.828125 46.734375 
Q 21.96875 47.46875 24.109375 47.828125 
Q 26.265625 48.1875 28.421875 48.1875 
Q 40.625 48.1875 47.75 41.5 
Q 54.890625 34.8125 54.890625 23.390625 
Q 54.890625 11.625 47.5625 5.09375 
Q 40.234375 -1.421875 26.90625 -1.421875 
Q 22.3125 -1.421875 17.546875 -0.640625 
Q 12.796875 0.140625 7.71875 1.703125 
L 7.71875 11.625 
Q 12.109375 9.234375 16.796875 8.0625 
Q 21.484375 6.890625 26.703125 6.890625 
Q 35.15625 6.890625 40.078125 11.328125 
Q 45.015625 15.765625 45.015625 23.390625 
Q 45.015625 31 40.078125 35.4375 
Q 35.15625 39.890625 26.703125 39.890625 
Q 22.75 39.890625 18.8125 39.015625 
Q 14.890625 38.140625 10.796875 36.28125 
z
" id="DejaVuSans-35"/>
      </defs>
      <g transform="translate(0.394646 199.635323)scale(0.08 -0.08)">
       <use xlink:href="#DejaVuSans-32"/>
       <use x="63.623047" xlink:href="#DejaVuSans-35"/>
      </g>
     </g>
    </g>
    <g id="ytick_3">
     <g id="line2d_13">
      <path clip-path="url(#p80f5f89308)" d="M 17.574646 119.706543 
L 429.165354 119.706543 
" style="fill:none;stroke:#000000;stroke-dasharray:0.8,1.32;stroke-dashoffset:0;stroke-width:0.8;"/>
     </g>
     <g id="line2d_14">
      <g>
       <use style="stroke:#000000;stroke-width:0.8;" x="17.574646" xlink:href="#m407ca80991" y="119.706543"/>
      </g>
     </g>
     <g id="text_7">
      <!-- 50 -->
      <g transform="translate(0.394646 122.745918)scale(0.08 -0.08)">
       <use xlink:href="#DejaVuSans-35"/>
       <use x="63.623047" xlink:href="#DejaVuSans-30"/>
      </g>
     </g>
    </g>
    <g id="ytick_4">
     <g id="line2d_15">
      <path clip-path="url(#p80f5f89308)" d="M 17.574646 42.817137 
L 429.165354 42.817137 
" style="fill:none;stroke:#000000;stroke-dasharray:0.8,1.32;stroke-dashoffset:0;stroke-width:0.8;"/>
     </g>
     <g id="line2d_16">
      <g>
       <use style="stroke:#000000;stroke-width:0.8;" x="17.574646" xlink:href="#m407ca80991" y="42.817137"/>
      </g>
     </g>
     <g id="text_8">
      <!-- 75 -->
      <defs>
       <path d="M 8.203125 72.90625 
L 55.078125 72.90625 
L 55.078125 68.703125 
L 28.609375 0 
L 18.3125 0 
L 43.21875 64.59375 
L 8.203125 64.59375 
z
" id="DejaVuSans-37"/>
      </defs>
      <g transform="translate(0.394646 45.856512)scale(0.08 -0.08)">
       <use xlink:href="#DejaVuSans-37"/>
       <use x="63.623047" xlink:href="#DejaVuSans-35"/>
      </g>
     </g>
    </g>
   </g>
   <g id="patch_3">
    <path clip-path="url(#p80f5f89308)" d="M 29.223439 270.409778 
L 29.223439 273.485354 
L 39.441679 273.485354 
L 39.441679 270.409778 
L 29.223439 270.409778 
" style="fill:#009afa;stroke:#000000;stroke-linejoin:miter;"/>
   </g>
   <g id="patch_4">
    <path clip-path="url(#p80f5f89308)" d="M 39.441679 270.409778 
L 39.441679 273.485354 
L 49.659919 273.485354 
L 49.659919 270.409778 
L 39.441679 270.409778 
" style="fill:#009afa;stroke:#000000;stroke-linejoin:miter;"/>
   </g>
   <g id="patch_5">
    <path clip-path="url(#p80f5f89308)" d="M 49.659919 261.183049 
L 49.659919 273.485354 
L 59.878159 273.485354 
L 59.878159 261.183049 
L 49.659919 261.183049 
" style="fill:#009afa;stroke:#000000;stroke-linejoin:miter;"/>
   </g>
   <g id="patch_6">
    <path clip-path="url(#p80f5f89308)" d="M 59.878159 261.183049 
L 59.878159 273.485354 
L 70.096399 273.485354 
L 70.096399 261.183049 
L 59.878159 261.183049 
" style="fill:#009afa;stroke:#000000;stroke-linejoin:miter;"/>
   </g>
   <g id="patch_7">
    <path clip-path="url(#p80f5f89308)" d="M 70.096399 261.183049 
L 70.096399 273.485354 
L 80.314639 273.485354 
L 80.314639 261.183049 
L 70.096399 261.183049 
" style="fill:#009afa;stroke:#000000;stroke-linejoin:miter;"/>
   </g>
   <g id="patch_8">
    <path clip-path="url(#p80f5f89308)" d="M 80.314639 227.351711 
L 80.314639 273.485354 
L 90.53288 273.485354 
L 90.53288 227.351711 
L 80.314639 227.351711 
" style="fill:#009afa;stroke:#000000;stroke-linejoin:miter;"/>
   </g>
   <g id="patch_9">
    <path clip-path="url(#p80f5f89308)" d="M 90.53288 211.97383 
L 90.53288 273.485354 
L 100.75112 273.485354 
L 100.75112 211.97383 
L 90.53288 211.97383 
" style="fill:#009afa;stroke:#000000;stroke-linejoin:miter;"/>
   </g>
   <g id="patch_10">
    <path clip-path="url(#p80f5f89308)" d="M 100.75112 178.142491 
L 100.75112 273.485354 
L 110.96936 273.485354 
L 110.96936 178.142491 
L 100.75112 178.142491 
" style="fill:#009afa;stroke:#000000;stroke-linejoin:miter;"/>
   </g>
   <g id="patch_11">
    <path clip-path="url(#p80f5f89308)" d="M 110.96936 168.915762 
L 110.96936 273.485354 
L 121.1876 273.485354 
L 121.1876 168.915762 
L 110.96936 168.915762 
" style="fill:#009afa;stroke:#000000;stroke-linejoin:miter;"/>
   </g>
   <g id="patch_12">
    <path clip-path="url(#p80f5f89308)" d="M 121.1876 135.084424 
L 121.1876 273.485354 
L 131.40584 273.485354 
L 131.40584 135.084424 
L 121.1876 135.084424 
" style="fill:#009afa;stroke:#000000;stroke-linejoin:miter;"/>
   </g>
   <g id="patch_13">
    <path clip-path="url(#p80f5f89308)" d="M 131.40584 79.724052 
L 131.40584 273.485354 
L 141.62408 273.485354 
L 141.62408 79.724052 
L 131.40584 79.724052 
" style="fill:#009afa;stroke:#000000;stroke-linejoin:miter;"/>
   </g>
   <g id="patch_14">
    <path clip-path="url(#p80f5f89308)" d="M 141.62408 92.026356 
L 141.62408 273.485354 
L 151.84232 273.485354 
L 151.84232 92.026356 
L 141.62408 92.026356 
" style="fill:#009afa;stroke:#000000;stroke-linejoin:miter;"/>
   </g>
   <g id="patch_15">
    <path clip-path="url(#p80f5f89308)" d="M 151.84232 67.421747 
L 151.84232 273.485354 
L 162.06056 273.485354 
L 162.06056 67.421747 
L 151.84232 67.421747 
" style="fill:#009afa;stroke:#000000;stroke-linejoin:miter;"/>
   </g>
   <g id="patch_16">
    <path clip-path="url(#p80f5f89308)" d="M 162.06056 12.061374 
L 162.06056 273.485354 
L 172.2788 273.485354 
L 172.2788 12.061374 
L 162.06056 12.061374 
" style="fill:#009afa;stroke:#000000;stroke-linejoin:miter;"/>
   </g>
   <g id="patch_17">
    <path clip-path="url(#p80f5f89308)" d="M 172.2788 2.834646 
L 172.2788 273.485354 
L 182.49704 273.485354 
L 182.49704 2.834646 
L 172.2788 2.834646 
" style="fill:#009afa;stroke:#000000;stroke-linejoin:miter;"/>
   </g>
   <g id="patch_18">
    <path clip-path="url(#p80f5f89308)" d="M 182.49704 2.834646 
L 182.49704 273.485354 
L 192.71528 273.485354 
L 192.71528 2.834646 
L 182.49704 2.834646 
" style="fill:#009afa;stroke:#000000;stroke-linejoin:miter;"/>
   </g>
   <g id="patch_19">
    <path clip-path="url(#p80f5f89308)" d="M 192.71528 42.817137 
L 192.71528 273.485354 
L 202.93352 273.485354 
L 202.93352 42.817137 
L 192.71528 42.817137 
" style="fill:#009afa;stroke:#000000;stroke-linejoin:miter;"/>
   </g>
   <g id="patch_20">
    <path clip-path="url(#p80f5f89308)" d="M 202.93352 61.270594 
L 202.93352 273.485354 
L 213.15176 273.485354 
L 213.15176 61.270594 
L 202.93352 61.270594 
" style="fill:#009afa;stroke:#000000;stroke-linejoin:miter;"/>
   </g>
   <g id="patch_21">
    <path clip-path="url(#p80f5f89308)" d="M 213.15176 92.026356 
L 213.15176 273.485354 
L 223.37 273.485354 
L 223.37 92.026356 
L 213.15176 92.026356 
" style="fill:#009afa;stroke:#000000;stroke-linejoin:miter;"/>
   </g>
   <g id="patch_22">
    <path clip-path="url(#p80f5f89308)" d="M 223.37 150.462305 
L 223.37 273.485354 
L 233.58824 273.485354 
L 233.58824 150.462305 
L 223.37 150.462305 
" style="fill:#009afa;stroke:#000000;stroke-linejoin:miter;"/>
   </g>
   <g id="patch_23">
    <path clip-path="url(#p80f5f89308)" d="M 233.58824 135.084424 
L 233.58824 273.485354 
L 243.80648 273.485354 
L 243.80648 135.084424 
L 233.58824 135.084424 
" style="fill:#009afa;stroke:#000000;stroke-linejoin:miter;"/>
   </g>
   <g id="patch_24">
    <path clip-path="url(#p80f5f89308)" d="M 243.80648 171.991339 
L 243.80648 273.485354 
L 254.02472 273.485354 
L 254.02472 171.991339 
L 243.80648 171.991339 
" style="fill:#009afa;stroke:#000000;stroke-linejoin:miter;"/>
   </g>
   <g id="patch_25">
    <path clip-path="url(#p80f5f89308)" d="M 254.02472 193.520372 
L 254.02472 273.485354 
L 264.24296 273.485354 
L 264.24296 193.520372 
L 254.02472 193.520372 
" style="fill:#009afa;stroke:#000000;stroke-linejoin:miter;"/>
   </g>
   <g id="patch_26">
    <path clip-path="url(#p80f5f89308)" d="M 264.24296 230.427287 
L 264.24296 273.485354 
L 274.4612 273.485354 
L 274.4612 230.427287 
L 264.24296 230.427287 
" style="fill:#009afa;stroke:#000000;stroke-linejoin:miter;"/>
   </g>
   <g id="patch_27">
    <path clip-path="url(#p80f5f89308)" d="M 274.4612 239.654016 
L 274.4612 273.485354 
L 284.67944 273.485354 
L 284.67944 239.654016 
L 274.4612 239.654016 
" style="fill:#009afa;stroke:#000000;stroke-linejoin:miter;"/>
   </g>
   <g id="patch_28">
    <path clip-path="url(#p80f5f89308)" d="M 284.67944 248.880744 
L 284.67944 273.485354 
L 294.89768 273.485354 
L 294.89768 248.880744 
L 284.67944 248.880744 
" style="fill:#009afa;stroke:#000000;stroke-linejoin:miter;"/>
   </g>
   <g id="patch_29">
    <path clip-path="url(#p80f5f89308)" d="M 294.89768 258.107473 
L 294.89768 273.485354 
L 305.11592 273.485354 
L 305.11592 258.107473 
L 294.89768 258.107473 
" style="fill:#009afa;stroke:#000000;stroke-linejoin:miter;"/>
   </g>
   <g id="patch_30">
    <path clip-path="url(#p80f5f89308)" d="M 305.11592 270.409778 
L 305.11592 273.485354 
L 315.33416 273.485354 
L 315.33416 270.409778 
L 305.11592 270.409778 
" style="fill:#009afa;stroke:#000000;stroke-linejoin:miter;"/>
   </g>
   <g id="patch_31">
    <path clip-path="url(#p80f5f89308)" d="M 315.33416 264.258626 
L 315.33416 273.485354 
L 325.5524 273.485354 
L 325.5524 264.258626 
L 315.33416 264.258626 
" style="fill:#009afa;stroke:#000000;stroke-linejoin:miter;"/>
   </g>
   <g id="patch_32">
    <path clip-path="url(#p80f5f89308)" d="M 325.5524 270.409778 
L 325.5524 273.485354 
L 335.77064 273.485354 
L 335.77064 270.409778 
L 325.5524 270.409778 
" style="fill:#009afa;stroke:#000000;stroke-linejoin:miter;"/>
   </g>
   <g id="patch_33">
    <path clip-path="url(#p80f5f89308)" d="M 335.77064 273.485354 
L 335.77064 273.485354 
L 345.98888 273.485354 
L 345.98888 273.485354 
L 335.77064 273.485354 
" style="fill:#009afa;stroke:#000000;stroke-linejoin:miter;"/>
   </g>
   <g id="patch_34">
    <path clip-path="url(#p80f5f89308)" d="M 345.98888 273.485354 
L 345.98888 273.485354 
L 356.20712 273.485354 
L 356.20712 273.485354 
L 345.98888 273.485354 
" style="fill:#009afa;stroke:#000000;stroke-linejoin:miter;"/>
   </g>
   <g id="patch_35">
    <path clip-path="url(#p80f5f89308)" d="M 356.20712 273.485354 
L 356.20712 273.485354 
L 366.425361 273.485354 
L 366.425361 273.485354 
L 356.20712 273.485354 
" style="fill:#009afa;stroke:#000000;stroke-linejoin:miter;"/>
   </g>
   <g id="patch_36">
    <path clip-path="url(#p80f5f89308)" d="M 366.425361 273.485354 
L 366.425361 273.485354 
L 376.643601 273.485354 
L 376.643601 273.485354 
L 366.425361 273.485354 
" style="fill:#009afa;stroke:#000000;stroke-linejoin:miter;"/>
   </g>
   <g id="patch_37">
    <path clip-path="url(#p80f5f89308)" d="M 376.643601 273.485354 
L 376.643601 273.485354 
L 386.861841 273.485354 
L 386.861841 273.485354 
L 376.643601 273.485354 
" style="fill:#009afa;stroke:#000000;stroke-linejoin:miter;"/>
   </g>
   <g id="patch_38">
    <path clip-path="url(#p80f5f89308)" d="M 386.861841 273.485354 
L 386.861841 273.485354 
L 397.080081 273.485354 
L 397.080081 273.485354 
L 386.861841 273.485354 
" style="fill:#009afa;stroke:#000000;stroke-linejoin:miter;"/>
   </g>
   <g id="patch_39">
    <path clip-path="url(#p80f5f89308)" d="M 397.080081 273.485354 
L 397.080081 273.485354 
L 407.298321 273.485354 
L 407.298321 273.485354 
L 397.080081 273.485354 
" style="fill:#009afa;stroke:#000000;stroke-linejoin:miter;"/>
   </g>
   <g id="patch_40">
    <path clip-path="url(#p80f5f89308)" d="M 407.298321 270.409778 
L 407.298321 273.485354 
L 417.516561 273.485354 
L 417.516561 270.409778 
L 407.298321 270.409778 
" style="fill:#009afa;stroke:#000000;stroke-linejoin:miter;"/>
   </g>
   <g id="patch_41">
    <path d="M 17.574646 273.485354 
L 17.574646 2.834646 
" style="fill:none;stroke:#000000;stroke-linecap:square;stroke-linejoin:miter;stroke-width:0.8;"/>
   </g>
   <g id="patch_42">
    <path d="M 429.165354 273.485354 
L 429.165354 2.834646 
" style="fill:none;stroke:#000000;stroke-linecap:square;stroke-linejoin:miter;stroke-width:0.8;"/>
   </g>
   <g id="patch_43">
    <path d="M 17.574646 273.485354 
L 429.165354 273.485354 
" style="fill:none;stroke:#000000;stroke-linecap:square;stroke-linejoin:miter;stroke-width:0.8;"/>
   </g>
   <g id="patch_44">
    <path d="M 17.574646 2.834646 
L 429.165354 2.834646 
" style="fill:none;stroke:#000000;stroke-linecap:square;stroke-linejoin:miter;stroke-width:0.8;"/>
   </g>
   <g id="legend_1">
    <g id="patch_45">
     <path d="M 388.140354 20.977146 
L 423.565354 20.977146 
Q 425.165354 20.977146 425.165354 19.377146 
L 425.165354 8.434646 
Q 425.165354 6.834646 423.565354 6.834646 
L 388.140354 6.834646 
Q 386.540354 6.834646 386.540354 8.434646 
L 386.540354 19.377146 
Q 386.540354 20.977146 388.140354 20.977146 
z
" style="fill:#ffffff;opacity:0.8;stroke:#000000;stroke-linejoin:miter;"/>
    </g>
    <g id="line2d_17">
     <path d="M 389.740354 13.313396 
L 405.740354 13.313396 
" style="fill:none;stroke:#009afa;stroke-linecap:square;stroke-width:4;"/>
    </g>
    <g id="line2d_18"/>
    <g id="text_9">
     <!-- y1 -->
     <defs>
      <path d="M 32.171875 -5.078125 
Q 28.375 -14.84375 24.75 -17.8125 
Q 21.140625 -20.796875 15.09375 -20.796875 
L 7.90625 -20.796875 
L 7.90625 -13.28125 
L 13.1875 -13.28125 
Q 16.890625 -13.28125 18.9375 -11.515625 
Q 21 -9.765625 23.484375 -3.21875 
L 25.09375 0.875 
L 2.984375 54.6875 
L 12.5 54.6875 
L 29.59375 11.921875 
L 46.6875 54.6875 
L 56.203125 54.6875 
z
" id="DejaVuSans-79"/>
     </defs>
     <g transform="translate(412.140354 16.113396)scale(0.08 -0.08)">
      <use xlink:href="#DejaVuSans-79"/>
      <use x="59.179688" xlink:href="#DejaVuSans-31"/>
     </g>
    </g>
   </g>
  </g>
 </g>
 <defs>
  <clipPath id="p80f5f89308">
   <rect height="270.650709" width="411.590709" x="17.574646" y="2.834646"/>
  </clipPath>
 </defs>
</svg>
