<?xml version="1.0" encoding="utf-8"?>
<svg xmlns="http://www.w3.org/2000/svg" xmlns:xlink="http://www.w3.org/1999/xlink" width="600" height="400" viewBox="0 0 600 400">
<defs>
  <clipPath id="clip4200">
    <rect x="0" y="0" width="600" height="400"/>
  </clipPath>
</defs>
<polygon clip-path="url(#clip4200)" points="
0,400 600,400 600,0 0,0 
  " fill="#ffffff" fill-opacity="1"/>
<defs>
  <clipPath id="clip4201">
    <rect x="120" y="0" width="421" height="400"/>
  </clipPath>
</defs>
<polygon clip-path="url(#clip4200)" points="
53.7297,175.869 580.315,175.869 580.315,31.4961 53.7297,31.4961 
  " fill="#ffffff" fill-opacity="1"/>
<defs>
  <clipPath id="clip4202">
    <rect x="53" y="31" width="528" height="145"/>
  </clipPath>
</defs>
<polyline clip-path="url(#clip4202)" style="stroke:#000000; stroke-width:0.5; stroke-opacity:0.1; fill:none" points="
  53.7297,175.869 53.7297,31.4961 
  "/>
<polyline clip-path="url(#clip4202)" style="stroke:#000000; stroke-width:0.5; stroke-opacity:0.1; fill:none" points="
  229.258,175.869 229.258,31.4961 
  "/>
<polyline clip-path="url(#clip4202)" style="stroke:#000000; stroke-width:0.5; stroke-opacity:0.1; fill:none" points="
  404.787,175.869 404.787,31.4961 
  "/>
<polyline clip-path="url(#clip4202)" style="stroke:#000000; stroke-width:0.5; stroke-opacity:0.1; fill:none" points="
  580.315,175.869 580.315,31.4961 
  "/>
<polyline clip-path="url(#clip4202)" style="stroke:#000000; stroke-width:0.5; stroke-opacity:0.1; fill:none" points="
  53.7297,171.783 580.315,171.783 
  "/>
<polyline clip-path="url(#clip4202)" style="stroke:#000000; stroke-width:0.5; stroke-opacity:0.1; fill:none" points="
  53.7297,137.175 580.315,137.175 
  "/>
<polyline clip-path="url(#clip4202)" style="stroke:#000000; stroke-width:0.5; stroke-opacity:0.1; fill:none" points="
  53.7297,102.567 580.315,102.567 
  "/>
<polyline clip-path="url(#clip4202)" style="stroke:#000000; stroke-width:0.5; stroke-opacity:0.1; fill:none" points="
  53.7297,67.9589 580.315,67.9589 
  "/>
<polyline clip-path="url(#clip4202)" style="stroke:#000000; stroke-width:0.5; stroke-opacity:0.1; fill:none" points="
  53.7297,33.351 580.315,33.351 
  "/>
<polyline clip-path="url(#clip4200)" style="stroke:#000000; stroke-width:1; stroke-opacity:1; fill:none" points="
  53.7297,175.869 580.315,175.869 
  "/>
<polyline clip-path="url(#clip4200)" style="stroke:#000000; stroke-width:1; stroke-opacity:1; fill:none" points="
  53.7297,175.869 53.7297,31.4961 
  "/>
<polyline clip-path="url(#clip4200)" style="stroke:#000000; stroke-width:1; stroke-opacity:1; fill:none" points="
  53.7297,175.869 53.7297,173.703 
  "/>
<polyline clip-path="url(#clip4200)" style="stroke:#000000; stroke-width:1; stroke-opacity:1; fill:none" points="
  229.258,175.869 229.258,173.703 
  "/>
<polyline clip-path="url(#clip4200)" style="stroke:#000000; stroke-width:1; stroke-opacity:1; fill:none" points="
  404.787,175.869 404.787,173.703 
  "/>
<polyline clip-path="url(#clip4200)" style="stroke:#000000; stroke-width:1; stroke-opacity:1; fill:none" points="
  580.315,175.869 580.315,173.703 
  "/>
<polyline clip-path="url(#clip4200)" style="stroke:#000000; stroke-width:1; stroke-opacity:1; fill:none" points="
  53.7297,171.783 61.6285,171.783 
  "/>
<polyline clip-path="url(#clip4200)" style="stroke:#000000; stroke-width:1; stroke-opacity:1; fill:none" points="
  53.7297,137.175 61.6285,137.175 
  "/>
<polyline clip-path="url(#clip4200)" style="stroke:#000000; stroke-width:1; stroke-opacity:1; fill:none" points="
  53.7297,102.567 61.6285,102.567 
  "/>
<polyline clip-path="url(#clip4200)" style="stroke:#000000; stroke-width:1; stroke-opacity:1; fill:none" points="
  53.7297,67.9589 61.6285,67.9589 
  "/>
<polyline clip-path="url(#clip4200)" style="stroke:#000000; stroke-width:1; stroke-opacity:1; fill:none" points="
  53.7297,33.351 61.6285,33.351 
  "/>
<g clip-path="url(#clip4200)">
<text style="fill:#000000; fill-opacity:1; font-family:Arial,Helvetica Neue,Helvetica,sans-serif; font-size:12; text-anchor:middle;" transform="rotate(0, 53.7297, 189.669)" x="53.7297" y="189.669">-10</text>
</g>
<g clip-path="url(#clip4200)">
<text style="fill:#000000; fill-opacity:1; font-family:Arial,Helvetica Neue,Helvetica,sans-serif; font-size:12; text-anchor:middle;" transform="rotate(0, 229.258, 189.669)" x="229.258" y="189.669">0</text>
</g>
<g clip-path="url(#clip4200)">
<text style="fill:#000000; fill-opacity:1; font-family:Arial,Helvetica Neue,Helvetica,sans-serif; font-size:12; text-anchor:middle;" transform="rotate(0, 404.787, 189.669)" x="404.787" y="189.669">10</text>
</g>
<g clip-path="url(#clip4200)">
<text style="fill:#000000; fill-opacity:1; font-family:Arial,Helvetica Neue,Helvetica,sans-serif; font-size:12; text-anchor:middle;" transform="rotate(0, 580.315, 189.669)" x="580.315" y="189.669">20</text>
</g>
<g clip-path="url(#clip4200)">
<text style="fill:#000000; fill-opacity:1; font-family:Arial,Helvetica Neue,Helvetica,sans-serif; font-size:12; text-anchor:end;" transform="rotate(0, 47.7297, 176.283)" x="47.7297" y="176.283">0.000</text>
</g>
<g clip-path="url(#clip4200)">
<text style="fill:#000000; fill-opacity:1; font-family:Arial,Helvetica Neue,Helvetica,sans-serif; font-size:12; text-anchor:end;" transform="rotate(0, 47.7297, 141.675)" x="47.7297" y="141.675">0.025</text>
</g>
<g clip-path="url(#clip4200)">
<text style="fill:#000000; fill-opacity:1; font-family:Arial,Helvetica Neue,Helvetica,sans-serif; font-size:12; text-anchor:end;" transform="rotate(0, 47.7297, 107.067)" x="47.7297" y="107.067">0.050</text>
</g>
<g clip-path="url(#clip4200)">
<text style="fill:#000000; fill-opacity:1; font-family:Arial,Helvetica Neue,Helvetica,sans-serif; font-size:12; text-anchor:end;" transform="rotate(0, 47.7297, 72.4589)" x="47.7297" y="72.4589">0.075</text>
</g>
<g clip-path="url(#clip4200)">
<text style="fill:#000000; fill-opacity:1; font-family:Arial,Helvetica Neue,Helvetica,sans-serif; font-size:12; text-anchor:end;" transform="rotate(0, 47.7297, 37.851)" x="47.7297" y="37.851">0.100</text>
</g>
<g clip-path="url(#clip4200)">
<text style="fill:#000000; fill-opacity:1; font-family:Arial,Helvetica Neue,Helvetica,sans-serif; font-size:21; text-anchor:middle;" transform="rotate(0, 317.022, 18)" x="317.022" y="18">Inefficient</text>
</g>
<polygon clip-path="url(#clip4202)" points="
65.5055,161.577 66.0131,161.24 66.5208,160.898 67.0285,160.552 67.5361,160.203 68.0438,159.849 68.5514,159.493 69.0591,159.134 69.5667,158.772 70.0744,158.408 
  70.5821,158.041 71.0897,157.674 71.5974,157.304 72.105,156.934 72.6127,156.563 73.1204,156.192 73.628,155.821 74.1357,155.45 74.6433,155.08 75.151,154.71 
  75.6587,154.342 76.1663,153.975 76.674,153.61 77.1816,153.247 77.6893,152.886 78.197,152.528 78.7046,152.173 79.2123,151.82 79.7199,151.471 80.2276,151.125 
  80.7353,150.782 81.2429,150.443 81.7506,150.108 82.2582,149.777 82.7659,149.449 83.2736,149.126 83.7812,148.806 84.2889,148.491 84.7965,148.179 85.3042,147.871 
  85.8119,147.567 86.3195,147.267 86.8272,146.97 87.3348,146.677 87.8425,146.387 88.3501,146.1 88.8578,145.816 89.3655,145.534 89.8731,145.255 90.3808,144.978 
  90.8884,144.703 91.3961,144.429 91.9038,144.157 92.4114,143.885 92.9191,143.614 93.4267,143.343 93.9344,143.071 94.4421,142.799 94.9497,142.525 95.4574,142.251 
  95.965,141.974 96.4727,141.694 96.9804,141.412 97.488,141.126 97.9957,140.837 98.5033,140.544 99.011,140.246 99.5187,139.943 100.026,139.634 100.534,139.32 
  101.042,138.999 101.549,138.671 102.057,138.336 102.565,137.994 103.072,137.644 103.58,137.285 104.088,136.918 104.595,136.541 105.103,136.156 105.611,135.76 
  106.118,135.355 106.626,134.939 107.134,134.513 107.641,134.076 108.149,133.629 108.657,133.169 109.164,132.699 109.672,132.217 110.18,131.723 110.687,131.217 
  111.195,130.7 111.702,130.17 112.21,129.628 112.718,129.074 113.225,128.508 113.733,127.929 114.241,127.338 114.748,126.735 115.256,126.12 115.764,125.492 
  115.764,171.783 115.256,171.783 114.748,171.783 114.241,171.783 113.733,171.783 113.225,171.783 112.718,171.783 112.21,171.783 111.702,171.783 111.195,171.783 
  110.687,171.783 110.18,171.783 109.672,171.783 109.164,171.783 108.657,171.783 108.149,171.783 107.641,171.783 107.134,171.783 106.626,171.783 106.118,171.783 
  105.611,171.783 105.103,171.783 104.595,171.783 104.088,171.783 103.58,171.783 103.072,171.783 102.565,171.783 102.057,171.783 101.549,171.783 101.042,171.783 
  100.534,171.783 100.026,171.783 99.5187,171.783 99.011,171.783 98.5033,171.783 97.9957,171.783 97.488,171.783 96.9804,171.783 96.4727,171.783 95.965,171.783 
  95.4574,171.783 94.9497,171.783 94.4421,171.783 93.9344,171.783 93.4267,171.783 92.9191,171.783 92.4114,171.783 91.9038,171.783 91.3961,171.783 90.8884,171.783 
  90.3808,171.783 89.8731,171.783 89.3655,171.783 88.8578,171.783 88.3501,171.783 87.8425,171.783 87.3348,171.783 86.8272,171.783 86.3195,171.783 85.8119,171.783 
  85.3042,171.783 84.7965,171.783 84.2889,171.783 83.7812,171.783 83.2736,171.783 82.7659,171.783 82.2582,171.783 81.7506,171.783 81.2429,171.783 80.7353,171.783 
  80.2276,171.783 79.7199,171.783 79.2123,171.783 78.7046,171.783 78.197,171.783 77.6893,171.783 77.1816,171.783 76.674,171.783 76.1663,171.783 75.6587,171.783 
  75.151,171.783 74.6433,171.783 74.1357,171.783 73.628,171.783 73.1204,171.783 72.6127,171.783 72.105,171.783 71.5974,171.783 71.0897,171.783 70.5821,171.783 
  70.0744,171.783 69.5667,171.783 69.0591,171.783 68.5514,171.783 68.0438,171.783 67.5361,171.783 67.0285,171.783 66.5208,171.783 66.0131,171.783 65.5055,171.783 
  
  " fill="#ffa500" fill-opacity="0.5"/>
<polyline clip-path="url(#clip4202)" style="stroke:#ffa500; stroke-width:1; stroke-opacity:1; fill:none" points="
  65.5055,161.577 66.0131,161.24 66.5208,160.898 67.0285,160.552 67.5361,160.203 68.0438,159.849 68.5514,159.493 69.0591,159.134 69.5667,158.772 70.0744,158.408 
  70.5821,158.041 71.0897,157.674 71.5974,157.304 72.105,156.934 72.6127,156.563 73.1204,156.192 73.628,155.821 74.1357,155.45 74.6433,155.08 75.151,154.71 
  75.6587,154.342 76.1663,153.975 76.674,153.61 77.1816,153.247 77.6893,152.886 78.197,152.528 78.7046,152.173 79.2123,151.82 79.7199,151.471 80.2276,151.125 
  80.7353,150.782 81.2429,150.443 81.7506,150.108 82.2582,149.777 82.7659,149.449 83.2736,149.126 83.7812,148.806 84.2889,148.491 84.7965,148.179 85.3042,147.871 
  85.8119,147.567 86.3195,147.267 86.8272,146.97 87.3348,146.677 87.8425,146.387 88.3501,146.1 88.8578,145.816 89.3655,145.534 89.8731,145.255 90.3808,144.978 
  90.8884,144.703 91.3961,144.429 91.9038,144.157 92.4114,143.885 92.9191,143.614 93.4267,143.343 93.9344,143.071 94.4421,142.799 94.9497,142.525 95.4574,142.251 
  95.965,141.974 96.4727,141.694 96.9804,141.412 97.488,141.126 97.9957,140.837 98.5033,140.544 99.011,140.246 99.5187,139.943 100.026,139.634 100.534,139.32 
  101.042,138.999 101.549,138.671 102.057,138.336 102.565,137.994 103.072,137.644 103.58,137.285 104.088,136.918 104.595,136.541 105.103,136.156 105.611,135.76 
  106.118,135.355 106.626,134.939 107.134,134.513 107.641,134.076 108.149,133.629 108.657,133.169 109.164,132.699 109.672,132.217 110.18,131.723 110.687,131.217 
  111.195,130.7 111.702,130.17 112.21,129.628 112.718,129.074 113.225,128.508 113.733,127.929 114.241,127.338 114.748,126.735 115.256,126.12 115.764,125.492 
  
  "/>
<polygon clip-path="url(#clip4202)" points="
115.764,125.492 118.24,122.26 120.715,118.756 123.191,114.999 125.667,111.019 128.143,106.848 130.619,102.521 133.094,98.0771 135.57,93.553 138.046,88.9864 
  140.522,84.414 142.998,79.8713 145.474,75.3927 147.949,71.0124 150.425,66.7639 152.901,62.6809 155.377,58.797 157.853,55.1456 160.328,51.7585 162.804,48.6651 
  165.28,45.8907 167.756,43.4542 170.232,41.3668 172.708,39.6308 175.183,38.2384 177.659,37.1724 180.135,36.4073 182.611,35.9111 185.087,35.6481 187.563,35.5821 
  190.038,35.6793 192.514,35.911 194.99,36.2557 197.466,36.7002 199.942,37.24 202.417,37.8785 204.893,38.6263 207.369,39.4984 209.845,40.5128 212.321,41.6882 
  214.797,43.0408 217.272,44.583 219.748,46.3207 222.224,48.2523 224.7,50.3671 227.176,52.6454 229.651,55.0589 232.127,57.5719 234.603,60.1442 237.079,62.7332 
  239.555,65.2976 242.031,67.8004 244.506,70.2113 246.982,72.5093 249.458,74.6828 251.934,76.7298 254.41,78.657 256.885,80.4773 259.361,82.2083 261.837,83.8702 
  264.313,85.4833 266.789,87.0673 269.265,88.64 271.74,90.2172 274.216,91.8118 276.692,93.4342 279.168,95.0916 281.644,96.7878 284.119,98.5227 286.595,100.292 
  289.071,102.088 291.547,103.9 294.023,105.713 296.499,107.513 298.974,109.287 301.45,111.024 303.926,112.717 306.402,114.362 308.878,115.963 311.353,117.523 
  313.829,119.05 316.305,120.552 318.781,122.037 321.257,123.51 323.733,124.974 326.208,126.431 328.684,127.881 331.16,129.325 333.636,130.761 336.112,132.194 
  338.587,133.625 341.063,135.061 343.539,136.506 346.015,137.965 348.491,139.441 350.967,140.934 353.442,142.441 355.918,143.953 358.394,145.458 360.87,146.942 
  360.87,171.783 358.394,171.783 355.918,171.783 353.442,171.783 350.967,171.783 348.491,171.783 346.015,171.783 343.539,171.783 341.063,171.783 338.587,171.783 
  336.112,171.783 333.636,171.783 331.16,171.783 328.684,171.783 326.208,171.783 323.733,171.783 321.257,171.783 318.781,171.783 316.305,171.783 313.829,171.783 
  311.353,171.783 308.878,171.783 306.402,171.783 303.926,171.783 301.45,171.783 298.974,171.783 296.499,171.783 294.023,171.783 291.547,171.783 289.071,171.783 
  286.595,171.783 284.119,171.783 281.644,171.783 279.168,171.783 276.692,171.783 274.216,171.783 271.74,171.783 269.265,171.783 266.789,171.783 264.313,171.783 
  261.837,171.783 259.361,171.783 256.885,171.783 254.41,171.783 251.934,171.783 249.458,171.783 246.982,171.783 244.506,171.783 242.031,171.783 239.555,171.783 
  237.079,171.783 234.603,171.783 232.127,171.783 229.651,171.783 227.176,171.783 224.7,171.783 222.224,171.783 219.748,171.783 217.272,171.783 214.797,171.783 
  212.321,171.783 209.845,171.783 207.369,171.783 204.893,171.783 202.417,171.783 199.942,171.783 197.466,171.783 194.99,171.783 192.514,171.783 190.038,171.783 
  187.563,171.783 185.087,171.783 182.611,171.783 180.135,171.783 177.659,171.783 175.183,171.783 172.708,171.783 170.232,171.783 167.756,171.783 165.28,171.783 
  162.804,171.783 160.328,171.783 157.853,171.783 155.377,171.783 152.901,171.783 150.425,171.783 147.949,171.783 145.474,171.783 142.998,171.783 140.522,171.783 
  138.046,171.783 135.57,171.783 133.094,171.783 130.619,171.783 128.143,171.783 125.667,171.783 123.191,171.783 120.715,171.783 118.24,171.783 115.764,171.783 
  
  " fill="#008000" fill-opacity="0.5"/>
<polyline clip-path="url(#clip4202)" style="stroke:#008000; stroke-width:1; stroke-opacity:1; fill:none" points="
  115.764,125.492 118.24,122.26 120.715,118.756 123.191,114.999 125.667,111.019 128.143,106.848 130.619,102.521 133.094,98.0771 135.57,93.553 138.046,88.9864 
  140.522,84.414 142.998,79.8713 145.474,75.3927 147.949,71.0124 150.425,66.7639 152.901,62.6809 155.377,58.797 157.853,55.1456 160.328,51.7585 162.804,48.6651 
  165.28,45.8907 167.756,43.4542 170.232,41.3668 172.708,39.6308 175.183,38.2384 177.659,37.1724 180.135,36.4073 182.611,35.9111 185.087,35.6481 187.563,35.5821 
  190.038,35.6793 192.514,35.911 194.99,36.2557 197.466,36.7002 199.942,37.24 202.417,37.8785 204.893,38.6263 207.369,39.4984 209.845,40.5128 212.321,41.6882 
  214.797,43.0408 217.272,44.583 219.748,46.3207 222.224,48.2523 224.7,50.3671 227.176,52.6454 229.651,55.0589 232.127,57.5719 234.603,60.1442 237.079,62.7332 
  239.555,65.2976 242.031,67.8004 244.506,70.2113 246.982,72.5093 249.458,74.6828 251.934,76.7298 254.41,78.657 256.885,80.4773 259.361,82.2083 261.837,83.8702 
  264.313,85.4833 266.789,87.0673 269.265,88.64 271.74,90.2172 274.216,91.8118 276.692,93.4342 279.168,95.0916 281.644,96.7878 284.119,98.5227 286.595,100.292 
  289.071,102.088 291.547,103.9 294.023,105.713 296.499,107.513 298.974,109.287 301.45,111.024 303.926,112.717 306.402,114.362 308.878,115.963 311.353,117.523 
  313.829,119.05 316.305,120.552 318.781,122.037 321.257,123.51 323.733,124.974 326.208,126.431 328.684,127.881 331.16,129.325 333.636,130.761 336.112,132.194 
  338.587,133.625 341.063,135.061 343.539,136.506 346.015,137.965 348.491,139.441 350.967,140.934 353.442,142.441 355.918,143.953 358.394,145.458 360.87,146.942 
  
  "/>
<polygon clip-path="url(#clip4202)" points="
360.87,146.942 362.82,148.085 364.77,149.195 366.721,150.264 368.671,151.282 370.621,152.243 372.571,153.14 374.521,153.967 376.472,154.721 378.422,155.399 
  380.372,156.003 382.322,156.534 384.273,156.996 386.223,157.394 388.173,157.737 390.123,158.032 392.074,158.29 394.024,158.522 395.974,158.737 397.924,158.947 
  399.874,159.161 401.825,159.386 403.775,159.63 405.725,159.895 407.675,160.184 409.626,160.496 411.576,160.826 413.526,161.171 415.476,161.522 417.427,161.873 
  419.377,162.214 421.327,162.539 423.277,162.84 425.227,163.112 427.178,163.352 429.128,163.56 431.078,163.737 433.028,163.888 434.979,164.017 436.929,164.133 
  438.879,164.244 440.829,164.359 442.779,164.486 444.73,164.634 446.68,164.808 448.63,165.012 450.58,165.25 452.531,165.52 454.481,165.822 456.431,166.151 
  458.381,166.501 460.332,166.866 462.282,167.238 464.232,167.61 466.182,167.973 468.132,168.321 470.083,168.647 472.033,168.947 473.983,169.216 475.933,169.454 
  477.884,169.658 479.834,169.83 481.784,169.971 483.734,170.084 485.685,170.173 487.635,170.241 489.585,170.293 491.535,170.333 493.485,170.365 495.436,170.392 
  497.386,170.418 499.336,170.444 501.286,170.472 503.237,170.504 505.187,170.538 507.137,170.575 509.087,170.613 511.038,170.651 512.988,170.688 514.938,170.721 
  516.888,170.751 518.838,170.776 520.789,170.795 522.739,170.807 524.689,170.814 526.639,170.816 528.59,170.813 530.54,170.806 532.49,170.798 534.44,170.789 
  536.391,170.78 538.341,170.774 540.291,170.771 542.241,170.773 544.191,170.78 546.142,170.793 548.092,170.812 550.042,170.838 551.992,170.871 553.943,170.909 
  553.943,171.783 551.992,171.783 550.042,171.783 548.092,171.783 546.142,171.783 544.191,171.783 542.241,171.783 540.291,171.783 538.341,171.783 536.391,171.783 
  534.44,171.783 532.49,171.783 530.54,171.783 528.59,171.783 526.639,171.783 524.689,171.783 522.739,171.783 520.789,171.783 518.838,171.783 516.888,171.783 
  514.938,171.783 512.988,171.783 511.038,171.783 509.087,171.783 507.137,171.783 505.187,171.783 503.237,171.783 501.286,171.783 499.336,171.783 497.386,171.783 
  495.436,171.783 493.485,171.783 491.535,171.783 489.585,171.783 487.635,171.783 485.685,171.783 483.734,171.783 481.784,171.783 479.834,171.783 477.884,171.783 
  475.933,171.783 473.983,171.783 472.033,171.783 470.083,171.783 468.132,171.783 466.182,171.783 464.232,171.783 462.282,171.783 460.332,171.783 458.381,171.783 
  456.431,171.783 454.481,171.783 452.531,171.783 450.58,171.783 448.63,171.783 446.68,171.783 444.73,171.783 442.779,171.783 440.829,171.783 438.879,171.783 
  436.929,171.783 434.979,171.783 433.028,171.783 431.078,171.783 429.128,171.783 427.178,171.783 425.227,171.783 423.277,171.783 421.327,171.783 419.377,171.783 
  417.427,171.783 415.476,171.783 413.526,171.783 411.576,171.783 409.626,171.783 407.675,171.783 405.725,171.783 403.775,171.783 401.825,171.783 399.874,171.783 
  397.924,171.783 395.974,171.783 394.024,171.783 392.074,171.783 390.123,171.783 388.173,171.783 386.223,171.783 384.273,171.783 382.322,171.783 380.372,171.783 
  378.422,171.783 376.472,171.783 374.521,171.783 372.571,171.783 370.621,171.783 368.671,171.783 366.721,171.783 364.77,171.783 362.82,171.783 360.87,171.783 
  
  " fill="#ffa500" fill-opacity="0.5"/>
<polyline clip-path="url(#clip4202)" style="stroke:#ffa500; stroke-width:1; stroke-opacity:1; fill:none" points="
  360.87,146.942 362.82,148.085 364.77,149.195 366.721,150.264 368.671,151.282 370.621,152.243 372.571,153.14 374.521,153.967 376.472,154.721 378.422,155.399 
  380.372,156.003 382.322,156.534 384.273,156.996 386.223,157.394 388.173,157.737 390.123,158.032 392.074,158.29 394.024,158.522 395.974,158.737 397.924,158.947 
  399.874,159.161 401.825,159.386 403.775,159.63 405.725,159.895 407.675,160.184 409.626,160.496 411.576,160.826 413.526,161.171 415.476,161.522 417.427,161.873 
  419.377,162.214 421.327,162.539 423.277,162.84 425.227,163.112 427.178,163.352 429.128,163.56 431.078,163.737 433.028,163.888 434.979,164.017 436.929,164.133 
  438.879,164.244 440.829,164.359 442.779,164.486 444.73,164.634 446.68,164.808 448.63,165.012 450.58,165.25 452.531,165.52 454.481,165.822 456.431,166.151 
  458.381,166.501 460.332,166.866 462.282,167.238 464.232,167.61 466.182,167.973 468.132,168.321 470.083,168.647 472.033,168.947 473.983,169.216 475.933,169.454 
  477.884,169.658 479.834,169.83 481.784,169.971 483.734,170.084 485.685,170.173 487.635,170.241 489.585,170.293 491.535,170.333 493.485,170.365 495.436,170.392 
  497.386,170.418 499.336,170.444 501.286,170.472 503.237,170.504 505.187,170.538 507.137,170.575 509.087,170.613 511.038,170.651 512.988,170.688 514.938,170.721 
  516.888,170.751 518.838,170.776 520.789,170.795 522.739,170.807 524.689,170.814 526.639,170.816 528.59,170.813 530.54,170.806 532.49,170.798 534.44,170.789 
  536.391,170.78 538.341,170.774 540.291,170.771 542.241,170.773 544.191,170.78 546.142,170.793 548.092,170.812 550.042,170.838 551.992,170.871 553.943,170.909 
  
  "/>
<polyline clip-path="url(#clip4202)" style="stroke:#0000ff; stroke-width:1; stroke-opacity:1; fill:none" points="
  223.383,171.783 223.383,49.2205 
  "/>
<polyline clip-path="url(#clip4202)" style="stroke:#000000; stroke-width:1; stroke-opacity:1; fill:none" points="
  211.944,171.783 211.944,41.4983 
  "/>
<polygon clip-path="url(#clip4200)" points="
376.566,143.096 562.315,143.096 562.315,52.3761 376.566,52.3761 
  " fill="#ffffff" fill-opacity="1"/>
<polyline clip-path="url(#clip4200)" style="stroke:#000000; stroke-width:1; stroke-opacity:1; fill:none" points="
  376.566,143.096 562.315,143.096 562.315,52.3761 376.566,52.3761 376.566,143.096 
  "/>
<polygon clip-path="url(#clip4200)" points="
382.566,73.5441 418.566,73.5441 418.566,61.4481 382.566,61.4481 382.566,73.5441 
  " fill="#ffa500" fill-opacity="0.5"/>
<polyline clip-path="url(#clip4200)" style="stroke:#ffa500; stroke-width:1; stroke-opacity:1; fill:none" points="
  382.566,61.4481 418.566,61.4481 
  "/>
<g clip-path="url(#clip4200)">
<text style="fill:#000000; fill-opacity:1; font-family:Arial,Helvetica Neue,Helvetica,sans-serif; font-size:12; text-anchor:start;" transform="rotate(0, 424.566, 71.9961)" x="424.566" y="71.9961">q05</text>
</g>
<polygon clip-path="url(#clip4200)" points="
382.566,88.6641 418.566,88.6641 418.566,76.5681 382.566,76.5681 382.566,88.6641 
  " fill="#008000" fill-opacity="0.5"/>
<polyline clip-path="url(#clip4200)" style="stroke:#008000; stroke-width:1; stroke-opacity:1; fill:none" points="
  382.566,76.5681 418.566,76.5681 
  "/>
<g clip-path="url(#clip4200)">
<text style="fill:#000000; fill-opacity:1; font-family:Arial,Helvetica Neue,Helvetica,sans-serif; font-size:12; text-anchor:start;" transform="rotate(0, 424.566, 87.1161)" x="424.566" y="87.1161">90% acceptance region</text>
</g>
<polygon clip-path="url(#clip4200)" points="
382.566,103.784 418.566,103.784 418.566,91.6881 382.566,91.6881 382.566,103.784 
  " fill="#ffa500" fill-opacity="0.5"/>
<polyline clip-path="url(#clip4200)" style="stroke:#ffa500; stroke-width:1; stroke-opacity:1; fill:none" points="
  382.566,91.6881 418.566,91.6881 
  "/>
<g clip-path="url(#clip4200)">
<text style="fill:#000000; fill-opacity:1; font-family:Arial,Helvetica Neue,Helvetica,sans-serif; font-size:12; text-anchor:start;" transform="rotate(0, 424.566, 102.236)" x="424.566" y="102.236">q95</text>
</g>
<polyline clip-path="url(#clip4200)" style="stroke:#0000ff; stroke-width:1; stroke-opacity:1; fill:none" points="
  382.566,112.856 418.566,112.856 
  "/>
<g clip-path="url(#clip4200)">
<text style="fill:#000000; fill-opacity:1; font-family:Arial,Helvetica Neue,Helvetica,sans-serif; font-size:12; text-anchor:start;" transform="rotate(0, 424.566, 117.356)" x="424.566" y="117.356">mean</text>
</g>
<polyline clip-path="url(#clip4200)" style="stroke:#000000; stroke-width:1; stroke-opacity:1; fill:none" points="
  382.566,127.976 418.566,127.976 
  "/>
<g clip-path="url(#clip4200)">
<text style="fill:#000000; fill-opacity:1; font-family:Arial,Helvetica Neue,Helvetica,sans-serif; font-size:12; text-anchor:start;" transform="rotate(0, 424.566, 132.476)" x="424.566" y="132.476">median</text>
</g>
<polygon clip-path="url(#clip4200)" points="
53.7297,375.869 580.315,375.869 580.315,231.496 53.7297,231.496 
  " fill="#ffffff" fill-opacity="1"/>
<defs>
  <clipPath id="clip4203">
    <rect x="53" y="231" width="528" height="145"/>
  </clipPath>
</defs>
<polyline clip-path="url(#clip4203)" style="stroke:#000000; stroke-width:0.5; stroke-opacity:0.1; fill:none" points="
  53.7297,375.869 53.7297,231.496 
  "/>
<polyline clip-path="url(#clip4203)" style="stroke:#000000; stroke-width:0.5; stroke-opacity:0.1; fill:none" points="
  229.258,375.869 229.258,231.496 
  "/>
<polyline clip-path="url(#clip4203)" style="stroke:#000000; stroke-width:0.5; stroke-opacity:0.1; fill:none" points="
  404.787,375.869 404.787,231.496 
  "/>
<polyline clip-path="url(#clip4203)" style="stroke:#000000; stroke-width:0.5; stroke-opacity:0.1; fill:none" points="
  580.315,375.869 580.315,231.496 
  "/>
<polyline clip-path="url(#clip4203)" style="stroke:#000000; stroke-width:0.5; stroke-opacity:0.1; fill:none" points="
  53.7297,371.783 580.315,371.783 
  "/>
<polyline clip-path="url(#clip4203)" style="stroke:#000000; stroke-width:0.5; stroke-opacity:0.1; fill:none" points="
  53.7297,343.56 580.315,343.56 
  "/>
<polyline clip-path="url(#clip4203)" style="stroke:#000000; stroke-width:0.5; stroke-opacity:0.1; fill:none" points="
  53.7297,315.338 580.315,315.338 
  "/>
<polyline clip-path="url(#clip4203)" style="stroke:#000000; stroke-width:0.5; stroke-opacity:0.1; fill:none" points="
  53.7297,287.115 580.315,287.115 
  "/>
<polyline clip-path="url(#clip4203)" style="stroke:#000000; stroke-width:0.5; stroke-opacity:0.1; fill:none" points="
  53.7297,258.893 580.315,258.893 
  "/>
<polyline clip-path="url(#clip4200)" style="stroke:#000000; stroke-width:1; stroke-opacity:1; fill:none" points="
  53.7297,375.869 580.315,375.869 
  "/>
<polyline clip-path="url(#clip4200)" style="stroke:#000000; stroke-width:1; stroke-opacity:1; fill:none" points="
  53.7297,375.869 53.7297,231.496 
  "/>
<polyline clip-path="url(#clip4200)" style="stroke:#000000; stroke-width:1; stroke-opacity:1; fill:none" points="
  53.7297,375.869 53.7297,373.703 
  "/>
<polyline clip-path="url(#clip4200)" style="stroke:#000000; stroke-width:1; stroke-opacity:1; fill:none" points="
  229.258,375.869 229.258,373.703 
  "/>
<polyline clip-path="url(#clip4200)" style="stroke:#000000; stroke-width:1; stroke-opacity:1; fill:none" points="
  404.787,375.869 404.787,373.703 
  "/>
<polyline clip-path="url(#clip4200)" style="stroke:#000000; stroke-width:1; stroke-opacity:1; fill:none" points="
  580.315,375.869 580.315,373.703 
  "/>
<polyline clip-path="url(#clip4200)" style="stroke:#000000; stroke-width:1; stroke-opacity:1; fill:none" points="
  53.7297,371.783 61.6285,371.783 
  "/>
<polyline clip-path="url(#clip4200)" style="stroke:#000000; stroke-width:1; stroke-opacity:1; fill:none" points="
  53.7297,343.56 61.6285,343.56 
  "/>
<polyline clip-path="url(#clip4200)" style="stroke:#000000; stroke-width:1; stroke-opacity:1; fill:none" points="
  53.7297,315.338 61.6285,315.338 
  "/>
<polyline clip-path="url(#clip4200)" style="stroke:#000000; stroke-width:1; stroke-opacity:1; fill:none" points="
  53.7297,287.115 61.6285,287.115 
  "/>
<polyline clip-path="url(#clip4200)" style="stroke:#000000; stroke-width:1; stroke-opacity:1; fill:none" points="
  53.7297,258.893 61.6285,258.893 
  "/>
<g clip-path="url(#clip4200)">
<text style="fill:#000000; fill-opacity:1; font-family:Arial,Helvetica Neue,Helvetica,sans-serif; font-size:12; text-anchor:middle;" transform="rotate(0, 53.7297, 389.669)" x="53.7297" y="389.669">-10</text>
</g>
<g clip-path="url(#clip4200)">
<text style="fill:#000000; fill-opacity:1; font-family:Arial,Helvetica Neue,Helvetica,sans-serif; font-size:12; text-anchor:middle;" transform="rotate(0, 229.258, 389.669)" x="229.258" y="389.669">0</text>
</g>
<g clip-path="url(#clip4200)">
<text style="fill:#000000; fill-opacity:1; font-family:Arial,Helvetica Neue,Helvetica,sans-serif; font-size:12; text-anchor:middle;" transform="rotate(0, 404.787, 389.669)" x="404.787" y="389.669">10</text>
</g>
<g clip-path="url(#clip4200)">
<text style="fill:#000000; fill-opacity:1; font-family:Arial,Helvetica Neue,Helvetica,sans-serif; font-size:12; text-anchor:middle;" transform="rotate(0, 580.315, 389.669)" x="580.315" y="389.669">20</text>
</g>
<g clip-path="url(#clip4200)">
<text style="fill:#000000; fill-opacity:1; font-family:Arial,Helvetica Neue,Helvetica,sans-serif; font-size:12; text-anchor:end;" transform="rotate(0, 47.7297, 376.283)" x="47.7297" y="376.283">0.00</text>
</g>
<g clip-path="url(#clip4200)">
<text style="fill:#000000; fill-opacity:1; font-family:Arial,Helvetica Neue,Helvetica,sans-serif; font-size:12; text-anchor:end;" transform="rotate(0, 47.7297, 348.06)" x="47.7297" y="348.06">0.03</text>
</g>
<g clip-path="url(#clip4200)">
<text style="fill:#000000; fill-opacity:1; font-family:Arial,Helvetica Neue,Helvetica,sans-serif; font-size:12; text-anchor:end;" transform="rotate(0, 47.7297, 319.838)" x="47.7297" y="319.838">0.06</text>
</g>
<g clip-path="url(#clip4200)">
<text style="fill:#000000; fill-opacity:1; font-family:Arial,Helvetica Neue,Helvetica,sans-serif; font-size:12; text-anchor:end;" transform="rotate(0, 47.7297, 291.615)" x="47.7297" y="291.615">0.09</text>
</g>
<g clip-path="url(#clip4200)">
<text style="fill:#000000; fill-opacity:1; font-family:Arial,Helvetica Neue,Helvetica,sans-serif; font-size:12; text-anchor:end;" transform="rotate(0, 47.7297, 263.393)" x="47.7297" y="263.393">0.12</text>
</g>
<g clip-path="url(#clip4200)">
<text style="fill:#000000; fill-opacity:1; font-family:Arial,Helvetica Neue,Helvetica,sans-serif; font-size:21; text-anchor:middle;" transform="rotate(0, 317.022, 218)" x="317.022" y="218">Efficient</text>
</g>
<polygon clip-path="url(#clip4203)" points="
16.0149,371.1 17.2046,371.08 18.3944,371.061 19.5841,371.042 20.7739,371.021 21.9636,370.996 23.1534,370.964 24.3431,370.924 25.5329,370.874 26.7226,370.811 
  27.9124,370.735 29.1021,370.643 30.2919,370.534 31.4816,370.41 32.6714,370.27 33.8611,370.114 35.0509,369.946 36.2406,369.766 37.4304,369.578 38.6201,369.385 
  39.8099,369.19 40.9996,368.996 42.1894,368.807 43.3791,368.626 44.5689,368.457 45.7586,368.301 46.9484,368.16 48.1381,368.036 49.3279,367.929 50.5176,367.839 
  51.7073,367.765 52.8971,367.704 54.0868,367.654 55.2766,367.613 56.4663,367.576 57.6561,367.539 58.8458,367.498 60.0356,367.451 61.2253,367.392 62.4151,367.318 
  63.6048,367.227 64.7946,367.116 65.9843,366.985 67.1741,366.833 68.3638,366.659 69.5536,366.466 70.7433,366.255 71.9331,366.028 73.1228,365.789 74.3126,365.541 
  75.5023,365.287 76.6921,365.031 77.8818,364.776 79.0716,364.526 80.2613,364.283 81.4511,364.049 82.6408,363.825 83.8306,363.613 85.0203,363.414 86.2101,363.225 
  87.3998,363.048 88.5896,362.88 89.7793,362.721 90.9691,362.567 92.1588,362.417 93.3485,362.269 94.5383,362.121 95.728,361.972 96.9178,361.818 98.1075,361.66 
  99.2973,361.495 100.487,361.323 101.677,361.143 102.867,360.955 104.056,360.758 105.246,360.553 106.436,360.34 107.626,360.117 108.815,359.884 110.005,359.641 
  111.195,359.387 112.385,359.119 113.574,358.835 114.764,358.532 115.954,358.208 117.144,357.858 118.333,357.479 119.523,357.067 120.713,356.618 121.903,356.129 
  123.092,355.598 124.282,355.021 125.472,354.398 126.662,353.727 127.851,353.01 129.041,352.246 130.231,351.437 131.421,350.584 132.61,349.688 133.8,348.75 
  133.8,371.783 132.61,371.783 131.421,371.783 130.231,371.783 129.041,371.783 127.851,371.783 126.662,371.783 125.472,371.783 124.282,371.783 123.092,371.783 
  121.903,371.783 120.713,371.783 119.523,371.783 118.333,371.783 117.144,371.783 115.954,371.783 114.764,371.783 113.574,371.783 112.385,371.783 111.195,371.783 
  110.005,371.783 108.815,371.783 107.626,371.783 106.436,371.783 105.246,371.783 104.056,371.783 102.867,371.783 101.677,371.783 100.487,371.783 99.2973,371.783 
  98.1075,371.783 96.9178,371.783 95.728,371.783 94.5383,371.783 93.3485,371.783 92.1588,371.783 90.9691,371.783 89.7793,371.783 88.5896,371.783 87.3998,371.783 
  86.2101,371.783 85.0203,371.783 83.8306,371.783 82.6408,371.783 81.4511,371.783 80.2613,371.783 79.0716,371.783 77.8818,371.783 76.6921,371.783 75.5023,371.783 
  74.3126,371.783 73.1228,371.783 71.9331,371.783 70.7433,371.783 69.5536,371.783 68.3638,371.783 67.1741,371.783 65.9843,371.783 64.7946,371.783 63.6048,371.783 
  62.4151,371.783 61.2253,371.783 60.0356,371.783 58.8458,371.783 57.6561,371.783 56.4663,371.783 55.2766,371.783 54.0868,371.783 52.8971,371.783 51.7073,371.783 
  50.5176,371.783 49.3279,371.783 48.1381,371.783 46.9484,371.783 45.7586,371.783 44.5689,371.783 43.3791,371.783 42.1894,371.783 40.9996,371.783 39.8099,371.783 
  38.6201,371.783 37.4304,371.783 36.2406,371.783 35.0509,371.783 33.8611,371.783 32.6714,371.783 31.4816,371.783 30.2919,371.783 29.1021,371.783 27.9124,371.783 
  26.7226,371.783 25.5329,371.783 24.3431,371.783 23.1534,371.783 21.9636,371.783 20.7739,371.783 19.5841,371.783 18.3944,371.783 17.2046,371.783 16.0149,371.783 
  
  " fill="#ffa500" fill-opacity="0.5"/>
<polyline clip-path="url(#clip4203)" style="stroke:#ffa500; stroke-width:1; stroke-opacity:1; fill:none" points="
  16.0149,371.1 17.2046,371.08 18.3944,371.061 19.5841,371.042 20.7739,371.021 21.9636,370.996 23.1534,370.964 24.3431,370.924 25.5329,370.874 26.7226,370.811 
  27.9124,370.735 29.1021,370.643 30.2919,370.534 31.4816,370.41 32.6714,370.27 33.8611,370.114 35.0509,369.946 36.2406,369.766 37.4304,369.578 38.6201,369.385 
  39.8099,369.19 40.9996,368.996 42.1894,368.807 43.3791,368.626 44.5689,368.457 45.7586,368.301 46.9484,368.16 48.1381,368.036 49.3279,367.929 50.5176,367.839 
  51.7073,367.765 52.8971,367.704 54.0868,367.654 55.2766,367.613 56.4663,367.576 57.6561,367.539 58.8458,367.498 60.0356,367.451 61.2253,367.392 62.4151,367.318 
  63.6048,367.227 64.7946,367.116 65.9843,366.985 67.1741,366.833 68.3638,366.659 69.5536,366.466 70.7433,366.255 71.9331,366.028 73.1228,365.789 74.3126,365.541 
  75.5023,365.287 76.6921,365.031 77.8818,364.776 79.0716,364.526 80.2613,364.283 81.4511,364.049 82.6408,363.825 83.8306,363.613 85.0203,363.414 86.2101,363.225 
  87.3998,363.048 88.5896,362.88 89.7793,362.721 90.9691,362.567 92.1588,362.417 93.3485,362.269 94.5383,362.121 95.728,361.972 96.9178,361.818 98.1075,361.66 
  99.2973,361.495 100.487,361.323 101.677,361.143 102.867,360.955 104.056,360.758 105.246,360.553 106.436,360.34 107.626,360.117 108.815,359.884 110.005,359.641 
  111.195,359.387 112.385,359.119 113.574,358.835 114.764,358.532 115.954,358.208 117.144,357.858 118.333,357.479 119.523,357.067 120.713,356.618 121.903,356.129 
  123.092,355.598 124.282,355.021 125.472,354.398 126.662,353.727 127.851,353.01 129.041,352.246 130.231,351.437 131.421,350.584 132.61,349.688 133.8,348.75 
  
  "/>
<polygon clip-path="url(#clip4203)" points="
133.8,348.75 135.412,347.411 137.024,345.992 138.635,344.485 140.247,342.879 141.859,341.161 143.471,339.313 145.083,337.321 146.694,335.169 148.306,332.845 
  149.918,330.342 151.53,327.658 153.141,324.793 154.753,321.753 156.365,318.545 157.977,315.177 159.589,311.659 161.2,308.001 162.812,304.214 164.424,300.314 
  166.036,296.322 167.648,292.266 169.259,288.185 170.871,284.127 172.483,280.148 174.095,276.312 175.707,272.682 177.318,269.319 178.93,266.277 180.542,263.594 
  182.154,261.291 183.766,259.371 185.377,257.815 186.989,256.589 188.601,255.644 190.213,254.919 191.824,254.351 193.436,253.877 195.048,253.436 196.66,252.978 
  198.272,252.459 199.883,251.848 201.495,251.121 203.107,250.266 204.719,249.279 206.331,248.163 207.942,246.93 209.554,245.599 211.166,244.197 212.778,242.76 
  214.39,241.328 216.001,239.951 217.613,238.682 219.225,237.572 220.837,236.671 222.449,236.022 224.06,235.654 225.672,235.582 227.284,235.805 228.896,236.303 
  230.507,237.044 232.119,237.981 233.731,239.064 235.343,240.242 236.955,241.472 238.566,242.722 240.178,243.978 241.79,245.242 243.402,246.537 245.014,247.901 
  246.625,249.383 248.237,251.038 249.849,252.921 251.461,255.08 253.073,257.548 254.684,260.347 256.296,263.476 257.908,266.918 259.52,270.637 261.131,274.583 
  262.743,278.696 264.355,282.907 265.967,287.146 267.579,291.345 269.19,295.44 270.802,299.377 272.414,303.113 274.026,306.617 275.638,309.868 277.249,312.86 
  278.861,315.598 280.473,318.093 282.085,320.37 283.697,322.454 285.308,324.378 286.92,326.176 288.532,327.881 290.144,329.525 291.756,331.135 293.367,332.734 
  293.367,371.783 291.756,371.783 290.144,371.783 288.532,371.783 286.92,371.783 285.308,371.783 283.697,371.783 282.085,371.783 280.473,371.783 278.861,371.783 
  277.249,371.783 275.638,371.783 274.026,371.783 272.414,371.783 270.802,371.783 269.19,371.783 267.579,371.783 265.967,371.783 264.355,371.783 262.743,371.783 
  261.131,371.783 259.52,371.783 257.908,371.783 256.296,371.783 254.684,371.783 253.073,371.783 251.461,371.783 249.849,371.783 248.237,371.783 246.625,371.783 
  245.014,371.783 243.402,371.783 241.79,371.783 240.178,371.783 238.566,371.783 236.955,371.783 235.343,371.783 233.731,371.783 232.119,371.783 230.507,371.783 
  228.896,371.783 227.284,371.783 225.672,371.783 224.06,371.783 222.449,371.783 220.837,371.783 219.225,371.783 217.613,371.783 216.001,371.783 214.39,371.783 
  212.778,371.783 211.166,371.783 209.554,371.783 207.942,371.783 206.331,371.783 204.719,371.783 203.107,371.783 201.495,371.783 199.883,371.783 198.272,371.783 
  196.66,371.783 195.048,371.783 193.436,371.783 191.824,371.783 190.213,371.783 188.601,371.783 186.989,371.783 185.377,371.783 183.766,371.783 182.154,371.783 
  180.542,371.783 178.93,371.783 177.318,371.783 175.707,371.783 174.095,371.783 172.483,371.783 170.871,371.783 169.259,371.783 167.648,371.783 166.036,371.783 
  164.424,371.783 162.812,371.783 161.2,371.783 159.589,371.783 157.977,371.783 156.365,371.783 154.753,371.783 153.141,371.783 151.53,371.783 149.918,371.783 
  148.306,371.783 146.694,371.783 145.083,371.783 143.471,371.783 141.859,371.783 140.247,371.783 138.635,371.783 137.024,371.783 135.412,371.783 133.8,371.783 
  
  " fill="#008000" fill-opacity="0.5"/>
<polyline clip-path="url(#clip4203)" style="stroke:#008000; stroke-width:1; stroke-opacity:1; fill:none" points="
  133.8,348.75 135.412,347.411 137.024,345.992 138.635,344.485 140.247,342.879 141.859,341.161 143.471,339.313 145.083,337.321 146.694,335.169 148.306,332.845 
  149.918,330.342 151.53,327.658 153.141,324.793 154.753,321.753 156.365,318.545 157.977,315.177 159.589,311.659 161.2,308.001 162.812,304.214 164.424,300.314 
  166.036,296.322 167.648,292.266 169.259,288.185 170.871,284.127 172.483,280.148 174.095,276.312 175.707,272.682 177.318,269.319 178.93,266.277 180.542,263.594 
  182.154,261.291 183.766,259.371 185.377,257.815 186.989,256.589 188.601,255.644 190.213,254.919 191.824,254.351 193.436,253.877 195.048,253.436 196.66,252.978 
  198.272,252.459 199.883,251.848 201.495,251.121 203.107,250.266 204.719,249.279 206.331,248.163 207.942,246.93 209.554,245.599 211.166,244.197 212.778,242.76 
  214.39,241.328 216.001,239.951 217.613,238.682 219.225,237.572 220.837,236.671 222.449,236.022 224.06,235.654 225.672,235.582 227.284,235.805 228.896,236.303 
  230.507,237.044 232.119,237.981 233.731,239.064 235.343,240.242 236.955,241.472 238.566,242.722 240.178,243.978 241.79,245.242 243.402,246.537 245.014,247.901 
  246.625,249.383 248.237,251.038 249.849,252.921 251.461,255.08 253.073,257.548 254.684,260.347 256.296,263.476 257.908,266.918 259.52,270.637 261.131,274.583 
  262.743,278.696 264.355,282.907 265.967,287.146 267.579,291.345 269.19,295.44 270.802,299.377 272.414,303.113 274.026,306.617 275.638,309.868 277.249,312.86 
  278.861,315.598 280.473,318.093 282.085,320.37 283.697,322.454 285.308,324.378 286.92,326.176 288.532,327.881 290.144,329.525 291.756,331.135 293.367,332.734 
  
  "/>
<polygon clip-path="url(#clip4203)" points="
293.367,332.734 294.002,333.364 294.636,333.996 295.27,334.63 295.905,335.266 296.539,335.906 297.173,336.549 297.808,337.195 298.442,337.844 299.076,338.496 
  299.711,339.15 300.345,339.806 300.98,340.464 301.614,341.123 302.248,341.781 302.883,342.44 303.517,343.097 304.151,343.752 304.786,344.405 305.42,345.054 
  306.054,345.699 306.689,346.34 307.323,346.976 307.957,347.605 308.592,348.229 309.226,348.846 309.86,349.456 310.495,350.058 311.129,350.652 311.764,351.239 
  312.398,351.818 313.032,352.388 313.667,352.95 314.301,353.503 314.935,354.048 315.57,354.585 316.204,355.113 316.838,355.633 317.473,356.145 318.107,356.648 
  318.741,357.142 319.376,357.628 320.01,358.106 320.644,358.575 321.279,359.035 321.913,359.487 322.548,359.93 323.182,360.364 323.816,360.788 324.451,361.204 
  325.085,361.609 325.719,362.005 326.354,362.391 326.988,362.766 327.622,363.131 328.257,363.485 328.891,363.829 329.525,364.161 330.16,364.481 330.794,364.79 
  331.428,365.088 332.063,365.373 332.697,365.647 333.332,365.909 333.966,366.16 334.6,366.398 335.235,366.625 335.869,366.841 336.503,367.045 337.138,367.239 
  337.772,367.422 338.406,367.594 339.041,367.757 339.675,367.91 340.309,368.054 340.944,368.19 341.578,368.318 342.212,368.438 342.847,368.552 343.481,368.659 
  344.115,368.76 344.75,368.856 345.384,368.947 346.019,369.034 346.653,369.117 347.287,369.197 347.922,369.275 348.556,369.35 349.19,369.423 349.825,369.494 
  350.459,369.565 351.093,369.634 351.728,369.703 352.362,369.771 352.996,369.838 353.631,369.906 354.265,369.973 354.899,370.04 355.534,370.108 356.168,370.175 
  356.168,371.783 355.534,371.783 354.899,371.783 354.265,371.783 353.631,371.783 352.996,371.783 352.362,371.783 351.728,371.783 351.093,371.783 350.459,371.783 
  349.825,371.783 349.19,371.783 348.556,371.783 347.922,371.783 347.287,371.783 346.653,371.783 346.019,371.783 345.384,371.783 344.75,371.783 344.115,371.783 
  343.481,371.783 342.847,371.783 342.212,371.783 341.578,371.783 340.944,371.783 340.309,371.783 339.675,371.783 339.041,371.783 338.406,371.783 337.772,371.783 
  337.138,371.783 336.503,371.783 335.869,371.783 335.235,371.783 334.6,371.783 333.966,371.783 333.332,371.783 332.697,371.783 332.063,371.783 331.428,371.783 
  330.794,371.783 330.16,371.783 329.525,371.783 328.891,371.783 328.257,371.783 327.622,371.783 326.988,371.783 326.354,371.783 325.719,371.783 325.085,371.783 
  324.451,371.783 323.816,371.783 323.182,371.783 322.548,371.783 321.913,371.783 321.279,371.783 320.644,371.783 320.01,371.783 319.376,371.783 318.741,371.783 
  318.107,371.783 317.473,371.783 316.838,371.783 316.204,371.783 315.57,371.783 314.935,371.783 314.301,371.783 313.667,371.783 313.032,371.783 312.398,371.783 
  311.764,371.783 311.129,371.783 310.495,371.783 309.86,371.783 309.226,371.783 308.592,371.783 307.957,371.783 307.323,371.783 306.689,371.783 306.054,371.783 
  305.42,371.783 304.786,371.783 304.151,371.783 303.517,371.783 302.883,371.783 302.248,371.783 301.614,371.783 300.98,371.783 300.345,371.783 299.711,371.783 
  299.076,371.783 298.442,371.783 297.808,371.783 297.173,371.783 296.539,371.783 295.905,371.783 295.27,371.783 294.636,371.783 294.002,371.783 293.367,371.783 
  
  " fill="#ffa500" fill-opacity="0.5"/>
<polyline clip-path="url(#clip4203)" style="stroke:#ffa500; stroke-width:1; stroke-opacity:1; fill:none" points="
  293.367,332.734 294.002,333.364 294.636,333.996 295.27,334.63 295.905,335.266 296.539,335.906 297.173,336.549 297.808,337.195 298.442,337.844 299.076,338.496 
  299.711,339.15 300.345,339.806 300.98,340.464 301.614,341.123 302.248,341.781 302.883,342.44 303.517,343.097 304.151,343.752 304.786,344.405 305.42,345.054 
  306.054,345.699 306.689,346.34 307.323,346.976 307.957,347.605 308.592,348.229 309.226,348.846 309.86,349.456 310.495,350.058 311.129,350.652 311.764,351.239 
  312.398,351.818 313.032,352.388 313.667,352.95 314.301,353.503 314.935,354.048 315.57,354.585 316.204,355.113 316.838,355.633 317.473,356.145 318.107,356.648 
  318.741,357.142 319.376,357.628 320.01,358.106 320.644,358.575 321.279,359.035 321.913,359.487 322.548,359.93 323.182,360.364 323.816,360.788 324.451,361.204 
  325.085,361.609 325.719,362.005 326.354,362.391 326.988,362.766 327.622,363.131 328.257,363.485 328.891,363.829 329.525,364.161 330.16,364.481 330.794,364.79 
  331.428,365.088 332.063,365.373 332.697,365.647 333.332,365.909 333.966,366.16 334.6,366.398 335.235,366.625 335.869,366.841 336.503,367.045 337.138,367.239 
  337.772,367.422 338.406,367.594 339.041,367.757 339.675,367.91 340.309,368.054 340.944,368.19 341.578,368.318 342.212,368.438 342.847,368.552 343.481,368.659 
  344.115,368.76 344.75,368.856 345.384,368.947 346.019,369.034 346.653,369.117 347.287,369.197 347.922,369.275 348.556,369.35 349.19,369.423 349.825,369.494 
  350.459,369.565 351.093,369.634 351.728,369.703 352.362,369.771 352.996,369.838 353.631,369.906 354.265,369.973 354.899,370.04 355.534,370.108 356.168,370.175 
  
  "/>
<polyline clip-path="url(#clip4203)" style="stroke:#0000ff; stroke-width:1; stroke-opacity:1; fill:none" points="
  215.927,371.783 215.927,240.013 
  "/>
<polyline clip-path="url(#clip4203)" style="stroke:#000000; stroke-width:1; stroke-opacity:1; fill:none" points="
  219.761,371.783 219.761,237.247 
  "/>
<polygon clip-path="url(#clip4200)" points="
376.566,343.096 562.315,343.096 562.315,252.376 376.566,252.376 
  " fill="#ffffff" fill-opacity="1"/>
<polyline clip-path="url(#clip4200)" style="stroke:#000000; stroke-width:1; stroke-opacity:1; fill:none" points="
  376.566,343.096 562.315,343.096 562.315,252.376 376.566,252.376 376.566,343.096 
  "/>
<polygon clip-path="url(#clip4200)" points="
382.566,273.544 418.566,273.544 418.566,261.448 382.566,261.448 382.566,273.544 
  " fill="#ffa500" fill-opacity="0.5"/>
<polyline clip-path="url(#clip4200)" style="stroke:#ffa500; stroke-width:1; stroke-opacity:1; fill:none" points="
  382.566,261.448 418.566,261.448 
  "/>
<g clip-path="url(#clip4200)">
<text style="fill:#000000; fill-opacity:1; font-family:Arial,Helvetica Neue,Helvetica,sans-serif; font-size:12; text-anchor:start;" transform="rotate(0, 424.566, 271.996)" x="424.566" y="271.996">q05</text>
</g>
<polygon clip-path="url(#clip4200)" points="
382.566,288.664 418.566,288.664 418.566,276.568 382.566,276.568 382.566,288.664 
  " fill="#008000" fill-opacity="0.5"/>
<polyline clip-path="url(#clip4200)" style="stroke:#008000; stroke-width:1; stroke-opacity:1; fill:none" points="
  382.566,276.568 418.566,276.568 
  "/>
<g clip-path="url(#clip4200)">
<text style="fill:#000000; fill-opacity:1; font-family:Arial,Helvetica Neue,Helvetica,sans-serif; font-size:12; text-anchor:start;" transform="rotate(0, 424.566, 287.116)" x="424.566" y="287.116">90% acceptance region</text>
</g>
<polygon clip-path="url(#clip4200)" points="
382.566,303.784 418.566,303.784 418.566,291.688 382.566,291.688 382.566,303.784 
  " fill="#ffa500" fill-opacity="0.5"/>
<polyline clip-path="url(#clip4200)" style="stroke:#ffa500; stroke-width:1; stroke-opacity:1; fill:none" points="
  382.566,291.688 418.566,291.688 
  "/>
<g clip-path="url(#clip4200)">
<text style="fill:#000000; fill-opacity:1; font-family:Arial,Helvetica Neue,Helvetica,sans-serif; font-size:12; text-anchor:start;" transform="rotate(0, 424.566, 302.236)" x="424.566" y="302.236">q95</text>
</g>
<polyline clip-path="url(#clip4200)" style="stroke:#0000ff; stroke-width:1; stroke-opacity:1; fill:none" points="
  382.566,312.856 418.566,312.856 
  "/>
<g clip-path="url(#clip4200)">
<text style="fill:#000000; fill-opacity:1; font-family:Arial,Helvetica Neue,Helvetica,sans-serif; font-size:12; text-anchor:start;" transform="rotate(0, 424.566, 317.356)" x="424.566" y="317.356">mean</text>
</g>
<polyline clip-path="url(#clip4200)" style="stroke:#000000; stroke-width:1; stroke-opacity:1; fill:none" points="
  382.566,327.976 418.566,327.976 
  "/>
<g clip-path="url(#clip4200)">
<text style="fill:#000000; fill-opacity:1; font-family:Arial,Helvetica Neue,Helvetica,sans-serif; font-size:12; text-anchor:start;" transform="rotate(0, 424.566, 332.476)" x="424.566" y="332.476">median</text>
</g>
</svg>
