<?xml version="1.0" encoding="utf-8"?>
<svg xmlns="http://www.w3.org/2000/svg" xmlns:xlink="http://www.w3.org/1999/xlink" width="600" height="400" viewBox="0 0 600 400">
<defs>
  <clipPath id="clip00">
    <rect x="0" y="0" width="600" height="400"/>
  </clipPath>
</defs>
<polygon clip-path="url(#clip00)" points="
0,400 600,400 600,0 0,0 
  " fill="#ffffff" fill-opacity="1"/>
<defs>
  <clipPath id="clip01">
    <rect x="120" y="0" width="421" height="400"/>
  </clipPath>
</defs>
<polygon clip-path="url(#clip00)" points="
39.3701,376.378 592.126,376.378 592.126,7.87402 39.3701,7.87402 
  " fill="#ffffff" fill-opacity="1"/>
<defs>
  <clipPath id="clip02">
    <rect x="39" y="7" width="554" height="370"/>
  </clipPath>
</defs>
<polyline clip-path="url(#clip02)" style="stroke:#000000; stroke-width:1; stroke-opacity:0.5; fill:none" stroke-dasharray="1, 2" points="
  55.0141,370.85 55.0141,13.4016 
  "/>
<polyline clip-path="url(#clip02)" style="stroke:#000000; stroke-width:1; stroke-opacity:0.5; fill:none" stroke-dasharray="1, 2" points="
  223.23,370.85 223.23,13.4016 
  "/>
<polyline clip-path="url(#clip02)" style="stroke:#000000; stroke-width:1; stroke-opacity:0.5; fill:none" stroke-dasharray="1, 2" points="
  391.445,370.85 391.445,13.4016 
  "/>
<polyline clip-path="url(#clip02)" style="stroke:#000000; stroke-width:1; stroke-opacity:0.5; fill:none" stroke-dasharray="1, 2" points="
  559.66,370.85 559.66,13.4016 
  "/>
<polyline clip-path="url(#clip02)" style="stroke:#000000; stroke-width:1; stroke-opacity:0.5; fill:none" stroke-dasharray="1, 2" points="
  47.6614,376.378 583.835,376.378 
  "/>
<polyline clip-path="url(#clip02)" style="stroke:#000000; stroke-width:1; stroke-opacity:0.5; fill:none" stroke-dasharray="1, 2" points="
  47.6614,230.146 583.835,230.146 
  "/>
<polyline clip-path="url(#clip02)" style="stroke:#000000; stroke-width:1; stroke-opacity:0.5; fill:none" stroke-dasharray="1, 2" points="
  47.6614,83.9145 583.835,83.9145 
  "/>
<polyline clip-path="url(#clip00)" style="stroke:#000000; stroke-width:1; stroke-opacity:1; fill:none" points="
  39.3701,376.378 592.126,376.378 
  "/>
<polyline clip-path="url(#clip00)" style="stroke:#000000; stroke-width:1; stroke-opacity:1; fill:none" points="
  55.0141,376.378 55.0141,370.85 
  "/>
<polyline clip-path="url(#clip00)" style="stroke:#000000; stroke-width:1; stroke-opacity:1; fill:none" points="
  223.23,376.378 223.23,370.85 
  "/>
<polyline clip-path="url(#clip00)" style="stroke:#000000; stroke-width:1; stroke-opacity:1; fill:none" points="
  391.445,376.378 391.445,370.85 
  "/>
<polyline clip-path="url(#clip00)" style="stroke:#000000; stroke-width:1; stroke-opacity:1; fill:none" points="
  559.66,376.378 559.66,370.85 
  "/>
<polyline clip-path="url(#clip00)" style="stroke:#000000; stroke-width:1; stroke-opacity:1; fill:none" points="
  39.3701,376.378 39.3701,7.87402 
  "/>
<polyline clip-path="url(#clip00)" style="stroke:#000000; stroke-width:1; stroke-opacity:1; fill:none" points="
  39.3701,376.378 47.6614,376.378 
  "/>
<polyline clip-path="url(#clip00)" style="stroke:#000000; stroke-width:1; stroke-opacity:1; fill:none" points="
  39.3701,230.146 47.6614,230.146 
  "/>
<polyline clip-path="url(#clip00)" style="stroke:#000000; stroke-width:1; stroke-opacity:1; fill:none" points="
  39.3701,83.9145 47.6614,83.9145 
  "/>
<g clip-path="url(#clip00)">
<text style="fill:#000000; fill-opacity:1; font-family:Arial,Helvetica Neue,Helvetica,sans-serif; font-size:12; text-anchor:middle;" transform="rotate(0, 55.0141, 390.178)" x="55.0141" y="390.178">-2</text>
</g>
<g clip-path="url(#clip00)">
<text style="fill:#000000; fill-opacity:1; font-family:Arial,Helvetica Neue,Helvetica,sans-serif; font-size:12; text-anchor:middle;" transform="rotate(0, 223.23, 390.178)" x="223.23" y="390.178">-1</text>
</g>
<g clip-path="url(#clip00)">
<text style="fill:#000000; fill-opacity:1; font-family:Arial,Helvetica Neue,Helvetica,sans-serif; font-size:12; text-anchor:middle;" transform="rotate(0, 391.445, 390.178)" x="391.445" y="390.178">0</text>
</g>
<g clip-path="url(#clip00)">
<text style="fill:#000000; fill-opacity:1; font-family:Arial,Helvetica Neue,Helvetica,sans-serif; font-size:12; text-anchor:middle;" transform="rotate(0, 559.66, 390.178)" x="559.66" y="390.178">1</text>
</g>
<g clip-path="url(#clip00)">
<text style="fill:#000000; fill-opacity:1; font-family:Arial,Helvetica Neue,Helvetica,sans-serif; font-size:12; text-anchor:end;" transform="rotate(0, 33.3701, 380.878)" x="33.3701" y="380.878">0</text>
</g>
<g clip-path="url(#clip00)">
<text style="fill:#000000; fill-opacity:1; font-family:Arial,Helvetica Neue,Helvetica,sans-serif; font-size:12; text-anchor:end;" transform="rotate(0, 33.3701, 234.646)" x="33.3701" y="234.646">100</text>
</g>
<g clip-path="url(#clip00)">
<text style="fill:#000000; fill-opacity:1; font-family:Arial,Helvetica Neue,Helvetica,sans-serif; font-size:12; text-anchor:end;" transform="rotate(0, 33.3701, 88.4145)" x="33.3701" y="88.4145">200</text>
</g>
<polygon clip-path="url(#clip02)" points="
55.0141,374.916 55.0141,376.378 71.8357,376.378 71.8357,374.916 55.0141,374.916 55.0141,374.916 
  " fill="#009af9" fill-opacity="1"/>
<polyline clip-path="url(#clip02)" style="stroke:#000000; stroke-width:1; stroke-opacity:1; fill:none" points="
  55.0141,374.916 55.0141,376.378 71.8357,376.378 71.8357,374.916 55.0141,374.916 
  "/>
<polygon clip-path="url(#clip02)" points="
71.8357,376.378 71.8357,376.378 88.6572,376.378 88.6572,376.378 71.8357,376.378 71.8357,376.378 
  " fill="#009af9" fill-opacity="1"/>
<polyline clip-path="url(#clip02)" style="stroke:#000000; stroke-width:1; stroke-opacity:1; fill:none" points="
  71.8357,376.378 71.8357,376.378 88.6572,376.378 71.8357,376.378 
  "/>
<polygon clip-path="url(#clip02)" points="
88.6572,376.378 88.6572,376.378 105.479,376.378 105.479,376.378 88.6572,376.378 88.6572,376.378 
  " fill="#009af9" fill-opacity="1"/>
<polyline clip-path="url(#clip02)" style="stroke:#000000; stroke-width:1; stroke-opacity:1; fill:none" points="
  88.6572,376.378 88.6572,376.378 105.479,376.378 88.6572,376.378 
  "/>
<polygon clip-path="url(#clip02)" points="
105.479,376.378 105.479,376.378 122.3,376.378 122.3,376.378 105.479,376.378 105.479,376.378 
  " fill="#009af9" fill-opacity="1"/>
<polyline clip-path="url(#clip02)" style="stroke:#000000; stroke-width:1; stroke-opacity:1; fill:none" points="
  105.479,376.378 105.479,376.378 122.3,376.378 105.479,376.378 
  "/>
<polygon clip-path="url(#clip02)" points="
122.3,376.378 122.3,376.378 139.122,376.378 139.122,376.378 122.3,376.378 122.3,376.378 
  " fill="#009af9" fill-opacity="1"/>
<polyline clip-path="url(#clip02)" style="stroke:#000000; stroke-width:1; stroke-opacity:1; fill:none" points="
  122.3,376.378 122.3,376.378 139.122,376.378 122.3,376.378 
  "/>
<polygon clip-path="url(#clip02)" points="
139.122,376.378 139.122,376.378 155.943,376.378 155.943,376.378 139.122,376.378 139.122,376.378 
  " fill="#009af9" fill-opacity="1"/>
<polyline clip-path="url(#clip02)" style="stroke:#000000; stroke-width:1; stroke-opacity:1; fill:none" points="
  139.122,376.378 139.122,376.378 155.943,376.378 139.122,376.378 
  "/>
<polygon clip-path="url(#clip02)" points="
155.943,376.378 155.943,376.378 172.765,376.378 172.765,376.378 155.943,376.378 155.943,376.378 
  " fill="#009af9" fill-opacity="1"/>
<polyline clip-path="url(#clip02)" style="stroke:#000000; stroke-width:1; stroke-opacity:1; fill:none" points="
  155.943,376.378 155.943,376.378 172.765,376.378 155.943,376.378 
  "/>
<polygon clip-path="url(#clip02)" points="
172.765,376.378 172.765,376.378 189.586,376.378 189.586,376.378 172.765,376.378 172.765,376.378 
  " fill="#009af9" fill-opacity="1"/>
<polyline clip-path="url(#clip02)" style="stroke:#000000; stroke-width:1; stroke-opacity:1; fill:none" points="
  172.765,376.378 172.765,376.378 189.586,376.378 172.765,376.378 
  "/>
<polygon clip-path="url(#clip02)" points="
189.586,374.916 189.586,376.378 206.408,376.378 206.408,374.916 189.586,374.916 189.586,374.916 
  " fill="#009af9" fill-opacity="1"/>
<polyline clip-path="url(#clip02)" style="stroke:#000000; stroke-width:1; stroke-opacity:1; fill:none" points="
  189.586,374.916 189.586,376.378 206.408,376.378 206.408,374.916 189.586,374.916 
  "/>
<polygon clip-path="url(#clip02)" points="
206.408,373.453 206.408,376.378 223.23,376.378 223.23,373.453 206.408,373.453 206.408,373.453 
  " fill="#009af9" fill-opacity="1"/>
<polyline clip-path="url(#clip02)" style="stroke:#000000; stroke-width:1; stroke-opacity:1; fill:none" points="
  206.408,373.453 206.408,376.378 223.23,376.378 223.23,373.453 206.408,373.453 
  "/>
<polygon clip-path="url(#clip02)" points="
223.23,373.453 223.23,376.378 240.051,376.378 240.051,373.453 223.23,373.453 223.23,373.453 
  " fill="#009af9" fill-opacity="1"/>
<polyline clip-path="url(#clip02)" style="stroke:#000000; stroke-width:1; stroke-opacity:1; fill:none" points="
  223.23,373.453 223.23,376.378 240.051,376.378 240.051,373.453 223.23,373.453 
  "/>
<polygon clip-path="url(#clip02)" points="
240.051,367.604 240.051,376.378 256.873,376.378 256.873,367.604 240.051,367.604 240.051,367.604 
  " fill="#009af9" fill-opacity="1"/>
<polyline clip-path="url(#clip02)" style="stroke:#000000; stroke-width:1; stroke-opacity:1; fill:none" points="
  240.051,367.604 240.051,376.378 256.873,376.378 256.873,367.604 240.051,367.604 
  "/>
<polygon clip-path="url(#clip02)" points="
256.873,367.604 256.873,376.378 273.694,376.378 273.694,367.604 256.873,367.604 256.873,367.604 
  " fill="#009af9" fill-opacity="1"/>
<polyline clip-path="url(#clip02)" style="stroke:#000000; stroke-width:1; stroke-opacity:1; fill:none" points="
  256.873,367.604 256.873,376.378 273.694,376.378 273.694,367.604 256.873,367.604 
  "/>
<polygon clip-path="url(#clip02)" points="
273.694,370.529 273.694,376.378 290.516,376.378 290.516,370.529 273.694,370.529 273.694,370.529 
  " fill="#009af9" fill-opacity="1"/>
<polyline clip-path="url(#clip02)" style="stroke:#000000; stroke-width:1; stroke-opacity:1; fill:none" points="
  273.694,370.529 273.694,376.378 290.516,376.378 290.516,370.529 273.694,370.529 
  "/>
<polygon clip-path="url(#clip02)" points="
290.516,366.142 290.516,376.378 307.337,376.378 307.337,366.142 290.516,366.142 290.516,366.142 
  " fill="#009af9" fill-opacity="1"/>
<polyline clip-path="url(#clip02)" style="stroke:#000000; stroke-width:1; stroke-opacity:1; fill:none" points="
  290.516,366.142 290.516,376.378 307.337,376.378 307.337,366.142 290.516,366.142 
  "/>
<polygon clip-path="url(#clip02)" points="
307.337,345.669 307.337,376.378 324.159,376.378 324.159,345.669 307.337,345.669 307.337,345.669 
  " fill="#009af9" fill-opacity="1"/>
<polyline clip-path="url(#clip02)" style="stroke:#000000; stroke-width:1; stroke-opacity:1; fill:none" points="
  307.337,345.669 307.337,376.378 324.159,376.378 324.159,345.669 307.337,345.669 
  "/>
<polygon clip-path="url(#clip02)" points="
324.159,351.519 324.159,376.378 340.98,376.378 340.98,351.519 324.159,351.519 324.159,351.519 
  " fill="#009af9" fill-opacity="1"/>
<polyline clip-path="url(#clip02)" style="stroke:#000000; stroke-width:1; stroke-opacity:1; fill:none" points="
  324.159,351.519 324.159,376.378 340.98,376.378 340.98,351.519 324.159,351.519 
  "/>
<polygon clip-path="url(#clip02)" points="
340.98,304.724 340.98,376.378 357.802,376.378 357.802,304.724 340.98,304.724 340.98,304.724 
  " fill="#009af9" fill-opacity="1"/>
<polyline clip-path="url(#clip02)" style="stroke:#000000; stroke-width:1; stroke-opacity:1; fill:none" points="
  340.98,304.724 340.98,376.378 357.802,376.378 357.802,304.724 340.98,304.724 
  "/>
<polygon clip-path="url(#clip02)" points="
357.802,168.729 357.802,376.378 374.623,376.378 374.623,168.729 357.802,168.729 357.802,168.729 
  " fill="#009af9" fill-opacity="1"/>
<polyline clip-path="url(#clip02)" style="stroke:#000000; stroke-width:1; stroke-opacity:1; fill:none" points="
  357.802,168.729 357.802,376.378 374.623,376.378 374.623,168.729 357.802,168.729 
  "/>
<polygon clip-path="url(#clip02)" points="
374.623,18.1102 374.623,376.378 391.445,376.378 391.445,18.1102 374.623,18.1102 374.623,18.1102 
  " fill="#009af9" fill-opacity="1"/>
<polyline clip-path="url(#clip02)" style="stroke:#000000; stroke-width:1; stroke-opacity:1; fill:none" points="
  374.623,18.1102 374.623,376.378 391.445,376.378 391.445,18.1102 374.623,18.1102 
  "/>
<polygon clip-path="url(#clip02)" points="
391.445,7.87402 391.445,376.378 408.267,376.378 408.267,7.87402 391.445,7.87402 391.445,7.87402 
  " fill="#009af9" fill-opacity="1"/>
<polyline clip-path="url(#clip02)" style="stroke:#000000; stroke-width:1; stroke-opacity:1; fill:none" points="
  391.445,7.87402 391.445,376.378 408.267,376.378 408.267,7.87402 391.445,7.87402 
  "/>
<polygon clip-path="url(#clip02)" points="
408.267,195.051 408.267,376.378 425.088,376.378 425.088,195.051 408.267,195.051 408.267,195.051 
  " fill="#009af9" fill-opacity="1"/>
<polyline clip-path="url(#clip02)" style="stroke:#000000; stroke-width:1; stroke-opacity:1; fill:none" points="
  408.267,195.051 408.267,376.378 425.088,376.378 425.088,195.051 408.267,195.051 
  "/>
<polygon clip-path="url(#clip02)" points="
425.088,303.262 425.088,376.378 441.91,376.378 441.91,303.262 425.088,303.262 425.088,303.262 
  " fill="#009af9" fill-opacity="1"/>
<polyline clip-path="url(#clip02)" style="stroke:#000000; stroke-width:1; stroke-opacity:1; fill:none" points="
  425.088,303.262 425.088,376.378 441.91,376.378 441.91,303.262 425.088,303.262 
  "/>
<polygon clip-path="url(#clip02)" points="
441.91,335.433 441.91,376.378 458.731,376.378 458.731,335.433 441.91,335.433 441.91,335.433 
  " fill="#009af9" fill-opacity="1"/>
<polyline clip-path="url(#clip02)" style="stroke:#000000; stroke-width:1; stroke-opacity:1; fill:none" points="
  441.91,335.433 441.91,376.378 458.731,376.378 458.731,335.433 441.91,335.433 
  "/>
<polygon clip-path="url(#clip02)" points="
458.731,355.906 458.731,376.378 475.553,376.378 475.553,355.906 458.731,355.906 458.731,355.906 
  " fill="#009af9" fill-opacity="1"/>
<polyline clip-path="url(#clip02)" style="stroke:#000000; stroke-width:1; stroke-opacity:1; fill:none" points="
  458.731,355.906 458.731,376.378 475.553,376.378 475.553,355.906 458.731,355.906 
  "/>
<polygon clip-path="url(#clip02)" points="
475.553,352.981 475.553,376.378 492.374,376.378 492.374,352.981 475.553,352.981 475.553,352.981 
  " fill="#009af9" fill-opacity="1"/>
<polyline clip-path="url(#clip02)" style="stroke:#000000; stroke-width:1; stroke-opacity:1; fill:none" points="
  475.553,352.981 475.553,376.378 492.374,376.378 492.374,352.981 475.553,352.981 
  "/>
<polygon clip-path="url(#clip02)" points="
492.374,370.529 492.374,376.378 509.196,376.378 509.196,370.529 492.374,370.529 492.374,370.529 
  " fill="#009af9" fill-opacity="1"/>
<polyline clip-path="url(#clip02)" style="stroke:#000000; stroke-width:1; stroke-opacity:1; fill:none" points="
  492.374,370.529 492.374,376.378 509.196,376.378 509.196,370.529 492.374,370.529 
  "/>
<polygon clip-path="url(#clip02)" points="
509.196,367.604 509.196,376.378 526.017,376.378 526.017,367.604 509.196,367.604 509.196,367.604 
  " fill="#009af9" fill-opacity="1"/>
<polyline clip-path="url(#clip02)" style="stroke:#000000; stroke-width:1; stroke-opacity:1; fill:none" points="
  509.196,367.604 509.196,376.378 526.017,376.378 526.017,367.604 509.196,367.604 
  "/>
<polygon clip-path="url(#clip02)" points="
526.017,374.916 526.017,376.378 542.839,376.378 542.839,374.916 526.017,374.916 526.017,374.916 
  " fill="#009af9" fill-opacity="1"/>
<polyline clip-path="url(#clip02)" style="stroke:#000000; stroke-width:1; stroke-opacity:1; fill:none" points="
  526.017,374.916 526.017,376.378 542.839,376.378 542.839,374.916 526.017,374.916 
  "/>
<polygon clip-path="url(#clip02)" points="
542.839,376.378 542.839,376.378 559.66,376.378 559.66,376.378 542.839,376.378 542.839,376.378 
  " fill="#009af9" fill-opacity="1"/>
<polyline clip-path="url(#clip02)" style="stroke:#000000; stroke-width:1; stroke-opacity:1; fill:none" points="
  542.839,376.378 542.839,376.378 559.66,376.378 542.839,376.378 
  "/>
<polygon clip-path="url(#clip02)" points="
559.66,373.453 559.66,376.378 576.482,376.378 576.482,373.453 559.66,373.453 559.66,373.453 
  " fill="#009af9" fill-opacity="1"/>
<polyline clip-path="url(#clip02)" style="stroke:#000000; stroke-width:1; stroke-opacity:1; fill:none" points="
  559.66,373.453 559.66,376.378 576.482,376.378 576.482,373.453 559.66,373.453 
  "/>
<polygon clip-path="url(#clip00)" points="
501.61,58.994 574.126,58.994 574.126,28.754 501.61,28.754 
  " fill="#ffffff" fill-opacity="1"/>
<polyline clip-path="url(#clip00)" style="stroke:#000000; stroke-width:1; stroke-opacity:1; fill:none" points="
  501.61,58.994 574.126,58.994 574.126,28.754 501.61,28.754 501.61,58.994 
  "/>
<polygon clip-path="url(#clip00)" points="
507.61,49.922 543.61,49.922 543.61,37.826 507.61,37.826 507.61,49.922 
  " fill="#009af9" fill-opacity="1"/>
<polyline clip-path="url(#clip00)" style="stroke:#000000; stroke-width:1; stroke-opacity:1; fill:none" points="
  507.61,49.922 543.61,49.922 543.61,37.826 507.61,37.826 507.61,49.922 
  "/>
<g clip-path="url(#clip00)">
<text style="fill:#000000; fill-opacity:1; font-family:Arial,Helvetica Neue,Helvetica,sans-serif; font-size:12; text-anchor:start;" transform="rotate(0, 549.61, 48.374)" x="549.61" y="48.374">y1</text>
</g>
</svg>
