<?xml version="1.0" encoding="utf-8"?>
<svg xmlns="http://www.w3.org/2000/svg" xmlns:xlink="http://www.w3.org/1999/xlink" width="600" height="400" viewBox="0 0 600 400">
<defs>
  <clipPath id="clip00">
    <rect x="0" y="0" width="600" height="400"/>
  </clipPath>
</defs>
<polygon clip-path="url(#clip00)" points="
0,400 600,400 600,0 0,0 
  " fill="#ffffff" fill-opacity="1"/>
<defs>
  <clipPath id="clip01">
    <rect x="120" y="0" width="421" height="400"/>
  </clipPath>
</defs>
<polygon clip-path="url(#clip00)" points="
39.3701,376.378 592.126,376.378 592.126,7.87402 39.3701,7.87402 
  " fill="#ffffff" fill-opacity="1"/>
<defs>
  <clipPath id="clip02">
    <rect x="39" y="7" width="554" height="370"/>
  </clipPath>
</defs>
<polyline clip-path="url(#clip02)" style="stroke:#000000; stroke-width:1; stroke-opacity:0.5; fill:none" stroke-dasharray="1, 2" points="
  129.51,370.85 129.51,13.4016 
  "/>
<polyline clip-path="url(#clip02)" style="stroke:#000000; stroke-width:1; stroke-opacity:0.5; fill:none" stroke-dasharray="1, 2" points="
  315.748,370.85 315.748,13.4016 
  "/>
<polyline clip-path="url(#clip02)" style="stroke:#000000; stroke-width:1; stroke-opacity:0.5; fill:none" stroke-dasharray="1, 2" points="
  501.987,370.85 501.987,13.4016 
  "/>
<polyline clip-path="url(#clip02)" style="stroke:#000000; stroke-width:1; stroke-opacity:0.5; fill:none" stroke-dasharray="1, 2" points="
  47.6614,376.378 583.835,376.378 
  "/>
<polyline clip-path="url(#clip02)" style="stroke:#000000; stroke-width:1; stroke-opacity:0.5; fill:none" stroke-dasharray="1, 2" points="
  47.6614,273.444 583.835,273.444 
  "/>
<polyline clip-path="url(#clip02)" style="stroke:#000000; stroke-width:1; stroke-opacity:0.5; fill:none" stroke-dasharray="1, 2" points="
  47.6614,170.51 583.835,170.51 
  "/>
<polyline clip-path="url(#clip02)" style="stroke:#000000; stroke-width:1; stroke-opacity:0.5; fill:none" stroke-dasharray="1, 2" points="
  47.6614,67.5758 583.835,67.5758 
  "/>
<polyline clip-path="url(#clip00)" style="stroke:#000000; stroke-width:1; stroke-opacity:1; fill:none" points="
  39.3701,376.378 592.126,376.378 
  "/>
<polyline clip-path="url(#clip00)" style="stroke:#000000; stroke-width:1; stroke-opacity:1; fill:none" points="
  129.51,376.378 129.51,370.85 
  "/>
<polyline clip-path="url(#clip00)" style="stroke:#000000; stroke-width:1; stroke-opacity:1; fill:none" points="
  315.748,376.378 315.748,370.85 
  "/>
<polyline clip-path="url(#clip00)" style="stroke:#000000; stroke-width:1; stroke-opacity:1; fill:none" points="
  501.987,376.378 501.987,370.85 
  "/>
<polyline clip-path="url(#clip00)" style="stroke:#000000; stroke-width:1; stroke-opacity:1; fill:none" points="
  39.3701,376.378 39.3701,7.87402 
  "/>
<polyline clip-path="url(#clip00)" style="stroke:#000000; stroke-width:1; stroke-opacity:1; fill:none" points="
  39.3701,376.378 47.6614,376.378 
  "/>
<polyline clip-path="url(#clip00)" style="stroke:#000000; stroke-width:1; stroke-opacity:1; fill:none" points="
  39.3701,273.444 47.6614,273.444 
  "/>
<polyline clip-path="url(#clip00)" style="stroke:#000000; stroke-width:1; stroke-opacity:1; fill:none" points="
  39.3701,170.51 47.6614,170.51 
  "/>
<polyline clip-path="url(#clip00)" style="stroke:#000000; stroke-width:1; stroke-opacity:1; fill:none" points="
  39.3701,67.5758 47.6614,67.5758 
  "/>
<g clip-path="url(#clip00)">
<text style="fill:#000000; fill-opacity:1; font-family:Arial,Helvetica Neue,Helvetica,sans-serif; font-size:12; text-anchor:middle;" transform="rotate(0, 129.51, 390.178)" x="129.51" y="390.178">-0.5</text>
</g>
<g clip-path="url(#clip00)">
<text style="fill:#000000; fill-opacity:1; font-family:Arial,Helvetica Neue,Helvetica,sans-serif; font-size:12; text-anchor:middle;" transform="rotate(0, 315.748, 390.178)" x="315.748" y="390.178">0.0</text>
</g>
<g clip-path="url(#clip00)">
<text style="fill:#000000; fill-opacity:1; font-family:Arial,Helvetica Neue,Helvetica,sans-serif; font-size:12; text-anchor:middle;" transform="rotate(0, 501.987, 390.178)" x="501.987" y="390.178">0.5</text>
</g>
<g clip-path="url(#clip00)">
<text style="fill:#000000; fill-opacity:1; font-family:Arial,Helvetica Neue,Helvetica,sans-serif; font-size:12; text-anchor:end;" transform="rotate(0, 33.3701, 380.878)" x="33.3701" y="380.878">0</text>
</g>
<g clip-path="url(#clip00)">
<text style="fill:#000000; fill-opacity:1; font-family:Arial,Helvetica Neue,Helvetica,sans-serif; font-size:12; text-anchor:end;" transform="rotate(0, 33.3701, 277.944)" x="33.3701" y="277.944">50</text>
</g>
<g clip-path="url(#clip00)">
<text style="fill:#000000; fill-opacity:1; font-family:Arial,Helvetica Neue,Helvetica,sans-serif; font-size:12; text-anchor:end;" transform="rotate(0, 33.3701, 175.01)" x="33.3701" y="175.01">100</text>
</g>
<g clip-path="url(#clip00)">
<text style="fill:#000000; fill-opacity:1; font-family:Arial,Helvetica Neue,Helvetica,sans-serif; font-size:12; text-anchor:end;" transform="rotate(0, 33.3701, 72.0758)" x="33.3701" y="72.0758">150</text>
</g>
<polygon clip-path="url(#clip02)" points="
55.0141,374.319 55.0141,376.378 73.638,376.378 73.638,374.319 55.0141,374.319 55.0141,374.319 
  " fill="#009af9" fill-opacity="1"/>
<polyline clip-path="url(#clip02)" style="stroke:#000000; stroke-width:1; stroke-opacity:1; fill:none" points="
  55.0141,374.319 55.0141,376.378 73.638,376.378 73.638,374.319 55.0141,374.319 
  "/>
<polygon clip-path="url(#clip02)" points="
73.638,372.261 73.638,376.378 92.2618,376.378 92.2618,372.261 73.638,372.261 73.638,372.261 
  " fill="#009af9" fill-opacity="1"/>
<polyline clip-path="url(#clip02)" style="stroke:#000000; stroke-width:1; stroke-opacity:1; fill:none" points="
  73.638,372.261 73.638,376.378 92.2618,376.378 92.2618,372.261 73.638,372.261 
  "/>
<polygon clip-path="url(#clip02)" points="
92.2618,372.261 92.2618,376.378 110.886,376.378 110.886,372.261 92.2618,372.261 92.2618,372.261 
  " fill="#009af9" fill-opacity="1"/>
<polyline clip-path="url(#clip02)" style="stroke:#000000; stroke-width:1; stroke-opacity:1; fill:none" points="
  92.2618,372.261 92.2618,376.378 110.886,376.378 110.886,372.261 92.2618,372.261 
  "/>
<polygon clip-path="url(#clip02)" points="
110.886,372.261 110.886,376.378 129.51,376.378 129.51,372.261 110.886,372.261 110.886,372.261 
  " fill="#009af9" fill-opacity="1"/>
<polyline clip-path="url(#clip02)" style="stroke:#000000; stroke-width:1; stroke-opacity:1; fill:none" points="
  110.886,372.261 110.886,376.378 129.51,376.378 129.51,372.261 110.886,372.261 
  "/>
<polygon clip-path="url(#clip02)" points="
129.51,370.202 129.51,376.378 148.133,376.378 148.133,370.202 129.51,370.202 129.51,370.202 
  " fill="#009af9" fill-opacity="1"/>
<polyline clip-path="url(#clip02)" style="stroke:#000000; stroke-width:1; stroke-opacity:1; fill:none" points="
  129.51,370.202 129.51,376.378 148.133,376.378 148.133,370.202 129.51,370.202 
  "/>
<polygon clip-path="url(#clip02)" points="
148.133,370.202 148.133,376.378 166.757,376.378 166.757,370.202 148.133,370.202 148.133,370.202 
  " fill="#009af9" fill-opacity="1"/>
<polyline clip-path="url(#clip02)" style="stroke:#000000; stroke-width:1; stroke-opacity:1; fill:none" points="
  148.133,370.202 148.133,376.378 166.757,376.378 166.757,370.202 148.133,370.202 
  "/>
<polygon clip-path="url(#clip02)" points="
166.757,361.967 166.757,376.378 185.381,376.378 185.381,361.967 166.757,361.967 166.757,361.967 
  " fill="#009af9" fill-opacity="1"/>
<polyline clip-path="url(#clip02)" style="stroke:#000000; stroke-width:1; stroke-opacity:1; fill:none" points="
  166.757,361.967 166.757,376.378 185.381,376.378 185.381,361.967 166.757,361.967 
  "/>
<polygon clip-path="url(#clip02)" points="
185.381,355.791 185.381,376.378 204.005,376.378 204.005,355.791 185.381,355.791 185.381,355.791 
  " fill="#009af9" fill-opacity="1"/>
<polyline clip-path="url(#clip02)" style="stroke:#000000; stroke-width:1; stroke-opacity:1; fill:none" points="
  185.381,355.791 185.381,376.378 204.005,376.378 204.005,355.791 185.381,355.791 
  "/>
<polygon clip-path="url(#clip02)" points="
204.005,322.852 204.005,376.378 222.629,376.378 222.629,322.852 204.005,322.852 204.005,322.852 
  " fill="#009af9" fill-opacity="1"/>
<polyline clip-path="url(#clip02)" style="stroke:#000000; stroke-width:1; stroke-opacity:1; fill:none" points="
  204.005,322.852 204.005,376.378 222.629,376.378 222.629,322.852 204.005,322.852 
  "/>
<polygon clip-path="url(#clip02)" points="
222.629,302.265 222.629,376.378 241.253,376.378 241.253,302.265 222.629,302.265 222.629,302.265 
  " fill="#009af9" fill-opacity="1"/>
<polyline clip-path="url(#clip02)" style="stroke:#000000; stroke-width:1; stroke-opacity:1; fill:none" points="
  222.629,302.265 222.629,376.378 241.253,376.378 241.253,302.265 222.629,302.265 
  "/>
<polygon clip-path="url(#clip02)" points="
241.253,250.798 241.253,376.378 259.876,376.378 259.876,250.798 241.253,250.798 241.253,250.798 
  " fill="#009af9" fill-opacity="1"/>
<polyline clip-path="url(#clip02)" style="stroke:#000000; stroke-width:1; stroke-opacity:1; fill:none" points="
  241.253,250.798 241.253,376.378 259.876,376.378 259.876,250.798 241.253,250.798 
  "/>
<polygon clip-path="url(#clip02)" points="
259.876,191.097 259.876,376.378 278.5,376.378 278.5,191.097 259.876,191.097 259.876,191.097 
  " fill="#009af9" fill-opacity="1"/>
<polyline clip-path="url(#clip02)" style="stroke:#000000; stroke-width:1; stroke-opacity:1; fill:none" points="
  259.876,191.097 259.876,376.378 278.5,376.378 278.5,191.097 259.876,191.097 
  "/>
<polygon clip-path="url(#clip02)" points="
278.5,88.1626 278.5,376.378 297.124,376.378 297.124,88.1626 278.5,88.1626 278.5,88.1626 
  " fill="#009af9" fill-opacity="1"/>
<polyline clip-path="url(#clip02)" style="stroke:#000000; stroke-width:1; stroke-opacity:1; fill:none" points="
  278.5,88.1626 278.5,376.378 297.124,376.378 297.124,88.1626 278.5,88.1626 
  "/>
<polygon clip-path="url(#clip02)" points="
297.124,7.87402 297.124,376.378 315.748,376.378 315.748,7.87402 297.124,7.87402 297.124,7.87402 
  " fill="#009af9" fill-opacity="1"/>
<polyline clip-path="url(#clip02)" style="stroke:#000000; stroke-width:1; stroke-opacity:1; fill:none" points="
  297.124,7.87402 297.124,376.378 315.748,376.378 315.748,7.87402 297.124,7.87402 
  "/>
<polygon clip-path="url(#clip02)" points="
315.748,46.989 315.748,376.378 334.372,376.378 334.372,46.989 315.748,46.989 315.748,46.989 
  " fill="#009af9" fill-opacity="1"/>
<polyline clip-path="url(#clip02)" style="stroke:#000000; stroke-width:1; stroke-opacity:1; fill:none" points="
  315.748,46.989 315.748,376.378 334.372,376.378 334.372,46.989 315.748,46.989 
  "/>
<polygon clip-path="url(#clip02)" points="
334.372,147.864 334.372,376.378 352.996,376.378 352.996,147.864 334.372,147.864 334.372,147.864 
  " fill="#009af9" fill-opacity="1"/>
<polyline clip-path="url(#clip02)" style="stroke:#000000; stroke-width:1; stroke-opacity:1; fill:none" points="
  334.372,147.864 334.372,376.378 352.996,376.378 352.996,147.864 334.372,147.864 
  "/>
<polygon clip-path="url(#clip02)" points="
352.996,215.801 352.996,376.378 371.62,376.378 371.62,215.801 352.996,215.801 352.996,215.801 
  " fill="#009af9" fill-opacity="1"/>
<polyline clip-path="url(#clip02)" style="stroke:#000000; stroke-width:1; stroke-opacity:1; fill:none" points="
  352.996,215.801 352.996,376.378 371.62,376.378 371.62,215.801 352.996,215.801 
  "/>
<polygon clip-path="url(#clip02)" points="
371.62,300.207 371.62,376.378 390.243,376.378 390.243,300.207 371.62,300.207 371.62,300.207 
  " fill="#009af9" fill-opacity="1"/>
<polyline clip-path="url(#clip02)" style="stroke:#000000; stroke-width:1; stroke-opacity:1; fill:none" points="
  371.62,300.207 371.62,376.378 390.243,376.378 390.243,300.207 371.62,300.207 
  "/>
<polygon clip-path="url(#clip02)" points="
390.243,337.263 390.243,376.378 408.867,376.378 408.867,337.263 390.243,337.263 390.243,337.263 
  " fill="#009af9" fill-opacity="1"/>
<polyline clip-path="url(#clip02)" style="stroke:#000000; stroke-width:1; stroke-opacity:1; fill:none" points="
  390.243,337.263 390.243,376.378 408.867,376.378 408.867,337.263 390.243,337.263 
  "/>
<polygon clip-path="url(#clip02)" points="
408.867,347.556 408.867,376.378 427.491,376.378 427.491,347.556 408.867,347.556 408.867,347.556 
  " fill="#009af9" fill-opacity="1"/>
<polyline clip-path="url(#clip02)" style="stroke:#000000; stroke-width:1; stroke-opacity:1; fill:none" points="
  408.867,347.556 408.867,376.378 427.491,376.378 427.491,347.556 408.867,347.556 
  "/>
<polygon clip-path="url(#clip02)" points="
427.491,357.85 427.491,376.378 446.115,376.378 446.115,357.85 427.491,357.85 427.491,357.85 
  " fill="#009af9" fill-opacity="1"/>
<polyline clip-path="url(#clip02)" style="stroke:#000000; stroke-width:1; stroke-opacity:1; fill:none" points="
  427.491,357.85 427.491,376.378 446.115,376.378 446.115,357.85 427.491,357.85 
  "/>
<polygon clip-path="url(#clip02)" points="
446.115,372.261 446.115,376.378 464.739,376.378 464.739,372.261 446.115,372.261 446.115,372.261 
  " fill="#009af9" fill-opacity="1"/>
<polyline clip-path="url(#clip02)" style="stroke:#000000; stroke-width:1; stroke-opacity:1; fill:none" points="
  446.115,372.261 446.115,376.378 464.739,376.378 464.739,372.261 446.115,372.261 
  "/>
<polygon clip-path="url(#clip02)" points="
464.739,372.261 464.739,376.378 483.363,376.378 483.363,372.261 464.739,372.261 464.739,372.261 
  " fill="#009af9" fill-opacity="1"/>
<polyline clip-path="url(#clip02)" style="stroke:#000000; stroke-width:1; stroke-opacity:1; fill:none" points="
  464.739,372.261 464.739,376.378 483.363,376.378 483.363,372.261 464.739,372.261 
  "/>
<polygon clip-path="url(#clip02)" points="
483.363,372.261 483.363,376.378 501.987,376.378 501.987,372.261 483.363,372.261 483.363,372.261 
  " fill="#009af9" fill-opacity="1"/>
<polyline clip-path="url(#clip02)" style="stroke:#000000; stroke-width:1; stroke-opacity:1; fill:none" points="
  483.363,372.261 483.363,376.378 501.987,376.378 501.987,372.261 483.363,372.261 
  "/>
<polygon clip-path="url(#clip02)" points="
501.987,374.319 501.987,376.378 520.61,376.378 520.61,374.319 501.987,374.319 501.987,374.319 
  " fill="#009af9" fill-opacity="1"/>
<polyline clip-path="url(#clip02)" style="stroke:#000000; stroke-width:1; stroke-opacity:1; fill:none" points="
  501.987,374.319 501.987,376.378 520.61,376.378 520.61,374.319 501.987,374.319 
  "/>
<polygon clip-path="url(#clip02)" points="
520.61,372.261 520.61,376.378 539.234,376.378 539.234,372.261 520.61,372.261 520.61,372.261 
  " fill="#009af9" fill-opacity="1"/>
<polyline clip-path="url(#clip02)" style="stroke:#000000; stroke-width:1; stroke-opacity:1; fill:none" points="
  520.61,372.261 520.61,376.378 539.234,376.378 539.234,372.261 520.61,372.261 
  "/>
<polygon clip-path="url(#clip02)" points="
539.234,376.378 539.234,376.378 557.858,376.378 557.858,376.378 539.234,376.378 539.234,376.378 
  " fill="#009af9" fill-opacity="1"/>
<polyline clip-path="url(#clip02)" style="stroke:#000000; stroke-width:1; stroke-opacity:1; fill:none" points="
  539.234,376.378 539.234,376.378 557.858,376.378 539.234,376.378 
  "/>
<polygon clip-path="url(#clip02)" points="
557.858,374.319 557.858,376.378 576.482,376.378 576.482,374.319 557.858,374.319 557.858,374.319 
  " fill="#009af9" fill-opacity="1"/>
<polyline clip-path="url(#clip02)" style="stroke:#000000; stroke-width:1; stroke-opacity:1; fill:none" points="
  557.858,374.319 557.858,376.378 576.482,376.378 576.482,374.319 557.858,374.319 
  "/>
<polygon clip-path="url(#clip00)" points="
501.61,58.994 574.126,58.994 574.126,28.754 501.61,28.754 
  " fill="#ffffff" fill-opacity="1"/>
<polyline clip-path="url(#clip00)" style="stroke:#000000; stroke-width:1; stroke-opacity:1; fill:none" points="
  501.61,58.994 574.126,58.994 574.126,28.754 501.61,28.754 501.61,58.994 
  "/>
<polygon clip-path="url(#clip00)" points="
507.61,49.922 543.61,49.922 543.61,37.826 507.61,37.826 507.61,49.922 
  " fill="#009af9" fill-opacity="1"/>
<polyline clip-path="url(#clip00)" style="stroke:#000000; stroke-width:1; stroke-opacity:1; fill:none" points="
  507.61,49.922 543.61,49.922 543.61,37.826 507.61,37.826 507.61,49.922 
  "/>
<g clip-path="url(#clip00)">
<text style="fill:#000000; fill-opacity:1; font-family:Arial,Helvetica Neue,Helvetica,sans-serif; font-size:12; text-anchor:start;" transform="rotate(0, 549.61, 48.374)" x="549.61" y="48.374">y1</text>
</g>
</svg>
