<?xml version="1.0" encoding="utf-8" standalone="no"?>
<!DOCTYPE svg PUBLIC "-//W3C//DTD SVG 1.1//EN"
  "http://www.w3.org/Graphics/SVG/1.1/DTD/svg11.dtd">
<!-- Created with matplotlib (http://matplotlib.org/) -->
<svg height="288pt" version="1.1" viewBox="0 0 432 288" width="432pt" xmlns="http://www.w3.org/2000/svg" xmlns:xlink="http://www.w3.org/1999/xlink">
 <defs>
  <style type="text/css">
*{stroke-linecap:butt;stroke-linejoin:round;}
  </style>
 </defs>
 <g id="figure_1">
  <g id="patch_1">
   <path d="M 0 288 
L 432 288 
L 432 0 
L 0 0 
z
" style="fill:#ffffff;"/>
  </g>
  <g id="axes_1">
   <g id="patch_2">
    <path d="M 22.894646 275.905354 
L 429.165354 275.905354 
L 429.165354 2.834646 
L 22.894646 2.834646 
z
" style="fill:#ffffff;"/>
   </g>
   <g id="matplotlib.axis_1">
    <g id="xtick_1">
     <g id="line2d_1">
      <path clip-path="url(#p020967cccf)" d="M 48.41625 275.905354 
L 48.41625 2.834646 
" style="fill:none;opacity:0.1;stroke:#000000;stroke-linecap:square;stroke-width:0.5;"/>
     </g>
     <g id="line2d_2">
      <defs>
       <path d="M 0 0 
L 0 -3.5 
" id="m63bf720bf3" style="stroke:#000000;stroke-width:0.8;"/>
      </defs>
      <g>
       <use style="stroke:#000000;stroke-width:0.8;" x="48.41625" xlink:href="#m63bf720bf3" y="275.905354"/>
      </g>
     </g>
     <g id="text_1">
      <!-- -15 -->
      <defs>
       <path d="M 4.890625 31.390625 
L 31.203125 31.390625 
L 31.203125 23.390625 
L 4.890625 23.390625 
z
" id="DejaVuSans-2d"/>
       <path d="M 12.40625 8.296875 
L 28.515625 8.296875 
L 28.515625 63.921875 
L 10.984375 60.40625 
L 10.984375 69.390625 
L 28.421875 72.90625 
L 38.28125 72.90625 
L 38.28125 8.296875 
L 54.390625 8.296875 
L 54.390625 0 
L 12.40625 0 
z
" id="DejaVuSans-31"/>
       <path d="M 10.796875 72.90625 
L 49.515625 72.90625 
L 49.515625 64.59375 
L 19.828125 64.59375 
L 19.828125 46.734375 
Q 21.96875 47.46875 24.109375 47.828125 
Q 26.265625 48.1875 28.421875 48.1875 
Q 40.625 48.1875 47.75 41.5 
Q 54.890625 34.8125 54.890625 23.390625 
Q 54.890625 11.625 47.5625 5.09375 
Q 40.234375 -1.421875 26.90625 -1.421875 
Q 22.3125 -1.421875 17.546875 -0.640625 
Q 12.796875 0.140625 7.71875 1.703125 
L 7.71875 11.625 
Q 12.109375 9.234375 16.796875 8.0625 
Q 21.484375 6.890625 26.703125 6.890625 
Q 35.15625 6.890625 40.078125 11.328125 
Q 45.015625 15.765625 45.015625 23.390625 
Q 45.015625 31 40.078125 35.4375 
Q 35.15625 39.890625 26.703125 39.890625 
Q 22.75 39.890625 18.8125 39.015625 
Q 14.890625 38.140625 10.796875 36.28125 
z
" id="DejaVuSans-35"/>
      </defs>
      <g transform="translate(41.883125 285.484104)scale(0.08 -0.08)">
       <use xlink:href="#DejaVuSans-2d"/>
       <use x="36.083984" xlink:href="#DejaVuSans-31"/>
       <use x="99.707031" xlink:href="#DejaVuSans-35"/>
      </g>
     </g>
    </g>
    <g id="xtick_2">
     <g id="line2d_3">
      <path clip-path="url(#p020967cccf)" d="M 126.634381 275.905354 
L 126.634381 2.834646 
" style="fill:none;opacity:0.1;stroke:#000000;stroke-linecap:square;stroke-width:0.5;"/>
     </g>
     <g id="line2d_4">
      <g>
       <use style="stroke:#000000;stroke-width:0.8;" x="126.634381" xlink:href="#m63bf720bf3" y="275.905354"/>
      </g>
     </g>
     <g id="text_2">
      <!-- -10 -->
      <defs>
       <path d="M 31.78125 66.40625 
Q 24.171875 66.40625 20.328125 58.90625 
Q 16.5 51.421875 16.5 36.375 
Q 16.5 21.390625 20.328125 13.890625 
Q 24.171875 6.390625 31.78125 6.390625 
Q 39.453125 6.390625 43.28125 13.890625 
Q 47.125 21.390625 47.125 36.375 
Q 47.125 51.421875 43.28125 58.90625 
Q 39.453125 66.40625 31.78125 66.40625 
z
M 31.78125 74.21875 
Q 44.046875 74.21875 50.515625 64.515625 
Q 56.984375 54.828125 56.984375 36.375 
Q 56.984375 17.96875 50.515625 8.265625 
Q 44.046875 -1.421875 31.78125 -1.421875 
Q 19.53125 -1.421875 13.0625 8.265625 
Q 6.59375 17.96875 6.59375 36.375 
Q 6.59375 54.828125 13.0625 64.515625 
Q 19.53125 74.21875 31.78125 74.21875 
z
" id="DejaVuSans-30"/>
      </defs>
      <g transform="translate(120.101256 285.484104)scale(0.08 -0.08)">
       <use xlink:href="#DejaVuSans-2d"/>
       <use x="36.083984" xlink:href="#DejaVuSans-31"/>
       <use x="99.707031" xlink:href="#DejaVuSans-30"/>
      </g>
     </g>
    </g>
    <g id="xtick_3">
     <g id="line2d_5">
      <path clip-path="url(#p020967cccf)" d="M 204.852512 275.905354 
L 204.852512 2.834646 
" style="fill:none;opacity:0.1;stroke:#000000;stroke-linecap:square;stroke-width:0.5;"/>
     </g>
     <g id="line2d_6">
      <g>
       <use style="stroke:#000000;stroke-width:0.8;" x="204.852512" xlink:href="#m63bf720bf3" y="275.905354"/>
      </g>
     </g>
     <g id="text_3">
      <!-- -5 -->
      <g transform="translate(200.864387 285.484104)scale(0.08 -0.08)">
       <use xlink:href="#DejaVuSans-2d"/>
       <use x="36.083984" xlink:href="#DejaVuSans-35"/>
      </g>
     </g>
    </g>
    <g id="xtick_4">
     <g id="line2d_7">
      <path clip-path="url(#p020967cccf)" d="M 283.070644 275.905354 
L 283.070644 2.834646 
" style="fill:none;opacity:0.1;stroke:#000000;stroke-linecap:square;stroke-width:0.5;"/>
     </g>
     <g id="line2d_8">
      <g>
       <use style="stroke:#000000;stroke-width:0.8;" x="283.070644" xlink:href="#m63bf720bf3" y="275.905354"/>
      </g>
     </g>
     <g id="text_4">
      <!-- 0 -->
      <g transform="translate(280.525644 285.484104)scale(0.08 -0.08)">
       <use xlink:href="#DejaVuSans-30"/>
      </g>
     </g>
    </g>
    <g id="xtick_5">
     <g id="line2d_9">
      <path clip-path="url(#p020967cccf)" d="M 361.288775 275.905354 
L 361.288775 2.834646 
" style="fill:none;opacity:0.1;stroke:#000000;stroke-linecap:square;stroke-width:0.5;"/>
     </g>
     <g id="line2d_10">
      <g>
       <use style="stroke:#000000;stroke-width:0.8;" x="361.288775" xlink:href="#m63bf720bf3" y="275.905354"/>
      </g>
     </g>
     <g id="text_5">
      <!-- 5 -->
      <g transform="translate(358.743775 285.484104)scale(0.08 -0.08)">
       <use xlink:href="#DejaVuSans-35"/>
      </g>
     </g>
    </g>
   </g>
   <g id="matplotlib.axis_2">
    <g id="ytick_1">
     <g id="line2d_11">
      <path clip-path="url(#p020967cccf)" d="M 22.894646 275.905354 
L 429.165354 275.905354 
" style="fill:none;opacity:0.1;stroke:#000000;stroke-linecap:square;stroke-width:0.5;"/>
     </g>
     <g id="line2d_12">
      <defs>
       <path d="M 0 0 
L 3.5 0 
" id="mf6ff410425" style="stroke:#000000;stroke-width:0.8;"/>
      </defs>
      <g>
       <use style="stroke:#000000;stroke-width:0.8;" x="22.894646" xlink:href="#mf6ff410425" y="275.905354"/>
      </g>
     </g>
     <g id="text_6">
      <!-- 0.00 -->
      <defs>
       <path d="M 10.6875 12.40625 
L 21 12.40625 
L 21 0 
L 10.6875 0 
z
" id="DejaVuSans-2e"/>
      </defs>
      <g transform="translate(1.582146 278.944729)scale(0.08 -0.08)">
       <use xlink:href="#DejaVuSans-30"/>
       <use x="63.623047" xlink:href="#DejaVuSans-2e"/>
       <use x="95.410156" xlink:href="#DejaVuSans-30"/>
       <use x="159.033203" xlink:href="#DejaVuSans-30"/>
      </g>
     </g>
    </g>
    <g id="ytick_2">
     <g id="line2d_13">
      <path clip-path="url(#p020967cccf)" d="M 22.894646 212.780733 
L 429.165354 212.780733 
" style="fill:none;opacity:0.1;stroke:#000000;stroke-linecap:square;stroke-width:0.5;"/>
     </g>
     <g id="line2d_14">
      <g>
       <use style="stroke:#000000;stroke-width:0.8;" x="22.894646" xlink:href="#mf6ff410425" y="212.780733"/>
      </g>
     </g>
     <g id="text_7">
      <!-- 0.05 -->
      <g transform="translate(1.582146 215.820108)scale(0.08 -0.08)">
       <use xlink:href="#DejaVuSans-30"/>
       <use x="63.623047" xlink:href="#DejaVuSans-2e"/>
       <use x="95.410156" xlink:href="#DejaVuSans-30"/>
       <use x="159.033203" xlink:href="#DejaVuSans-35"/>
      </g>
     </g>
    </g>
    <g id="ytick_3">
     <g id="line2d_15">
      <path clip-path="url(#p020967cccf)" d="M 22.894646 149.656112 
L 429.165354 149.656112 
" style="fill:none;opacity:0.1;stroke:#000000;stroke-linecap:square;stroke-width:0.5;"/>
     </g>
     <g id="line2d_16">
      <g>
       <use style="stroke:#000000;stroke-width:0.8;" x="22.894646" xlink:href="#mf6ff410425" y="149.656112"/>
      </g>
     </g>
     <g id="text_8">
      <!-- 0.10 -->
      <g transform="translate(1.582146 152.695487)scale(0.08 -0.08)">
       <use xlink:href="#DejaVuSans-30"/>
       <use x="63.623047" xlink:href="#DejaVuSans-2e"/>
       <use x="95.410156" xlink:href="#DejaVuSans-31"/>
       <use x="159.033203" xlink:href="#DejaVuSans-30"/>
      </g>
     </g>
    </g>
    <g id="ytick_4">
     <g id="line2d_17">
      <path clip-path="url(#p020967cccf)" d="M 22.894646 86.531491 
L 429.165354 86.531491 
" style="fill:none;opacity:0.1;stroke:#000000;stroke-linecap:square;stroke-width:0.5;"/>
     </g>
     <g id="line2d_18">
      <g>
       <use style="stroke:#000000;stroke-width:0.8;" x="22.894646" xlink:href="#mf6ff410425" y="86.531491"/>
      </g>
     </g>
     <g id="text_9">
      <!-- 0.15 -->
      <g transform="translate(1.582146 89.570866)scale(0.08 -0.08)">
       <use xlink:href="#DejaVuSans-30"/>
       <use x="63.623047" xlink:href="#DejaVuSans-2e"/>
       <use x="95.410156" xlink:href="#DejaVuSans-31"/>
       <use x="159.033203" xlink:href="#DejaVuSans-35"/>
      </g>
     </g>
    </g>
    <g id="ytick_5">
     <g id="line2d_19">
      <path clip-path="url(#p020967cccf)" d="M 22.894646 23.40687 
L 429.165354 23.40687 
" style="fill:none;opacity:0.1;stroke:#000000;stroke-linecap:square;stroke-width:0.5;"/>
     </g>
     <g id="line2d_20">
      <g>
       <use style="stroke:#000000;stroke-width:0.8;" x="22.894646" xlink:href="#mf6ff410425" y="23.40687"/>
      </g>
     </g>
     <g id="text_10">
      <!-- 0.20 -->
      <defs>
       <path d="M 19.1875 8.296875 
L 53.609375 8.296875 
L 53.609375 0 
L 7.328125 0 
L 7.328125 8.296875 
Q 12.9375 14.109375 22.625 23.890625 
Q 32.328125 33.6875 34.8125 36.53125 
Q 39.546875 41.84375 41.421875 45.53125 
Q 43.3125 49.21875 43.3125 52.78125 
Q 43.3125 58.59375 39.234375 62.25 
Q 35.15625 65.921875 28.609375 65.921875 
Q 23.96875 65.921875 18.8125 64.3125 
Q 13.671875 62.703125 7.8125 59.421875 
L 7.8125 69.390625 
Q 13.765625 71.78125 18.9375 73 
Q 24.125 74.21875 28.421875 74.21875 
Q 39.75 74.21875 46.484375 68.546875 
Q 53.21875 62.890625 53.21875 53.421875 
Q 53.21875 48.921875 51.53125 44.890625 
Q 49.859375 40.875 45.40625 35.40625 
Q 44.1875 33.984375 37.640625 27.21875 
Q 31.109375 20.453125 19.1875 8.296875 
z
" id="DejaVuSans-32"/>
      </defs>
      <g transform="translate(1.582146 26.446245)scale(0.08 -0.08)">
       <use xlink:href="#DejaVuSans-30"/>
       <use x="63.623047" xlink:href="#DejaVuSans-2e"/>
       <use x="95.410156" xlink:href="#DejaVuSans-32"/>
       <use x="159.033203" xlink:href="#DejaVuSans-30"/>
      </g>
     </g>
    </g>
   </g>
   <g id="PolyCollection_1">
    <path clip-path="url(#p020967cccf)" d="M 22.894646 275.247219 
L 22.894646 275.905354 
L 24.990432 275.905354 
L 27.086219 275.905354 
L 29.182006 275.905354 
L 31.277793 275.905354 
L 33.37358 275.905354 
L 35.469366 275.905354 
L 37.565153 275.905354 
L 39.66094 275.905354 
L 41.756727 275.905354 
L 43.852513 275.905354 
L 45.9483 275.905354 
L 48.044087 275.905354 
L 50.139874 275.905354 
L 52.235661 275.905354 
L 54.331447 275.905354 
L 56.427234 275.905354 
L 58.523021 275.905354 
L 60.618808 275.905354 
L 62.714595 275.905354 
L 64.810381 275.905354 
L 66.906168 275.905354 
L 69.001955 275.905354 
L 71.097742 275.905354 
L 73.193528 275.905354 
L 75.289315 275.905354 
L 77.385102 275.905354 
L 79.480889 275.905354 
L 81.576676 275.905354 
L 83.672462 275.905354 
L 85.768249 275.905354 
L 87.864036 275.905354 
L 89.959823 275.905354 
L 92.055609 275.905354 
L 94.151396 275.905354 
L 96.247183 275.905354 
L 98.34297 275.905354 
L 100.438757 275.905354 
L 102.534543 275.905354 
L 104.63033 275.905354 
L 106.726117 275.905354 
L 108.821904 275.905354 
L 110.917691 275.905354 
L 113.013477 275.905354 
L 115.109264 275.905354 
L 117.205051 275.905354 
L 119.300838 275.905354 
L 121.396624 275.905354 
L 123.492411 275.905354 
L 125.588198 275.905354 
L 127.683985 275.905354 
L 129.779772 275.905354 
L 131.875558 275.905354 
L 133.971345 275.905354 
L 136.067132 275.905354 
L 138.162919 275.905354 
L 140.258705 275.905354 
L 142.354492 275.905354 
L 144.450279 275.905354 
L 146.546066 275.905354 
L 148.641853 275.905354 
L 150.737639 275.905354 
L 152.833426 275.905354 
L 154.929213 275.905354 
L 157.025 275.905354 
L 159.120786 275.905354 
L 161.216573 275.905354 
L 163.31236 275.905354 
L 165.408147 275.905354 
L 167.503934 275.905354 
L 169.59972 275.905354 
L 171.695507 275.905354 
L 173.791294 275.905354 
L 175.887081 275.905354 
L 177.982868 275.905354 
L 180.078654 275.905354 
L 182.174441 275.905354 
L 184.270228 275.905354 
L 186.366015 275.905354 
L 188.461801 275.905354 
L 190.557588 275.905354 
L 192.653375 275.905354 
L 194.749162 275.905354 
L 196.844949 275.905354 
L 198.940735 275.905354 
L 201.036522 275.905354 
L 203.132309 275.905354 
L 205.228096 275.905354 
L 207.323882 275.905354 
L 209.419669 275.905354 
L 211.515456 275.905354 
L 213.611243 275.905354 
L 215.70703 275.905354 
L 217.802816 275.905354 
L 219.898603 275.905354 
L 221.99439 275.905354 
L 224.090177 275.905354 
L 226.185964 275.905354 
L 228.28175 275.905354 
L 230.377537 275.905354 
L 230.377537 225.484787 
L 230.377537 225.484787 
L 228.28175 228.625469 
L 226.185964 231.58894 
L 224.090177 234.656606 
L 221.99439 237.973148 
L 219.898603 241.537936 
L 217.802816 245.259802 
L 215.70703 249.026227 
L 213.611243 252.732262 
L 211.515456 256.268064 
L 209.419669 259.51141 
L 207.323882 262.356629 
L 205.228096 264.759044 
L 203.132309 266.747987 
L 201.036522 268.390449 
L 198.940735 269.737717 
L 196.844949 270.803867 
L 194.749162 271.589342 
L 192.653375 272.11398 
L 190.557588 272.417323 
L 188.461801 272.527102 
L 186.366015 272.43906 
L 184.270228 272.143139 
L 182.174441 271.680855 
L 180.078654 271.180017 
L 177.982868 270.825868 
L 175.887081 270.780147 
L 173.791294 271.10397 
L 171.695507 271.737004 
L 169.59972 272.540468 
L 167.503934 273.366288 
L 165.408147 274.106554 
L 163.31236 274.704907 
L 161.216573 275.142395 
L 159.120786 275.419925 
L 157.025 275.549475 
L 154.929213 275.554236 
L 152.833426 275.472335 
L 150.737639 275.357098 
L 148.641853 275.267432 
L 146.546066 275.248455 
L 144.450279 275.313175 
L 142.354492 275.43942 
L 140.258705 275.58561 
L 138.162919 275.713853 
L 136.067132 275.804571 
L 133.971345 275.856319 
L 131.875558 275.876031 
L 129.779772 275.868693 
L 127.683985 275.832256 
L 125.588198 275.759618 
L 123.492411 275.647037 
L 121.396624 275.505168 
L 119.300838 275.364699 
L 117.205051 275.268548 
L 115.109264 275.251464 
L 113.013477 275.320012 
L 110.917691 275.448555 
L 108.821904 275.594579 
L 106.726117 275.721032 
L 104.63033 275.810049 
L 102.534543 275.862394 
L 100.438757 275.888472 
L 98.34297 275.899571 
L 96.247183 275.903627 
L 94.151396 275.904905 
L 92.055609 275.905252 
L 89.959823 275.905334 
L 87.864036 275.905351 
L 85.768249 275.905354 
L 83.672462 275.905354 
L 81.576676 275.905354 
L 79.480889 275.905354 
L 77.385102 275.905354 
L 75.289315 275.905354 
L 73.193528 275.905354 
L 71.097742 275.905354 
L 69.001955 275.905354 
L 66.906168 275.905354 
L 64.810381 275.905354 
L 62.714595 275.905354 
L 60.618808 275.905354 
L 58.523021 275.905354 
L 56.427234 275.905354 
L 54.331447 275.905354 
L 52.235661 275.905353 
L 50.139874 275.905348 
L 48.044087 275.905321 
L 45.9483 275.905191 
L 43.852513 275.904665 
L 41.756727 275.902814 
L 39.66094 275.8972 
L 37.565153 275.882535 
L 35.469366 275.849679 
L 33.37358 275.786937 
L 31.277793 275.685781 
L 29.182006 275.550417 
L 27.086219 275.405169 
L 24.990432 275.290858 
L 22.894646 275.247219 
z
" style="fill:#ffa500;fill-opacity:0.5;"/>
   </g>
   <g id="line2d_21">
    <path clip-path="url(#p020967cccf)" d="M 22.894646 275.247219 
L 24.990432 275.290858 
L 27.086219 275.405169 
L 29.182006 275.550417 
L 31.277793 275.685781 
L 33.37358 275.786937 
L 35.469366 275.849679 
L 37.565153 275.882535 
L 39.66094 275.8972 
L 41.756727 275.902814 
L 43.852513 275.904665 
L 45.9483 275.905191 
L 48.044087 275.905321 
L 50.139874 275.905348 
L 52.235661 275.905353 
L 54.331447 275.905354 
L 56.427234 275.905354 
L 58.523021 275.905354 
L 60.618808 275.905354 
L 62.714595 275.905354 
L 64.810381 275.905354 
L 66.906168 275.905354 
L 69.001955 275.905354 
L 71.097742 275.905354 
L 73.193528 275.905354 
L 75.289315 275.905354 
L 77.385102 275.905354 
L 79.480889 275.905354 
L 81.576676 275.905354 
L 83.672462 275.905354 
L 85.768249 275.905354 
L 87.864036 275.905351 
L 89.959823 275.905334 
L 92.055609 275.905252 
L 94.151396 275.904905 
L 96.247183 275.903627 
L 98.34297 275.899571 
L 100.438757 275.888472 
L 102.534543 275.862394 
L 104.63033 275.810049 
L 106.726117 275.721032 
L 108.821904 275.594579 
L 110.917691 275.448555 
L 113.013477 275.320012 
L 115.109264 275.251464 
L 117.205051 275.268548 
L 119.300838 275.364699 
L 121.396624 275.505168 
L 123.492411 275.647037 
L 125.588198 275.759618 
L 127.683985 275.832256 
L 129.779772 275.868693 
L 131.875558 275.876031 
L 133.971345 275.856319 
L 136.067132 275.804571 
L 138.162919 275.713853 
L 140.258705 275.58561 
L 142.354492 275.43942 
L 144.450279 275.313175 
L 146.546066 275.248455 
L 148.641853 275.267432 
L 150.737639 275.357098 
L 152.833426 275.472335 
L 154.929213 275.554236 
L 157.025 275.549475 
L 159.120786 275.419925 
L 161.216573 275.142395 
L 163.31236 274.704907 
L 165.408147 274.106554 
L 167.503934 273.366288 
L 169.59972 272.540468 
L 171.695507 271.737004 
L 173.791294 271.10397 
L 175.887081 270.780147 
L 177.982868 270.825868 
L 180.078654 271.180017 
L 182.174441 271.680855 
L 184.270228 272.143139 
L 186.366015 272.43906 
L 188.461801 272.527102 
L 190.557588 272.417323 
L 192.653375 272.11398 
L 194.749162 271.589342 
L 196.844949 270.803867 
L 198.940735 269.737717 
L 201.036522 268.390449 
L 203.132309 266.747987 
L 205.228096 264.759044 
L 207.323882 262.356629 
L 209.419669 259.51141 
L 211.515456 256.268064 
L 213.611243 252.732262 
L 215.70703 249.026227 
L 217.802816 245.259802 
L 219.898603 241.537936 
L 221.99439 237.973148 
L 224.090177 234.656606 
L 226.185964 231.58894 
L 228.28175 228.625469 
L 230.377537 225.484787 
" style="fill:none;stroke:#ffa500;stroke-linecap:round;"/>
   </g>
   <g id="PolyCollection_2">
    <path clip-path="url(#p020967cccf)" d="M 230.377537 225.484787 
L 230.377537 275.905354 
L 231.432658 275.905354 
L 232.48778 275.905354 
L 233.542901 275.905354 
L 234.598022 275.905354 
L 235.653143 275.905354 
L 236.708265 275.905354 
L 237.763386 275.905354 
L 238.818507 275.905354 
L 239.873628 275.905354 
L 240.92875 275.905354 
L 241.983871 275.905354 
L 243.038992 275.905354 
L 244.094113 275.905354 
L 245.149234 275.905354 
L 246.204356 275.905354 
L 247.259477 275.905354 
L 248.314598 275.905354 
L 249.369719 275.905354 
L 250.424841 275.905354 
L 251.479962 275.905354 
L 252.535083 275.905354 
L 253.590204 275.905354 
L 254.645326 275.905354 
L 255.700447 275.905354 
L 256.755568 275.905354 
L 257.810689 275.905354 
L 258.865811 275.905354 
L 259.920932 275.905354 
L 260.976053 275.905354 
L 262.031174 275.905354 
L 263.086296 275.905354 
L 264.141417 275.905354 
L 265.196538 275.905354 
L 266.251659 275.905354 
L 267.306781 275.905354 
L 268.361902 275.905354 
L 269.417023 275.905354 
L 270.472144 275.905354 
L 271.527266 275.905354 
L 272.582387 275.905354 
L 273.637508 275.905354 
L 274.692629 275.905354 
L 275.747751 275.905354 
L 276.802872 275.905354 
L 277.857993 275.905354 
L 278.913114 275.905354 
L 279.968236 275.905354 
L 281.023357 275.905354 
L 282.078478 275.905354 
L 283.133599 275.905354 
L 284.18872 275.905354 
L 285.243842 275.905354 
L 286.298963 275.905354 
L 287.354084 275.905354 
L 288.409205 275.905354 
L 289.464327 275.905354 
L 290.519448 275.905354 
L 291.574569 275.905354 
L 292.62969 275.905354 
L 293.684812 275.905354 
L 294.739933 275.905354 
L 295.795054 275.905354 
L 296.850175 275.905354 
L 297.905297 275.905354 
L 298.960418 275.905354 
L 300.015539 275.905354 
L 301.07066 275.905354 
L 302.125782 275.905354 
L 303.180903 275.905354 
L 304.236024 275.905354 
L 305.291145 275.905354 
L 306.346267 275.905354 
L 307.401388 275.905354 
L 308.456509 275.905354 
L 309.51163 275.905354 
L 310.566752 275.905354 
L 311.621873 275.905354 
L 312.676994 275.905354 
L 313.732115 275.905354 
L 314.787237 275.905354 
L 315.842358 275.905354 
L 316.897479 275.905354 
L 317.9526 275.905354 
L 319.007721 275.905354 
L 320.062843 275.905354 
L 321.117964 275.905354 
L 322.173085 275.905354 
L 323.228206 275.905354 
L 324.283328 275.905354 
L 325.338449 275.905354 
L 326.39357 275.905354 
L 327.448691 275.905354 
L 328.503813 275.905354 
L 329.558934 275.905354 
L 330.614055 275.905354 
L 331.669176 275.905354 
L 332.724298 275.905354 
L 333.779419 275.905354 
L 334.83454 275.905354 
L 334.83454 217.756334 
L 334.83454 217.756334 
L 333.779419 215.605167 
L 332.724298 213.498107 
L 331.669176 211.356858 
L 330.614055 209.081888 
L 329.558934 206.56244 
L 328.503813 203.687558 
L 327.448691 200.356494 
L 326.39357 196.486699 
L 325.338449 192.018122 
L 324.283328 186.913161 
L 323.228206 181.152685 
L 322.173085 174.729415 
L 321.117964 167.640823 
L 320.062843 159.884094 
L 319.007721 151.455314 
L 317.9526 142.35402 
L 316.897479 132.592765 
L 315.842358 122.20979 
L 314.787237 111.281759 
L 313.732115 99.933233 
L 312.676994 88.339808 
L 311.621873 76.723164 
L 310.566752 65.337778 
L 309.51163 54.451085 
L 308.456509 44.319708 
L 307.401388 35.165414 
L 306.346267 27.154688 
L 305.291145 20.385102 
L 304.236024 14.880412 
L 303.180903 10.594646 
L 302.125782 7.424247 
L 301.07066 5.225739 
L 300.015539 3.835583 
L 298.960418 3.088914 
L 297.905297 2.834646 
L 296.850175 2.945282 
L 295.795054 3.321302 
L 294.739933 3.891059 
L 293.684812 4.608049 
L 292.62969 5.447169 
L 291.574569 6.401156 
L 290.519448 7.477569 
L 289.464327 8.695901 
L 288.409205 10.084008 
L 287.354084 11.673284 
L 286.298963 13.492646 
L 285.243842 15.562294 
L 284.18872 17.888686 
L 283.133599 20.462246 
L 282.078478 23.258737 
L 281.023357 26.244083 
L 279.968236 29.381289 
L 278.913114 32.637478 
L 277.857993 35.98897 
L 276.802872 39.423049 
L 275.747751 42.936319 
L 274.692629 46.530743 
L 273.637508 50.20924 
L 272.582387 53.97274 
L 271.527266 57.819958 
L 270.472144 61.749982 
L 269.417023 65.766613 
L 268.361902 69.882676 
L 267.306781 74.122386 
L 266.251659 78.520454 
L 265.196538 83.117687 
L 264.141417 87.953834 
L 263.086296 93.059348 
L 262.031174 98.447968 
L 260.976053 104.111749 
L 259.920932 110.019353 
L 258.865811 116.117664 
L 257.810689 122.336066 
L 256.755568 128.592387 
L 255.700447 134.799504 
L 254.645326 140.87211 
L 253.590204 146.733279 
L 252.535083 152.320663 
L 251.479962 157.591966 
L 250.424841 162.529074 
L 249.369719 167.139985 
L 248.314598 171.457549 
L 247.259477 175.534482 
L 246.204356 179.434996 
L 245.149234 183.224152 
L 244.094113 186.956846 
L 243.038992 190.668693 
L 241.983871 194.370723 
L 240.92875 198.048897 
L 239.873628 201.668321 
L 238.818507 205.180995 
L 237.763386 208.535194 
L 236.708265 211.684414 
L 235.653143 214.594287 
L 234.598022 217.246634 
L 233.542901 219.64056 
L 232.48778 221.791143 
L 231.432658 223.726611 
L 230.377537 225.484787 
z
" style="fill:#008000;fill-opacity:0.5;"/>
   </g>
   <g id="line2d_22">
    <path clip-path="url(#p020967cccf)" d="M 230.377537 225.484787 
L 231.432658 223.726611 
L 232.48778 221.791143 
L 233.542901 219.64056 
L 234.598022 217.246634 
L 235.653143 214.594287 
L 236.708265 211.684414 
L 237.763386 208.535194 
L 238.818507 205.180995 
L 239.873628 201.668321 
L 240.92875 198.048897 
L 241.983871 194.370723 
L 243.038992 190.668693 
L 244.094113 186.956846 
L 245.149234 183.224152 
L 246.204356 179.434996 
L 247.259477 175.534482 
L 248.314598 171.457549 
L 249.369719 167.139985 
L 250.424841 162.529074 
L 251.479962 157.591966 
L 252.535083 152.320663 
L 253.590204 146.733279 
L 254.645326 140.87211 
L 255.700447 134.799504 
L 256.755568 128.592387 
L 257.810689 122.336066 
L 258.865811 116.117664 
L 259.920932 110.019353 
L 260.976053 104.111749 
L 262.031174 98.447968 
L 263.086296 93.059348 
L 264.141417 87.953834 
L 265.196538 83.117687 
L 266.251659 78.520454 
L 267.306781 74.122386 
L 268.361902 69.882676 
L 269.417023 65.766613 
L 270.472144 61.749982 
L 271.527266 57.819958 
L 272.582387 53.97274 
L 273.637508 50.20924 
L 274.692629 46.530743 
L 275.747751 42.936319 
L 276.802872 39.423049 
L 277.857993 35.98897 
L 278.913114 32.637478 
L 279.968236 29.381289 
L 281.023357 26.244083 
L 282.078478 23.258737 
L 283.133599 20.462246 
L 284.18872 17.888686 
L 285.243842 15.562294 
L 286.298963 13.492646 
L 287.354084 11.673284 
L 288.409205 10.084008 
L 289.464327 8.695901 
L 290.519448 7.477569 
L 291.574569 6.401156 
L 292.62969 5.447169 
L 293.684812 4.608049 
L 294.739933 3.891059 
L 295.795054 3.321302 
L 296.850175 2.945282 
L 297.905297 2.834646 
L 298.960418 3.088914 
L 300.015539 3.835583 
L 301.07066 5.225739 
L 302.125782 7.424247 
L 303.180903 10.594646 
L 304.236024 14.880412 
L 305.291145 20.385102 
L 306.346267 27.154688 
L 307.401388 35.165414 
L 308.456509 44.319708 
L 309.51163 54.451085 
L 310.566752 65.337778 
L 311.621873 76.723164 
L 312.676994 88.339808 
L 313.732115 99.933233 
L 314.787237 111.281759 
L 315.842358 122.20979 
L 316.897479 132.592765 
L 317.9526 142.35402 
L 319.007721 151.455314 
L 320.062843 159.884094 
L 321.117964 167.640823 
L 322.173085 174.729415 
L 323.228206 181.152685 
L 324.283328 186.913161 
L 325.338449 192.018122 
L 326.39357 196.486699 
L 327.448691 200.356494 
L 328.503813 203.687558 
L 329.558934 206.56244 
L 330.614055 209.081888 
L 331.669176 211.356858 
L 332.724298 213.498107 
L 333.779419 215.605167 
L 334.83454 217.756334 
" style="fill:none;stroke:#008000;stroke-linecap:round;"/>
   </g>
   <g id="patch_3">
    <path d="M 22.894646 275.905354 
L 22.894646 2.834646 
" style="fill:none;stroke:#000000;stroke-linecap:square;stroke-linejoin:miter;stroke-width:0.8;"/>
   </g>
   <g id="patch_4">
    <path d="M 22.894646 275.905354 
L 429.165354 275.905354 
" style="fill:none;stroke:#000000;stroke-linecap:square;stroke-linejoin:miter;stroke-width:0.8;"/>
   </g>
   <g id="PolyCollection_3">
    <path clip-path="url(#p020967cccf)" d="M 334.83454 217.756334 
L 334.83454 275.905354 
L 335.787377 275.905354 
L 336.740213 275.905354 
L 337.69305 275.905354 
L 338.645886 275.905354 
L 339.598723 275.905354 
L 340.551559 275.905354 
L 341.504396 275.905354 
L 342.457232 275.905354 
L 343.410069 275.905354 
L 344.362905 275.905354 
L 345.315742 275.905354 
L 346.268578 275.905354 
L 347.221415 275.905354 
L 348.174251 275.905354 
L 349.127088 275.905354 
L 350.079924 275.905354 
L 351.032761 275.905354 
L 351.985597 275.905354 
L 352.938434 275.905354 
L 353.89127 275.905354 
L 354.844107 275.905354 
L 355.796943 275.905354 
L 356.74978 275.905354 
L 357.702616 275.905354 
L 358.655453 275.905354 
L 359.608289 275.905354 
L 360.561126 275.905354 
L 361.513962 275.905354 
L 362.466799 275.905354 
L 363.419635 275.905354 
L 364.372472 275.905354 
L 365.325308 275.905354 
L 366.278145 275.905354 
L 367.230981 275.905354 
L 368.183818 275.905354 
L 369.136654 275.905354 
L 370.089491 275.905354 
L 371.042327 275.905354 
L 371.995164 275.905354 
L 372.948 275.905354 
L 373.900837 275.905354 
L 374.853673 275.905354 
L 375.80651 275.905354 
L 376.759346 275.905354 
L 377.712183 275.905354 
L 378.665019 275.905354 
L 379.617856 275.905354 
L 380.570692 275.905354 
L 381.523529 275.905354 
L 382.476365 275.905354 
L 383.429202 275.905354 
L 384.382039 275.905354 
L 385.334875 275.905354 
L 386.287712 275.905354 
L 387.240548 275.905354 
L 388.193385 275.905354 
L 389.146221 275.905354 
L 390.099058 275.905354 
L 391.051894 275.905354 
L 392.004731 275.905354 
L 392.957567 275.905354 
L 393.910404 275.905354 
L 394.86324 275.905354 
L 395.816077 275.905354 
L 396.768913 275.905354 
L 397.72175 275.905354 
L 398.674586 275.905354 
L 399.627423 275.905354 
L 400.580259 275.905354 
L 401.533096 275.905354 
L 402.485932 275.905354 
L 403.438769 275.905354 
L 404.391605 275.905354 
L 405.344442 275.905354 
L 406.297278 275.905354 
L 407.250115 275.905354 
L 408.202951 275.905354 
L 409.155788 275.905354 
L 410.108624 275.905354 
L 411.061461 275.905354 
L 412.014297 275.905354 
L 412.967134 275.905354 
L 413.91997 275.905354 
L 414.872807 275.905354 
L 415.825643 275.905354 
L 416.77848 275.905354 
L 417.731316 275.905354 
L 418.684153 275.905354 
L 419.636989 275.905354 
L 420.589826 275.905354 
L 421.542662 275.905354 
L 422.495499 275.905354 
L 423.448335 275.905354 
L 424.401172 275.905354 
L 425.354008 275.905354 
L 426.306845 275.905354 
L 427.259681 275.905354 
L 428.212518 275.905354 
L 429.165354 275.905354 
L 429.165354 275.240653 
L 429.165354 275.240653 
L 428.212518 275.245014 
L 427.259681 275.264017 
L 426.306845 275.293858 
L 425.354008 275.329023 
L 424.401172 275.362666 
L 423.448335 275.387107 
L 422.495499 275.394395 
L 421.542662 275.376916 
L 420.589826 275.32802 
L 419.636989 275.242624 
L 418.684153 275.117793 
L 417.731316 274.953256 
L 416.77848 274.751773 
L 415.825643 274.519305 
L 414.872807 274.264878 
L 413.91997 274.000108 
L 412.967134 273.738402 
L 412.014297 273.493816 
L 411.061461 273.279801 
L 410.108624 273.107927 
L 409.155788 272.986771 
L 408.202951 272.921169 
L 407.250115 272.911898 
L 406.297278 272.955816 
L 405.344442 273.046446 
L 404.391605 273.174839 
L 403.438769 273.330626 
L 402.485932 273.503053 
L 401.533096 273.681856 
L 400.580259 273.857898 
L 399.627423 274.023503 
L 398.674586 274.172473 
L 397.72175 274.299894 
L 396.768913 274.401805 
L 395.816077 274.474877 
L 394.86324 274.516202 
L 393.910404 274.523284 
L 392.957567 274.49424 
L 392.004731 274.428161 
L 391.051894 274.325531 
L 390.099058 274.188563 
L 389.146221 274.021317 
L 388.193385 273.829516 
L 387.240548 273.620044 
L 386.287712 273.400201 
L 385.334875 273.176814 
L 384.382039 272.955423 
L 383.429202 272.739676 
L 382.476365 272.531063 
L 381.523529 272.329063 
L 380.570692 272.131642 
L 379.617856 271.936032 
L 378.665019 271.739589 
L 377.712183 271.540575 
L 376.759346 271.33867 
L 375.80651 271.135116 
L 374.853673 270.932426 
L 373.900837 270.733726 
L 372.948 270.541832 
L 371.995164 270.358287 
L 371.042327 270.182527 
L 370.089491 270.01138 
L 369.136654 269.838985 
L 368.183818 269.657117 
L 367.230981 269.455829 
L 366.278145 269.224181 
L 365.325308 268.950858 
L 364.372472 268.624537 
L 363.419635 268.233908 
L 362.466799 267.767412 
L 361.513962 267.212954 
L 360.561126 266.557759 
L 359.608289 265.788645 
L 358.655453 264.8929 
L 357.702616 263.859681 
L 356.74978 262.681785 
L 355.796943 261.357468 
L 354.844107 259.89184 
L 353.89127 258.297453 
L 352.938434 256.593728 
L 351.985597 254.805109 
L 351.032761 252.95813 
L 350.079924 251.077743 
L 349.127088 249.18355 
L 348.174251 247.286771 
L 347.221415 245.388555 
L 346.268578 243.480235 
L 345.315742 241.545632 
L 344.362905 239.565129 
L 343.410069 237.520838 
L 342.457232 235.401729 
L 341.504396 233.207674 
L 340.551559 230.951376 
L 339.598723 228.657602 
L 338.645886 226.359762 
L 337.69305 224.094198 
L 336.740213 221.89336 
L 335.787377 219.778975 
L 334.83454 217.756334 
z
" style="fill:#ffa500;fill-opacity:0.5;"/>
   </g>
   <g id="line2d_23">
    <path clip-path="url(#p020967cccf)" d="M 334.83454 217.756334 
L 335.787377 219.778975 
L 336.740213 221.89336 
L 337.69305 224.094198 
L 338.645886 226.359762 
L 339.598723 228.657602 
L 340.551559 230.951376 
L 341.504396 233.207674 
L 342.457232 235.401729 
L 343.410069 237.520838 
L 344.362905 239.565129 
L 345.315742 241.545632 
L 346.268578 243.480235 
L 347.221415 245.388555 
L 348.174251 247.286771 
L 349.127088 249.18355 
L 350.079924 251.077743 
L 351.032761 252.95813 
L 351.985597 254.805109 
L 352.938434 256.593728 
L 353.89127 258.297453 
L 354.844107 259.89184 
L 355.796943 261.357468 
L 356.74978 262.681785 
L 357.702616 263.859681 
L 358.655453 264.8929 
L 359.608289 265.788645 
L 360.561126 266.557759 
L 361.513962 267.212954 
L 362.466799 267.767412 
L 363.419635 268.233908 
L 364.372472 268.624537 
L 365.325308 268.950858 
L 366.278145 269.224181 
L 367.230981 269.455829 
L 368.183818 269.657117 
L 369.136654 269.838985 
L 370.089491 270.01138 
L 371.042327 270.182527 
L 371.995164 270.358287 
L 372.948 270.541832 
L 373.900837 270.733726 
L 374.853673 270.932426 
L 375.80651 271.135116 
L 376.759346 271.33867 
L 377.712183 271.540575 
L 378.665019 271.739589 
L 379.617856 271.936032 
L 380.570692 272.131642 
L 381.523529 272.329063 
L 382.476365 272.531063 
L 383.429202 272.739676 
L 384.382039 272.955423 
L 385.334875 273.176814 
L 386.287712 273.400201 
L 387.240548 273.620044 
L 388.193385 273.829516 
L 389.146221 274.021317 
L 390.099058 274.188563 
L 391.051894 274.325531 
L 392.004731 274.428161 
L 392.957567 274.49424 
L 393.910404 274.523284 
L 394.86324 274.516202 
L 395.816077 274.474877 
L 396.768913 274.401805 
L 397.72175 274.299894 
L 398.674586 274.172473 
L 399.627423 274.023503 
L 400.580259 273.857898 
L 401.533096 273.681856 
L 402.485932 273.503053 
L 403.438769 273.330626 
L 404.391605 273.174839 
L 405.344442 273.046446 
L 406.297278 272.955816 
L 407.250115 272.911898 
L 408.202951 272.921169 
L 409.155788 272.986771 
L 410.108624 273.107927 
L 411.061461 273.279801 
L 412.014297 273.493816 
L 412.967134 273.738402 
L 413.91997 274.000108 
L 414.872807 274.264878 
L 415.825643 274.519305 
L 416.77848 274.751773 
L 417.731316 274.953256 
L 418.684153 275.117793 
L 419.636989 275.242624 
L 420.589826 275.32802 
L 421.542662 275.376916 
L 422.495499 275.394395 
L 423.448335 275.387107 
L 424.401172 275.362666 
L 425.354008 275.329023 
L 426.306845 275.293858 
L 427.259681 275.264017 
L 428.212518 275.245014 
L 429.165354 275.240653 
" style="fill:none;stroke:#ffa500;stroke-linecap:round;"/>
   </g>
   <g id="line2d_24">
    <path clip-path="url(#p020967cccf)" d="M 285.09081 275.905354 
L 285.09081 15.883837 
" style="fill:none;stroke:#0000ff;stroke-linecap:round;"/>
   </g>
   <g id="line2d_25">
    <path clip-path="url(#p020967cccf)" d="M 287.081096 275.905354 
L 287.081096 12.120923 
" style="fill:none;stroke:#000000;stroke-linecap:round;"/>
   </g>
   <g id="legend_1">
    <g id="patch_5">
     <path d="M 28.494646 67.947146 
L 148.567146 67.947146 
Q 150.167146 67.947146 150.167146 66.347146 
L 150.167146 8.434646 
Q 150.167146 6.834646 148.567146 6.834646 
L 28.494646 6.834646 
Q 26.894646 6.834646 26.894646 8.434646 
L 26.894646 66.347146 
Q 26.894646 67.947146 28.494646 67.947146 
z
" style="fill:#ffffff;opacity:0.8;stroke:#000000;stroke-linejoin:miter;"/>
    </g>
    <g id="patch_6">
     <path d="M 30.094646 16.113396 
L 46.094646 16.113396 
L 46.094646 10.513396 
L 30.094646 10.513396 
z
" style="fill:#ffa500;fill-opacity:0.5;stroke:#ffa500;stroke-linejoin:miter;"/>
    </g>
    <g id="text_11">
     <!-- q05 -->
     <defs>
      <path d="M 14.796875 27.296875 
Q 14.796875 17.390625 18.875 11.75 
Q 22.953125 6.109375 30.078125 6.109375 
Q 37.203125 6.109375 41.296875 11.75 
Q 45.40625 17.390625 45.40625 27.296875 
Q 45.40625 37.203125 41.296875 42.84375 
Q 37.203125 48.484375 30.078125 48.484375 
Q 22.953125 48.484375 18.875 42.84375 
Q 14.796875 37.203125 14.796875 27.296875 
z
M 45.40625 8.203125 
Q 42.578125 3.328125 38.25 0.953125 
Q 33.9375 -1.421875 27.875 -1.421875 
Q 17.96875 -1.421875 11.734375 6.484375 
Q 5.515625 14.40625 5.515625 27.296875 
Q 5.515625 40.1875 11.734375 48.09375 
Q 17.96875 56 27.875 56 
Q 33.9375 56 38.25 53.625 
Q 42.578125 51.265625 45.40625 46.390625 
L 45.40625 54.6875 
L 54.390625 54.6875 
L 54.390625 -20.796875 
L 45.40625 -20.796875 
z
" id="DejaVuSans-71"/>
     </defs>
     <g transform="translate(52.494646 16.113396)scale(0.08 -0.08)">
      <use xlink:href="#DejaVuSans-71"/>
      <use x="63.476562" xlink:href="#DejaVuSans-30"/>
      <use x="127.099609" xlink:href="#DejaVuSans-35"/>
     </g>
    </g>
    <g id="patch_7">
     <path d="M 30.094646 27.855896 
L 46.094646 27.855896 
L 46.094646 22.255896 
L 30.094646 22.255896 
z
" style="fill:#008000;fill-opacity:0.5;stroke:#008000;stroke-linejoin:miter;"/>
    </g>
    <g id="text_12">
     <!-- 90% acceptance region -->
     <defs>
      <path d="M 10.984375 1.515625 
L 10.984375 10.5 
Q 14.703125 8.734375 18.5 7.8125 
Q 22.3125 6.890625 25.984375 6.890625 
Q 35.75 6.890625 40.890625 13.453125 
Q 46.046875 20.015625 46.78125 33.40625 
Q 43.953125 29.203125 39.59375 26.953125 
Q 35.25 24.703125 29.984375 24.703125 
Q 19.046875 24.703125 12.671875 31.3125 
Q 6.296875 37.9375 6.296875 49.421875 
Q 6.296875 60.640625 12.9375 67.421875 
Q 19.578125 74.21875 30.609375 74.21875 
Q 43.265625 74.21875 49.921875 64.515625 
Q 56.59375 54.828125 56.59375 36.375 
Q 56.59375 19.140625 48.40625 8.859375 
Q 40.234375 -1.421875 26.421875 -1.421875 
Q 22.703125 -1.421875 18.890625 -0.6875 
Q 15.09375 0.046875 10.984375 1.515625 
z
M 30.609375 32.421875 
Q 37.25 32.421875 41.125 36.953125 
Q 45.015625 41.5 45.015625 49.421875 
Q 45.015625 57.28125 41.125 61.84375 
Q 37.25 66.40625 30.609375 66.40625 
Q 23.96875 66.40625 20.09375 61.84375 
Q 16.21875 57.28125 16.21875 49.421875 
Q 16.21875 41.5 20.09375 36.953125 
Q 23.96875 32.421875 30.609375 32.421875 
z
" id="DejaVuSans-39"/>
      <path d="M 72.703125 32.078125 
Q 68.453125 32.078125 66.03125 28.46875 
Q 63.625 24.859375 63.625 18.40625 
Q 63.625 12.0625 66.03125 8.421875 
Q 68.453125 4.78125 72.703125 4.78125 
Q 76.859375 4.78125 79.265625 8.421875 
Q 81.6875 12.0625 81.6875 18.40625 
Q 81.6875 24.8125 79.265625 28.4375 
Q 76.859375 32.078125 72.703125 32.078125 
z
M 72.703125 38.28125 
Q 80.421875 38.28125 84.953125 32.90625 
Q 89.5 27.546875 89.5 18.40625 
Q 89.5 9.28125 84.9375 3.921875 
Q 80.375 -1.421875 72.703125 -1.421875 
Q 64.890625 -1.421875 60.34375 3.921875 
Q 55.8125 9.28125 55.8125 18.40625 
Q 55.8125 27.59375 60.375 32.9375 
Q 64.9375 38.28125 72.703125 38.28125 
z
M 22.3125 68.015625 
Q 18.109375 68.015625 15.6875 64.375 
Q 13.28125 60.75 13.28125 54.390625 
Q 13.28125 47.953125 15.671875 44.328125 
Q 18.0625 40.71875 22.3125 40.71875 
Q 26.5625 40.71875 28.96875 44.328125 
Q 31.390625 47.953125 31.390625 54.390625 
Q 31.390625 60.6875 28.953125 64.34375 
Q 26.515625 68.015625 22.3125 68.015625 
z
M 66.40625 74.21875 
L 74.21875 74.21875 
L 28.609375 -1.421875 
L 20.796875 -1.421875 
z
M 22.3125 74.21875 
Q 30.03125 74.21875 34.609375 68.875 
Q 39.203125 63.53125 39.203125 54.390625 
Q 39.203125 45.171875 34.640625 39.84375 
Q 30.078125 34.515625 22.3125 34.515625 
Q 14.546875 34.515625 10.03125 39.859375 
Q 5.515625 45.21875 5.515625 54.390625 
Q 5.515625 63.484375 10.046875 68.84375 
Q 14.59375 74.21875 22.3125 74.21875 
z
" id="DejaVuSans-25"/>
      <path id="DejaVuSans-20"/>
      <path d="M 34.28125 27.484375 
Q 23.390625 27.484375 19.1875 25 
Q 14.984375 22.515625 14.984375 16.5 
Q 14.984375 11.71875 18.140625 8.90625 
Q 21.296875 6.109375 26.703125 6.109375 
Q 34.1875 6.109375 38.703125 11.40625 
Q 43.21875 16.703125 43.21875 25.484375 
L 43.21875 27.484375 
z
M 52.203125 31.203125 
L 52.203125 0 
L 43.21875 0 
L 43.21875 8.296875 
Q 40.140625 3.328125 35.546875 0.953125 
Q 30.953125 -1.421875 24.3125 -1.421875 
Q 15.921875 -1.421875 10.953125 3.296875 
Q 6 8.015625 6 15.921875 
Q 6 25.140625 12.171875 29.828125 
Q 18.359375 34.515625 30.609375 34.515625 
L 43.21875 34.515625 
L 43.21875 35.40625 
Q 43.21875 41.609375 39.140625 45 
Q 35.0625 48.390625 27.6875 48.390625 
Q 23 48.390625 18.546875 47.265625 
Q 14.109375 46.140625 10.015625 43.890625 
L 10.015625 52.203125 
Q 14.9375 54.109375 19.578125 55.046875 
Q 24.21875 56 28.609375 56 
Q 40.484375 56 46.34375 49.84375 
Q 52.203125 43.703125 52.203125 31.203125 
z
" id="DejaVuSans-61"/>
      <path d="M 48.78125 52.59375 
L 48.78125 44.1875 
Q 44.96875 46.296875 41.140625 47.34375 
Q 37.3125 48.390625 33.40625 48.390625 
Q 24.65625 48.390625 19.8125 42.84375 
Q 14.984375 37.3125 14.984375 27.296875 
Q 14.984375 17.28125 19.8125 11.734375 
Q 24.65625 6.203125 33.40625 6.203125 
Q 37.3125 6.203125 41.140625 7.25 
Q 44.96875 8.296875 48.78125 10.40625 
L 48.78125 2.09375 
Q 45.015625 0.34375 40.984375 -0.53125 
Q 36.96875 -1.421875 32.421875 -1.421875 
Q 20.0625 -1.421875 12.78125 6.34375 
Q 5.515625 14.109375 5.515625 27.296875 
Q 5.515625 40.671875 12.859375 48.328125 
Q 20.21875 56 33.015625 56 
Q 37.15625 56 41.109375 55.140625 
Q 45.0625 54.296875 48.78125 52.59375 
z
" id="DejaVuSans-63"/>
      <path d="M 56.203125 29.59375 
L 56.203125 25.203125 
L 14.890625 25.203125 
Q 15.484375 15.921875 20.484375 11.0625 
Q 25.484375 6.203125 34.421875 6.203125 
Q 39.59375 6.203125 44.453125 7.46875 
Q 49.3125 8.734375 54.109375 11.28125 
L 54.109375 2.78125 
Q 49.265625 0.734375 44.1875 -0.34375 
Q 39.109375 -1.421875 33.890625 -1.421875 
Q 20.796875 -1.421875 13.15625 6.1875 
Q 5.515625 13.8125 5.515625 26.8125 
Q 5.515625 40.234375 12.765625 48.109375 
Q 20.015625 56 32.328125 56 
Q 43.359375 56 49.78125 48.890625 
Q 56.203125 41.796875 56.203125 29.59375 
z
M 47.21875 32.234375 
Q 47.125 39.59375 43.09375 43.984375 
Q 39.0625 48.390625 32.421875 48.390625 
Q 24.90625 48.390625 20.390625 44.140625 
Q 15.875 39.890625 15.1875 32.171875 
z
" id="DejaVuSans-65"/>
      <path d="M 18.109375 8.203125 
L 18.109375 -20.796875 
L 9.078125 -20.796875 
L 9.078125 54.6875 
L 18.109375 54.6875 
L 18.109375 46.390625 
Q 20.953125 51.265625 25.265625 53.625 
Q 29.59375 56 35.59375 56 
Q 45.5625 56 51.78125 48.09375 
Q 58.015625 40.1875 58.015625 27.296875 
Q 58.015625 14.40625 51.78125 6.484375 
Q 45.5625 -1.421875 35.59375 -1.421875 
Q 29.59375 -1.421875 25.265625 0.953125 
Q 20.953125 3.328125 18.109375 8.203125 
z
M 48.6875 27.296875 
Q 48.6875 37.203125 44.609375 42.84375 
Q 40.53125 48.484375 33.40625 48.484375 
Q 26.265625 48.484375 22.1875 42.84375 
Q 18.109375 37.203125 18.109375 27.296875 
Q 18.109375 17.390625 22.1875 11.75 
Q 26.265625 6.109375 33.40625 6.109375 
Q 40.53125 6.109375 44.609375 11.75 
Q 48.6875 17.390625 48.6875 27.296875 
z
" id="DejaVuSans-70"/>
      <path d="M 18.3125 70.21875 
L 18.3125 54.6875 
L 36.8125 54.6875 
L 36.8125 47.703125 
L 18.3125 47.703125 
L 18.3125 18.015625 
Q 18.3125 11.328125 20.140625 9.421875 
Q 21.96875 7.515625 27.59375 7.515625 
L 36.8125 7.515625 
L 36.8125 0 
L 27.59375 0 
Q 17.1875 0 13.234375 3.875 
Q 9.28125 7.765625 9.28125 18.015625 
L 9.28125 47.703125 
L 2.6875 47.703125 
L 2.6875 54.6875 
L 9.28125 54.6875 
L 9.28125 70.21875 
z
" id="DejaVuSans-74"/>
      <path d="M 54.890625 33.015625 
L 54.890625 0 
L 45.90625 0 
L 45.90625 32.71875 
Q 45.90625 40.484375 42.875 44.328125 
Q 39.84375 48.1875 33.796875 48.1875 
Q 26.515625 48.1875 22.3125 43.546875 
Q 18.109375 38.921875 18.109375 30.90625 
L 18.109375 0 
L 9.078125 0 
L 9.078125 54.6875 
L 18.109375 54.6875 
L 18.109375 46.1875 
Q 21.34375 51.125 25.703125 53.5625 
Q 30.078125 56 35.796875 56 
Q 45.21875 56 50.046875 50.171875 
Q 54.890625 44.34375 54.890625 33.015625 
z
" id="DejaVuSans-6e"/>
      <path d="M 41.109375 46.296875 
Q 39.59375 47.171875 37.8125 47.578125 
Q 36.03125 48 33.890625 48 
Q 26.265625 48 22.1875 43.046875 
Q 18.109375 38.09375 18.109375 28.8125 
L 18.109375 0 
L 9.078125 0 
L 9.078125 54.6875 
L 18.109375 54.6875 
L 18.109375 46.1875 
Q 20.953125 51.171875 25.484375 53.578125 
Q 30.03125 56 36.53125 56 
Q 37.453125 56 38.578125 55.875 
Q 39.703125 55.765625 41.0625 55.515625 
z
" id="DejaVuSans-72"/>
      <path d="M 45.40625 27.984375 
Q 45.40625 37.75 41.375 43.109375 
Q 37.359375 48.484375 30.078125 48.484375 
Q 22.859375 48.484375 18.828125 43.109375 
Q 14.796875 37.75 14.796875 27.984375 
Q 14.796875 18.265625 18.828125 12.890625 
Q 22.859375 7.515625 30.078125 7.515625 
Q 37.359375 7.515625 41.375 12.890625 
Q 45.40625 18.265625 45.40625 27.984375 
z
M 54.390625 6.78125 
Q 54.390625 -7.171875 48.1875 -13.984375 
Q 42 -20.796875 29.203125 -20.796875 
Q 24.46875 -20.796875 20.265625 -20.09375 
Q 16.0625 -19.390625 12.109375 -17.921875 
L 12.109375 -9.1875 
Q 16.0625 -11.328125 19.921875 -12.34375 
Q 23.78125 -13.375 27.78125 -13.375 
Q 36.625 -13.375 41.015625 -8.765625 
Q 45.40625 -4.15625 45.40625 5.171875 
L 45.40625 9.625 
Q 42.625 4.78125 38.28125 2.390625 
Q 33.9375 0 27.875 0 
Q 17.828125 0 11.671875 7.65625 
Q 5.515625 15.328125 5.515625 27.984375 
Q 5.515625 40.671875 11.671875 48.328125 
Q 17.828125 56 27.875 56 
Q 33.9375 56 38.28125 53.609375 
Q 42.625 51.21875 45.40625 46.390625 
L 45.40625 54.6875 
L 54.390625 54.6875 
z
" id="DejaVuSans-67"/>
      <path d="M 9.421875 54.6875 
L 18.40625 54.6875 
L 18.40625 0 
L 9.421875 0 
z
M 9.421875 75.984375 
L 18.40625 75.984375 
L 18.40625 64.59375 
L 9.421875 64.59375 
z
" id="DejaVuSans-69"/>
      <path d="M 30.609375 48.390625 
Q 23.390625 48.390625 19.1875 42.75 
Q 14.984375 37.109375 14.984375 27.296875 
Q 14.984375 17.484375 19.15625 11.84375 
Q 23.34375 6.203125 30.609375 6.203125 
Q 37.796875 6.203125 41.984375 11.859375 
Q 46.1875 17.53125 46.1875 27.296875 
Q 46.1875 37.015625 41.984375 42.703125 
Q 37.796875 48.390625 30.609375 48.390625 
z
M 30.609375 56 
Q 42.328125 56 49.015625 48.375 
Q 55.71875 40.765625 55.71875 27.296875 
Q 55.71875 13.875 49.015625 6.21875 
Q 42.328125 -1.421875 30.609375 -1.421875 
Q 18.84375 -1.421875 12.171875 6.21875 
Q 5.515625 13.875 5.515625 27.296875 
Q 5.515625 40.765625 12.171875 48.375 
Q 18.84375 56 30.609375 56 
z
" id="DejaVuSans-6f"/>
     </defs>
     <g transform="translate(52.494646 27.855896)scale(0.08 -0.08)">
      <use xlink:href="#DejaVuSans-39"/>
      <use x="63.623047" xlink:href="#DejaVuSans-30"/>
      <use x="127.246094" xlink:href="#DejaVuSans-25"/>
      <use x="222.265625" xlink:href="#DejaVuSans-20"/>
      <use x="254.052734" xlink:href="#DejaVuSans-61"/>
      <use x="315.332031" xlink:href="#DejaVuSans-63"/>
      <use x="370.3125" xlink:href="#DejaVuSans-63"/>
      <use x="425.292969" xlink:href="#DejaVuSans-65"/>
      <use x="486.816406" xlink:href="#DejaVuSans-70"/>
      <use x="550.292969" xlink:href="#DejaVuSans-74"/>
      <use x="589.501953" xlink:href="#DejaVuSans-61"/>
      <use x="650.78125" xlink:href="#DejaVuSans-6e"/>
      <use x="714.160156" xlink:href="#DejaVuSans-63"/>
      <use x="769.140625" xlink:href="#DejaVuSans-65"/>
      <use x="830.664062" xlink:href="#DejaVuSans-20"/>
      <use x="862.451172" xlink:href="#DejaVuSans-72"/>
      <use x="903.533203" xlink:href="#DejaVuSans-65"/>
      <use x="965.056641" xlink:href="#DejaVuSans-67"/>
      <use x="1028.533203" xlink:href="#DejaVuSans-69"/>
      <use x="1056.316406" xlink:href="#DejaVuSans-6f"/>
      <use x="1117.498047" xlink:href="#DejaVuSans-6e"/>
     </g>
    </g>
    <g id="patch_8">
     <path d="M 30.094646 39.598396 
L 46.094646 39.598396 
L 46.094646 33.998396 
L 30.094646 33.998396 
z
" style="fill:#ffa500;fill-opacity:0.5;stroke:#ffa500;stroke-linejoin:miter;"/>
    </g>
    <g id="text_13">
     <!-- q95 -->
     <g transform="translate(52.494646 39.598396)scale(0.08 -0.08)">
      <use xlink:href="#DejaVuSans-71"/>
      <use x="63.476562" xlink:href="#DejaVuSans-39"/>
      <use x="127.099609" xlink:href="#DejaVuSans-35"/>
     </g>
    </g>
    <g id="line2d_26">
     <path d="M 30.094646 48.540896 
L 46.094646 48.540896 
" style="fill:none;stroke:#0000ff;stroke-linecap:square;"/>
    </g>
    <g id="line2d_27"/>
    <g id="text_14">
     <!-- mean -->
     <defs>
      <path d="M 52 44.1875 
Q 55.375 50.25 60.0625 53.125 
Q 64.75 56 71.09375 56 
Q 79.640625 56 84.28125 50.015625 
Q 88.921875 44.046875 88.921875 33.015625 
L 88.921875 0 
L 79.890625 0 
L 79.890625 32.71875 
Q 79.890625 40.578125 77.09375 44.375 
Q 74.3125 48.1875 68.609375 48.1875 
Q 61.625 48.1875 57.5625 43.546875 
Q 53.515625 38.921875 53.515625 30.90625 
L 53.515625 0 
L 44.484375 0 
L 44.484375 32.71875 
Q 44.484375 40.625 41.703125 44.40625 
Q 38.921875 48.1875 33.109375 48.1875 
Q 26.21875 48.1875 22.15625 43.53125 
Q 18.109375 38.875 18.109375 30.90625 
L 18.109375 0 
L 9.078125 0 
L 9.078125 54.6875 
L 18.109375 54.6875 
L 18.109375 46.1875 
Q 21.1875 51.21875 25.484375 53.609375 
Q 29.78125 56 35.6875 56 
Q 41.65625 56 45.828125 52.96875 
Q 50 49.953125 52 44.1875 
z
" id="DejaVuSans-6d"/>
     </defs>
     <g transform="translate(52.494646 51.340896)scale(0.08 -0.08)">
      <use xlink:href="#DejaVuSans-6d"/>
      <use x="97.412109" xlink:href="#DejaVuSans-65"/>
      <use x="158.935547" xlink:href="#DejaVuSans-61"/>
      <use x="220.214844" xlink:href="#DejaVuSans-6e"/>
     </g>
    </g>
    <g id="line2d_28">
     <path d="M 30.094646 60.283396 
L 46.094646 60.283396 
" style="fill:none;stroke:#000000;stroke-linecap:square;"/>
    </g>
    <g id="line2d_29"/>
    <g id="text_15">
     <!-- median -->
     <defs>
      <path d="M 45.40625 46.390625 
L 45.40625 75.984375 
L 54.390625 75.984375 
L 54.390625 0 
L 45.40625 0 
L 45.40625 8.203125 
Q 42.578125 3.328125 38.25 0.953125 
Q 33.9375 -1.421875 27.875 -1.421875 
Q 17.96875 -1.421875 11.734375 6.484375 
Q 5.515625 14.40625 5.515625 27.296875 
Q 5.515625 40.1875 11.734375 48.09375 
Q 17.96875 56 27.875 56 
Q 33.9375 56 38.25 53.625 
Q 42.578125 51.265625 45.40625 46.390625 
z
M 14.796875 27.296875 
Q 14.796875 17.390625 18.875 11.75 
Q 22.953125 6.109375 30.078125 6.109375 
Q 37.203125 6.109375 41.296875 11.75 
Q 45.40625 17.390625 45.40625 27.296875 
Q 45.40625 37.203125 41.296875 42.84375 
Q 37.203125 48.484375 30.078125 48.484375 
Q 22.953125 48.484375 18.875 42.84375 
Q 14.796875 37.203125 14.796875 27.296875 
z
" id="DejaVuSans-64"/>
     </defs>
     <g transform="translate(52.494646 63.083396)scale(0.08 -0.08)">
      <use xlink:href="#DejaVuSans-6d"/>
      <use x="97.412109" xlink:href="#DejaVuSans-65"/>
      <use x="158.935547" xlink:href="#DejaVuSans-64"/>
      <use x="222.412109" xlink:href="#DejaVuSans-69"/>
      <use x="250.195312" xlink:href="#DejaVuSans-61"/>
      <use x="311.474609" xlink:href="#DejaVuSans-6e"/>
     </g>
    </g>
   </g>
  </g>
 </g>
 <defs>
  <clipPath id="p020967cccf">
   <rect height="273.070709" width="406.270709" x="22.894646" y="2.834646"/>
  </clipPath>
 </defs>
</svg>
