<?xml version="1.0" encoding="utf-8" standalone="no"?>
<!DOCTYPE svg PUBLIC "-//W3C//DTD SVG 1.1//EN"
  "http://www.w3.org/Graphics/SVG/1.1/DTD/svg11.dtd">
<!-- Created with matplotlib (http://matplotlib.org/) -->
<svg height="288pt" version="1.1" viewBox="0 0 432 288" width="432pt" xmlns="http://www.w3.org/2000/svg" xmlns:xlink="http://www.w3.org/1999/xlink">
 <defs>
  <style type="text/css">
*{stroke-linecap:butt;stroke-linejoin:round;}
  </style>
 </defs>
 <g id="figure_1">
  <g id="patch_1">
   <path d="M 0 288 
L 432 288 
L 432 0 
L 0 0 
z
" style="fill:#ffffff;"/>
  </g>
  <g id="axes_1">
   <g id="patch_2">
    <path d="M 22.894646 275.905354 
L 429.165354 275.905354 
L 429.165354 2.834646 
L 22.894646 2.834646 
z
" style="fill:#ffffff;"/>
   </g>
   <g id="matplotlib.axis_1">
    <g id="xtick_1">
     <g id="line2d_1">
      <path clip-path="url(#p629d3b6389)" d="M 63.319232 275.905354 
L 63.319232 2.834646 
" style="fill:none;opacity:0.1;stroke:#000000;stroke-linecap:square;stroke-width:0.5;"/>
     </g>
     <g id="line2d_2">
      <defs>
       <path d="M 0 0 
L 0 -3.5 
" id="m14a9a415fb" style="stroke:#000000;stroke-width:0.8;"/>
      </defs>
      <g>
       <use style="stroke:#000000;stroke-width:0.8;" x="63.319232" xlink:href="#m14a9a415fb" y="275.905354"/>
      </g>
     </g>
     <g id="text_1">
      <!-- -15 -->
      <defs>
       <path d="M 4.890625 31.390625 
L 31.203125 31.390625 
L 31.203125 23.390625 
L 4.890625 23.390625 
z
" id="DejaVuSans-2d"/>
       <path d="M 12.40625 8.296875 
L 28.515625 8.296875 
L 28.515625 63.921875 
L 10.984375 60.40625 
L 10.984375 69.390625 
L 28.421875 72.90625 
L 38.28125 72.90625 
L 38.28125 8.296875 
L 54.390625 8.296875 
L 54.390625 0 
L 12.40625 0 
z
" id="DejaVuSans-31"/>
       <path d="M 10.796875 72.90625 
L 49.515625 72.90625 
L 49.515625 64.59375 
L 19.828125 64.59375 
L 19.828125 46.734375 
Q 21.96875 47.46875 24.109375 47.828125 
Q 26.265625 48.1875 28.421875 48.1875 
Q 40.625 48.1875 47.75 41.5 
Q 54.890625 34.8125 54.890625 23.390625 
Q 54.890625 11.625 47.5625 5.09375 
Q 40.234375 -1.421875 26.90625 -1.421875 
Q 22.3125 -1.421875 17.546875 -0.640625 
Q 12.796875 0.140625 7.71875 1.703125 
L 7.71875 11.625 
Q 12.109375 9.234375 16.796875 8.0625 
Q 21.484375 6.890625 26.703125 6.890625 
Q 35.15625 6.890625 40.078125 11.328125 
Q 45.015625 15.765625 45.015625 23.390625 
Q 45.015625 31 40.078125 35.4375 
Q 35.15625 39.890625 26.703125 39.890625 
Q 22.75 39.890625 18.8125 39.015625 
Q 14.890625 38.140625 10.796875 36.28125 
z
" id="DejaVuSans-35"/>
      </defs>
      <g transform="translate(56.786107 285.484104)scale(0.08 -0.08)">
       <use xlink:href="#DejaVuSans-2d"/>
       <use x="36.083984" xlink:href="#DejaVuSans-31"/>
       <use x="99.707031" xlink:href="#DejaVuSans-35"/>
      </g>
     </g>
    </g>
    <g id="xtick_2">
     <g id="line2d_3">
      <path clip-path="url(#p629d3b6389)" d="M 135.635129 275.905354 
L 135.635129 2.834646 
" style="fill:none;opacity:0.1;stroke:#000000;stroke-linecap:square;stroke-width:0.5;"/>
     </g>
     <g id="line2d_4">
      <g>
       <use style="stroke:#000000;stroke-width:0.8;" x="135.635129" xlink:href="#m14a9a415fb" y="275.905354"/>
      </g>
     </g>
     <g id="text_2">
      <!-- -10 -->
      <defs>
       <path d="M 31.78125 66.40625 
Q 24.171875 66.40625 20.328125 58.90625 
Q 16.5 51.421875 16.5 36.375 
Q 16.5 21.390625 20.328125 13.890625 
Q 24.171875 6.390625 31.78125 6.390625 
Q 39.453125 6.390625 43.28125 13.890625 
Q 47.125 21.390625 47.125 36.375 
Q 47.125 51.421875 43.28125 58.90625 
Q 39.453125 66.40625 31.78125 66.40625 
z
M 31.78125 74.21875 
Q 44.046875 74.21875 50.515625 64.515625 
Q 56.984375 54.828125 56.984375 36.375 
Q 56.984375 17.96875 50.515625 8.265625 
Q 44.046875 -1.421875 31.78125 -1.421875 
Q 19.53125 -1.421875 13.0625 8.265625 
Q 6.59375 17.96875 6.59375 36.375 
Q 6.59375 54.828125 13.0625 64.515625 
Q 19.53125 74.21875 31.78125 74.21875 
z
" id="DejaVuSans-30"/>
      </defs>
      <g transform="translate(129.102004 285.484104)scale(0.08 -0.08)">
       <use xlink:href="#DejaVuSans-2d"/>
       <use x="36.083984" xlink:href="#DejaVuSans-31"/>
       <use x="99.707031" xlink:href="#DejaVuSans-30"/>
      </g>
     </g>
    </g>
    <g id="xtick_3">
     <g id="line2d_5">
      <path clip-path="url(#p629d3b6389)" d="M 207.951026 275.905354 
L 207.951026 2.834646 
" style="fill:none;opacity:0.1;stroke:#000000;stroke-linecap:square;stroke-width:0.5;"/>
     </g>
     <g id="line2d_6">
      <g>
       <use style="stroke:#000000;stroke-width:0.8;" x="207.951026" xlink:href="#m14a9a415fb" y="275.905354"/>
      </g>
     </g>
     <g id="text_3">
      <!-- -5 -->
      <g transform="translate(203.962901 285.484104)scale(0.08 -0.08)">
       <use xlink:href="#DejaVuSans-2d"/>
       <use x="36.083984" xlink:href="#DejaVuSans-35"/>
      </g>
     </g>
    </g>
    <g id="xtick_4">
     <g id="line2d_7">
      <path clip-path="url(#p629d3b6389)" d="M 280.266923 275.905354 
L 280.266923 2.834646 
" style="fill:none;opacity:0.1;stroke:#000000;stroke-linecap:square;stroke-width:0.5;"/>
     </g>
     <g id="line2d_8">
      <g>
       <use style="stroke:#000000;stroke-width:0.8;" x="280.266923" xlink:href="#m14a9a415fb" y="275.905354"/>
      </g>
     </g>
     <g id="text_4">
      <!-- 0 -->
      <g transform="translate(277.721923 285.484104)scale(0.08 -0.08)">
       <use xlink:href="#DejaVuSans-30"/>
      </g>
     </g>
    </g>
    <g id="xtick_5">
     <g id="line2d_9">
      <path clip-path="url(#p629d3b6389)" d="M 352.58282 275.905354 
L 352.58282 2.834646 
" style="fill:none;opacity:0.1;stroke:#000000;stroke-linecap:square;stroke-width:0.5;"/>
     </g>
     <g id="line2d_10">
      <g>
       <use style="stroke:#000000;stroke-width:0.8;" x="352.58282" xlink:href="#m14a9a415fb" y="275.905354"/>
      </g>
     </g>
     <g id="text_5">
      <!-- 5 -->
      <g transform="translate(350.03782 285.484104)scale(0.08 -0.08)">
       <use xlink:href="#DejaVuSans-35"/>
      </g>
     </g>
    </g>
    <g id="xtick_6">
     <g id="line2d_11">
      <path clip-path="url(#p629d3b6389)" d="M 424.898716 275.905354 
L 424.898716 2.834646 
" style="fill:none;opacity:0.1;stroke:#000000;stroke-linecap:square;stroke-width:0.5;"/>
     </g>
     <g id="line2d_12">
      <g>
       <use style="stroke:#000000;stroke-width:0.8;" x="424.898716" xlink:href="#m14a9a415fb" y="275.905354"/>
      </g>
     </g>
     <g id="text_6">
      <!-- 10 -->
      <g transform="translate(419.808716 285.484104)scale(0.08 -0.08)">
       <use xlink:href="#DejaVuSans-31"/>
       <use x="63.623047" xlink:href="#DejaVuSans-30"/>
      </g>
     </g>
    </g>
   </g>
   <g id="matplotlib.axis_2">
    <g id="ytick_1">
     <g id="line2d_13">
      <path clip-path="url(#p629d3b6389)" d="M 22.894646 275.905354 
L 429.165354 275.905354 
" style="fill:none;opacity:0.1;stroke:#000000;stroke-linecap:square;stroke-width:0.5;"/>
     </g>
     <g id="line2d_14">
      <defs>
       <path d="M 0 0 
L 3.5 0 
" id="m5ba77d4557" style="stroke:#000000;stroke-width:0.8;"/>
      </defs>
      <g>
       <use style="stroke:#000000;stroke-width:0.8;" x="22.894646" xlink:href="#m5ba77d4557" y="275.905354"/>
      </g>
     </g>
     <g id="text_7">
      <!-- 0.00 -->
      <defs>
       <path d="M 10.6875 12.40625 
L 21 12.40625 
L 21 0 
L 10.6875 0 
z
" id="DejaVuSans-2e"/>
      </defs>
      <g transform="translate(1.582146 278.944729)scale(0.08 -0.08)">
       <use xlink:href="#DejaVuSans-30"/>
       <use x="63.623047" xlink:href="#DejaVuSans-2e"/>
       <use x="95.410156" xlink:href="#DejaVuSans-30"/>
       <use x="159.033203" xlink:href="#DejaVuSans-30"/>
      </g>
     </g>
    </g>
    <g id="ytick_2">
     <g id="line2d_15">
      <path clip-path="url(#p629d3b6389)" d="M 22.894646 215.464181 
L 429.165354 215.464181 
" style="fill:none;opacity:0.1;stroke:#000000;stroke-linecap:square;stroke-width:0.5;"/>
     </g>
     <g id="line2d_16">
      <g>
       <use style="stroke:#000000;stroke-width:0.8;" x="22.894646" xlink:href="#m5ba77d4557" y="215.464181"/>
      </g>
     </g>
     <g id="text_8">
      <!-- 0.05 -->
      <g transform="translate(1.582146 218.503556)scale(0.08 -0.08)">
       <use xlink:href="#DejaVuSans-30"/>
       <use x="63.623047" xlink:href="#DejaVuSans-2e"/>
       <use x="95.410156" xlink:href="#DejaVuSans-30"/>
       <use x="159.033203" xlink:href="#DejaVuSans-35"/>
      </g>
     </g>
    </g>
    <g id="ytick_3">
     <g id="line2d_17">
      <path clip-path="url(#p629d3b6389)" d="M 22.894646 155.023007 
L 429.165354 155.023007 
" style="fill:none;opacity:0.1;stroke:#000000;stroke-linecap:square;stroke-width:0.5;"/>
     </g>
     <g id="line2d_18">
      <g>
       <use style="stroke:#000000;stroke-width:0.8;" x="22.894646" xlink:href="#m5ba77d4557" y="155.023007"/>
      </g>
     </g>
     <g id="text_9">
      <!-- 0.10 -->
      <g transform="translate(1.582146 158.062382)scale(0.08 -0.08)">
       <use xlink:href="#DejaVuSans-30"/>
       <use x="63.623047" xlink:href="#DejaVuSans-2e"/>
       <use x="95.410156" xlink:href="#DejaVuSans-31"/>
       <use x="159.033203" xlink:href="#DejaVuSans-30"/>
      </g>
     </g>
    </g>
    <g id="ytick_4">
     <g id="line2d_19">
      <path clip-path="url(#p629d3b6389)" d="M 22.894646 94.581834 
L 429.165354 94.581834 
" style="fill:none;opacity:0.1;stroke:#000000;stroke-linecap:square;stroke-width:0.5;"/>
     </g>
     <g id="line2d_20">
      <g>
       <use style="stroke:#000000;stroke-width:0.8;" x="22.894646" xlink:href="#m5ba77d4557" y="94.581834"/>
      </g>
     </g>
     <g id="text_10">
      <!-- 0.15 -->
      <g transform="translate(1.582146 97.621209)scale(0.08 -0.08)">
       <use xlink:href="#DejaVuSans-30"/>
       <use x="63.623047" xlink:href="#DejaVuSans-2e"/>
       <use x="95.410156" xlink:href="#DejaVuSans-31"/>
       <use x="159.033203" xlink:href="#DejaVuSans-35"/>
      </g>
     </g>
    </g>
    <g id="ytick_5">
     <g id="line2d_21">
      <path clip-path="url(#p629d3b6389)" d="M 22.894646 34.14066 
L 429.165354 34.14066 
" style="fill:none;opacity:0.1;stroke:#000000;stroke-linecap:square;stroke-width:0.5;"/>
     </g>
     <g id="line2d_22">
      <g>
       <use style="stroke:#000000;stroke-width:0.8;" x="22.894646" xlink:href="#m5ba77d4557" y="34.14066"/>
      </g>
     </g>
     <g id="text_11">
      <!-- 0.20 -->
      <defs>
       <path d="M 19.1875 8.296875 
L 53.609375 8.296875 
L 53.609375 0 
L 7.328125 0 
L 7.328125 8.296875 
Q 12.9375 14.109375 22.625 23.890625 
Q 32.328125 33.6875 34.8125 36.53125 
Q 39.546875 41.84375 41.421875 45.53125 
Q 43.3125 49.21875 43.3125 52.78125 
Q 43.3125 58.59375 39.234375 62.25 
Q 35.15625 65.921875 28.609375 65.921875 
Q 23.96875 65.921875 18.8125 64.3125 
Q 13.671875 62.703125 7.8125 59.421875 
L 7.8125 69.390625 
Q 13.765625 71.78125 18.9375 73 
Q 24.125 74.21875 28.421875 74.21875 
Q 39.75 74.21875 46.484375 68.546875 
Q 53.21875 62.890625 53.21875 53.421875 
Q 53.21875 48.921875 51.53125 44.890625 
Q 49.859375 40.875 45.40625 35.40625 
Q 44.1875 33.984375 37.640625 27.21875 
Q 31.109375 20.453125 19.1875 8.296875 
z
" id="DejaVuSans-32"/>
      </defs>
      <g transform="translate(1.582146 37.180035)scale(0.08 -0.08)">
       <use xlink:href="#DejaVuSans-30"/>
       <use x="63.623047" xlink:href="#DejaVuSans-2e"/>
       <use x="95.410156" xlink:href="#DejaVuSans-32"/>
       <use x="159.033203" xlink:href="#DejaVuSans-30"/>
      </g>
     </g>
    </g>
   </g>
   <g id="patch_3">
    <path clip-path="url(#p629d3b6389)" d="M 34.392873 274.762799 
L 34.392873 275.905354 
L 41.624463 275.905354 
L 41.624463 274.762799 
L 34.392873 274.762799 
" style="fill:#009afa;stroke:#000000;stroke-linejoin:miter;"/>
   </g>
   <g id="patch_4">
    <path clip-path="url(#p629d3b6389)" d="M 41.624463 275.905354 
L 41.624463 275.905354 
L 48.856053 275.905354 
L 48.856053 275.905354 
L 41.624463 275.905354 
" style="fill:#009afa;stroke:#000000;stroke-linejoin:miter;"/>
   </g>
   <g id="patch_5">
    <path clip-path="url(#p629d3b6389)" d="M 48.856053 275.905354 
L 48.856053 275.905354 
L 56.087642 275.905354 
L 56.087642 275.905354 
L 48.856053 275.905354 
" style="fill:#009afa;stroke:#000000;stroke-linejoin:miter;"/>
   </g>
   <g id="patch_6">
    <path clip-path="url(#p629d3b6389)" d="M 56.087642 275.905354 
L 56.087642 275.905354 
L 63.319232 275.905354 
L 63.319232 275.905354 
L 56.087642 275.905354 
" style="fill:#009afa;stroke:#000000;stroke-linejoin:miter;"/>
   </g>
   <g id="patch_7">
    <path clip-path="url(#p629d3b6389)" d="M 63.319232 275.905354 
L 63.319232 275.905354 
L 70.550822 275.905354 
L 70.550822 275.905354 
L 63.319232 275.905354 
" style="fill:#009afa;stroke:#000000;stroke-linejoin:miter;"/>
   </g>
   <g id="patch_8">
    <path clip-path="url(#p629d3b6389)" d="M 70.550822 275.905354 
L 70.550822 275.905354 
L 77.782411 275.905354 
L 77.782411 275.905354 
L 70.550822 275.905354 
" style="fill:#009afa;stroke:#000000;stroke-linejoin:miter;"/>
   </g>
   <g id="patch_9">
    <path clip-path="url(#p629d3b6389)" d="M 77.782411 275.905354 
L 77.782411 275.905354 
L 85.014001 275.905354 
L 85.014001 275.905354 
L 77.782411 275.905354 
" style="fill:#009afa;stroke:#000000;stroke-linejoin:miter;"/>
   </g>
   <g id="patch_10">
    <path clip-path="url(#p629d3b6389)" d="M 85.014001 275.905354 
L 85.014001 275.905354 
L 92.245591 275.905354 
L 92.245591 275.905354 
L 85.014001 275.905354 
" style="fill:#009afa;stroke:#000000;stroke-linejoin:miter;"/>
   </g>
   <g id="patch_11">
    <path clip-path="url(#p629d3b6389)" d="M 92.245591 275.905354 
L 92.245591 275.905354 
L 99.47718 275.905354 
L 99.47718 275.905354 
L 92.245591 275.905354 
" style="fill:#009afa;stroke:#000000;stroke-linejoin:miter;"/>
   </g>
   <g id="patch_12">
    <path clip-path="url(#p629d3b6389)" d="M 99.47718 275.905354 
L 99.47718 275.905354 
L 106.70877 275.905354 
L 106.70877 275.905354 
L 99.47718 275.905354 
" style="fill:#009afa;stroke:#000000;stroke-linejoin:miter;"/>
   </g>
   <g id="patch_13">
    <path clip-path="url(#p629d3b6389)" d="M 106.70877 275.905354 
L 106.70877 275.905354 
L 113.94036 275.905354 
L 113.94036 275.905354 
L 106.70877 275.905354 
" style="fill:#009afa;stroke:#000000;stroke-linejoin:miter;"/>
   </g>
   <g id="patch_14">
    <path clip-path="url(#p629d3b6389)" d="M 113.94036 275.905354 
L 113.94036 275.905354 
L 121.17195 275.905354 
L 121.17195 275.905354 
L 113.94036 275.905354 
" style="fill:#009afa;stroke:#000000;stroke-linejoin:miter;"/>
   </g>
   <g id="patch_15">
    <path clip-path="url(#p629d3b6389)" d="M 121.17195 274.762799 
L 121.17195 275.905354 
L 128.403539 275.905354 
L 128.403539 274.762799 
L 121.17195 274.762799 
" style="fill:#009afa;stroke:#000000;stroke-linejoin:miter;"/>
   </g>
   <g id="patch_16">
    <path clip-path="url(#p629d3b6389)" d="M 128.403539 275.905354 
L 128.403539 275.905354 
L 135.635129 275.905354 
L 135.635129 275.905354 
L 128.403539 275.905354 
" style="fill:#009afa;stroke:#000000;stroke-linejoin:miter;"/>
   </g>
   <g id="patch_17">
    <path clip-path="url(#p629d3b6389)" d="M 135.635129 275.905354 
L 135.635129 275.905354 
L 142.866719 275.905354 
L 142.866719 275.905354 
L 135.635129 275.905354 
" style="fill:#009afa;stroke:#000000;stroke-linejoin:miter;"/>
   </g>
   <g id="patch_18">
    <path clip-path="url(#p629d3b6389)" d="M 142.866719 275.905354 
L 142.866719 275.905354 
L 150.098308 275.905354 
L 150.098308 275.905354 
L 142.866719 275.905354 
" style="fill:#009afa;stroke:#000000;stroke-linejoin:miter;"/>
   </g>
   <g id="patch_19">
    <path clip-path="url(#p629d3b6389)" d="M 150.098308 274.762799 
L 150.098308 275.905354 
L 157.329898 275.905354 
L 157.329898 274.762799 
L 150.098308 274.762799 
" style="fill:#009afa;stroke:#000000;stroke-linejoin:miter;"/>
   </g>
   <g id="patch_20">
    <path clip-path="url(#p629d3b6389)" d="M 157.329898 275.905354 
L 157.329898 275.905354 
L 164.561488 275.905354 
L 164.561488 275.905354 
L 157.329898 275.905354 
" style="fill:#009afa;stroke:#000000;stroke-linejoin:miter;"/>
   </g>
   <g id="patch_21">
    <path clip-path="url(#p629d3b6389)" d="M 164.561488 275.905354 
L 164.561488 275.905354 
L 171.793077 275.905354 
L 171.793077 275.905354 
L 164.561488 275.905354 
" style="fill:#009afa;stroke:#000000;stroke-linejoin:miter;"/>
   </g>
   <g id="patch_22">
    <path clip-path="url(#p629d3b6389)" d="M 171.793077 272.477689 
L 171.793077 275.905354 
L 179.024667 275.905354 
L 179.024667 272.477689 
L 171.793077 272.477689 
" style="fill:#009afa;stroke:#000000;stroke-linejoin:miter;"/>
   </g>
   <g id="patch_23">
    <path clip-path="url(#p629d3b6389)" d="M 179.024667 269.050023 
L 179.024667 275.905354 
L 186.256257 275.905354 
L 186.256257 269.050023 
L 179.024667 269.050023 
" style="fill:#009afa;stroke:#000000;stroke-linejoin:miter;"/>
   </g>
   <g id="patch_24">
    <path clip-path="url(#p629d3b6389)" d="M 186.256257 274.762799 
L 186.256257 275.905354 
L 193.487846 275.905354 
L 193.487846 274.762799 
L 186.256257 274.762799 
" style="fill:#009afa;stroke:#000000;stroke-linejoin:miter;"/>
   </g>
   <g id="patch_25">
    <path clip-path="url(#p629d3b6389)" d="M 193.487846 272.477689 
L 193.487846 275.905354 
L 200.719436 275.905354 
L 200.719436 272.477689 
L 193.487846 272.477689 
" style="fill:#009afa;stroke:#000000;stroke-linejoin:miter;"/>
   </g>
   <g id="patch_26">
    <path clip-path="url(#p629d3b6389)" d="M 200.719436 269.050023 
L 200.719436 275.905354 
L 207.951026 275.905354 
L 207.951026 269.050023 
L 200.719436 269.050023 
" style="fill:#009afa;stroke:#000000;stroke-linejoin:miter;"/>
   </g>
   <g id="patch_27">
    <path clip-path="url(#p629d3b6389)" d="M 207.951026 263.337246 
L 207.951026 275.905354 
L 215.182615 275.905354 
L 215.182615 263.337246 
L 207.951026 263.337246 
" style="fill:#009afa;stroke:#000000;stroke-linejoin:miter;"/>
   </g>
   <g id="patch_28">
    <path clip-path="url(#p629d3b6389)" d="M 215.182615 247.341473 
L 215.182615 275.905354 
L 222.414205 275.905354 
L 222.414205 247.341473 
L 215.182615 247.341473 
" style="fill:#009afa;stroke:#000000;stroke-linejoin:miter;"/>
   </g>
   <g id="patch_29">
    <path clip-path="url(#p629d3b6389)" d="M 222.414205 234.773365 
L 222.414205 275.905354 
L 229.645795 275.905354 
L 229.645795 234.773365 
L 222.414205 234.773365 
" style="fill:#009afa;stroke:#000000;stroke-linejoin:miter;"/>
   </g>
   <g id="patch_30">
    <path clip-path="url(#p629d3b6389)" d="M 229.645795 227.918033 
L 229.645795 275.905354 
L 236.877385 275.905354 
L 236.877385 227.918033 
L 229.645795 227.918033 
" style="fill:#009afa;stroke:#000000;stroke-linejoin:miter;"/>
   </g>
   <g id="patch_31">
    <path clip-path="url(#p629d3b6389)" d="M 236.877385 207.352038 
L 236.877385 275.905354 
L 244.108974 275.905354 
L 244.108974 207.352038 
L 236.877385 207.352038 
" style="fill:#009afa;stroke:#000000;stroke-linejoin:miter;"/>
   </g>
   <g id="patch_32">
    <path clip-path="url(#p629d3b6389)" d="M 244.108974 177.645601 
L 244.108974 275.905354 
L 251.340564 275.905354 
L 251.340564 177.645601 
L 244.108974 177.645601 
" style="fill:#009afa;stroke:#000000;stroke-linejoin:miter;"/>
   </g>
   <g id="patch_33">
    <path clip-path="url(#p629d3b6389)" d="M 251.340564 141.083833 
L 251.340564 275.905354 
L 258.572154 275.905354 
L 258.572154 141.083833 
L 251.340564 141.083833 
" style="fill:#009afa;stroke:#000000;stroke-linejoin:miter;"/>
   </g>
   <g id="patch_34">
    <path clip-path="url(#p629d3b6389)" d="M 258.572154 97.666733 
L 258.572154 275.905354 
L 265.803743 275.905354 
L 265.803743 97.666733 
L 258.572154 97.666733 
" style="fill:#009afa;stroke:#000000;stroke-linejoin:miter;"/>
   </g>
   <g id="patch_35">
    <path clip-path="url(#p629d3b6389)" d="M 265.803743 71.387962 
L 265.803743 275.905354 
L 273.035333 275.905354 
L 273.035333 71.387962 
L 265.803743 71.387962 
" style="fill:#009afa;stroke:#000000;stroke-linejoin:miter;"/>
   </g>
   <g id="patch_36">
    <path clip-path="url(#p629d3b6389)" d="M 273.035333 37.111304 
L 273.035333 275.905354 
L 280.266923 275.905354 
L 280.266923 37.111304 
L 273.035333 37.111304 
" style="fill:#009afa;stroke:#000000;stroke-linejoin:miter;"/>
   </g>
   <g id="patch_37">
    <path clip-path="url(#p629d3b6389)" d="M 280.266923 23.40064 
L 280.266923 275.905354 
L 287.498512 275.905354 
L 287.498512 23.40064 
L 280.266923 23.40064 
" style="fill:#009afa;stroke:#000000;stroke-linejoin:miter;"/>
   </g>
   <g id="patch_38">
    <path clip-path="url(#p629d3b6389)" d="M 287.498512 14.260198 
L 287.498512 275.905354 
L 294.730102 275.905354 
L 294.730102 14.260198 
L 287.498512 14.260198 
" style="fill:#009afa;stroke:#000000;stroke-linejoin:miter;"/>
   </g>
   <g id="patch_39">
    <path clip-path="url(#p629d3b6389)" d="M 294.730102 2.834646 
L 294.730102 275.905354 
L 301.961692 275.905354 
L 301.961692 2.834646 
L 294.730102 2.834646 
" style="fill:#009afa;stroke:#000000;stroke-linejoin:miter;"/>
   </g>
   <g id="patch_40">
    <path clip-path="url(#p629d3b6389)" d="M 301.961692 64.53263 
L 301.961692 275.905354 
L 309.193281 275.905354 
L 309.193281 64.53263 
L 301.961692 64.53263 
" style="fill:#009afa;stroke:#000000;stroke-linejoin:miter;"/>
   </g>
   <g id="patch_41">
    <path clip-path="url(#p629d3b6389)" d="M 309.193281 160.507272 
L 309.193281 275.905354 
L 316.424871 275.905354 
L 316.424871 160.507272 
L 309.193281 160.507272 
" style="fill:#009afa;stroke:#000000;stroke-linejoin:miter;"/>
   </g>
   <g id="patch_42">
    <path clip-path="url(#p629d3b6389)" d="M 316.424871 206.209483 
L 316.424871 275.905354 
L 323.656461 275.905354 
L 323.656461 206.209483 
L 316.424871 206.209483 
" style="fill:#009afa;stroke:#000000;stroke-linejoin:miter;"/>
   </g>
   <g id="patch_43">
    <path clip-path="url(#p629d3b6389)" d="M 323.656461 216.49248 
L 323.656461 275.905354 
L 330.88805 275.905354 
L 330.88805 216.49248 
L 323.656461 216.49248 
" style="fill:#009afa;stroke:#000000;stroke-linejoin:miter;"/>
   </g>
   <g id="patch_44">
    <path clip-path="url(#p629d3b6389)" d="M 330.88805 240.486141 
L 330.88805 275.905354 
L 338.11964 275.905354 
L 338.11964 240.486141 
L 330.88805 240.486141 
" style="fill:#009afa;stroke:#000000;stroke-linejoin:miter;"/>
   </g>
   <g id="patch_45">
    <path clip-path="url(#p629d3b6389)" d="M 338.11964 248.484028 
L 338.11964 275.905354 
L 345.35123 275.905354 
L 345.35123 248.484028 
L 338.11964 248.484028 
" style="fill:#009afa;stroke:#000000;stroke-linejoin:miter;"/>
   </g>
   <g id="patch_46">
    <path clip-path="url(#p629d3b6389)" d="M 345.35123 267.907467 
L 345.35123 275.905354 
L 352.58282 275.905354 
L 352.58282 267.907467 
L 345.35123 267.907467 
" style="fill:#009afa;stroke:#000000;stroke-linejoin:miter;"/>
   </g>
   <g id="patch_47">
    <path clip-path="url(#p629d3b6389)" d="M 352.58282 270.192578 
L 352.58282 275.905354 
L 359.814409 275.905354 
L 359.814409 270.192578 
L 352.58282 270.192578 
" style="fill:#009afa;stroke:#000000;stroke-linejoin:miter;"/>
   </g>
   <g id="patch_48">
    <path clip-path="url(#p629d3b6389)" d="M 359.814409 269.050023 
L 359.814409 275.905354 
L 367.045999 275.905354 
L 367.045999 269.050023 
L 359.814409 269.050023 
" style="fill:#009afa;stroke:#000000;stroke-linejoin:miter;"/>
   </g>
   <g id="patch_49">
    <path clip-path="url(#p629d3b6389)" d="M 367.045999 273.620244 
L 367.045999 275.905354 
L 374.277589 275.905354 
L 374.277589 273.620244 
L 367.045999 273.620244 
" style="fill:#009afa;stroke:#000000;stroke-linejoin:miter;"/>
   </g>
   <g id="patch_50">
    <path clip-path="url(#p629d3b6389)" d="M 374.277589 273.620244 
L 374.277589 275.905354 
L 381.509178 275.905354 
L 381.509178 273.620244 
L 374.277589 273.620244 
" style="fill:#009afa;stroke:#000000;stroke-linejoin:miter;"/>
   </g>
   <g id="patch_51">
    <path clip-path="url(#p629d3b6389)" d="M 381.509178 274.762799 
L 381.509178 275.905354 
L 388.740768 275.905354 
L 388.740768 274.762799 
L 381.509178 274.762799 
" style="fill:#009afa;stroke:#000000;stroke-linejoin:miter;"/>
   </g>
   <g id="patch_52">
    <path clip-path="url(#p629d3b6389)" d="M 388.740768 273.620244 
L 388.740768 275.905354 
L 395.972358 275.905354 
L 395.972358 273.620244 
L 388.740768 273.620244 
" style="fill:#009afa;stroke:#000000;stroke-linejoin:miter;"/>
   </g>
   <g id="patch_53">
    <path clip-path="url(#p629d3b6389)" d="M 395.972358 272.477689 
L 395.972358 275.905354 
L 403.203947 275.905354 
L 403.203947 272.477689 
L 395.972358 272.477689 
" style="fill:#009afa;stroke:#000000;stroke-linejoin:miter;"/>
   </g>
   <g id="patch_54">
    <path clip-path="url(#p629d3b6389)" d="M 403.203947 275.905354 
L 403.203947 275.905354 
L 410.435537 275.905354 
L 410.435537 275.905354 
L 403.203947 275.905354 
" style="fill:#009afa;stroke:#000000;stroke-linejoin:miter;"/>
   </g>
   <g id="patch_55">
    <path clip-path="url(#p629d3b6389)" d="M 410.435537 274.762799 
L 410.435537 275.905354 
L 417.667127 275.905354 
L 417.667127 274.762799 
L 410.435537 274.762799 
" style="fill:#009afa;stroke:#000000;stroke-linejoin:miter;"/>
   </g>
   <g id="line2d_23">
    <path clip-path="url(#p629d3b6389)" d="M 172.375569 275.639738 
L 173.458027 275.601926 
L 183.466919 274.929514 
L 193.47581 273.101717 
L 199.490736 270.898032 
L 205.505662 267.319162 
L 210.591206 262.783073 
L 215.67675 256.426056 
L 218.438913 252.057047 
L 221.201076 246.957819 
L 223.963238 241.068783 
L 226.725401 234.340238 
L 229.271871 227.362081 
L 231.818341 219.624754 
L 234.364811 211.128777 
L 236.911281 201.892546 
L 242.371451 179.800407 
L 247.831621 155.232858 
L 254.157763 125.271373 
L 260.483905 96.15444 
L 263.294869 84.261559 
L 266.105833 73.391272 
L 268.916798 63.799574 
L 271.727762 55.720933 
L 274.192724 50.043316 
L 276.657687 45.79868 
L 279.122649 43.072368 
L 281.587611 41.91976 
L 284.275082 42.483077 
L 286.962553 44.930726 
L 289.650023 49.203513 
L 292.337494 55.199113 
L 295.040937 62.825568 
L 297.74438 71.874153 
L 300.447823 82.139335 
L 303.151266 93.395909 
L 309.12927 120.622703 
L 315.107274 148.997553 
L 320.795193 175.006745 
L 326.483113 198.554632 
L 329.440172 209.498994 
L 332.39723 219.453295 
L 335.354289 228.385542 
L 338.311347 236.296302 
L 343.289774 247.395215 
L 348.268201 255.948755 
L 354.346295 263.473746 
L 360.42439 268.476773 
L 366.137978 271.497519 
L 371.851567 273.38429 
L 381.005178 274.951272 
L 390.15879 275.576789 
L 391.56749 275.628828 
" style="fill:none;stroke:#e36f47;stroke-linecap:round;"/>
   </g>
   <g id="patch_56">
    <path d="M 22.894646 275.905354 
L 22.894646 2.834646 
" style="fill:none;stroke:#000000;stroke-linecap:square;stroke-linejoin:miter;stroke-width:0.8;"/>
   </g>
   <g id="patch_57">
    <path d="M 22.894646 275.905354 
L 429.165354 275.905354 
" style="fill:none;stroke:#000000;stroke-linecap:square;stroke-linejoin:miter;stroke-width:0.8;"/>
   </g>
  </g>
 </g>
 <defs>
  <clipPath id="p629d3b6389">
   <rect height="273.070709" width="406.270709" x="22.894646" y="2.834646"/>
  </clipPath>
 </defs>
</svg>
