<?xml version="1.0" encoding="utf-8"?>
<svg xmlns="http://www.w3.org/2000/svg" xmlns:xlink="http://www.w3.org/1999/xlink" width="600" height="400" viewBox="0 0 2400 1600">
<defs>
  <clipPath id="clip3300">
    <rect x="0" y="0" width="2000" height="2000"/>
  </clipPath>
</defs>
<defs>
  <clipPath id="clip3301">
    <rect x="0" y="0" width="2400" height="1600"/>
  </clipPath>
</defs>
<polygon clip-path="url(#clip3301)" points="
0,1600 2400,1600 2400,0 0,0 
  " fill="#ffffff" fill-rule="evenodd" fill-opacity="1"/>
<defs>
  <clipPath id="clip3302">
    <rect x="480" y="0" width="1681" height="1600"/>
  </clipPath>
</defs>
<polygon clip-path="url(#clip3301)" points="
188.156,436.808 2321.26,436.808 2321.26,47.2441 188.156,47.2441 
  " fill="#ffffff" fill-rule="evenodd" fill-opacity="1"/>
<defs>
  <clipPath id="clip3303">
    <rect x="188" y="47" width="2134" height="391"/>
  </clipPath>
</defs>
<polyline clip-path="url(#clip3303)" style="stroke:#000000; stroke-width:2; stroke-opacity:0.1; fill:none" points="
  247.576,436.808 247.576,47.2441 
  "/>
<polyline clip-path="url(#clip3303)" style="stroke:#000000; stroke-width:2; stroke-opacity:0.1; fill:none" points="
  723.311,436.808 723.311,47.2441 
  "/>
<polyline clip-path="url(#clip3303)" style="stroke:#000000; stroke-width:2; stroke-opacity:0.1; fill:none" points="
  1199.05,436.808 1199.05,47.2441 
  "/>
<polyline clip-path="url(#clip3303)" style="stroke:#000000; stroke-width:2; stroke-opacity:0.1; fill:none" points="
  1674.78,436.808 1674.78,47.2441 
  "/>
<polyline clip-path="url(#clip3303)" style="stroke:#000000; stroke-width:2; stroke-opacity:0.1; fill:none" points="
  2150.52,436.808 2150.52,47.2441 
  "/>
<polyline clip-path="url(#clip3303)" style="stroke:#000000; stroke-width:2; stroke-opacity:0.1; fill:none" points="
  188.156,402.696 2321.26,402.696 
  "/>
<polyline clip-path="url(#clip3303)" style="stroke:#000000; stroke-width:2; stroke-opacity:0.1; fill:none" points="
  188.156,331.94 2321.26,331.94 
  "/>
<polyline clip-path="url(#clip3303)" style="stroke:#000000; stroke-width:2; stroke-opacity:0.1; fill:none" points="
  188.156,261.183 2321.26,261.183 
  "/>
<polyline clip-path="url(#clip3303)" style="stroke:#000000; stroke-width:2; stroke-opacity:0.1; fill:none" points="
  188.156,190.427 2321.26,190.427 
  "/>
<polyline clip-path="url(#clip3303)" style="stroke:#000000; stroke-width:2; stroke-opacity:0.1; fill:none" points="
  188.156,119.671 2321.26,119.671 
  "/>
<polyline clip-path="url(#clip3303)" style="stroke:#000000; stroke-width:2; stroke-opacity:0.1; fill:none" points="
  188.156,48.9145 2321.26,48.9145 
  "/>
<polyline clip-path="url(#clip3301)" style="stroke:#000000; stroke-width:4; stroke-opacity:1; fill:none" points="
  188.156,436.808 2321.26,436.808 
  "/>
<polyline clip-path="url(#clip3301)" style="stroke:#000000; stroke-width:4; stroke-opacity:1; fill:none" points="
  188.156,436.808 188.156,47.2441 
  "/>
<polyline clip-path="url(#clip3301)" style="stroke:#000000; stroke-width:4; stroke-opacity:1; fill:none" points="
  247.576,436.808 247.576,430.965 
  "/>
<polyline clip-path="url(#clip3301)" style="stroke:#000000; stroke-width:4; stroke-opacity:1; fill:none" points="
  723.311,436.808 723.311,430.965 
  "/>
<polyline clip-path="url(#clip3301)" style="stroke:#000000; stroke-width:4; stroke-opacity:1; fill:none" points="
  1199.05,436.808 1199.05,430.965 
  "/>
<polyline clip-path="url(#clip3301)" style="stroke:#000000; stroke-width:4; stroke-opacity:1; fill:none" points="
  1674.78,436.808 1674.78,430.965 
  "/>
<polyline clip-path="url(#clip3301)" style="stroke:#000000; stroke-width:4; stroke-opacity:1; fill:none" points="
  2150.52,436.808 2150.52,430.965 
  "/>
<polyline clip-path="url(#clip3301)" style="stroke:#000000; stroke-width:4; stroke-opacity:1; fill:none" points="
  188.156,402.696 220.153,402.696 
  "/>
<polyline clip-path="url(#clip3301)" style="stroke:#000000; stroke-width:4; stroke-opacity:1; fill:none" points="
  188.156,331.94 220.153,331.94 
  "/>
<polyline clip-path="url(#clip3301)" style="stroke:#000000; stroke-width:4; stroke-opacity:1; fill:none" points="
  188.156,261.183 220.153,261.183 
  "/>
<polyline clip-path="url(#clip3301)" style="stroke:#000000; stroke-width:4; stroke-opacity:1; fill:none" points="
  188.156,190.427 220.153,190.427 
  "/>
<polyline clip-path="url(#clip3301)" style="stroke:#000000; stroke-width:4; stroke-opacity:1; fill:none" points="
  188.156,119.671 220.153,119.671 
  "/>
<polyline clip-path="url(#clip3301)" style="stroke:#000000; stroke-width:4; stroke-opacity:1; fill:none" points="
  188.156,48.9145 220.153,48.9145 
  "/>
<g clip-path="url(#clip3301)">
<text style="fill:#000000; fill-opacity:1; font-family:Arial,Helvetica Neue,Helvetica,sans-serif; font-size:48px; text-anchor:middle;" transform="rotate(0, 247.576, 490.808)" x="247.576" y="490.808">0</text>
</g>
<g clip-path="url(#clip3301)">
<text style="fill:#000000; fill-opacity:1; font-family:Arial,Helvetica Neue,Helvetica,sans-serif; font-size:48px; text-anchor:middle;" transform="rotate(0, 723.311, 490.808)" x="723.311" y="490.808">500</text>
</g>
<g clip-path="url(#clip3301)">
<text style="fill:#000000; fill-opacity:1; font-family:Arial,Helvetica Neue,Helvetica,sans-serif; font-size:48px; text-anchor:middle;" transform="rotate(0, 1199.05, 490.808)" x="1199.05" y="490.808">1000</text>
</g>
<g clip-path="url(#clip3301)">
<text style="fill:#000000; fill-opacity:1; font-family:Arial,Helvetica Neue,Helvetica,sans-serif; font-size:48px; text-anchor:middle;" transform="rotate(0, 1674.78, 490.808)" x="1674.78" y="490.808">1500</text>
</g>
<g clip-path="url(#clip3301)">
<text style="fill:#000000; fill-opacity:1; font-family:Arial,Helvetica Neue,Helvetica,sans-serif; font-size:48px; text-anchor:middle;" transform="rotate(0, 2150.52, 490.808)" x="2150.52" y="490.808">2000</text>
</g>
<g clip-path="url(#clip3301)">
<text style="fill:#000000; fill-opacity:1; font-family:Arial,Helvetica Neue,Helvetica,sans-serif; font-size:48px; text-anchor:end;" transform="rotate(0, 164.156, 420.196)" x="164.156" y="420.196">-15</text>
</g>
<g clip-path="url(#clip3301)">
<text style="fill:#000000; fill-opacity:1; font-family:Arial,Helvetica Neue,Helvetica,sans-serif; font-size:48px; text-anchor:end;" transform="rotate(0, 164.156, 349.44)" x="164.156" y="349.44">-10</text>
</g>
<g clip-path="url(#clip3301)">
<text style="fill:#000000; fill-opacity:1; font-family:Arial,Helvetica Neue,Helvetica,sans-serif; font-size:48px; text-anchor:end;" transform="rotate(0, 164.156, 278.683)" x="164.156" y="278.683">-5</text>
</g>
<g clip-path="url(#clip3301)">
<text style="fill:#000000; fill-opacity:1; font-family:Arial,Helvetica Neue,Helvetica,sans-serif; font-size:48px; text-anchor:end;" transform="rotate(0, 164.156, 207.927)" x="164.156" y="207.927">0</text>
</g>
<g clip-path="url(#clip3301)">
<text style="fill:#000000; fill-opacity:1; font-family:Arial,Helvetica Neue,Helvetica,sans-serif; font-size:48px; text-anchor:end;" transform="rotate(0, 164.156, 137.171)" x="164.156" y="137.171">5</text>
</g>
<g clip-path="url(#clip3301)">
<text style="fill:#000000; fill-opacity:1; font-family:Arial,Helvetica Neue,Helvetica,sans-serif; font-size:48px; text-anchor:end;" transform="rotate(0, 164.156, 66.4145)" x="164.156" y="66.4145">10</text>
</g>
<polyline clip-path="url(#clip3303)" style="stroke:#009af9; stroke-width:4; stroke-opacity:1; fill:none" points="
  248.527,184.524 249.479,178.984 250.43,190.69 251.382,206.657 252.333,168.103 253.285,202.377 254.236,215.522 255.188,226.149 256.139,195.126 257.09,209.576 
  258.042,168.926 258.993,199.8 259.945,145.84 260.896,191.857 261.848,182.166 262.799,198.688 263.751,224.211 264.702,228.043 265.654,227.817 266.605,158.156 
  267.557,204.657 268.508,207.566 269.46,159.059 270.411,186.217 271.363,225.073 272.314,156.661 273.265,200.982 274.217,202.591 275.168,215.073 276.12,206.357 
  277.071,188.882 278.023,221.827 278.974,229.481 279.926,231.938 280.877,205.481 281.829,140.148 282.78,216.173 283.732,200.935 284.683,238.138 285.635,151.943 
  286.586,166.995 287.538,165.404 288.489,165.839 289.44,180.075 290.392,171.182 291.343,224.58 292.295,184.242 293.246,170.125 294.198,171.995 295.149,206.954 
  296.101,202.599 297.052,193.021 298.004,138.729 298.955,151.452 299.907,186.479 300.858,178.706 301.81,169.002 302.761,180.721 303.713,203.681 304.664,184.815 
  305.616,178.689 306.567,176.759 307.518,174.885 308.47,181.603 309.421,203.562 310.373,204.864 311.324,143.909 312.276,173.409 313.227,174.726 314.179,198.386 
  315.13,194.842 316.082,226.869 317.033,209.863 317.985,163.066 318.936,164.424 319.888,191.24 320.839,202.675 321.791,187.652 322.742,171.023 323.693,172.082 
  324.645,186.089 325.596,165.178 326.548,189.622 327.499,210.522 328.451,202.911 329.402,197.241 330.354,169.242 331.305,167.723 332.257,189.625 333.208,182.503 
  334.16,192.522 335.111,192.551 336.063,206.368 337.014,202.514 337.966,217.929 338.917,214.554 339.868,184.567 340.82,158.754 341.771,175.796 342.723,174.079 
  343.674,190.956 344.626,192.824 345.577,176.881 346.529,193.331 347.48,175.94 348.432,196.991 349.383,227.546 350.335,208.114 351.286,194.266 352.238,223.782 
  353.189,173.927 354.141,210.309 355.092,208.862 356.043,175.382 356.995,209.205 357.946,181.007 358.898,132.19 359.849,156.173 360.801,169.54 361.752,189.881 
  362.704,170.88 363.655,174.483 364.607,198.9 365.558,199.711 366.51,178.297 367.461,161.18 368.413,168.46 369.364,201.132 370.316,200.191 371.267,175.43 
  372.218,170.405 373.17,205.235 374.121,243.962 375.073,202.579 376.024,191.213 376.976,176.199 377.927,181.455 378.879,191.201 379.83,173.646 380.782,183.109 
  381.733,173.693 382.685,178.541 383.636,175.732 384.588,191.904 385.539,177.788 386.491,191.64 387.442,197.221 388.394,192.614 389.345,161.957 390.296,176.181 
  391.248,165.803 392.199,191.13 393.151,192.759 394.102,194.396 395.054,213.243 396.005,207.131 396.957,236.069 397.908,179.797 398.86,182.813 399.811,182.37 
  400.763,183.63 401.714,184.141 402.666,235.756 403.617,225.476 404.569,175.969 405.52,201.582 406.471,189.151 407.423,175.491 408.374,185.91 409.326,187.913 
  410.277,196.957 411.229,188.168 412.18,149.071 413.132,177.058 414.083,171.713 415.035,212.299 415.986,206.743 416.938,199.029 417.889,236.286 418.841,219.263 
  419.792,209.26 420.744,161.745 421.695,219.632 422.646,217.018 423.598,222.481 424.549,245.599 425.501,125.392 426.452,209.385 427.404,150.905 428.355,197.692 
  429.307,185.58 430.258,192.032 431.21,190.988 432.161,176.72 433.113,234.114 434.064,187.122 435.016,139.951 435.967,156.353 436.919,202.377 437.87,177.449 
  438.821,186.298 439.773,222.502 440.724,229.748 441.676,217.288 442.627,210.177 443.579,209.918 444.53,159.763 445.482,172.208 446.433,179.741 447.385,206.317 
  448.336,216.579 449.288,242.187 450.239,202.126 451.191,176.994 452.142,182.307 453.094,160.655 454.045,178.877 454.996,214.486 455.948,211.442 456.899,157.197 
  457.851,186.468 458.802,219.821 459.754,223.401 460.705,234.489 461.657,236.53 462.608,234.548 463.56,243.661 464.511,249.625 465.463,212.365 466.414,75.3117 
  467.366,248.548 468.317,182.893 469.269,230.892 470.22,212.365 471.172,193.261 472.123,146.832 473.074,156.902 474.026,170.296 474.977,207.523 475.929,224.239 
  476.88,166.093 477.832,110.183 478.783,193.009 479.735,154.546 480.686,206.199 481.638,170.599 482.589,163.486 483.541,149.601 484.492,234.942 485.444,203.399 
  486.395,196.339 487.347,174.601 488.298,178.47 489.249,231.03 490.201,153.818 491.152,131.589 492.104,173.487 493.055,188.396 494.007,182.603 494.958,155.401 
  495.91,184.796 496.861,180.39 497.813,171.629 498.764,174.312 499.716,163.265 500.667,178.212 501.619,178.614 502.57,211.787 503.522,187.238 504.473,153.778 
  505.424,165.831 506.376,209.339 507.327,178.378 508.279,169.912 509.23,172.412 510.182,192.684 511.133,168.689 512.085,204.211 513.036,202.859 513.988,216.873 
  514.939,210.676 515.891,168.663 516.842,197.556 517.794,189.148 518.745,220.315 519.697,170.513 520.648,182.505 521.599,199.904 522.551,190.16 523.502,225.035 
  524.454,240.309 525.405,178.475 526.357,131.056 527.308,166.505 528.26,208.398 529.211,157.74 530.163,212.813 531.114,209.553 532.066,199.284 533.017,162.711 
  533.969,200.461 534.92,240.678 535.872,218.819 536.823,175.495 537.775,211.392 538.726,201.707 539.677,232.528 540.629,105.841 541.58,168.591 542.532,167.348 
  543.483,153.73 544.435,176.314 545.386,176.688 546.338,180.781 547.289,186.233 548.241,209.255 549.192,157.156 550.144,179.76 551.095,188.509 552.047,192.825 
  552.998,162.672 553.95,166.685 554.901,205.653 555.852,205.594 556.804,193.042 557.755,158.124 558.707,173.262 559.658,202.463 560.61,220.477 561.561,205.23 
  562.513,200.535 563.464,169.563 564.416,149.84 565.367,200.173 566.319,212.739 567.27,183.329 568.222,187.847 569.173,214.612 570.125,174.958 571.076,208.045 
  572.027,202.684 572.979,173.627 573.93,170.749 574.882,171.963 575.833,179.311 576.785,181.692 577.736,212.125 578.688,191.131 579.639,214.6 580.591,195.406 
  581.542,176.966 582.494,186.183 583.445,198.66 584.397,208.484 585.348,158.512 586.3,163.134 587.251,181.74 588.202,176.364 589.154,163.634 590.105,195.081 
  591.057,171.237 592.008,186.269 592.96,220.891 593.911,180.647 594.863,158.858 595.814,194.553 596.766,203.75 597.717,217.899 598.669,201.665 599.62,221.892 
  600.572,174.833 601.523,198.669 602.475,229.736 603.426,158.012 604.377,187.422 605.329,247.946 606.28,178.964 607.232,226.781 608.183,144.129 609.135,207.535 
  610.086,232.1 611.038,192.15 611.989,163.595 612.941,242.617 613.892,229.836 614.844,163.355 615.795,216.987 616.747,145.78 617.698,233.783 618.65,202.827 
  619.601,213.734 620.553,131.725 621.504,172.808 622.455,143.922 623.407,228.439 624.358,205.68 625.31,226.084 626.261,225.406 627.213,142.609 628.164,175.932 
  629.116,210.054 630.067,147.225 631.019,147.09 631.97,187.533 632.922,185.382 633.873,180.864 634.825,191.847 635.776,215.938 636.728,228.338 637.679,239.138 
  638.63,232.878 639.582,221.353 640.533,274.433 641.485,168.094 642.436,176.582 643.388,176.98 644.339,157.95 645.291,243.951 646.242,158.854 647.194,172.549 
  648.145,189.059 649.097,245.798 650.048,225.738 651,153.695 651.951,143.044 652.903,167.598 653.854,166.631 654.805,221.254 655.757,207.6 656.708,227.113 
  657.66,220.02 658.611,161.687 659.563,256.129 660.514,162.383 661.466,201.771 662.417,213.952 663.369,245.431 664.32,195.684 665.272,136.095 666.223,165.337 
  667.175,241.662 668.126,216.129 669.078,251.974 670.029,263.902 670.98,121.811 671.932,164.763 672.883,288.116 673.835,133.357 674.786,291.43 675.738,251.083 
  676.689,247.684 677.641,234.254 678.592,194.755 679.544,207.53 680.495,181.643 681.447,279.381 682.398,98.2817 683.35,134.835 684.301,174.509 685.253,132.108 
  686.204,178.164 687.155,213.577 688.107,295.97 689.058,148.63 690.01,243.636 690.961,190.053 691.913,190.801 692.864,199.593 693.816,166.546 694.767,150.022 
  695.719,145.097 696.67,197.806 697.622,88.1821 698.573,159.04 699.525,173.682 700.476,167.907 701.428,211.938 702.379,147.757 703.331,176.283 704.282,175.464 
  705.233,202.517 706.185,209.401 707.136,185.233 708.088,128.602 709.039,196.601 709.991,173.492 710.942,161.915 711.894,140.269 712.845,236.388 713.797,178.81 
  714.748,144.264 715.7,221.229 716.651,190.705 717.603,123.308 718.554,196.614 719.506,178.08 720.457,190.717 721.408,256.681 722.36,216.098 723.311,234.265 
  724.263,196.598 725.214,240 726.166,170.151 727.117,163.904 728.069,230.235 729.02,217.04 729.972,132.685 730.923,239.466 731.875,110.928 732.826,168.097 
  733.778,168.416 734.729,211.843 735.681,194.312 736.632,158.059 737.583,208.162 738.535,176.527 739.486,245.619 740.438,185.862 741.389,173.14 742.341,184.116 
  743.292,176.708 744.244,129.1 745.195,143.153 746.147,173.744 747.098,184.193 748.05,138.33 749.001,203.017 749.953,200.195 750.904,162.332 751.856,215.342 
  752.807,178.324 753.758,191.99 754.71,158.249 755.661,199.435 756.613,198.19 757.564,220.607 758.516,147.315 759.467,207.268 760.419,207.446 761.37,163.274 
  762.322,212.058 763.273,216.914 764.225,179.241 765.176,209.4 766.128,144.386 767.079,173.103 768.031,173.048 768.982,196.277 769.933,161.89 770.885,218.458 
  771.836,201.417 772.788,172.317 773.739,195.258 774.691,183.822 775.642,224.527 776.594,165.221 777.545,177.489 778.497,199.031 779.448,148.362 780.4,216.571 
  781.351,222.45 782.303,203.864 783.254,195.37 784.206,190.673 785.157,188.876 786.109,229.477 787.06,165.227 788.011,161.571 788.963,188.626 789.914,167.461 
  790.866,172.83 791.817,195.185 792.769,169.525 793.72,207.563 794.672,206.529 795.623,180.083 796.575,205.827 797.526,192.205 798.478,211.446 799.429,181.938 
  800.381,208.217 801.332,188.881 802.284,194.062 803.235,162.617 804.186,215.633 805.138,214.241 806.089,199.694 807.041,159.164 807.992,183.953 808.944,223.924 
  809.895,162.372 810.847,203.728 811.798,169.875 812.75,238.24 813.701,189.896 814.653,172.376 815.604,170.265 816.556,175.675 817.507,192.741 818.459,196.363 
  819.41,189.668 820.361,164.03 821.313,232.941 822.264,197.249 823.216,183.358 824.167,205.676 825.119,198.126 826.07,198.143 827.022,172.887 827.973,211.714 
  828.925,209.596 829.876,188.809 830.828,182.569 831.779,213.823 832.731,215.906 833.682,197.154 834.634,208.22 835.585,155.062 836.536,149.694 837.488,172.754 
  838.439,212.693 839.391,219.922 840.342,173.409 841.294,203.848 842.245,165.884 843.197,208.943 844.148,249.474 845.1,175.64 846.051,206.647 847.003,181.285 
  847.954,174.603 848.906,219.104 849.857,209.213 850.809,196.239 851.76,179.375 852.711,168.012 853.663,183.624 854.614,185.313 855.566,189.866 856.517,180.867 
  857.469,137.554 858.42,149.655 859.372,194.631 860.323,190.427 861.275,139.702 862.226,224.386 863.178,186.272 864.129,149.753 865.081,196.235 866.032,241.216 
  866.984,199.118 867.935,205.822 868.887,161.632 869.838,164.245 870.789,177.371 871.741,135.296 872.692,167.832 873.644,186.105 874.595,185.87 875.547,205.836 
  876.498,167.387 877.45,175.733 878.401,256.501 879.353,190.684 880.304,172.766 881.256,160.013 882.207,261.147 883.159,243.077 884.11,204.834 885.062,225.033 
  886.013,216.832 886.964,143.947 887.916,213.489 888.867,134.026 889.819,211.078 890.77,214.067 891.722,162.062 892.673,172.931 893.625,173.411 894.576,179.973 
  895.528,179.525 896.479,192.457 897.431,229.371 898.382,165.947 899.334,186.352 900.285,233.082 901.237,156.976 902.188,171.839 903.139,168.331 904.091,177.557 
  905.042,181.564 905.994,191.889 906.945,198.319 907.897,178.872 908.848,201.235 909.8,225.387 910.751,205.188 911.703,165.087 912.654,199.763 913.606,159.934 
  914.557,172.719 915.509,197.767 916.46,181.633 917.412,186.763 918.363,173.5 919.314,217.121 920.266,169.52 921.217,172.662 922.169,166.794 923.12,159.808 
  924.072,180.136 925.023,189.307 925.975,225.445 926.926,171.426 927.878,183.998 928.829,171.977 929.781,193.382 930.732,257.966 931.684,211.491 932.635,235.026 
  933.587,168.694 934.538,214.164 935.489,139.018 936.441,182.512 937.392,147.55 938.344,182.332 939.295,185.136 940.247,180.81 941.198,194.534 942.15,224.72 
  943.101,135.694 944.053,162.934 945.004,164.547 945.956,168.649 946.907,185.095 947.859,161.317 948.81,214.848 949.762,240.383 950.713,210.825 951.665,247.829 
  952.616,226.936 953.567,272.196 954.519,135.4 955.47,185.331 956.422,207.485 957.373,160.346 958.325,156.975 959.276,175.035 960.228,193.215 961.179,178.392 
  962.131,134.857 963.082,182.467 964.034,148.553 964.985,186.367 965.937,182.764 966.888,202.352 967.84,162.902 968.791,167.95 969.742,165.459 970.694,186.576 
  971.645,196.909 972.597,169.251 973.548,183.834 974.5,187.64 975.451,159.726 976.403,201.96 977.354,143.162 978.306,175.893 979.257,227.922 980.209,140.199 
  981.16,167.914 982.112,212.201 983.063,233.119 984.015,155.57 984.966,157.151 985.917,141.392 986.869,179.7 987.82,225.365 988.772,283.765 989.723,146.053 
  990.675,157.002 991.626,192.059 992.578,200.83 993.529,204.033 994.481,212.043 995.432,201.924 996.384,212.159 997.335,193.702 998.287,188.115 999.238,192.921 
  1000.19,161.449 1001.14,198.949 1002.09,144.475 1003.04,157.184 1004,194.014 1004.95,209.829 1005.9,192.067 1006.85,191.343 1007.8,200.873 1008.75,213.465 
  1009.7,191.171 1010.66,172.37 1011.61,171.148 1012.56,221.966 1013.51,173.558 1014.46,180.145 1015.41,196.653 1016.36,220.714 1017.32,206.858 1018.27,169.687 
  1019.22,222.602 1020.17,170.466 1021.12,153.886 1022.07,181.079 1023.02,221.661 1023.98,252.306 1024.93,208.693 1025.88,252.69 1026.83,183.428 1027.78,233.851 
  1028.73,184.923 1029.69,125.807 1030.64,214.038 1031.59,176.332 1032.54,196.955 1033.49,129.696 1034.44,206.961 1035.39,220.604 1036.35,148.235 1037.3,185.52 
  1038.25,184.782 1039.2,222.511 1040.15,192.217 1041.1,191.823 1042.05,225.187 1043.01,243.569 1043.96,186.816 1044.91,190.868 1045.86,177.122 1046.81,215.848 
  1047.76,201.161 1048.71,196.039 1049.67,219.035 1050.62,214.905 1051.57,197.173 1052.52,140.362 1053.47,200.905 1054.42,147.866 1055.37,186.608 1056.33,189.584 
  1057.28,172.703 1058.23,186.253 1059.18,170.926 1060.13,240.116 1061.08,214.955 1062.04,204.189 1062.99,232.023 1063.94,190.641 1064.89,177.185 1065.84,195.79 
  1066.79,220.388 1067.74,152.862 1068.7,178.417 1069.65,236.103 1070.6,211.171 1071.55,238.108 1072.5,111.764 1073.45,79.7409 1074.4,179.743 1075.36,146.931 
  1076.31,166.979 1077.26,192.214 1078.21,216.952 1079.16,142.178 1080.11,75.6488 1081.06,163.575 1082.02,228.52 1082.97,112.988 1083.92,201.151 1084.87,221.349 
  1085.82,227.685 1086.77,145.028 1087.72,162.445 1088.68,254.902 1089.63,158.534 1090.58,166.88 1091.53,180.868 1092.48,141.267 1093.43,201.506 1094.39,229.032 
  1095.34,174.243 1096.29,171.388 1097.24,167.14 1098.19,197.752 1099.14,140.556 1100.09,183.188 1101.05,219.592 1102,167.373 1102.95,185.439 1103.9,209.655 
  1104.85,141.337 1105.8,155.501 1106.75,184.465 1107.71,174.031 1108.66,171.977 1109.61,199.402 1110.56,166.345 1111.51,218.4 1112.46,198.883 1113.41,141.811 
  1114.37,159.06 1115.32,225.891 1116.27,173.385 1117.22,217.177 1118.17,162.09 1119.12,200.586 1120.07,230.46 1121.03,207.466 1121.98,157.295 1122.93,221.438 
  1123.88,168.638 1124.83,159.885 1125.78,208.933 1126.74,164.638 1127.69,193.479 1128.64,193.637 1129.59,176.933 1130.54,216.668 1131.49,201.507 1132.44,196.218 
  1133.4,199.102 1134.35,168.853 1135.3,182.924 1136.25,193.512 1137.2,195.291 1138.15,211.993 1139.1,189.988 1140.06,178.629 1141.01,176.526 1141.96,177.833 
  1142.91,192.332 1143.86,214.581 1144.81,210.32 1145.76,249.491 1146.72,192.627 1147.67,209.118 1148.62,164.049 1149.57,211.718 1150.52,171.017 1151.47,175.158 
  1152.42,181.149 1153.38,208.882 1154.33,213.543 1155.28,165.439 1156.23,184.986 1157.18,161.084 1158.13,204.95 1159.09,209.29 1160.04,235.169 1160.99,216.865 
  1161.94,147.06 1162.89,212.989 1163.84,167.715 1164.79,215.719 1165.75,180.923 1166.7,209.991 1167.65,185.71 1168.6,216.794 1169.55,142.656 1170.5,122.133 
  1171.45,179.056 1172.41,156.838 1173.36,189.103 1174.31,211.964 1175.26,187.276 1176.21,169.688 1177.16,196.184 1178.11,221.479 1179.07,192.999 1180.02,171.347 
  1180.97,167.332 1181.92,200.151 1182.87,165.225 1183.82,215.629 1184.77,204.546 1185.73,185.213 1186.68,215.476 1187.63,185.596 1188.58,151.734 1189.53,195.574 
  1190.48,199.444 1191.44,190.273 1192.39,140.039 1193.34,143.002 1194.29,171.462 1195.24,180.225 1196.19,167.841 1197.14,203.431 1198.1,196.488 1199.05,190.696 
  1200,209.497 1200.95,184.27 1201.9,187.152 1202.85,192.605 1203.8,187.438 1204.76,172.841 1205.71,186.264 1206.66,220.903 1207.61,173.961 1208.56,159.51 
  1209.51,162.625 1210.46,194.719 1211.42,169.994 1212.37,208.128 1213.32,195.896 1214.27,168.678 1215.22,179.025 1216.17,183.057 1217.12,166.667 1218.08,220.16 
  1219.03,198.858 1219.98,214.842 1220.93,189.909 1221.88,179.137 1222.83,191.723 1223.79,200.557 1224.74,208.645 1225.69,220.043 1226.64,196.507 1227.59,166.136 
  1228.54,201.379 1229.49,151.541 1230.45,181.462 1231.4,183.7 1232.35,169.679 1233.3,159.247 1234.25,178.166 1235.2,167.068 1236.15,178.356 1237.11,177.026 
  1238.06,168.208 1239.01,204.088 1239.96,176.178 1240.91,196.882 1241.86,191.14 1242.81,218.739 1243.77,148.633 1244.72,173.371 1245.67,168.583 1246.62,166.897 
  1247.57,164.864 1248.52,184.198 1249.48,141.818 1250.43,175.739 1251.38,178.678 1252.33,196.648 1253.28,201.494 1254.23,143.423 1255.18,192.97 1256.14,227.365 
  1257.09,186.882 1258.04,181.926 1258.99,202.472 1259.94,129.518 1260.89,205.79 1261.84,206.673 1262.8,169.749 1263.75,169.25 1264.7,166.83 1265.65,246.111 
  1266.6,230.847 1267.55,169.193 1268.5,206.765 1269.46,189.385 1270.41,138.001 1271.36,167.489 1272.31,173.092 1273.26,206.775 1274.21,211.457 1275.16,274.517 
  1276.12,163.015 1277.07,204.742 1278.02,173.723 1278.97,179.354 1279.92,202.639 1280.87,163.463 1281.83,159.064 1282.78,190.625 1283.73,243.994 1284.68,132.481 
  1285.63,163.639 1286.58,206.023 1287.53,209.294 1288.49,196.035 1289.44,214.927 1290.39,112.458 1291.34,150.879 1292.29,168.791 1293.24,155.499 1294.19,167.236 
  1295.15,197.907 1296.1,154.364 1297.05,195.574 1298,169.268 1298.95,182.019 1299.9,179.77 1300.85,158.025 1301.81,227.938 1302.76,169.528 1303.71,254.679 
  1304.66,177.134 1305.61,204.51 1306.56,142.621 1307.51,196.986 1308.47,266.569 1309.42,140.666 1310.37,167.726 1311.32,171.204 1312.27,157.781 1313.22,182.526 
  1314.18,205.945 1315.13,166.558 1316.08,180.997 1317.03,199.618 1317.98,161.754 1318.93,178.171 1319.88,134.783 1320.84,200.676 1321.79,170.761 1322.74,243.017 
  1323.69,224.858 1324.64,184.645 1325.59,163.272 1326.54,187.989 1327.5,203.759 1328.45,249.416 1329.4,425.783 1330.35,341.783 1331.3,97.949 1332.25,228.049 
  1333.2,168.457 1334.16,197.439 1335.11,250.497 1336.06,165.304 1337.01,140.669 1337.96,159.869 1338.91,219.148 1339.86,127.481 1340.82,259.201 1341.77,203.105 
  1342.72,154.559 1343.67,172.974 1344.62,167.981 1345.57,175.98 1346.53,163.301 1347.48,170.183 1348.43,182.933 1349.38,192.301 1350.33,185.384 1351.28,243.61 
  1352.23,156.576 1353.19,158.284 1354.14,267.005 1355.09,153.761 1356.04,206.095 1356.99,227.609 1357.94,200.03 1358.89,177.964 1359.85,127.201 1360.8,166.803 
  1361.75,173.864 1362.7,184.219 1363.65,210.792 1364.6,184.618 1365.55,204.212 1366.51,187.731 1367.46,226.31 1368.41,140.976 1369.36,244.745 1370.31,196.063 
  1371.26,187.656 1372.21,186.984 1373.17,170.621 1374.12,174.058 1375.07,185.693 1376.02,196.094 1376.97,175.697 1377.92,179.873 1378.88,177.592 1379.83,170.727 
  1380.78,202.717 1381.73,218.467 1382.68,236.784 1383.63,167.337 1384.58,167.343 1385.54,169.983 1386.49,203.352 1387.44,181.219 1388.39,189.705 1389.34,179.117 
  1390.29,176.175 1391.24,169.526 1392.2,178.879 1393.15,154.785 1394.1,180.094 1395.05,211.51 1396,204.724 1396.95,206.168 1397.9,158.34 1398.86,180.03 
  1399.81,218.38 1400.76,183.165 1401.71,171.6 1402.66,181.195 1403.61,155.716 1404.56,190.014 1405.52,185.495 1406.47,200.48 1407.42,142.857 1408.37,182.532 
  1409.32,183.451 1410.27,163.081 1411.23,202.19 1412.18,203.401 1413.13,169.342 1414.08,210.959 1415.03,152.263 1415.98,167.939 1416.93,182.58 1417.89,163.309 
  1418.84,179.991 1419.79,194.534 1420.74,196.317 1421.69,167.954 1422.64,195.738 1423.59,204.272 1424.55,189.251 1425.5,195.066 1426.45,145.693 1427.4,191.644 
  1428.35,252.505 1429.3,188.936 1430.25,195.514 1431.21,200.655 1432.16,180.794 1433.11,187.056 1434.06,182.675 1435.01,171.435 1435.96,174.449 1436.91,230.69 
  1437.87,167.1 1438.82,153.389 1439.77,231.652 1440.72,229.713 1441.67,222.751 1442.62,199.292 1443.58,168.687 1444.53,198.897 1445.48,207.048 1446.43,174.888 
  1447.38,169.708 1448.33,191.112 1449.28,181.768 1450.24,183.246 1451.19,193.895 1452.14,188.471 1453.09,195.259 1454.04,225.922 1454.99,182.374 1455.94,158.753 
  1456.9,148.413 1457.85,170.705 1458.8,183.943 1459.75,173.267 1460.7,191.496 1461.65,213.077 1462.6,204.734 1463.56,186.202 1464.51,171.197 1465.46,171.033 
  1466.41,224.33 1467.36,195.657 1468.31,257.36 1469.26,181.755 1470.22,287.112 1471.17,161.804 1472.12,189.238 1473.07,197.122 1474.02,216.066 1474.97,243.405 
  1475.93,162.988 1476.88,239.57 1477.83,202.313 1478.78,131.052 1479.73,227.658 1480.68,179.404 1481.63,130.775 1482.59,206.314 1483.54,180.79 1484.49,140.861 
  1485.44,189.328 1486.39,189.64 1487.34,188.462 1488.29,206.03 1489.25,252.371 1490.2,173.719 1491.15,133.044 1492.1,145.125 1493.05,120.956 1494,149.035 
  1494.95,203.996 1495.91,179.954 1496.86,157.055 1497.81,196.842 1498.76,213.369 1499.71,162.516 1500.66,176.165 1501.61,210.908 1502.57,130.845 1503.52,217.5 
  1504.47,198.165 1505.42,196.558 1506.37,225.219 1507.32,163.793 1508.28,166.916 1509.23,180.389 1510.18,219.583 1511.13,195.919 1512.08,205.912 1513.03,183.978 
  1513.98,180.773 1514.94,168.463 1515.89,199.932 1516.84,159.092 1517.79,181.067 1518.74,191.216 1519.69,188.705 1520.64,168.892 1521.6,211.568 1522.55,208.666 
  1523.5,183.613 1524.45,188.429 1525.4,183.316 1526.35,228.362 1527.3,136.357 1528.26,205.172 1529.21,172.866 1530.16,198.164 1531.11,163.922 1532.06,256.045 
  1533.01,198.63 1533.96,177.503 1534.92,201.245 1535.87,170.815 1536.82,117.575 1537.77,149.33 1538.72,183.896 1539.67,180.568 1540.63,200.531 1541.58,212.423 
  1542.53,176.571 1543.48,180.138 1544.43,219.512 1545.38,169.405 1546.33,206.385 1547.29,209.976 1548.24,175.379 1549.19,193.879 1550.14,202.85 1551.09,225.696 
  1552.04,119.321 1552.99,213.651 1553.95,183.161 1554.9,171.936 1555.85,191.168 1556.8,193.516 1557.75,201.537 1558.7,181.113 1559.65,217.23 1560.61,208.902 
  1561.56,188.126 1562.51,159.259 1563.46,198.311 1564.41,167.332 1565.36,209.509 1566.31,154.466 1567.27,188.357 1568.22,204.509 1569.17,187.846 1570.12,208.537 
  1571.07,174.776 1572.02,196.036 1572.98,178.311 1573.93,200.564 1574.88,190.182 1575.83,231.855 1576.78,174.327 1577.73,170.416 1578.68,176.196 1579.64,197.306 
  1580.59,173.349 1581.54,188.667 1582.49,170.748 1583.44,186.782 1584.39,174.378 1585.34,203.37 1586.3,168.292 1587.25,189.489 1588.2,202.269 1589.15,196.534 
  1590.1,185.859 1591.05,175.342 1592,161.421 1592.96,193.417 1593.91,232.419 1594.86,168.312 1595.81,162.059 1596.76,168.016 1597.71,213.298 1598.66,192.832 
  1599.62,176.114 1600.57,219.665 1601.52,170.811 1602.47,205.706 1603.42,208.846 1604.37,168.255 1605.33,188.473 1606.28,185.833 1607.23,173.103 1608.18,188.335 
  1609.13,216.102 1610.08,185.659 1611.03,200.099 1611.99,166.478 1612.94,209.995 1613.89,169.442 1614.84,200.392 1615.79,188.947 1616.74,184.328 1617.69,184.413 
  1618.65,174.219 1619.6,176.617 1620.55,181.972 1621.5,211.068 1622.45,176.466 1623.4,203.775 1624.35,177.466 1625.31,186.782 1626.26,187.719 1627.21,182.023 
  1628.16,194.927 1629.11,195.713 1630.06,190.041 1631.02,189.103 1631.97,199.713 1632.92,189.651 1633.87,175.537 1634.82,204.431 1635.77,175.438 1636.72,176.683 
  1637.68,197.829 1638.63,173.823 1639.58,187.304 1640.53,194.142 1641.48,161.324 1642.43,216.084 1643.38,192.312 1644.34,198.099 1645.29,210.402 1646.24,183.246 
  1647.19,181.919 1648.14,190.756 1649.09,262.588 1650.04,182.899 1651,197.268 1651.95,206.532 1652.9,164.808 1653.85,181.254 1654.8,226.088 1655.75,154.878 
  1656.7,182.942 1657.66,185.995 1658.61,189.141 1659.56,184.511 1660.51,213.838 1661.46,208.949 1662.41,191.458 1663.37,182.928 1664.32,179.904 1665.27,189.634 
  1666.22,163.83 1667.17,192.542 1668.12,178.234 1669.07,178.281 1670.03,172.051 1670.98,202.416 1671.93,197.523 1672.88,211.223 1673.83,181.23 1674.78,223.997 
  1675.73,156.966 1676.69,179.594 1677.64,214.794 1678.59,178.941 1679.54,195.796 1680.49,192.097 1681.44,238.628 1682.39,177.666 1683.35,199.339 1684.3,181.973 
  1685.25,175.63 1686.2,188.455 1687.15,189.469 1688.1,188.964 1689.05,166.733 1690.01,199.08 1690.96,181.606 1691.91,159.428 1692.86,182.232 1693.81,191.236 
  1694.76,186.555 1695.72,202.064 1696.67,166.026 1697.62,181.679 1698.57,169.242 1699.52,181.916 1700.47,187.528 1701.42,197.261 1702.38,171 1703.33,172.878 
  1704.28,177.994 1705.23,184.879 1706.18,188.13 1707.13,178.222 1708.08,187.86 1709.04,183.588 1709.99,174.518 1710.94,190.087 1711.89,183.027 1712.84,158.358 
  1713.79,214.313 1714.74,164.94 1715.7,190.944 1716.65,190.9 1717.6,191.462 1718.55,194.351 1719.5,179.161 1720.45,167.187 1721.4,172.121 1722.36,172.53 
  1723.31,204.045 1724.26,188.52 1725.21,196.019 1726.16,173.303 1727.11,206.641 1728.07,189.015 1729.02,169.964 1729.97,186.306 1730.92,176.012 1731.87,171.611 
  1732.82,160.86 1733.77,188.975 1734.73,223.107 1735.68,170.795 1736.63,171.152 1737.58,238.986 1738.53,173.445 1739.48,162.727 1740.43,155.412 1741.39,164.492 
  1742.34,178.099 1743.29,205.451 1744.24,194.692 1745.19,170.609 1746.14,221.623 1747.09,164.426 1748.05,190.873 1749,175.386 1749.95,234.881 1750.9,175.44 
  1751.85,172.468 1752.8,180.045 1753.75,212.946 1754.71,147.482 1755.66,162.728 1756.61,211.003 1757.56,171.059 1758.51,208.847 1759.46,203.747 1760.42,188.24 
  1761.37,172.642 1762.32,224.69 1763.27,238.088 1764.22,207.299 1765.17,162.779 1766.12,142.8 1767.08,193.587 1768.03,180.576 1768.98,187.727 1769.93,208.065 
  1770.88,167.996 1771.83,169.086 1772.78,183.206 1773.74,170.271 1774.69,187.339 1775.64,178.358 1776.59,185.223 1777.54,202.487 1778.49,149.895 1779.44,178.083 
  1780.4,169.046 1781.35,173.665 1782.3,205.64 1783.25,203.77 1784.2,206.393 1785.15,151.755 1786.1,213.167 1787.06,169.799 1788.01,155.805 1788.96,163.569 
  1789.91,213.619 1790.86,181.223 1791.81,152.375 1792.77,171.38 1793.72,201.879 1794.67,195.362 1795.62,180.804 1796.57,224.069 1797.52,184.35 1798.47,260.259 
  1799.43,172.927 1800.38,185.274 1801.33,180.042 1802.28,148.295 1803.23,163.497 1804.18,155.399 1805.13,188.447 1806.09,179.279 1807.04,188.757 1807.99,148.238 
  1808.94,159.838 1809.89,191.985 1810.84,163.748 1811.79,186.472 1812.75,154.362 1813.7,189.641 1814.65,167.126 1815.6,180.629 1816.55,244.345 1817.5,169.055 
  1818.45,218.827 1819.41,167.836 1820.36,199.467 1821.31,153.863 1822.26,187.388 1823.21,171.065 1824.16,166.648 1825.12,197.89 1826.07,185.106 1827.02,264.272 
  1827.97,153.293 1828.92,245.253 1829.87,140.948 1830.82,180.692 1831.78,154.353 1832.73,197.241 1833.68,193.523 1834.63,230.862 1835.58,137.2 1836.53,204.366 
  1837.48,203.995 1838.44,172.058 1839.39,186.753 1840.34,151.075 1841.29,171.178 1842.24,173.254 1843.19,182.156 1844.14,179.783 1845.1,157.441 1846.05,169.457 
  1847,172.674 1847.95,181.438 1848.9,197.144 1849.85,168.181 1850.8,183.522 1851.76,232.912 1852.71,174.899 1853.66,179.071 1854.61,191.819 1855.56,226.844 
  1856.51,196.713 1857.47,158.182 1858.42,204.59 1859.37,169.356 1860.32,169.932 1861.27,169.439 1862.22,187.716 1863.17,206.391 1864.13,242.791 1865.08,250.049 
  1866.03,186.661 1866.98,178.57 1867.93,217.676 1868.88,313.464 1869.83,173.533 1870.79,141.853 1871.74,166.321 1872.69,252.123 1873.64,247.058 1874.59,154.965 
  1875.54,100.999 1876.49,195.112 1877.45,118.557 1878.4,194.971 1879.35,164.832 1880.3,146.949 1881.25,213.137 1882.2,183.022 1883.15,220.03 1884.11,126.383 
  1885.06,177.702 1886.01,151.114 1886.96,238.219 1887.91,177.619 1888.86,209.573 1889.82,165.384 1890.77,238.443 1891.72,186.18 1892.67,163.329 1893.62,212.169 
  1894.57,133.459 1895.52,180.731 1896.48,223.391 1897.43,173.919 1898.38,161.099 1899.33,168.912 1900.28,172.359 1901.23,175.743 1902.18,189.94 1903.14,174.741 
  1904.09,208.325 1905.04,223.333 1905.99,200.29 1906.94,170.543 1907.89,183.942 1908.84,193.61 1909.8,151.962 1910.75,172.333 1911.7,193.815 1912.65,206.552 
  1913.6,205.986 1914.55,248.943 1915.5,200.225 1916.46,159.619 1917.41,153.895 1918.36,241.465 1919.31,179.966 1920.26,221.254 1921.21,207.532 1922.17,225.992 
  1923.12,134.435 1924.07,232.367 1925.02,186.369 1925.97,180.099 1926.92,136.303 1927.87,173.315 1928.83,156 1929.78,201.183 1930.73,201.221 1931.68,191.454 
  1932.63,195.746 1933.58,185.442 1934.53,164.184 1935.49,246.186 1936.44,148.073 1937.39,178.469 1938.34,228.068 1939.29,196.067 1940.24,210.809 1941.19,218.245 
  1942.15,229.174 1943.1,164.581 1944.05,210.036 1945,157.8 1945.95,103.741 1946.9,177.027 1947.85,187.88 1948.81,182.359 1949.76,236.548 1950.71,144.175 
  1951.66,239.722 1952.61,198.4 1953.56,140.38 1954.52,225.198 1955.47,171.791 1956.42,163.68 1957.37,188.594 1958.32,207.227 1959.27,200.867 1960.22,188.911 
  1961.18,155.254 1962.13,199.403 1963.08,216.821 1964.03,178.409 1964.98,168.274 1965.93,178.311 1966.88,177.804 1967.84,194.137 1968.79,182.008 1969.74,188.835 
  1970.69,235.959 1971.64,185.651 1972.59,170.955 1973.54,244.022 1974.5,224.67 1975.45,164.873 1976.4,129.506 1977.35,196.189 1978.3,213.515 1979.25,244.998 
  1980.2,165.883 1981.16,172.12 1982.11,173.912 1983.06,253.165 1984.01,126.911 1984.96,178.762 1985.91,224.633 1986.87,180.061 1987.82,172.632 1988.77,174.603 
  1989.72,199.069 1990.67,206.761 1991.62,239.65 1992.57,196.734 1993.53,170.767 1994.48,287.034 1995.43,235.515 1996.38,154.185 1997.33,232.662 1998.28,136.394 
  1999.23,118.508 2000.19,196.136 2001.14,156.053 2002.09,196.065 2003.04,154.329 2003.99,190.058 2004.94,222.853 2005.89,175.12 2006.85,217.738 2007.8,206.622 
  2008.75,212.129 2009.7,179.215 2010.65,231.306 2011.6,161.84 2012.55,211.762 2013.51,165.372 2014.46,219.924 2015.41,186.966 2016.36,200.106 2017.31,209.936 
  2018.26,202.545 2019.22,240.33 2020.17,290.271 2021.12,203.369 2022.07,107.674 2023.02,180.994 2023.97,195.362 2024.92,192.561 2025.88,217.975 2026.83,134.212 
  2027.78,163.304 2028.73,190.233 2029.68,201.113 2030.63,151.313 2031.58,229.073 2032.54,166.698 2033.49,181.962 2034.44,185.844 2035.39,198.792 2036.34,219.405 
  2037.29,184.388 2038.24,207.879 2039.2,222.361 2040.15,144.795 2041.1,207.604 2042.05,165.632 2043,133.182 2043.95,196.823 2044.91,185.767 2045.86,196.361 
  2046.81,212.227 2047.76,174.608 2048.71,199.553 2049.66,220.187 2050.61,192.328 2051.57,193.183 2052.52,189.646 2053.47,196.692 2054.42,206.906 2055.37,216.319 
  2056.32,224.704 2057.27,185.877 2058.23,253.953 2059.18,220.464 2060.13,236.099 2061.08,226.771 2062.03,284.622 2062.98,75.8406 2063.93,242.732 2064.89,130.595 
  2065.84,148.682 2066.79,226.826 2067.74,224.598 2068.69,166.367 2069.64,251.032 2070.59,241.158 2071.55,205.149 2072.5,285.556 2073.45,58.2695 2074.4,141.865 
  2075.35,199.328 2076.3,147.453 2077.26,253.033 2078.21,144.317 2079.16,156.197 2080.11,215.514 2081.06,204.28 2082.01,209.192 2082.96,190.812 2083.92,160.015 
  2084.87,196.437 2085.82,177.435 2086.77,248.655 2087.72,218.365 2088.67,207.425 2089.62,237.759 2090.58,156.227 2091.53,223.328 2092.48,184.428 2093.43,248.227 
  2094.38,81.5952 2095.33,190.833 2096.28,174.742 2097.24,198.366 2098.19,172.518 2099.14,133.487 2100.09,191.408 2101.04,164.431 2101.99,176.211 2102.94,205.585 
  2103.9,149.173 2104.85,143.661 2105.8,168.111 2106.75,175.646 2107.7,236.481 2108.65,173.314 2109.61,183.705 2110.56,206.811 2111.51,193.971 2112.46,185.604 
  2113.41,215.246 2114.36,162.533 2115.31,171.368 2116.27,200.341 2117.22,152.058 2118.17,203.154 2119.12,171.011 2120.07,208.755 2121.02,176.696 2121.97,169.238 
  2122.93,171.159 2123.88,209.021 2124.83,167.838 2125.78,187.057 2126.73,178.063 2127.68,202.661 2128.63,166.526 2129.59,173.274 2130.54,198.312 2131.49,165.777 
  2132.44,164.159 2133.39,166.529 2134.34,171.872 2135.29,182.963 2136.25,169.334 2137.2,212.349 2138.15,196.889 2139.1,142.471 2140.05,197.132 2141,200.757 
  2141.96,180.267 2142.91,217.35 2143.86,195.589 2144.81,232.424 2145.76,141.693 2146.71,174.15 2147.66,217.011 2148.62,191.378 2149.57,200.527 2150.52,178.761 
  2151.47,243.865 2152.42,195.814 2153.37,157.505 2154.32,174.856 2155.28,186.262 2156.23,188.293 2157.18,176 2158.13,190.288 2159.08,208.606 2160.03,196.935 
  2160.98,212.093 2161.94,197.629 2162.89,184.366 2163.84,214.221 2164.79,166.263 2165.74,180.478 2166.69,182.076 2167.64,176.448 2168.6,187.781 2169.55,189.943 
  2170.5,187.81 2171.45,157.014 2172.4,224.736 2173.35,194.112 2174.31,163.338 2175.26,164.859 2176.21,168.945 2177.16,165.545 2178.11,189.844 2179.06,174.19 
  2180.01,203.92 2180.97,164.56 2181.92,184.413 2182.87,180.21 2183.82,227.453 2184.77,186.335 2185.72,193.705 2186.67,193.009 2187.63,165.94 2188.58,191.888 
  2189.53,162.107 2190.48,202.775 2191.43,171.051 2192.38,188.193 2193.33,207.903 2194.29,217.427 2195.24,184.222 2196.19,183.981 2197.14,201.726 2198.09,229.93 
  2199.04,175.693 2199.99,167.504 2200.95,199.359 2201.9,183.795 2202.85,187.224 2203.8,178.29 2204.75,192.412 2205.7,175.563 2206.66,178.059 2207.61,201.641 
  2208.56,192.463 2209.51,161.654 2210.46,180.409 2211.41,188.145 2212.36,171.391 2213.32,197.58 2214.27,203.005 2215.22,198.863 2216.17,175.497 2217.12,166.253 
  2218.07,199.354 2219.02,202.105 2219.98,179.159 2220.93,216.586 2221.88,212.216 2222.83,182.655 2223.78,195.877 2224.73,157.051 2225.68,192.092 2226.64,187.037 
  2227.59,148.819 2228.54,208.462 2229.49,174.597 2230.44,168.469 2231.39,198.638 2232.34,192.421 2233.3,160.4 2234.25,172.666 2235.2,209.954 2236.15,187.498 
  2237.1,165.307 2238.05,214.585 2239.01,182.491 2239.96,171.42 2240.91,190.004 2241.86,208.74 2242.81,153.774 2243.76,187.134 2244.71,191.542 2245.67,170.026 
  2246.62,215.783 2247.57,154.613 2248.52,190.66 2249.47,179.163 2250.42,168.226 2251.37,263.122 2252.33,214.175 2253.28,168.453 2254.23,216.949 2255.18,236.368 
  2256.13,159.283 2257.08,194.661 2258.03,149.23 2258.99,199.253 2259.94,196.813 2260.89,175.159 
  "/>
<polygon clip-path="url(#clip3301)" points="
188.156,970.141 2321.26,970.141 2321.26,580.577 188.156,580.577 
  " fill="#ffffff" fill-rule="evenodd" fill-opacity="1"/>
<defs>
  <clipPath id="clip3304">
    <rect x="188" y="580" width="2134" height="391"/>
  </clipPath>
</defs>
<polyline clip-path="url(#clip3304)" style="stroke:#000000; stroke-width:2; stroke-opacity:0.1; fill:none" points="
  448.76,970.141 448.76,580.577 
  "/>
<polyline clip-path="url(#clip3304)" style="stroke:#000000; stroke-width:2; stroke-opacity:0.1; fill:none" points="
  806.959,970.141 806.959,580.577 
  "/>
<polyline clip-path="url(#clip3304)" style="stroke:#000000; stroke-width:2; stroke-opacity:0.1; fill:none" points="
  1165.16,970.141 1165.16,580.577 
  "/>
<polyline clip-path="url(#clip3304)" style="stroke:#000000; stroke-width:2; stroke-opacity:0.1; fill:none" points="
  1523.36,970.141 1523.36,580.577 
  "/>
<polyline clip-path="url(#clip3304)" style="stroke:#000000; stroke-width:2; stroke-opacity:0.1; fill:none" points="
  1881.56,970.141 1881.56,580.577 
  "/>
<polyline clip-path="url(#clip3304)" style="stroke:#000000; stroke-width:2; stroke-opacity:0.1; fill:none" points="
  2239.76,970.141 2239.76,580.577 
  "/>
<polyline clip-path="url(#clip3304)" style="stroke:#000000; stroke-width:2; stroke-opacity:0.1; fill:none" points="
  188.156,959.116 2321.26,959.116 
  "/>
<polyline clip-path="url(#clip3304)" style="stroke:#000000; stroke-width:2; stroke-opacity:0.1; fill:none" points="
  188.156,877.771 2321.26,877.771 
  "/>
<polyline clip-path="url(#clip3304)" style="stroke:#000000; stroke-width:2; stroke-opacity:0.1; fill:none" points="
  188.156,796.426 2321.26,796.426 
  "/>
<polyline clip-path="url(#clip3304)" style="stroke:#000000; stroke-width:2; stroke-opacity:0.1; fill:none" points="
  188.156,715.081 2321.26,715.081 
  "/>
<polyline clip-path="url(#clip3304)" style="stroke:#000000; stroke-width:2; stroke-opacity:0.1; fill:none" points="
  188.156,633.736 2321.26,633.736 
  "/>
<polyline clip-path="url(#clip3301)" style="stroke:#000000; stroke-width:4; stroke-opacity:1; fill:none" points="
  188.156,970.141 2321.26,970.141 
  "/>
<polyline clip-path="url(#clip3301)" style="stroke:#000000; stroke-width:4; stroke-opacity:1; fill:none" points="
  188.156,970.141 188.156,580.577 
  "/>
<polyline clip-path="url(#clip3301)" style="stroke:#000000; stroke-width:4; stroke-opacity:1; fill:none" points="
  448.76,970.141 448.76,964.298 
  "/>
<polyline clip-path="url(#clip3301)" style="stroke:#000000; stroke-width:4; stroke-opacity:1; fill:none" points="
  806.959,970.141 806.959,964.298 
  "/>
<polyline clip-path="url(#clip3301)" style="stroke:#000000; stroke-width:4; stroke-opacity:1; fill:none" points="
  1165.16,970.141 1165.16,964.298 
  "/>
<polyline clip-path="url(#clip3301)" style="stroke:#000000; stroke-width:4; stroke-opacity:1; fill:none" points="
  1523.36,970.141 1523.36,964.298 
  "/>
<polyline clip-path="url(#clip3301)" style="stroke:#000000; stroke-width:4; stroke-opacity:1; fill:none" points="
  1881.56,970.141 1881.56,964.298 
  "/>
<polyline clip-path="url(#clip3301)" style="stroke:#000000; stroke-width:4; stroke-opacity:1; fill:none" points="
  2239.76,970.141 2239.76,964.298 
  "/>
<polyline clip-path="url(#clip3301)" style="stroke:#000000; stroke-width:4; stroke-opacity:1; fill:none" points="
  188.156,959.116 220.153,959.116 
  "/>
<polyline clip-path="url(#clip3301)" style="stroke:#000000; stroke-width:4; stroke-opacity:1; fill:none" points="
  188.156,877.771 220.153,877.771 
  "/>
<polyline clip-path="url(#clip3301)" style="stroke:#000000; stroke-width:4; stroke-opacity:1; fill:none" points="
  188.156,796.426 220.153,796.426 
  "/>
<polyline clip-path="url(#clip3301)" style="stroke:#000000; stroke-width:4; stroke-opacity:1; fill:none" points="
  188.156,715.081 220.153,715.081 
  "/>
<polyline clip-path="url(#clip3301)" style="stroke:#000000; stroke-width:4; stroke-opacity:1; fill:none" points="
  188.156,633.736 220.153,633.736 
  "/>
<g clip-path="url(#clip3301)">
<text style="fill:#000000; fill-opacity:1; font-family:Arial,Helvetica Neue,Helvetica,sans-serif; font-size:48px; text-anchor:middle;" transform="rotate(0, 448.76, 1024.14)" x="448.76" y="1024.14">-15</text>
</g>
<g clip-path="url(#clip3301)">
<text style="fill:#000000; fill-opacity:1; font-family:Arial,Helvetica Neue,Helvetica,sans-serif; font-size:48px; text-anchor:middle;" transform="rotate(0, 806.959, 1024.14)" x="806.959" y="1024.14">-10</text>
</g>
<g clip-path="url(#clip3301)">
<text style="fill:#000000; fill-opacity:1; font-family:Arial,Helvetica Neue,Helvetica,sans-serif; font-size:48px; text-anchor:middle;" transform="rotate(0, 1165.16, 1024.14)" x="1165.16" y="1024.14">-5</text>
</g>
<g clip-path="url(#clip3301)">
<text style="fill:#000000; fill-opacity:1; font-family:Arial,Helvetica Neue,Helvetica,sans-serif; font-size:48px; text-anchor:middle;" transform="rotate(0, 1523.36, 1024.14)" x="1523.36" y="1024.14">0</text>
</g>
<g clip-path="url(#clip3301)">
<text style="fill:#000000; fill-opacity:1; font-family:Arial,Helvetica Neue,Helvetica,sans-serif; font-size:48px; text-anchor:middle;" transform="rotate(0, 1881.56, 1024.14)" x="1881.56" y="1024.14">5</text>
</g>
<g clip-path="url(#clip3301)">
<text style="fill:#000000; fill-opacity:1; font-family:Arial,Helvetica Neue,Helvetica,sans-serif; font-size:48px; text-anchor:middle;" transform="rotate(0, 2239.76, 1024.14)" x="2239.76" y="1024.14">10</text>
</g>
<g clip-path="url(#clip3301)">
<text style="fill:#000000; fill-opacity:1; font-family:Arial,Helvetica Neue,Helvetica,sans-serif; font-size:48px; text-anchor:end;" transform="rotate(0, 164.156, 976.616)" x="164.156" y="976.616">0.00</text>
</g>
<g clip-path="url(#clip3301)">
<text style="fill:#000000; fill-opacity:1; font-family:Arial,Helvetica Neue,Helvetica,sans-serif; font-size:48px; text-anchor:end;" transform="rotate(0, 164.156, 895.271)" x="164.156" y="895.271">0.05</text>
</g>
<g clip-path="url(#clip3301)">
<text style="fill:#000000; fill-opacity:1; font-family:Arial,Helvetica Neue,Helvetica,sans-serif; font-size:48px; text-anchor:end;" transform="rotate(0, 164.156, 813.926)" x="164.156" y="813.926">0.10</text>
</g>
<g clip-path="url(#clip3301)">
<text style="fill:#000000; fill-opacity:1; font-family:Arial,Helvetica Neue,Helvetica,sans-serif; font-size:48px; text-anchor:end;" transform="rotate(0, 164.156, 732.581)" x="164.156" y="732.581">0.15</text>
</g>
<g clip-path="url(#clip3301)">
<text style="fill:#000000; fill-opacity:1; font-family:Arial,Helvetica Neue,Helvetica,sans-serif; font-size:48px; text-anchor:end;" transform="rotate(0, 164.156, 651.236)" x="164.156" y="651.236">0.20</text>
</g>
<polygon clip-path="url(#clip3304)" points="
305.481,957.578 305.481,959.116 341.301,959.116 341.301,957.578 305.481,957.578 305.481,957.578 
  " fill="#009af9" fill-rule="evenodd" fill-opacity="1"/>
<polyline clip-path="url(#clip3304)" style="stroke:#000000; stroke-width:4; stroke-opacity:1; fill:none" points="
  305.481,957.578 305.481,959.116 341.301,959.116 341.301,957.578 305.481,957.578 
  "/>
<polygon clip-path="url(#clip3304)" points="
341.301,959.116 341.301,959.116 377.121,959.116 377.121,959.116 341.301,959.116 341.301,959.116 
  " fill="#009af9" fill-rule="evenodd" fill-opacity="1"/>
<polyline clip-path="url(#clip3304)" style="stroke:#000000; stroke-width:4; stroke-opacity:1; fill:none" points="
  341.301,959.116 341.301,959.116 377.121,959.116 341.301,959.116 
  "/>
<polygon clip-path="url(#clip3304)" points="
377.121,959.116 377.121,959.116 412.941,959.116 412.941,959.116 377.121,959.116 377.121,959.116 
  " fill="#009af9" fill-rule="evenodd" fill-opacity="1"/>
<polyline clip-path="url(#clip3304)" style="stroke:#000000; stroke-width:4; stroke-opacity:1; fill:none" points="
  377.121,959.116 377.121,959.116 412.941,959.116 377.121,959.116 
  "/>
<polygon clip-path="url(#clip3304)" points="
412.941,959.116 412.941,959.116 448.76,959.116 448.76,959.116 412.941,959.116 412.941,959.116 
  " fill="#009af9" fill-rule="evenodd" fill-opacity="1"/>
<polyline clip-path="url(#clip3304)" style="stroke:#000000; stroke-width:4; stroke-opacity:1; fill:none" points="
  412.941,959.116 412.941,959.116 448.76,959.116 412.941,959.116 
  "/>
<polygon clip-path="url(#clip3304)" points="
448.76,959.116 448.76,959.116 484.58,959.116 484.58,959.116 448.76,959.116 448.76,959.116 
  " fill="#009af9" fill-rule="evenodd" fill-opacity="1"/>
<polyline clip-path="url(#clip3304)" style="stroke:#000000; stroke-width:4; stroke-opacity:1; fill:none" points="
  448.76,959.116 448.76,959.116 484.58,959.116 448.76,959.116 
  "/>
<polygon clip-path="url(#clip3304)" points="
484.58,959.116 484.58,959.116 520.4,959.116 520.4,959.116 484.58,959.116 484.58,959.116 
  " fill="#009af9" fill-rule="evenodd" fill-opacity="1"/>
<polyline clip-path="url(#clip3304)" style="stroke:#000000; stroke-width:4; stroke-opacity:1; fill:none" points="
  484.58,959.116 484.58,959.116 520.4,959.116 484.58,959.116 
  "/>
<polygon clip-path="url(#clip3304)" points="
520.4,959.116 520.4,959.116 556.22,959.116 556.22,959.116 520.4,959.116 520.4,959.116 
  " fill="#009af9" fill-rule="evenodd" fill-opacity="1"/>
<polyline clip-path="url(#clip3304)" style="stroke:#000000; stroke-width:4; stroke-opacity:1; fill:none" points="
  520.4,959.116 520.4,959.116 556.22,959.116 520.4,959.116 
  "/>
<polygon clip-path="url(#clip3304)" points="
556.22,959.116 556.22,959.116 592.04,959.116 592.04,959.116 556.22,959.116 556.22,959.116 
  " fill="#009af9" fill-rule="evenodd" fill-opacity="1"/>
<polyline clip-path="url(#clip3304)" style="stroke:#000000; stroke-width:4; stroke-opacity:1; fill:none" points="
  556.22,959.116 556.22,959.116 592.04,959.116 556.22,959.116 
  "/>
<polygon clip-path="url(#clip3304)" points="
592.04,959.116 592.04,959.116 627.86,959.116 627.86,959.116 592.04,959.116 592.04,959.116 
  " fill="#009af9" fill-rule="evenodd" fill-opacity="1"/>
<polyline clip-path="url(#clip3304)" style="stroke:#000000; stroke-width:4; stroke-opacity:1; fill:none" points="
  592.04,959.116 592.04,959.116 627.86,959.116 592.04,959.116 
  "/>
<polygon clip-path="url(#clip3304)" points="
627.86,959.116 627.86,959.116 663.68,959.116 663.68,959.116 627.86,959.116 627.86,959.116 
  " fill="#009af9" fill-rule="evenodd" fill-opacity="1"/>
<polyline clip-path="url(#clip3304)" style="stroke:#000000; stroke-width:4; stroke-opacity:1; fill:none" points="
  627.86,959.116 627.86,959.116 663.68,959.116 627.86,959.116 
  "/>
<polygon clip-path="url(#clip3304)" points="
663.68,959.116 663.68,959.116 699.5,959.116 699.5,959.116 663.68,959.116 663.68,959.116 
  " fill="#009af9" fill-rule="evenodd" fill-opacity="1"/>
<polyline clip-path="url(#clip3304)" style="stroke:#000000; stroke-width:4; stroke-opacity:1; fill:none" points="
  663.68,959.116 663.68,959.116 699.5,959.116 663.68,959.116 
  "/>
<polygon clip-path="url(#clip3304)" points="
699.5,959.116 699.5,959.116 735.32,959.116 735.32,959.116 699.5,959.116 699.5,959.116 
  " fill="#009af9" fill-rule="evenodd" fill-opacity="1"/>
<polyline clip-path="url(#clip3304)" style="stroke:#000000; stroke-width:4; stroke-opacity:1; fill:none" points="
  699.5,959.116 699.5,959.116 735.32,959.116 699.5,959.116 
  "/>
<polygon clip-path="url(#clip3304)" points="
735.32,957.578 735.32,959.116 771.14,959.116 771.14,957.578 735.32,957.578 735.32,957.578 
  " fill="#009af9" fill-rule="evenodd" fill-opacity="1"/>
<polyline clip-path="url(#clip3304)" style="stroke:#000000; stroke-width:4; stroke-opacity:1; fill:none" points="
  735.32,957.578 735.32,959.116 771.14,959.116 771.14,957.578 735.32,957.578 
  "/>
<polygon clip-path="url(#clip3304)" points="
771.14,959.116 771.14,959.116 806.959,959.116 806.959,959.116 771.14,959.116 771.14,959.116 
  " fill="#009af9" fill-rule="evenodd" fill-opacity="1"/>
<polyline clip-path="url(#clip3304)" style="stroke:#000000; stroke-width:4; stroke-opacity:1; fill:none" points="
  771.14,959.116 771.14,959.116 806.959,959.116 771.14,959.116 
  "/>
<polygon clip-path="url(#clip3304)" points="
806.959,959.116 806.959,959.116 842.779,959.116 842.779,959.116 806.959,959.116 806.959,959.116 
  " fill="#009af9" fill-rule="evenodd" fill-opacity="1"/>
<polyline clip-path="url(#clip3304)" style="stroke:#000000; stroke-width:4; stroke-opacity:1; fill:none" points="
  806.959,959.116 806.959,959.116 842.779,959.116 806.959,959.116 
  "/>
<polygon clip-path="url(#clip3304)" points="
842.779,959.116 842.779,959.116 878.599,959.116 878.599,959.116 842.779,959.116 842.779,959.116 
  " fill="#009af9" fill-rule="evenodd" fill-opacity="1"/>
<polyline clip-path="url(#clip3304)" style="stroke:#000000; stroke-width:4; stroke-opacity:1; fill:none" points="
  842.779,959.116 842.779,959.116 878.599,959.116 842.779,959.116 
  "/>
<polygon clip-path="url(#clip3304)" points="
878.599,957.578 878.599,959.116 914.419,959.116 914.419,957.578 878.599,957.578 878.599,957.578 
  " fill="#009af9" fill-rule="evenodd" fill-opacity="1"/>
<polyline clip-path="url(#clip3304)" style="stroke:#000000; stroke-width:4; stroke-opacity:1; fill:none" points="
  878.599,957.578 878.599,959.116 914.419,959.116 914.419,957.578 878.599,957.578 
  "/>
<polygon clip-path="url(#clip3304)" points="
914.419,959.116 914.419,959.116 950.239,959.116 950.239,959.116 914.419,959.116 914.419,959.116 
  " fill="#009af9" fill-rule="evenodd" fill-opacity="1"/>
<polyline clip-path="url(#clip3304)" style="stroke:#000000; stroke-width:4; stroke-opacity:1; fill:none" points="
  914.419,959.116 914.419,959.116 950.239,959.116 914.419,959.116 
  "/>
<polygon clip-path="url(#clip3304)" points="
950.239,959.116 950.239,959.116 986.059,959.116 986.059,959.116 950.239,959.116 950.239,959.116 
  " fill="#009af9" fill-rule="evenodd" fill-opacity="1"/>
<polyline clip-path="url(#clip3304)" style="stroke:#000000; stroke-width:4; stroke-opacity:1; fill:none" points="
  950.239,959.116 950.239,959.116 986.059,959.116 950.239,959.116 
  "/>
<polygon clip-path="url(#clip3304)" points="
986.059,954.503 986.059,959.116 1021.88,959.116 1021.88,954.503 986.059,954.503 986.059,954.503 
  " fill="#009af9" fill-rule="evenodd" fill-opacity="1"/>
<polyline clip-path="url(#clip3304)" style="stroke:#000000; stroke-width:4; stroke-opacity:1; fill:none" points="
  986.059,954.503 986.059,959.116 1021.88,959.116 1021.88,954.503 986.059,954.503 
  "/>
<polygon clip-path="url(#clip3304)" points="
1021.88,949.89 1021.88,959.116 1057.7,959.116 1057.7,949.89 1021.88,949.89 1021.88,949.89 
  " fill="#009af9" fill-rule="evenodd" fill-opacity="1"/>
<polyline clip-path="url(#clip3304)" style="stroke:#000000; stroke-width:4; stroke-opacity:1; fill:none" points="
  1021.88,949.89 1021.88,959.116 1057.7,959.116 1057.7,949.89 1021.88,949.89 
  "/>
<polygon clip-path="url(#clip3304)" points="
1057.7,957.578 1057.7,959.116 1093.52,959.116 1093.52,957.578 1057.7,957.578 1057.7,957.578 
  " fill="#009af9" fill-rule="evenodd" fill-opacity="1"/>
<polyline clip-path="url(#clip3304)" style="stroke:#000000; stroke-width:4; stroke-opacity:1; fill:none" points="
  1057.7,957.578 1057.7,959.116 1093.52,959.116 1093.52,957.578 1057.7,957.578 
  "/>
<polygon clip-path="url(#clip3304)" points="
1093.52,954.503 1093.52,959.116 1129.34,959.116 1129.34,954.503 1093.52,954.503 1093.52,954.503 
  " fill="#009af9" fill-rule="evenodd" fill-opacity="1"/>
<polyline clip-path="url(#clip3304)" style="stroke:#000000; stroke-width:4; stroke-opacity:1; fill:none" points="
  1093.52,954.503 1093.52,959.116 1129.34,959.116 1129.34,954.503 1093.52,954.503 
  "/>
<polygon clip-path="url(#clip3304)" points="
1129.34,949.89 1129.34,959.116 1165.16,959.116 1165.16,949.89 1129.34,949.89 1129.34,949.89 
  " fill="#009af9" fill-rule="evenodd" fill-opacity="1"/>
<polyline clip-path="url(#clip3304)" style="stroke:#000000; stroke-width:4; stroke-opacity:1; fill:none" points="
  1129.34,949.89 1129.34,959.116 1165.16,959.116 1165.16,949.89 1129.34,949.89 
  "/>
<polygon clip-path="url(#clip3304)" points="
1165.16,942.201 1165.16,959.116 1200.98,959.116 1200.98,942.201 1165.16,942.201 1165.16,942.201 
  " fill="#009af9" fill-rule="evenodd" fill-opacity="1"/>
<polyline clip-path="url(#clip3304)" style="stroke:#000000; stroke-width:4; stroke-opacity:1; fill:none" points="
  1165.16,942.201 1165.16,959.116 1200.98,959.116 1200.98,942.201 1165.16,942.201 
  "/>
<polygon clip-path="url(#clip3304)" points="
1200.98,920.673 1200.98,959.116 1236.8,959.116 1236.8,920.673 1200.98,920.673 1200.98,920.673 
  " fill="#009af9" fill-rule="evenodd" fill-opacity="1"/>
<polyline clip-path="url(#clip3304)" style="stroke:#000000; stroke-width:4; stroke-opacity:1; fill:none" points="
  1200.98,920.673 1200.98,959.116 1236.8,959.116 1236.8,920.673 1200.98,920.673 
  "/>
<polygon clip-path="url(#clip3304)" points="
1236.8,903.758 1236.8,959.116 1272.62,959.116 1272.62,903.758 1236.8,903.758 1236.8,903.758 
  " fill="#009af9" fill-rule="evenodd" fill-opacity="1"/>
<polyline clip-path="url(#clip3304)" style="stroke:#000000; stroke-width:4; stroke-opacity:1; fill:none" points="
  1236.8,903.758 1236.8,959.116 1272.62,959.116 1272.62,903.758 1236.8,903.758 
  "/>
<polygon clip-path="url(#clip3304)" points="
1272.62,894.532 1272.62,959.116 1308.44,959.116 1308.44,894.532 1272.62,894.532 1272.62,894.532 
  " fill="#009af9" fill-rule="evenodd" fill-opacity="1"/>
<polyline clip-path="url(#clip3304)" style="stroke:#000000; stroke-width:4; stroke-opacity:1; fill:none" points="
  1272.62,894.532 1272.62,959.116 1308.44,959.116 1308.44,894.532 1272.62,894.532 
  "/>
<polygon clip-path="url(#clip3304)" points="
1308.44,866.853 1308.44,959.116 1344.26,959.116 1344.26,866.853 1308.44,866.853 1308.44,866.853 
  " fill="#009af9" fill-rule="evenodd" fill-opacity="1"/>
<polyline clip-path="url(#clip3304)" style="stroke:#000000; stroke-width:4; stroke-opacity:1; fill:none" points="
  1308.44,866.853 1308.44,959.116 1344.26,959.116 1344.26,866.853 1308.44,866.853 
  "/>
<polygon clip-path="url(#clip3304)" points="
1344.26,826.873 1344.26,959.116 1380.08,959.116 1380.08,826.873 1344.26,826.873 1344.26,826.873 
  " fill="#009af9" fill-rule="evenodd" fill-opacity="1"/>
<polyline clip-path="url(#clip3304)" style="stroke:#000000; stroke-width:4; stroke-opacity:1; fill:none" points="
  1344.26,826.873 1344.26,959.116 1380.08,959.116 1380.08,826.873 1344.26,826.873 
  "/>
<polygon clip-path="url(#clip3304)" points="
1380.08,777.666 1380.08,959.116 1415.9,959.116 1415.9,777.666 1380.08,777.666 1380.08,777.666 
  " fill="#009af9" fill-rule="evenodd" fill-opacity="1"/>
<polyline clip-path="url(#clip3304)" style="stroke:#000000; stroke-width:4; stroke-opacity:1; fill:none" points="
  1380.08,777.666 1380.08,959.116 1415.9,959.116 1415.9,777.666 1380.08,777.666 
  "/>
<polygon clip-path="url(#clip3304)" points="
1415.9,719.233 1415.9,959.116 1451.72,959.116 1451.72,719.233 1415.9,719.233 1415.9,719.233 
  " fill="#009af9" fill-rule="evenodd" fill-opacity="1"/>
<polyline clip-path="url(#clip3304)" style="stroke:#000000; stroke-width:4; stroke-opacity:1; fill:none" points="
  1415.9,719.233 1415.9,959.116 1451.72,959.116 1451.72,719.233 1415.9,719.233 
  "/>
<polygon clip-path="url(#clip3304)" points="
1451.72,683.866 1451.72,959.116 1487.54,959.116 1487.54,683.866 1451.72,683.866 1451.72,683.866 
  " fill="#009af9" fill-rule="evenodd" fill-opacity="1"/>
<polyline clip-path="url(#clip3304)" style="stroke:#000000; stroke-width:4; stroke-opacity:1; fill:none" points="
  1451.72,683.866 1451.72,959.116 1487.54,959.116 1487.54,683.866 1451.72,683.866 
  "/>
<polygon clip-path="url(#clip3304)" points="
1487.54,637.734 1487.54,959.116 1523.36,959.116 1523.36,637.734 1487.54,637.734 1487.54,637.734 
  " fill="#009af9" fill-rule="evenodd" fill-opacity="1"/>
<polyline clip-path="url(#clip3304)" style="stroke:#000000; stroke-width:4; stroke-opacity:1; fill:none" points="
  1487.54,637.734 1487.54,959.116 1523.36,959.116 1523.36,637.734 1487.54,637.734 
  "/>
<polygon clip-path="url(#clip3304)" points="
1523.36,619.282 1523.36,959.116 1559.18,959.116 1559.18,619.282 1523.36,619.282 1523.36,619.282 
  " fill="#009af9" fill-rule="evenodd" fill-opacity="1"/>
<polyline clip-path="url(#clip3304)" style="stroke:#000000; stroke-width:4; stroke-opacity:1; fill:none" points="
  1523.36,619.282 1523.36,959.116 1559.18,959.116 1559.18,619.282 1523.36,619.282 
  "/>
<polygon clip-path="url(#clip3304)" points="
1559.18,606.98 1559.18,959.116 1595,959.116 1595,606.98 1559.18,606.98 1559.18,606.98 
  " fill="#009af9" fill-rule="evenodd" fill-opacity="1"/>
<polyline clip-path="url(#clip3304)" style="stroke:#000000; stroke-width:4; stroke-opacity:1; fill:none" points="
  1559.18,606.98 1559.18,959.116 1595,959.116 1595,606.98 1559.18,606.98 
  "/>
<polygon clip-path="url(#clip3304)" points="
1595,591.603 1595,959.116 1630.82,959.116 1630.82,591.603 1595,591.603 1595,591.603 
  " fill="#009af9" fill-rule="evenodd" fill-opacity="1"/>
<polyline clip-path="url(#clip3304)" style="stroke:#000000; stroke-width:4; stroke-opacity:1; fill:none" points="
  1595,591.603 1595,959.116 1630.82,959.116 1630.82,591.603 1595,591.603 
  "/>
<polygon clip-path="url(#clip3304)" points="
1630.82,674.639 1630.82,959.116 1666.64,959.116 1666.64,674.639 1630.82,674.639 1630.82,674.639 
  " fill="#009af9" fill-rule="evenodd" fill-opacity="1"/>
<polyline clip-path="url(#clip3304)" style="stroke:#000000; stroke-width:4; stroke-opacity:1; fill:none" points="
  1630.82,674.639 1630.82,959.116 1666.64,959.116 1666.64,674.639 1630.82,674.639 
  "/>
<polygon clip-path="url(#clip3304)" points="
1666.64,803.807 1666.64,959.116 1702.46,959.116 1702.46,803.807 1666.64,803.807 1666.64,803.807 
  " fill="#009af9" fill-rule="evenodd" fill-opacity="1"/>
<polyline clip-path="url(#clip3304)" style="stroke:#000000; stroke-width:4; stroke-opacity:1; fill:none" points="
  1666.64,803.807 1666.64,959.116 1702.46,959.116 1702.46,803.807 1666.64,803.807 
  "/>
<polygon clip-path="url(#clip3304)" points="
1702.46,865.316 1702.46,959.116 1738.28,959.116 1738.28,865.316 1702.46,865.316 1702.46,865.316 
  " fill="#009af9" fill-rule="evenodd" fill-opacity="1"/>
<polyline clip-path="url(#clip3304)" style="stroke:#000000; stroke-width:4; stroke-opacity:1; fill:none" points="
  1702.46,865.316 1702.46,959.116 1738.28,959.116 1738.28,865.316 1702.46,865.316 
  "/>
<polygon clip-path="url(#clip3304)" points="
1738.28,879.155 1738.28,959.116 1774.1,959.116 1774.1,879.155 1738.28,879.155 1738.28,879.155 
  " fill="#009af9" fill-rule="evenodd" fill-opacity="1"/>
<polyline clip-path="url(#clip3304)" style="stroke:#000000; stroke-width:4; stroke-opacity:1; fill:none" points="
  1738.28,879.155 1738.28,959.116 1774.1,959.116 1774.1,879.155 1738.28,879.155 
  "/>
<polygon clip-path="url(#clip3304)" points="
1774.1,911.447 1774.1,959.116 1809.92,959.116 1809.92,911.447 1774.1,911.447 1774.1,911.447 
  " fill="#009af9" fill-rule="evenodd" fill-opacity="1"/>
<polyline clip-path="url(#clip3304)" style="stroke:#000000; stroke-width:4; stroke-opacity:1; fill:none" points="
  1774.1,911.447 1774.1,959.116 1809.92,959.116 1809.92,911.447 1774.1,911.447 
  "/>
<polygon clip-path="url(#clip3304)" points="
1809.92,922.211 1809.92,959.116 1845.74,959.116 1845.74,922.211 1809.92,922.211 1809.92,922.211 
  " fill="#009af9" fill-rule="evenodd" fill-opacity="1"/>
<polyline clip-path="url(#clip3304)" style="stroke:#000000; stroke-width:4; stroke-opacity:1; fill:none" points="
  1809.92,922.211 1809.92,959.116 1845.74,959.116 1845.74,922.211 1809.92,922.211 
  "/>
<polygon clip-path="url(#clip3304)" points="
1845.74,948.352 1845.74,959.116 1881.56,959.116 1881.56,948.352 1845.74,948.352 1845.74,948.352 
  " fill="#009af9" fill-rule="evenodd" fill-opacity="1"/>
<polyline clip-path="url(#clip3304)" style="stroke:#000000; stroke-width:4; stroke-opacity:1; fill:none" points="
  1845.74,948.352 1845.74,959.116 1881.56,959.116 1881.56,948.352 1845.74,948.352 
  "/>
<polygon clip-path="url(#clip3304)" points="
1881.56,951.427 1881.56,959.116 1917.38,959.116 1917.38,951.427 1881.56,951.427 1881.56,951.427 
  " fill="#009af9" fill-rule="evenodd" fill-opacity="1"/>
<polyline clip-path="url(#clip3304)" style="stroke:#000000; stroke-width:4; stroke-opacity:1; fill:none" points="
  1881.56,951.427 1881.56,959.116 1917.38,959.116 1917.38,951.427 1881.56,951.427 
  "/>
<polygon clip-path="url(#clip3304)" points="
1917.38,949.89 1917.38,959.116 1953.2,959.116 1953.2,949.89 1917.38,949.89 1917.38,949.89 
  " fill="#009af9" fill-rule="evenodd" fill-opacity="1"/>
<polyline clip-path="url(#clip3304)" style="stroke:#000000; stroke-width:4; stroke-opacity:1; fill:none" points="
  1917.38,949.89 1917.38,959.116 1953.2,959.116 1953.2,949.89 1917.38,949.89 
  "/>
<polygon clip-path="url(#clip3304)" points="
1953.2,956.041 1953.2,959.116 1989.02,959.116 1989.02,956.041 1953.2,956.041 1953.2,956.041 
  " fill="#009af9" fill-rule="evenodd" fill-opacity="1"/>
<polyline clip-path="url(#clip3304)" style="stroke:#000000; stroke-width:4; stroke-opacity:1; fill:none" points="
  1953.2,956.041 1953.2,959.116 1989.02,959.116 1989.02,956.041 1953.2,956.041 
  "/>
<polygon clip-path="url(#clip3304)" points="
1989.02,956.041 1989.02,959.116 2024.84,959.116 2024.84,956.041 1989.02,956.041 1989.02,956.041 
  " fill="#009af9" fill-rule="evenodd" fill-opacity="1"/>
<polyline clip-path="url(#clip3304)" style="stroke:#000000; stroke-width:4; stroke-opacity:1; fill:none" points="
  1989.02,956.041 1989.02,959.116 2024.84,959.116 2024.84,956.041 1989.02,956.041 
  "/>
<polygon clip-path="url(#clip3304)" points="
2024.84,957.578 2024.84,959.116 2060.66,959.116 2060.66,957.578 2024.84,957.578 2024.84,957.578 
  " fill="#009af9" fill-rule="evenodd" fill-opacity="1"/>
<polyline clip-path="url(#clip3304)" style="stroke:#000000; stroke-width:4; stroke-opacity:1; fill:none" points="
  2024.84,957.578 2024.84,959.116 2060.66,959.116 2060.66,957.578 2024.84,957.578 
  "/>
<polygon clip-path="url(#clip3304)" points="
2060.66,956.041 2060.66,959.116 2096.48,959.116 2096.48,956.041 2060.66,956.041 2060.66,956.041 
  " fill="#009af9" fill-rule="evenodd" fill-opacity="1"/>
<polyline clip-path="url(#clip3304)" style="stroke:#000000; stroke-width:4; stroke-opacity:1; fill:none" points="
  2060.66,956.041 2060.66,959.116 2096.48,959.116 2096.48,956.041 2060.66,956.041 
  "/>
<polygon clip-path="url(#clip3304)" points="
2096.48,954.503 2096.48,959.116 2132.3,959.116 2132.3,954.503 2096.48,954.503 2096.48,954.503 
  " fill="#009af9" fill-rule="evenodd" fill-opacity="1"/>
<polyline clip-path="url(#clip3304)" style="stroke:#000000; stroke-width:4; stroke-opacity:1; fill:none" points="
  2096.48,954.503 2096.48,959.116 2132.3,959.116 2132.3,954.503 2096.48,954.503 
  "/>
<polygon clip-path="url(#clip3304)" points="
2132.3,959.116 2132.3,959.116 2168.12,959.116 2168.12,959.116 2132.3,959.116 2132.3,959.116 
  " fill="#009af9" fill-rule="evenodd" fill-opacity="1"/>
<polyline clip-path="url(#clip3304)" style="stroke:#000000; stroke-width:4; stroke-opacity:1; fill:none" points="
  2132.3,959.116 2132.3,959.116 2168.12,959.116 2132.3,959.116 
  "/>
<polygon clip-path="url(#clip3304)" points="
2168.12,957.578 2168.12,959.116 2203.94,959.116 2203.94,957.578 2168.12,957.578 2168.12,957.578 
  " fill="#009af9" fill-rule="evenodd" fill-opacity="1"/>
<polyline clip-path="url(#clip3304)" style="stroke:#000000; stroke-width:4; stroke-opacity:1; fill:none" points="
  2168.12,957.578 2168.12,959.116 2203.94,959.116 2203.94,957.578 2168.12,957.578 
  "/>
<polyline clip-path="url(#clip3304)" style="stroke:#e26f46; stroke-width:4; stroke-opacity:1; fill:none" points="
  988.944,958.759 994.306,958.708 1043.88,957.803 1093.46,955.343 1123.25,952.377 1153.05,947.56 1178.24,941.455 1203.43,932.9 1217.11,927.02 1230.79,920.157 
  1244.47,912.231 1258.15,903.175 1270.77,893.784 1283.38,883.371 1295.99,871.936 1308.61,859.506 1335.65,829.773 1362.7,796.708 1394.03,756.385 1425.37,717.198 
  1439.29,701.192 1453.21,686.562 1467.14,673.653 1481.06,662.78 1493.27,655.139 1505.48,649.426 1517.69,645.757 1529.9,644.206 1543.21,644.964 1556.52,648.258 
  1569.83,654.009 1583.15,662.078 1596.54,672.342 1609.93,684.52 1623.32,698.335 1636.71,713.485 1666.32,750.128 1695.93,788.317 1724.1,823.321 1752.28,855.013 
  1766.92,869.743 1781.57,883.14 1796.22,895.161 1810.87,905.808 1835.53,920.746 1860.18,932.257 1890.29,942.385 1920.4,949.118 1948.7,953.184 1977,955.723 
  2022.34,957.832 2067.68,958.674 2074.66,958.744 
  "/>
<polygon clip-path="url(#clip3301)" points="
188.156,1503.47 2321.26,1503.47 2321.26,1113.91 188.156,1113.91 
  " fill="#ffffff" fill-rule="evenodd" fill-opacity="1"/>
<defs>
  <clipPath id="clip3305">
    <rect x="188" y="1113" width="2134" height="391"/>
  </clipPath>
</defs>
<polyline clip-path="url(#clip3305)" style="stroke:#000000; stroke-width:2; stroke-opacity:0.1; fill:none" points="
  374.942,1503.47 374.942,1113.91 
  "/>
<polyline clip-path="url(#clip3305)" style="stroke:#000000; stroke-width:2; stroke-opacity:0.1; fill:none" points="
  762.376,1503.47 762.376,1113.91 
  "/>
<polyline clip-path="url(#clip3305)" style="stroke:#000000; stroke-width:2; stroke-opacity:0.1; fill:none" points="
  1149.81,1503.47 1149.81,1113.91 
  "/>
<polyline clip-path="url(#clip3305)" style="stroke:#000000; stroke-width:2; stroke-opacity:0.1; fill:none" points="
  1537.24,1503.47 1537.24,1113.91 
  "/>
<polyline clip-path="url(#clip3305)" style="stroke:#000000; stroke-width:2; stroke-opacity:0.1; fill:none" points="
  1924.68,1503.47 1924.68,1113.91 
  "/>
<polyline clip-path="url(#clip3305)" style="stroke:#000000; stroke-width:2; stroke-opacity:0.1; fill:none" points="
  2312.11,1503.47 2312.11,1113.91 
  "/>
<polyline clip-path="url(#clip3305)" style="stroke:#000000; stroke-width:2; stroke-opacity:0.1; fill:none" points="
  188.156,1492.45 2321.26,1492.45 
  "/>
<polyline clip-path="url(#clip3305)" style="stroke:#000000; stroke-width:2; stroke-opacity:0.1; fill:none" points="
  188.156,1407.49 2321.26,1407.49 
  "/>
<polyline clip-path="url(#clip3305)" style="stroke:#000000; stroke-width:2; stroke-opacity:0.1; fill:none" points="
  188.156,1322.54 2321.26,1322.54 
  "/>
<polyline clip-path="url(#clip3305)" style="stroke:#000000; stroke-width:2; stroke-opacity:0.1; fill:none" points="
  188.156,1237.58 2321.26,1237.58 
  "/>
<polyline clip-path="url(#clip3305)" style="stroke:#000000; stroke-width:2; stroke-opacity:0.1; fill:none" points="
  188.156,1152.62 2321.26,1152.62 
  "/>
<polyline clip-path="url(#clip3301)" style="stroke:#000000; stroke-width:4; stroke-opacity:1; fill:none" points="
  188.156,1503.47 2321.26,1503.47 
  "/>
<polyline clip-path="url(#clip3301)" style="stroke:#000000; stroke-width:4; stroke-opacity:1; fill:none" points="
  188.156,1503.47 188.156,1113.91 
  "/>
<polyline clip-path="url(#clip3301)" style="stroke:#000000; stroke-width:4; stroke-opacity:1; fill:none" points="
  374.942,1503.47 374.942,1497.63 
  "/>
<polyline clip-path="url(#clip3301)" style="stroke:#000000; stroke-width:4; stroke-opacity:1; fill:none" points="
  762.376,1503.47 762.376,1497.63 
  "/>
<polyline clip-path="url(#clip3301)" style="stroke:#000000; stroke-width:4; stroke-opacity:1; fill:none" points="
  1149.81,1503.47 1149.81,1497.63 
  "/>
<polyline clip-path="url(#clip3301)" style="stroke:#000000; stroke-width:4; stroke-opacity:1; fill:none" points="
  1537.24,1503.47 1537.24,1497.63 
  "/>
<polyline clip-path="url(#clip3301)" style="stroke:#000000; stroke-width:4; stroke-opacity:1; fill:none" points="
  1924.68,1503.47 1924.68,1497.63 
  "/>
<polyline clip-path="url(#clip3301)" style="stroke:#000000; stroke-width:4; stroke-opacity:1; fill:none" points="
  2312.11,1503.47 2312.11,1497.63 
  "/>
<polyline clip-path="url(#clip3301)" style="stroke:#000000; stroke-width:4; stroke-opacity:1; fill:none" points="
  188.156,1492.45 220.153,1492.45 
  "/>
<polyline clip-path="url(#clip3301)" style="stroke:#000000; stroke-width:4; stroke-opacity:1; fill:none" points="
  188.156,1407.49 220.153,1407.49 
  "/>
<polyline clip-path="url(#clip3301)" style="stroke:#000000; stroke-width:4; stroke-opacity:1; fill:none" points="
  188.156,1322.54 220.153,1322.54 
  "/>
<polyline clip-path="url(#clip3301)" style="stroke:#000000; stroke-width:4; stroke-opacity:1; fill:none" points="
  188.156,1237.58 220.153,1237.58 
  "/>
<polyline clip-path="url(#clip3301)" style="stroke:#000000; stroke-width:4; stroke-opacity:1; fill:none" points="
  188.156,1152.62 220.153,1152.62 
  "/>
<g clip-path="url(#clip3301)">
<text style="fill:#000000; fill-opacity:1; font-family:Arial,Helvetica Neue,Helvetica,sans-serif; font-size:48px; text-anchor:middle;" transform="rotate(0, 374.942, 1557.47)" x="374.942" y="1557.47">-15</text>
</g>
<g clip-path="url(#clip3301)">
<text style="fill:#000000; fill-opacity:1; font-family:Arial,Helvetica Neue,Helvetica,sans-serif; font-size:48px; text-anchor:middle;" transform="rotate(0, 762.376, 1557.47)" x="762.376" y="1557.47">-10</text>
</g>
<g clip-path="url(#clip3301)">
<text style="fill:#000000; fill-opacity:1; font-family:Arial,Helvetica Neue,Helvetica,sans-serif; font-size:48px; text-anchor:middle;" transform="rotate(0, 1149.81, 1557.47)" x="1149.81" y="1557.47">-5</text>
</g>
<g clip-path="url(#clip3301)">
<text style="fill:#000000; fill-opacity:1; font-family:Arial,Helvetica Neue,Helvetica,sans-serif; font-size:48px; text-anchor:middle;" transform="rotate(0, 1537.24, 1557.47)" x="1537.24" y="1557.47">0</text>
</g>
<g clip-path="url(#clip3301)">
<text style="fill:#000000; fill-opacity:1; font-family:Arial,Helvetica Neue,Helvetica,sans-serif; font-size:48px; text-anchor:middle;" transform="rotate(0, 1924.68, 1557.47)" x="1924.68" y="1557.47">5</text>
</g>
<g clip-path="url(#clip3301)">
<text style="fill:#000000; fill-opacity:1; font-family:Arial,Helvetica Neue,Helvetica,sans-serif; font-size:48px; text-anchor:middle;" transform="rotate(0, 2312.11, 1557.47)" x="2312.11" y="1557.47">10</text>
</g>
<g clip-path="url(#clip3301)">
<text style="fill:#000000; fill-opacity:1; font-family:Arial,Helvetica Neue,Helvetica,sans-serif; font-size:48px; text-anchor:end;" transform="rotate(0, 164.156, 1509.95)" x="164.156" y="1509.95">0.00</text>
</g>
<g clip-path="url(#clip3301)">
<text style="fill:#000000; fill-opacity:1; font-family:Arial,Helvetica Neue,Helvetica,sans-serif; font-size:48px; text-anchor:end;" transform="rotate(0, 164.156, 1424.99)" x="164.156" y="1424.99">0.05</text>
</g>
<g clip-path="url(#clip3301)">
<text style="fill:#000000; fill-opacity:1; font-family:Arial,Helvetica Neue,Helvetica,sans-serif; font-size:48px; text-anchor:end;" transform="rotate(0, 164.156, 1340.04)" x="164.156" y="1340.04">0.10</text>
</g>
<g clip-path="url(#clip3301)">
<text style="fill:#000000; fill-opacity:1; font-family:Arial,Helvetica Neue,Helvetica,sans-serif; font-size:48px; text-anchor:end;" transform="rotate(0, 164.156, 1255.08)" x="164.156" y="1255.08">0.15</text>
</g>
<g clip-path="url(#clip3301)">
<text style="fill:#000000; fill-opacity:1; font-family:Arial,Helvetica Neue,Helvetica,sans-serif; font-size:48px; text-anchor:end;" transform="rotate(0, 164.156, 1170.12)" x="164.156" y="1170.12">0.20</text>
</g>
<polygon clip-path="url(#clip3305)" points="
248.527,1491.56 258.908,1491.62 269.289,1491.78 279.67,1491.97 290.051,1492.15 300.432,1492.29 310.813,1492.37 321.194,1492.42 331.575,1492.44 341.956,1492.45 
  352.337,1492.45 362.718,1492.45 373.099,1492.45 383.48,1492.45 393.861,1492.45 404.242,1492.45 414.623,1492.45 425.004,1492.45 435.385,1492.45 445.766,1492.45 
  456.146,1492.45 466.527,1492.45 476.908,1492.45 487.289,1492.45 497.67,1492.45 508.051,1492.45 518.432,1492.45 528.813,1492.45 539.194,1492.45 549.575,1492.45 
  559.956,1492.45 570.337,1492.45 580.718,1492.45 591.099,1492.45 601.48,1492.45 611.861,1492.45 622.242,1492.44 632.623,1492.43 643.004,1492.39 653.385,1492.32 
  663.766,1492.2 674.147,1492.03 684.528,1491.83 694.909,1491.66 705.29,1491.57 715.671,1491.59 726.052,1491.72 736.432,1491.91 746.813,1492.1 757.194,1492.25 
  767.575,1492.35 777.956,1492.4 788.337,1492.41 798.718,1492.38 809.099,1492.31 819.48,1492.19 829.861,1492.02 840.242,1491.82 850.623,1491.65 861.004,1491.57 
  871.385,1491.59 881.766,1491.71 892.147,1491.87 902.528,1491.98 912.909,1491.97 923.29,1491.8 933.671,1491.42 944.052,1490.83 954.433,1490.03 964.814,1489.03 
  975.195,1487.92 985.576,1486.84 995.957,1485.99 1006.34,1485.55 1016.72,1485.61 1027.1,1486.09 1037.48,1486.76 1047.86,1487.39 1058.24,1487.78 1068.62,1487.9 
  1079,1487.75 1089.39,1487.35 1099.77,1486.64 1110.15,1485.58 1120.53,1484.15 1130.91,1482.34 1141.29,1480.12 1151.67,1477.45 1162.05,1474.21 1172.43,1470.39 
  1182.81,1466.02 1193.19,1461.26 1203.58,1456.27 1213.96,1451.2 1224.34,1446.2 1234.72,1441.4 1245.1,1436.93 1255.48,1432.81 1265.86,1428.82 1276.24,1424.59 
  1276.24,1492.45 1265.86,1492.45 1255.48,1492.45 1245.1,1492.45 1234.72,1492.45 1224.34,1492.45 1213.96,1492.45 1203.58,1492.45 1193.19,1492.45 1182.81,1492.45 
  1172.43,1492.45 1162.05,1492.45 1151.67,1492.45 1141.29,1492.45 1130.91,1492.45 1120.53,1492.45 1110.15,1492.45 1099.77,1492.45 1089.39,1492.45 1079,1492.45 
  1068.62,1492.45 1058.24,1492.45 1047.86,1492.45 1037.48,1492.45 1027.1,1492.45 1016.72,1492.45 1006.34,1492.45 995.957,1492.45 985.576,1492.45 975.195,1492.45 
  964.814,1492.45 954.433,1492.45 944.052,1492.45 933.671,1492.45 923.29,1492.45 912.909,1492.45 902.528,1492.45 892.147,1492.45 881.766,1492.45 871.385,1492.45 
  861.004,1492.45 850.623,1492.45 840.242,1492.45 829.861,1492.45 819.48,1492.45 809.099,1492.45 798.718,1492.45 788.337,1492.45 777.956,1492.45 767.575,1492.45 
  757.194,1492.45 746.813,1492.45 736.432,1492.45 726.052,1492.45 715.671,1492.45 705.29,1492.45 694.909,1492.45 684.528,1492.45 674.147,1492.45 663.766,1492.45 
  653.385,1492.45 643.004,1492.45 632.623,1492.45 622.242,1492.45 611.861,1492.45 601.48,1492.45 591.099,1492.45 580.718,1492.45 570.337,1492.45 559.956,1492.45 
  549.575,1492.45 539.194,1492.45 528.813,1492.45 518.432,1492.45 508.051,1492.45 497.67,1492.45 487.289,1492.45 476.908,1492.45 466.527,1492.45 456.146,1492.45 
  445.766,1492.45 435.385,1492.45 425.004,1492.45 414.623,1492.45 404.242,1492.45 393.861,1492.45 383.48,1492.45 373.099,1492.45 362.718,1492.45 352.337,1492.45 
  341.956,1492.45 331.575,1492.45 321.194,1492.45 310.813,1492.45 300.432,1492.45 290.051,1492.45 279.67,1492.45 269.289,1492.45 258.908,1492.45 248.527,1492.45 
  
  " fill="#ffa500" fill-rule="evenodd" fill-opacity="0.5"/>
<polyline clip-path="url(#clip3305)" style="stroke:#ffa500; stroke-width:4; stroke-opacity:1; fill:none" points="
  248.527,1491.56 258.908,1491.62 269.289,1491.78 279.67,1491.97 290.051,1492.15 300.432,1492.29 310.813,1492.37 321.194,1492.42 331.575,1492.44 341.956,1492.45 
  352.337,1492.45 362.718,1492.45 373.099,1492.45 383.48,1492.45 393.861,1492.45 404.242,1492.45 414.623,1492.45 425.004,1492.45 435.385,1492.45 445.766,1492.45 
  456.146,1492.45 466.527,1492.45 476.908,1492.45 487.289,1492.45 497.67,1492.45 508.051,1492.45 518.432,1492.45 528.813,1492.45 539.194,1492.45 549.575,1492.45 
  559.956,1492.45 570.337,1492.45 580.718,1492.45 591.099,1492.45 601.48,1492.45 611.861,1492.45 622.242,1492.44 632.623,1492.43 643.004,1492.39 653.385,1492.32 
  663.766,1492.2 674.147,1492.03 684.528,1491.83 694.909,1491.66 705.29,1491.57 715.671,1491.59 726.052,1491.72 736.432,1491.91 746.813,1492.1 757.194,1492.25 
  767.575,1492.35 777.956,1492.4 788.337,1492.41 798.718,1492.38 809.099,1492.31 819.48,1492.19 829.861,1492.02 840.242,1491.82 850.623,1491.65 861.004,1491.57 
  871.385,1491.59 881.766,1491.71 892.147,1491.87 902.528,1491.98 912.909,1491.97 923.29,1491.8 933.671,1491.42 944.052,1490.83 954.433,1490.03 964.814,1489.03 
  975.195,1487.92 985.576,1486.84 995.957,1485.99 1006.34,1485.55 1016.72,1485.61 1027.1,1486.09 1037.48,1486.76 1047.86,1487.39 1058.24,1487.78 1068.62,1487.9 
  1079,1487.75 1089.39,1487.35 1099.77,1486.64 1110.15,1485.58 1120.53,1484.15 1130.91,1482.34 1141.29,1480.12 1151.67,1477.45 1162.05,1474.21 1172.43,1470.39 
  1182.81,1466.02 1193.19,1461.26 1203.58,1456.27 1213.96,1451.2 1224.34,1446.2 1234.72,1441.4 1245.1,1436.93 1255.48,1432.81 1265.86,1428.82 1276.24,1424.59 
  
  "/>
<polygon clip-path="url(#clip3305)" points="
1276.24,1424.59 1281.47,1422.22 1286.7,1419.62 1291.92,1416.73 1297.15,1413.5 1302.37,1409.93 1307.6,1406.02 1312.83,1401.78 1318.05,1397.26 1323.28,1392.54 
  1328.51,1387.67 1333.73,1382.72 1338.96,1377.73 1344.18,1372.74 1349.41,1367.71 1354.64,1362.61 1359.86,1357.36 1365.09,1351.88 1370.32,1346.07 1375.54,1339.86 
  1380.77,1333.22 1385.99,1326.12 1391.22,1318.6 1396.45,1310.71 1401.67,1302.54 1406.9,1294.19 1412.13,1285.77 1417.35,1277.4 1422.58,1269.19 1427.8,1261.24 
  1433.03,1253.62 1438.26,1246.37 1443.48,1239.49 1448.71,1232.99 1453.94,1226.8 1459.16,1220.88 1464.39,1215.17 1469.62,1209.63 1474.84,1204.23 1480.07,1198.94 
  1485.29,1193.76 1490.52,1188.7 1495.75,1183.74 1500.97,1178.91 1506.2,1174.18 1511.43,1169.56 1516.65,1165.05 1521.88,1160.66 1527.1,1156.44 1532.33,1152.42 
  1537.56,1148.66 1542.78,1145.2 1548.01,1142.07 1553.24,1139.28 1558.46,1136.83 1563.69,1134.69 1568.91,1132.82 1574.14,1131.18 1579.37,1129.74 1584.59,1128.45 
  1589.82,1127.32 1595.05,1126.36 1600.27,1125.59 1605.5,1125.09 1610.72,1124.94 1615.95,1125.28 1621.18,1126.28 1626.4,1128.15 1631.63,1131.11 1636.86,1135.38 
  1642.08,1141.15 1647.31,1148.56 1652.53,1157.67 1657.76,1168.45 1662.99,1180.77 1668.21,1194.4 1673.44,1209.06 1678.67,1224.38 1683.89,1240.01 1689.12,1255.62 
  1694.35,1270.89 1699.57,1285.6 1704.8,1299.57 1710.02,1312.71 1715.25,1324.96 1720.48,1336.3 1725.7,1346.74 1730.93,1356.28 1736.16,1364.93 1741.38,1372.68 
  1746.61,1379.55 1751.83,1385.56 1757.06,1390.77 1762.29,1395.25 1767.51,1399.12 1772.74,1402.51 1777.97,1405.58 1783.19,1408.46 1788.42,1411.29 1793.64,1414.19 
  1793.64,1492.45 1788.42,1492.45 1783.19,1492.45 1777.97,1492.45 1772.74,1492.45 1767.51,1492.45 1762.29,1492.45 1757.06,1492.45 1751.83,1492.45 1746.61,1492.45 
  1741.38,1492.45 1736.16,1492.45 1730.93,1492.45 1725.7,1492.45 1720.48,1492.45 1715.25,1492.45 1710.02,1492.45 1704.8,1492.45 1699.57,1492.45 1694.35,1492.45 
  1689.12,1492.45 1683.89,1492.45 1678.67,1492.45 1673.44,1492.45 1668.21,1492.45 1662.99,1492.45 1657.76,1492.45 1652.53,1492.45 1647.31,1492.45 1642.08,1492.45 
  1636.86,1492.45 1631.63,1492.45 1626.4,1492.45 1621.18,1492.45 1615.95,1492.45 1610.72,1492.45 1605.5,1492.45 1600.27,1492.45 1595.05,1492.45 1589.82,1492.45 
  1584.59,1492.45 1579.37,1492.45 1574.14,1492.45 1568.91,1492.45 1563.69,1492.45 1558.46,1492.45 1553.24,1492.45 1548.01,1492.45 1542.78,1492.45 1537.56,1492.45 
  1532.33,1492.45 1527.1,1492.45 1521.88,1492.45 1516.65,1492.45 1511.43,1492.45 1506.2,1492.45 1500.97,1492.45 1495.75,1492.45 1490.52,1492.45 1485.29,1492.45 
  1480.07,1492.45 1474.84,1492.45 1469.62,1492.45 1464.39,1492.45 1459.16,1492.45 1453.94,1492.45 1448.71,1492.45 1443.48,1492.45 1438.26,1492.45 1433.03,1492.45 
  1427.8,1492.45 1422.58,1492.45 1417.35,1492.45 1412.13,1492.45 1406.9,1492.45 1401.67,1492.45 1396.45,1492.45 1391.22,1492.45 1385.99,1492.45 1380.77,1492.45 
  1375.54,1492.45 1370.32,1492.45 1365.09,1492.45 1359.86,1492.45 1354.64,1492.45 1349.41,1492.45 1344.18,1492.45 1338.96,1492.45 1333.73,1492.45 1328.51,1492.45 
  1323.28,1492.45 1318.05,1492.45 1312.83,1492.45 1307.6,1492.45 1302.37,1492.45 1297.15,1492.45 1291.92,1492.45 1286.7,1492.45 1281.47,1492.45 1276.24,1492.45 
  
  " fill="#008000" fill-rule="evenodd" fill-opacity="0.5"/>
<polyline clip-path="url(#clip3305)" style="stroke:#008000; stroke-width:4; stroke-opacity:1; fill:none" points="
  1276.24,1424.59 1281.47,1422.22 1286.7,1419.62 1291.92,1416.73 1297.15,1413.5 1302.37,1409.93 1307.6,1406.02 1312.83,1401.78 1318.05,1397.26 1323.28,1392.54 
  1328.51,1387.67 1333.73,1382.72 1338.96,1377.73 1344.18,1372.74 1349.41,1367.71 1354.64,1362.61 1359.86,1357.36 1365.09,1351.88 1370.32,1346.07 1375.54,1339.86 
  1380.77,1333.22 1385.99,1326.12 1391.22,1318.6 1396.45,1310.71 1401.67,1302.54 1406.9,1294.19 1412.13,1285.77 1417.35,1277.4 1422.58,1269.19 1427.8,1261.24 
  1433.03,1253.62 1438.26,1246.37 1443.48,1239.49 1448.71,1232.99 1453.94,1226.8 1459.16,1220.88 1464.39,1215.17 1469.62,1209.63 1474.84,1204.23 1480.07,1198.94 
  1485.29,1193.76 1490.52,1188.7 1495.75,1183.74 1500.97,1178.91 1506.2,1174.18 1511.43,1169.56 1516.65,1165.05 1521.88,1160.66 1527.1,1156.44 1532.33,1152.42 
  1537.56,1148.66 1542.78,1145.2 1548.01,1142.07 1553.24,1139.28 1558.46,1136.83 1563.69,1134.69 1568.91,1132.82 1574.14,1131.18 1579.37,1129.74 1584.59,1128.45 
  1589.82,1127.32 1595.05,1126.36 1600.27,1125.59 1605.5,1125.09 1610.72,1124.94 1615.95,1125.28 1621.18,1126.28 1626.4,1128.15 1631.63,1131.11 1636.86,1135.38 
  1642.08,1141.15 1647.31,1148.56 1652.53,1157.67 1657.76,1168.45 1662.99,1180.77 1668.21,1194.4 1673.44,1209.06 1678.67,1224.38 1683.89,1240.01 1689.12,1255.62 
  1694.35,1270.89 1699.57,1285.6 1704.8,1299.57 1710.02,1312.71 1715.25,1324.96 1720.48,1336.3 1725.7,1346.74 1730.93,1356.28 1736.16,1364.93 1741.38,1372.68 
  1746.61,1379.55 1751.83,1385.56 1757.06,1390.77 1762.29,1395.25 1767.51,1399.12 1772.74,1402.51 1777.97,1405.58 1783.19,1408.46 1788.42,1411.29 1793.64,1414.19 
  
  "/>
<polygon clip-path="url(#clip3305)" points="
1793.64,1414.19 1798.36,1416.91 1803.08,1419.76 1807.8,1422.72 1812.52,1425.77 1817.24,1428.86 1821.96,1431.95 1826.68,1434.98 1831.4,1437.94 1836.12,1440.79 
  1840.84,1443.54 1845.56,1446.21 1850.28,1448.81 1855,1451.38 1859.72,1453.93 1864.44,1456.49 1869.16,1459.04 1873.88,1461.57 1878.6,1464.05 1883.32,1466.46 
  1888.04,1468.75 1892.76,1470.9 1897.48,1472.87 1902.2,1474.65 1906.92,1476.24 1911.64,1477.63 1916.36,1478.83 1921.07,1479.87 1925.79,1480.75 1930.51,1481.5 
  1935.23,1482.12 1939.95,1482.65 1944.67,1483.09 1949.39,1483.46 1954.11,1483.77 1958.83,1484.04 1963.55,1484.28 1968.27,1484.52 1972.99,1484.75 1977.71,1484.98 
  1982.43,1485.23 1987.15,1485.49 1991.87,1485.76 1996.59,1486.03 2001.31,1486.3 2006.03,1486.57 2010.75,1486.84 2015.47,1487.11 2020.19,1487.37 2024.91,1487.64 
  2029.63,1487.91 2034.35,1488.19 2039.07,1488.48 2043.79,1488.78 2048.51,1489.08 2053.22,1489.37 2057.94,1489.66 2062.66,1489.91 2067.38,1490.14 2072.1,1490.32 
  2076.82,1490.46 2081.54,1490.55 2086.26,1490.59 2090.98,1490.58 2095.7,1490.52 2100.42,1490.43 2105.14,1490.29 2109.86,1490.12 2114.58,1489.92 2119.3,1489.69 
  2124.02,1489.46 2128.74,1489.22 2133.46,1488.98 2138.18,1488.77 2142.9,1488.6 2147.62,1488.48 2152.34,1488.42 2157.06,1488.43 2161.78,1488.52 2166.5,1488.68 
  2171.22,1488.92 2175.94,1489.2 2180.66,1489.53 2185.37,1489.89 2190.09,1490.24 2194.81,1490.58 2199.53,1490.9 2204.25,1491.17 2208.97,1491.39 2213.69,1491.56 
  2218.41,1491.67 2223.13,1491.74 2227.85,1491.76 2232.57,1491.75 2237.29,1491.72 2242.01,1491.67 2246.73,1491.63 2251.45,1491.59 2256.17,1491.56 2260.89,1491.55 
  2260.89,1492.45 2256.17,1492.45 2251.45,1492.45 2246.73,1492.45 2242.01,1492.45 2237.29,1492.45 2232.57,1492.45 2227.85,1492.45 2223.13,1492.45 2218.41,1492.45 
  2213.69,1492.45 2208.97,1492.45 2204.25,1492.45 2199.53,1492.45 2194.81,1492.45 2190.09,1492.45 2185.37,1492.45 2180.66,1492.45 2175.94,1492.45 2171.22,1492.45 
  2166.5,1492.45 2161.78,1492.45 2157.06,1492.45 2152.34,1492.45 2147.62,1492.45 2142.9,1492.45 2138.18,1492.45 2133.46,1492.45 2128.74,1492.45 2124.02,1492.45 
  2119.3,1492.45 2114.58,1492.45 2109.86,1492.45 2105.14,1492.45 2100.42,1492.45 2095.7,1492.45 2090.98,1492.45 2086.26,1492.45 2081.54,1492.45 2076.82,1492.45 
  2072.1,1492.45 2067.38,1492.45 2062.66,1492.45 2057.94,1492.45 2053.22,1492.45 2048.51,1492.45 2043.79,1492.45 2039.07,1492.45 2034.35,1492.45 2029.63,1492.45 
  2024.91,1492.45 2020.19,1492.45 2015.47,1492.45 2010.75,1492.45 2006.03,1492.45 2001.31,1492.45 1996.59,1492.45 1991.87,1492.45 1987.15,1492.45 1982.43,1492.45 
  1977.71,1492.45 1972.99,1492.45 1968.27,1492.45 1963.55,1492.45 1958.83,1492.45 1954.11,1492.45 1949.39,1492.45 1944.67,1492.45 1939.95,1492.45 1935.23,1492.45 
  1930.51,1492.45 1925.79,1492.45 1921.07,1492.45 1916.36,1492.45 1911.64,1492.45 1906.92,1492.45 1902.2,1492.45 1897.48,1492.45 1892.76,1492.45 1888.04,1492.45 
  1883.32,1492.45 1878.6,1492.45 1873.88,1492.45 1869.16,1492.45 1864.44,1492.45 1859.72,1492.45 1855,1492.45 1850.28,1492.45 1845.56,1492.45 1840.84,1492.45 
  1836.12,1492.45 1831.4,1492.45 1826.68,1492.45 1821.96,1492.45 1817.24,1492.45 1812.52,1492.45 1807.8,1492.45 1803.08,1492.45 1798.36,1492.45 1793.64,1492.45 
  
  " fill="#ffa500" fill-rule="evenodd" fill-opacity="0.5"/>
<polyline clip-path="url(#clip3305)" style="stroke:#ffa500; stroke-width:4; stroke-opacity:1; fill:none" points="
  1793.64,1414.19 1798.36,1416.91 1803.08,1419.76 1807.8,1422.72 1812.52,1425.77 1817.24,1428.86 1821.96,1431.95 1826.68,1434.98 1831.4,1437.94 1836.12,1440.79 
  1840.84,1443.54 1845.56,1446.21 1850.28,1448.81 1855,1451.38 1859.72,1453.93 1864.44,1456.49 1869.16,1459.04 1873.88,1461.57 1878.6,1464.05 1883.32,1466.46 
  1888.04,1468.75 1892.76,1470.9 1897.48,1472.87 1902.2,1474.65 1906.92,1476.24 1911.64,1477.63 1916.36,1478.83 1921.07,1479.87 1925.79,1480.75 1930.51,1481.5 
  1935.23,1482.12 1939.95,1482.65 1944.67,1483.09 1949.39,1483.46 1954.11,1483.77 1958.83,1484.04 1963.55,1484.28 1968.27,1484.52 1972.99,1484.75 1977.71,1484.98 
  1982.43,1485.23 1987.15,1485.49 1991.87,1485.76 1996.59,1486.03 2001.31,1486.3 2006.03,1486.57 2010.75,1486.84 2015.47,1487.11 2020.19,1487.37 2024.91,1487.64 
  2029.63,1487.91 2034.35,1488.19 2039.07,1488.48 2043.79,1488.78 2048.51,1489.08 2053.22,1489.37 2057.94,1489.66 2062.66,1489.91 2067.38,1490.14 2072.1,1490.32 
  2076.82,1490.46 2081.54,1490.55 2086.26,1490.59 2090.98,1490.58 2095.7,1490.52 2100.42,1490.43 2105.14,1490.29 2109.86,1490.12 2114.58,1489.92 2119.3,1489.69 
  2124.02,1489.46 2128.74,1489.22 2133.46,1488.98 2138.18,1488.77 2142.9,1488.6 2147.62,1488.48 2152.34,1488.42 2157.06,1488.43 2161.78,1488.52 2166.5,1488.68 
  2171.22,1488.92 2175.94,1489.2 2180.66,1489.53 2185.37,1489.89 2190.09,1490.24 2194.81,1490.58 2199.53,1490.9 2204.25,1491.17 2208.97,1491.39 2213.69,1491.56 
  2218.41,1491.67 2223.13,1491.74 2227.85,1491.76 2232.57,1491.75 2237.29,1491.72 2242.01,1491.67 2246.73,1491.63 2251.45,1491.59 2256.17,1491.56 2260.89,1491.55 
  
  "/>
<polyline clip-path="url(#clip3305)" style="stroke:#0000ff; stroke-width:4; stroke-opacity:1; fill:none" points="
  1547.25,1492.45 1547.25,1142.5 
  "/>
<polyline clip-path="url(#clip3305)" style="stroke:#000000; stroke-width:4; stroke-opacity:1; fill:none" points="
  1557.11,1492.45 1557.11,1137.43 
  "/>
<polygon clip-path="url(#clip3301)" points="
1462.12,1560.31 2249.26,1560.31 2249.26,1197.43 1462.12,1197.43 
  " fill="#ffffff" fill-rule="evenodd" fill-opacity="1"/>
<polyline clip-path="url(#clip3301)" style="stroke:#000000; stroke-width:4; stroke-opacity:1; fill:none" points="
  1462.12,1560.31 2249.26,1560.31 2249.26,1197.43 1462.12,1197.43 1462.12,1560.31 
  "/>
<polygon clip-path="url(#clip3301)" points="
1486.12,1282.1 1630.12,1282.1 1630.12,1233.72 1486.12,1233.72 1486.12,1282.1 
  " fill="#ffa500" fill-rule="evenodd" fill-opacity="0.5"/>
<polyline clip-path="url(#clip3301)" style="stroke:#ffa500; stroke-width:4; stroke-opacity:1; fill:none" points="
  1486.12,1233.72 1630.12,1233.72 
  "/>
<g clip-path="url(#clip3301)">
<text style="fill:#000000; fill-opacity:1; font-family:Arial,Helvetica Neue,Helvetica,sans-serif; font-size:48px; text-anchor:start;" transform="rotate(0, 1654.12, 1275.41)" x="1654.12" y="1275.41">q05</text>
</g>
<polygon clip-path="url(#clip3301)" points="
1486.12,1342.58 1630.12,1342.58 1630.12,1294.2 1486.12,1294.2 1486.12,1342.58 
  " fill="#008000" fill-rule="evenodd" fill-opacity="0.5"/>
<polyline clip-path="url(#clip3301)" style="stroke:#008000; stroke-width:4; stroke-opacity:1; fill:none" points="
  1486.12,1294.2 1630.12,1294.2 
  "/>
<g clip-path="url(#clip3301)">
<text style="fill:#000000; fill-opacity:1; font-family:Arial,Helvetica Neue,Helvetica,sans-serif; font-size:48px; text-anchor:start;" transform="rotate(0, 1654.12, 1335.89)" x="1654.12" y="1335.89">90% non-rejection region</text>
</g>
<polygon clip-path="url(#clip3301)" points="
1486.12,1403.06 1630.12,1403.06 1630.12,1354.68 1486.12,1354.68 1486.12,1403.06 
  " fill="#ffa500" fill-rule="evenodd" fill-opacity="0.5"/>
<polyline clip-path="url(#clip3301)" style="stroke:#ffa500; stroke-width:4; stroke-opacity:1; fill:none" points="
  1486.12,1354.68 1630.12,1354.68 
  "/>
<g clip-path="url(#clip3301)">
<text style="fill:#000000; fill-opacity:1; font-family:Arial,Helvetica Neue,Helvetica,sans-serif; font-size:48px; text-anchor:start;" transform="rotate(0, 1654.12, 1396.37)" x="1654.12" y="1396.37">q95</text>
</g>
<polyline clip-path="url(#clip3301)" style="stroke:#0000ff; stroke-width:4; stroke-opacity:1; fill:none" points="
  1486.12,1439.35 1630.12,1439.35 
  "/>
<g clip-path="url(#clip3301)">
<text style="fill:#000000; fill-opacity:1; font-family:Arial,Helvetica Neue,Helvetica,sans-serif; font-size:48px; text-anchor:start;" transform="rotate(0, 1654.12, 1456.85)" x="1654.12" y="1456.85">mean</text>
</g>
<polyline clip-path="url(#clip3301)" style="stroke:#000000; stroke-width:4; stroke-opacity:1; fill:none" points="
  1486.12,1499.83 1630.12,1499.83 
  "/>
<g clip-path="url(#clip3301)">
<text style="fill:#000000; fill-opacity:1; font-family:Arial,Helvetica Neue,Helvetica,sans-serif; font-size:48px; text-anchor:start;" transform="rotate(0, 1654.12, 1517.33)" x="1654.12" y="1517.33">median</text>
</g>
</svg>
