<?xml version="1.0" encoding="utf-8" standalone="no"?>
<!DOCTYPE svg PUBLIC "-//W3C//DTD SVG 1.1//EN"
  "http://www.w3.org/Graphics/SVG/1.1/DTD/svg11.dtd">
<!-- Created with matplotlib (http://matplotlib.org/) -->
<svg height="288pt" version="1.1" viewBox="0 0 439 288" width="439pt" xmlns="http://www.w3.org/2000/svg" xmlns:xlink="http://www.w3.org/1999/xlink">
 <defs>
  <style type="text/css">
*{stroke-linecap:butt;stroke-linejoin:round;}
  </style>
 </defs>
 <g id="figure_1">
  <g id="patch_1">
   <path d="M 0 288 
L 439.92 288 
L 439.92 0 
L 0 0 
z
" style="fill:#ffffff;"/>
  </g>
  <g id="axes_1">
   <g id="patch_2">
    <path d="M 13.141231 275.905354 
L 428.051686 275.905354 
L 428.051686 2.834646 
L 13.141231 2.834646 
z
" style="fill:#ffffff;"/>
   </g>
   <g id="matplotlib.axis_1">
    <g id="xtick_1">
     <g id="line2d_1">
      <path clip-path="url(#p0af9dcf4df)" d="M 95.791061 275.905354 
L 95.791061 2.834646 
" style="fill:none;opacity:0.1;stroke:#000000;stroke-linecap:square;stroke-width:0.5;"/>
     </g>
     <g id="line2d_2">
      <defs>
       <path d="M 0 0 
L 0 -3.5 
" id="m785528cc7b" style="stroke:#000000;stroke-width:0.8;"/>
      </defs>
      <g>
       <use style="stroke:#000000;stroke-width:0.8;" x="95.791061" xlink:href="#m785528cc7b" y="275.905354"/>
      </g>
     </g>
     <g id="text_1">
      <!-- 200 -->
      <defs>
       <path d="M 19.1875 8.296875 
L 53.609375 8.296875 
L 53.609375 0 
L 7.328125 0 
L 7.328125 8.296875 
Q 12.9375 14.109375 22.625 23.890625 
Q 32.328125 33.6875 34.8125 36.53125 
Q 39.546875 41.84375 41.421875 45.53125 
Q 43.3125 49.21875 43.3125 52.78125 
Q 43.3125 58.59375 39.234375 62.25 
Q 35.15625 65.921875 28.609375 65.921875 
Q 23.96875 65.921875 18.8125 64.3125 
Q 13.671875 62.703125 7.8125 59.421875 
L 7.8125 69.390625 
Q 13.765625 71.78125 18.9375 73 
Q 24.125 74.21875 28.421875 74.21875 
Q 39.75 74.21875 46.484375 68.546875 
Q 53.21875 62.890625 53.21875 53.421875 
Q 53.21875 48.921875 51.53125 44.890625 
Q 49.859375 40.875 45.40625 35.40625 
Q 44.1875 33.984375 37.640625 27.21875 
Q 31.109375 20.453125 19.1875 8.296875 
z
" id="DejaVuSans-32"/>
       <path d="M 31.78125 66.40625 
Q 24.171875 66.40625 20.328125 58.90625 
Q 16.5 51.421875 16.5 36.375 
Q 16.5 21.390625 20.328125 13.890625 
Q 24.171875 6.390625 31.78125 6.390625 
Q 39.453125 6.390625 43.28125 13.890625 
Q 47.125 21.390625 47.125 36.375 
Q 47.125 51.421875 43.28125 58.90625 
Q 39.453125 66.40625 31.78125 66.40625 
z
M 31.78125 74.21875 
Q 44.046875 74.21875 50.515625 64.515625 
Q 56.984375 54.828125 56.984375 36.375 
Q 56.984375 17.96875 50.515625 8.265625 
Q 44.046875 -1.421875 31.78125 -1.421875 
Q 19.53125 -1.421875 13.0625 8.265625 
Q 6.59375 17.96875 6.59375 36.375 
Q 6.59375 54.828125 13.0625 64.515625 
Q 19.53125 74.21875 31.78125 74.21875 
z
" id="DejaVuSans-30"/>
      </defs>
      <g transform="translate(88.156061 285.484104)scale(0.08 -0.08)">
       <use xlink:href="#DejaVuSans-32"/>
       <use x="63.623047" xlink:href="#DejaVuSans-30"/>
       <use x="127.246094" xlink:href="#DejaVuSans-30"/>
      </g>
     </g>
    </g>
    <g id="xtick_2">
     <g id="line2d_3">
      <path clip-path="url(#p0af9dcf4df)" d="M 178.856217 275.905354 
L 178.856217 2.834646 
" style="fill:none;opacity:0.1;stroke:#000000;stroke-linecap:square;stroke-width:0.5;"/>
     </g>
     <g id="line2d_4">
      <g>
       <use style="stroke:#000000;stroke-width:0.8;" x="178.856217" xlink:href="#m785528cc7b" y="275.905354"/>
      </g>
     </g>
     <g id="text_2">
      <!-- 400 -->
      <defs>
       <path d="M 37.796875 64.3125 
L 12.890625 25.390625 
L 37.796875 25.390625 
z
M 35.203125 72.90625 
L 47.609375 72.90625 
L 47.609375 25.390625 
L 58.015625 25.390625 
L 58.015625 17.1875 
L 47.609375 17.1875 
L 47.609375 0 
L 37.796875 0 
L 37.796875 17.1875 
L 4.890625 17.1875 
L 4.890625 26.703125 
z
" id="DejaVuSans-34"/>
      </defs>
      <g transform="translate(171.221217 285.484104)scale(0.08 -0.08)">
       <use xlink:href="#DejaVuSans-34"/>
       <use x="63.623047" xlink:href="#DejaVuSans-30"/>
       <use x="127.246094" xlink:href="#DejaVuSans-30"/>
      </g>
     </g>
    </g>
    <g id="xtick_3">
     <g id="line2d_5">
      <path clip-path="url(#p0af9dcf4df)" d="M 261.921374 275.905354 
L 261.921374 2.834646 
" style="fill:none;opacity:0.1;stroke:#000000;stroke-linecap:square;stroke-width:0.5;"/>
     </g>
     <g id="line2d_6">
      <g>
       <use style="stroke:#000000;stroke-width:0.8;" x="261.921374" xlink:href="#m785528cc7b" y="275.905354"/>
      </g>
     </g>
     <g id="text_3">
      <!-- 600 -->
      <defs>
       <path d="M 33.015625 40.375 
Q 26.375 40.375 22.484375 35.828125 
Q 18.609375 31.296875 18.609375 23.390625 
Q 18.609375 15.53125 22.484375 10.953125 
Q 26.375 6.390625 33.015625 6.390625 
Q 39.65625 6.390625 43.53125 10.953125 
Q 47.40625 15.53125 47.40625 23.390625 
Q 47.40625 31.296875 43.53125 35.828125 
Q 39.65625 40.375 33.015625 40.375 
z
M 52.59375 71.296875 
L 52.59375 62.3125 
Q 48.875 64.0625 45.09375 64.984375 
Q 41.3125 65.921875 37.59375 65.921875 
Q 27.828125 65.921875 22.671875 59.328125 
Q 17.53125 52.734375 16.796875 39.40625 
Q 19.671875 43.65625 24.015625 45.921875 
Q 28.375 48.1875 33.59375 48.1875 
Q 44.578125 48.1875 50.953125 41.515625 
Q 57.328125 34.859375 57.328125 23.390625 
Q 57.328125 12.15625 50.6875 5.359375 
Q 44.046875 -1.421875 33.015625 -1.421875 
Q 20.359375 -1.421875 13.671875 8.265625 
Q 6.984375 17.96875 6.984375 36.375 
Q 6.984375 53.65625 15.1875 63.9375 
Q 23.390625 74.21875 37.203125 74.21875 
Q 40.921875 74.21875 44.703125 73.484375 
Q 48.484375 72.75 52.59375 71.296875 
z
" id="DejaVuSans-36"/>
      </defs>
      <g transform="translate(254.286374 285.484104)scale(0.08 -0.08)">
       <use xlink:href="#DejaVuSans-36"/>
       <use x="63.623047" xlink:href="#DejaVuSans-30"/>
       <use x="127.246094" xlink:href="#DejaVuSans-30"/>
      </g>
     </g>
    </g>
    <g id="xtick_4">
     <g id="line2d_7">
      <path clip-path="url(#p0af9dcf4df)" d="M 344.98653 275.905354 
L 344.98653 2.834646 
" style="fill:none;opacity:0.1;stroke:#000000;stroke-linecap:square;stroke-width:0.5;"/>
     </g>
     <g id="line2d_8">
      <g>
       <use style="stroke:#000000;stroke-width:0.8;" x="344.98653" xlink:href="#m785528cc7b" y="275.905354"/>
      </g>
     </g>
     <g id="text_4">
      <!-- 800 -->
      <defs>
       <path d="M 31.78125 34.625 
Q 24.75 34.625 20.71875 30.859375 
Q 16.703125 27.09375 16.703125 20.515625 
Q 16.703125 13.921875 20.71875 10.15625 
Q 24.75 6.390625 31.78125 6.390625 
Q 38.8125 6.390625 42.859375 10.171875 
Q 46.921875 13.96875 46.921875 20.515625 
Q 46.921875 27.09375 42.890625 30.859375 
Q 38.875 34.625 31.78125 34.625 
z
M 21.921875 38.8125 
Q 15.578125 40.375 12.03125 44.71875 
Q 8.5 49.078125 8.5 55.328125 
Q 8.5 64.0625 14.71875 69.140625 
Q 20.953125 74.21875 31.78125 74.21875 
Q 42.671875 74.21875 48.875 69.140625 
Q 55.078125 64.0625 55.078125 55.328125 
Q 55.078125 49.078125 51.53125 44.71875 
Q 48 40.375 41.703125 38.8125 
Q 48.828125 37.15625 52.796875 32.3125 
Q 56.78125 27.484375 56.78125 20.515625 
Q 56.78125 9.90625 50.3125 4.234375 
Q 43.84375 -1.421875 31.78125 -1.421875 
Q 19.734375 -1.421875 13.25 4.234375 
Q 6.78125 9.90625 6.78125 20.515625 
Q 6.78125 27.484375 10.78125 32.3125 
Q 14.796875 37.15625 21.921875 38.8125 
z
M 18.3125 54.390625 
Q 18.3125 48.734375 21.84375 45.5625 
Q 25.390625 42.390625 31.78125 42.390625 
Q 38.140625 42.390625 41.71875 45.5625 
Q 45.3125 48.734375 45.3125 54.390625 
Q 45.3125 60.0625 41.71875 63.234375 
Q 38.140625 66.40625 31.78125 66.40625 
Q 25.390625 66.40625 21.84375 63.234375 
Q 18.3125 60.0625 18.3125 54.390625 
z
" id="DejaVuSans-38"/>
      </defs>
      <g transform="translate(337.35153 285.484104)scale(0.08 -0.08)">
       <use xlink:href="#DejaVuSans-38"/>
       <use x="63.623047" xlink:href="#DejaVuSans-30"/>
       <use x="127.246094" xlink:href="#DejaVuSans-30"/>
      </g>
     </g>
    </g>
    <g id="xtick_5">
     <g id="line2d_9">
      <path clip-path="url(#p0af9dcf4df)" d="M 428.051686 275.905354 
L 428.051686 2.834646 
" style="fill:none;opacity:0.1;stroke:#000000;stroke-linecap:square;stroke-width:0.5;"/>
     </g>
     <g id="line2d_10">
      <g>
       <use style="stroke:#000000;stroke-width:0.8;" x="428.051686" xlink:href="#m785528cc7b" y="275.905354"/>
      </g>
     </g>
     <g id="text_5">
      <!-- 1000 -->
      <defs>
       <path d="M 12.40625 8.296875 
L 28.515625 8.296875 
L 28.515625 63.921875 
L 10.984375 60.40625 
L 10.984375 69.390625 
L 28.421875 72.90625 
L 38.28125 72.90625 
L 38.28125 8.296875 
L 54.390625 8.296875 
L 54.390625 0 
L 12.40625 0 
z
" id="DejaVuSans-31"/>
      </defs>
      <g transform="translate(417.871686 285.484104)scale(0.08 -0.08)">
       <use xlink:href="#DejaVuSans-31"/>
       <use x="63.623047" xlink:href="#DejaVuSans-30"/>
       <use x="127.246094" xlink:href="#DejaVuSans-30"/>
       <use x="190.869141" xlink:href="#DejaVuSans-30"/>
      </g>
     </g>
    </g>
   </g>
   <g id="matplotlib.axis_2">
    <g id="ytick_1">
     <g id="line2d_11">
      <path clip-path="url(#p0af9dcf4df)" d="M 13.141231 273.152021 
L 428.051686 273.152021 
" style="fill:none;opacity:0.1;stroke:#000000;stroke-linecap:square;stroke-width:0.5;"/>
     </g>
     <g id="line2d_12">
      <defs>
       <path d="M 0 0 
L 3.5 0 
" id="m994c9f43f5" style="stroke:#000000;stroke-width:0.8;"/>
      </defs>
      <g>
       <use style="stroke:#000000;stroke-width:0.8;" x="13.141231" xlink:href="#m994c9f43f5" y="273.152021"/>
      </g>
     </g>
     <g id="text_6">
      <!-- -3 -->
      <defs>
       <path d="M 4.890625 31.390625 
L 31.203125 31.390625 
L 31.203125 23.390625 
L 4.890625 23.390625 
z
" id="DejaVuSans-2d"/>
       <path d="M 40.578125 39.3125 
Q 47.65625 37.796875 51.625 33 
Q 55.609375 28.21875 55.609375 21.1875 
Q 55.609375 10.40625 48.1875 4.484375 
Q 40.765625 -1.421875 27.09375 -1.421875 
Q 22.515625 -1.421875 17.65625 -0.515625 
Q 12.796875 0.390625 7.625 2.203125 
L 7.625 11.71875 
Q 11.71875 9.328125 16.59375 8.109375 
Q 21.484375 6.890625 26.8125 6.890625 
Q 36.078125 6.890625 40.9375 10.546875 
Q 45.796875 14.203125 45.796875 21.1875 
Q 45.796875 27.640625 41.28125 31.265625 
Q 36.765625 34.90625 28.71875 34.90625 
L 20.21875 34.90625 
L 20.21875 43.015625 
L 29.109375 43.015625 
Q 36.375 43.015625 40.234375 45.921875 
Q 44.09375 48.828125 44.09375 54.296875 
Q 44.09375 59.90625 40.109375 62.90625 
Q 36.140625 65.921875 28.71875 65.921875 
Q 24.65625 65.921875 20.015625 65.03125 
Q 15.375 64.15625 9.8125 62.3125 
L 9.8125 71.09375 
Q 15.4375 72.65625 20.34375 73.4375 
Q 25.25 74.21875 29.59375 74.21875 
Q 40.828125 74.21875 47.359375 69.109375 
Q 53.90625 64.015625 53.90625 55.328125 
Q 53.90625 49.265625 50.4375 45.09375 
Q 46.96875 40.921875 40.578125 39.3125 
z
" id="DejaVuSans-33"/>
      </defs>
      <g transform="translate(1.664981 276.191396)scale(0.08 -0.08)">
       <use xlink:href="#DejaVuSans-2d"/>
       <use x="36.083984" xlink:href="#DejaVuSans-33"/>
      </g>
     </g>
    </g>
    <g id="ytick_2">
     <g id="line2d_13">
      <path clip-path="url(#p0af9dcf4df)" d="M 13.141231 231.840459 
L 428.051686 231.840459 
" style="fill:none;opacity:0.1;stroke:#000000;stroke-linecap:square;stroke-width:0.5;"/>
     </g>
     <g id="line2d_14">
      <g>
       <use style="stroke:#000000;stroke-width:0.8;" x="13.141231" xlink:href="#m994c9f43f5" y="231.840459"/>
      </g>
     </g>
     <g id="text_7">
      <!-- -2 -->
      <g transform="translate(1.664981 234.879834)scale(0.08 -0.08)">
       <use xlink:href="#DejaVuSans-2d"/>
       <use x="36.083984" xlink:href="#DejaVuSans-32"/>
      </g>
     </g>
    </g>
    <g id="ytick_3">
     <g id="line2d_15">
      <path clip-path="url(#p0af9dcf4df)" d="M 13.141231 190.528898 
L 428.051686 190.528898 
" style="fill:none;opacity:0.1;stroke:#000000;stroke-linecap:square;stroke-width:0.5;"/>
     </g>
     <g id="line2d_16">
      <g>
       <use style="stroke:#000000;stroke-width:0.8;" x="13.141231" xlink:href="#m994c9f43f5" y="190.528898"/>
      </g>
     </g>
     <g id="text_8">
      <!-- -1 -->
      <g transform="translate(1.664981 193.568273)scale(0.08 -0.08)">
       <use xlink:href="#DejaVuSans-2d"/>
       <use x="36.083984" xlink:href="#DejaVuSans-31"/>
      </g>
     </g>
    </g>
    <g id="ytick_4">
     <g id="line2d_17">
      <path clip-path="url(#p0af9dcf4df)" d="M 13.141231 149.217336 
L 428.051686 149.217336 
" style="fill:none;opacity:0.1;stroke:#000000;stroke-linecap:square;stroke-width:0.5;"/>
     </g>
     <g id="line2d_18">
      <g>
       <use style="stroke:#000000;stroke-width:0.8;" x="13.141231" xlink:href="#m994c9f43f5" y="149.217336"/>
      </g>
     </g>
     <g id="text_9">
      <!-- 0 -->
      <g transform="translate(4.551231 152.256711)scale(0.08 -0.08)">
       <use xlink:href="#DejaVuSans-30"/>
      </g>
     </g>
    </g>
    <g id="ytick_5">
     <g id="line2d_19">
      <path clip-path="url(#p0af9dcf4df)" d="M 13.141231 107.905774 
L 428.051686 107.905774 
" style="fill:none;opacity:0.1;stroke:#000000;stroke-linecap:square;stroke-width:0.5;"/>
     </g>
     <g id="line2d_20">
      <g>
       <use style="stroke:#000000;stroke-width:0.8;" x="13.141231" xlink:href="#m994c9f43f5" y="107.905774"/>
      </g>
     </g>
     <g id="text_10">
      <!-- 1 -->
      <g transform="translate(4.551231 110.945149)scale(0.08 -0.08)">
       <use xlink:href="#DejaVuSans-31"/>
      </g>
     </g>
    </g>
    <g id="ytick_6">
     <g id="line2d_21">
      <path clip-path="url(#p0af9dcf4df)" d="M 13.141231 66.594213 
L 428.051686 66.594213 
" style="fill:none;opacity:0.1;stroke:#000000;stroke-linecap:square;stroke-width:0.5;"/>
     </g>
     <g id="line2d_22">
      <g>
       <use style="stroke:#000000;stroke-width:0.8;" x="13.141231" xlink:href="#m994c9f43f5" y="66.594213"/>
      </g>
     </g>
     <g id="text_11">
      <!-- 2 -->
      <g transform="translate(4.551231 69.633588)scale(0.08 -0.08)">
       <use xlink:href="#DejaVuSans-32"/>
      </g>
     </g>
    </g>
    <g id="ytick_7">
     <g id="line2d_23">
      <path clip-path="url(#p0af9dcf4df)" d="M 13.141231 25.282651 
L 428.051686 25.282651 
" style="fill:none;opacity:0.1;stroke:#000000;stroke-linecap:square;stroke-width:0.5;"/>
     </g>
     <g id="line2d_24">
      <g>
       <use style="stroke:#000000;stroke-width:0.8;" x="13.141231" xlink:href="#m994c9f43f5" y="25.282651"/>
      </g>
     </g>
     <g id="text_12">
      <!-- 3 -->
      <g transform="translate(4.551231 28.322026)scale(0.08 -0.08)">
       <use xlink:href="#DejaVuSans-33"/>
      </g>
     </g>
    </g>
   </g>
   <g id="line2d_25">
    <path clip-path="url(#p0af9dcf4df)" d="M 13.141231 80.383726 
L 13.556557 138.758562 
L 13.971882 146.603385 
L 14.387208 118.200023 
L 14.802534 78.318512 
L 15.21786 190.726334 
L 15.633186 103.049809 
L 16.048511 119.409375 
L 16.463837 233.314528 
L 17.709814 154.424016 
L 18.12514 204.411472 
L 18.540466 109.685005 
L 18.955792 188.670431 
L 19.786443 159.037068 
L 20.201769 168.570789 
L 20.617095 116.707399 
L 21.447746 170.963016 
L 21.863072 115.917881 
L 22.278398 151.775026 
L 22.693724 116.361117 
L 23.10905 151.524186 
L 23.524375 133.498676 
L 23.939701 125.645806 
L 24.355027 139.587956 
L 24.770353 140.284417 
L 25.185678 141.671508 
L 25.601004 177.498694 
L 26.01633 164.214791 
L 26.431656 166.869208 
L 26.846982 154.616739 
L 27.262307 146.829565 
L 27.677633 159.60926 
L 28.092959 163.777595 
L 28.508285 178.046077 
L 29.338936 157.732727 
L 29.754262 132.387078 
L 30.169588 175.649819 
L 30.584914 118.182802 
L 31.000239 158.323272 
L 31.415565 163.761795 
L 32.246217 129.287938 
L 32.661543 138.176564 
L 33.076868 100.795406 
L 33.90752 157.374696 
L 34.322846 134.044657 
L 34.738171 150.001879 
L 35.153497 205.817217 
L 35.568823 112.70792 
L 35.984149 147.112738 
L 36.399475 148.462053 
L 36.8148 106.686812 
L 37.230126 150.859976 
L 37.645452 163.990264 
L 38.060778 168.907569 
L 38.476103 127.845452 
L 38.891429 151.866076 
L 39.306755 117.689059 
L 39.722081 138.312544 
L 40.552732 152.094731 
L 40.968058 128.765047 
L 41.383384 193.022193 
L 41.79871 142.617655 
L 42.214035 152.404086 
L 42.629361 130.136113 
L 43.460013 192.259541 
L 43.875339 145.686525 
L 44.290664 152.801689 
L 44.70599 144.235261 
L 45.121316 143.969321 
L 45.536642 150.081716 
L 45.951968 140.058261 
L 46.367293 153.695407 
L 46.782619 135.029149 
L 47.197945 166.958671 
L 47.613271 183.428405 
L 48.443922 118.5467 
L 48.859248 190.762064 
L 49.274574 131.266041 
L 49.6899 138.064272 
L 50.105225 140.782366 
L 50.520551 163.088751 
L 50.935877 194.818304 
L 51.351203 176.077651 
L 51.766528 163.203878 
L 52.181854 178.033379 
L 52.59718 145.482981 
L 53.012506 181.757983 
L 53.427832 176.811461 
L 53.843157 165.041805 
L 54.258483 104.03768 
L 54.673809 168.686727 
L 55.089135 155.095255 
L 55.919786 177.760632 
L 56.335112 159.78419 
L 56.750438 151.538013 
L 57.165764 166.61923 
L 57.581089 157.938294 
L 58.411741 180.149181 
L 58.827067 144.465908 
L 59.242393 166.48656 
L 59.657718 134.593512 
L 60.073044 147.373407 
L 60.48837 137.945102 
L 60.903696 144.968793 
L 61.319021 130.414152 
L 61.734347 171.332244 
L 62.149673 139.400471 
L 62.564999 171.366123 
L 62.980325 182.304491 
L 63.39565 116.290365 
L 63.810976 136.93284 
L 64.226302 138.702489 
L 64.641628 148.001452 
L 65.056953 166.140789 
L 65.472279 148.528441 
L 65.887605 148.425601 
L 66.302931 158.315383 
L 66.718257 171.858501 
L 67.133582 191.324528 
L 67.548908 130.413697 
L 67.964234 164.720696 
L 68.37956 161.347934 
L 68.794885 168.465822 
L 69.210211 116.618963 
L 69.625537 137.397851 
L 70.040863 170.896371 
L 70.871514 106.935651 
L 71.28684 163.676147 
L 71.702166 165.386213 
L 72.117492 158.572356 
L 72.532817 199.314003 
L 72.948143 123.47965 
L 73.363469 175.966429 
L 73.778795 180.024749 
L 74.194121 124.271841 
L 74.609446 140.836502 
L 75.024772 163.812872 
L 75.440098 146.999207 
L 75.855424 124.790785 
L 76.27075 144.200305 
L 76.686075 200.653344 
L 77.101401 166.088694 
L 77.516727 178.589976 
L 77.932053 178.424747 
L 78.347378 170.444333 
L 78.762704 117.443003 
L 79.17803 108.726721 
L 79.593356 143.110512 
L 80.008682 132.505147 
L 80.424007 109.94514 
L 80.839333 127.189797 
L 81.254659 110.251704 
L 81.669985 144.612035 
L 82.08531 157.43112 
L 82.500636 105.551454 
L 82.915962 125.488657 
L 83.331288 213.179615 
L 83.746614 124.55214 
L 84.161939 164.462867 
L 84.577265 134.054502 
L 84.992591 131.930645 
L 85.407917 113.267198 
L 85.823242 132.010791 
L 86.238568 104.896367 
L 86.653894 107.918638 
L 87.484546 175.608168 
L 87.899871 180.797503 
L 88.315197 142.49807 
L 88.730523 162.020086 
L 89.145849 151.296944 
L 89.561175 133.406098 
L 89.9765 140.436395 
L 90.391826 160.908468 
L 90.807152 155.013488 
L 91.222478 159.755586 
L 91.637803 157.676082 
L 92.053129 136.409477 
L 92.468455 133.837832 
L 92.883781 116.300377 
L 93.299107 131.892327 
L 93.714432 120.689423 
L 94.129758 117.526013 
L 94.545084 153.191237 
L 94.96041 159.516469 
L 95.375735 140.215363 
L 95.791061 184.219543 
L 96.206387 153.479733 
L 96.621713 132.816475 
L 97.037039 207.526416 
L 97.452364 144.684697 
L 97.86769 163.411269 
L 98.283016 142.941049 
L 98.698342 103.26022 
L 99.113667 150.680165 
L 99.528993 140.874685 
L 99.944319 148.384664 
L 100.774971 171.692348 
L 101.605622 94.604627 
L 102.020948 181.384279 
L 102.436274 153.990038 
L 103.266925 164.891542 
L 103.682251 193.82459 
L 104.097577 153.351136 
L 104.512903 53.221683 
L 104.928228 179.128171 
L 105.343554 62.651417 
L 106.174206 163.145283 
L 106.589532 102.526354 
L 107.420183 169.827316 
L 108.250835 150.599429 
L 108.66616 170.222661 
L 109.081486 149.489836 
L 109.496812 114.371674 
L 109.912138 200.425023 
L 110.327464 156.447139 
L 110.742789 80.56855 
L 111.158115 162.787413 
L 111.573441 150.590728 
L 111.988767 75.908286 
L 112.404092 87.613588 
L 112.819418 110.552435 
L 113.234744 231.294967 
L 113.65007 176.636634 
L 114.065396 87.628237 
L 114.480721 171.302242 
L 114.896047 177.601895 
L 115.311373 169.639368 
L 115.726699 85.457857 
L 116.142024 113.004127 
L 116.55735 159.076785 
L 116.972676 171.720793 
L 117.388002 149.735025 
L 117.803328 151.464369 
L 118.218653 145.606003 
L 118.633979 151.225606 
L 119.049305 137.989418 
L 119.464631 178.66534 
L 119.879956 204.158785 
L 120.295282 174.421808 
L 120.710608 168.442196 
L 121.125934 187.666762 
L 121.956585 70.985502 
L 122.371911 110.953085 
L 122.787237 188.74196 
L 123.202563 176.858443 
L 123.617889 124.850546 
L 124.033214 122.615656 
L 124.44854 161.133045 
L 124.863866 153.881004 
L 125.279192 101.213462 
L 125.694517 153.045493 
L 126.109843 141.439973 
L 126.525169 70.467622 
L 126.940495 150.488437 
L 127.355821 123.712334 
L 127.771146 160.486669 
L 128.186472 139.822129 
L 128.601798 129.147956 
L 129.017124 186.870904 
L 129.432449 224.356971 
L 129.847775 135.617348 
L 130.263101 200.038639 
L 130.678427 113.020182 
L 131.093753 187.085816 
L 131.509078 156.19876 
L 131.924404 188.639816 
L 132.33973 210.601024 
L 132.755056 128.27429 
L 133.170381 167.028705 
L 133.585707 177.67296 
L 134.001033 170.104945 
L 134.416359 93.654811 
L 134.831685 125.907806 
L 135.24701 82.137388 
L 135.662336 132.159205 
L 136.077662 166.391226 
L 136.492988 128.050309 
L 137.323639 87.057312 
L 137.738965 163.107623 
L 138.154291 169.887993 
L 138.569617 147.000576 
L 138.984942 162.471883 
L 139.400268 194.108043 
L 139.815594 193.211738 
L 140.23092 212.251601 
L 140.646246 149.22817 
L 141.061571 131.240921 
L 141.476897 174.370219 
L 141.892223 181.457622 
L 142.722874 145.499903 
L 143.1382 183.424973 
L 143.553526 161.274936 
L 143.968852 117.068404 
L 144.384178 142.515395 
L 144.799503 122.328413 
L 145.214829 59.191357 
L 145.630155 128.526769 
L 146.045481 136.724964 
L 146.460806 147.184038 
L 146.876132 89.616367 
L 147.706784 198.015573 
L 148.12211 183.88389 
L 148.537435 204.713426 
L 148.952761 148.63724 
L 149.368087 136.784946 
L 149.783413 157.575095 
L 150.198738 167.812024 
L 150.614064 106.128749 
L 151.02939 204.59828 
L 151.444716 72.708481 
L 151.860042 133.499919 
L 152.275367 153.704724 
L 152.690693 113.579079 
L 153.106019 180.745946 
L 153.521345 179.081479 
L 153.936671 190.37135 
L 154.351996 198.114543 
L 154.767322 101.280514 
L 155.182648 136.625863 
L 155.597974 118.421849 
L 156.013299 207.198814 
L 156.428625 92.070798 
L 156.843951 198.707632 
L 157.259277 234.982248 
L 157.674603 157.0297 
L 158.089928 135.776748 
L 158.505254 162.476774 
L 158.92058 99.454202 
L 159.335906 168.315142 
L 159.751231 148.046546 
L 160.166557 145.816272 
L 160.581883 106.69952 
L 161.412535 198.439093 
L 161.82786 127.750858 
L 162.243186 132.633489 
L 162.658512 178.514655 
L 163.073838 32.384241 
L 163.489163 183.850473 
L 163.904489 193.736084 
L 164.735141 157.926624 
L 165.150467 2.834646 
L 165.565792 114.315691 
L 165.981118 80.823852 
L 166.396444 157.17486 
L 166.81177 157.085131 
L 167.227096 155.9804 
L 167.642421 184.316166 
L 168.057747 187.69491 
L 168.473073 158.164795 
L 168.888399 154.523792 
L 169.303724 28.374384 
L 169.71905 178.252872 
L 170.134376 92.868817 
L 170.549702 154.159984 
L 170.965028 167.074887 
L 171.380353 106.8957 
L 172.211005 217.169061 
L 173.041656 141.278006 
L 173.456982 146.506058 
L 173.872308 135.096423 
L 174.287634 147.272529 
L 174.70296 143.228855 
L 175.118285 208.442669 
L 175.533611 165.902146 
L 175.948937 97.05584 
L 176.364263 116.554926 
L 176.779588 113.995283 
L 177.194914 123.461878 
L 177.61024 149.967898 
L 178.025566 136.727795 
L 178.440892 173.614152 
L 178.856217 168.795323 
L 179.271543 191.247967 
L 179.686869 102.583691 
L 180.102195 162.285488 
L 180.51752 163.966425 
L 180.932846 119.293148 
L 181.348172 142.974731 
L 181.763498 179.41561 
L 182.178824 142.069733 
L 182.594149 161.60211 
L 183.009475 134.406184 
L 183.424801 143.006734 
L 183.840127 130.830798 
L 184.255453 143.59605 
L 184.670778 126.354499 
L 185.086104 164.792938 
L 185.50143 168.352606 
L 185.916756 139.457752 
L 186.747407 192.729 
L 187.162733 147.34481 
L 187.578059 145.488695 
L 187.993385 158.414362 
L 188.40871 137.03143 
L 188.824036 140.846448 
L 189.239362 154.823716 
L 189.654688 130.127289 
L 190.070013 134.431901 
L 190.485339 185.669537 
L 190.900665 203.546403 
L 191.315991 137.294468 
L 191.731317 153.514554 
L 192.146642 87.955944 
L 192.561968 166.612639 
L 192.977294 133.053596 
L 193.39262 151.353367 
L 193.807945 161.610842 
L 194.223271 151.547819 
L 194.638597 169.078794 
L 195.053923 90.676064 
L 195.469249 184.324804 
L 195.884574 155.149741 
L 196.2999 140.598545 
L 196.715226 169.646085 
L 197.130552 125.563343 
L 197.545878 146.529849 
L 197.961203 128.817271 
L 198.376529 173.907054 
L 198.791855 152.959092 
L 199.207181 140.132244 
L 199.622506 164.140281 
L 200.037832 151.755644 
L 200.453158 178.435991 
L 200.868484 159.038553 
L 201.28381 131.869067 
L 201.699135 154.556171 
L 202.114461 126.215315 
L 202.529787 143.242348 
L 202.945113 176.991084 
L 203.360438 139.540234 
L 203.775764 150.2824 
L 204.19109 109.538318 
L 204.606416 164.936014 
L 205.021742 139.779562 
L 205.437067 196.651345 
L 205.852393 134.67299 
L 206.267719 165.727453 
L 206.683045 138.232312 
L 207.09837 148.051589 
L 207.513696 164.495851 
L 207.929022 175.586118 
L 208.344348 134.991836 
L 208.759674 142.086425 
L 209.174999 194.069749 
L 209.590325 166.754546 
L 210.005651 156.770661 
L 210.420977 133.396625 
L 210.836302 146.283956 
L 211.251628 123.483552 
L 211.666954 161.611135 
L 212.08228 149.830433 
L 212.497606 157.816676 
L 212.912931 178.794767 
L 213.328257 104.63365 
L 213.743583 155.746496 
L 214.158909 159.054321 
L 214.574235 155.152183 
L 214.98956 160.197457 
L 215.404886 151.356087 
L 215.820212 102.600373 
L 216.235538 94.866263 
L 216.650863 168.87492 
L 217.066189 110.873711 
L 217.481515 220.605001 
L 217.896841 126.501626 
L 218.312167 153.823949 
L 218.727492 138.148818 
L 219.142818 177.64618 
L 219.558144 88.018018 
L 219.97347 97.099943 
L 220.388795 169.610526 
L 220.804121 106.996764 
L 221.219447 158.682101 
L 221.634773 168.416102 
L 222.050099 121.479187 
L 222.465424 107.331986 
L 222.88075 178.231852 
L 223.296076 187.651247 
L 223.711402 94.974924 
L 224.126727 167.125023 
L 224.542053 109.80668 
L 224.957379 119.136533 
L 225.372705 107.822472 
L 225.788031 90.660498 
L 226.203356 156.844505 
L 226.618682 113.8365 
L 227.034008 124.974323 
L 227.449334 141.244836 
L 227.864659 107.368921 
L 228.279985 138.471513 
L 228.695311 195.021912 
L 229.110637 174.599245 
L 229.525963 180.674837 
L 229.941288 167.740887 
L 230.356614 120.133045 
L 230.77194 124.392955 
L 231.187266 167.203654 
L 231.602592 100.905015 
L 232.017917 158.621467 
L 232.433243 159.32375 
L 232.848569 144.44865 
L 233.263895 103.6237 
L 233.67922 176.867519 
L 234.094546 136.458028 
L 234.509872 176.76398 
L 234.925198 178.037769 
L 235.340524 141.449877 
L 235.755849 69.153899 
L 236.171175 152.830384 
L 236.586501 184.472066 
L 237.001827 112.243346 
L 237.417152 107.404067 
L 237.832478 117.921687 
L 238.247804 118.865611 
L 238.66313 214.044172 
L 239.078456 133.860849 
L 239.493781 187.210911 
L 239.909107 127.319088 
L 240.324433 164.585533 
L 240.739759 109.76732 
L 241.155084 149.056158 
L 241.57041 153.658151 
L 241.985736 109.366831 
L 242.401062 173.688745 
L 242.816388 101.215535 
L 243.231713 197.464167 
L 243.647039 166.450293 
L 244.062365 126.079913 
L 244.477691 107.320215 
L 244.893017 15.436618 
L 245.308342 96.398838 
L 245.723668 142.67251 
L 246.138994 144.249537 
L 246.55432 232.343778 
L 246.969645 210.921678 
L 247.384971 134.887254 
L 247.800297 118.974484 
L 248.215623 87.318883 
L 248.630949 120.642865 
L 249.046274 165.857554 
L 249.4616 109.809263 
L 249.876926 214.043001 
L 250.292252 163.404309 
L 250.707577 80.856599 
L 251.122903 65.946061 
L 251.538229 226.777493 
L 251.953555 181.55973 
L 252.368881 205.992666 
L 252.784206 153.846253 
L 253.199532 189.689661 
L 253.614858 97.65972 
L 254.030184 206.900053 
L 254.445509 146.933381 
L 254.860835 187.429372 
L 255.276161 111.470507 
L 255.691487 147.517492 
L 256.106813 145.477638 
L 256.522138 182.563538 
L 256.937464 148.75255 
L 257.35279 142.957604 
L 257.768116 118.002441 
L 258.183441 158.394151 
L 258.598767 119.192143 
L 259.014093 139.310256 
L 259.429419 141.463385 
L 259.844745 144.734732 
L 260.675396 154.024792 
L 261.090722 128.146928 
L 261.506048 137.630761 
L 261.921374 105.021673 
L 262.336699 136.234331 
L 262.752025 150.353382 
L 263.167351 152.000465 
L 263.582677 138.410379 
L 263.998002 197.350232 
L 264.413328 173.985313 
L 264.828654 120.388318 
L 265.24398 146.021448 
L 265.659306 133.292819 
L 266.074631 126.540436 
L 266.489957 142.636131 
L 266.905283 120.987556 
L 267.320609 178.892006 
L 267.735934 170.967453 
L 268.15126 188.421892 
L 268.566586 111.573417 
L 268.981912 218.581806 
L 269.397238 53.609293 
L 270.227889 202.560255 
L 270.643215 122.930921 
L 271.058541 156.587589 
L 271.889192 155.291815 
L 272.304518 136.203241 
L 272.719844 124.668921 
L 273.13517 164.762319 
L 273.550495 143.87196 
L 273.965821 144.558266 
L 274.381147 136.626453 
L 274.796473 199.991056 
L 275.211799 160.022536 
L 275.627124 148.585847 
L 276.04245 112.561232 
L 276.457776 160.579462 
L 276.873102 165.38361 
L 277.288427 130.888602 
L 277.703753 137.529217 
L 278.119079 177.744225 
L 278.534405 158.278496 
L 278.949731 147.830042 
L 279.365056 208.815968 
L 279.780382 124.147347 
L 280.195708 156.277444 
L 280.611034 134.061781 
L 281.026359 135.028453 
L 281.857011 174.1709 
L 282.687663 139.372164 
L 283.102988 155.58543 
L 283.518314 158.845809 
L 283.93364 129.494783 
L 284.348966 172.024749 
L 285.179617 148.677007 
L 285.594943 145.055956 
L 286.010269 160.716966 
L 286.425595 159.818271 
L 286.84092 139.866621 
L 287.256246 130.911491 
L 287.671572 145.017066 
L 288.086898 144.476513 
L 288.502223 170.201267 
L 288.917549 131.391635 
L 289.332875 148.124522 
L 289.748201 144.224054 
L 290.163527 156.982955 
L 290.578852 146.804791 
L 290.994178 140.26226 
L 291.409504 127.980979 
L 291.82483 136.061247 
L 292.240156 90.712081 
L 292.655481 173.589244 
L 293.070807 164.559654 
L 293.486133 160.478344 
L 293.901459 150.039875 
L 294.316784 173.732756 
L 294.73211 164.630437 
L 295.147436 141.833527 
L 295.562762 148.601129 
L 295.978088 179.823488 
L 296.393413 155.131769 
L 296.808739 103.03969 
L 297.224065 204.899026 
L 297.639391 114.191921 
L 298.054716 150.904543 
L 298.470042 97.805463 
L 298.885368 186.853454 
L 299.300694 143.058572 
L 299.71602 27.107824 
L 300.131345 163.063923 
L 300.546671 176.714756 
L 300.961997 157.424772 
L 301.377323 107.636236 
L 301.792648 177.076131 
L 302.207974 222.919554 
L 302.6233 150.370342 
L 303.038626 220.113364 
L 303.453952 198.891538 
L 303.869277 99.888838 
L 304.284603 176.681517 
L 304.699929 114.439144 
L 305.115255 143.913375 
L 305.530581 191.64122 
L 305.945906 132.949924 
L 306.776558 205.088197 
L 307.191884 113.172942 
L 307.607209 173.6875 
L 308.022535 86.250809 
L 308.437861 171.747014 
L 308.853187 58.275806 
L 309.268513 162.602317 
L 309.683838 205.783363 
L 310.099164 129.762089 
L 310.929816 190.048644 
L 311.345141 187.786688 
L 311.760467 182.087972 
L 312.175793 112.311878 
L 312.591119 115.238321 
L 313.006445 115.462401 
L 313.42177 106.240129 
L 313.837096 117.309986 
L 314.252422 105.922701 
L 314.667748 130.359682 
L 315.083073 131.024014 
L 315.498399 106.432731 
L 315.913725 139.74328 
L 316.329051 275.905354 
L 316.744377 170.029242 
L 317.159702 147.936047 
L 317.575028 216.043241 
L 317.990354 195.363729 
L 318.40568 98.955401 
L 318.821005 96.367454 
L 319.236331 147.345979 
L 319.651657 147.148323 
L 320.066983 171.518015 
L 320.897634 125.416091 
L 321.31296 160.730086 
L 321.728286 156.210096 
L 322.143612 232.683136 
L 322.558938 136.8821 
L 322.974263 147.666917 
L 323.389589 154.269167 
L 323.804915 166.738793 
L 324.220241 138.643685 
L 324.635566 139.685695 
L 325.050892 132.487091 
L 325.466218 169.574665 
L 325.881544 130.635079 
L 326.29687 159.966119 
L 326.712195 137.079894 
L 327.127521 133.564652 
L 327.542847 142.989481 
L 327.958173 163.296419 
L 328.788824 132.005776 
L 329.20415 100.32186 
L 329.619476 147.456261 
L 330.034802 145.169837 
L 330.450127 160.956565 
L 330.865453 165.987177 
L 331.280779 87.775344 
L 331.696105 82.100386 
L 332.11143 128.614763 
L 332.942082 170.973748 
L 333.772734 124.187379 
L 334.188059 154.98929 
L 334.603385 173.458084 
L 335.018711 134.636197 
L 335.434037 133.307958 
L 335.849362 163.505492 
L 336.264688 167.361444 
L 336.680014 107.093607 
L 337.09534 149.827672 
L 337.510666 168.039612 
L 337.925991 161.752525 
L 338.341317 151.653556 
L 338.756643 117.386865 
L 339.171969 170.440997 
L 339.587295 144.596596 
L 340.00262 135.485964 
L 340.417946 184.256702 
L 340.833272 111.078806 
L 341.248598 136.21957 
L 341.663923 131.027782 
L 342.079249 152.407161 
L 342.909901 171.823411 
L 343.325227 162.519776 
L 343.740552 158.478104 
L 344.155878 125.497868 
L 344.571204 117.139382 
L 344.98653 114.245003 
L 345.401855 199.912221 
L 345.817181 209.77061 
L 346.232507 70.571091 
L 346.647833 185.297977 
L 347.063159 127.271132 
L 347.478484 128.280162 
L 347.89381 123.705635 
L 348.309136 186.470673 
L 348.724462 173.178596 
L 349.139787 121.847403 
L 349.555113 114.431291 
L 349.970439 100.503172 
L 350.385765 204.796546 
L 350.801091 135.203077 
L 351.216416 113.313296 
L 351.631742 169.724688 
L 352.047068 103.916073 
L 352.462394 148.753242 
L 352.87772 173.914575 
L 353.293045 136.672826 
L 353.708371 204.530802 
L 354.123697 152.849212 
L 354.539023 187.033132 
L 354.954348 166.668045 
L 355.369674 126.116459 
L 356.200326 179.73284 
L 356.615652 152.251904 
L 357.030977 158.014871 
L 357.446303 155.748775 
L 357.861629 113.510462 
L 358.276955 158.59459 
L 358.69228 122.150058 
L 359.107606 102.485272 
L 359.522932 153.020321 
L 359.938258 185.870884 
L 360.353584 131.8597 
L 360.768909 186.066204 
L 361.184235 126.665958 
L 362.014887 182.534956 
L 362.430212 148.896273 
L 362.845538 170.593725 
L 363.260864 141.415984 
L 363.67619 138.772127 
L 364.091516 151.906733 
L 364.506841 157.348763 
L 364.922167 157.788342 
L 365.337493 157.947934 
L 365.752819 139.204966 
L 366.168144 143.865224 
L 366.58347 168.879753 
L 366.998796 151.395516 
L 367.414122 157.22204 
L 367.829448 135.079675 
L 368.244773 120.970166 
L 368.660099 140.345013 
L 369.075425 140.953738 
L 369.490751 162.123946 
L 369.906077 161.34696 
L 370.321402 156.660836 
L 370.736728 133.479294 
L 371.152054 136.60182 
L 371.56738 138.438887 
L 371.982705 157.663267 
L 372.398031 135.49848 
L 372.813357 144.600589 
L 373.228683 158.527617 
L 373.644009 127.61194 
L 374.059334 152.647427 
L 374.47466 139.879978 
L 374.889986 162.0381 
L 375.305312 113.572498 
L 375.720637 113.160814 
L 376.135963 161.799274 
L 376.551289 131.236438 
L 376.966615 130.599218 
L 377.381941 125.209585 
L 377.797266 134.617169 
L 378.212592 167.147553 
L 378.627918 141.630702 
L 379.458569 169.580544 
L 379.873895 153.53304 
L 380.289221 153.273353 
L 380.704547 171.699361 
L 381.119873 197.594248 
L 381.535198 141.554495 
L 381.950524 134.685975 
L 382.781176 170.961336 
L 383.196502 150.841404 
L 383.611827 145.472162 
L 384.027153 168.583047 
L 384.442479 114.972839 
L 384.857805 126.417905 
L 385.27313 175.966937 
L 385.688456 178.637393 
L 386.103782 158.163231 
L 386.519108 152.611723 
L 386.934434 153.186725 
L 387.349759 122.929024 
L 387.765085 149.65152 
L 388.180411 122.54743 
L 388.595737 142.864272 
L 389.011062 142.39284 
L 389.426388 177.627108 
L 389.841714 138.354726 
L 390.25704 151.963531 
L 390.672366 159.076195 
L 391.087691 119.538709 
L 391.503017 133.728504 
L 391.918343 132.810961 
L 392.333669 143.902687 
L 392.748994 136.230203 
L 393.16432 151.282683 
L 393.579646 117.840004 
L 394.410298 173.035428 
L 394.825623 142.794852 
L 395.240949 92.872989 
L 395.656275 177.731947 
L 396.071601 127.750951 
L 396.486926 133.66571 
L 396.902252 167.348035 
L 397.317578 140.14397 
L 397.732904 142.793359 
L 398.14823 147.000002 
L 398.563555 158.587443 
L 398.978881 162.642773 
L 399.394207 177.67393 
L 399.809533 201.201497 
L 400.224859 176.090101 
L 400.640184 81.576813 
L 401.05551 110.539469 
L 401.470836 130.560306 
L 402.301487 208.391166 
L 402.716813 156.883366 
L 403.132139 141.35769 
L 403.547465 109.225494 
L 403.962791 183.889743 
L 404.378116 54.472984 
L 404.793442 148.764507 
L 405.208768 162.075569 
L 405.624094 153.541415 
L 406.039419 148.008885 
L 406.870071 209.424362 
L 407.285397 158.404806 
L 407.700723 128.005869 
L 408.116048 132.613307 
L 408.531374 116.114195 
L 408.9467 186.39907 
L 409.362026 167.108567 
L 409.777351 114.712704 
L 410.192677 126.452068 
L 410.608003 112.916508 
L 411.023329 93.807976 
L 411.85398 178.02592 
L 412.269306 97.300755 
L 412.684632 152.145345 
L 413.099958 113.393623 
L 413.930609 162.148565 
L 414.345935 144.370786 
L 414.761261 170.009019 
L 415.176587 154.469803 
L 416.007238 215.331834 
L 416.422564 182.8451 
L 416.83789 195.044317 
L 417.668541 137.424571 
L 418.083867 38.925589 
L 418.499193 185.942168 
L 418.914519 74.199155 
L 419.329844 145.477916 
L 419.74517 190.2591 
L 420.160496 156.836604 
L 420.575822 191.386615 
L 420.991148 148.176886 
L 421.406473 163.450594 
L 421.821799 142.731605 
L 422.237125 157.804917 
L 422.652451 141.460949 
L 423.067776 154.721116 
L 423.483102 137.026977 
L 423.898428 160.966062 
L 424.313754 160.077546 
L 424.72908 162.707368 
L 425.144405 171.947722 
L 425.559731 225.617855 
L 425.975057 95.045386 
L 426.390383 128.400767 
L 426.805708 171.852419 
L 427.221034 183.447653 
L 427.63636 187.853306 
L 428.051686 123.388135 
L 428.051686 123.388135 
" style="fill:none;stroke:#009afa;stroke-linecap:round;"/>
   </g>
   <g id="patch_3">
    <path d="M 13.141231 275.905354 
L 13.141231 2.834646 
" style="fill:none;stroke:#000000;stroke-linecap:square;stroke-linejoin:miter;stroke-width:0.8;"/>
   </g>
   <g id="patch_4">
    <path d="M 13.141231 275.905354 
L 428.051686 275.905354 
" style="fill:none;stroke:#000000;stroke-linecap:square;stroke-linejoin:miter;stroke-width:0.8;"/>
   </g>
   <g id="legend_1">
    <g id="patch_5">
     <path d="M 387.026686 20.977146 
L 422.451686 20.977146 
Q 424.051686 20.977146 424.051686 19.377146 
L 424.051686 8.434646 
Q 424.051686 6.834646 422.451686 6.834646 
L 387.026686 6.834646 
Q 385.426686 6.834646 385.426686 8.434646 
L 385.426686 19.377146 
Q 385.426686 20.977146 387.026686 20.977146 
z
" style="fill:#ffffff;opacity:0.8;stroke:#000000;stroke-linejoin:miter;"/>
    </g>
    <g id="line2d_26">
     <path d="M 388.626686 13.313396 
L 404.626686 13.313396 
" style="fill:none;stroke:#009afa;stroke-linecap:square;"/>
    </g>
    <g id="line2d_27"/>
    <g id="text_13">
     <!-- y1 -->
     <defs>
      <path d="M 32.171875 -5.078125 
Q 28.375 -14.84375 24.75 -17.8125 
Q 21.140625 -20.796875 15.09375 -20.796875 
L 7.90625 -20.796875 
L 7.90625 -13.28125 
L 13.1875 -13.28125 
Q 16.890625 -13.28125 18.9375 -11.515625 
Q 21 -9.765625 23.484375 -3.21875 
L 25.09375 0.875 
L 2.984375 54.6875 
L 12.5 54.6875 
L 29.59375 11.921875 
L 46.6875 54.6875 
L 56.203125 54.6875 
z
" id="DejaVuSans-79"/>
     </defs>
     <g transform="translate(411.026686 16.113396)scale(0.08 -0.08)">
      <use xlink:href="#DejaVuSans-79"/>
      <use x="59.179688" xlink:href="#DejaVuSans-31"/>
     </g>
    </g>
   </g>
  </g>
 </g>
 <defs>
  <clipPath id="p0af9dcf4df">
   <rect height="273.070709" width="414.910455" x="13.141231" y="2.834646"/>
  </clipPath>
 </defs>
</svg>
