<?xml version="1.0" encoding="utf-8"?>
<svg xmlns="http://www.w3.org/2000/svg" xmlns:xlink="http://www.w3.org/1999/xlink" width="600" height="400" viewBox="0 0 2400 1600">
<defs>
  <clipPath id="clip1600">
    <rect x="0" y="0" width="2400" height="1600"/>
  </clipPath>
</defs>
<polygon clip-path="url(#clip1600)" points="
0,1600 2400,1600 2400,0 0,0 
  " fill="#ffffff" fill-rule="evenodd" fill-opacity="1"/>
<defs>
  <clipPath id="clip1601">
    <rect x="480" y="0" width="1681" height="1600"/>
  </clipPath>
</defs>
<polygon clip-path="url(#clip1600)" points="
153.898,687.475 2352.76,687.475 2352.76,47.2441 153.898,47.2441 
  " fill="#ffffff" fill-rule="evenodd" fill-opacity="1"/>
<defs>
  <clipPath id="clip1602">
    <rect x="153" y="47" width="2200" height="641"/>
  </clipPath>
</defs>
<polyline clip-path="url(#clip1602)" style="stroke:#000000; stroke-width:2; stroke-opacity:0.1; fill:none" points="
  214.053,687.475 214.053,47.2441 
  "/>
<polyline clip-path="url(#clip1602)" style="stroke:#000000; stroke-width:2; stroke-opacity:0.1; fill:none" points="
  733.171,687.475 733.171,47.2441 
  "/>
<polyline clip-path="url(#clip1602)" style="stroke:#000000; stroke-width:2; stroke-opacity:0.1; fill:none" points="
  1252.29,687.475 1252.29,47.2441 
  "/>
<polyline clip-path="url(#clip1602)" style="stroke:#000000; stroke-width:2; stroke-opacity:0.1; fill:none" points="
  1771.41,687.475 1771.41,47.2441 
  "/>
<polyline clip-path="url(#clip1602)" style="stroke:#000000; stroke-width:2; stroke-opacity:0.1; fill:none" points="
  2290.52,687.475 2290.52,47.2441 
  "/>
<polyline clip-path="url(#clip1602)" style="stroke:#000000; stroke-width:2; stroke-opacity:0.1; fill:none" points="
  153.898,562.854 2352.76,562.854 
  "/>
<polyline clip-path="url(#clip1602)" style="stroke:#000000; stroke-width:2; stroke-opacity:0.1; fill:none" points="
  153.898,404.41 2352.76,404.41 
  "/>
<polyline clip-path="url(#clip1602)" style="stroke:#000000; stroke-width:2; stroke-opacity:0.1; fill:none" points="
  153.898,245.967 2352.76,245.967 
  "/>
<polyline clip-path="url(#clip1602)" style="stroke:#000000; stroke-width:2; stroke-opacity:0.1; fill:none" points="
  153.898,87.5234 2352.76,87.5234 
  "/>
<polyline clip-path="url(#clip1600)" style="stroke:#000000; stroke-width:4; stroke-opacity:1; fill:none" points="
  153.898,687.475 2352.76,687.475 
  "/>
<polyline clip-path="url(#clip1600)" style="stroke:#000000; stroke-width:4; stroke-opacity:1; fill:none" points="
  153.898,687.475 153.898,47.2441 
  "/>
<polyline clip-path="url(#clip1600)" style="stroke:#000000; stroke-width:4; stroke-opacity:1; fill:none" points="
  214.053,687.475 214.053,677.871 
  "/>
<polyline clip-path="url(#clip1600)" style="stroke:#000000; stroke-width:4; stroke-opacity:1; fill:none" points="
  733.171,687.475 733.171,677.871 
  "/>
<polyline clip-path="url(#clip1600)" style="stroke:#000000; stroke-width:4; stroke-opacity:1; fill:none" points="
  1252.29,687.475 1252.29,677.871 
  "/>
<polyline clip-path="url(#clip1600)" style="stroke:#000000; stroke-width:4; stroke-opacity:1; fill:none" points="
  1771.41,687.475 1771.41,677.871 
  "/>
<polyline clip-path="url(#clip1600)" style="stroke:#000000; stroke-width:4; stroke-opacity:1; fill:none" points="
  2290.52,687.475 2290.52,677.871 
  "/>
<polyline clip-path="url(#clip1600)" style="stroke:#000000; stroke-width:4; stroke-opacity:1; fill:none" points="
  153.898,562.854 186.881,562.854 
  "/>
<polyline clip-path="url(#clip1600)" style="stroke:#000000; stroke-width:4; stroke-opacity:1; fill:none" points="
  153.898,404.41 186.881,404.41 
  "/>
<polyline clip-path="url(#clip1600)" style="stroke:#000000; stroke-width:4; stroke-opacity:1; fill:none" points="
  153.898,245.967 186.881,245.967 
  "/>
<polyline clip-path="url(#clip1600)" style="stroke:#000000; stroke-width:4; stroke-opacity:1; fill:none" points="
  153.898,87.5234 186.881,87.5234 
  "/>
<g clip-path="url(#clip1600)">
<text style="fill:#000000; fill-opacity:1; font-family:Arial,Helvetica Neue,Helvetica,sans-serif; font-size:48px; text-anchor:middle;" transform="rotate(0, 214.053, 741.475)" x="214.053" y="741.475">0</text>
</g>
<g clip-path="url(#clip1600)">
<text style="fill:#000000; fill-opacity:1; font-family:Arial,Helvetica Neue,Helvetica,sans-serif; font-size:48px; text-anchor:middle;" transform="rotate(0, 733.171, 741.475)" x="733.171" y="741.475">250</text>
</g>
<g clip-path="url(#clip1600)">
<text style="fill:#000000; fill-opacity:1; font-family:Arial,Helvetica Neue,Helvetica,sans-serif; font-size:48px; text-anchor:middle;" transform="rotate(0, 1252.29, 741.475)" x="1252.29" y="741.475">500</text>
</g>
<g clip-path="url(#clip1600)">
<text style="fill:#000000; fill-opacity:1; font-family:Arial,Helvetica Neue,Helvetica,sans-serif; font-size:48px; text-anchor:middle;" transform="rotate(0, 1771.41, 741.475)" x="1771.41" y="741.475">750</text>
</g>
<g clip-path="url(#clip1600)">
<text style="fill:#000000; fill-opacity:1; font-family:Arial,Helvetica Neue,Helvetica,sans-serif; font-size:48px; text-anchor:middle;" transform="rotate(0, 2290.52, 741.475)" x="2290.52" y="741.475">1000</text>
</g>
<g clip-path="url(#clip1600)">
<text style="fill:#000000; fill-opacity:1; font-family:Arial,Helvetica Neue,Helvetica,sans-serif; font-size:48px; text-anchor:end;" transform="rotate(0, 129.898, 580.354)" x="129.898" y="580.354">-2</text>
</g>
<g clip-path="url(#clip1600)">
<text style="fill:#000000; fill-opacity:1; font-family:Arial,Helvetica Neue,Helvetica,sans-serif; font-size:48px; text-anchor:end;" transform="rotate(0, 129.898, 421.91)" x="129.898" y="421.91">0</text>
</g>
<g clip-path="url(#clip1600)">
<text style="fill:#000000; fill-opacity:1; font-family:Arial,Helvetica Neue,Helvetica,sans-serif; font-size:48px; text-anchor:end;" transform="rotate(0, 129.898, 263.467)" x="129.898" y="263.467">2</text>
</g>
<g clip-path="url(#clip1600)">
<text style="fill:#000000; fill-opacity:1; font-family:Arial,Helvetica Neue,Helvetica,sans-serif; font-size:48px; text-anchor:end;" transform="rotate(0, 129.898, 105.023)" x="129.898" y="105.023">4</text>
</g>
<polyline clip-path="url(#clip1602)" style="stroke:#009af9; stroke-width:4; stroke-opacity:1; fill:none" points="
  216.13,417.685 218.206,274.408 220.283,295.233 222.359,420.483 224.436,295.175 226.512,481.107 228.589,406.205 230.665,363.207 232.742,285.2 234.818,338.578 
  236.895,390.86 238.971,275.768 241.047,427.07 243.124,441.892 245.2,369.761 247.277,440.502 249.353,347.264 251.43,379.336 253.506,423.862 255.583,448.714 
  257.659,435.992 259.736,531.653 261.812,413.833 263.889,434.19 265.965,357.045 268.042,461.433 270.118,361.474 272.195,430.106 274.271,419.138 276.347,382.235 
  278.424,397.459 280.5,359.427 282.577,405.614 284.653,454.221 286.73,452.386 288.806,437.11 290.883,363.334 292.959,402.753 295.036,419.982 297.112,420.813 
  299.189,406.829 301.265,415.594 303.342,422.983 305.418,429.245 307.495,390.071 309.571,399.901 311.647,353.447 313.724,398.878 315.8,445.091 317.877,392.784 
  319.953,375.986 322.03,388.992 324.106,327.812 326.183,425.3 328.259,442.505 330.336,463.823 332.412,333.796 334.489,406.411 336.565,362.779 338.642,452.405 
  340.718,429.371 342.795,398.672 344.871,409.329 346.947,414.532 349.024,359.046 351.1,458.282 353.177,446.656 355.253,390.988 357.33,383.228 359.406,393.883 
  361.483,376.198 363.559,391.483 365.636,389.812 367.712,385.134 369.789,388.384 371.865,433.317 373.942,347.135 376.018,387.475 378.095,348.794 380.171,412.769 
  382.247,382.075 384.324,399.664 386.4,409.643 388.477,508.794 390.553,356.569 392.63,417.51 394.706,441.726 396.783,417.215 398.859,242.516 400.936,435.105 
  403.012,224.142 405.089,362.752 407.165,374.028 409.242,364.715 411.318,433.456 413.395,326.274 415.471,374.271 417.547,469.96 419.624,333.434 421.7,489.693 
  423.777,496.68 425.853,524.374 427.93,415.52 430.006,489.602 432.083,412.932 434.159,403.601 436.236,434.526 438.312,432.722 440.389,476.901 442.465,418.925 
  444.542,390.887 446.618,470.32 448.695,477.744 450.771,418.793 452.847,394.561 454.924,473.53 457,381.118 459.077,410.292 461.153,299.189 463.23,314.489 
  465.306,415.579 467.383,381.487 469.459,249.618 471.536,377.511 473.612,453.514 475.689,92.8961 477.765,429.608 479.842,321.654 481.918,343.502 483.995,575.177 
  486.071,425.143 488.147,439.041 490.224,482.289 492.3,550.446 494.377,253.293 496.453,532.95 498.53,482.952 500.606,330.627 502.683,361.71 504.759,525.896 
  506.836,197.2 508.912,447.341 510.989,301.139 513.065,347.736 515.142,330.36 517.218,420.448 519.295,377.531 521.371,434.428 523.447,378.602 525.524,384.892 
  527.6,404.846 529.677,373.541 531.753,426.153 533.83,321.478 535.906,388.549 537.983,506.864 540.059,305.163 542.136,414.558 544.212,227.991 546.289,395.178 
  548.365,488.525 550.442,491.986 552.518,437.191 554.595,394.128 556.671,471.855 558.747,424.034 560.824,425.906 562.9,389.638 564.977,374.143 567.053,444.898 
  569.13,388.823 571.206,270.998 573.283,301.294 575.359,327.274 577.436,471.321 579.512,490.202 581.589,365.411 583.665,501.722 585.742,309.424 587.818,453.775 
  589.895,442.074 591.971,279.43 594.047,321.74 596.124,305.919 598.2,454.881 600.277,389.113 602.353,556.631 604.43,374.895 606.506,511.023 608.583,451.062 
  610.659,475.806 612.736,393.751 614.812,356.399 616.889,334.223 618.965,349.642 621.042,322.769 623.118,322.264 625.195,307.986 627.271,463.898 629.347,377.388 
  631.424,423.856 633.5,423.187 635.577,425.136 637.653,502.293 639.73,433.136 641.806,363.156 643.883,446.317 645.959,378.072 648.036,396.845 650.112,420.96 
  652.189,452.422 654.265,446.173 656.342,380.67 658.418,298.686 660.495,417.857 662.571,394.341 664.647,389.289 666.724,483.824 668.8,327.557 670.877,353.726 
  672.953,407.505 675.03,407.52 677.106,382.62 679.183,371.307 681.259,418.517 683.336,165.186 685.412,464.669 687.489,293.234 689.565,388.921 691.642,429.313 
  693.718,488.775 695.795,439.033 697.871,355.949 699.947,497.466 702.024,604.312 704.1,315.761 706.177,401.097 708.253,432.667 710.33,421.125 712.406,496.555 
  714.483,402.929 716.559,439.52 718.636,423.788 720.712,377.348 722.789,395.46 724.865,402.825 726.942,421.131 729.018,470.281 731.095,404.097 733.171,405.652 
  735.247,368.218 737.324,352.575 739.4,440.964 741.477,428.706 743.553,372.062 745.63,467.408 747.706,360.767 749.783,451.131 751.859,408.009 753.936,421.258 
  756.012,404.311 758.089,419.83 760.165,368.731 762.242,385.901 764.318,444.397 766.395,420.146 768.471,441.529 770.547,483.292 772.624,400.987 774.7,427.12 
  776.777,410.776 778.853,332.013 780.93,490.411 783.006,375.824 785.083,447.283 787.159,385.81 789.236,410.448 791.312,378.405 793.389,428.511 795.465,411.49 
  797.542,497.315 799.618,370.686 801.695,432.227 803.771,338.798 805.847,353.497 807.924,321.885 810,371.179 812.077,414.455 814.153,430.386 816.23,365.457 
  818.306,365.215 820.383,410.984 822.459,461.366 824.536,372.5 826.612,412.107 828.689,420.368 830.765,396.972 832.842,427.606 834.918,400.907 836.995,445.361 
  839.071,377.225 841.147,459.555 843.224,516.943 845.3,383.888 847.377,398.324 849.453,386.158 851.53,389.312 853.606,387.825 855.683,390.793 857.759,426.672 
  859.836,411.511 861.912,412.352 863.989,378.609 866.065,390.271 868.142,406.346 870.218,405.815 872.295,358.937 874.371,399.91 876.448,378.738 878.524,395.91 
  880.6,427.887 882.677,452.008 884.753,372.193 886.83,385.023 888.906,430.466 890.983,380.025 893.059,444.851 895.136,371.711 897.212,283.587 899.289,443.25 
  901.365,348.446 903.442,425.53 905.518,390.134 907.595,322.955 909.671,450.397 911.748,482.29 913.824,499.461 915.9,394.104 917.977,339.708 920.053,427.027 
  922.13,443.718 924.206,519.097 926.283,457.236 928.359,382.749 930.436,379.644 932.512,428.071 934.589,309.525 936.665,443.57 938.742,405.547 940.818,397.658 
  942.895,361.867 944.971,389.389 947.048,462.692 949.124,297.751 951.2,479.02 953.277,341.446 955.353,434.119 957.43,412.678 959.506,404.183 961.583,349.904 
  963.659,425.509 965.736,433.07 967.812,359.475 969.889,482.342 971.965,408.508 974.042,494.256 976.118,375.399 978.195,351.972 980.271,415.833 982.348,382.91 
  984.424,402.952 986.5,415.601 988.577,313.585 990.653,485.613 992.73,547.28 994.806,426.038 996.883,368.503 998.959,397.106 1001.04,300.44 1003.11,495.725 
  1005.19,359.59 1007.27,489.104 1009.34,412.325 1011.42,400.066 1013.49,360.393 1015.57,412.223 1017.65,416.028 1019.72,373.797 1021.8,429.827 1023.88,483.827 
  1025.95,447.081 1028.03,388.843 1030.11,306.572 1032.18,354.842 1034.26,412.468 1036.34,446.551 1038.41,356.924 1040.49,312.919 1042.57,376.706 1044.64,320.368 
  1046.72,445.455 1048.79,440.23 1050.87,404.941 1052.95,404.375 1055.02,395.084 1057.1,441.972 1059.18,522.27 1061.25,490.814 1063.33,382.158 1065.41,468.077 
  1067.48,376.349 1069.56,427.798 1071.64,426.353 1073.71,494.411 1075.79,450.051 1077.87,369.36 1079.94,378.677 1082.02,360.307 1084.09,275.727 1086.17,470.729 
  1088.25,388.007 1090.32,385.22 1092.4,450.546 1094.48,475.957 1096.55,386.426 1098.63,394.562 1100.71,364.196 1102.78,465.502 1104.86,409.893 1106.94,395.669 
  1109.01,392.904 1111.09,508.718 1113.17,303.619 1115.24,340.826 1117.32,65.3638 1119.39,485.141 1121.47,383.718 1123.55,361.921 1125.62,323.495 1127.7,319.078 
  1129.78,322.086 1131.85,369.125 1133.93,541.73 1136.01,400.76 1138.08,478.526 1140.16,472.364 1142.24,403.961 1144.31,428.033 1146.39,531.395 1148.47,425.035 
  1150.54,359.986 1152.62,444.128 1154.69,360.493 1156.77,464.821 1158.85,414.357 1160.92,396.881 1163,392.86 1165.08,497.456 1167.15,386.942 1169.23,376.242 
  1171.31,434.989 1173.38,421.08 1175.46,405.62 1177.54,388.636 1179.61,401.876 1181.69,402.551 1183.77,402.162 1185.84,445.148 1187.92,427.783 1189.99,402.073 
  1192.07,410.449 1194.15,411.062 1196.22,367.807 1198.3,426.3 1200.38,424.752 1202.45,427.791 1204.53,378.568 1206.61,439.708 1208.68,357.856 1210.76,407.976 
  1212.84,403.884 1214.91,357.231 1216.99,372.746 1219.07,392.295 1221.14,418.43 1223.22,503.005 1225.29,489.994 1227.37,380.22 1229.45,380.248 1231.52,420.251 
  1233.6,383.093 1235.68,377.167 1237.75,510.771 1239.83,447.032 1241.91,361.648 1243.98,390.807 1246.06,412.176 1248.14,439.378 1250.21,459.503 1252.29,392.944 
  1254.37,391.831 1256.44,422.624 1258.52,473.806 1260.59,395.421 1262.67,505.908 1264.75,431.438 1266.82,282.59 1268.9,357.995 1270.98,415.593 1273.05,473.287 
  1275.13,335.462 1277.21,493.45 1279.28,340.136 1281.36,363.414 1283.44,434.759 1285.51,275.854 1287.59,472.157 1289.67,406.333 1291.74,386.023 1293.82,339.567 
  1295.89,392.162 1297.97,367.632 1300.05,404.601 1302.12,391.624 1304.2,471.444 1306.28,473.198 1308.35,336.282 1310.43,458.118 1312.51,282.771 1314.58,487.161 
  1316.66,267.42 1318.74,398.088 1320.81,340.214 1322.89,335.892 1324.97,458.433 1327.04,638.805 1329.12,334.186 1331.19,516.439 1333.27,362.735 1335.35,498.234 
  1337.42,377.589 1339.5,446.647 1341.58,283.648 1343.65,350.774 1345.73,409.2 1347.81,471.94 1349.88,369.435 1351.96,398.566 1354.04,518.079 1356.11,494.207 
  1358.19,410.223 1360.27,417.639 1362.34,390.53 1364.42,410.983 1366.49,401.031 1368.57,429.168 1370.65,441.089 1372.72,344.719 1374.8,487.554 1376.88,315.154 
  1378.95,425.908 1381.03,347.104 1383.11,440.532 1385.18,390.555 1387.26,305.195 1389.34,389.37 1391.41,486.059 1393.49,398.432 1395.57,407.974 1397.64,398.64 
  1399.72,367.156 1401.79,329.49 1403.87,513.022 1405.95,411.913 1408.02,456.727 1410.1,387.659 1412.18,429.057 1414.25,394.425 1416.33,417.973 1418.41,377.453 
  1420.48,398.345 1422.56,422.714 1424.64,409.446 1426.71,411.756 1428.79,376.469 1430.87,379.192 1432.94,402.392 1435.02,421.971 1437.09,416.69 1439.17,417.386 
  1441.25,366.063 1443.32,354.557 1445.4,396.903 1447.48,417.292 1449.55,383.672 1451.63,403.161 1453.71,442.124 1455.78,411.421 1457.86,409.443 1459.94,370.921 
  1462.01,427.566 1464.09,451.161 1466.17,413.222 1468.24,438.009 1470.32,391.052 1472.39,366.512 1474.47,376.902 1476.55,425.733 1478.62,397.145 1480.7,429.533 
  1482.78,389.509 1484.85,479.829 1486.93,411.996 1489.01,361.645 1491.08,327.982 1493.16,466.252 1495.24,310.95 1497.31,378.895 1499.39,370.813 1501.47,355.657 
  1503.54,461.607 1505.62,414.892 1507.69,413.776 1509.77,509.96 1511.85,334.727 1513.92,346.434 1516,433.177 1518.08,486.736 1520.15,381.655 1522.23,466.28 
  1524.31,581.538 1526.38,535.921 1528.46,340.98 1530.54,432.617 1532.61,387.874 1534.69,396.033 1536.77,389.837 1538.84,441.785 1540.92,456.615 1542.99,443.761 
  1545.07,387.777 1547.15,427.185 1549.22,439.524 1551.3,414.622 1553.38,463.667 1555.45,415.936 1557.53,371.327 1559.61,346.531 1561.68,415.92 1563.76,410.612 
  1565.84,382.801 1567.91,392.843 1569.99,400.745 1572.07,371.448 1574.14,398.287 1576.22,331.742 1578.29,298.704 1580.37,321.65 1582.45,307.014 1584.52,426.623 
  1586.6,352.245 1588.68,318.937 1590.75,441.404 1592.83,336.733 1594.91,444.499 1596.98,292.306 1599.06,335.62 1601.14,404.01 1603.21,403.424 1605.29,417.181 
  1607.37,435.456 1609.44,429.996 1611.52,343.568 1613.59,403.303 1615.67,382.472 1617.75,375.144 1619.82,467.519 1621.9,396.204 1623.98,329.983 1626.05,363.952 
  1628.13,284.713 1630.21,430.03 1632.28,470.053 1634.36,308.613 1636.44,401.253 1638.51,368.075 1640.59,272.376 1642.67,362.932 1644.74,441.524 1646.82,436.756 
  1648.89,423.477 1650.97,471.103 1653.05,494.836 1655.12,412.006 1657.2,409.733 1659.28,420.479 1661.35,414.312 1663.43,301.315 1665.51,353.071 1667.58,428.594 
  1669.66,404.012 1671.74,389.488 1673.81,321.038 1675.89,487.825 1677.97,333.458 1680.04,336.544 1682.12,399.378 1684.19,431.036 1686.27,627.752 1688.35,306.713 
  1690.42,341.675 1692.5,459.123 1694.58,468.618 1696.65,423.458 1698.73,415.193 1700.81,331.053 1702.88,455.719 1704.96,415.246 1707.04,292.926 1709.11,394.621 
  1711.19,308.317 1713.27,288.829 1715.34,340.966 1717.42,408.5 1719.49,462.184 1721.57,435.498 1723.65,318.545 1725.72,454.115 1727.8,532.008 1729.88,337.671 
  1731.95,348.547 1734.03,471.511 1736.11,382.847 1738.18,426.315 1740.26,406.849 1742.34,470.398 1744.41,363.533 1746.49,353.964 1748.57,376.065 1750.64,300.317 
  1752.72,385.779 1754.79,442.382 1756.87,422.785 1758.95,424.654 1761.02,425.699 1763.1,397.115 1765.18,413.062 1767.25,413.795 1769.33,444.999 1771.41,410.122 
  1773.48,389.355 1775.56,385.181 1777.64,336.457 1779.71,350.567 1781.79,390.368 1783.87,384.405 1785.94,381.961 1788.02,391.14 1790.09,424.949 1792.17,490.011 
  1794.25,411.903 1796.32,368.906 1798.4,447.204 1800.48,445.989 1802.55,461.002 1804.63,470.996 1806.71,442.52 1808.78,478.331 1810.86,459.567 1812.94,405.412 
  1815.01,468.1 1817.09,487.526 1819.17,391.319 1821.24,452.074 1823.32,553.799 1825.39,383.287 1827.47,371.527 1829.55,483.525 1831.62,403.336 1833.7,338.007 
  1835.78,363.1 1837.85,327.72 1839.93,474.099 1842.01,389.12 1844.08,500.683 1846.16,385.489 1848.24,426.579 1850.31,459.146 1852.39,467.376 1854.47,310.317 
  1856.54,281.968 1858.62,309.299 1860.69,612.901 1862.77,428.258 1864.85,459.805 1866.92,382.535 1869,284.216 1871.08,402.262 1873.15,555.887 1875.23,359.229 
  1877.31,304.137 1879.38,425.551 1881.46,364.706 1883.54,448.744 1885.61,388.294 1887.69,452.124 1889.77,337.861 1891.84,384.081 1893.92,476.017 1895.99,482.294 
  1898.07,356.56 1900.15,311.105 1902.22,467.921 1904.3,355.406 1906.38,366.948 1908.45,447.106 1910.53,424.198 1912.61,317.373 1914.68,374.708 1916.76,462.86 
  1918.84,316.682 1920.91,206.462 1922.99,308.525 1925.07,299.304 1927.14,427.193 1929.22,568.226 1931.29,374.857 1933.37,429.982 1935.45,366.588 1937.52,502.925 
  1939.6,382.901 1941.68,391.647 1943.75,385.133 1945.83,381.89 1947.91,386.751 1949.98,406.715 1952.06,315.368 1954.14,411.784 1956.21,408.964 1958.29,397.619 
  1960.37,346.182 1962.44,385.985 1964.52,414.194 1966.59,401.62 1968.67,422.21 1970.75,461.109 1972.82,505.428 1974.9,361.593 1976.98,337.798 1979.05,456.98 
  1981.13,395.825 1983.21,346.724 1985.28,415.598 1987.36,401.794 1989.44,290.967 1991.51,432.917 1993.59,405.226 1995.67,442.803 1997.74,498.4 1999.82,439.944 
  2001.89,384.647 2003.97,372.958 2006.05,318.385 2008.12,467.892 2010.2,409.973 2012.28,384.64 2014.35,426.425 2016.43,416.972 2018.51,385.511 2020.58,373.459 
  2022.66,403.98 2024.74,434.868 2026.81,400.825 2028.89,351.247 2030.97,433.082 2033.04,274.483 2035.12,490.983 2037.19,373.04 2039.27,313.731 2041.35,373.541 
  2043.42,429.414 2045.5,390.111 2047.58,410.291 2049.65,399.953 2051.73,478.734 2053.81,541.817 2055.88,420.312 2057.96,384.07 2060.04,406.107 2062.11,427.153 
  2064.19,467.391 2066.27,472.222 2068.34,539.604 2070.42,307.916 2072.49,397.997 2074.57,324.773 2076.65,517.26 2078.72,330.617 2080.8,400.021 2082.88,388.811 
  2084.95,356.022 2087.03,367.178 2089.11,399.386 2091.18,382.353 2093.26,404.399 2095.34,416.984 2097.41,305.504 2099.49,352.814 2101.57,402.288 2103.64,320.402 
  2105.72,453.907 2107.79,413.001 2109.87,285.181 2111.95,444.214 2114.02,301.67 2116.1,437.683 2118.18,509.687 2120.25,435.502 2122.33,452.502 2124.41,406.675 
  2126.48,455.972 2128.56,331.374 2130.64,365.507 2132.71,466.182 2134.79,381.984 2136.87,367.253 2138.94,346.891 2141.02,374.168 2143.09,503.905 2145.17,425.631 
  2147.25,346.367 2149.32,420.283 2151.4,475.885 2153.48,319.7 2155.55,348.633 2157.63,385.958 2159.71,317.463 2161.78,447.533 2163.86,417.988 2165.94,374.945 
  2168.01,405.704 2170.09,404.03 2172.17,372.733 2174.24,398.7 2176.32,392.411 2178.39,375.624 2180.47,380.819 2182.55,453.543 2184.62,421.32 2186.7,381.624 
  2188.78,421.075 2190.85,487.431 2192.93,398.571 2195.01,309.601 2197.08,484.242 2199.16,357.725 2201.24,487.029 2203.31,322.093 2205.39,669.355 2207.47,433.697 
  2209.54,389.823 2211.62,368.387 2213.69,480.74 2215.77,606.263 2217.85,270.543 2219.92,448.085 2222,493.698 2224.08,349.64 2226.15,512.987 2228.23,118.518 
  2230.31,477.535 2232.38,206.593 2234.46,349.358 2236.54,336.083 2238.61,375.518 2240.69,402.227 2242.77,444.406 2244.84,422.65 2246.92,432.523 2248.99,374.596 
  2251.07,523.764 2253.15,458.122 2255.22,380.116 2257.3,401.485 2259.38,330.927 2261.45,422.311 2263.53,408.176 2265.61,401.528 2267.68,407.04 2269.76,394.608 
  2271.84,394.111 2273.91,369.145 2275.99,483.491 2278.07,372.431 2280.14,448.982 2282.22,506.785 2284.29,363.374 2286.37,484.634 2288.45,494.501 2290.52,479.728 
  
  "/>
<polygon clip-path="url(#clip1600)" points="
1989.93,251.724 2280.76,251.724 2280.76,130.764 1989.93,130.764 
  " fill="#ffffff" fill-rule="evenodd" fill-opacity="1"/>
<polyline clip-path="url(#clip1600)" style="stroke:#000000; stroke-width:4; stroke-opacity:1; fill:none" points="
  1989.93,251.724 2280.76,251.724 2280.76,130.764 1989.93,130.764 1989.93,251.724 
  "/>
<polyline clip-path="url(#clip1600)" style="stroke:#009af9; stroke-width:4; stroke-opacity:1; fill:none" points="
  2013.93,191.244 2157.93,191.244 
  "/>
<g clip-path="url(#clip1600)">
<text style="fill:#000000; fill-opacity:1; font-family:Arial,Helvetica Neue,Helvetica,sans-serif; font-size:48px; text-anchor:start;" transform="rotate(0, 2181.93, 208.744)" x="2181.93" y="208.744">y1</text>
</g>
<polygon clip-path="url(#clip1600)" points="
153.898,1487.47 2352.76,1487.47 2352.76,847.244 153.898,847.244 
  " fill="#ffffff" fill-rule="evenodd" fill-opacity="1"/>
<defs>
  <clipPath id="clip1603">
    <rect x="153" y="847" width="2200" height="641"/>
  </clipPath>
</defs>
<polyline clip-path="url(#clip1603)" style="stroke:#000000; stroke-width:2; stroke-opacity:0.1; fill:none" points="
  200.359,1487.47 200.359,847.244 
  "/>
<polyline clip-path="url(#clip1603)" style="stroke:#000000; stroke-width:2; stroke-opacity:0.1; fill:none" points="
  671.73,1487.47 671.73,847.244 
  "/>
<polyline clip-path="url(#clip1603)" style="stroke:#000000; stroke-width:2; stroke-opacity:0.1; fill:none" points="
  1143.1,1487.47 1143.1,847.244 
  "/>
<polyline clip-path="url(#clip1603)" style="stroke:#000000; stroke-width:2; stroke-opacity:0.1; fill:none" points="
  1614.47,1487.47 1614.47,847.244 
  "/>
<polyline clip-path="url(#clip1603)" style="stroke:#000000; stroke-width:2; stroke-opacity:0.1; fill:none" points="
  2085.84,1487.47 2085.84,847.244 
  "/>
<polyline clip-path="url(#clip1603)" style="stroke:#000000; stroke-width:2; stroke-opacity:0.1; fill:none" points="
  153.898,1469.36 2352.76,1469.36 
  "/>
<polyline clip-path="url(#clip1603)" style="stroke:#000000; stroke-width:2; stroke-opacity:0.1; fill:none" points="
  153.898,1372.16 2352.76,1372.16 
  "/>
<polyline clip-path="url(#clip1603)" style="stroke:#000000; stroke-width:2; stroke-opacity:0.1; fill:none" points="
  153.898,1274.95 2352.76,1274.95 
  "/>
<polyline clip-path="url(#clip1603)" style="stroke:#000000; stroke-width:2; stroke-opacity:0.1; fill:none" points="
  153.898,1177.75 2352.76,1177.75 
  "/>
<polyline clip-path="url(#clip1603)" style="stroke:#000000; stroke-width:2; stroke-opacity:0.1; fill:none" points="
  153.898,1080.55 2352.76,1080.55 
  "/>
<polyline clip-path="url(#clip1603)" style="stroke:#000000; stroke-width:2; stroke-opacity:0.1; fill:none" points="
  153.898,983.35 2352.76,983.35 
  "/>
<polyline clip-path="url(#clip1603)" style="stroke:#000000; stroke-width:2; stroke-opacity:0.1; fill:none" points="
  153.898,886.149 2352.76,886.149 
  "/>
<polyline clip-path="url(#clip1600)" style="stroke:#000000; stroke-width:4; stroke-opacity:1; fill:none" points="
  153.898,1487.47 2352.76,1487.47 
  "/>
<polyline clip-path="url(#clip1600)" style="stroke:#000000; stroke-width:4; stroke-opacity:1; fill:none" points="
  153.898,1487.47 153.898,847.244 
  "/>
<polyline clip-path="url(#clip1600)" style="stroke:#000000; stroke-width:4; stroke-opacity:1; fill:none" points="
  200.359,1487.47 200.359,1477.87 
  "/>
<polyline clip-path="url(#clip1600)" style="stroke:#000000; stroke-width:4; stroke-opacity:1; fill:none" points="
  671.73,1487.47 671.73,1477.87 
  "/>
<polyline clip-path="url(#clip1600)" style="stroke:#000000; stroke-width:4; stroke-opacity:1; fill:none" points="
  1143.1,1487.47 1143.1,1477.87 
  "/>
<polyline clip-path="url(#clip1600)" style="stroke:#000000; stroke-width:4; stroke-opacity:1; fill:none" points="
  1614.47,1487.47 1614.47,1477.87 
  "/>
<polyline clip-path="url(#clip1600)" style="stroke:#000000; stroke-width:4; stroke-opacity:1; fill:none" points="
  2085.84,1487.47 2085.84,1477.87 
  "/>
<polyline clip-path="url(#clip1600)" style="stroke:#000000; stroke-width:4; stroke-opacity:1; fill:none" points="
  153.898,1469.36 186.881,1469.36 
  "/>
<polyline clip-path="url(#clip1600)" style="stroke:#000000; stroke-width:4; stroke-opacity:1; fill:none" points="
  153.898,1372.16 186.881,1372.16 
  "/>
<polyline clip-path="url(#clip1600)" style="stroke:#000000; stroke-width:4; stroke-opacity:1; fill:none" points="
  153.898,1274.95 186.881,1274.95 
  "/>
<polyline clip-path="url(#clip1600)" style="stroke:#000000; stroke-width:4; stroke-opacity:1; fill:none" points="
  153.898,1177.75 186.881,1177.75 
  "/>
<polyline clip-path="url(#clip1600)" style="stroke:#000000; stroke-width:4; stroke-opacity:1; fill:none" points="
  153.898,1080.55 186.881,1080.55 
  "/>
<polyline clip-path="url(#clip1600)" style="stroke:#000000; stroke-width:4; stroke-opacity:1; fill:none" points="
  153.898,983.35 186.881,983.35 
  "/>
<polyline clip-path="url(#clip1600)" style="stroke:#000000; stroke-width:4; stroke-opacity:1; fill:none" points="
  153.898,886.149 186.881,886.149 
  "/>
<g clip-path="url(#clip1600)">
<text style="fill:#000000; fill-opacity:1; font-family:Arial,Helvetica Neue,Helvetica,sans-serif; font-size:48px; text-anchor:middle;" transform="rotate(0, 200.359, 1541.47)" x="200.359" y="1541.47">-4</text>
</g>
<g clip-path="url(#clip1600)">
<text style="fill:#000000; fill-opacity:1; font-family:Arial,Helvetica Neue,Helvetica,sans-serif; font-size:48px; text-anchor:middle;" transform="rotate(0, 671.73, 1541.47)" x="671.73" y="1541.47">-2</text>
</g>
<g clip-path="url(#clip1600)">
<text style="fill:#000000; fill-opacity:1; font-family:Arial,Helvetica Neue,Helvetica,sans-serif; font-size:48px; text-anchor:middle;" transform="rotate(0, 1143.1, 1541.47)" x="1143.1" y="1541.47">0</text>
</g>
<g clip-path="url(#clip1600)">
<text style="fill:#000000; fill-opacity:1; font-family:Arial,Helvetica Neue,Helvetica,sans-serif; font-size:48px; text-anchor:middle;" transform="rotate(0, 1614.47, 1541.47)" x="1614.47" y="1541.47">2</text>
</g>
<g clip-path="url(#clip1600)">
<text style="fill:#000000; fill-opacity:1; font-family:Arial,Helvetica Neue,Helvetica,sans-serif; font-size:48px; text-anchor:middle;" transform="rotate(0, 2085.84, 1541.47)" x="2085.84" y="1541.47">4</text>
</g>
<g clip-path="url(#clip1600)">
<text style="fill:#000000; fill-opacity:1; font-family:Arial,Helvetica Neue,Helvetica,sans-serif; font-size:48px; text-anchor:end;" transform="rotate(0, 129.898, 1486.86)" x="129.898" y="1486.86">0.0</text>
</g>
<g clip-path="url(#clip1600)">
<text style="fill:#000000; fill-opacity:1; font-family:Arial,Helvetica Neue,Helvetica,sans-serif; font-size:48px; text-anchor:end;" transform="rotate(0, 129.898, 1389.66)" x="129.898" y="1389.66">0.1</text>
</g>
<g clip-path="url(#clip1600)">
<text style="fill:#000000; fill-opacity:1; font-family:Arial,Helvetica Neue,Helvetica,sans-serif; font-size:48px; text-anchor:end;" transform="rotate(0, 129.898, 1292.45)" x="129.898" y="1292.45">0.2</text>
</g>
<g clip-path="url(#clip1600)">
<text style="fill:#000000; fill-opacity:1; font-family:Arial,Helvetica Neue,Helvetica,sans-serif; font-size:48px; text-anchor:end;" transform="rotate(0, 129.898, 1195.25)" x="129.898" y="1195.25">0.3</text>
</g>
<g clip-path="url(#clip1600)">
<text style="fill:#000000; fill-opacity:1; font-family:Arial,Helvetica Neue,Helvetica,sans-serif; font-size:48px; text-anchor:end;" transform="rotate(0, 129.898, 1098.05)" x="129.898" y="1098.05">0.4</text>
</g>
<g clip-path="url(#clip1600)">
<text style="fill:#000000; fill-opacity:1; font-family:Arial,Helvetica Neue,Helvetica,sans-serif; font-size:48px; text-anchor:end;" transform="rotate(0, 129.898, 1000.85)" x="129.898" y="1000.85">0.5</text>
</g>
<g clip-path="url(#clip1600)">
<text style="fill:#000000; fill-opacity:1; font-family:Arial,Helvetica Neue,Helvetica,sans-serif; font-size:48px; text-anchor:end;" transform="rotate(0, 129.898, 903.649)" x="129.898" y="903.649">0.6</text>
</g>
<polyline clip-path="url(#clip1603)" style="stroke:#009af9; stroke-width:4; stroke-opacity:1; fill:none" points="
  216.13,1469.35 226.554,1469.35 236.978,1469.35 247.402,1469.33 257.826,1469.3 268.25,1469.23 278.674,1469.11 289.098,1468.91 299.523,1468.61 309.947,1468.21 
  320.371,1467.75 330.795,1467.28 341.219,1466.91 351.643,1466.69 362.067,1466.65 372.491,1466.75 382.915,1466.89 393.339,1466.95 403.763,1466.83 414.188,1466.49 
  424.612,1465.95 435.036,1465.31 445.46,1464.65 455.884,1464.06 466.308,1463.55 476.732,1463.11 487.156,1462.66 497.58,1462.16 508.004,1461.64 518.428,1461.18 
  528.853,1460.9 539.277,1460.93 549.701,1461.29 560.125,1461.86 570.549,1462.45 580.973,1462.85 591.397,1462.9 601.821,1462.55 612.245,1461.86 622.669,1460.91 
  633.093,1459.78 643.518,1458.49 653.942,1456.99 664.366,1455.2 674.79,1453.1 685.214,1450.72 695.638,1448.12 706.062,1445.4 716.486,1442.59 726.91,1439.67 
  737.334,1436.57 747.758,1433.17 758.183,1429.26 768.607,1424.64 779.031,1419.04 789.455,1412.22 799.879,1403.95 810.303,1394.08 820.727,1382.51 831.151,1369.25 
  841.575,1354.42 851.999,1338.38 862.423,1321.7 872.848,1305.15 883.272,1289.56 893.696,1275.6 904.12,1263.6 914.544,1253.51 924.968,1244.98 935.392,1237.41 
  945.816,1230.06 956.24,1222.06 966.664,1212.44 977.089,1200.28 987.513,1184.93 997.937,1166.17 1008.36,1144.17 1018.78,1119.34 1029.21,1092.16 1039.63,1063.16 
  1050.06,1033.02 1060.48,1002.76 1070.91,973.653 1081.33,947.032 1091.75,923.907 1102.18,904.78 1112.6,889.686 1123.03,878.403 1133.45,870.669 1143.87,866.323 
  1154.3,865.364 1164.72,867.987 1175.15,874.588 1185.57,885.684 1195.99,901.719 1206.42,922.815 1216.84,948.589 1227.27,978.145 1237.69,1010.25 1248.11,1043.6 
  1258.54,1077 1268.96,1109.45 1279.39,1140.11 1289.81,1168.23 1300.24,1193.16 1310.66,1214.44 1321.08,1231.95 1331.51,1245.96 1341.93,1257.09 1352.36,1266.08 
  1362.78,1273.65 1373.2,1280.37 1383.63,1286.68 1394.05,1292.97 1404.48,1299.66 1414.9,1307.21 1425.32,1315.99 1435.75,1326.16 1446.17,1337.52 1456.6,1349.52 
  1467.02,1361.43 1477.44,1372.58 1487.87,1382.62 1498.29,1391.62 1508.72,1399.96 1519.14,1408.13 1529.57,1416.43 1539.99,1424.83 1550.41,1432.99 1560.84,1440.41 
  1571.26,1446.63 1581.69,1451.43 1592.11,1454.86 1602.53,1457.17 1612.96,1458.68 1623.38,1459.69 1633.81,1460.36 1644.23,1460.8 1654.65,1461.07 1665.08,1461.21 
  1675.5,1461.25 1685.93,1461.21 1696.35,1461.1 1706.77,1460.94 1717.2,1460.8 1727.62,1460.79 1738.05,1461.03 1748.47,1461.61 1758.9,1462.51 1769.32,1463.62 
  1779.74,1464.77 1790.17,1465.77 1800.59,1466.49 1811.02,1466.87 1821.44,1466.96 1831.86,1466.85 1842.29,1466.71 1852.71,1466.66 1863.14,1466.78 1873.56,1467.07 
  1883.98,1467.49 1894.41,1467.93 1904.83,1468.31 1915.26,1468.56 1925.68,1468.62 1936.1,1468.5 1946.53,1468.21 1956.95,1467.8 1967.38,1467.34 1977.8,1466.92 
  1988.23,1466.61 1998.65,1466.45 2009.07,1466.42 2019.5,1466.44 2029.92,1466.46 2040.35,1466.44 2050.77,1466.37 2061.19,1466.32 2071.62,1466.33 2082.04,1466.42 
  2092.47,1466.56 2102.89,1466.68 2113.31,1466.71 2123.74,1466.66 2134.16,1466.58 2144.59,1466.54 2155.01,1466.62 2165.43,1466.88 2175.86,1467.27 2186.28,1467.74 
  2196.71,1468.21 2207.13,1468.61 2217.56,1468.91 2227.98,1469.11 2238.4,1469.23 2248.83,1469.3 2259.25,1469.33 2269.68,1469.35 2280.1,1469.35 2290.52,1469.35 
  
  "/>
<polygon clip-path="url(#clip1600)" points="
1989.93,1051.72 2280.76,1051.72 2280.76,930.764 1989.93,930.764 
  " fill="#ffffff" fill-rule="evenodd" fill-opacity="1"/>
<polyline clip-path="url(#clip1600)" style="stroke:#000000; stroke-width:4; stroke-opacity:1; fill:none" points="
  1989.93,1051.72 2280.76,1051.72 2280.76,930.764 1989.93,930.764 1989.93,1051.72 
  "/>
<polyline clip-path="url(#clip1600)" style="stroke:#009af9; stroke-width:4; stroke-opacity:1; fill:none" points="
  2013.93,991.244 2157.93,991.244 
  "/>
<g clip-path="url(#clip1600)">
<text style="fill:#000000; fill-opacity:1; font-family:Arial,Helvetica Neue,Helvetica,sans-serif; font-size:48px; text-anchor:start;" transform="rotate(0, 2181.93, 1008.74)" x="2181.93" y="1008.74">y1</text>
</g>
</svg>
