<?xml version="1.0" encoding="utf-8"?>
<svg xmlns="http://www.w3.org/2000/svg" xmlns:xlink="http://www.w3.org/1999/xlink" width="600" height="400" viewBox="0 0 2400 1600">
<defs>
  <clipPath id="clip940">
    <rect x="0" y="0" width="2400" height="1600"/>
  </clipPath>
</defs>
<path clip-path="url(#clip940)" d="
M0 1600 L2400 1600 L2400 0 L0 0  Z
  " fill="#ffffff" fill-rule="evenodd" fill-opacity="1"/>
<defs>
  <clipPath id="clip941">
    <rect x="480" y="0" width="1681" height="1600"/>
  </clipPath>
</defs>
<path clip-path="url(#clip940)" d="
M140.696 1486.45 L2352.76 1486.45 L2352.76 47.2441 L140.696 47.2441  Z
  " fill="#ffffff" fill-rule="evenodd" fill-opacity="1"/>
<defs>
  <clipPath id="clip942">
    <rect x="140" y="47" width="2213" height="1440"/>
  </clipPath>
</defs>
<polyline clip-path="url(#clip942)" style="stroke:#000000; stroke-width:2; stroke-opacity:0.1; fill:none" points="
  204.848,1486.45 204.848,47.2441 
  "/>
<polyline clip-path="url(#clip942)" style="stroke:#000000; stroke-width:2; stroke-opacity:0.1; fill:none" points="
  882.224,1486.45 882.224,47.2441 
  "/>
<polyline clip-path="url(#clip942)" style="stroke:#000000; stroke-width:2; stroke-opacity:0.1; fill:none" points="
  1559.6,1486.45 1559.6,47.2441 
  "/>
<polyline clip-path="url(#clip942)" style="stroke:#000000; stroke-width:2; stroke-opacity:0.1; fill:none" points="
  2236.98,1486.45 2236.98,47.2441 
  "/>
<polyline clip-path="url(#clip940)" style="stroke:#000000; stroke-width:4; stroke-opacity:1; fill:none" points="
  140.696,1486.45 2352.76,1486.45 
  "/>
<polyline clip-path="url(#clip940)" style="stroke:#000000; stroke-width:4; stroke-opacity:1; fill:none" points="
  204.848,1486.45 204.848,1469.18 
  "/>
<polyline clip-path="url(#clip940)" style="stroke:#000000; stroke-width:4; stroke-opacity:1; fill:none" points="
  882.224,1486.45 882.224,1469.18 
  "/>
<polyline clip-path="url(#clip940)" style="stroke:#000000; stroke-width:4; stroke-opacity:1; fill:none" points="
  1559.6,1486.45 1559.6,1469.18 
  "/>
<polyline clip-path="url(#clip940)" style="stroke:#000000; stroke-width:4; stroke-opacity:1; fill:none" points="
  2236.98,1486.45 2236.98,1469.18 
  "/>
<path clip-path="url(#clip940)" d="M 0 0 M157.418 1543.18 L165.057 1543.18 L165.057 1516.82 L156.747 1518.49 L156.747 1514.23 L165.011 1512.56 L169.687 1512.56 L169.687 1543.18 L177.325 1543.18 L177.325 1547.12 L157.418 1547.12 L157.418 1543.18 Z" fill="#000000" fill-rule="evenodd" fill-opacity="1" /><path clip-path="url(#clip940)" d="M 0 0 M186.77 1541.24 L191.654 1541.24 L191.654 1547.12 L186.77 1547.12 L186.77 1541.24 Z" fill="#000000" fill-rule="evenodd" fill-opacity="1" /><path clip-path="url(#clip940)" d="M 0 0 M201.978 1546.4 L201.978 1542.14 Q203.737 1542.98 205.543 1543.42 Q207.348 1543.86 209.085 1543.86 Q213.714 1543.86 216.145 1540.75 Q218.598 1537.63 218.946 1531.29 Q217.603 1533.28 215.543 1534.34 Q213.483 1535.41 210.983 1535.41 Q205.798 1535.41 202.765 1532.28 Q199.756 1529.13 199.756 1523.69 Q199.756 1518.37 202.904 1515.15 Q206.052 1511.93 211.284 1511.93 Q217.279 1511.93 220.427 1516.54 Q223.598 1521.12 223.598 1529.87 Q223.598 1538.05 219.709 1542.93 Q215.844 1547.79 209.293 1547.79 Q207.534 1547.79 205.728 1547.44 Q203.923 1547.1 201.978 1546.4 M211.284 1531.75 Q214.432 1531.75 216.26 1529.6 Q218.112 1527.44 218.112 1523.69 Q218.112 1519.97 216.26 1517.81 Q214.432 1515.64 211.284 1515.64 Q208.135 1515.64 206.284 1517.81 Q204.455 1519.97 204.455 1523.69 Q204.455 1527.44 206.284 1529.6 Q208.135 1531.75 211.284 1531.75 Z" fill="#000000" fill-rule="evenodd" fill-opacity="1" /><path clip-path="url(#clip940)" d="M 0 0 M232.047 1512.56 L250.404 1512.56 L250.404 1516.5 L236.33 1516.5 L236.33 1524.97 Q237.348 1524.62 238.367 1524.46 Q239.385 1524.27 240.404 1524.27 Q246.191 1524.27 249.57 1527.44 Q252.95 1530.62 252.95 1536.03 Q252.95 1541.61 249.478 1544.71 Q246.006 1547.79 239.686 1547.79 Q237.51 1547.79 235.242 1547.42 Q232.996 1547.05 230.589 1546.31 L230.589 1541.61 Q232.672 1542.74 234.895 1543.3 Q237.117 1543.86 239.594 1543.86 Q243.598 1543.86 245.936 1541.75 Q248.274 1539.64 248.274 1536.03 Q248.274 1532.42 245.936 1530.31 Q243.598 1528.21 239.594 1528.21 Q237.719 1528.21 235.844 1528.62 Q233.992 1529.04 232.047 1529.92 L232.047 1512.56 Z" fill="#000000" fill-rule="evenodd" fill-opacity="1" /><path clip-path="url(#clip940)" d="M 0 0 M838.382 1543.18 L854.701 1543.18 L854.701 1547.12 L832.757 1547.12 L832.757 1543.18 Q835.419 1540.43 840.002 1535.8 Q844.609 1531.15 845.789 1529.81 Q848.035 1527.28 848.914 1525.55 Q849.817 1523.79 849.817 1522.1 Q849.817 1519.34 847.873 1517.61 Q845.951 1515.87 842.85 1515.87 Q840.65 1515.87 838.197 1516.63 Q835.766 1517.4 832.988 1518.95 L832.988 1514.23 Q835.813 1513.09 838.266 1512.51 Q840.72 1511.93 842.757 1511.93 Q848.127 1511.93 851.322 1514.62 Q854.516 1517.31 854.516 1521.8 Q854.516 1523.93 853.706 1525.85 Q852.919 1527.74 850.812 1530.34 Q850.234 1531.01 847.132 1534.23 Q844.03 1537.42 838.382 1543.18 Z" fill="#000000" fill-rule="evenodd" fill-opacity="1" /><path clip-path="url(#clip940)" d="M 0 0 M864.516 1541.24 L869.4 1541.24 L869.4 1547.12 L864.516 1547.12 L864.516 1541.24 Z" fill="#000000" fill-rule="evenodd" fill-opacity="1" /><path clip-path="url(#clip940)" d="M 0 0 M889.585 1515.64 Q885.974 1515.64 884.146 1519.2 Q882.34 1522.75 882.34 1529.87 Q882.34 1536.98 884.146 1540.55 Q885.974 1544.09 889.585 1544.09 Q893.22 1544.09 895.025 1540.55 Q896.854 1536.98 896.854 1529.87 Q896.854 1522.75 895.025 1519.2 Q893.22 1515.64 889.585 1515.64 M889.585 1511.93 Q895.396 1511.93 898.451 1516.54 Q901.53 1521.12 901.53 1529.87 Q901.53 1538.6 898.451 1543.21 Q895.396 1547.79 889.585 1547.79 Q883.775 1547.79 880.697 1543.21 Q877.641 1538.6 877.641 1529.87 Q877.641 1521.12 880.697 1516.54 Q883.775 1511.93 889.585 1511.93 Z" fill="#000000" fill-rule="evenodd" fill-opacity="1" /><path clip-path="url(#clip940)" d="M 0 0 M919.747 1515.64 Q916.136 1515.64 914.307 1519.2 Q912.502 1522.75 912.502 1529.87 Q912.502 1536.98 914.307 1540.55 Q916.136 1544.09 919.747 1544.09 Q923.382 1544.09 925.187 1540.55 Q927.016 1536.98 927.016 1529.87 Q927.016 1522.75 925.187 1519.2 Q923.382 1515.64 919.747 1515.64 M919.747 1511.93 Q925.557 1511.93 928.613 1516.54 Q931.692 1521.12 931.692 1529.87 Q931.692 1538.6 928.613 1543.21 Q925.557 1547.79 919.747 1547.79 Q913.937 1547.79 910.858 1543.21 Q907.803 1538.6 907.803 1529.87 Q907.803 1521.12 910.858 1516.54 Q913.937 1511.93 919.747 1511.93 Z" fill="#000000" fill-rule="evenodd" fill-opacity="1" /><path clip-path="url(#clip940)" d="M 0 0 M1516.26 1543.18 L1532.57 1543.18 L1532.57 1547.12 L1510.63 1547.12 L1510.63 1543.18 Q1513.29 1540.43 1517.88 1535.8 Q1522.48 1531.15 1523.66 1529.81 Q1525.91 1527.28 1526.79 1525.55 Q1527.69 1523.79 1527.69 1522.1 Q1527.69 1519.34 1525.75 1517.61 Q1523.82 1515.87 1520.72 1515.87 Q1518.52 1515.87 1516.07 1516.63 Q1513.64 1517.4 1510.86 1518.95 L1510.86 1514.23 Q1513.69 1513.09 1516.14 1512.51 Q1518.59 1511.93 1520.63 1511.93 Q1526 1511.93 1529.2 1514.62 Q1532.39 1517.31 1532.39 1521.8 Q1532.39 1523.93 1531.58 1525.85 Q1530.79 1527.74 1528.69 1530.34 Q1528.11 1531.01 1525.01 1534.23 Q1521.9 1537.42 1516.26 1543.18 Z" fill="#000000" fill-rule="evenodd" fill-opacity="1" /><path clip-path="url(#clip940)" d="M 0 0 M1542.39 1541.24 L1547.27 1541.24 L1547.27 1547.12 L1542.39 1547.12 L1542.39 1541.24 Z" fill="#000000" fill-rule="evenodd" fill-opacity="1" /><path clip-path="url(#clip940)" d="M 0 0 M1567.46 1515.64 Q1563.85 1515.64 1562.02 1519.2 Q1560.21 1522.75 1560.21 1529.87 Q1560.21 1536.98 1562.02 1540.55 Q1563.85 1544.09 1567.46 1544.09 Q1571.09 1544.09 1572.9 1540.55 Q1574.73 1536.98 1574.73 1529.87 Q1574.73 1522.75 1572.9 1519.2 Q1571.09 1515.64 1567.46 1515.64 M1567.46 1511.93 Q1573.27 1511.93 1576.32 1516.54 Q1579.4 1521.12 1579.4 1529.87 Q1579.4 1538.6 1576.32 1543.21 Q1573.27 1547.79 1567.46 1547.79 Q1561.65 1547.79 1558.57 1543.21 Q1555.51 1538.6 1555.51 1529.87 Q1555.51 1521.12 1558.57 1516.54 Q1561.65 1511.93 1567.46 1511.93 Z" fill="#000000" fill-rule="evenodd" fill-opacity="1" /><path clip-path="url(#clip940)" d="M 0 0 M1587.67 1512.56 L1606.02 1512.56 L1606.02 1516.5 L1591.95 1516.5 L1591.95 1524.97 Q1592.97 1524.62 1593.99 1524.46 Q1595.01 1524.27 1596.02 1524.27 Q1601.81 1524.27 1605.19 1527.44 Q1608.57 1530.62 1608.57 1536.03 Q1608.57 1541.61 1605.1 1544.71 Q1601.63 1547.79 1595.31 1547.79 Q1593.13 1547.79 1590.86 1547.42 Q1588.62 1547.05 1586.21 1546.31 L1586.21 1541.61 Q1588.29 1542.74 1590.51 1543.3 Q1592.74 1543.86 1595.21 1543.86 Q1599.22 1543.86 1601.56 1541.75 Q1603.89 1539.64 1603.89 1536.03 Q1603.89 1532.42 1601.56 1530.31 Q1599.22 1528.21 1595.21 1528.21 Q1593.34 1528.21 1591.46 1528.62 Q1589.61 1529.04 1587.67 1529.92 L1587.67 1512.56 Z" fill="#000000" fill-rule="evenodd" fill-opacity="1" /><path clip-path="url(#clip940)" d="M 0 0 M2193.13 1543.18 L2209.45 1543.18 L2209.45 1547.12 L2187.51 1547.12 L2187.51 1543.18 Q2190.17 1540.43 2194.75 1535.8 Q2199.36 1531.15 2200.54 1529.81 Q2202.79 1527.28 2203.67 1525.55 Q2204.57 1523.79 2204.57 1522.1 Q2204.57 1519.34 2202.62 1517.61 Q2200.7 1515.87 2197.6 1515.87 Q2195.4 1515.87 2192.95 1516.63 Q2190.52 1517.4 2187.74 1518.95 L2187.74 1514.23 Q2190.56 1513.09 2193.02 1512.51 Q2195.47 1511.93 2197.51 1511.93 Q2202.88 1511.93 2206.07 1514.62 Q2209.27 1517.31 2209.27 1521.8 Q2209.27 1523.93 2208.46 1525.85 Q2207.67 1527.74 2205.56 1530.34 Q2204.99 1531.01 2201.88 1534.23 Q2198.78 1537.42 2193.13 1543.18 Z" fill="#000000" fill-rule="evenodd" fill-opacity="1" /><path clip-path="url(#clip940)" d="M 0 0 M2219.27 1541.24 L2224.15 1541.24 L2224.15 1547.12 L2219.27 1547.12 L2219.27 1541.24 Z" fill="#000000" fill-rule="evenodd" fill-opacity="1" /><path clip-path="url(#clip940)" d="M 0 0 M2235.15 1543.18 L2242.79 1543.18 L2242.79 1516.82 L2234.48 1518.49 L2234.48 1514.23 L2242.74 1512.56 L2247.42 1512.56 L2247.42 1543.18 L2255.05 1543.18 L2255.05 1547.12 L2235.15 1547.12 L2235.15 1543.18 Z" fill="#000000" fill-rule="evenodd" fill-opacity="1" /><path clip-path="url(#clip940)" d="M 0 0 M2274.5 1515.64 Q2270.89 1515.64 2269.06 1519.2 Q2267.25 1522.75 2267.25 1529.87 Q2267.25 1536.98 2269.06 1540.55 Q2270.89 1544.09 2274.5 1544.09 Q2278.13 1544.09 2279.94 1540.55 Q2281.77 1536.98 2281.77 1529.87 Q2281.77 1522.75 2279.94 1519.2 Q2278.13 1515.64 2274.5 1515.64 M2274.5 1511.93 Q2280.31 1511.93 2283.36 1516.54 Q2286.44 1521.12 2286.44 1529.87 Q2286.44 1538.6 2283.36 1543.21 Q2280.31 1547.79 2274.5 1547.79 Q2268.69 1547.79 2265.61 1543.21 Q2262.55 1538.6 2262.55 1529.87 Q2262.55 1521.12 2265.61 1516.54 Q2268.69 1511.93 2274.5 1511.93 Z" fill="#000000" fill-rule="evenodd" fill-opacity="1" /><polyline clip-path="url(#clip942)" style="stroke:#000000; stroke-width:2; stroke-opacity:0.1; fill:none" points="
  140.696,1445.72 2352.76,1445.72 
  "/>
<polyline clip-path="url(#clip942)" style="stroke:#000000; stroke-width:2; stroke-opacity:0.1; fill:none" points="
  140.696,1146.33 2352.76,1146.33 
  "/>
<polyline clip-path="url(#clip942)" style="stroke:#000000; stroke-width:2; stroke-opacity:0.1; fill:none" points="
  140.696,846.943 2352.76,846.943 
  "/>
<polyline clip-path="url(#clip942)" style="stroke:#000000; stroke-width:2; stroke-opacity:0.1; fill:none" points="
  140.696,547.556 2352.76,547.556 
  "/>
<polyline clip-path="url(#clip942)" style="stroke:#000000; stroke-width:2; stroke-opacity:0.1; fill:none" points="
  140.696,248.169 2352.76,248.169 
  "/>
<polyline clip-path="url(#clip940)" style="stroke:#000000; stroke-width:4; stroke-opacity:1; fill:none" points="
  140.696,1486.45 140.696,47.2441 
  "/>
<polyline clip-path="url(#clip940)" style="stroke:#000000; stroke-width:4; stroke-opacity:1; fill:none" points="
  140.696,1445.72 167.24,1445.72 
  "/>
<polyline clip-path="url(#clip940)" style="stroke:#000000; stroke-width:4; stroke-opacity:1; fill:none" points="
  140.696,1146.33 167.24,1146.33 
  "/>
<polyline clip-path="url(#clip940)" style="stroke:#000000; stroke-width:4; stroke-opacity:1; fill:none" points="
  140.696,846.943 167.24,846.943 
  "/>
<polyline clip-path="url(#clip940)" style="stroke:#000000; stroke-width:4; stroke-opacity:1; fill:none" points="
  140.696,547.556 167.24,547.556 
  "/>
<polyline clip-path="url(#clip940)" style="stroke:#000000; stroke-width:4; stroke-opacity:1; fill:none" points="
  140.696,248.169 167.24,248.169 
  "/>
<path clip-path="url(#clip940)" d="M 0 0 M92.7512 1431.51 Q89.1401 1431.51 87.3114 1435.08 Q85.5058 1438.62 85.5058 1445.75 Q85.5058 1452.86 87.3114 1456.42 Q89.1401 1459.96 92.7512 1459.96 Q96.3854 1459.96 98.1909 1456.42 Q100.02 1452.86 100.02 1445.75 Q100.02 1438.62 98.1909 1435.08 Q96.3854 1431.51 92.7512 1431.51 M92.7512 1427.81 Q98.5613 1427.81 101.617 1432.42 Q104.696 1437 104.696 1445.75 Q104.696 1454.48 101.617 1459.08 Q98.5613 1463.67 92.7512 1463.67 Q86.941 1463.67 83.8623 1459.08 Q80.8068 1454.48 80.8068 1445.75 Q80.8068 1437 83.8623 1432.42 Q86.941 1427.81 92.7512 1427.81 Z" fill="#000000" fill-rule="evenodd" fill-opacity="1" /><path clip-path="url(#clip940)" d="M 0 0 M83.7929 1129.05 L102.149 1129.05 L102.149 1132.98 L88.0753 1132.98 L88.0753 1141.46 Q89.0938 1141.11 90.1123 1140.95 Q91.1308 1140.76 92.1493 1140.76 Q97.9363 1140.76 101.316 1143.93 Q104.696 1147.1 104.696 1152.52 Q104.696 1158.1 101.223 1161.2 Q97.7511 1164.28 91.4317 1164.28 Q89.2558 1164.28 86.9873 1163.91 Q84.7419 1163.54 82.3346 1162.8 L82.3346 1158.1 Q84.4179 1159.23 86.6401 1159.79 Q88.8623 1160.35 91.3391 1160.35 Q95.3437 1160.35 97.6817 1158.24 Q100.02 1156.13 100.02 1152.52 Q100.02 1148.91 97.6817 1146.8 Q95.3437 1144.7 91.3391 1144.7 Q89.4641 1144.7 87.5892 1145.11 Q85.7373 1145.53 83.7929 1146.41 L83.7929 1129.05 Z" fill="#000000" fill-rule="evenodd" fill-opacity="1" /><path clip-path="url(#clip940)" d="M 0 0 M53.3995 860.287 L61.0384 860.287 L61.0384 833.922 L52.7282 835.588 L52.7282 831.329 L60.9921 829.663 L65.668 829.663 L65.668 860.287 L73.3068 860.287 L73.3068 864.223 L53.3995 864.223 L53.3995 860.287 Z" fill="#000000" fill-rule="evenodd" fill-opacity="1" /><path clip-path="url(#clip940)" d="M 0 0 M92.7512 832.741 Q89.1401 832.741 87.3114 836.306 Q85.5058 839.848 85.5058 846.977 Q85.5058 854.084 87.3114 857.649 Q89.1401 861.19 92.7512 861.19 Q96.3854 861.19 98.1909 857.649 Q100.02 854.084 100.02 846.977 Q100.02 839.848 98.1909 836.306 Q96.3854 832.741 92.7512 832.741 M92.7512 829.038 Q98.5613 829.038 101.617 833.644 Q104.696 838.227 104.696 846.977 Q104.696 855.704 101.617 860.311 Q98.5613 864.894 92.7512 864.894 Q86.941 864.894 83.8623 860.311 Q80.8068 855.704 80.8068 846.977 Q80.8068 838.227 83.8623 833.644 Q86.941 829.038 92.7512 829.038 Z" fill="#000000" fill-rule="evenodd" fill-opacity="1" /><path clip-path="url(#clip940)" d="M 0 0 M54.3949 560.901 L62.0337 560.901 L62.0337 534.535 L53.7236 536.202 L53.7236 531.943 L61.9874 530.276 L66.6633 530.276 L66.6633 560.901 L74.3022 560.901 L74.3022 564.836 L54.3949 564.836 L54.3949 560.901 Z" fill="#000000" fill-rule="evenodd" fill-opacity="1" /><path clip-path="url(#clip940)" d="M 0 0 M83.7929 530.276 L102.149 530.276 L102.149 534.211 L88.0753 534.211 L88.0753 542.683 Q89.0938 542.336 90.1123 542.174 Q91.1308 541.989 92.1493 541.989 Q97.9363 541.989 101.316 545.16 Q104.696 548.331 104.696 553.748 Q104.696 559.327 101.223 562.429 Q97.7511 565.507 91.4317 565.507 Q89.2558 565.507 86.9873 565.137 Q84.7419 564.767 82.3346 564.026 L82.3346 559.327 Q84.4179 560.461 86.6401 561.017 Q88.8623 561.572 91.3391 561.572 Q95.3437 561.572 97.6817 559.466 Q100.02 557.359 100.02 553.748 Q100.02 550.137 97.6817 548.031 Q95.3437 545.924 91.3391 545.924 Q89.4641 545.924 87.5892 546.341 Q85.7373 546.757 83.7929 547.637 L83.7929 530.276 Z" fill="#000000" fill-rule="evenodd" fill-opacity="1" /><path clip-path="url(#clip940)" d="M 0 0 M56.6171 261.514 L72.9365 261.514 L72.9365 265.449 L50.9921 265.449 L50.9921 261.514 Q53.6541 258.76 58.2375 254.13 Q62.8439 249.477 64.0245 248.135 Q66.2698 245.612 67.1494 243.875 Q68.0522 242.116 68.0522 240.426 Q68.0522 237.672 66.1078 235.936 Q64.1865 234.2 61.0847 234.2 Q58.8856 234.2 56.4319 234.963 Q54.0014 235.727 51.2236 237.278 L51.2236 232.556 Q54.0477 231.422 56.5014 230.843 Q58.955 230.264 60.9921 230.264 Q66.3624 230.264 69.5568 232.95 Q72.7513 235.635 72.7513 240.125 Q72.7513 242.255 71.9411 244.176 Q71.1541 246.075 69.0476 248.667 Q68.4689 249.338 65.367 252.556 Q62.2652 255.75 56.6171 261.514 Z" fill="#000000" fill-rule="evenodd" fill-opacity="1" /><path clip-path="url(#clip940)" d="M 0 0 M92.7512 233.968 Q89.1401 233.968 87.3114 237.533 Q85.5058 241.075 85.5058 248.204 Q85.5058 255.311 87.3114 258.875 Q89.1401 262.417 92.7512 262.417 Q96.3854 262.417 98.1909 258.875 Q100.02 255.311 100.02 248.204 Q100.02 241.075 98.1909 237.533 Q96.3854 233.968 92.7512 233.968 M92.7512 230.264 Q98.5613 230.264 101.617 234.871 Q104.696 239.454 104.696 248.204 Q104.696 256.931 101.617 261.537 Q98.5613 266.121 92.7512 266.121 Q86.941 266.121 83.8623 261.537 Q80.8068 256.931 80.8068 248.204 Q80.8068 239.454 83.8623 234.871 Q86.941 230.264 92.7512 230.264 Z" fill="#000000" fill-rule="evenodd" fill-opacity="1" /><path clip-path="url(#clip942)" d="
M203.301 1444.74 L208.541 1444.53 L213.78 1444.3 L219.02 1444.07 L224.259 1443.83 L229.499 1443.6 L234.738 1443.4 L239.978 1443.23 L245.217 1443.11 L250.457 1443.04 
  L255.697 1443.02 L260.936 1443.05 L266.176 1443.1 L271.415 1443.15 L276.655 1443.16 L281.894 1443.12 L287.134 1442.99 L292.373 1442.78 L297.613 1442.46 L302.853 1442.03 
  L308.092 1441.52 L313.332 1440.94 L318.571 1440.33 L323.811 1439.73 L329.05 1439.19 L334.29 1438.74 L339.529 1438.41 L344.769 1438.19 L350.009 1438.03 L355.248 1437.85 
  L360.488 1437.55 L365.727 1437.04 L370.967 1436.26 L376.206 1435.16 L381.446 1433.77 L386.685 1432.14 L391.925 1430.36 L397.164 1428.5 L402.404 1426.67 L407.644 1424.92 
  L412.883 1423.26 L418.123 1421.68 L423.362 1420.16 L428.602 1418.62 L433.841 1417.03 L439.081 1415.32 L444.32 1413.48 L449.56 1411.48 L454.8 1409.3 L460.039 1406.96 
  L465.279 1404.44 L470.518 1401.76 L475.758 1398.95 L480.997 1396.04 L486.237 1393.05 L491.476 1390.03 L496.716 1386.97 L501.956 1383.87 L507.195 1380.68 L512.435 1377.36 
  L517.674 1373.86 L522.914 1370.14 L528.153 1366.21 L533.393 1362.1 L538.632 1357.9 L543.872 1353.72 L549.112 1349.67 L554.351 1345.78 L559.591 1342.05 L564.83 1338.33 
  L570.07 1334.47 L575.309 1330.26 L580.549 1325.57 L585.788 1320.39 L591.028 1314.83 L596.267 1309.12 L601.507 1303.5 L606.747 1298.22 L611.986 1293.38 L617.226 1288.94 
  L622.465 1284.73 L627.705 1280.45 L632.944 1275.79 L638.184 1270.47 L643.423 1264.29 L648.663 1257.17 L653.903 1249.13 L659.142 1240.28 L664.382 1230.8 L669.621 1220.89 
  L674.861 1210.75 L680.1 1200.55 L685.34 1190.41 L690.579 1180.39 L695.819 1170.5 L701.059 1160.7 L706.298 1150.88 L711.538 1140.95 L716.777 1130.77 L722.017 1120.23 
  L722.017 1445.72 L716.777 1445.72 L711.538 1445.72 L706.298 1445.72 L701.059 1445.72 L695.819 1445.72 L690.579 1445.72 L685.34 1445.72 L680.1 1445.72 L674.861 1445.72 
  L669.621 1445.72 L664.382 1445.72 L659.142 1445.72 L653.903 1445.72 L648.663 1445.72 L643.423 1445.72 L638.184 1445.72 L632.944 1445.72 L627.705 1445.72 L622.465 1445.72 
  L617.226 1445.72 L611.986 1445.72 L606.747 1445.72 L601.507 1445.72 L596.267 1445.72 L591.028 1445.72 L585.788 1445.72 L580.549 1445.72 L575.309 1445.72 L570.07 1445.72 
  L564.83 1445.72 L559.591 1445.72 L554.351 1445.72 L549.112 1445.72 L543.872 1445.72 L538.632 1445.72 L533.393 1445.72 L528.153 1445.72 L522.914 1445.72 L517.674 1445.72 
  L512.435 1445.72 L507.195 1445.72 L501.956 1445.72 L496.716 1445.72 L491.476 1445.72 L486.237 1445.72 L480.997 1445.72 L475.758 1445.72 L470.518 1445.72 L465.279 1445.72 
  L460.039 1445.72 L454.8 1445.72 L449.56 1445.72 L444.32 1445.72 L439.081 1445.72 L433.841 1445.72 L428.602 1445.72 L423.362 1445.72 L418.123 1445.72 L412.883 1445.72 
  L407.644 1445.72 L402.404 1445.72 L397.164 1445.72 L391.925 1445.72 L386.685 1445.72 L381.446 1445.72 L376.206 1445.72 L370.967 1445.72 L365.727 1445.72 L360.488 1445.72 
  L355.248 1445.72 L350.009 1445.72 L344.769 1445.72 L339.529 1445.72 L334.29 1445.72 L329.05 1445.72 L323.811 1445.72 L318.571 1445.72 L313.332 1445.72 L308.092 1445.72 
  L302.853 1445.72 L297.613 1445.72 L292.373 1445.72 L287.134 1445.72 L281.894 1445.72 L276.655 1445.72 L271.415 1445.72 L266.176 1445.72 L260.936 1445.72 L255.697 1445.72 
  L250.457 1445.72 L245.217 1445.72 L239.978 1445.72 L234.738 1445.72 L229.499 1445.72 L224.259 1445.72 L219.02 1445.72 L213.78 1445.72 L208.541 1445.72 L203.301 1445.72 
   Z
  " fill="#ffa500" fill-rule="evenodd" fill-opacity="0.5"/>
<polyline clip-path="url(#clip942)" style="stroke:#ffa500; stroke-width:4; stroke-opacity:1; fill:none" points="
  203.301,1444.74 208.541,1444.53 213.78,1444.3 219.02,1444.07 224.259,1443.83 229.499,1443.6 234.738,1443.4 239.978,1443.23 245.217,1443.11 250.457,1443.04 
  255.697,1443.02 260.936,1443.05 266.176,1443.1 271.415,1443.15 276.655,1443.16 281.894,1443.12 287.134,1442.99 292.373,1442.78 297.613,1442.46 302.853,1442.03 
  308.092,1441.52 313.332,1440.94 318.571,1440.33 323.811,1439.73 329.05,1439.19 334.29,1438.74 339.529,1438.41 344.769,1438.19 350.009,1438.03 355.248,1437.85 
  360.488,1437.55 365.727,1437.04 370.967,1436.26 376.206,1435.16 381.446,1433.77 386.685,1432.14 391.925,1430.36 397.164,1428.5 402.404,1426.67 407.644,1424.92 
  412.883,1423.26 418.123,1421.68 423.362,1420.16 428.602,1418.62 433.841,1417.03 439.081,1415.32 444.32,1413.48 449.56,1411.48 454.8,1409.3 460.039,1406.96 
  465.279,1404.44 470.518,1401.76 475.758,1398.95 480.997,1396.04 486.237,1393.05 491.476,1390.03 496.716,1386.97 501.956,1383.87 507.195,1380.68 512.435,1377.36 
  517.674,1373.86 522.914,1370.14 528.153,1366.21 533.393,1362.1 538.632,1357.9 543.872,1353.72 549.112,1349.67 554.351,1345.78 559.591,1342.05 564.83,1338.33 
  570.07,1334.47 575.309,1330.26 580.549,1325.57 585.788,1320.39 591.028,1314.83 596.267,1309.12 601.507,1303.5 606.747,1298.22 611.986,1293.38 617.226,1288.94 
  622.465,1284.73 627.705,1280.45 632.944,1275.79 638.184,1270.47 643.423,1264.29 648.663,1257.17 653.903,1249.13 659.142,1240.28 664.382,1230.8 669.621,1220.89 
  674.861,1210.75 680.1,1200.55 685.34,1190.41 690.579,1180.39 695.819,1170.5 701.059,1160.7 706.298,1150.88 711.538,1140.95 716.777,1130.77 722.017,1120.23 
  
  "/>
<path clip-path="url(#clip942)" d="
M722.017 1120.23 L729.9 1103.46 L737.784 1085.37 L745.667 1065.86 L753.551 1044.9 L761.435 1022.4 L769.318 998.166 L777.202 971.904 L785.085 943.445 L792.969 912.943 
  L800.852 880.953 L808.736 848.335 L816.62 816.009 L824.503 784.634 L832.387 754.323 L840.27 724.622 L848.154 694.875 L856.037 664.796 L863.921 634.758 L871.805 605.574 
  L879.688 577.933 L887.572 551.94 L895.455 527.005 L903.339 502.015 L911.222 475.677 L919.106 446.971 L926.99 415.606 L934.873 382.19 L942.757 347.992 L950.64 314.471 
  L958.524 282.995 L966.407 254.847 L974.291 231.218 L982.174 212.805 L990.058 199.231 L997.942 189 L1005.83 180.294 L1013.71 172.07 L1021.59 164.455 L1029.48 158.098 
  L1037.36 153.137 L1045.24 148.787 L1053.13 143.919 L1061.01 138.047 L1068.89 131.739 L1076.78 126.075 L1084.66 121.649 L1092.54 118.04 L1100.43 114.219 L1108.31 109.438 
  L1116.2 103.771 L1124.08 97.9425 L1131.96 92.8221 L1139.85 89.1925 L1147.73 87.9763 L1155.61 90.49 L1163.5 98.2026 L1171.38 111.946 L1179.26 131.142 L1187.15 153.773 
  L1195.03 177.273 L1202.91 199.757 L1210.8 220.711 L1218.68 240.739 L1226.57 260.747 L1234.45 281.254 L1242.33 302.225 L1250.22 323.278 L1258.1 343.912 L1265.98 363.59 
  L1273.87 381.861 L1281.75 398.704 L1289.63 414.951 L1297.52 432.33 L1305.4 452.847 L1313.28 477.77 L1321.17 506.922 L1329.05 538.788 L1336.94 571.377 L1344.82 603.25 
  L1352.7 634.093 L1360.59 664.547 L1368.47 695.47 L1376.35 727.144 L1384.24 758.975 L1392.12 789.853 L1400 818.844 L1407.89 845.637 L1415.77 870.458 L1423.65 893.662 
  L1431.54 915.396 L1439.42 935.58 L1447.3 954.141 L1455.19 971.295 L1463.07 987.711 L1470.96 1004.44 L1478.84 1022.6 L1486.72 1042.82 L1494.61 1064.86 L1502.49 1087.48 
  L1502.49 1445.72 L1494.61 1445.72 L1486.72 1445.72 L1478.84 1445.72 L1470.96 1445.72 L1463.07 1445.72 L1455.19 1445.72 L1447.3 1445.72 L1439.42 1445.72 L1431.54 1445.72 
  L1423.65 1445.72 L1415.77 1445.72 L1407.89 1445.72 L1400 1445.72 L1392.12 1445.72 L1384.24 1445.72 L1376.35 1445.72 L1368.47 1445.72 L1360.59 1445.72 L1352.7 1445.72 
  L1344.82 1445.72 L1336.94 1445.72 L1329.05 1445.72 L1321.17 1445.72 L1313.28 1445.72 L1305.4 1445.72 L1297.52 1445.72 L1289.63 1445.72 L1281.75 1445.72 L1273.87 1445.72 
  L1265.98 1445.72 L1258.1 1445.72 L1250.22 1445.72 L1242.33 1445.72 L1234.45 1445.72 L1226.57 1445.72 L1218.68 1445.72 L1210.8 1445.72 L1202.91 1445.72 L1195.03 1445.72 
  L1187.15 1445.72 L1179.26 1445.72 L1171.38 1445.72 L1163.5 1445.72 L1155.61 1445.72 L1147.73 1445.72 L1139.85 1445.72 L1131.96 1445.72 L1124.08 1445.72 L1116.2 1445.72 
  L1108.31 1445.72 L1100.43 1445.72 L1092.54 1445.72 L1084.66 1445.72 L1076.78 1445.72 L1068.89 1445.72 L1061.01 1445.72 L1053.13 1445.72 L1045.24 1445.72 L1037.36 1445.72 
  L1029.48 1445.72 L1021.59 1445.72 L1013.71 1445.72 L1005.83 1445.72 L997.942 1445.72 L990.058 1445.72 L982.174 1445.72 L974.291 1445.72 L966.407 1445.72 L958.524 1445.72 
  L950.64 1445.72 L942.757 1445.72 L934.873 1445.72 L926.99 1445.72 L919.106 1445.72 L911.222 1445.72 L903.339 1445.72 L895.455 1445.72 L887.572 1445.72 L879.688 1445.72 
  L871.805 1445.72 L863.921 1445.72 L856.037 1445.72 L848.154 1445.72 L840.27 1445.72 L832.387 1445.72 L824.503 1445.72 L816.62 1445.72 L808.736 1445.72 L800.852 1445.72 
  L792.969 1445.72 L785.085 1445.72 L777.202 1445.72 L769.318 1445.72 L761.435 1445.72 L753.551 1445.72 L745.667 1445.72 L737.784 1445.72 L729.9 1445.72 L722.017 1445.72 
   Z
  " fill="#008000" fill-rule="evenodd" fill-opacity="0.5"/>
<polyline clip-path="url(#clip942)" style="stroke:#008000; stroke-width:4; stroke-opacity:1; fill:none" points="
  722.017,1120.23 729.9,1103.46 737.784,1085.37 745.667,1065.86 753.551,1044.9 761.435,1022.4 769.318,998.166 777.202,971.904 785.085,943.445 792.969,912.943 
  800.852,880.953 808.736,848.335 816.62,816.009 824.503,784.634 832.387,754.323 840.27,724.622 848.154,694.875 856.037,664.796 863.921,634.758 871.805,605.574 
  879.688,577.933 887.572,551.94 895.455,527.005 903.339,502.015 911.222,475.677 919.106,446.971 926.99,415.606 934.873,382.19 942.757,347.992 950.64,314.471 
  958.524,282.995 966.407,254.847 974.291,231.218 982.174,212.805 990.058,199.231 997.942,189 1005.83,180.294 1013.71,172.07 1021.59,164.455 1029.48,158.098 
  1037.36,153.137 1045.24,148.787 1053.13,143.919 1061.01,138.047 1068.89,131.739 1076.78,126.075 1084.66,121.649 1092.54,118.04 1100.43,114.219 1108.31,109.438 
  1116.2,103.771 1124.08,97.9425 1131.96,92.8221 1139.85,89.1925 1147.73,87.9763 1155.61,90.49 1163.5,98.2026 1171.38,111.946 1179.26,131.142 1187.15,153.773 
  1195.03,177.273 1202.91,199.757 1210.8,220.711 1218.68,240.739 1226.57,260.747 1234.45,281.254 1242.33,302.225 1250.22,323.278 1258.1,343.912 1265.98,363.59 
  1273.87,381.861 1281.75,398.704 1289.63,414.951 1297.52,432.33 1305.4,452.847 1313.28,477.77 1321.17,506.922 1329.05,538.788 1336.94,571.377 1344.82,603.25 
  1352.7,634.093 1360.59,664.547 1368.47,695.47 1376.35,727.144 1384.24,758.975 1392.12,789.853 1400,818.844 1407.89,845.637 1415.77,870.458 1423.65,893.662 
  1431.54,915.396 1439.42,935.58 1447.3,954.141 1455.19,971.295 1463.07,987.711 1470.96,1004.44 1478.84,1022.6 1486.72,1042.82 1494.61,1064.86 1502.49,1087.48 
  
  "/>
<path clip-path="url(#clip942)" d="
M1502.49 1087.48 L1510.45 1109.25 L1518.4 1128.69 L1526.36 1145.48 L1534.31 1160.31 L1542.27 1174.28 L1550.23 1188.36 L1558.18 1203.09 L1566.14 1218.58 L1574.1 1234.64 
  L1582.05 1250.76 L1590.01 1266.22 L1597.96 1280.32 L1605.92 1292.65 L1613.88 1303.28 L1621.83 1312.7 L1629.79 1321.5 L1637.74 1330.13 L1645.7 1338.75 L1653.66 1347.23 
  L1661.61 1355.34 L1669.57 1362.88 L1677.53 1369.76 L1685.48 1376.01 L1693.44 1381.71 L1701.39 1386.97 L1709.35 1391.86 L1717.31 1396.4 L1725.26 1400.45 L1733.22 1403.83 
  L1741.17 1406.39 L1749.13 1408.22 L1757.09 1409.62 L1765.04 1411.02 L1773 1412.73 L1780.96 1414.88 L1788.91 1417.43 L1796.87 1420.23 L1804.82 1423.13 L1812.78 1426.01 
  L1820.74 1428.77 L1828.69 1431.32 L1836.65 1433.61 L1844.61 1435.56 L1852.56 1437.1 L1860.52 1438.21 L1868.47 1438.95 L1876.43 1439.45 L1884.39 1439.86 L1892.34 1440.26 
  L1900.3 1440.63 L1908.25 1440.9 L1916.21 1441 L1924.17 1440.95 L1932.12 1440.79 L1940.08 1440.61 L1948.04 1440.45 L1955.99 1440.32 L1963.95 1440.22 L1971.9 1440.18 
  L1979.86 1440.23 L1987.82 1440.41 L1995.77 1440.72 L2003.73 1441.14 L2011.68 1441.63 L2019.64 1442.13 L2027.6 1442.61 L2035.55 1443 L2043.51 1443.26 L2051.47 1443.41 
  L2059.42 1443.47 L2067.38 1443.48 L2075.33 1443.48 L2083.29 1443.49 L2091.25 1443.51 L2099.2 1443.53 L2107.16 1443.56 L2115.11 1443.62 L2123.07 1443.73 L2131.03 1443.89 
  L2138.98 1444.09 L2146.94 1444.29 L2154.9 1444.45 L2162.85 1444.58 L2170.81 1444.67 L2178.76 1444.78 L2186.72 1444.89 L2194.68 1445 L2202.63 1445.1 L2210.59 1445.17 
  L2218.54 1445.2 L2226.5 1445.16 L2234.46 1445.06 L2242.41 1444.94 L2250.37 1444.82 L2258.33 1444.77 L2266.28 1444.81 L2274.24 1444.92 L2282.19 1445.09 L2290.15 1445.25 
  L2290.15 1445.72 L2282.19 1445.72 L2274.24 1445.72 L2266.28 1445.72 L2258.33 1445.72 L2250.37 1445.72 L2242.41 1445.72 L2234.46 1445.72 L2226.5 1445.72 L2218.54 1445.72 
  L2210.59 1445.72 L2202.63 1445.72 L2194.68 1445.72 L2186.72 1445.72 L2178.76 1445.72 L2170.81 1445.72 L2162.85 1445.72 L2154.9 1445.72 L2146.94 1445.72 L2138.98 1445.72 
  L2131.03 1445.72 L2123.07 1445.72 L2115.11 1445.72 L2107.16 1445.72 L2099.2 1445.72 L2091.25 1445.72 L2083.29 1445.72 L2075.33 1445.72 L2067.38 1445.72 L2059.42 1445.72 
  L2051.47 1445.72 L2043.51 1445.72 L2035.55 1445.72 L2027.6 1445.72 L2019.64 1445.72 L2011.68 1445.72 L2003.73 1445.72 L1995.77 1445.72 L1987.82 1445.72 L1979.86 1445.72 
  L1971.9 1445.72 L1963.95 1445.72 L1955.99 1445.72 L1948.04 1445.72 L1940.08 1445.72 L1932.12 1445.72 L1924.17 1445.72 L1916.21 1445.72 L1908.25 1445.72 L1900.3 1445.72 
  L1892.34 1445.72 L1884.39 1445.72 L1876.43 1445.72 L1868.47 1445.72 L1860.52 1445.72 L1852.56 1445.72 L1844.61 1445.72 L1836.65 1445.72 L1828.69 1445.72 L1820.74 1445.72 
  L1812.78 1445.72 L1804.82 1445.72 L1796.87 1445.72 L1788.91 1445.72 L1780.96 1445.72 L1773 1445.72 L1765.04 1445.72 L1757.09 1445.72 L1749.13 1445.72 L1741.17 1445.72 
  L1733.22 1445.72 L1725.26 1445.72 L1717.31 1445.72 L1709.35 1445.72 L1701.39 1445.72 L1693.44 1445.72 L1685.48 1445.72 L1677.53 1445.72 L1669.57 1445.72 L1661.61 1445.72 
  L1653.66 1445.72 L1645.7 1445.72 L1637.74 1445.72 L1629.79 1445.72 L1621.83 1445.72 L1613.88 1445.72 L1605.92 1445.72 L1597.96 1445.72 L1590.01 1445.72 L1582.05 1445.72 
  L1574.1 1445.72 L1566.14 1445.72 L1558.18 1445.72 L1550.23 1445.72 L1542.27 1445.72 L1534.31 1445.72 L1526.36 1445.72 L1518.4 1445.72 L1510.45 1445.72 L1502.49 1445.72 
   Z
  " fill="#ffa500" fill-rule="evenodd" fill-opacity="0.5"/>
<polyline clip-path="url(#clip942)" style="stroke:#ffa500; stroke-width:4; stroke-opacity:1; fill:none" points="
  1502.49,1087.48 1510.45,1109.25 1518.4,1128.69 1526.36,1145.48 1534.31,1160.31 1542.27,1174.28 1550.23,1188.36 1558.18,1203.09 1566.14,1218.58 1574.1,1234.64 
  1582.05,1250.76 1590.01,1266.22 1597.96,1280.32 1605.92,1292.65 1613.88,1303.28 1621.83,1312.7 1629.79,1321.5 1637.74,1330.13 1645.7,1338.75 1653.66,1347.23 
  1661.61,1355.34 1669.57,1362.88 1677.53,1369.76 1685.48,1376.01 1693.44,1381.71 1701.39,1386.97 1709.35,1391.86 1717.31,1396.4 1725.26,1400.45 1733.22,1403.83 
  1741.17,1406.39 1749.13,1408.22 1757.09,1409.62 1765.04,1411.02 1773,1412.73 1780.96,1414.88 1788.91,1417.43 1796.87,1420.23 1804.82,1423.13 1812.78,1426.01 
  1820.74,1428.77 1828.69,1431.32 1836.65,1433.61 1844.61,1435.56 1852.56,1437.1 1860.52,1438.21 1868.47,1438.95 1876.43,1439.45 1884.39,1439.86 1892.34,1440.26 
  1900.3,1440.63 1908.25,1440.9 1916.21,1441 1924.17,1440.95 1932.12,1440.79 1940.08,1440.61 1948.04,1440.45 1955.99,1440.32 1963.95,1440.22 1971.9,1440.18 
  1979.86,1440.23 1987.82,1440.41 1995.77,1440.72 2003.73,1441.14 2011.68,1441.63 2019.64,1442.13 2027.6,1442.61 2035.55,1443 2043.51,1443.26 2051.47,1443.41 
  2059.42,1443.47 2067.38,1443.48 2075.33,1443.48 2083.29,1443.49 2091.25,1443.51 2099.2,1443.53 2107.16,1443.56 2115.11,1443.62 2123.07,1443.73 2131.03,1443.89 
  2138.98,1444.09 2146.94,1444.29 2154.9,1444.45 2162.85,1444.58 2170.81,1444.67 2178.76,1444.78 2186.72,1444.89 2194.68,1445 2202.63,1445.1 2210.59,1445.17 
  2218.54,1445.2 2226.5,1445.16 2234.46,1445.06 2242.41,1444.94 2250.37,1444.82 2258.33,1444.77 2266.28,1444.81 2274.24,1444.92 2282.19,1445.09 2290.15,1445.25 
  
  "/>
<polyline clip-path="url(#clip942)" style="stroke:#0000ff; stroke-width:4; stroke-opacity:1; fill:none" points="
  1111.39,1445.72 1111.39,107.3 
  "/>
<polyline clip-path="url(#clip942)" style="stroke:#000000; stroke-width:4; stroke-opacity:1; fill:none" points="
  1110.87,1445.72 1110.87,107.671 
  "/>
<path clip-path="url(#clip940)" d="
M1441.78 458.098 L2279.02 458.098 L2279.02 95.2176 L1441.78 95.2176  Z
  " fill="#ffffff" fill-rule="evenodd" fill-opacity="1"/>
<polyline clip-path="url(#clip940)" style="stroke:#000000; stroke-width:4; stroke-opacity:1; fill:none" points="
  1441.78,458.098 2279.02,458.098 2279.02,95.2176 1441.78,95.2176 1441.78,458.098 
  "/>
<path clip-path="url(#clip940)" d="
M1466.36 179.89 L1613.83 179.89 L1613.83 131.506 L1466.36 131.506 L1466.36 179.89  Z
  " fill="#ffa500" fill-rule="evenodd" fill-opacity="0.5"/>
<polyline clip-path="url(#clip940)" style="stroke:#ffa500; stroke-width:4; stroke-opacity:1; fill:none" points="
  1466.36,131.506 1613.83,131.506 
  "/>
<path clip-path="url(#clip940)" d="M 0 0 M1642.81 160.038 Q1642.81 164.737 1644.73 167.422 Q1646.67 170.084 1650.05 170.084 Q1653.43 170.084 1655.38 167.422 Q1657.32 164.737 1657.32 160.038 Q1657.32 155.339 1655.38 152.677 Q1653.43 149.992 1650.05 149.992 Q1646.67 149.992 1644.73 152.677 Q1642.81 155.339 1642.81 160.038 M1657.32 169.089 Q1655.98 171.403 1653.92 172.538 Q1651.88 173.649 1649.01 173.649 Q1644.31 173.649 1641.35 169.899 Q1638.41 166.149 1638.41 160.038 Q1638.41 153.927 1641.35 150.177 Q1644.31 146.427 1649.01 146.427 Q1651.88 146.427 1653.92 147.561 Q1655.98 148.672 1657.32 150.987 L1657.32 147.052 L1661.58 147.052 L1661.58 182.839 L1657.32 182.839 L1657.32 169.089 Z" fill="#000000" fill-rule="evenodd" fill-opacity="1" /><path clip-path="url(#clip940)" d="M 0 0 M1680.95 141.496 Q1677.34 141.496 1675.51 145.061 Q1673.71 148.603 1673.71 155.732 Q1673.71 162.839 1675.51 166.404 Q1677.34 169.945 1680.95 169.945 Q1684.59 169.945 1686.39 166.404 Q1688.22 162.839 1688.22 155.732 Q1688.22 148.603 1686.39 145.061 Q1684.59 141.496 1680.95 141.496 M1680.95 137.793 Q1686.76 137.793 1689.82 142.399 Q1692.9 146.982 1692.9 155.732 Q1692.9 164.459 1689.82 169.066 Q1686.76 173.649 1680.95 173.649 Q1675.14 173.649 1672.07 169.066 Q1669.01 164.459 1669.01 155.732 Q1669.01 146.982 1672.07 142.399 Q1675.14 137.793 1680.95 137.793 Z" fill="#000000" fill-rule="evenodd" fill-opacity="1" /><path clip-path="url(#clip940)" d="M 0 0 M1701.16 138.418 L1719.52 138.418 L1719.52 142.353 L1705.45 142.353 L1705.45 150.825 Q1706.46 150.478 1707.48 150.316 Q1708.5 150.13 1709.52 150.13 Q1715.31 150.13 1718.69 153.302 Q1722.07 156.473 1722.07 161.89 Q1722.07 167.468 1718.59 170.57 Q1715.12 173.649 1708.8 173.649 Q1706.63 173.649 1704.36 173.278 Q1702.11 172.908 1699.7 172.167 L1699.7 167.468 Q1701.79 168.603 1704.01 169.158 Q1706.23 169.714 1708.71 169.714 Q1712.71 169.714 1715.05 167.607 Q1717.39 165.501 1717.39 161.89 Q1717.39 158.279 1715.05 156.172 Q1712.71 154.066 1708.71 154.066 Q1706.83 154.066 1704.96 154.482 Q1703.11 154.899 1701.16 155.779 L1701.16 138.418 Z" fill="#000000" fill-rule="evenodd" fill-opacity="1" /><path clip-path="url(#clip940)" d="
M1466.36 240.37 L1613.83 240.37 L1613.83 191.986 L1466.36 191.986 L1466.36 240.37  Z
  " fill="#008000" fill-rule="evenodd" fill-opacity="0.5"/>
<polyline clip-path="url(#clip940)" style="stroke:#008000; stroke-width:4; stroke-opacity:1; fill:none" points="
  1466.36,191.986 1613.83,191.986 
  "/>
<path clip-path="url(#clip940)" d="M 0 0 M1640.63 232.74 L1640.63 228.481 Q1642.39 229.314 1644.2 229.754 Q1646 230.194 1647.74 230.194 Q1652.37 230.194 1654.8 227.092 Q1657.25 223.967 1657.6 217.624 Q1656.26 219.615 1654.2 220.68 Q1652.14 221.745 1649.64 221.745 Q1644.45 221.745 1641.42 218.62 Q1638.41 215.472 1638.41 210.032 Q1638.41 204.708 1641.56 201.49 Q1644.7 198.273 1649.94 198.273 Q1655.93 198.273 1659.08 202.879 Q1662.25 207.462 1662.25 216.212 Q1662.25 224.384 1658.36 229.268 Q1654.5 234.129 1647.95 234.129 Q1646.19 234.129 1644.38 233.782 Q1642.58 233.434 1640.63 232.74 M1649.94 218.087 Q1653.08 218.087 1654.91 215.934 Q1656.76 213.782 1656.76 210.032 Q1656.76 206.305 1654.91 204.152 Q1653.08 201.976 1649.94 201.976 Q1646.79 201.976 1644.94 204.152 Q1643.11 206.305 1643.11 210.032 Q1643.11 213.782 1644.94 215.934 Q1646.79 218.087 1649.94 218.087 Z" fill="#000000" fill-rule="evenodd" fill-opacity="1" /><path clip-path="url(#clip940)" d="M 0 0 M1680.65 201.976 Q1677.04 201.976 1675.21 205.541 Q1673.41 209.083 1673.41 216.212 Q1673.41 223.319 1675.21 226.884 Q1677.04 230.425 1680.65 230.425 Q1684.29 230.425 1686.09 226.884 Q1687.92 223.319 1687.92 216.212 Q1687.92 209.083 1686.09 205.541 Q1684.29 201.976 1680.65 201.976 M1680.65 198.273 Q1686.46 198.273 1689.52 202.879 Q1692.6 207.462 1692.6 216.212 Q1692.6 224.939 1689.52 229.546 Q1686.46 234.129 1680.65 234.129 Q1674.84 234.129 1671.76 229.546 Q1668.71 224.939 1668.71 216.212 Q1668.71 207.462 1671.76 202.879 Q1674.84 198.273 1680.65 198.273 Z" fill="#000000" fill-rule="evenodd" fill-opacity="1" /><path clip-path="url(#clip940)" d="M 0 0 M1730.21 218.249 Q1728.2 218.249 1727.04 219.962 Q1725.91 221.675 1725.91 224.731 Q1725.91 227.74 1727.04 229.476 Q1728.2 231.189 1730.21 231.189 Q1732.18 231.189 1733.32 229.476 Q1734.47 227.74 1734.47 224.731 Q1734.47 221.698 1733.32 219.985 Q1732.18 218.249 1730.21 218.249 M1730.21 215.31 Q1733.87 215.31 1736.02 217.856 Q1738.18 220.402 1738.18 224.731 Q1738.18 229.059 1736 231.606 Q1733.85 234.129 1730.21 234.129 Q1726.51 234.129 1724.36 231.606 Q1722.2 229.059 1722.2 224.731 Q1722.2 220.379 1724.36 217.856 Q1726.53 215.31 1730.21 215.31 M1706.32 201.212 Q1704.33 201.212 1703.18 202.948 Q1702.04 204.661 1702.04 207.671 Q1702.04 210.726 1703.18 212.439 Q1704.31 214.152 1706.32 214.152 Q1708.34 214.152 1709.47 212.439 Q1710.63 210.726 1710.63 207.671 Q1710.63 204.685 1709.47 202.948 Q1708.32 201.212 1706.32 201.212 M1727.23 198.273 L1730.93 198.273 L1709.31 234.129 L1705.61 234.129 L1727.23 198.273 M1706.32 198.273 Q1709.98 198.273 1712.16 200.819 Q1714.33 203.342 1714.33 207.671 Q1714.33 212.046 1712.16 214.569 Q1710.01 217.092 1706.32 217.092 Q1702.64 217.092 1700.49 214.569 Q1698.36 212.022 1698.36 207.671 Q1698.36 203.365 1700.51 200.819 Q1702.67 198.273 1706.32 198.273 Z" fill="#000000" fill-rule="evenodd" fill-opacity="1" /><path clip-path="url(#clip940)" d="M 0 0 M1781.88 217.809 L1781.88 233.458 L1777.62 233.458 L1777.62 217.948 Q1777.62 214.268 1776.19 212.439 Q1774.75 210.61 1771.88 210.61 Q1768.43 210.61 1766.44 212.81 Q1764.45 215.009 1764.45 218.805 L1764.45 233.458 L1760.17 233.458 L1760.17 207.532 L1764.45 207.532 L1764.45 211.56 Q1765.98 209.222 1768.04 208.064 Q1770.12 206.907 1772.83 206.907 Q1777.3 206.907 1779.59 209.685 Q1781.88 212.439 1781.88 217.809 Z" fill="#000000" fill-rule="evenodd" fill-opacity="1" /><path clip-path="url(#clip940)" d="M 0 0 M1800.42 210.518 Q1797 210.518 1795 213.203 Q1793.01 215.865 1793.01 220.518 Q1793.01 225.171 1794.98 227.856 Q1796.97 230.518 1800.42 230.518 Q1803.82 230.518 1805.82 227.833 Q1807.81 225.147 1807.81 220.518 Q1807.81 215.911 1805.82 213.226 Q1803.82 210.518 1800.42 210.518 M1800.42 206.907 Q1805.98 206.907 1809.15 210.518 Q1812.32 214.129 1812.32 220.518 Q1812.32 226.884 1809.15 230.518 Q1805.98 234.129 1800.42 234.129 Q1794.84 234.129 1791.67 230.518 Q1788.52 226.884 1788.52 220.518 Q1788.52 214.129 1791.67 210.518 Q1794.84 206.907 1800.42 206.907 Z" fill="#000000" fill-rule="evenodd" fill-opacity="1" /><path clip-path="url(#clip940)" d="M 0 0 M1840.93 217.809 L1840.93 233.458 L1836.67 233.458 L1836.67 217.948 Q1836.67 214.268 1835.24 212.439 Q1833.8 210.61 1830.93 210.61 Q1827.48 210.61 1825.49 212.81 Q1823.5 215.009 1823.5 218.805 L1823.5 233.458 L1819.22 233.458 L1819.22 207.532 L1823.5 207.532 L1823.5 211.56 Q1825.03 209.222 1827.09 208.064 Q1829.17 206.907 1831.88 206.907 Q1836.35 206.907 1838.64 209.685 Q1840.93 212.439 1840.93 217.809 Z" fill="#000000" fill-rule="evenodd" fill-opacity="1" /><path clip-path="url(#clip940)" d="M 0 0 M1847.27 218.573 L1859.75 218.573 L1859.75 222.37 L1847.27 222.37 L1847.27 218.573 Z" fill="#000000" fill-rule="evenodd" fill-opacity="1" /><path clip-path="url(#clip940)" d="M 0 0 M1881.56 211.513 Q1880.84 211.097 1879.98 210.911 Q1879.15 210.703 1878.13 210.703 Q1874.52 210.703 1872.57 213.064 Q1870.65 215.402 1870.65 219.8 L1870.65 233.458 L1866.37 233.458 L1866.37 207.532 L1870.65 207.532 L1870.65 211.56 Q1872 209.198 1874.15 208.064 Q1876.3 206.907 1879.38 206.907 Q1879.82 206.907 1880.35 206.976 Q1880.88 207.023 1881.53 207.138 L1881.56 211.513 Z" fill="#000000" fill-rule="evenodd" fill-opacity="1" /><path clip-path="url(#clip940)" d="M 0 0 M1907.16 219.43 L1907.16 221.513 L1887.57 221.513 Q1887.85 225.911 1890.21 228.226 Q1892.6 230.518 1896.83 230.518 Q1899.29 230.518 1901.58 229.916 Q1903.89 229.314 1906.16 228.11 L1906.16 232.138 Q1903.87 233.11 1901.46 233.62 Q1899.06 234.129 1896.58 234.129 Q1890.37 234.129 1886.74 230.518 Q1883.13 226.907 1883.13 220.749 Q1883.13 214.384 1886.56 210.657 Q1890 206.907 1895.84 206.907 Q1901.07 206.907 1904.1 210.286 Q1907.16 213.643 1907.16 219.43 M1902.9 218.18 Q1902.85 214.685 1900.93 212.601 Q1899.03 210.518 1895.88 210.518 Q1892.32 210.518 1890.17 212.532 Q1888.04 214.546 1887.71 218.203 L1902.9 218.18 Z" fill="#000000" fill-rule="evenodd" fill-opacity="1" /><path clip-path="url(#clip940)" d="M 0 0 M1914.15 207.532 L1918.41 207.532 L1918.41 233.921 Q1918.41 238.874 1916.51 241.096 Q1914.63 243.319 1910.44 243.319 L1908.82 243.319 L1908.82 239.708 L1909.96 239.708 Q1912.39 239.708 1913.27 238.573 Q1914.15 237.462 1914.15 233.921 L1914.15 207.532 M1914.15 197.439 L1918.41 197.439 L1918.41 202.833 L1914.15 202.833 L1914.15 197.439 Z" fill="#000000" fill-rule="evenodd" fill-opacity="1" /><path clip-path="url(#clip940)" d="M 0 0 M1949.49 219.43 L1949.49 221.513 L1929.91 221.513 Q1930.19 225.911 1932.55 228.226 Q1934.93 230.518 1939.17 230.518 Q1941.62 230.518 1943.92 229.916 Q1946.23 229.314 1948.5 228.11 L1948.5 232.138 Q1946.21 233.11 1943.8 233.62 Q1941.39 234.129 1938.92 234.129 Q1932.71 234.129 1929.08 230.518 Q1925.47 226.907 1925.47 220.749 Q1925.47 214.384 1928.89 210.657 Q1932.34 206.907 1938.18 206.907 Q1943.41 206.907 1946.44 210.286 Q1949.49 213.643 1949.49 219.43 M1945.24 218.18 Q1945.19 214.685 1943.27 212.601 Q1941.37 210.518 1938.22 210.518 Q1934.66 210.518 1932.5 212.532 Q1930.37 214.546 1930.05 218.203 L1945.24 218.18 Z" fill="#000000" fill-rule="evenodd" fill-opacity="1" /><path clip-path="url(#clip940)" d="M 0 0 M1975.14 208.527 L1975.14 212.509 Q1973.34 211.513 1971.51 211.027 Q1969.7 210.518 1967.85 210.518 Q1963.71 210.518 1961.42 213.157 Q1959.12 215.772 1959.12 220.518 Q1959.12 225.263 1961.42 227.902 Q1963.71 230.518 1967.85 230.518 Q1969.7 230.518 1971.51 230.032 Q1973.34 229.522 1975.14 228.527 L1975.14 232.462 Q1973.36 233.296 1971.44 233.712 Q1969.54 234.129 1967.39 234.129 Q1961.53 234.129 1958.08 230.448 Q1954.63 226.768 1954.63 220.518 Q1954.63 214.175 1958.11 210.541 Q1961.6 206.907 1967.67 206.907 Q1969.63 206.907 1971.51 207.323 Q1973.38 207.717 1975.14 208.527 Z" fill="#000000" fill-rule="evenodd" fill-opacity="1" /><path clip-path="url(#clip940)" d="M 0 0 M1986.76 200.171 L1986.76 207.532 L1995.54 207.532 L1995.54 210.842 L1986.76 210.842 L1986.76 224.916 Q1986.76 228.087 1987.62 228.99 Q1988.5 229.893 1991.16 229.893 L1995.54 229.893 L1995.54 233.458 L1991.16 233.458 Q1986.23 233.458 1984.36 231.629 Q1982.48 229.777 1982.48 224.916 L1982.48 210.842 L1979.36 210.842 L1979.36 207.532 L1982.48 207.532 L1982.48 200.171 L1986.76 200.171 Z" fill="#000000" fill-rule="evenodd" fill-opacity="1" /><path clip-path="url(#clip940)" d="M 0 0 M2001.14 207.532 L2005.4 207.532 L2005.4 233.458 L2001.14 233.458 L2001.14 207.532 M2001.14 197.439 L2005.4 197.439 L2005.4 202.833 L2001.14 202.833 L2001.14 197.439 Z" fill="#000000" fill-rule="evenodd" fill-opacity="1" /><path clip-path="url(#clip940)" d="M 0 0 M2024.36 210.518 Q2020.93 210.518 2018.94 213.203 Q2016.95 215.865 2016.95 220.518 Q2016.95 225.171 2018.92 227.856 Q2020.91 230.518 2024.36 230.518 Q2027.76 230.518 2029.75 227.833 Q2031.74 225.147 2031.74 220.518 Q2031.74 215.911 2029.75 213.226 Q2027.76 210.518 2024.36 210.518 M2024.36 206.907 Q2029.91 206.907 2033.08 210.518 Q2036.25 214.129 2036.25 220.518 Q2036.25 226.884 2033.08 230.518 Q2029.91 234.129 2024.36 234.129 Q2018.78 234.129 2015.61 230.518 Q2012.46 226.884 2012.46 220.518 Q2012.46 214.129 2015.61 210.518 Q2018.78 206.907 2024.36 206.907 Z" fill="#000000" fill-rule="evenodd" fill-opacity="1" /><path clip-path="url(#clip940)" d="M 0 0 M2064.86 217.809 L2064.86 233.458 L2060.61 233.458 L2060.61 217.948 Q2060.61 214.268 2059.17 212.439 Q2057.73 210.61 2054.86 210.61 Q2051.42 210.61 2049.42 212.81 Q2047.43 215.009 2047.43 218.805 L2047.43 233.458 L2043.15 233.458 L2043.15 207.532 L2047.43 207.532 L2047.43 211.56 Q2048.96 209.222 2051.02 208.064 Q2053.11 206.907 2055.81 206.907 Q2060.28 206.907 2062.57 209.685 Q2064.86 212.439 2064.86 217.809 Z" fill="#000000" fill-rule="evenodd" fill-opacity="1" /><path clip-path="url(#clip940)" d="M 0 0 M2103.45 211.513 Q2102.73 211.097 2101.88 210.911 Q2101.04 210.703 2100.03 210.703 Q2096.42 210.703 2094.47 213.064 Q2092.55 215.402 2092.55 219.8 L2092.55 233.458 L2088.27 233.458 L2088.27 207.532 L2092.55 207.532 L2092.55 211.56 Q2093.89 209.198 2096.04 208.064 Q2098.2 206.907 2101.28 206.907 Q2101.72 206.907 2102.25 206.976 Q2102.78 207.023 2103.43 207.138 L2103.45 211.513 Z" fill="#000000" fill-rule="evenodd" fill-opacity="1" /><path clip-path="url(#clip940)" d="M 0 0 M2129.05 219.43 L2129.05 221.513 L2109.47 221.513 Q2109.75 225.911 2112.11 228.226 Q2114.49 230.518 2118.73 230.518 Q2121.18 230.518 2123.48 229.916 Q2125.79 229.314 2128.06 228.11 L2128.06 232.138 Q2125.77 233.11 2123.36 233.62 Q2120.95 234.129 2118.48 234.129 Q2112.27 234.129 2108.64 230.518 Q2105.03 226.907 2105.03 220.749 Q2105.03 214.384 2108.45 210.657 Q2111.9 206.907 2117.73 206.907 Q2122.97 206.907 2126 210.286 Q2129.05 213.643 2129.05 219.43 M2124.79 218.18 Q2124.75 214.685 2122.83 212.601 Q2120.93 210.518 2117.78 210.518 Q2114.22 210.518 2112.06 212.532 Q2109.93 214.546 2109.61 218.203 L2124.79 218.18 Z" fill="#000000" fill-rule="evenodd" fill-opacity="1" /><path clip-path="url(#clip940)" d="M 0 0 M2153.1 220.194 Q2153.1 215.564 2151.18 213.018 Q2149.29 210.472 2145.84 210.472 Q2142.41 210.472 2140.49 213.018 Q2138.59 215.564 2138.59 220.194 Q2138.59 224.8 2140.49 227.346 Q2142.41 229.893 2145.84 229.893 Q2149.29 229.893 2151.18 227.346 Q2153.1 224.8 2153.1 220.194 M2157.36 230.24 Q2157.36 236.86 2154.42 240.078 Q2151.48 243.319 2145.42 243.319 Q2143.17 243.319 2141.18 242.971 Q2139.19 242.647 2137.32 241.953 L2137.32 237.809 Q2139.19 238.828 2141.02 239.314 Q2142.85 239.8 2144.75 239.8 Q2148.94 239.8 2151.02 237.601 Q2153.1 235.425 2153.1 231.004 L2153.1 228.897 Q2151.79 231.189 2149.73 232.323 Q2147.67 233.458 2144.79 233.458 Q2140.03 233.458 2137.11 229.823 Q2134.19 226.189 2134.19 220.194 Q2134.19 214.175 2137.11 210.541 Q2140.03 206.907 2144.79 206.907 Q2147.67 206.907 2149.73 208.041 Q2151.79 209.175 2153.1 211.467 L2153.1 207.532 L2157.36 207.532 L2157.36 230.24 Z" fill="#000000" fill-rule="evenodd" fill-opacity="1" /><path clip-path="url(#clip940)" d="M 0 0 M2166.14 207.532 L2170.4 207.532 L2170.4 233.458 L2166.14 233.458 L2166.14 207.532 M2166.14 197.439 L2170.4 197.439 L2170.4 202.833 L2166.14 202.833 L2166.14 197.439 Z" fill="#000000" fill-rule="evenodd" fill-opacity="1" /><path clip-path="url(#clip940)" d="M 0 0 M2189.35 210.518 Q2185.93 210.518 2183.94 213.203 Q2181.95 215.865 2181.95 220.518 Q2181.95 225.171 2183.91 227.856 Q2185.91 230.518 2189.35 230.518 Q2192.76 230.518 2194.75 227.833 Q2196.74 225.147 2196.74 220.518 Q2196.74 215.911 2194.75 213.226 Q2192.76 210.518 2189.35 210.518 M2189.35 206.907 Q2194.91 206.907 2198.08 210.518 Q2201.25 214.129 2201.25 220.518 Q2201.25 226.884 2198.08 230.518 Q2194.91 234.129 2189.35 234.129 Q2183.78 234.129 2180.6 230.518 Q2177.46 226.884 2177.46 220.518 Q2177.46 214.129 2180.6 210.518 Q2183.78 206.907 2189.35 206.907 Z" fill="#000000" fill-rule="evenodd" fill-opacity="1" /><path clip-path="url(#clip940)" d="M 0 0 M2229.86 217.809 L2229.86 233.458 L2225.6 233.458 L2225.6 217.948 Q2225.6 214.268 2224.17 212.439 Q2222.73 210.61 2219.86 210.61 Q2216.41 210.61 2214.42 212.81 Q2212.43 215.009 2212.43 218.805 L2212.43 233.458 L2208.15 233.458 L2208.15 207.532 L2212.43 207.532 L2212.43 211.56 Q2213.96 209.222 2216.02 208.064 Q2218.1 206.907 2220.81 206.907 Q2225.28 206.907 2227.57 209.685 Q2229.86 212.439 2229.86 217.809 Z" fill="#000000" fill-rule="evenodd" fill-opacity="1" /><path clip-path="url(#clip940)" d="
M1466.36 300.85 L1613.83 300.85 L1613.83 252.466 L1466.36 252.466 L1466.36 300.85  Z
  " fill="#ffa500" fill-rule="evenodd" fill-opacity="0.5"/>
<polyline clip-path="url(#clip940)" style="stroke:#ffa500; stroke-width:4; stroke-opacity:1; fill:none" points="
  1466.36,252.466 1613.83,252.466 
  "/>
<path clip-path="url(#clip940)" d="M 0 0 M1642.81 280.998 Q1642.81 285.697 1644.73 288.382 Q1646.67 291.044 1650.05 291.044 Q1653.43 291.044 1655.38 288.382 Q1657.32 285.697 1657.32 280.998 Q1657.32 276.299 1655.38 273.637 Q1653.43 270.952 1650.05 270.952 Q1646.67 270.952 1644.73 273.637 Q1642.81 276.299 1642.81 280.998 M1657.32 290.049 Q1655.98 292.363 1653.92 293.498 Q1651.88 294.609 1649.01 294.609 Q1644.31 294.609 1641.35 290.859 Q1638.41 287.109 1638.41 280.998 Q1638.41 274.887 1641.35 271.137 Q1644.31 267.387 1649.01 267.387 Q1651.88 267.387 1653.92 268.521 Q1655.98 269.632 1657.32 271.947 L1657.32 268.012 L1661.58 268.012 L1661.58 303.799 L1657.32 303.799 L1657.32 290.049 Z" fill="#000000" fill-rule="evenodd" fill-opacity="1" /><path clip-path="url(#clip940)" d="M 0 0 M1671.09 293.22 L1671.09 288.961 Q1672.85 289.794 1674.66 290.234 Q1676.46 290.674 1678.2 290.674 Q1682.83 290.674 1685.26 287.572 Q1687.71 284.447 1688.06 278.104 Q1686.72 280.095 1684.66 281.16 Q1682.6 282.225 1680.1 282.225 Q1674.91 282.225 1671.88 279.1 Q1668.87 275.952 1668.87 270.512 Q1668.87 265.188 1672.02 261.97 Q1675.17 258.753 1680.4 258.753 Q1686.39 258.753 1689.54 263.359 Q1692.71 267.942 1692.71 276.692 Q1692.71 284.864 1688.82 289.748 Q1684.96 294.609 1678.41 294.609 Q1676.65 294.609 1674.84 294.262 Q1673.04 293.914 1671.09 293.22 M1680.4 278.567 Q1683.55 278.567 1685.38 276.414 Q1687.23 274.262 1687.23 270.512 Q1687.23 266.785 1685.38 264.632 Q1683.55 262.456 1680.4 262.456 Q1677.25 262.456 1675.4 264.632 Q1673.57 266.785 1673.57 270.512 Q1673.57 274.262 1675.4 276.414 Q1677.25 278.567 1680.4 278.567 Z" fill="#000000" fill-rule="evenodd" fill-opacity="1" /><path clip-path="url(#clip940)" d="M 0 0 M1701.16 259.378 L1719.52 259.378 L1719.52 263.313 L1705.45 263.313 L1705.45 271.785 Q1706.46 271.438 1707.48 271.276 Q1708.5 271.09 1709.52 271.09 Q1715.31 271.09 1718.69 274.262 Q1722.07 277.433 1722.07 282.85 Q1722.07 288.428 1718.59 291.53 Q1715.12 294.609 1708.8 294.609 Q1706.63 294.609 1704.36 294.238 Q1702.11 293.868 1699.7 293.127 L1699.7 288.428 Q1701.79 289.563 1704.01 290.118 Q1706.23 290.674 1708.71 290.674 Q1712.71 290.674 1715.05 288.567 Q1717.39 286.461 1717.39 282.85 Q1717.39 279.239 1715.05 277.132 Q1712.71 275.026 1708.71 275.026 Q1706.83 275.026 1704.96 275.442 Q1703.11 275.859 1701.16 276.739 L1701.16 259.378 Z" fill="#000000" fill-rule="evenodd" fill-opacity="1" /><polyline clip-path="url(#clip940)" style="stroke:#0000ff; stroke-width:4; stroke-opacity:1; fill:none" points="
  1466.36,337.138 1613.83,337.138 
  "/>
<path clip-path="url(#clip940)" d="M 0 0 M1658.76 333.469 Q1660.35 330.598 1662.58 329.233 Q1664.8 327.867 1667.81 327.867 Q1671.86 327.867 1674.06 330.714 Q1676.26 333.538 1676.26 338.769 L1676.26 354.418 L1671.97 354.418 L1671.97 338.908 Q1671.97 335.182 1670.65 333.376 Q1669.33 331.57 1666.63 331.57 Q1663.32 331.57 1661.39 333.77 Q1659.47 335.969 1659.47 339.765 L1659.47 354.418 L1655.19 354.418 L1655.19 338.908 Q1655.19 335.158 1653.87 333.376 Q1652.55 331.57 1649.8 331.57 Q1646.53 331.57 1644.61 333.793 Q1642.69 335.992 1642.69 339.765 L1642.69 354.418 L1638.41 354.418 L1638.41 328.492 L1642.69 328.492 L1642.69 332.52 Q1644.15 330.135 1646.19 329.001 Q1648.22 327.867 1651.02 327.867 Q1653.85 327.867 1655.82 329.302 Q1657.81 330.737 1658.76 333.469 Z" fill="#000000" fill-rule="evenodd" fill-opacity="1" /><path clip-path="url(#clip940)" d="M 0 0 M1706.93 340.39 L1706.93 342.473 L1687.34 342.473 Q1687.62 346.871 1689.98 349.186 Q1692.37 351.478 1696.6 351.478 Q1699.06 351.478 1701.35 350.876 Q1703.66 350.274 1705.93 349.07 L1705.93 353.098 Q1703.64 354.07 1701.23 354.58 Q1698.82 355.089 1696.35 355.089 Q1690.14 355.089 1686.51 351.478 Q1682.9 347.867 1682.9 341.709 Q1682.9 335.344 1686.32 331.617 Q1689.77 327.867 1695.61 327.867 Q1700.84 327.867 1703.87 331.246 Q1706.93 334.603 1706.93 340.39 M1702.67 339.14 Q1702.62 335.645 1700.7 333.561 Q1698.8 331.478 1695.65 331.478 Q1692.09 331.478 1689.94 333.492 Q1687.81 335.506 1687.48 339.163 L1702.67 339.14 Z" fill="#000000" fill-rule="evenodd" fill-opacity="1" /><path clip-path="url(#clip940)" d="M 0 0 M1725.7 341.385 Q1720.54 341.385 1718.55 342.566 Q1716.56 343.746 1716.56 346.594 Q1716.56 348.862 1718.04 350.205 Q1719.54 351.524 1722.11 351.524 Q1725.65 351.524 1727.78 349.024 Q1729.94 346.501 1729.94 342.334 L1729.94 341.385 L1725.7 341.385 M1734.2 339.626 L1734.2 354.418 L1729.94 354.418 L1729.94 350.482 Q1728.48 352.843 1726.3 353.978 Q1724.13 355.089 1720.98 355.089 Q1717 355.089 1714.63 352.867 Q1712.3 350.621 1712.3 346.871 Q1712.3 342.496 1715.21 340.274 Q1718.15 338.052 1723.96 338.052 L1729.94 338.052 L1729.94 337.635 Q1729.94 334.695 1727.99 333.098 Q1726.07 331.478 1722.57 331.478 Q1720.35 331.478 1718.25 332.01 Q1716.14 332.543 1714.2 333.607 L1714.2 329.672 Q1716.53 328.77 1718.73 328.33 Q1720.93 327.867 1723.01 327.867 Q1728.64 327.867 1731.42 330.783 Q1734.2 333.7 1734.2 339.626 Z" fill="#000000" fill-rule="evenodd" fill-opacity="1" /><path clip-path="url(#clip940)" d="M 0 0 M1764.52 338.769 L1764.52 354.418 L1760.26 354.418 L1760.26 338.908 Q1760.26 335.228 1758.82 333.399 Q1757.39 331.57 1754.52 331.57 Q1751.07 331.57 1749.08 333.77 Q1747.09 335.969 1747.09 339.765 L1747.09 354.418 L1742.81 354.418 L1742.81 328.492 L1747.09 328.492 L1747.09 332.52 Q1748.62 330.182 1750.68 329.024 Q1752.76 327.867 1755.47 327.867 Q1759.94 327.867 1762.23 330.645 Q1764.52 333.399 1764.52 338.769 Z" fill="#000000" fill-rule="evenodd" fill-opacity="1" /><polyline clip-path="url(#clip940)" style="stroke:#000000; stroke-width:4; stroke-opacity:1; fill:none" points="
  1466.36,397.618 1613.83,397.618 
  "/>
<path clip-path="url(#clip940)" d="M 0 0 M1658.76 393.949 Q1660.35 391.078 1662.58 389.713 Q1664.8 388.347 1667.81 388.347 Q1671.86 388.347 1674.06 391.194 Q1676.26 394.018 1676.26 399.249 L1676.26 414.898 L1671.97 414.898 L1671.97 399.388 Q1671.97 395.662 1670.65 393.856 Q1669.33 392.05 1666.63 392.05 Q1663.32 392.05 1661.39 394.25 Q1659.47 396.449 1659.47 400.245 L1659.47 414.898 L1655.19 414.898 L1655.19 399.388 Q1655.19 395.638 1653.87 393.856 Q1652.55 392.05 1649.8 392.05 Q1646.53 392.05 1644.61 394.273 Q1642.69 396.472 1642.69 400.245 L1642.69 414.898 L1638.41 414.898 L1638.41 388.972 L1642.69 388.972 L1642.69 393 Q1644.15 390.615 1646.19 389.481 Q1648.22 388.347 1651.02 388.347 Q1653.85 388.347 1655.82 389.782 Q1657.81 391.217 1658.76 393.949 Z" fill="#000000" fill-rule="evenodd" fill-opacity="1" /><path clip-path="url(#clip940)" d="M 0 0 M1706.93 400.87 L1706.93 402.953 L1687.34 402.953 Q1687.62 407.351 1689.98 409.666 Q1692.37 411.958 1696.6 411.958 Q1699.06 411.958 1701.35 411.356 Q1703.66 410.754 1705.93 409.55 L1705.93 413.578 Q1703.64 414.55 1701.23 415.06 Q1698.82 415.569 1696.35 415.569 Q1690.14 415.569 1686.51 411.958 Q1682.9 408.347 1682.9 402.189 Q1682.9 395.824 1686.32 392.097 Q1689.77 388.347 1695.61 388.347 Q1700.84 388.347 1703.87 391.726 Q1706.93 395.083 1706.93 400.87 M1702.67 399.62 Q1702.62 396.125 1700.7 394.041 Q1698.8 391.958 1695.65 391.958 Q1692.09 391.958 1689.94 393.972 Q1687.81 395.986 1687.48 399.643 L1702.67 399.62 Z" fill="#000000" fill-rule="evenodd" fill-opacity="1" /><path clip-path="url(#clip940)" d="M 0 0 M1730.98 392.907 L1730.98 378.879 L1735.24 378.879 L1735.24 414.898 L1730.98 414.898 L1730.98 411.009 Q1729.63 413.323 1727.57 414.458 Q1725.54 415.569 1722.67 415.569 Q1717.97 415.569 1715.01 411.819 Q1712.07 408.069 1712.07 401.958 Q1712.07 395.847 1715.01 392.097 Q1717.97 388.347 1722.67 388.347 Q1725.54 388.347 1727.57 389.481 Q1729.63 390.592 1730.98 392.907 M1716.46 401.958 Q1716.46 406.657 1718.38 409.342 Q1720.33 412.004 1723.71 412.004 Q1727.09 412.004 1729.03 409.342 Q1730.98 406.657 1730.98 401.958 Q1730.98 397.259 1729.03 394.597 Q1727.09 391.912 1723.71 391.912 Q1720.33 391.912 1718.38 394.597 Q1716.46 397.259 1716.46 401.958 Z" fill="#000000" fill-rule="evenodd" fill-opacity="1" /><path clip-path="url(#clip940)" d="M 0 0 M1744.01 388.972 L1748.27 388.972 L1748.27 414.898 L1744.01 414.898 L1744.01 388.972 M1744.01 378.879 L1748.27 378.879 L1748.27 384.273 L1744.01 384.273 L1744.01 378.879 Z" fill="#000000" fill-rule="evenodd" fill-opacity="1" /><path clip-path="url(#clip940)" d="M 0 0 M1768.96 401.865 Q1763.8 401.865 1761.81 403.046 Q1759.82 404.226 1759.82 407.074 Q1759.82 409.342 1761.3 410.685 Q1762.81 412.004 1765.38 412.004 Q1768.92 412.004 1771.05 409.504 Q1773.2 406.981 1773.2 402.814 L1773.2 401.865 L1768.96 401.865 M1777.46 400.106 L1777.46 414.898 L1773.2 414.898 L1773.2 410.962 Q1771.74 413.323 1769.57 414.458 Q1767.39 415.569 1764.24 415.569 Q1760.26 415.569 1757.9 413.347 Q1755.56 411.101 1755.56 407.351 Q1755.56 402.976 1758.48 400.754 Q1761.42 398.532 1767.23 398.532 L1773.2 398.532 L1773.2 398.115 Q1773.2 395.175 1771.26 393.578 Q1769.33 391.958 1765.84 391.958 Q1763.62 391.958 1761.51 392.49 Q1759.4 393.023 1757.46 394.087 L1757.46 390.152 Q1759.8 389.25 1762 388.81 Q1764.19 388.347 1766.28 388.347 Q1771.9 388.347 1774.68 391.263 Q1777.46 394.18 1777.46 400.106 Z" fill="#000000" fill-rule="evenodd" fill-opacity="1" /><path clip-path="url(#clip940)" d="M 0 0 M1807.78 399.249 L1807.78 414.898 L1803.52 414.898 L1803.52 399.388 Q1803.52 395.708 1802.09 393.879 Q1800.65 392.05 1797.78 392.05 Q1794.33 392.05 1792.34 394.25 Q1790.35 396.449 1790.35 400.245 L1790.35 414.898 L1786.07 414.898 L1786.07 388.972 L1790.35 388.972 L1790.35 393 Q1791.88 390.662 1793.94 389.504 Q1796.02 388.347 1798.73 388.347 Q1803.2 388.347 1805.49 391.125 Q1807.78 393.879 1807.78 399.249 Z" fill="#000000" fill-rule="evenodd" fill-opacity="1" /></svg>
