<?xml version="1.0" encoding="utf-8"?>
<svg xmlns="http://www.w3.org/2000/svg" xmlns:xlink="http://www.w3.org/1999/xlink" width="600" height="400" viewBox="0 0 2400 1600">
<defs>
  <clipPath id="clip800">
    <rect x="0" y="0" width="2400" height="1600"/>
  </clipPath>
</defs>
<path clip-path="url(#clip800)" d="
M0 1600 L2400 1600 L2400 0 L0 0  Z
  " fill="#ffffff" fill-rule="evenodd" fill-opacity="1"/>
<defs>
  <clipPath id="clip801">
    <rect x="480" y="0" width="1681" height="1600"/>
  </clipPath>
</defs>
<path clip-path="url(#clip800)" d="
M112.177 1486.45 L2352.76 1486.45 L2352.76 47.2441 L112.177 47.2441  Z
  " fill="#ffffff" fill-rule="evenodd" fill-opacity="1"/>
<defs>
  <clipPath id="clip802">
    <rect x="112" y="47" width="2242" height="1440"/>
  </clipPath>
</defs>
<polyline clip-path="url(#clip802)" style="stroke:#000000; stroke-width:2; stroke-opacity:0.1; fill:none" points="
  200.848,1486.45 200.848,47.2441 
  "/>
<polyline clip-path="url(#clip802)" style="stroke:#000000; stroke-width:2; stroke-opacity:0.1; fill:none" points="
  816.015,1486.45 816.015,47.2441 
  "/>
<polyline clip-path="url(#clip802)" style="stroke:#000000; stroke-width:2; stroke-opacity:0.1; fill:none" points="
  1431.18,1486.45 1431.18,47.2441 
  "/>
<polyline clip-path="url(#clip802)" style="stroke:#000000; stroke-width:2; stroke-opacity:0.1; fill:none" points="
  2046.35,1486.45 2046.35,47.2441 
  "/>
<polyline clip-path="url(#clip800)" style="stroke:#000000; stroke-width:4; stroke-opacity:1; fill:none" points="
  112.177,1486.45 2352.76,1486.45 
  "/>
<polyline clip-path="url(#clip800)" style="stroke:#000000; stroke-width:4; stroke-opacity:1; fill:none" points="
  200.848,1486.45 200.848,1469.18 
  "/>
<polyline clip-path="url(#clip800)" style="stroke:#000000; stroke-width:4; stroke-opacity:1; fill:none" points="
  816.015,1486.45 816.015,1469.18 
  "/>
<polyline clip-path="url(#clip800)" style="stroke:#000000; stroke-width:4; stroke-opacity:1; fill:none" points="
  1431.18,1486.45 1431.18,1469.18 
  "/>
<polyline clip-path="url(#clip800)" style="stroke:#000000; stroke-width:4; stroke-opacity:1; fill:none" points="
  2046.35,1486.45 2046.35,1469.18 
  "/>
<path clip-path="url(#clip800)" d="M 0 0 M172.087 1543.18 L188.406 1543.18 L188.406 1547.12 L166.462 1547.12 L166.462 1543.18 Q169.124 1540.43 173.707 1535.8 Q178.314 1531.15 179.494 1529.81 Q181.739 1527.28 182.619 1525.55 Q183.522 1523.79 183.522 1522.1 Q183.522 1519.34 181.577 1517.61 Q179.656 1515.87 176.554 1515.87 Q174.355 1515.87 171.902 1516.63 Q169.471 1517.4 166.693 1518.95 L166.693 1514.23 Q169.517 1513.09 171.971 1512.51 Q174.425 1511.93 176.462 1511.93 Q181.832 1511.93 185.026 1514.62 Q188.221 1517.31 188.221 1521.8 Q188.221 1523.93 187.411 1525.85 Q186.624 1527.74 184.517 1530.34 Q183.939 1531.01 180.837 1534.23 Q177.735 1537.42 172.087 1543.18 Z" fill="#000000" fill-rule="evenodd" fill-opacity="1" /><path clip-path="url(#clip800)" d="M 0 0 M198.221 1541.24 L203.105 1541.24 L203.105 1547.12 L198.221 1547.12 L198.221 1541.24 Z" fill="#000000" fill-rule="evenodd" fill-opacity="1" /><path clip-path="url(#clip800)" d="M 0 0 M223.29 1515.64 Q219.679 1515.64 217.85 1519.2 Q216.045 1522.75 216.045 1529.87 Q216.045 1536.98 217.85 1540.55 Q219.679 1544.09 223.29 1544.09 Q226.924 1544.09 228.73 1540.55 Q230.559 1536.98 230.559 1529.87 Q230.559 1522.75 228.73 1519.2 Q226.924 1515.64 223.29 1515.64 M223.29 1511.93 Q229.1 1511.93 232.156 1516.54 Q235.235 1521.12 235.235 1529.87 Q235.235 1538.6 232.156 1543.21 Q229.1 1547.79 223.29 1547.79 Q217.48 1547.79 214.401 1543.21 Q211.346 1538.6 211.346 1529.87 Q211.346 1521.12 214.401 1516.54 Q217.48 1511.93 223.29 1511.93 Z" fill="#000000" fill-rule="evenodd" fill-opacity="1" /><path clip-path="url(#clip800)" d="M 0 0 M787.867 1543.18 L804.187 1543.18 L804.187 1547.12 L782.242 1547.12 L782.242 1543.18 Q784.904 1540.43 789.488 1535.8 Q794.094 1531.15 795.275 1529.81 Q797.52 1527.28 798.4 1525.55 Q799.302 1523.79 799.302 1522.1 Q799.302 1519.34 797.358 1517.61 Q795.437 1515.87 792.335 1515.87 Q790.136 1515.87 787.682 1516.63 Q785.252 1517.4 782.474 1518.95 L782.474 1514.23 Q785.298 1513.09 787.752 1512.51 Q790.205 1511.93 792.242 1511.93 Q797.613 1511.93 800.807 1514.62 Q804.002 1517.31 804.002 1521.8 Q804.002 1523.93 803.191 1525.85 Q802.404 1527.74 800.298 1530.34 Q799.719 1531.01 796.617 1534.23 Q793.515 1537.42 787.867 1543.18 Z" fill="#000000" fill-rule="evenodd" fill-opacity="1" /><path clip-path="url(#clip800)" d="M 0 0 M814.001 1541.24 L818.886 1541.24 L818.886 1547.12 L814.001 1547.12 L814.001 1541.24 Z" fill="#000000" fill-rule="evenodd" fill-opacity="1" /><path clip-path="url(#clip800)" d="M 0 0 M829.881 1543.18 L837.52 1543.18 L837.52 1516.82 L829.21 1518.49 L829.21 1514.23 L837.474 1512.56 L842.149 1512.56 L842.149 1543.18 L849.788 1543.18 L849.788 1547.12 L829.881 1547.12 L829.881 1543.18 Z" fill="#000000" fill-rule="evenodd" fill-opacity="1" /><path clip-path="url(#clip800)" d="M 0 0 M1403.22 1543.18 L1419.54 1543.18 L1419.54 1547.12 L1397.59 1547.12 L1397.59 1543.18 Q1400.26 1540.43 1404.84 1535.8 Q1409.45 1531.15 1410.63 1529.81 Q1412.87 1527.28 1413.75 1525.55 Q1414.65 1523.79 1414.65 1522.1 Q1414.65 1519.34 1412.71 1517.61 Q1410.79 1515.87 1407.69 1515.87 Q1405.49 1515.87 1403.03 1516.63 Q1400.6 1517.4 1397.83 1518.95 L1397.83 1514.23 Q1400.65 1513.09 1403.1 1512.51 Q1405.56 1511.93 1407.59 1511.93 Q1412.97 1511.93 1416.16 1514.62 Q1419.35 1517.31 1419.35 1521.8 Q1419.35 1523.93 1418.54 1525.85 Q1417.76 1527.74 1415.65 1530.34 Q1415.07 1531.01 1411.97 1534.23 Q1408.87 1537.42 1403.22 1543.18 Z" fill="#000000" fill-rule="evenodd" fill-opacity="1" /><path clip-path="url(#clip800)" d="M 0 0 M1429.35 1541.24 L1434.24 1541.24 L1434.24 1547.12 L1429.35 1547.12 L1429.35 1541.24 Z" fill="#000000" fill-rule="evenodd" fill-opacity="1" /><path clip-path="url(#clip800)" d="M 0 0 M1448.45 1543.18 L1464.77 1543.18 L1464.77 1547.12 L1442.83 1547.12 L1442.83 1543.18 Q1445.49 1540.43 1450.07 1535.8 Q1454.68 1531.15 1455.86 1529.81 Q1458.1 1527.28 1458.98 1525.55 Q1459.89 1523.79 1459.89 1522.1 Q1459.89 1519.34 1457.94 1517.61 Q1456.02 1515.87 1452.92 1515.87 Q1450.72 1515.87 1448.27 1516.63 Q1445.84 1517.4 1443.06 1518.95 L1443.06 1514.23 Q1445.88 1513.09 1448.34 1512.51 Q1450.79 1511.93 1452.83 1511.93 Q1458.2 1511.93 1461.39 1514.62 Q1464.59 1517.31 1464.59 1521.8 Q1464.59 1523.93 1463.77 1525.85 Q1462.99 1527.74 1460.88 1530.34 Q1460.3 1531.01 1457.2 1534.23 Q1454.1 1537.42 1448.45 1543.18 Z" fill="#000000" fill-rule="evenodd" fill-opacity="1" /><path clip-path="url(#clip800)" d="M 0 0 M2017.91 1543.18 L2034.23 1543.18 L2034.23 1547.12 L2012.29 1547.12 L2012.29 1543.18 Q2014.95 1540.43 2019.53 1535.8 Q2024.14 1531.15 2025.32 1529.81 Q2027.57 1527.28 2028.44 1525.55 Q2029.35 1523.79 2029.35 1522.1 Q2029.35 1519.34 2027.4 1517.61 Q2025.48 1515.87 2022.38 1515.87 Q2020.18 1515.87 2017.73 1516.63 Q2015.3 1517.4 2012.52 1518.95 L2012.52 1514.23 Q2015.34 1513.09 2017.8 1512.51 Q2020.25 1511.93 2022.29 1511.93 Q2027.66 1511.93 2030.85 1514.62 Q2034.05 1517.31 2034.05 1521.8 Q2034.05 1523.93 2033.24 1525.85 Q2032.45 1527.74 2030.34 1530.34 Q2029.76 1531.01 2026.66 1534.23 Q2023.56 1537.42 2017.91 1543.18 Z" fill="#000000" fill-rule="evenodd" fill-opacity="1" /><path clip-path="url(#clip800)" d="M 0 0 M2044.05 1541.24 L2048.93 1541.24 L2048.93 1547.12 L2044.05 1547.12 L2044.05 1541.24 Z" fill="#000000" fill-rule="evenodd" fill-opacity="1" /><path clip-path="url(#clip800)" d="M 0 0 M2073.28 1528.49 Q2076.64 1529.2 2078.51 1531.47 Q2080.41 1533.74 2080.41 1537.07 Q2080.41 1542.19 2076.89 1544.99 Q2073.38 1547.79 2066.89 1547.79 Q2064.72 1547.79 2062.4 1547.35 Q2060.11 1546.93 2057.66 1546.08 L2057.66 1541.56 Q2059.6 1542.7 2061.92 1543.28 Q2064.23 1543.86 2066.75 1543.86 Q2071.15 1543.86 2073.44 1542.12 Q2075.76 1540.38 2075.76 1537.07 Q2075.76 1534.02 2073.61 1532.31 Q2071.48 1530.57 2067.66 1530.57 L2063.63 1530.57 L2063.63 1526.73 L2067.84 1526.73 Q2071.29 1526.73 2073.12 1525.36 Q2074.95 1523.97 2074.95 1521.38 Q2074.95 1518.72 2073.05 1517.31 Q2071.18 1515.87 2067.66 1515.87 Q2065.74 1515.87 2063.54 1516.29 Q2061.34 1516.7 2058.7 1517.58 L2058.7 1513.42 Q2061.36 1512.68 2063.68 1512.31 Q2066.01 1511.93 2068.07 1511.93 Q2073.4 1511.93 2076.5 1514.37 Q2079.6 1516.77 2079.6 1520.89 Q2079.6 1523.76 2077.96 1525.75 Q2076.31 1527.72 2073.28 1528.49 Z" fill="#000000" fill-rule="evenodd" fill-opacity="1" /><polyline clip-path="url(#clip802)" style="stroke:#000000; stroke-width:2; stroke-opacity:0.1; fill:none" points="
  112.177,1445.72 2352.76,1445.72 
  "/>
<polyline clip-path="url(#clip802)" style="stroke:#000000; stroke-width:2; stroke-opacity:0.1; fill:none" points="
  112.177,1148.88 2352.76,1148.88 
  "/>
<polyline clip-path="url(#clip802)" style="stroke:#000000; stroke-width:2; stroke-opacity:0.1; fill:none" points="
  112.177,852.043 2352.76,852.043 
  "/>
<polyline clip-path="url(#clip802)" style="stroke:#000000; stroke-width:2; stroke-opacity:0.1; fill:none" points="
  112.177,555.207 2352.76,555.207 
  "/>
<polyline clip-path="url(#clip802)" style="stroke:#000000; stroke-width:2; stroke-opacity:0.1; fill:none" points="
  112.177,258.37 2352.76,258.37 
  "/>
<polyline clip-path="url(#clip800)" style="stroke:#000000; stroke-width:4; stroke-opacity:1; fill:none" points="
  112.177,1486.45 112.177,47.2441 
  "/>
<polyline clip-path="url(#clip800)" style="stroke:#000000; stroke-width:4; stroke-opacity:1; fill:none" points="
  112.177,1445.72 139.064,1445.72 
  "/>
<polyline clip-path="url(#clip800)" style="stroke:#000000; stroke-width:4; stroke-opacity:1; fill:none" points="
  112.177,1148.88 139.064,1148.88 
  "/>
<polyline clip-path="url(#clip800)" style="stroke:#000000; stroke-width:4; stroke-opacity:1; fill:none" points="
  112.177,852.043 139.064,852.043 
  "/>
<polyline clip-path="url(#clip800)" style="stroke:#000000; stroke-width:4; stroke-opacity:1; fill:none" points="
  112.177,555.207 139.064,555.207 
  "/>
<polyline clip-path="url(#clip800)" style="stroke:#000000; stroke-width:4; stroke-opacity:1; fill:none" points="
  112.177,258.37 139.064,258.37 
  "/>
<path clip-path="url(#clip800)" d="M 0 0 M64.2328 1431.51 Q60.6217 1431.51 58.793 1435.08 Q56.9875 1438.62 56.9875 1445.75 Q56.9875 1452.86 58.793 1456.42 Q60.6217 1459.96 64.2328 1459.96 Q67.867 1459.96 69.6726 1456.42 Q71.5013 1452.86 71.5013 1445.75 Q71.5013 1438.62 69.6726 1435.08 Q67.867 1431.51 64.2328 1431.51 M64.2328 1427.81 Q70.0429 1427.81 73.0985 1432.42 Q76.1772 1437 76.1772 1445.75 Q76.1772 1454.48 73.0985 1459.08 Q70.0429 1463.67 64.2328 1463.67 Q58.4226 1463.67 55.344 1459.08 Q52.2884 1454.48 52.2884 1445.75 Q52.2884 1437 55.344 1432.42 Q58.4226 1427.81 64.2328 1427.81 Z" fill="#000000" fill-rule="evenodd" fill-opacity="1" /><path clip-path="url(#clip800)" d="M 0 0 M59.8578 1162.22 L76.1772 1162.22 L76.1772 1166.16 L54.2328 1166.16 L54.2328 1162.22 Q56.8949 1159.47 61.4782 1154.84 Q66.0846 1150.19 67.2652 1148.84 Q69.5105 1146.32 70.3902 1144.59 Q71.2929 1142.83 71.2929 1141.14 Q71.2929 1138.38 69.3485 1136.65 Q67.4272 1134.91 64.3254 1134.91 Q62.1263 1134.91 59.6726 1135.67 Q57.2421 1136.44 54.4643 1137.99 L54.4643 1133.27 Q57.2884 1132.13 59.7421 1131.55 Q62.1958 1130.97 64.2328 1130.97 Q69.6031 1130.97 72.7976 1133.66 Q75.992 1136.34 75.992 1140.84 Q75.992 1142.97 75.1818 1144.89 Q74.3948 1146.78 72.2883 1149.38 Q71.7096 1150.05 68.6078 1153.27 Q65.5059 1156.46 59.8578 1162.22 Z" fill="#000000" fill-rule="evenodd" fill-opacity="1" /><path clip-path="url(#clip800)" d="M 0 0 M66.5939 838.837 L54.7884 857.286 L66.5939 857.286 L66.5939 838.837 M65.367 834.763 L71.2466 834.763 L71.2466 857.286 L76.1772 857.286 L76.1772 861.175 L71.2466 861.175 L71.2466 869.323 L66.5939 869.323 L66.5939 861.175 L50.9921 861.175 L50.9921 856.661 L65.367 834.763 Z" fill="#000000" fill-rule="evenodd" fill-opacity="1" /><path clip-path="url(#clip800)" d="M 0 0 M64.6495 553.343 Q61.5013 553.343 59.6495 555.496 Q57.8208 557.649 57.8208 561.399 Q57.8208 565.126 59.6495 567.302 Q61.5013 569.454 64.6495 569.454 Q67.7976 569.454 69.6263 567.302 Q71.4781 565.126 71.4781 561.399 Q71.4781 557.649 69.6263 555.496 Q67.7976 553.343 64.6495 553.343 M73.9318 538.691 L73.9318 542.95 Q72.1726 542.117 70.367 541.677 Q68.5846 541.237 66.8254 541.237 Q62.1958 541.237 59.7421 544.362 Q57.3115 547.487 56.9643 553.806 Q58.33 551.792 60.3902 550.728 Q62.4504 549.64 64.9272 549.64 Q70.1355 549.64 73.1448 552.811 Q76.1772 555.959 76.1772 561.399 Q76.1772 566.723 73.029 569.94 Q69.8809 573.158 64.6495 573.158 Q58.6541 573.158 55.4828 568.575 Q52.3116 563.968 52.3116 555.241 Q52.3116 547.047 56.2004 542.186 Q60.0893 537.302 66.6402 537.302 Q68.3994 537.302 70.1818 537.649 Q71.9874 537.996 73.9318 538.691 Z" fill="#000000" fill-rule="evenodd" fill-opacity="1" /><path clip-path="url(#clip800)" d="M 0 0 M64.3254 259.238 Q60.9921 259.238 59.0708 261.021 Q57.1726 262.803 57.1726 265.928 Q57.1726 269.053 59.0708 270.836 Q60.9921 272.618 64.3254 272.618 Q67.6587 272.618 69.58 270.836 Q71.5013 269.03 71.5013 265.928 Q71.5013 262.803 69.58 261.021 Q67.6819 259.238 64.3254 259.238 M59.6495 257.248 Q56.6402 256.507 54.9504 254.447 Q53.2838 252.387 53.2838 249.424 Q53.2838 245.28 56.2236 242.873 Q59.1865 240.465 64.3254 240.465 Q69.4874 240.465 72.4272 242.873 Q75.367 245.28 75.367 249.424 Q75.367 252.387 73.6772 254.447 Q72.0105 256.507 69.0244 257.248 Q72.404 258.035 74.279 260.326 Q76.1772 262.618 76.1772 265.928 Q76.1772 270.951 73.0985 273.637 Q70.0429 276.322 64.3254 276.322 Q58.6078 276.322 55.5291 273.637 Q52.4736 270.951 52.4736 265.928 Q52.4736 262.618 54.3717 260.326 Q56.2699 258.035 59.6495 257.248 M57.9365 249.864 Q57.9365 252.549 59.6032 254.053 Q61.293 255.558 64.3254 255.558 Q67.3346 255.558 69.0244 254.053 Q70.7374 252.549 70.7374 249.864 Q70.7374 247.178 69.0244 245.674 Q67.3346 244.169 64.3254 244.169 Q61.293 244.169 59.6032 245.674 Q57.9365 247.178 57.9365 249.864 Z" fill="#000000" fill-rule="evenodd" fill-opacity="1" /><path clip-path="url(#clip802)" d="
M175.59 1444.78 L181.314 1444.7 L187.038 1444.62 L192.762 1444.52 L198.486 1444.38 L204.21 1444.17 L209.934 1443.9 L215.658 1443.55 L221.382 1443.13 L227.106 1442.64 
  L232.83 1442.1 L238.555 1441.51 L244.279 1440.88 L250.003 1440.22 L255.727 1439.55 L261.451 1438.87 L267.175 1438.18 L272.899 1437.53 L278.623 1436.91 L284.347 1436.37 
  L290.071 1435.93 L295.795 1435.58 L301.519 1435.34 L307.243 1435.17 L312.967 1435.02 L318.692 1434.86 L324.416 1434.63 L330.14 1434.28 L335.864 1433.79 L341.588 1433.17 
  L347.312 1432.42 L353.036 1431.58 L358.76 1430.66 L364.484 1429.7 L370.208 1428.69 L375.932 1427.61 L381.656 1426.42 L387.38 1425.06 L393.104 1423.46 L398.829 1421.57 
  L404.553 1419.35 L410.277 1416.78 L416.001 1413.9 L421.725 1410.79 L427.449 1407.56 L433.173 1404.34 L438.897 1401.29 L444.621 1398.54 L450.345 1396.2 L456.069 1394.33 
  L461.793 1392.92 L467.517 1391.89 L473.241 1391.11 L478.966 1390.43 L484.69 1389.67 L490.414 1388.71 L496.138 1387.45 L501.862 1385.87 L507.586 1383.99 L513.31 1381.88 
  L519.034 1379.6 L524.758 1377.23 L530.482 1374.81 L536.206 1372.33 L541.93 1369.77 L547.654 1367.04 L553.378 1364.06 L559.103 1360.72 L564.827 1356.94 L570.551 1352.68 
  L576.275 1347.92 L581.999 1342.68 L587.723 1337.02 L593.447 1331.02 L599.171 1324.73 L604.895 1318.2 L610.619 1311.47 L616.343 1304.55 L622.067 1297.43 L627.791 1290.11 
  L633.515 1282.61 L639.24 1274.96 L644.964 1267.18 L650.688 1259.31 L656.412 1251.31 L662.136 1243.11 L667.86 1234.61 L673.584 1225.66 L679.308 1216.13 L685.032 1205.9 
  L690.756 1194.91 L696.48 1183.16 L702.204 1170.71 L707.928 1157.64 L713.652 1144.04 L719.377 1129.98 L725.101 1115.53 L730.825 1100.72 L736.549 1085.57 L742.273 1070.1 
  L742.273 1445.72 L736.549 1445.72 L730.825 1445.72 L725.101 1445.72 L719.377 1445.72 L713.652 1445.72 L707.928 1445.72 L702.204 1445.72 L696.48 1445.72 L690.756 1445.72 
  L685.032 1445.72 L679.308 1445.72 L673.584 1445.72 L667.86 1445.72 L662.136 1445.72 L656.412 1445.72 L650.688 1445.72 L644.964 1445.72 L639.24 1445.72 L633.515 1445.72 
  L627.791 1445.72 L622.067 1445.72 L616.343 1445.72 L610.619 1445.72 L604.895 1445.72 L599.171 1445.72 L593.447 1445.72 L587.723 1445.72 L581.999 1445.72 L576.275 1445.72 
  L570.551 1445.72 L564.827 1445.72 L559.103 1445.72 L553.378 1445.72 L547.654 1445.72 L541.93 1445.72 L536.206 1445.72 L530.482 1445.72 L524.758 1445.72 L519.034 1445.72 
  L513.31 1445.72 L507.586 1445.72 L501.862 1445.72 L496.138 1445.72 L490.414 1445.72 L484.69 1445.72 L478.966 1445.72 L473.241 1445.72 L467.517 1445.72 L461.793 1445.72 
  L456.069 1445.72 L450.345 1445.72 L444.621 1445.72 L438.897 1445.72 L433.173 1445.72 L427.449 1445.72 L421.725 1445.72 L416.001 1445.72 L410.277 1445.72 L404.553 1445.72 
  L398.829 1445.72 L393.104 1445.72 L387.38 1445.72 L381.656 1445.72 L375.932 1445.72 L370.208 1445.72 L364.484 1445.72 L358.76 1445.72 L353.036 1445.72 L347.312 1445.72 
  L341.588 1445.72 L335.864 1445.72 L330.14 1445.72 L324.416 1445.72 L318.692 1445.72 L312.967 1445.72 L307.243 1445.72 L301.519 1445.72 L295.795 1445.72 L290.071 1445.72 
  L284.347 1445.72 L278.623 1445.72 L272.899 1445.72 L267.175 1445.72 L261.451 1445.72 L255.727 1445.72 L250.003 1445.72 L244.279 1445.72 L238.555 1445.72 L232.83 1445.72 
  L227.106 1445.72 L221.382 1445.72 L215.658 1445.72 L209.934 1445.72 L204.21 1445.72 L198.486 1445.72 L192.762 1445.72 L187.038 1445.72 L181.314 1445.72 L175.59 1445.72 
   Z
  " fill="#ffa500" fill-rule="evenodd" fill-opacity="0.5"/>
<polyline clip-path="url(#clip802)" style="stroke:#ffa500; stroke-width:4; stroke-opacity:1; fill:none" points="
  175.59,1444.78 181.314,1444.7 187.038,1444.62 192.762,1444.52 198.486,1444.38 204.21,1444.17 209.934,1443.9 215.658,1443.55 221.382,1443.13 227.106,1442.64 
  232.83,1442.1 238.555,1441.51 244.279,1440.88 250.003,1440.22 255.727,1439.55 261.451,1438.87 267.175,1438.18 272.899,1437.53 278.623,1436.91 284.347,1436.37 
  290.071,1435.93 295.795,1435.58 301.519,1435.34 307.243,1435.17 312.967,1435.02 318.692,1434.86 324.416,1434.63 330.14,1434.28 335.864,1433.79 341.588,1433.17 
  347.312,1432.42 353.036,1431.58 358.76,1430.66 364.484,1429.7 370.208,1428.69 375.932,1427.61 381.656,1426.42 387.38,1425.06 393.104,1423.46 398.829,1421.57 
  404.553,1419.35 410.277,1416.78 416.001,1413.9 421.725,1410.79 427.449,1407.56 433.173,1404.34 438.897,1401.29 444.621,1398.54 450.345,1396.2 456.069,1394.33 
  461.793,1392.92 467.517,1391.89 473.241,1391.11 478.966,1390.43 484.69,1389.67 490.414,1388.71 496.138,1387.45 501.862,1385.87 507.586,1383.99 513.31,1381.88 
  519.034,1379.6 524.758,1377.23 530.482,1374.81 536.206,1372.33 541.93,1369.77 547.654,1367.04 553.378,1364.06 559.103,1360.72 564.827,1356.94 570.551,1352.68 
  576.275,1347.92 581.999,1342.68 587.723,1337.02 593.447,1331.02 599.171,1324.73 604.895,1318.2 610.619,1311.47 616.343,1304.55 622.067,1297.43 627.791,1290.11 
  633.515,1282.61 639.24,1274.96 644.964,1267.18 650.688,1259.31 656.412,1251.31 662.136,1243.11 667.86,1234.61 673.584,1225.66 679.308,1216.13 685.032,1205.9 
  690.756,1194.91 696.48,1183.16 702.204,1170.71 707.928,1157.64 713.652,1144.04 719.377,1129.98 725.101,1115.53 730.825,1100.72 736.549,1085.57 742.273,1070.1 
  
  "/>
<path clip-path="url(#clip802)" d="
M742.273 1070.1 L751.123 1045.53 L759.973 1020.04 L768.823 993.436 L777.673 965.54 L786.523 936.352 L795.373 906.097 L804.222 875.082 L813.072 843.46 L821.922 811.104 
  L830.772 777.741 L839.622 743.304 L848.472 708.313 L857.322 674.003 L866.172 642.055 L875.022 613.981 L883.872 590.46 L892.722 570.973 L901.572 553.963 L910.422 537.443 
  L919.272 519.673 L928.122 499.53 L936.972 476.446 L945.822 450.132 L954.672 420.46 L963.522 387.686 L972.372 352.834 L981.221 317.868 L990.071 285.376 L998.921 257.796 
  L1007.77 236.581 L1016.62 221.722 L1025.47 211.863 L1034.32 204.9 L1043.17 198.771 L1052.02 192.119 L1060.87 184.622 L1069.72 176.858 L1078.57 169.771 L1087.42 163.97 
  L1096.27 159.247 L1105.12 154.627 L1113.97 148.947 L1122.82 141.635 L1131.67 133.229 L1140.52 125.293 L1149.37 119.71 L1158.22 117.669 L1167.07 118.853 L1175.92 121.337 
  L1184.77 122.359 L1193.62 119.642 L1202.47 112.592 L1211.32 102.746 L1220.17 93.2894 L1229.02 87.9763 L1237.87 89.9901 L1246.72 101.155 L1255.57 121.589 L1264.42 149.718 
  L1273.27 182.567 L1282.12 216.315 L1290.97 247.096 L1299.82 271.913 L1308.67 289.427 L1317.52 300.351 L1326.37 307.304 L1335.22 314.156 L1344.07 325.057 L1352.92 343.42 
  L1361.77 371.121 L1370.62 408.124 L1379.47 452.648 L1388.32 501.754 L1397.17 552.094 L1406.02 600.493 L1414.87 644.288 L1423.72 681.545 L1432.57 711.304 L1441.42 733.851 
  L1450.27 750.798 L1459.12 764.831 L1467.97 779.089 L1476.82 796.364 L1485.67 818.369 L1494.52 845.307 L1503.37 875.89 L1512.22 907.807 L1521.07 938.47 L1529.92 965.79 
  L1538.77 988.697 L1547.62 1007.26 L1556.47 1022.41 L1565.32 1035.48 L1574.17 1047.7 L1583.02 1059.97 L1591.87 1072.88 L1600.72 1086.76 L1609.57 1101.73 L1618.42 1117.73 
  L1618.42 1445.72 L1609.57 1445.72 L1600.72 1445.72 L1591.87 1445.72 L1583.02 1445.72 L1574.17 1445.72 L1565.32 1445.72 L1556.47 1445.72 L1547.62 1445.72 L1538.77 1445.72 
  L1529.92 1445.72 L1521.07 1445.72 L1512.22 1445.72 L1503.37 1445.72 L1494.52 1445.72 L1485.67 1445.72 L1476.82 1445.72 L1467.97 1445.72 L1459.12 1445.72 L1450.27 1445.72 
  L1441.42 1445.72 L1432.57 1445.72 L1423.72 1445.72 L1414.87 1445.72 L1406.02 1445.72 L1397.17 1445.72 L1388.32 1445.72 L1379.47 1445.72 L1370.62 1445.72 L1361.77 1445.72 
  L1352.92 1445.72 L1344.07 1445.72 L1335.22 1445.72 L1326.37 1445.72 L1317.52 1445.72 L1308.67 1445.72 L1299.82 1445.72 L1290.97 1445.72 L1282.12 1445.72 L1273.27 1445.72 
  L1264.42 1445.72 L1255.57 1445.72 L1246.72 1445.72 L1237.87 1445.72 L1229.02 1445.72 L1220.17 1445.72 L1211.32 1445.72 L1202.47 1445.72 L1193.62 1445.72 L1184.77 1445.72 
  L1175.92 1445.72 L1167.07 1445.72 L1158.22 1445.72 L1149.37 1445.72 L1140.52 1445.72 L1131.67 1445.72 L1122.82 1445.72 L1113.97 1445.72 L1105.12 1445.72 L1096.27 1445.72 
  L1087.42 1445.72 L1078.57 1445.72 L1069.72 1445.72 L1060.87 1445.72 L1052.02 1445.72 L1043.17 1445.72 L1034.32 1445.72 L1025.47 1445.72 L1016.62 1445.72 L1007.77 1445.72 
  L998.921 1445.72 L990.071 1445.72 L981.221 1445.72 L972.372 1445.72 L963.522 1445.72 L954.672 1445.72 L945.822 1445.72 L936.972 1445.72 L928.122 1445.72 L919.272 1445.72 
  L910.422 1445.72 L901.572 1445.72 L892.722 1445.72 L883.872 1445.72 L875.022 1445.72 L866.172 1445.72 L857.322 1445.72 L848.472 1445.72 L839.622 1445.72 L830.772 1445.72 
  L821.922 1445.72 L813.072 1445.72 L804.222 1445.72 L795.373 1445.72 L786.523 1445.72 L777.673 1445.72 L768.823 1445.72 L759.973 1445.72 L751.123 1445.72 L742.273 1445.72 
   Z
  " fill="#008000" fill-rule="evenodd" fill-opacity="0.5"/>
<polyline clip-path="url(#clip802)" style="stroke:#008000; stroke-width:4; stroke-opacity:1; fill:none" points="
  742.273,1070.1 751.123,1045.53 759.973,1020.04 768.823,993.436 777.673,965.54 786.523,936.352 795.373,906.097 804.222,875.082 813.072,843.46 821.922,811.104 
  830.772,777.741 839.622,743.304 848.472,708.313 857.322,674.003 866.172,642.055 875.022,613.981 883.872,590.46 892.722,570.973 901.572,553.963 910.422,537.443 
  919.272,519.673 928.122,499.53 936.972,476.446 945.822,450.132 954.672,420.46 963.522,387.686 972.372,352.834 981.221,317.868 990.071,285.376 998.921,257.796 
  1007.77,236.581 1016.62,221.722 1025.47,211.863 1034.32,204.9 1043.17,198.771 1052.02,192.119 1060.87,184.622 1069.72,176.858 1078.57,169.771 1087.42,163.97 
  1096.27,159.247 1105.12,154.627 1113.97,148.947 1122.82,141.635 1131.67,133.229 1140.52,125.293 1149.37,119.71 1158.22,117.669 1167.07,118.853 1175.92,121.337 
  1184.77,122.359 1193.62,119.642 1202.47,112.592 1211.32,102.746 1220.17,93.2894 1229.02,87.9763 1237.87,89.9901 1246.72,101.155 1255.57,121.589 1264.42,149.718 
  1273.27,182.567 1282.12,216.315 1290.97,247.096 1299.82,271.913 1308.67,289.427 1317.52,300.351 1326.37,307.304 1335.22,314.156 1344.07,325.057 1352.92,343.42 
  1361.77,371.121 1370.62,408.124 1379.47,452.648 1388.32,501.754 1397.17,552.094 1406.02,600.493 1414.87,644.288 1423.72,681.545 1432.57,711.304 1441.42,733.851 
  1450.27,750.798 1459.12,764.831 1467.97,779.089 1476.82,796.364 1485.67,818.369 1494.52,845.307 1503.37,875.89 1512.22,907.807 1521.07,938.47 1529.92,965.79 
  1538.77,988.697 1547.62,1007.26 1556.47,1022.41 1565.32,1035.48 1574.17,1047.7 1583.02,1059.97 1591.87,1072.88 1600.72,1086.76 1609.57,1101.73 1618.42,1117.73 
  
  "/>
<path clip-path="url(#clip802)" d="
M1618.42 1117.73 L1625.2 1130.43 L1631.97 1143.22 L1638.75 1155.74 L1645.53 1167.68 L1652.3 1178.78 L1659.08 1188.95 L1665.86 1198.23 L1672.63 1206.79 L1679.41 1214.89 
  L1686.19 1222.78 L1692.97 1230.66 L1699.74 1238.68 L1706.52 1246.91 L1713.3 1255.4 L1720.07 1264.19 L1726.85 1273.32 L1733.63 1282.85 L1740.4 1292.81 L1747.18 1303.18 
  L1753.96 1313.84 L1760.74 1324.61 L1767.51 1335.22 L1774.29 1345.35 L1781.07 1354.68 L1787.84 1362.96 L1794.62 1370.01 L1801.4 1375.8 L1808.17 1380.38 L1814.95 1383.93 
  L1821.73 1386.68 L1828.51 1388.87 L1835.28 1390.72 L1842.06 1392.42 L1848.84 1394.11 L1855.61 1395.87 L1862.39 1397.75 L1869.17 1399.73 L1875.94 1401.78 L1882.72 1403.84 
  L1889.5 1405.84 L1896.28 1407.74 L1903.05 1409.48 L1909.83 1411.02 L1916.61 1412.37 L1923.38 1413.52 L1930.16 1414.49 L1936.94 1415.32 L1943.72 1416.04 L1950.49 1416.69 
  L1957.27 1417.29 L1964.05 1417.86 L1970.82 1418.41 L1977.6 1418.93 L1984.38 1419.46 L1991.15 1420 L1997.93 1420.6 L2004.71 1421.27 L2011.49 1422.02 L2018.26 1422.82 
  L2025.04 1423.6 L2031.82 1424.3 L2038.59 1424.84 L2045.37 1425.16 L2052.15 1425.25 L2058.92 1425.16 L2065.7 1424.96 L2072.48 1424.77 L2079.26 1424.75 L2086.03 1425.02 
  L2092.81 1425.69 L2099.59 1426.77 L2106.36 1428.22 L2113.14 1429.92 L2119.92 1431.7 L2126.69 1433.41 L2133.47 1434.9 L2140.25 1436.09 L2147.03 1436.95 L2153.8 1437.53 
  L2160.58 1437.87 L2167.36 1438.06 L2174.13 1438.17 L2180.91 1438.27 L2187.69 1438.39 L2194.46 1438.59 L2201.24 1438.89 L2208.02 1439.3 L2214.8 1439.82 L2221.57 1440.44 
  L2228.35 1441.12 L2235.13 1441.83 L2241.9 1442.53 L2248.68 1443.18 L2255.46 1443.75 L2262.24 1444.23 L2269.01 1444.6 L2275.79 1444.88 L2282.57 1445.09 L2289.34 1445.23 
  L2289.34 1445.72 L2282.57 1445.72 L2275.79 1445.72 L2269.01 1445.72 L2262.24 1445.72 L2255.46 1445.72 L2248.68 1445.72 L2241.9 1445.72 L2235.13 1445.72 L2228.35 1445.72 
  L2221.57 1445.72 L2214.8 1445.72 L2208.02 1445.72 L2201.24 1445.72 L2194.46 1445.72 L2187.69 1445.72 L2180.91 1445.72 L2174.13 1445.72 L2167.36 1445.72 L2160.58 1445.72 
  L2153.8 1445.72 L2147.03 1445.72 L2140.25 1445.72 L2133.47 1445.72 L2126.69 1445.72 L2119.92 1445.72 L2113.14 1445.72 L2106.36 1445.72 L2099.59 1445.72 L2092.81 1445.72 
  L2086.03 1445.72 L2079.26 1445.72 L2072.48 1445.72 L2065.7 1445.72 L2058.92 1445.72 L2052.15 1445.72 L2045.37 1445.72 L2038.59 1445.72 L2031.82 1445.72 L2025.04 1445.72 
  L2018.26 1445.72 L2011.49 1445.72 L2004.71 1445.72 L1997.93 1445.72 L1991.15 1445.72 L1984.38 1445.72 L1977.6 1445.72 L1970.82 1445.72 L1964.05 1445.72 L1957.27 1445.72 
  L1950.49 1445.72 L1943.72 1445.72 L1936.94 1445.72 L1930.16 1445.72 L1923.38 1445.72 L1916.61 1445.72 L1909.83 1445.72 L1903.05 1445.72 L1896.28 1445.72 L1889.5 1445.72 
  L1882.72 1445.72 L1875.94 1445.72 L1869.17 1445.72 L1862.39 1445.72 L1855.61 1445.72 L1848.84 1445.72 L1842.06 1445.72 L1835.28 1445.72 L1828.51 1445.72 L1821.73 1445.72 
  L1814.95 1445.72 L1808.17 1445.72 L1801.4 1445.72 L1794.62 1445.72 L1787.84 1445.72 L1781.07 1445.72 L1774.29 1445.72 L1767.51 1445.72 L1760.74 1445.72 L1753.96 1445.72 
  L1747.18 1445.72 L1740.4 1445.72 L1733.63 1445.72 L1726.85 1445.72 L1720.07 1445.72 L1713.3 1445.72 L1706.52 1445.72 L1699.74 1445.72 L1692.97 1445.72 L1686.19 1445.72 
  L1679.41 1445.72 L1672.63 1445.72 L1665.86 1445.72 L1659.08 1445.72 L1652.3 1445.72 L1645.53 1445.72 L1638.75 1445.72 L1631.97 1445.72 L1625.2 1445.72 L1618.42 1445.72 
   Z
  " fill="#ffa500" fill-rule="evenodd" fill-opacity="0.5"/>
<polyline clip-path="url(#clip802)" style="stroke:#ffa500; stroke-width:4; stroke-opacity:1; fill:none" points="
  1618.42,1117.73 1625.2,1130.43 1631.97,1143.22 1638.75,1155.74 1645.53,1167.68 1652.3,1178.78 1659.08,1188.95 1665.86,1198.23 1672.63,1206.79 1679.41,1214.89 
  1686.19,1222.78 1692.97,1230.66 1699.74,1238.68 1706.52,1246.91 1713.3,1255.4 1720.07,1264.19 1726.85,1273.32 1733.63,1282.85 1740.4,1292.81 1747.18,1303.18 
  1753.96,1313.84 1760.74,1324.61 1767.51,1335.22 1774.29,1345.35 1781.07,1354.68 1787.84,1362.96 1794.62,1370.01 1801.4,1375.8 1808.17,1380.38 1814.95,1383.93 
  1821.73,1386.68 1828.51,1388.87 1835.28,1390.72 1842.06,1392.42 1848.84,1394.11 1855.61,1395.87 1862.39,1397.75 1869.17,1399.73 1875.94,1401.78 1882.72,1403.84 
  1889.5,1405.84 1896.28,1407.74 1903.05,1409.48 1909.83,1411.02 1916.61,1412.37 1923.38,1413.52 1930.16,1414.49 1936.94,1415.32 1943.72,1416.04 1950.49,1416.69 
  1957.27,1417.29 1964.05,1417.86 1970.82,1418.41 1977.6,1418.93 1984.38,1419.46 1991.15,1420 1997.93,1420.6 2004.71,1421.27 2011.49,1422.02 2018.26,1422.82 
  2025.04,1423.6 2031.82,1424.3 2038.59,1424.84 2045.37,1425.16 2052.15,1425.25 2058.92,1425.16 2065.7,1424.96 2072.48,1424.77 2079.26,1424.75 2086.03,1425.02 
  2092.81,1425.69 2099.59,1426.77 2106.36,1428.22 2113.14,1429.92 2119.92,1431.7 2126.69,1433.41 2133.47,1434.9 2140.25,1436.09 2147.03,1436.95 2153.8,1437.53 
  2160.58,1437.87 2167.36,1438.06 2174.13,1438.17 2180.91,1438.27 2187.69,1438.39 2194.46,1438.59 2201.24,1438.89 2208.02,1439.3 2214.8,1439.82 2221.57,1440.44 
  2228.35,1441.12 2235.13,1441.83 2241.9,1442.53 2248.68,1443.18 2255.46,1443.75 2262.24,1444.23 2269.01,1444.6 2275.79,1444.88 2282.57,1445.09 2289.34,1445.23 
  
  "/>
<polyline clip-path="url(#clip802)" style="stroke:#0000ff; stroke-width:4; stroke-opacity:1; fill:none" points="
  1165.94,1445.72 1165.94,118.576 
  "/>
<polyline clip-path="url(#clip802)" style="stroke:#000000; stroke-width:4; stroke-opacity:1; fill:none" points="
  1161.46,1445.72 1161.46,117.8 
  "/>
<path clip-path="url(#clip800)" d="
M1437.66 458.098 L2278.07 458.098 L2278.07 95.2176 L1437.66 95.2176  Z
  " fill="#ffffff" fill-rule="evenodd" fill-opacity="1"/>
<polyline clip-path="url(#clip800)" style="stroke:#000000; stroke-width:4; stroke-opacity:1; fill:none" points="
  1437.66,458.098 2278.07,458.098 2278.07,95.2176 1437.66,95.2176 1437.66,458.098 
  "/>
<path clip-path="url(#clip800)" d="
M1462.56 179.89 L1611.93 179.89 L1611.93 131.506 L1462.56 131.506 L1462.56 179.89  Z
  " fill="#ffa500" fill-rule="evenodd" fill-opacity="0.5"/>
<polyline clip-path="url(#clip800)" style="stroke:#ffa500; stroke-width:4; stroke-opacity:1; fill:none" points="
  1462.56,131.506 1611.93,131.506 
  "/>
<path clip-path="url(#clip800)" d="M 0 0 M1641.22 160.038 Q1641.22 164.737 1643.14 167.422 Q1645.09 170.084 1648.47 170.084 Q1651.85 170.084 1653.79 167.422 Q1655.74 164.737 1655.74 160.038 Q1655.74 155.339 1653.79 152.677 Q1651.85 149.992 1648.47 149.992 Q1645.09 149.992 1643.14 152.677 Q1641.22 155.339 1641.22 160.038 M1655.74 169.089 Q1654.39 171.403 1652.33 172.538 Q1650.3 173.649 1647.43 173.649 Q1642.73 173.649 1639.76 169.899 Q1636.82 166.149 1636.82 160.038 Q1636.82 153.927 1639.76 150.177 Q1642.73 146.427 1647.43 146.427 Q1650.3 146.427 1652.33 147.561 Q1654.39 148.672 1655.74 150.987 L1655.74 147.052 L1660 147.052 L1660 182.839 L1655.74 182.839 L1655.74 169.089 Z" fill="#000000" fill-rule="evenodd" fill-opacity="1" /><path clip-path="url(#clip800)" d="M 0 0 M1679.37 141.496 Q1675.76 141.496 1673.93 145.061 Q1672.12 148.603 1672.12 155.732 Q1672.12 162.839 1673.93 166.404 Q1675.76 169.945 1679.37 169.945 Q1683 169.945 1684.81 166.404 Q1686.64 162.839 1686.64 155.732 Q1686.64 148.603 1684.81 145.061 Q1683 141.496 1679.37 141.496 M1679.37 137.793 Q1685.18 137.793 1688.24 142.399 Q1691.31 146.982 1691.31 155.732 Q1691.31 164.459 1688.24 169.066 Q1685.18 173.649 1679.37 173.649 Q1673.56 173.649 1670.48 169.066 Q1667.43 164.459 1667.43 155.732 Q1667.43 146.982 1670.48 142.399 Q1673.56 137.793 1679.37 137.793 Z" fill="#000000" fill-rule="evenodd" fill-opacity="1" /><path clip-path="url(#clip800)" d="M 0 0 M1699.58 138.418 L1717.93 138.418 L1717.93 142.353 L1703.86 142.353 L1703.86 150.825 Q1704.88 150.478 1705.9 150.316 Q1706.92 150.13 1707.93 150.13 Q1713.72 150.13 1717.1 153.302 Q1720.48 156.473 1720.48 161.89 Q1720.48 167.468 1717.01 170.57 Q1713.54 173.649 1707.22 173.649 Q1705.04 173.649 1702.77 173.278 Q1700.53 172.908 1698.12 172.167 L1698.12 167.468 Q1700.2 168.603 1702.43 169.158 Q1704.65 169.714 1707.12 169.714 Q1711.13 169.714 1713.47 167.607 Q1715.81 165.501 1715.81 161.89 Q1715.81 158.279 1713.47 156.172 Q1711.13 154.066 1707.12 154.066 Q1705.25 154.066 1703.37 154.482 Q1701.52 154.899 1699.58 155.779 L1699.58 138.418 Z" fill="#000000" fill-rule="evenodd" fill-opacity="1" /><path clip-path="url(#clip800)" d="
M1462.56 240.37 L1611.93 240.37 L1611.93 191.986 L1462.56 191.986 L1462.56 240.37  Z
  " fill="#008000" fill-rule="evenodd" fill-opacity="0.5"/>
<polyline clip-path="url(#clip800)" style="stroke:#008000; stroke-width:4; stroke-opacity:1; fill:none" points="
  1462.56,191.986 1611.93,191.986 
  "/>
<path clip-path="url(#clip800)" d="M 0 0 M1639.05 232.74 L1639.05 228.481 Q1640.81 229.314 1642.61 229.754 Q1644.42 230.194 1646.15 230.194 Q1650.78 230.194 1653.21 227.092 Q1655.67 223.967 1656.01 217.624 Q1654.67 219.615 1652.61 220.68 Q1650.55 221.745 1648.05 221.745 Q1642.87 221.745 1639.83 218.62 Q1636.82 215.472 1636.82 210.032 Q1636.82 204.708 1639.97 201.49 Q1643.12 198.273 1648.35 198.273 Q1654.35 198.273 1657.5 202.879 Q1660.67 207.462 1660.67 216.212 Q1660.67 224.384 1656.78 229.268 Q1652.91 234.129 1646.36 234.129 Q1644.6 234.129 1642.8 233.782 Q1640.99 233.434 1639.05 232.74 M1648.35 218.087 Q1651.5 218.087 1653.33 215.934 Q1655.18 213.782 1655.18 210.032 Q1655.18 206.305 1653.33 204.152 Q1651.5 201.976 1648.35 201.976 Q1645.2 201.976 1643.35 204.152 Q1641.52 206.305 1641.52 210.032 Q1641.52 213.782 1643.35 215.934 Q1645.2 218.087 1648.35 218.087 Z" fill="#000000" fill-rule="evenodd" fill-opacity="1" /><path clip-path="url(#clip800)" d="M 0 0 M1679.07 201.976 Q1675.46 201.976 1673.63 205.541 Q1671.82 209.083 1671.82 216.212 Q1671.82 223.319 1673.63 226.884 Q1675.46 230.425 1679.07 230.425 Q1682.7 230.425 1684.51 226.884 Q1686.34 223.319 1686.34 216.212 Q1686.34 209.083 1684.51 205.541 Q1682.7 201.976 1679.07 201.976 M1679.07 198.273 Q1684.88 198.273 1687.93 202.879 Q1691.01 207.462 1691.01 216.212 Q1691.01 224.939 1687.93 229.546 Q1684.88 234.129 1679.07 234.129 Q1673.26 234.129 1670.18 229.546 Q1667.12 224.939 1667.12 216.212 Q1667.12 207.462 1670.18 202.879 Q1673.26 198.273 1679.07 198.273 Z" fill="#000000" fill-rule="evenodd" fill-opacity="1" /><path clip-path="url(#clip800)" d="M 0 0 M1728.63 218.249 Q1726.62 218.249 1725.46 219.962 Q1724.32 221.675 1724.32 224.731 Q1724.32 227.74 1725.46 229.476 Q1726.62 231.189 1728.63 231.189 Q1730.6 231.189 1731.73 229.476 Q1732.89 227.74 1732.89 224.731 Q1732.89 221.698 1731.73 219.985 Q1730.6 218.249 1728.63 218.249 M1728.63 215.31 Q1732.29 215.31 1734.44 217.856 Q1736.59 220.402 1736.59 224.731 Q1736.59 229.059 1734.42 231.606 Q1732.26 234.129 1728.63 234.129 Q1724.93 234.129 1722.77 231.606 Q1720.62 229.059 1720.62 224.731 Q1720.62 220.379 1722.77 217.856 Q1724.95 215.31 1728.63 215.31 M1704.74 201.212 Q1702.75 201.212 1701.59 202.948 Q1700.46 204.661 1700.46 207.671 Q1700.46 210.726 1701.59 212.439 Q1702.73 214.152 1704.74 214.152 Q1706.75 214.152 1707.89 212.439 Q1709.05 210.726 1709.05 207.671 Q1709.05 204.685 1707.89 202.948 Q1706.73 201.212 1704.74 201.212 M1725.64 198.273 L1729.35 198.273 L1707.73 234.129 L1704.02 234.129 L1725.64 198.273 M1704.74 198.273 Q1708.4 198.273 1710.57 200.819 Q1712.75 203.342 1712.75 207.671 Q1712.75 212.046 1710.57 214.569 Q1708.42 217.092 1704.74 217.092 Q1701.06 217.092 1698.91 214.569 Q1696.78 212.022 1696.78 207.671 Q1696.78 203.365 1698.93 200.819 Q1701.08 198.273 1704.74 198.273 Z" fill="#000000" fill-rule="evenodd" fill-opacity="1" /><path clip-path="url(#clip800)" d="M 0 0 M1780.3 217.809 L1780.3 233.458 L1776.04 233.458 L1776.04 217.948 Q1776.04 214.268 1774.6 212.439 Q1773.17 210.61 1770.3 210.61 Q1766.85 210.61 1764.86 212.81 Q1762.87 215.009 1762.87 218.805 L1762.87 233.458 L1758.58 233.458 L1758.58 207.532 L1762.87 207.532 L1762.87 211.56 Q1764.39 209.222 1766.45 208.064 Q1768.54 206.907 1771.24 206.907 Q1775.71 206.907 1778 209.685 Q1780.3 212.439 1780.3 217.809 Z" fill="#000000" fill-rule="evenodd" fill-opacity="1" /><path clip-path="url(#clip800)" d="M 0 0 M1798.84 210.518 Q1795.41 210.518 1793.42 213.203 Q1791.43 215.865 1791.43 220.518 Q1791.43 225.171 1793.4 227.856 Q1795.39 230.518 1798.84 230.518 Q1802.24 230.518 1804.23 227.833 Q1806.22 225.147 1806.22 220.518 Q1806.22 215.911 1804.23 213.226 Q1802.24 210.518 1798.84 210.518 M1798.84 206.907 Q1804.39 206.907 1807.56 210.518 Q1810.74 214.129 1810.74 220.518 Q1810.74 226.884 1807.56 230.518 Q1804.39 234.129 1798.84 234.129 Q1793.26 234.129 1790.09 230.518 Q1786.94 226.884 1786.94 220.518 Q1786.94 214.129 1790.09 210.518 Q1793.26 206.907 1798.84 206.907 Z" fill="#000000" fill-rule="evenodd" fill-opacity="1" /><path clip-path="url(#clip800)" d="M 0 0 M1839.35 217.809 L1839.35 233.458 L1835.09 233.458 L1835.09 217.948 Q1835.09 214.268 1833.65 212.439 Q1832.22 210.61 1829.35 210.61 Q1825.9 210.61 1823.91 212.81 Q1821.92 215.009 1821.92 218.805 L1821.92 233.458 L1817.63 233.458 L1817.63 207.532 L1821.92 207.532 L1821.92 211.56 Q1823.44 209.222 1825.5 208.064 Q1827.59 206.907 1830.3 206.907 Q1834.76 206.907 1837.05 209.685 Q1839.35 212.439 1839.35 217.809 Z" fill="#000000" fill-rule="evenodd" fill-opacity="1" /><path clip-path="url(#clip800)" d="M 0 0 M1845.69 218.573 L1858.17 218.573 L1858.17 222.37 L1845.69 222.37 L1845.69 218.573 Z" fill="#000000" fill-rule="evenodd" fill-opacity="1" /><path clip-path="url(#clip800)" d="M 0 0 M1879.97 211.513 Q1879.25 211.097 1878.4 210.911 Q1877.56 210.703 1876.55 210.703 Q1872.93 210.703 1870.99 213.064 Q1869.07 215.402 1869.07 219.8 L1869.07 233.458 L1864.79 233.458 L1864.79 207.532 L1869.07 207.532 L1869.07 211.56 Q1870.41 209.198 1872.56 208.064 Q1874.72 206.907 1877.8 206.907 Q1878.23 206.907 1878.77 206.976 Q1879.3 207.023 1879.95 207.138 L1879.97 211.513 Z" fill="#000000" fill-rule="evenodd" fill-opacity="1" /><path clip-path="url(#clip800)" d="M 0 0 M1905.57 219.43 L1905.57 221.513 L1885.99 221.513 Q1886.27 225.911 1888.63 228.226 Q1891.01 230.518 1895.25 230.518 Q1897.7 230.518 1899.99 229.916 Q1902.31 229.314 1904.58 228.11 L1904.58 232.138 Q1902.29 233.11 1899.88 233.62 Q1897.47 234.129 1894.99 234.129 Q1888.79 234.129 1885.16 230.518 Q1881.55 226.907 1881.55 220.749 Q1881.55 214.384 1884.97 210.657 Q1888.42 206.907 1894.25 206.907 Q1899.48 206.907 1902.52 210.286 Q1905.57 213.643 1905.57 219.43 M1901.31 218.18 Q1901.27 214.685 1899.35 212.601 Q1897.45 210.518 1894.3 210.518 Q1890.73 210.518 1888.58 212.532 Q1886.45 214.546 1886.13 218.203 L1901.31 218.18 Z" fill="#000000" fill-rule="evenodd" fill-opacity="1" /><path clip-path="url(#clip800)" d="M 0 0 M1912.56 207.532 L1916.82 207.532 L1916.82 233.921 Q1916.82 238.874 1914.92 241.096 Q1913.05 243.319 1908.86 243.319 L1907.24 243.319 L1907.24 239.708 L1908.37 239.708 Q1910.8 239.708 1911.68 238.573 Q1912.56 237.462 1912.56 233.921 L1912.56 207.532 M1912.56 197.439 L1916.82 197.439 L1916.82 202.833 L1912.56 202.833 L1912.56 197.439 Z" fill="#000000" fill-rule="evenodd" fill-opacity="1" /><path clip-path="url(#clip800)" d="M 0 0 M1947.91 219.43 L1947.91 221.513 L1928.33 221.513 Q1928.6 225.911 1930.97 228.226 Q1933.35 230.518 1937.59 230.518 Q1940.04 230.518 1942.33 229.916 Q1944.65 229.314 1946.92 228.11 L1946.92 232.138 Q1944.62 233.11 1942.22 233.62 Q1939.81 234.129 1937.33 234.129 Q1931.13 234.129 1927.49 230.518 Q1923.88 226.907 1923.88 220.749 Q1923.88 214.384 1927.31 210.657 Q1930.76 206.907 1936.59 206.907 Q1941.82 206.907 1944.85 210.286 Q1947.91 213.643 1947.91 219.43 M1943.65 218.18 Q1943.6 214.685 1941.68 212.601 Q1939.79 210.518 1936.64 210.518 Q1933.07 210.518 1930.92 212.532 Q1928.79 214.546 1928.47 218.203 L1943.65 218.18 Z" fill="#000000" fill-rule="evenodd" fill-opacity="1" /><path clip-path="url(#clip800)" d="M 0 0 M1973.56 208.527 L1973.56 212.509 Q1971.75 211.513 1969.92 211.027 Q1968.12 210.518 1966.27 210.518 Q1962.12 210.518 1959.83 213.157 Q1957.54 215.772 1957.54 220.518 Q1957.54 225.263 1959.83 227.902 Q1962.12 230.518 1966.27 230.518 Q1968.12 230.518 1969.92 230.032 Q1971.75 229.522 1973.56 228.527 L1973.56 232.462 Q1971.78 233.296 1969.85 233.712 Q1967.96 234.129 1965.8 234.129 Q1959.95 234.129 1956.5 230.448 Q1953.05 226.768 1953.05 220.518 Q1953.05 214.175 1956.52 210.541 Q1960.02 206.907 1966.08 206.907 Q1968.05 206.907 1969.92 207.323 Q1971.8 207.717 1973.56 208.527 Z" fill="#000000" fill-rule="evenodd" fill-opacity="1" /><path clip-path="url(#clip800)" d="M 0 0 M1985.18 200.171 L1985.18 207.532 L1993.95 207.532 L1993.95 210.842 L1985.18 210.842 L1985.18 224.916 Q1985.18 228.087 1986.04 228.99 Q1986.91 229.893 1989.58 229.893 L1993.95 229.893 L1993.95 233.458 L1989.58 233.458 Q1984.65 233.458 1982.77 231.629 Q1980.9 229.777 1980.9 224.916 L1980.9 210.842 L1977.77 210.842 L1977.77 207.532 L1980.9 207.532 L1980.9 200.171 L1985.18 200.171 Z" fill="#000000" fill-rule="evenodd" fill-opacity="1" /><path clip-path="url(#clip800)" d="M 0 0 M1999.55 207.532 L2003.81 207.532 L2003.81 233.458 L1999.55 233.458 L1999.55 207.532 M1999.55 197.439 L2003.81 197.439 L2003.81 202.833 L1999.55 202.833 L1999.55 197.439 Z" fill="#000000" fill-rule="evenodd" fill-opacity="1" /><path clip-path="url(#clip800)" d="M 0 0 M2022.77 210.518 Q2019.35 210.518 2017.35 213.203 Q2015.36 215.865 2015.36 220.518 Q2015.36 225.171 2017.33 227.856 Q2019.32 230.518 2022.77 230.518 Q2026.17 230.518 2028.16 227.833 Q2030.16 225.147 2030.16 220.518 Q2030.16 215.911 2028.16 213.226 Q2026.17 210.518 2022.77 210.518 M2022.77 206.907 Q2028.33 206.907 2031.5 210.518 Q2034.67 214.129 2034.67 220.518 Q2034.67 226.884 2031.5 230.518 Q2028.33 234.129 2022.77 234.129 Q2017.19 234.129 2014.02 230.518 Q2010.87 226.884 2010.87 220.518 Q2010.87 214.129 2014.02 210.518 Q2017.19 206.907 2022.77 206.907 Z" fill="#000000" fill-rule="evenodd" fill-opacity="1" /><path clip-path="url(#clip800)" d="M 0 0 M2063.28 217.809 L2063.28 233.458 L2059.02 233.458 L2059.02 217.948 Q2059.02 214.268 2057.59 212.439 Q2056.15 210.61 2053.28 210.61 Q2049.83 210.61 2047.84 212.81 Q2045.85 215.009 2045.85 218.805 L2045.85 233.458 L2041.57 233.458 L2041.57 207.532 L2045.85 207.532 L2045.85 211.56 Q2047.38 209.222 2049.44 208.064 Q2051.52 206.907 2054.23 206.907 Q2058.7 206.907 2060.99 209.685 Q2063.28 212.439 2063.28 217.809 Z" fill="#000000" fill-rule="evenodd" fill-opacity="1" /><path clip-path="url(#clip800)" d="M 0 0 M2101.87 211.513 Q2101.15 211.097 2100.29 210.911 Q2099.46 210.703 2098.44 210.703 Q2094.83 210.703 2092.89 213.064 Q2090.97 215.402 2090.97 219.8 L2090.97 233.458 L2086.68 233.458 L2086.68 207.532 L2090.97 207.532 L2090.97 211.56 Q2092.31 209.198 2094.46 208.064 Q2096.61 206.907 2099.69 206.907 Q2100.13 206.907 2100.66 206.976 Q2101.2 207.023 2101.84 207.138 L2101.87 211.513 Z" fill="#000000" fill-rule="evenodd" fill-opacity="1" /><path clip-path="url(#clip800)" d="M 0 0 M2127.47 219.43 L2127.47 221.513 L2107.89 221.513 Q2108.16 225.911 2110.53 228.226 Q2112.91 230.518 2117.15 230.518 Q2119.6 230.518 2121.89 229.916 Q2124.21 229.314 2126.47 228.11 L2126.47 232.138 Q2124.18 233.11 2121.78 233.62 Q2119.37 234.129 2116.89 234.129 Q2110.69 234.129 2107.05 230.518 Q2103.44 226.907 2103.44 220.749 Q2103.44 214.384 2106.87 210.657 Q2110.32 206.907 2116.15 206.907 Q2121.38 206.907 2124.41 210.286 Q2127.47 213.643 2127.47 219.43 M2123.21 218.18 Q2123.16 214.685 2121.24 212.601 Q2119.34 210.518 2116.2 210.518 Q2112.63 210.518 2110.48 212.532 Q2108.35 214.546 2108.03 218.203 L2123.21 218.18 Z" fill="#000000" fill-rule="evenodd" fill-opacity="1" /><path clip-path="url(#clip800)" d="M 0 0 M2151.52 220.194 Q2151.52 215.564 2149.6 213.018 Q2147.7 210.472 2144.25 210.472 Q2140.83 210.472 2138.9 213.018 Q2137.01 215.564 2137.01 220.194 Q2137.01 224.8 2138.9 227.346 Q2140.83 229.893 2144.25 229.893 Q2147.7 229.893 2149.6 227.346 Q2151.52 224.8 2151.52 220.194 M2155.78 230.24 Q2155.78 236.86 2152.84 240.078 Q2149.9 243.319 2143.84 243.319 Q2141.59 243.319 2139.6 242.971 Q2137.61 242.647 2135.73 241.953 L2135.73 237.809 Q2137.61 238.828 2139.44 239.314 Q2141.27 239.8 2143.16 239.8 Q2147.35 239.8 2149.44 237.601 Q2151.52 235.425 2151.52 231.004 L2151.52 228.897 Q2150.2 231.189 2148.14 232.323 Q2146.08 233.458 2143.21 233.458 Q2138.44 233.458 2135.53 229.823 Q2132.61 226.189 2132.61 220.194 Q2132.61 214.175 2135.53 210.541 Q2138.44 206.907 2143.21 206.907 Q2146.08 206.907 2148.14 208.041 Q2150.2 209.175 2151.52 211.467 L2151.52 207.532 L2155.78 207.532 L2155.78 230.24 Z" fill="#000000" fill-rule="evenodd" fill-opacity="1" /><path clip-path="url(#clip800)" d="M 0 0 M2164.55 207.532 L2168.81 207.532 L2168.81 233.458 L2164.55 233.458 L2164.55 207.532 M2164.55 197.439 L2168.81 197.439 L2168.81 202.833 L2164.55 202.833 L2164.55 197.439 Z" fill="#000000" fill-rule="evenodd" fill-opacity="1" /><path clip-path="url(#clip800)" d="M 0 0 M2187.77 210.518 Q2184.34 210.518 2182.35 213.203 Q2180.36 215.865 2180.36 220.518 Q2180.36 225.171 2182.33 227.856 Q2184.32 230.518 2187.77 230.518 Q2191.17 230.518 2193.16 227.833 Q2195.15 225.147 2195.15 220.518 Q2195.15 215.911 2193.16 213.226 Q2191.17 210.518 2187.77 210.518 M2187.77 206.907 Q2193.33 206.907 2196.5 210.518 Q2199.67 214.129 2199.67 220.518 Q2199.67 226.884 2196.5 230.518 Q2193.33 234.129 2187.77 234.129 Q2182.19 234.129 2179.02 230.518 Q2175.87 226.884 2175.87 220.518 Q2175.87 214.129 2179.02 210.518 Q2182.19 206.907 2187.77 206.907 Z" fill="#000000" fill-rule="evenodd" fill-opacity="1" /><path clip-path="url(#clip800)" d="M 0 0 M2228.28 217.809 L2228.28 233.458 L2224.02 233.458 L2224.02 217.948 Q2224.02 214.268 2222.58 212.439 Q2221.15 210.61 2218.28 210.61 Q2214.83 210.61 2212.84 212.81 Q2210.85 215.009 2210.85 218.805 L2210.85 233.458 L2206.57 233.458 L2206.57 207.532 L2210.85 207.532 L2210.85 211.56 Q2212.38 209.222 2214.44 208.064 Q2216.52 206.907 2219.23 206.907 Q2223.7 206.907 2225.99 209.685 Q2228.28 212.439 2228.28 217.809 Z" fill="#000000" fill-rule="evenodd" fill-opacity="1" /><path clip-path="url(#clip800)" d="
M1462.56 300.85 L1611.93 300.85 L1611.93 252.466 L1462.56 252.466 L1462.56 300.85  Z
  " fill="#ffa500" fill-rule="evenodd" fill-opacity="0.5"/>
<polyline clip-path="url(#clip800)" style="stroke:#ffa500; stroke-width:4; stroke-opacity:1; fill:none" points="
  1462.56,252.466 1611.93,252.466 
  "/>
<path clip-path="url(#clip800)" d="M 0 0 M1641.22 280.998 Q1641.22 285.697 1643.14 288.382 Q1645.09 291.044 1648.47 291.044 Q1651.85 291.044 1653.79 288.382 Q1655.74 285.697 1655.74 280.998 Q1655.74 276.299 1653.79 273.637 Q1651.85 270.952 1648.47 270.952 Q1645.09 270.952 1643.14 273.637 Q1641.22 276.299 1641.22 280.998 M1655.74 290.049 Q1654.39 292.363 1652.33 293.498 Q1650.3 294.609 1647.43 294.609 Q1642.73 294.609 1639.76 290.859 Q1636.82 287.109 1636.82 280.998 Q1636.82 274.887 1639.76 271.137 Q1642.73 267.387 1647.43 267.387 Q1650.3 267.387 1652.33 268.521 Q1654.39 269.632 1655.74 271.947 L1655.74 268.012 L1660 268.012 L1660 303.799 L1655.74 303.799 L1655.74 290.049 Z" fill="#000000" fill-rule="evenodd" fill-opacity="1" /><path clip-path="url(#clip800)" d="M 0 0 M1669.51 293.22 L1669.51 288.961 Q1671.27 289.794 1673.07 290.234 Q1674.88 290.674 1676.62 290.674 Q1681.25 290.674 1683.68 287.572 Q1686.13 284.447 1686.48 278.104 Q1685.13 280.095 1683.07 281.16 Q1681.01 282.225 1678.51 282.225 Q1673.33 282.225 1670.3 279.1 Q1667.29 275.952 1667.29 270.512 Q1667.29 265.188 1670.44 261.97 Q1673.58 258.753 1678.81 258.753 Q1684.81 258.753 1687.96 263.359 Q1691.13 267.942 1691.13 276.692 Q1691.13 284.864 1687.24 289.748 Q1683.37 294.609 1676.82 294.609 Q1675.06 294.609 1673.26 294.262 Q1671.45 293.914 1669.51 293.22 M1678.81 278.567 Q1681.96 278.567 1683.79 276.414 Q1685.64 274.262 1685.64 270.512 Q1685.64 266.785 1683.79 264.632 Q1681.96 262.456 1678.81 262.456 Q1675.67 262.456 1673.81 264.632 Q1671.99 266.785 1671.99 270.512 Q1671.99 274.262 1673.81 276.414 Q1675.67 278.567 1678.81 278.567 Z" fill="#000000" fill-rule="evenodd" fill-opacity="1" /><path clip-path="url(#clip800)" d="M 0 0 M1699.58 259.378 L1717.93 259.378 L1717.93 263.313 L1703.86 263.313 L1703.86 271.785 Q1704.88 271.438 1705.9 271.276 Q1706.92 271.09 1707.93 271.09 Q1713.72 271.09 1717.1 274.262 Q1720.48 277.433 1720.48 282.85 Q1720.48 288.428 1717.01 291.53 Q1713.54 294.609 1707.22 294.609 Q1705.04 294.609 1702.77 294.238 Q1700.53 293.868 1698.12 293.127 L1698.12 288.428 Q1700.2 289.563 1702.43 290.118 Q1704.65 290.674 1707.12 290.674 Q1711.13 290.674 1713.47 288.567 Q1715.81 286.461 1715.81 282.85 Q1715.81 279.239 1713.47 277.132 Q1711.13 275.026 1707.12 275.026 Q1705.25 275.026 1703.37 275.442 Q1701.52 275.859 1699.58 276.739 L1699.58 259.378 Z" fill="#000000" fill-rule="evenodd" fill-opacity="1" /><polyline clip-path="url(#clip800)" style="stroke:#0000ff; stroke-width:4; stroke-opacity:1; fill:none" points="
  1462.56,337.138 1611.93,337.138 
  "/>
<path clip-path="url(#clip800)" d="M 0 0 M1657.17 333.469 Q1658.77 330.598 1660.99 329.233 Q1663.21 327.867 1666.22 327.867 Q1670.27 327.867 1672.47 330.714 Q1674.67 333.538 1674.67 338.769 L1674.67 354.418 L1670.39 354.418 L1670.39 338.908 Q1670.39 335.182 1669.07 333.376 Q1667.75 331.57 1665.04 331.57 Q1661.73 331.57 1659.81 333.77 Q1657.89 335.969 1657.89 339.765 L1657.89 354.418 L1653.61 354.418 L1653.61 338.908 Q1653.61 335.158 1652.29 333.376 Q1650.97 331.57 1648.21 331.57 Q1644.95 331.57 1643.03 333.793 Q1641.11 335.992 1641.11 339.765 L1641.11 354.418 L1636.82 354.418 L1636.82 328.492 L1641.11 328.492 L1641.11 332.52 Q1642.56 330.135 1644.6 329.001 Q1646.64 327.867 1649.44 327.867 Q1652.26 327.867 1654.23 329.302 Q1656.22 330.737 1657.17 333.469 Z" fill="#000000" fill-rule="evenodd" fill-opacity="1" /><path clip-path="url(#clip800)" d="M 0 0 M1705.34 340.39 L1705.34 342.473 L1685.76 342.473 Q1686.04 346.871 1688.4 349.186 Q1690.78 351.478 1695.02 351.478 Q1697.47 351.478 1699.76 350.876 Q1702.08 350.274 1704.35 349.07 L1704.35 353.098 Q1702.06 354.07 1699.65 354.58 Q1697.24 355.089 1694.76 355.089 Q1688.56 355.089 1684.93 351.478 Q1681.31 347.867 1681.31 341.709 Q1681.31 335.344 1684.74 331.617 Q1688.19 327.867 1694.02 327.867 Q1699.25 327.867 1702.29 331.246 Q1705.34 334.603 1705.34 340.39 M1701.08 339.14 Q1701.04 335.645 1699.12 333.561 Q1697.22 331.478 1694.07 331.478 Q1690.5 331.478 1688.35 333.492 Q1686.22 335.506 1685.9 339.163 L1701.08 339.14 Z" fill="#000000" fill-rule="evenodd" fill-opacity="1" /><path clip-path="url(#clip800)" d="M 0 0 M1724.12 341.385 Q1718.95 341.385 1716.96 342.566 Q1714.97 343.746 1714.97 346.594 Q1714.97 348.862 1716.45 350.205 Q1717.96 351.524 1720.53 351.524 Q1724.07 351.524 1726.2 349.024 Q1728.35 346.501 1728.35 342.334 L1728.35 341.385 L1724.12 341.385 M1732.61 339.626 L1732.61 354.418 L1728.35 354.418 L1728.35 350.482 Q1726.89 352.843 1724.72 353.978 Q1722.54 355.089 1719.39 355.089 Q1715.41 355.089 1713.05 352.867 Q1710.71 350.621 1710.71 346.871 Q1710.71 342.496 1713.63 340.274 Q1716.57 338.052 1722.38 338.052 L1728.35 338.052 L1728.35 337.635 Q1728.35 334.695 1726.41 333.098 Q1724.49 331.478 1720.99 331.478 Q1718.77 331.478 1716.66 332.01 Q1714.56 332.543 1712.61 333.607 L1712.61 329.672 Q1714.95 328.77 1717.15 328.33 Q1719.35 327.867 1721.43 327.867 Q1727.06 327.867 1729.83 330.783 Q1732.61 333.7 1732.61 339.626 Z" fill="#000000" fill-rule="evenodd" fill-opacity="1" /><path clip-path="url(#clip800)" d="M 0 0 M1762.93 338.769 L1762.93 354.418 L1758.68 354.418 L1758.68 338.908 Q1758.68 335.228 1757.24 333.399 Q1755.8 331.57 1752.93 331.57 Q1749.49 331.57 1747.49 333.77 Q1745.5 335.969 1745.5 339.765 L1745.5 354.418 L1741.22 354.418 L1741.22 328.492 L1745.5 328.492 L1745.5 332.52 Q1747.03 330.182 1749.09 329.024 Q1751.18 327.867 1753.88 327.867 Q1758.35 327.867 1760.64 330.645 Q1762.93 333.399 1762.93 338.769 Z" fill="#000000" fill-rule="evenodd" fill-opacity="1" /><polyline clip-path="url(#clip800)" style="stroke:#000000; stroke-width:4; stroke-opacity:1; fill:none" points="
  1462.56,397.618 1611.93,397.618 
  "/>
<path clip-path="url(#clip800)" d="M 0 0 M1657.17 393.949 Q1658.77 391.078 1660.99 389.713 Q1663.21 388.347 1666.22 388.347 Q1670.27 388.347 1672.47 391.194 Q1674.67 394.018 1674.67 399.249 L1674.67 414.898 L1670.39 414.898 L1670.39 399.388 Q1670.39 395.662 1669.07 393.856 Q1667.75 392.05 1665.04 392.05 Q1661.73 392.05 1659.81 394.25 Q1657.89 396.449 1657.89 400.245 L1657.89 414.898 L1653.61 414.898 L1653.61 399.388 Q1653.61 395.638 1652.29 393.856 Q1650.97 392.05 1648.21 392.05 Q1644.95 392.05 1643.03 394.273 Q1641.11 396.472 1641.11 400.245 L1641.11 414.898 L1636.82 414.898 L1636.82 388.972 L1641.11 388.972 L1641.11 393 Q1642.56 390.615 1644.6 389.481 Q1646.64 388.347 1649.44 388.347 Q1652.26 388.347 1654.23 389.782 Q1656.22 391.217 1657.17 393.949 Z" fill="#000000" fill-rule="evenodd" fill-opacity="1" /><path clip-path="url(#clip800)" d="M 0 0 M1705.34 400.87 L1705.34 402.953 L1685.76 402.953 Q1686.04 407.351 1688.4 409.666 Q1690.78 411.958 1695.02 411.958 Q1697.47 411.958 1699.76 411.356 Q1702.08 410.754 1704.35 409.55 L1704.35 413.578 Q1702.06 414.55 1699.65 415.06 Q1697.24 415.569 1694.76 415.569 Q1688.56 415.569 1684.93 411.958 Q1681.31 408.347 1681.31 402.189 Q1681.31 395.824 1684.74 392.097 Q1688.19 388.347 1694.02 388.347 Q1699.25 388.347 1702.29 391.726 Q1705.34 395.083 1705.34 400.87 M1701.08 399.62 Q1701.04 396.125 1699.12 394.041 Q1697.22 391.958 1694.07 391.958 Q1690.5 391.958 1688.35 393.972 Q1686.22 395.986 1685.9 399.643 L1701.08 399.62 Z" fill="#000000" fill-rule="evenodd" fill-opacity="1" /><path clip-path="url(#clip800)" d="M 0 0 M1729.39 392.907 L1729.39 378.879 L1733.65 378.879 L1733.65 414.898 L1729.39 414.898 L1729.39 411.009 Q1728.05 413.323 1725.99 414.458 Q1723.95 415.569 1721.08 415.569 Q1716.38 415.569 1713.42 411.819 Q1710.48 408.069 1710.48 401.958 Q1710.48 395.847 1713.42 392.097 Q1716.38 388.347 1721.08 388.347 Q1723.95 388.347 1725.99 389.481 Q1728.05 390.592 1729.39 392.907 M1714.88 401.958 Q1714.88 406.657 1716.8 409.342 Q1718.75 412.004 1722.12 412.004 Q1725.5 412.004 1727.45 409.342 Q1729.39 406.657 1729.39 401.958 Q1729.39 397.259 1727.45 394.597 Q1725.5 391.912 1722.12 391.912 Q1718.75 391.912 1716.8 394.597 Q1714.88 397.259 1714.88 401.958 Z" fill="#000000" fill-rule="evenodd" fill-opacity="1" /><path clip-path="url(#clip800)" d="M 0 0 M1742.43 388.972 L1746.68 388.972 L1746.68 414.898 L1742.43 414.898 L1742.43 388.972 M1742.43 378.879 L1746.68 378.879 L1746.68 384.273 L1742.43 384.273 L1742.43 378.879 Z" fill="#000000" fill-rule="evenodd" fill-opacity="1" /><path clip-path="url(#clip800)" d="M 0 0 M1767.38 401.865 Q1762.22 401.865 1760.23 403.046 Q1758.24 404.226 1758.24 407.074 Q1758.24 409.342 1759.72 410.685 Q1761.22 412.004 1763.79 412.004 Q1767.33 412.004 1769.46 409.504 Q1771.62 406.981 1771.62 402.814 L1771.62 401.865 L1767.38 401.865 M1775.87 400.106 L1775.87 414.898 L1771.62 414.898 L1771.62 410.962 Q1770.16 413.323 1767.98 414.458 Q1765.8 415.569 1762.66 415.569 Q1758.68 415.569 1756.31 413.347 Q1753.98 411.101 1753.98 407.351 Q1753.98 402.976 1756.89 400.754 Q1759.83 398.532 1765.64 398.532 L1771.62 398.532 L1771.62 398.115 Q1771.62 395.175 1769.67 393.578 Q1767.75 391.958 1764.25 391.958 Q1762.03 391.958 1759.93 392.49 Q1757.82 393.023 1755.87 394.087 L1755.87 390.152 Q1758.21 389.25 1760.41 388.81 Q1762.61 388.347 1764.69 388.347 Q1770.32 388.347 1773.1 391.263 Q1775.87 394.18 1775.87 400.106 Z" fill="#000000" fill-rule="evenodd" fill-opacity="1" /><path clip-path="url(#clip800)" d="M 0 0 M1806.2 399.249 L1806.2 414.898 L1801.94 414.898 L1801.94 399.388 Q1801.94 395.708 1800.5 393.879 Q1799.07 392.05 1796.2 392.05 Q1792.75 392.05 1790.76 394.25 Q1788.77 396.449 1788.77 400.245 L1788.77 414.898 L1784.49 414.898 L1784.49 388.972 L1788.77 388.972 L1788.77 393 Q1790.3 390.662 1792.36 389.504 Q1794.44 388.347 1797.15 388.347 Q1801.61 388.347 1803.91 391.125 Q1806.2 393.879 1806.2 399.249 Z" fill="#000000" fill-rule="evenodd" fill-opacity="1" /></svg>
