<?xml version="1.0" encoding="utf-8"?>
<svg xmlns="http://www.w3.org/2000/svg" xmlns:xlink="http://www.w3.org/1999/xlink" width="600" height="400" viewBox="0 0 2400 1600">
<defs>
  <clipPath id="clip140">
    <rect x="0" y="0" width="2400" height="1600"/>
  </clipPath>
</defs>
<path clip-path="url(#clip140)" d="M0 1600 L2400 1600 L2400 0 L0 0  Z" fill="#ffffff" fill-rule="evenodd" fill-opacity="1"/>
<defs>
  <clipPath id="clip141">
    <rect x="480" y="0" width="1681" height="1600"/>
  </clipPath>
</defs>
<path clip-path="url(#clip140)" d="M140.696 1486.45 L2352.76 1486.45 L2352.76 47.2441 L140.696 47.2441  Z" fill="#ffffff" fill-rule="evenodd" fill-opacity="1"/>
<defs>
  <clipPath id="clip142">
    <rect x="140" y="47" width="2213" height="1440"/>
  </clipPath>
</defs>
<polyline clip-path="url(#clip142)" style="stroke:#000000; stroke-linecap:round; stroke-linejoin:round; stroke-width:2; stroke-opacity:0.1; fill:none" points="286.478,1486.45 286.478,47.2441 "/>
<polyline clip-path="url(#clip142)" style="stroke:#000000; stroke-linecap:round; stroke-linejoin:round; stroke-width:2; stroke-opacity:0.1; fill:none" points="952.98,1486.45 952.98,47.2441 "/>
<polyline clip-path="url(#clip142)" style="stroke:#000000; stroke-linecap:round; stroke-linejoin:round; stroke-width:2; stroke-opacity:0.1; fill:none" points="1619.48,1486.45 1619.48,47.2441 "/>
<polyline clip-path="url(#clip142)" style="stroke:#000000; stroke-linecap:round; stroke-linejoin:round; stroke-width:2; stroke-opacity:0.1; fill:none" points="2285.98,1486.45 2285.98,47.2441 "/>
<polyline clip-path="url(#clip140)" style="stroke:#000000; stroke-linecap:round; stroke-linejoin:round; stroke-width:4; stroke-opacity:1; fill:none" points="140.696,1486.45 2352.76,1486.45 "/>
<polyline clip-path="url(#clip140)" style="stroke:#000000; stroke-linecap:round; stroke-linejoin:round; stroke-width:4; stroke-opacity:1; fill:none" points="286.478,1486.45 286.478,1467.55 "/>
<polyline clip-path="url(#clip140)" style="stroke:#000000; stroke-linecap:round; stroke-linejoin:round; stroke-width:4; stroke-opacity:1; fill:none" points="952.98,1486.45 952.98,1467.55 "/>
<polyline clip-path="url(#clip140)" style="stroke:#000000; stroke-linecap:round; stroke-linejoin:round; stroke-width:4; stroke-opacity:1; fill:none" points="1619.48,1486.45 1619.48,1467.55 "/>
<polyline clip-path="url(#clip140)" style="stroke:#000000; stroke-linecap:round; stroke-linejoin:round; stroke-width:4; stroke-opacity:1; fill:none" points="2285.98,1486.45 2285.98,1467.55 "/>
<path clip-path="url(#clip140)" d="M239.047 1544.91 L246.686 1544.91 L246.686 1518.55 L238.376 1520.21 L238.376 1515.95 L246.64 1514.29 L251.316 1514.29 L251.316 1544.91 L258.955 1544.91 L258.955 1548.85 L239.047 1548.85 L239.047 1544.91 Z" fill="#000000" fill-rule="nonzero" fill-opacity="1" /><path clip-path="url(#clip140)" d="M268.399 1542.97 L273.283 1542.97 L273.283 1548.85 L268.399 1548.85 L268.399 1542.97 Z" fill="#000000" fill-rule="nonzero" fill-opacity="1" /><path clip-path="url(#clip140)" d="M283.607 1548.13 L283.607 1543.87 Q285.367 1544.7 287.172 1545.14 Q288.978 1545.58 290.714 1545.58 Q295.343 1545.58 297.774 1542.48 Q300.228 1539.36 300.575 1533.01 Q299.232 1535.01 297.172 1536.07 Q295.112 1537.13 292.612 1537.13 Q287.427 1537.13 284.394 1534.01 Q281.385 1530.86 281.385 1525.42 Q281.385 1520.1 284.533 1516.88 Q287.681 1513.66 292.913 1513.66 Q298.908 1513.66 302.056 1518.27 Q305.228 1522.85 305.228 1531.6 Q305.228 1539.77 301.339 1544.66 Q297.473 1549.52 290.922 1549.52 Q289.163 1549.52 287.357 1549.17 Q285.552 1548.82 283.607 1548.13 M292.913 1533.48 Q296.061 1533.48 297.89 1531.32 Q299.742 1529.17 299.742 1525.42 Q299.742 1521.7 297.89 1519.54 Q296.061 1517.37 292.913 1517.37 Q289.765 1517.37 287.913 1519.54 Q286.084 1521.7 286.084 1525.42 Q286.084 1529.17 287.913 1531.32 Q289.765 1533.48 292.913 1533.48 Z" fill="#000000" fill-rule="nonzero" fill-opacity="1" /><path clip-path="url(#clip140)" d="M313.677 1514.29 L332.033 1514.29 L332.033 1518.22 L317.959 1518.22 L317.959 1526.7 Q318.978 1526.35 319.996 1526.19 Q321.015 1526 322.033 1526 Q327.82 1526 331.2 1529.17 Q334.579 1532.34 334.579 1537.76 Q334.579 1543.34 331.107 1546.44 Q327.635 1549.52 321.316 1549.52 Q319.14 1549.52 316.871 1549.15 Q314.626 1548.78 312.218 1548.04 L312.218 1543.34 Q314.302 1544.47 316.524 1545.03 Q318.746 1545.58 321.223 1545.58 Q325.228 1545.58 327.566 1543.48 Q329.903 1541.37 329.903 1537.76 Q329.903 1534.15 327.566 1532.04 Q325.228 1529.94 321.223 1529.94 Q319.348 1529.94 317.473 1530.35 Q315.621 1530.77 313.677 1531.65 L313.677 1514.29 Z" fill="#000000" fill-rule="nonzero" fill-opacity="1" /><path clip-path="url(#clip140)" d="M909.138 1544.91 L925.457 1544.91 L925.457 1548.85 L903.513 1548.85 L903.513 1544.91 Q906.175 1542.16 910.758 1537.53 Q915.364 1532.88 916.545 1531.53 Q918.79 1529.01 919.67 1527.27 Q920.573 1525.51 920.573 1523.82 Q920.573 1521.07 918.628 1519.33 Q916.707 1517.6 913.605 1517.6 Q911.406 1517.6 908.952 1518.36 Q906.522 1519.13 903.744 1520.68 L903.744 1515.95 Q906.568 1514.82 909.022 1514.24 Q911.476 1513.66 913.513 1513.66 Q918.883 1513.66 922.077 1516.35 Q925.272 1519.03 925.272 1523.52 Q925.272 1525.65 924.462 1527.57 Q923.675 1529.47 921.568 1532.07 Q920.989 1532.74 917.888 1535.95 Q914.786 1539.15 909.138 1544.91 Z" fill="#000000" fill-rule="nonzero" fill-opacity="1" /><path clip-path="url(#clip140)" d="M935.272 1542.97 L940.156 1542.97 L940.156 1548.85 L935.272 1548.85 L935.272 1542.97 Z" fill="#000000" fill-rule="nonzero" fill-opacity="1" /><path clip-path="url(#clip140)" d="M960.341 1517.37 Q956.73 1517.37 954.901 1520.93 Q953.096 1524.47 953.096 1531.6 Q953.096 1538.71 954.901 1542.27 Q956.73 1545.82 960.341 1545.82 Q963.975 1545.82 965.781 1542.27 Q967.609 1538.71 967.609 1531.6 Q967.609 1524.47 965.781 1520.93 Q963.975 1517.37 960.341 1517.37 M960.341 1513.66 Q966.151 1513.66 969.207 1518.27 Q972.285 1522.85 972.285 1531.6 Q972.285 1540.33 969.207 1544.94 Q966.151 1549.52 960.341 1549.52 Q954.531 1549.52 951.452 1544.94 Q948.397 1540.33 948.397 1531.6 Q948.397 1522.85 951.452 1518.27 Q954.531 1513.66 960.341 1513.66 Z" fill="#000000" fill-rule="nonzero" fill-opacity="1" /><path clip-path="url(#clip140)" d="M990.503 1517.37 Q986.892 1517.37 985.063 1520.93 Q983.258 1524.47 983.258 1531.6 Q983.258 1538.71 985.063 1542.27 Q986.892 1545.82 990.503 1545.82 Q994.137 1545.82 995.943 1542.27 Q997.771 1538.71 997.771 1531.6 Q997.771 1524.47 995.943 1520.93 Q994.137 1517.37 990.503 1517.37 M990.503 1513.66 Q996.313 1513.66 999.369 1518.27 Q1002.45 1522.85 1002.45 1531.6 Q1002.45 1540.33 999.369 1544.94 Q996.313 1549.52 990.503 1549.52 Q984.693 1549.52 981.614 1544.94 Q978.559 1540.33 978.559 1531.6 Q978.559 1522.85 981.614 1518.27 Q984.693 1513.66 990.503 1513.66 Z" fill="#000000" fill-rule="nonzero" fill-opacity="1" /><path clip-path="url(#clip140)" d="M1576.14 1544.91 L1592.46 1544.91 L1592.46 1548.85 L1570.51 1548.85 L1570.51 1544.91 Q1573.17 1542.16 1577.76 1537.53 Q1582.36 1532.88 1583.54 1531.53 Q1585.79 1529.01 1586.67 1527.27 Q1587.57 1525.51 1587.57 1523.82 Q1587.57 1521.07 1585.63 1519.33 Q1583.71 1517.6 1580.61 1517.6 Q1578.41 1517.6 1575.95 1518.36 Q1573.52 1519.13 1570.74 1520.68 L1570.74 1515.95 Q1573.57 1514.82 1576.02 1514.24 Q1578.48 1513.66 1580.51 1513.66 Q1585.88 1513.66 1589.08 1516.35 Q1592.27 1519.03 1592.27 1523.52 Q1592.27 1525.65 1591.46 1527.57 Q1590.67 1529.47 1588.57 1532.07 Q1587.99 1532.74 1584.89 1535.95 Q1581.79 1539.15 1576.14 1544.91 Z" fill="#000000" fill-rule="nonzero" fill-opacity="1" /><path clip-path="url(#clip140)" d="M1602.27 1542.97 L1607.16 1542.97 L1607.16 1548.85 L1602.27 1548.85 L1602.27 1542.97 Z" fill="#000000" fill-rule="nonzero" fill-opacity="1" /><path clip-path="url(#clip140)" d="M1627.34 1517.37 Q1623.73 1517.37 1621.9 1520.93 Q1620.1 1524.47 1620.1 1531.6 Q1620.1 1538.71 1621.9 1542.27 Q1623.73 1545.82 1627.34 1545.82 Q1630.98 1545.82 1632.78 1542.27 Q1634.61 1538.71 1634.61 1531.6 Q1634.61 1524.47 1632.78 1520.93 Q1630.98 1517.37 1627.34 1517.37 M1627.34 1513.66 Q1633.15 1513.66 1636.21 1518.27 Q1639.29 1522.85 1639.29 1531.6 Q1639.29 1540.33 1636.21 1544.94 Q1633.15 1549.52 1627.34 1549.52 Q1621.53 1549.52 1618.45 1544.94 Q1615.4 1540.33 1615.4 1531.6 Q1615.4 1522.85 1618.45 1518.27 Q1621.53 1513.66 1627.34 1513.66 Z" fill="#000000" fill-rule="nonzero" fill-opacity="1" /><path clip-path="url(#clip140)" d="M1647.55 1514.29 L1665.91 1514.29 L1665.91 1518.22 L1651.83 1518.22 L1651.83 1526.7 Q1652.85 1526.35 1653.87 1526.19 Q1654.89 1526 1655.91 1526 Q1661.69 1526 1665.07 1529.17 Q1668.45 1532.34 1668.45 1537.76 Q1668.45 1543.34 1664.98 1546.44 Q1661.51 1549.52 1655.19 1549.52 Q1653.01 1549.52 1650.74 1549.15 Q1648.5 1548.78 1646.09 1548.04 L1646.09 1543.34 Q1648.17 1544.47 1650.4 1545.03 Q1652.62 1545.58 1655.1 1545.58 Q1659.1 1545.58 1661.44 1543.48 Q1663.78 1541.37 1663.78 1537.76 Q1663.78 1534.15 1661.44 1532.04 Q1659.1 1529.94 1655.1 1529.94 Q1653.22 1529.94 1651.35 1530.35 Q1649.49 1530.77 1647.55 1531.65 L1647.55 1514.29 Z" fill="#000000" fill-rule="nonzero" fill-opacity="1" /><path clip-path="url(#clip140)" d="M2242.14 1544.91 L2258.46 1544.91 L2258.46 1548.85 L2236.52 1548.85 L2236.52 1544.91 Q2239.18 1542.16 2243.76 1537.53 Q2248.37 1532.88 2249.55 1531.53 Q2251.79 1529.01 2252.67 1527.27 Q2253.58 1525.51 2253.58 1523.82 Q2253.58 1521.07 2251.63 1519.33 Q2249.71 1517.6 2246.61 1517.6 Q2244.41 1517.6 2241.96 1518.36 Q2239.53 1519.13 2236.75 1520.68 L2236.75 1515.95 Q2239.57 1514.82 2242.03 1514.24 Q2244.48 1513.66 2246.52 1513.66 Q2251.89 1513.66 2255.08 1516.35 Q2258.28 1519.03 2258.28 1523.52 Q2258.28 1525.65 2257.47 1527.57 Q2256.68 1529.47 2254.57 1532.07 Q2253.99 1532.74 2250.89 1535.95 Q2247.79 1539.15 2242.14 1544.91 Z" fill="#000000" fill-rule="nonzero" fill-opacity="1" /><path clip-path="url(#clip140)" d="M2268.28 1542.97 L2273.16 1542.97 L2273.16 1548.85 L2268.28 1548.85 L2268.28 1542.97 Z" fill="#000000" fill-rule="nonzero" fill-opacity="1" /><path clip-path="url(#clip140)" d="M2284.16 1544.91 L2291.79 1544.91 L2291.79 1518.55 L2283.48 1520.21 L2283.48 1515.95 L2291.75 1514.29 L2296.42 1514.29 L2296.42 1544.91 L2304.06 1544.91 L2304.06 1548.85 L2284.16 1548.85 L2284.16 1544.91 Z" fill="#000000" fill-rule="nonzero" fill-opacity="1" /><path clip-path="url(#clip140)" d="M2323.51 1517.37 Q2319.9 1517.37 2318.07 1520.93 Q2316.26 1524.47 2316.26 1531.6 Q2316.26 1538.71 2318.07 1542.27 Q2319.9 1545.82 2323.51 1545.82 Q2327.14 1545.82 2328.95 1542.27 Q2330.78 1538.71 2330.78 1531.6 Q2330.78 1524.47 2328.95 1520.93 Q2327.14 1517.37 2323.51 1517.37 M2323.51 1513.66 Q2329.32 1513.66 2332.37 1518.27 Q2335.45 1522.85 2335.45 1531.6 Q2335.45 1540.33 2332.37 1544.94 Q2329.32 1549.52 2323.51 1549.52 Q2317.7 1549.52 2314.62 1544.94 Q2311.56 1540.33 2311.56 1531.6 Q2311.56 1522.85 2314.62 1518.27 Q2317.7 1513.66 2323.51 1513.66 Z" fill="#000000" fill-rule="nonzero" fill-opacity="1" /><polyline clip-path="url(#clip142)" style="stroke:#000000; stroke-linecap:round; stroke-linejoin:round; stroke-width:2; stroke-opacity:0.1; fill:none" points="140.696,1445.72 2352.76,1445.72 "/>
<polyline clip-path="url(#clip142)" style="stroke:#000000; stroke-linecap:round; stroke-linejoin:round; stroke-width:2; stroke-opacity:0.1; fill:none" points="140.696,1124.04 2352.76,1124.04 "/>
<polyline clip-path="url(#clip142)" style="stroke:#000000; stroke-linecap:round; stroke-linejoin:round; stroke-width:2; stroke-opacity:0.1; fill:none" points="140.696,802.37 2352.76,802.37 "/>
<polyline clip-path="url(#clip142)" style="stroke:#000000; stroke-linecap:round; stroke-linejoin:round; stroke-width:2; stroke-opacity:0.1; fill:none" points="140.696,480.698 2352.76,480.698 "/>
<polyline clip-path="url(#clip142)" style="stroke:#000000; stroke-linecap:round; stroke-linejoin:round; stroke-width:2; stroke-opacity:0.1; fill:none" points="140.696,159.025 2352.76,159.025 "/>
<polyline clip-path="url(#clip140)" style="stroke:#000000; stroke-linecap:round; stroke-linejoin:round; stroke-width:4; stroke-opacity:1; fill:none" points="140.696,1486.45 140.696,47.2441 "/>
<polyline clip-path="url(#clip140)" style="stroke:#000000; stroke-linecap:round; stroke-linejoin:round; stroke-width:4; stroke-opacity:1; fill:none" points="140.696,1445.72 159.593,1445.72 "/>
<polyline clip-path="url(#clip140)" style="stroke:#000000; stroke-linecap:round; stroke-linejoin:round; stroke-width:4; stroke-opacity:1; fill:none" points="140.696,1124.04 159.593,1124.04 "/>
<polyline clip-path="url(#clip140)" style="stroke:#000000; stroke-linecap:round; stroke-linejoin:round; stroke-width:4; stroke-opacity:1; fill:none" points="140.696,802.37 159.593,802.37 "/>
<polyline clip-path="url(#clip140)" style="stroke:#000000; stroke-linecap:round; stroke-linejoin:round; stroke-width:4; stroke-opacity:1; fill:none" points="140.696,480.698 159.593,480.698 "/>
<polyline clip-path="url(#clip140)" style="stroke:#000000; stroke-linecap:round; stroke-linejoin:round; stroke-width:4; stroke-opacity:1; fill:none" points="140.696,159.025 159.593,159.025 "/>
<path clip-path="url(#clip140)" d="M92.7512 1431.51 Q89.1401 1431.51 87.3114 1435.08 Q85.5058 1438.62 85.5058 1445.75 Q85.5058 1452.86 87.3114 1456.42 Q89.1401 1459.96 92.7512 1459.96 Q96.3854 1459.96 98.1909 1456.42 Q100.02 1452.86 100.02 1445.75 Q100.02 1438.62 98.1909 1435.08 Q96.3854 1431.51 92.7512 1431.51 M92.7512 1427.81 Q98.5613 1427.81 101.617 1432.42 Q104.696 1437 104.696 1445.75 Q104.696 1454.48 101.617 1459.08 Q98.5613 1463.67 92.7512 1463.67 Q86.941 1463.67 83.8623 1459.08 Q80.8068 1454.48 80.8068 1445.75 Q80.8068 1437 83.8623 1432.42 Q86.941 1427.81 92.7512 1427.81 Z" fill="#000000" fill-rule="nonzero" fill-opacity="1" /><path clip-path="url(#clip140)" d="M83.7929 1106.76 L102.149 1106.76 L102.149 1110.7 L88.0753 1110.7 L88.0753 1119.17 Q89.0938 1118.82 90.1123 1118.66 Q91.1308 1118.48 92.1493 1118.48 Q97.9363 1118.48 101.316 1121.65 Q104.696 1124.82 104.696 1130.24 Q104.696 1135.81 101.223 1138.92 Q97.7511 1141.99 91.4317 1141.99 Q89.2558 1141.99 86.9873 1141.62 Q84.7419 1141.25 82.3346 1140.51 L82.3346 1135.81 Q84.4179 1136.95 86.6401 1137.5 Q88.8623 1138.06 91.3391 1138.06 Q95.3437 1138.06 97.6817 1135.95 Q100.02 1133.85 100.02 1130.24 Q100.02 1126.62 97.6817 1124.52 Q95.3437 1122.41 91.3391 1122.41 Q89.4641 1122.41 87.5892 1122.83 Q85.7373 1123.24 83.7929 1124.12 L83.7929 1106.76 Z" fill="#000000" fill-rule="nonzero" fill-opacity="1" /><path clip-path="url(#clip140)" d="M53.3995 815.715 L61.0384 815.715 L61.0384 789.35 L52.7282 791.016 L52.7282 786.757 L60.9921 785.09 L65.668 785.09 L65.668 815.715 L73.3068 815.715 L73.3068 819.65 L53.3995 819.65 L53.3995 815.715 Z" fill="#000000" fill-rule="nonzero" fill-opacity="1" /><path clip-path="url(#clip140)" d="M92.7512 788.169 Q89.1401 788.169 87.3114 791.734 Q85.5058 795.275 85.5058 802.405 Q85.5058 809.512 87.3114 813.076 Q89.1401 816.618 92.7512 816.618 Q96.3854 816.618 98.1909 813.076 Q100.02 809.512 100.02 802.405 Q100.02 795.275 98.1909 791.734 Q96.3854 788.169 92.7512 788.169 M92.7512 784.465 Q98.5613 784.465 101.617 789.072 Q104.696 793.655 104.696 802.405 Q104.696 811.132 101.617 815.738 Q98.5613 820.322 92.7512 820.322 Q86.941 820.322 83.8623 815.738 Q80.8068 811.132 80.8068 802.405 Q80.8068 793.655 83.8623 789.072 Q86.941 784.465 92.7512 784.465 Z" fill="#000000" fill-rule="nonzero" fill-opacity="1" /><path clip-path="url(#clip140)" d="M54.3949 494.043 L62.0337 494.043 L62.0337 467.677 L53.7236 469.344 L53.7236 465.084 L61.9874 463.418 L66.6633 463.418 L66.6633 494.043 L74.3022 494.043 L74.3022 497.978 L54.3949 497.978 L54.3949 494.043 Z" fill="#000000" fill-rule="nonzero" fill-opacity="1" /><path clip-path="url(#clip140)" d="M83.7929 463.418 L102.149 463.418 L102.149 467.353 L88.0753 467.353 L88.0753 475.825 Q89.0938 475.478 90.1123 475.316 Q91.1308 475.131 92.1493 475.131 Q97.9363 475.131 101.316 478.302 Q104.696 481.473 104.696 486.89 Q104.696 492.468 101.223 495.57 Q97.7511 498.649 91.4317 498.649 Q89.2558 498.649 86.9873 498.279 Q84.7419 497.908 82.3346 497.167 L82.3346 492.468 Q84.4179 493.603 86.6401 494.158 Q88.8623 494.714 91.3391 494.714 Q95.3437 494.714 97.6817 492.607 Q100.02 490.501 100.02 486.89 Q100.02 483.279 97.6817 481.172 Q95.3437 479.066 91.3391 479.066 Q89.4641 479.066 87.5892 479.482 Q85.7373 479.899 83.7929 480.779 L83.7929 463.418 Z" fill="#000000" fill-rule="nonzero" fill-opacity="1" /><path clip-path="url(#clip140)" d="M56.6171 172.37 L72.9365 172.37 L72.9365 176.305 L50.9921 176.305 L50.9921 172.37 Q53.6541 169.615 58.2375 164.986 Q62.8439 160.333 64.0245 158.99 Q66.2698 156.467 67.1494 154.731 Q68.0522 152.972 68.0522 151.282 Q68.0522 148.527 66.1078 146.791 Q64.1865 145.055 61.0847 145.055 Q58.8856 145.055 56.4319 145.819 Q54.0014 146.583 51.2236 148.134 L51.2236 143.412 Q54.0477 142.277 56.5014 141.699 Q58.955 141.12 60.9921 141.12 Q66.3624 141.12 69.5568 143.805 Q72.7513 146.49 72.7513 150.981 Q72.7513 153.111 71.9411 155.032 Q71.1541 156.93 69.0476 159.523 Q68.4689 160.194 65.367 163.412 Q62.2652 166.606 56.6171 172.37 Z" fill="#000000" fill-rule="nonzero" fill-opacity="1" /><path clip-path="url(#clip140)" d="M92.7512 144.824 Q89.1401 144.824 87.3114 148.388 Q85.5058 151.93 85.5058 159.06 Q85.5058 166.166 87.3114 169.731 Q89.1401 173.273 92.7512 173.273 Q96.3854 173.273 98.1909 169.731 Q100.02 166.166 100.02 159.06 Q100.02 151.93 98.1909 148.388 Q96.3854 144.824 92.7512 144.824 M92.7512 141.12 Q98.5613 141.12 101.617 145.726 Q104.696 150.31 104.696 159.06 Q104.696 167.787 101.617 172.393 Q98.5613 176.976 92.7512 176.976 Q86.941 176.976 83.8623 172.393 Q80.8068 167.787 80.8068 159.06 Q80.8068 150.31 83.8623 145.726 Q86.941 141.12 92.7512 141.12 Z" fill="#000000" fill-rule="nonzero" fill-opacity="1" /><path clip-path="url(#clip142)" d="M203.301 1444.82 L209.816 1444.83 L216.331 1444.92 L222.847 1445.05 L229.362 1445.2 L235.877 1445.35 L242.392 1445.47 L248.908 1445.55 L255.423 1445.6 L261.938 1445.61 L268.453 1445.6 L274.969 1445.58 L281.484 1445.54 L287.999 1445.48 L294.514 1445.38 L301.03 1445.23 L307.545 1444.99 L314.06 1444.65 L320.575 1444.22 L327.091 1443.73 L333.606 1443.25 L340.121 1442.88 L346.636 1442.68 L353.151 1442.67 L359.667 1442.8 L366.182 1442.99 L372.697 1443.14 L379.212 1443.19 L385.728 1443.11 L392.243 1442.94 L398.758 1442.74 L405.273 1442.57 L411.789 1442.46 L418.304 1442.43 L424.819 1442.44 L431.334 1442.48 L437.85 1442.49 L444.365 1442.38 L450.88 1442.08 L457.395 1441.51 L463.911 1440.62 L470.426 1439.38 L476.941 1437.83 L483.456 1436.06 L489.971 1434.19 L496.487 1432.36 L503.002 1430.68 L509.517 1429.26 L516.032 1428.13 L522.548 1427.23 L529.063 1426.45 L535.578 1425.64 L542.093 1424.67 L548.609 1423.48 L555.124 1422.12 L561.639 1420.62 L568.154 1418.99 L574.67 1417.08 L581.185 1414.64 L587.7 1411.33 L594.215 1406.93 L600.731 1401.45 L607.246 1395.18 L613.761 1388.63 L620.276 1382.34 L626.791 1376.72 L633.307 1371.97 L639.822 1368.03 L646.337 1364.65 L652.852 1361.42 L659.368 1357.92 L665.883 1353.76 L672.398 1348.72 L678.913 1342.86 L685.429 1336.43 L691.944 1329.83 L698.459 1323.36 L704.974 1317.14 L711.49 1311.03 L718.005 1304.77 L724.52 1298.13 L731.035 1291.05 L737.551 1283.57 L744.066 1275.82 L750.581 1267.89 L757.096 1259.73 L763.611 1251.18 L770.127 1242.04 L776.642 1232.21 L783.157 1221.76 L789.672 1211 L796.188 1200.42 L802.703 1190.48 L809.218 1181.49 L815.733 1173.4 L822.249 1165.77 L828.764 1157.9 L835.279 1149.01 L841.794 1138.53 L848.31 1126.3 L848.31 1445.72 L841.794 1445.72 L835.279 1445.72 L828.764 1445.72 L822.249 1445.72 L815.733 1445.72 L809.218 1445.72 L802.703 1445.72 L796.188 1445.72 L789.672 1445.72 L783.157 1445.72 L776.642 1445.72 L770.127 1445.72 L763.611 1445.72 L757.096 1445.72 L750.581 1445.72 L744.066 1445.72 L737.551 1445.72 L731.035 1445.72 L724.52 1445.72 L718.005 1445.72 L711.49 1445.72 L704.974 1445.72 L698.459 1445.72 L691.944 1445.72 L685.429 1445.72 L678.913 1445.72 L672.398 1445.72 L665.883 1445.72 L659.368 1445.72 L652.852 1445.72 L646.337 1445.72 L639.822 1445.72 L633.307 1445.72 L626.791 1445.72 L620.276 1445.72 L613.761 1445.72 L607.246 1445.72 L600.731 1445.72 L594.215 1445.72 L587.7 1445.72 L581.185 1445.72 L574.67 1445.72 L568.154 1445.72 L561.639 1445.72 L555.124 1445.72 L548.609 1445.72 L542.093 1445.72 L535.578 1445.72 L529.063 1445.72 L522.548 1445.72 L516.032 1445.72 L509.517 1445.72 L503.002 1445.72 L496.487 1445.72 L489.971 1445.72 L483.456 1445.72 L476.941 1445.72 L470.426 1445.72 L463.911 1445.72 L457.395 1445.72 L450.88 1445.72 L444.365 1445.72 L437.85 1445.72 L431.334 1445.72 L424.819 1445.72 L418.304 1445.72 L411.789 1445.72 L405.273 1445.72 L398.758 1445.72 L392.243 1445.72 L385.728 1445.72 L379.212 1445.72 L372.697 1445.72 L366.182 1445.72 L359.667 1445.72 L353.151 1445.72 L346.636 1445.72 L340.121 1445.72 L333.606 1445.72 L327.091 1445.72 L320.575 1445.72 L314.06 1445.72 L307.545 1445.72 L301.03 1445.72 L294.514 1445.72 L287.999 1445.72 L281.484 1445.72 L274.969 1445.72 L268.453 1445.72 L261.938 1445.72 L255.423 1445.72 L248.908 1445.72 L242.392 1445.72 L235.877 1445.72 L229.362 1445.72 L222.847 1445.72 L216.331 1445.72 L209.816 1445.72 L203.301 1445.72  Z" fill="#ffa500" fill-rule="evenodd" fill-opacity="0.5"/>
<polyline clip-path="url(#clip142)" style="stroke:#ffa500; stroke-linecap:round; stroke-linejoin:round; stroke-width:4; stroke-opacity:1; fill:none" points="203.301,1444.82 209.816,1444.83 216.331,1444.92 222.847,1445.05 229.362,1445.2 235.877,1445.35 242.392,1445.47 248.908,1445.55 255.423,1445.6 261.938,1445.61 268.453,1445.6 274.969,1445.58 281.484,1445.54 287.999,1445.48 294.514,1445.38 301.03,1445.23 307.545,1444.99 314.06,1444.65 320.575,1444.22 327.091,1443.73 333.606,1443.25 340.121,1442.88 346.636,1442.68 353.151,1442.67 359.667,1442.8 366.182,1442.99 372.697,1443.14 379.212,1443.19 385.728,1443.11 392.243,1442.94 398.758,1442.74 405.273,1442.57 411.789,1442.46 418.304,1442.43 424.819,1442.44 431.334,1442.48 437.85,1442.49 444.365,1442.38 450.88,1442.08 457.395,1441.51 463.911,1440.62 470.426,1439.38 476.941,1437.83 483.456,1436.06 489.971,1434.19 496.487,1432.36 503.002,1430.68 509.517,1429.26 516.032,1428.13 522.548,1427.23 529.063,1426.45 535.578,1425.64 542.093,1424.67 548.609,1423.48 555.124,1422.12 561.639,1420.62 568.154,1418.99 574.67,1417.08 581.185,1414.64 587.7,1411.33 594.215,1406.93 600.731,1401.45 607.246,1395.18 613.761,1388.63 620.276,1382.34 626.791,1376.72 633.307,1371.97 639.822,1368.03 646.337,1364.65 652.852,1361.42 659.368,1357.92 665.883,1353.76 672.398,1348.72 678.913,1342.86 685.429,1336.43 691.944,1329.83 698.459,1323.36 704.974,1317.14 711.49,1311.03 718.005,1304.77 724.52,1298.13 731.035,1291.05 737.551,1283.57 744.066,1275.82 750.581,1267.89 757.096,1259.73 763.611,1251.18 770.127,1242.04 776.642,1232.21 783.157,1221.76 789.672,1211 796.188,1200.42 802.703,1190.48 809.218,1181.49 815.733,1173.4 822.249,1165.77 828.764,1157.9 835.279,1149.01 841.794,1138.53 848.31,1126.3 "/>
<path clip-path="url(#clip142)" d="M848.31 1126.3 L856.802 1108.44 L865.295 1090.14 L873.787 1073.23 L882.28 1058.23 L890.773 1043.94 L899.265 1028.24 L907.758 1009.52 L916.251 987.526 L924.743 962.948 L933.236 936.249 L941.729 906.948 L950.221 874.177 L958.714 838.038 L967.206 800.338 L975.699 763.795 L984.192 730.292 L992.684 699.77 L1001.18 670.699 L1009.67 641.538 L1018.16 611.793 L1026.65 581.922 L1035.15 552.503 L1043.64 523.558 L1052.13 494.524 L1060.63 464.686 L1069.12 433.574 L1077.61 401.14 L1086.1 367.948 L1094.6 335.444 L1103.09 305.911 L1111.58 281.587 L1120.07 263.214 L1128.57 249.078 L1137.06 235.511 L1145.55 218.74 L1154.04 197.056 L1162.54 172.094 L1171.03 148.525 L1179.52 132.134 L1188.01 127.025 L1196.51 133.259 L1205 146.308 L1213.49 158.8 L1221.99 163.787 L1230.48 157.828 L1238.97 142.359 L1247.46 122.741 L1255.96 105.563 L1264.45 95.5946 L1272.94 93.8893 L1281.43 97.9211 L1289.93 103.433 L1298.42 106.709 L1306.91 105.974 L1315.4 101.558 L1323.9 95.3001 L1332.39 89.8292 L1340.88 87.9763 L1349.38 92.1679 L1357.87 103.714 L1366.36 122.336 L1374.85 146.425 L1383.35 173.94 L1391.84 203.113 L1400.33 232.432 L1408.82 260.4 L1417.32 285.92 L1425.81 309.257 L1434.3 332.464 L1442.79 358.414 L1451.29 388.997 L1459.78 423.894 L1468.27 460.911 L1476.76 497.463 L1485.26 532.065 L1493.75 564.855 L1502.24 597.042 L1510.74 629.816 L1519.23 663.569 L1527.72 697.879 L1536.21 732.066 L1544.71 765.57 L1553.2 797.717 L1561.69 827.258 L1570.18 852.556 L1578.68 872.622 L1587.17 888.148 L1595.66 901.474 L1604.15 915.404 L1612.65 931.859 L1621.14 951.356 L1629.63 973.38 L1638.12 996.99 L1646.62 1021.06 L1655.11 1044.28 L1663.6 1065.25 L1672.1 1083.06 L1680.59 1097.74 L1689.08 1110.4 L1689.08 1445.72 L1680.59 1445.72 L1672.1 1445.72 L1663.6 1445.72 L1655.11 1445.72 L1646.62 1445.72 L1638.12 1445.72 L1629.63 1445.72 L1621.14 1445.72 L1612.65 1445.72 L1604.15 1445.72 L1595.66 1445.72 L1587.17 1445.72 L1578.68 1445.72 L1570.18 1445.72 L1561.69 1445.72 L1553.2 1445.72 L1544.71 1445.72 L1536.21 1445.72 L1527.72 1445.72 L1519.23 1445.72 L1510.74 1445.72 L1502.24 1445.72 L1493.75 1445.72 L1485.26 1445.72 L1476.76 1445.72 L1468.27 1445.72 L1459.78 1445.72 L1451.29 1445.72 L1442.79 1445.72 L1434.3 1445.72 L1425.81 1445.72 L1417.32 1445.72 L1408.82 1445.72 L1400.33 1445.72 L1391.84 1445.72 L1383.35 1445.72 L1374.85 1445.72 L1366.36 1445.72 L1357.87 1445.72 L1349.38 1445.72 L1340.88 1445.72 L1332.39 1445.72 L1323.9 1445.72 L1315.4 1445.72 L1306.91 1445.72 L1298.42 1445.72 L1289.93 1445.72 L1281.43 1445.72 L1272.94 1445.72 L1264.45 1445.72 L1255.96 1445.72 L1247.46 1445.72 L1238.97 1445.72 L1230.48 1445.72 L1221.99 1445.72 L1213.49 1445.72 L1205 1445.72 L1196.51 1445.72 L1188.01 1445.72 L1179.52 1445.72 L1171.03 1445.72 L1162.54 1445.72 L1154.04 1445.72 L1145.55 1445.72 L1137.06 1445.72 L1128.57 1445.72 L1120.07 1445.72 L1111.58 1445.72 L1103.09 1445.72 L1094.6 1445.72 L1086.1 1445.72 L1077.61 1445.72 L1069.12 1445.72 L1060.63 1445.72 L1052.13 1445.72 L1043.64 1445.72 L1035.15 1445.72 L1026.65 1445.72 L1018.16 1445.72 L1009.67 1445.72 L1001.18 1445.72 L992.684 1445.72 L984.192 1445.72 L975.699 1445.72 L967.206 1445.72 L958.714 1445.72 L950.221 1445.72 L941.729 1445.72 L933.236 1445.72 L924.743 1445.72 L916.251 1445.72 L907.758 1445.72 L899.265 1445.72 L890.773 1445.72 L882.28 1445.72 L873.787 1445.72 L865.295 1445.72 L856.802 1445.72 L848.31 1445.72  Z" fill="#008000" fill-rule="evenodd" fill-opacity="0.5"/>
<polyline clip-path="url(#clip142)" style="stroke:#008000; stroke-linecap:round; stroke-linejoin:round; stroke-width:4; stroke-opacity:1; fill:none" points="848.31,1126.3 856.802,1108.44 865.295,1090.14 873.787,1073.23 882.28,1058.23 890.773,1043.94 899.265,1028.24 907.758,1009.52 916.251,987.526 924.743,962.948 933.236,936.249 941.729,906.948 950.221,874.177 958.714,838.038 967.206,800.338 975.699,763.795 984.192,730.292 992.684,699.77 1001.18,670.699 1009.67,641.538 1018.16,611.793 1026.65,581.922 1035.15,552.503 1043.64,523.558 1052.13,494.524 1060.63,464.686 1069.12,433.574 1077.61,401.14 1086.1,367.948 1094.6,335.444 1103.09,305.911 1111.58,281.587 1120.07,263.214 1128.57,249.078 1137.06,235.511 1145.55,218.74 1154.04,197.056 1162.54,172.094 1171.03,148.525 1179.52,132.134 1188.01,127.025 1196.51,133.259 1205,146.308 1213.49,158.8 1221.99,163.787 1230.48,157.828 1238.97,142.359 1247.46,122.741 1255.96,105.563 1264.45,95.5946 1272.94,93.8893 1281.43,97.9211 1289.93,103.433 1298.42,106.709 1306.91,105.974 1315.4,101.558 1323.9,95.3001 1332.39,89.8292 1340.88,87.9763 1349.38,92.1679 1357.87,103.714 1366.36,122.336 1374.85,146.425 1383.35,173.94 1391.84,203.113 1400.33,232.432 1408.82,260.4 1417.32,285.92 1425.81,309.257 1434.3,332.464 1442.79,358.414 1451.29,388.997 1459.78,423.894 1468.27,460.911 1476.76,497.463 1485.26,532.065 1493.75,564.855 1502.24,597.042 1510.74,629.816 1519.23,663.569 1527.72,697.879 1536.21,732.066 1544.71,765.57 1553.2,797.717 1561.69,827.258 1570.18,852.556 1578.68,872.622 1587.17,888.148 1595.66,901.474 1604.15,915.404 1612.65,931.859 1621.14,951.356 1629.63,973.38 1638.12,996.99 1646.62,1021.06 1655.11,1044.28 1663.6,1065.25 1672.1,1083.06 1680.59,1097.74 1689.08,1110.4 "/>
<path clip-path="url(#clip142)" d="M1689.08 1110.4 L1695.15 1119.15 L1701.22 1128.3 L1707.29 1138.26 L1713.37 1149.15 L1719.44 1160.92 L1725.51 1173.38 L1731.58 1186.34 L1737.65 1199.63 L1743.72 1213.09 L1749.79 1226.55 L1755.87 1239.76 L1761.94 1252.41 L1768.01 1264.21 L1774.08 1274.84 L1780.15 1284.08 L1786.22 1291.77 L1792.29 1297.85 L1798.37 1302.39 L1804.44 1305.65 L1810.51 1307.99 L1816.58 1309.92 L1822.65 1311.93 L1828.72 1314.45 L1834.79 1317.74 L1840.87 1321.92 L1846.94 1327.02 L1853.01 1332.99 L1859.08 1339.73 L1865.15 1347.09 L1871.22 1354.84 L1877.29 1362.63 L1883.37 1370.08 L1889.44 1376.85 L1895.51 1382.74 L1901.58 1387.69 L1907.65 1391.81 L1913.72 1395.27 L1919.79 1398.24 L1925.87 1400.83 L1931.94 1403.1 L1938.01 1405.06 L1944.08 1406.74 L1950.15 1408.2 L1956.22 1409.53 L1962.29 1410.83 L1968.37 1412.19 L1974.44 1413.62 L1980.51 1415.09 L1986.58 1416.55 L1992.65 1417.99 L1998.72 1419.4 L2004.79 1420.85 L2010.87 1422.38 L2016.94 1423.99 L2023.01 1425.67 L2029.08 1427.33 L2035.15 1428.91 L2041.22 1430.33 L2047.29 1431.56 L2053.37 1432.61 L2059.44 1433.47 L2065.51 1434.15 L2071.58 1434.65 L2077.65 1435 L2083.72 1435.19 L2089.79 1435.26 L2095.87 1435.24 L2101.94 1435.16 L2108.01 1435.03 L2114.08 1434.87 L2120.15 1434.7 L2126.22 1434.57 L2132.29 1434.54 L2138.37 1434.67 L2144.44 1435 L2150.51 1435.55 L2156.58 1436.29 L2162.65 1437.16 L2168.72 1438.07 L2174.79 1438.97 L2180.86 1439.81 L2186.94 1440.59 L2193.01 1441.31 L2199.08 1442 L2205.15 1442.66 L2211.22 1443.28 L2217.29 1443.84 L2223.36 1444.3 L2229.44 1444.66 L2235.51 1444.89 L2241.58 1445.02 L2247.65 1445.05 L2253.72 1445.01 L2259.79 1444.91 L2265.86 1444.79 L2271.94 1444.67 L2278.01 1444.56 L2284.08 1444.51 L2290.15 1444.52 L2290.15 1445.72 L2284.08 1445.72 L2278.01 1445.72 L2271.94 1445.72 L2265.86 1445.72 L2259.79 1445.72 L2253.72 1445.72 L2247.65 1445.72 L2241.58 1445.72 L2235.51 1445.72 L2229.44 1445.72 L2223.36 1445.72 L2217.29 1445.72 L2211.22 1445.72 L2205.15 1445.72 L2199.08 1445.72 L2193.01 1445.72 L2186.94 1445.72 L2180.86 1445.72 L2174.79 1445.72 L2168.72 1445.72 L2162.65 1445.72 L2156.58 1445.72 L2150.51 1445.72 L2144.44 1445.72 L2138.37 1445.72 L2132.29 1445.72 L2126.22 1445.72 L2120.15 1445.72 L2114.08 1445.72 L2108.01 1445.72 L2101.94 1445.72 L2095.87 1445.72 L2089.79 1445.72 L2083.72 1445.72 L2077.65 1445.72 L2071.58 1445.72 L2065.51 1445.72 L2059.44 1445.72 L2053.37 1445.72 L2047.29 1445.72 L2041.22 1445.72 L2035.15 1445.72 L2029.08 1445.72 L2023.01 1445.72 L2016.94 1445.72 L2010.87 1445.72 L2004.79 1445.72 L1998.72 1445.72 L1992.65 1445.72 L1986.58 1445.72 L1980.51 1445.72 L1974.44 1445.72 L1968.37 1445.72 L1962.29 1445.72 L1956.22 1445.72 L1950.15 1445.72 L1944.08 1445.72 L1938.01 1445.72 L1931.94 1445.72 L1925.87 1445.72 L1919.79 1445.72 L1913.72 1445.72 L1907.65 1445.72 L1901.58 1445.72 L1895.51 1445.72 L1889.44 1445.72 L1883.37 1445.72 L1877.29 1445.72 L1871.22 1445.72 L1865.15 1445.72 L1859.08 1445.72 L1853.01 1445.72 L1846.94 1445.72 L1840.87 1445.72 L1834.79 1445.72 L1828.72 1445.72 L1822.65 1445.72 L1816.58 1445.72 L1810.51 1445.72 L1804.44 1445.72 L1798.37 1445.72 L1792.29 1445.72 L1786.22 1445.72 L1780.15 1445.72 L1774.08 1445.72 L1768.01 1445.72 L1761.94 1445.72 L1755.87 1445.72 L1749.79 1445.72 L1743.72 1445.72 L1737.65 1445.72 L1731.58 1445.72 L1725.51 1445.72 L1719.44 1445.72 L1713.37 1445.72 L1707.29 1445.72 L1701.22 1445.72 L1695.15 1445.72 L1689.08 1445.72  Z" fill="#ffa500" fill-rule="evenodd" fill-opacity="0.5"/>
<polyline clip-path="url(#clip142)" style="stroke:#ffa500; stroke-linecap:round; stroke-linejoin:round; stroke-width:4; stroke-opacity:1; fill:none" points="1689.08,1110.4 1695.15,1119.15 1701.22,1128.3 1707.29,1138.26 1713.37,1149.15 1719.44,1160.92 1725.51,1173.38 1731.58,1186.34 1737.65,1199.63 1743.72,1213.09 1749.79,1226.55 1755.87,1239.76 1761.94,1252.41 1768.01,1264.21 1774.08,1274.84 1780.15,1284.08 1786.22,1291.77 1792.29,1297.85 1798.37,1302.39 1804.44,1305.65 1810.51,1307.99 1816.58,1309.92 1822.65,1311.93 1828.72,1314.45 1834.79,1317.74 1840.87,1321.92 1846.94,1327.02 1853.01,1332.99 1859.08,1339.73 1865.15,1347.09 1871.22,1354.84 1877.29,1362.63 1883.37,1370.08 1889.44,1376.85 1895.51,1382.74 1901.58,1387.69 1907.65,1391.81 1913.72,1395.27 1919.79,1398.24 1925.87,1400.83 1931.94,1403.1 1938.01,1405.06 1944.08,1406.74 1950.15,1408.2 1956.22,1409.53 1962.29,1410.83 1968.37,1412.19 1974.44,1413.62 1980.51,1415.09 1986.58,1416.55 1992.65,1417.99 1998.72,1419.4 2004.79,1420.85 2010.87,1422.38 2016.94,1423.99 2023.01,1425.67 2029.08,1427.33 2035.15,1428.91 2041.22,1430.33 2047.29,1431.56 2053.37,1432.61 2059.44,1433.47 2065.51,1434.15 2071.58,1434.65 2077.65,1435 2083.72,1435.19 2089.79,1435.26 2095.87,1435.24 2101.94,1435.16 2108.01,1435.03 2114.08,1434.87 2120.15,1434.7 2126.22,1434.57 2132.29,1434.54 2138.37,1434.67 2144.44,1435 2150.51,1435.55 2156.58,1436.29 2162.65,1437.16 2168.72,1438.07 2174.79,1438.97 2180.86,1439.81 2186.94,1440.59 2193.01,1441.31 2199.08,1442 2205.15,1442.66 2211.22,1443.28 2217.29,1443.84 2223.36,1444.3 2229.44,1444.66 2235.51,1444.89 2241.58,1445.02 2247.65,1445.05 2253.72,1445.01 2259.79,1444.91 2265.86,1444.79 2271.94,1444.67 2278.01,1444.56 2284.08,1444.51 2290.15,1444.52 "/>
<polyline clip-path="url(#clip142)" style="stroke:#0000ff; stroke-linecap:round; stroke-linejoin:round; stroke-width:4; stroke-opacity:1; fill:none" points="1268.02,1445.72 1268.02,93.9484 "/>
<polyline clip-path="url(#clip142)" style="stroke:#000000; stroke-linecap:round; stroke-linejoin:round; stroke-width:4; stroke-opacity:1; fill:none" points="1267.73,1445.72 1267.73,94.0292 "/>
<path clip-path="url(#clip140)" d="M1466.36 406.258 L2279.02 406.258 L2279.02 95.2176 L1466.36 95.2176  Z" fill="#ffffff" fill-rule="evenodd" fill-opacity="1"/>
<polyline clip-path="url(#clip140)" style="stroke:#000000; stroke-linecap:round; stroke-linejoin:round; stroke-width:4; stroke-opacity:1; fill:none" points="1466.36,406.258 2279.02,406.258 2279.02,95.2176 1466.36,95.2176 1466.36,406.258 "/>
<path clip-path="url(#clip140)" d="M1490.94 167.794 L1638.41 167.794 L1638.41 126.322 L1490.94 126.322 L1490.94 167.794  Z" fill="#ffa500" fill-rule="evenodd" fill-opacity="0.5"/>
<polyline clip-path="url(#clip140)" style="stroke:#ffa500; stroke-linecap:round; stroke-linejoin:round; stroke-width:4; stroke-opacity:1; fill:none" points="1490.94,126.322 1638.41,126.322 "/>
<path clip-path="url(#clip140)" d="M1667.39 151.398 Q1667.39 156.097 1669.31 158.782 Q1671.25 161.444 1674.63 161.444 Q1678.01 161.444 1679.95 158.782 Q1681.9 156.097 1681.9 151.398 Q1681.9 146.699 1679.95 144.037 Q1678.01 141.352 1674.63 141.352 Q1671.25 141.352 1669.31 144.037 Q1667.39 146.699 1667.39 151.398 M1681.9 160.449 Q1680.56 162.763 1678.5 163.898 Q1676.46 165.009 1673.59 165.009 Q1668.89 165.009 1665.93 161.259 Q1662.99 157.509 1662.99 151.398 Q1662.99 145.287 1665.93 141.537 Q1668.89 137.787 1673.59 137.787 Q1676.46 137.787 1678.5 138.921 Q1680.56 140.032 1681.9 142.347 L1681.9 138.412 L1686.16 138.412 L1686.16 174.199 L1681.9 174.199 L1681.9 160.449 Z" fill="#000000" fill-rule="nonzero" fill-opacity="1" /><path clip-path="url(#clip140)" d="M1705.53 132.856 Q1701.92 132.856 1700.09 136.421 Q1698.29 139.963 1698.29 147.092 Q1698.29 154.199 1700.09 157.764 Q1701.92 161.305 1705.53 161.305 Q1709.17 161.305 1710.97 157.764 Q1712.8 154.199 1712.8 147.092 Q1712.8 139.963 1710.97 136.421 Q1709.17 132.856 1705.53 132.856 M1705.53 129.153 Q1711.34 129.153 1714.4 133.759 Q1717.48 138.342 1717.48 147.092 Q1717.48 155.819 1714.4 160.426 Q1711.34 165.009 1705.53 165.009 Q1699.72 165.009 1696.64 160.426 Q1693.59 155.819 1693.59 147.092 Q1693.59 138.342 1696.64 133.759 Q1699.72 129.153 1705.53 129.153 Z" fill="#000000" fill-rule="nonzero" fill-opacity="1" /><path clip-path="url(#clip140)" d="M1725.74 129.778 L1744.1 129.778 L1744.1 133.713 L1730.02 133.713 L1730.02 142.185 Q1731.04 141.838 1732.06 141.676 Q1733.08 141.49 1734.1 141.49 Q1739.88 141.49 1743.26 144.662 Q1746.64 147.833 1746.64 153.25 Q1746.64 158.828 1743.17 161.93 Q1739.7 165.009 1733.38 165.009 Q1731.2 165.009 1728.94 164.638 Q1726.69 164.268 1724.28 163.527 L1724.28 158.828 Q1726.37 159.963 1728.59 160.518 Q1730.81 161.074 1733.29 161.074 Q1737.29 161.074 1739.63 158.967 Q1741.97 156.861 1741.97 153.25 Q1741.97 149.639 1739.63 147.532 Q1737.29 145.426 1733.29 145.426 Q1731.41 145.426 1729.54 145.842 Q1727.69 146.259 1725.74 147.139 L1725.74 129.778 Z" fill="#000000" fill-rule="nonzero" fill-opacity="1" /><path clip-path="url(#clip140)" d="M1490.94 219.634 L1638.41 219.634 L1638.41 178.162 L1490.94 178.162 L1490.94 219.634  Z" fill="#008000" fill-rule="evenodd" fill-opacity="0.5"/>
<polyline clip-path="url(#clip140)" style="stroke:#008000; stroke-linecap:round; stroke-linejoin:round; stroke-width:4; stroke-opacity:1; fill:none" points="1490.94,178.162 1638.41,178.162 "/>
<path clip-path="url(#clip140)" d="M1665.21 215.46 L1665.21 211.201 Q1666.97 212.034 1668.77 212.474 Q1670.58 212.914 1672.32 212.914 Q1676.95 212.914 1679.38 209.812 Q1681.83 206.687 1682.18 200.344 Q1680.83 202.335 1678.77 203.4 Q1676.71 204.465 1674.21 204.465 Q1669.03 204.465 1666 201.34 Q1662.99 198.192 1662.99 192.752 Q1662.99 187.428 1666.14 184.21 Q1669.28 180.993 1674.51 180.993 Q1680.51 180.993 1683.66 185.599 Q1686.83 190.182 1686.83 198.932 Q1686.83 207.104 1682.94 211.988 Q1679.07 216.849 1672.52 216.849 Q1670.76 216.849 1668.96 216.502 Q1667.15 216.154 1665.21 215.46 M1674.51 200.807 Q1677.66 200.807 1679.49 198.654 Q1681.34 196.502 1681.34 192.752 Q1681.34 189.025 1679.49 186.872 Q1677.66 184.696 1674.51 184.696 Q1671.37 184.696 1669.51 186.872 Q1667.69 189.025 1667.69 192.752 Q1667.69 196.502 1669.51 198.654 Q1671.37 200.807 1674.51 200.807 Z" fill="#000000" fill-rule="nonzero" fill-opacity="1" /><path clip-path="url(#clip140)" d="M1705.23 184.696 Q1701.62 184.696 1699.79 188.261 Q1697.99 191.803 1697.99 198.932 Q1697.99 206.039 1699.79 209.604 Q1701.62 213.145 1705.23 213.145 Q1708.87 213.145 1710.67 209.604 Q1712.5 206.039 1712.5 198.932 Q1712.5 191.803 1710.67 188.261 Q1708.87 184.696 1705.23 184.696 M1705.23 180.993 Q1711.04 180.993 1714.1 185.599 Q1717.18 190.182 1717.18 198.932 Q1717.18 207.659 1714.1 212.266 Q1711.04 216.849 1705.23 216.849 Q1699.42 216.849 1696.34 212.266 Q1693.29 207.659 1693.29 198.932 Q1693.29 190.182 1696.34 185.599 Q1699.42 180.993 1705.23 180.993 Z" fill="#000000" fill-rule="nonzero" fill-opacity="1" /><path clip-path="url(#clip140)" d="M1754.79 200.969 Q1752.78 200.969 1751.62 202.682 Q1750.49 204.395 1750.49 207.451 Q1750.49 210.46 1751.62 212.196 Q1752.78 213.909 1754.79 213.909 Q1756.76 213.909 1757.89 212.196 Q1759.05 210.46 1759.05 207.451 Q1759.05 204.418 1757.89 202.705 Q1756.76 200.969 1754.79 200.969 M1754.79 198.03 Q1758.45 198.03 1760.6 200.576 Q1762.75 203.122 1762.75 207.451 Q1762.75 211.779 1760.58 214.326 Q1758.43 216.849 1754.79 216.849 Q1751.09 216.849 1748.94 214.326 Q1746.78 211.779 1746.78 207.451 Q1746.78 203.099 1748.94 200.576 Q1751.11 198.03 1754.79 198.03 M1730.9 183.932 Q1728.91 183.932 1727.76 185.668 Q1726.62 187.381 1726.62 190.391 Q1726.62 193.446 1727.76 195.159 Q1728.89 196.872 1730.9 196.872 Q1732.92 196.872 1734.05 195.159 Q1735.21 193.446 1735.21 190.391 Q1735.21 187.405 1734.05 185.668 Q1732.89 183.932 1730.9 183.932 M1751.81 180.993 L1755.51 180.993 L1733.89 216.849 L1730.19 216.849 L1751.81 180.993 M1730.9 180.993 Q1734.56 180.993 1736.74 183.539 Q1738.91 186.062 1738.91 190.391 Q1738.91 194.766 1736.74 197.289 Q1734.58 199.812 1730.9 199.812 Q1727.22 199.812 1725.07 197.289 Q1722.94 194.742 1722.94 190.391 Q1722.94 186.085 1725.09 183.539 Q1727.25 180.993 1730.9 180.993 Z" fill="#000000" fill-rule="nonzero" fill-opacity="1" /><path clip-path="url(#clip140)" d="M1806.46 200.529 L1806.46 216.178 L1802.2 216.178 L1802.2 200.668 Q1802.2 196.988 1800.76 195.159 Q1799.33 193.33 1796.46 193.33 Q1793.01 193.33 1791.02 195.53 Q1789.03 197.729 1789.03 201.525 L1789.03 216.178 L1784.75 216.178 L1784.75 190.252 L1789.03 190.252 L1789.03 194.28 Q1790.56 191.942 1792.62 190.784 Q1794.7 189.627 1797.41 189.627 Q1801.88 189.627 1804.17 192.405 Q1806.46 195.159 1806.46 200.529 Z" fill="#000000" fill-rule="nonzero" fill-opacity="1" /><path clip-path="url(#clip140)" d="M1825 193.238 Q1821.57 193.238 1819.58 195.923 Q1817.59 198.585 1817.59 203.238 Q1817.59 207.891 1819.56 210.576 Q1821.55 213.238 1825 213.238 Q1828.4 213.238 1830.39 210.553 Q1832.38 207.867 1832.38 203.238 Q1832.38 198.631 1830.39 195.946 Q1828.4 193.238 1825 193.238 M1825 189.627 Q1830.56 189.627 1833.73 193.238 Q1836.9 196.849 1836.9 203.238 Q1836.9 209.604 1833.73 213.238 Q1830.56 216.849 1825 216.849 Q1819.42 216.849 1816.25 213.238 Q1813.1 209.604 1813.1 203.238 Q1813.1 196.849 1816.25 193.238 Q1819.42 189.627 1825 189.627 Z" fill="#000000" fill-rule="nonzero" fill-opacity="1" /><path clip-path="url(#clip140)" d="M1865.51 200.529 L1865.51 216.178 L1861.25 216.178 L1861.25 200.668 Q1861.25 196.988 1859.81 195.159 Q1858.38 193.33 1855.51 193.33 Q1852.06 193.33 1850.07 195.53 Q1848.08 197.729 1848.08 201.525 L1848.08 216.178 L1843.8 216.178 L1843.8 190.252 L1848.08 190.252 L1848.08 194.28 Q1849.61 191.942 1851.67 190.784 Q1853.75 189.627 1856.46 189.627 Q1860.93 189.627 1863.22 192.405 Q1865.51 195.159 1865.51 200.529 Z" fill="#000000" fill-rule="nonzero" fill-opacity="1" /><path clip-path="url(#clip140)" d="M1871.85 201.293 L1884.33 201.293 L1884.33 205.09 L1871.85 205.09 L1871.85 201.293 Z" fill="#000000" fill-rule="nonzero" fill-opacity="1" /><path clip-path="url(#clip140)" d="M1906.13 194.233 Q1905.42 193.817 1904.56 193.631 Q1903.73 193.423 1902.71 193.423 Q1899.1 193.423 1897.15 195.784 Q1895.23 198.122 1895.23 202.52 L1895.23 216.178 L1890.95 216.178 L1890.95 190.252 L1895.23 190.252 L1895.23 194.28 Q1896.57 191.918 1898.73 190.784 Q1900.88 189.627 1903.96 189.627 Q1904.4 189.627 1904.93 189.696 Q1905.46 189.743 1906.11 189.858 L1906.13 194.233 Z" fill="#000000" fill-rule="nonzero" fill-opacity="1" /><path clip-path="url(#clip140)" d="M1931.74 202.15 L1931.74 204.233 L1912.15 204.233 Q1912.43 208.631 1914.79 210.946 Q1917.18 213.238 1921.41 213.238 Q1923.87 213.238 1926.16 212.636 Q1928.47 212.034 1930.74 210.83 L1930.74 214.858 Q1928.45 215.83 1926.04 216.34 Q1923.63 216.849 1921.16 216.849 Q1914.95 216.849 1911.32 213.238 Q1907.71 209.627 1907.71 203.469 Q1907.71 197.104 1911.13 193.377 Q1914.58 189.627 1920.42 189.627 Q1925.65 189.627 1928.68 193.006 Q1931.74 196.363 1931.74 202.15 M1927.48 200.9 Q1927.43 197.405 1925.51 195.321 Q1923.61 193.238 1920.46 193.238 Q1916.9 193.238 1914.74 195.252 Q1912.62 197.266 1912.29 200.923 L1927.48 200.9 Z" fill="#000000" fill-rule="nonzero" fill-opacity="1" /><path clip-path="url(#clip140)" d="M1938.73 190.252 L1942.99 190.252 L1942.99 216.641 Q1942.99 221.594 1941.09 223.816 Q1939.21 226.039 1935.02 226.039 L1933.4 226.039 L1933.4 222.428 L1934.54 222.428 Q1936.97 222.428 1937.85 221.293 Q1938.73 220.182 1938.73 216.641 L1938.73 190.252 M1938.73 180.159 L1942.99 180.159 L1942.99 185.553 L1938.73 185.553 L1938.73 180.159 Z" fill="#000000" fill-rule="nonzero" fill-opacity="1" /><path clip-path="url(#clip140)" d="M1974.07 202.15 L1974.07 204.233 L1954.49 204.233 Q1954.77 208.631 1957.13 210.946 Q1959.51 213.238 1963.75 213.238 Q1966.2 213.238 1968.49 212.636 Q1970.81 212.034 1973.08 210.83 L1973.08 214.858 Q1970.79 215.83 1968.38 216.34 Q1965.97 216.849 1963.49 216.849 Q1957.29 216.849 1953.66 213.238 Q1950.05 209.627 1950.05 203.469 Q1950.05 197.104 1953.47 193.377 Q1956.92 189.627 1962.75 189.627 Q1967.99 189.627 1971.02 193.006 Q1974.07 196.363 1974.07 202.15 M1969.81 200.9 Q1969.77 197.405 1967.85 195.321 Q1965.95 193.238 1962.8 193.238 Q1959.24 193.238 1957.08 195.252 Q1954.95 197.266 1954.63 200.923 L1969.81 200.9 Z" fill="#000000" fill-rule="nonzero" fill-opacity="1" /><path clip-path="url(#clip140)" d="M1999.72 191.247 L1999.72 195.229 Q1997.92 194.233 1996.09 193.747 Q1994.28 193.238 1992.43 193.238 Q1988.29 193.238 1985.99 195.877 Q1983.7 198.492 1983.7 203.238 Q1983.7 207.983 1985.99 210.622 Q1988.29 213.238 1992.43 213.238 Q1994.28 213.238 1996.09 212.752 Q1997.92 212.242 1999.72 211.247 L1999.72 215.182 Q1997.94 216.016 1996.02 216.432 Q1994.12 216.849 1991.97 216.849 Q1986.11 216.849 1982.66 213.168 Q1979.21 209.488 1979.21 203.238 Q1979.21 196.895 1982.68 193.261 Q1986.18 189.627 1992.24 189.627 Q1994.21 189.627 1996.09 190.043 Q1997.96 190.437 1999.72 191.247 Z" fill="#000000" fill-rule="nonzero" fill-opacity="1" /><path clip-path="url(#clip140)" d="M2011.34 182.891 L2011.34 190.252 L2020.11 190.252 L2020.11 193.562 L2011.34 193.562 L2011.34 207.636 Q2011.34 210.807 2012.2 211.71 Q2013.08 212.613 2015.74 212.613 L2020.11 212.613 L2020.11 216.178 L2015.74 216.178 Q2010.81 216.178 2008.93 214.349 Q2007.06 212.497 2007.06 207.636 L2007.06 193.562 L2003.93 193.562 L2003.93 190.252 L2007.06 190.252 L2007.06 182.891 L2011.34 182.891 Z" fill="#000000" fill-rule="nonzero" fill-opacity="1" /><path clip-path="url(#clip140)" d="M2025.72 190.252 L2029.98 190.252 L2029.98 216.178 L2025.72 216.178 L2025.72 190.252 M2025.72 180.159 L2029.98 180.159 L2029.98 185.553 L2025.72 185.553 L2025.72 180.159 Z" fill="#000000" fill-rule="nonzero" fill-opacity="1" /><path clip-path="url(#clip140)" d="M2048.93 193.238 Q2045.51 193.238 2043.52 195.923 Q2041.53 198.585 2041.53 203.238 Q2041.53 207.891 2043.49 210.576 Q2045.48 213.238 2048.93 213.238 Q2052.34 213.238 2054.33 210.553 Q2056.32 207.867 2056.32 203.238 Q2056.32 198.631 2054.33 195.946 Q2052.34 193.238 2048.93 193.238 M2048.93 189.627 Q2054.49 189.627 2057.66 193.238 Q2060.83 196.849 2060.83 203.238 Q2060.83 209.604 2057.66 213.238 Q2054.49 216.849 2048.93 216.849 Q2043.36 216.849 2040.18 213.238 Q2037.04 209.604 2037.04 203.238 Q2037.04 196.849 2040.18 193.238 Q2043.36 189.627 2048.93 189.627 Z" fill="#000000" fill-rule="nonzero" fill-opacity="1" /><path clip-path="url(#clip140)" d="M2089.44 200.529 L2089.44 216.178 L2085.18 216.178 L2085.18 200.668 Q2085.18 196.988 2083.75 195.159 Q2082.31 193.33 2079.44 193.33 Q2075.99 193.33 2074 195.53 Q2072.01 197.729 2072.01 201.525 L2072.01 216.178 L2067.73 216.178 L2067.73 190.252 L2072.01 190.252 L2072.01 194.28 Q2073.54 191.942 2075.6 190.784 Q2077.68 189.627 2080.39 189.627 Q2084.86 189.627 2087.15 192.405 Q2089.44 195.159 2089.44 200.529 Z" fill="#000000" fill-rule="nonzero" fill-opacity="1" /><path clip-path="url(#clip140)" d="M2128.03 194.233 Q2127.31 193.817 2126.46 193.631 Q2125.62 193.423 2124.6 193.423 Q2120.99 193.423 2119.05 195.784 Q2117.13 198.122 2117.13 202.52 L2117.13 216.178 L2112.85 216.178 L2112.85 190.252 L2117.13 190.252 L2117.13 194.28 Q2118.47 191.918 2120.62 190.784 Q2122.78 189.627 2125.85 189.627 Q2126.29 189.627 2126.83 189.696 Q2127.36 189.743 2128.01 189.858 L2128.03 194.233 Z" fill="#000000" fill-rule="nonzero" fill-opacity="1" /><path clip-path="url(#clip140)" d="M2153.63 202.15 L2153.63 204.233 L2134.05 204.233 Q2134.33 208.631 2136.69 210.946 Q2139.07 213.238 2143.31 213.238 Q2145.76 213.238 2148.05 212.636 Q2150.37 212.034 2152.64 210.83 L2152.64 214.858 Q2150.35 215.83 2147.94 216.34 Q2145.53 216.849 2143.05 216.849 Q2136.85 216.849 2133.22 213.238 Q2129.6 209.627 2129.6 203.469 Q2129.6 197.104 2133.03 193.377 Q2136.48 189.627 2142.31 189.627 Q2147.54 189.627 2150.58 193.006 Q2153.63 196.363 2153.63 202.15 M2149.37 200.9 Q2149.33 197.405 2147.41 195.321 Q2145.51 193.238 2142.36 193.238 Q2138.79 193.238 2136.64 195.252 Q2134.51 197.266 2134.19 200.923 L2149.37 200.9 Z" fill="#000000" fill-rule="nonzero" fill-opacity="1" /><path clip-path="url(#clip140)" d="M2177.68 202.914 Q2177.68 198.284 2175.76 195.738 Q2173.86 193.192 2170.41 193.192 Q2166.99 193.192 2165.07 195.738 Q2163.17 198.284 2163.17 202.914 Q2163.17 207.52 2165.07 210.066 Q2166.99 212.613 2170.41 212.613 Q2173.86 212.613 2175.76 210.066 Q2177.68 207.52 2177.68 202.914 M2181.94 212.96 Q2181.94 219.58 2179 222.798 Q2176.06 226.039 2170 226.039 Q2167.75 226.039 2165.76 225.691 Q2163.77 225.367 2161.9 224.673 L2161.9 220.529 Q2163.77 221.548 2165.6 222.034 Q2167.43 222.52 2169.33 222.52 Q2173.52 222.52 2175.6 220.321 Q2177.68 218.145 2177.68 213.724 L2177.68 211.617 Q2176.36 213.909 2174.3 215.043 Q2172.24 216.178 2169.37 216.178 Q2164.6 216.178 2161.69 212.543 Q2158.77 208.909 2158.77 202.914 Q2158.77 196.895 2161.69 193.261 Q2164.6 189.627 2169.37 189.627 Q2172.24 189.627 2174.3 190.761 Q2176.36 191.895 2177.68 194.187 L2177.68 190.252 L2181.94 190.252 L2181.94 212.96 Z" fill="#000000" fill-rule="nonzero" fill-opacity="1" /><path clip-path="url(#clip140)" d="M2190.72 190.252 L2194.97 190.252 L2194.97 216.178 L2190.72 216.178 L2190.72 190.252 M2190.72 180.159 L2194.97 180.159 L2194.97 185.553 L2190.72 185.553 L2190.72 180.159 Z" fill="#000000" fill-rule="nonzero" fill-opacity="1" /><path clip-path="url(#clip140)" d="M2213.93 193.238 Q2210.51 193.238 2208.52 195.923 Q2206.53 198.585 2206.53 203.238 Q2206.53 207.891 2208.49 210.576 Q2210.48 213.238 2213.93 213.238 Q2217.34 213.238 2219.33 210.553 Q2221.32 207.867 2221.32 203.238 Q2221.32 198.631 2219.33 195.946 Q2217.34 193.238 2213.93 193.238 M2213.93 189.627 Q2219.49 189.627 2222.66 193.238 Q2225.83 196.849 2225.83 203.238 Q2225.83 209.604 2222.66 213.238 Q2219.49 216.849 2213.93 216.849 Q2208.35 216.849 2205.18 213.238 Q2202.03 209.604 2202.03 203.238 Q2202.03 196.849 2205.18 193.238 Q2208.35 189.627 2213.93 189.627 Z" fill="#000000" fill-rule="nonzero" fill-opacity="1" /><path clip-path="url(#clip140)" d="M2254.44 200.529 L2254.44 216.178 L2250.18 216.178 L2250.18 200.668 Q2250.18 196.988 2248.75 195.159 Q2247.31 193.33 2244.44 193.33 Q2240.99 193.33 2239 195.53 Q2237.01 197.729 2237.01 201.525 L2237.01 216.178 L2232.73 216.178 L2232.73 190.252 L2237.01 190.252 L2237.01 194.28 Q2238.54 191.942 2240.6 190.784 Q2242.68 189.627 2245.39 189.627 Q2249.86 189.627 2252.15 192.405 Q2254.44 195.159 2254.44 200.529 Z" fill="#000000" fill-rule="nonzero" fill-opacity="1" /><path clip-path="url(#clip140)" d="M1490.94 271.474 L1638.41 271.474 L1638.41 230.002 L1490.94 230.002 L1490.94 271.474  Z" fill="#ffa500" fill-rule="evenodd" fill-opacity="0.5"/>
<polyline clip-path="url(#clip140)" style="stroke:#ffa500; stroke-linecap:round; stroke-linejoin:round; stroke-width:4; stroke-opacity:1; fill:none" points="1490.94,230.002 1638.41,230.002 "/>
<path clip-path="url(#clip140)" d="M1667.39 255.078 Q1667.39 259.777 1669.31 262.462 Q1671.25 265.124 1674.63 265.124 Q1678.01 265.124 1679.95 262.462 Q1681.9 259.777 1681.9 255.078 Q1681.9 250.379 1679.95 247.717 Q1678.01 245.032 1674.63 245.032 Q1671.25 245.032 1669.31 247.717 Q1667.39 250.379 1667.39 255.078 M1681.9 264.129 Q1680.56 266.443 1678.5 267.578 Q1676.46 268.689 1673.59 268.689 Q1668.89 268.689 1665.93 264.939 Q1662.99 261.189 1662.99 255.078 Q1662.99 248.967 1665.93 245.217 Q1668.89 241.467 1673.59 241.467 Q1676.46 241.467 1678.5 242.601 Q1680.56 243.712 1681.9 246.027 L1681.9 242.092 L1686.16 242.092 L1686.16 277.879 L1681.9 277.879 L1681.9 264.129 Z" fill="#000000" fill-rule="nonzero" fill-opacity="1" /><path clip-path="url(#clip140)" d="M1695.67 267.3 L1695.67 263.041 Q1697.43 263.874 1699.24 264.314 Q1701.04 264.754 1702.78 264.754 Q1707.41 264.754 1709.84 261.652 Q1712.29 258.527 1712.64 252.184 Q1711.3 254.175 1709.24 255.24 Q1707.18 256.305 1704.68 256.305 Q1699.49 256.305 1696.46 253.18 Q1693.45 250.032 1693.45 244.592 Q1693.45 239.268 1696.6 236.05 Q1699.75 232.833 1704.98 232.833 Q1710.97 232.833 1714.12 237.439 Q1717.29 242.022 1717.29 250.772 Q1717.29 258.944 1713.4 263.828 Q1709.54 268.689 1702.99 268.689 Q1701.23 268.689 1699.42 268.342 Q1697.62 267.994 1695.67 267.3 M1704.98 252.647 Q1708.13 252.647 1709.95 250.494 Q1711.81 248.342 1711.81 244.592 Q1711.81 240.865 1709.95 238.712 Q1708.13 236.536 1704.98 236.536 Q1701.83 236.536 1699.98 238.712 Q1698.15 240.865 1698.15 244.592 Q1698.15 248.342 1699.98 250.494 Q1701.83 252.647 1704.98 252.647 Z" fill="#000000" fill-rule="nonzero" fill-opacity="1" /><path clip-path="url(#clip140)" d="M1725.74 233.458 L1744.1 233.458 L1744.1 237.393 L1730.02 237.393 L1730.02 245.865 Q1731.04 245.518 1732.06 245.356 Q1733.08 245.17 1734.1 245.17 Q1739.88 245.17 1743.26 248.342 Q1746.64 251.513 1746.64 256.93 Q1746.64 262.508 1743.17 265.61 Q1739.7 268.689 1733.38 268.689 Q1731.2 268.689 1728.94 268.318 Q1726.69 267.948 1724.28 267.207 L1724.28 262.508 Q1726.37 263.643 1728.59 264.198 Q1730.81 264.754 1733.29 264.754 Q1737.29 264.754 1739.63 262.647 Q1741.97 260.541 1741.97 256.93 Q1741.97 253.319 1739.63 251.212 Q1737.29 249.106 1733.29 249.106 Q1731.41 249.106 1729.54 249.522 Q1727.69 249.939 1725.74 250.819 L1725.74 233.458 Z" fill="#000000" fill-rule="nonzero" fill-opacity="1" /><polyline clip-path="url(#clip140)" style="stroke:#0000ff; stroke-linecap:round; stroke-linejoin:round; stroke-width:4; stroke-opacity:1; fill:none" points="1490.94,302.578 1638.41,302.578 "/>
<path clip-path="url(#clip140)" d="M1683.33 298.909 Q1684.93 296.038 1687.15 294.673 Q1689.38 293.307 1692.38 293.307 Q1696.44 293.307 1698.63 296.154 Q1700.83 298.978 1700.83 304.209 L1700.83 319.858 L1696.55 319.858 L1696.55 304.348 Q1696.55 300.622 1695.23 298.816 Q1693.91 297.01 1691.2 297.01 Q1687.89 297.01 1685.97 299.21 Q1684.05 301.409 1684.05 305.205 L1684.05 319.858 L1679.77 319.858 L1679.77 304.348 Q1679.77 300.598 1678.45 298.816 Q1677.13 297.01 1674.38 297.01 Q1671.11 297.01 1669.19 299.233 Q1667.27 301.432 1667.27 305.205 L1667.27 319.858 L1662.99 319.858 L1662.99 293.932 L1667.27 293.932 L1667.27 297.96 Q1668.73 295.575 1670.76 294.441 Q1672.8 293.307 1675.6 293.307 Q1678.43 293.307 1680.39 294.742 Q1682.38 296.177 1683.33 298.909 Z" fill="#000000" fill-rule="nonzero" fill-opacity="1" /><path clip-path="url(#clip140)" d="M1731.51 305.83 L1731.51 307.913 L1711.92 307.913 Q1712.2 312.311 1714.56 314.626 Q1716.94 316.918 1721.18 316.918 Q1723.63 316.918 1725.93 316.316 Q1728.24 315.714 1730.51 314.51 L1730.51 318.538 Q1728.22 319.51 1725.81 320.02 Q1723.4 320.529 1720.93 320.529 Q1714.72 320.529 1711.09 316.918 Q1707.48 313.307 1707.48 307.149 Q1707.48 300.784 1710.9 297.057 Q1714.35 293.307 1720.19 293.307 Q1725.42 293.307 1728.45 296.686 Q1731.51 300.043 1731.51 305.83 M1727.25 304.58 Q1727.2 301.085 1725.28 299.001 Q1723.38 296.918 1720.23 296.918 Q1716.67 296.918 1714.51 298.932 Q1712.38 300.946 1712.06 304.603 L1727.25 304.58 Z" fill="#000000" fill-rule="nonzero" fill-opacity="1" /><path clip-path="url(#clip140)" d="M1750.28 306.825 Q1745.12 306.825 1743.13 308.006 Q1741.13 309.186 1741.13 312.034 Q1741.13 314.302 1742.62 315.645 Q1744.12 316.964 1746.69 316.964 Q1750.23 316.964 1752.36 314.464 Q1754.51 311.941 1754.51 307.774 L1754.51 306.825 L1750.28 306.825 M1758.77 305.066 L1758.77 319.858 L1754.51 319.858 L1754.51 315.922 Q1753.06 318.283 1750.88 319.418 Q1748.7 320.529 1745.56 320.529 Q1741.57 320.529 1739.21 318.307 Q1736.88 316.061 1736.88 312.311 Q1736.88 307.936 1739.79 305.714 Q1742.73 303.492 1748.54 303.492 L1754.51 303.492 L1754.51 303.075 Q1754.51 300.135 1752.57 298.538 Q1750.65 296.918 1747.15 296.918 Q1744.93 296.918 1742.82 297.45 Q1740.72 297.983 1738.77 299.047 L1738.77 295.112 Q1741.11 294.21 1743.31 293.77 Q1745.51 293.307 1747.59 293.307 Q1753.22 293.307 1756 296.223 Q1758.77 299.14 1758.77 305.066 Z" fill="#000000" fill-rule="nonzero" fill-opacity="1" /><path clip-path="url(#clip140)" d="M1789.1 304.209 L1789.1 319.858 L1784.84 319.858 L1784.84 304.348 Q1784.84 300.668 1783.4 298.839 Q1781.97 297.01 1779.1 297.01 Q1775.65 297.01 1773.66 299.21 Q1771.67 301.409 1771.67 305.205 L1771.67 319.858 L1767.38 319.858 L1767.38 293.932 L1771.67 293.932 L1771.67 297.96 Q1773.19 295.622 1775.25 294.464 Q1777.34 293.307 1780.05 293.307 Q1784.51 293.307 1786.81 296.085 Q1789.1 298.839 1789.1 304.209 Z" fill="#000000" fill-rule="nonzero" fill-opacity="1" /><polyline clip-path="url(#clip140)" style="stroke:#000000; stroke-linecap:round; stroke-linejoin:round; stroke-width:4; stroke-opacity:1; fill:none" points="1490.94,354.418 1638.41,354.418 "/>
<path clip-path="url(#clip140)" d="M1683.33 350.749 Q1684.93 347.878 1687.15 346.513 Q1689.38 345.147 1692.38 345.147 Q1696.44 345.147 1698.63 347.994 Q1700.83 350.818 1700.83 356.049 L1700.83 371.698 L1696.55 371.698 L1696.55 356.188 Q1696.55 352.462 1695.23 350.656 Q1693.91 348.85 1691.2 348.85 Q1687.89 348.85 1685.97 351.05 Q1684.05 353.249 1684.05 357.045 L1684.05 371.698 L1679.77 371.698 L1679.77 356.188 Q1679.77 352.438 1678.45 350.656 Q1677.13 348.85 1674.38 348.85 Q1671.11 348.85 1669.19 351.073 Q1667.27 353.272 1667.27 357.045 L1667.27 371.698 L1662.99 371.698 L1662.99 345.772 L1667.27 345.772 L1667.27 349.8 Q1668.73 347.415 1670.76 346.281 Q1672.8 345.147 1675.6 345.147 Q1678.43 345.147 1680.39 346.582 Q1682.38 348.017 1683.33 350.749 Z" fill="#000000" fill-rule="nonzero" fill-opacity="1" /><path clip-path="url(#clip140)" d="M1731.51 357.67 L1731.51 359.753 L1711.92 359.753 Q1712.2 364.151 1714.56 366.466 Q1716.94 368.758 1721.18 368.758 Q1723.63 368.758 1725.93 368.156 Q1728.24 367.554 1730.51 366.35 L1730.51 370.378 Q1728.22 371.35 1725.81 371.86 Q1723.4 372.369 1720.93 372.369 Q1714.72 372.369 1711.09 368.758 Q1707.48 365.147 1707.48 358.989 Q1707.48 352.624 1710.9 348.897 Q1714.35 345.147 1720.19 345.147 Q1725.42 345.147 1728.45 348.526 Q1731.51 351.883 1731.51 357.67 M1727.25 356.42 Q1727.2 352.925 1725.28 350.841 Q1723.38 348.758 1720.23 348.758 Q1716.67 348.758 1714.51 350.772 Q1712.38 352.786 1712.06 356.443 L1727.25 356.42 Z" fill="#000000" fill-rule="nonzero" fill-opacity="1" /><path clip-path="url(#clip140)" d="M1755.56 349.707 L1755.56 335.679 L1759.82 335.679 L1759.82 371.698 L1755.56 371.698 L1755.56 367.809 Q1754.21 370.123 1752.15 371.258 Q1750.12 372.369 1747.25 372.369 Q1742.55 372.369 1739.58 368.619 Q1736.64 364.869 1736.64 358.758 Q1736.64 352.647 1739.58 348.897 Q1742.55 345.147 1747.25 345.147 Q1750.12 345.147 1752.15 346.281 Q1754.21 347.392 1755.56 349.707 M1741.04 358.758 Q1741.04 363.457 1742.96 366.142 Q1744.91 368.804 1748.29 368.804 Q1751.67 368.804 1753.61 366.142 Q1755.56 363.457 1755.56 358.758 Q1755.56 354.059 1753.61 351.397 Q1751.67 348.712 1748.29 348.712 Q1744.91 348.712 1742.96 351.397 Q1741.04 354.059 1741.04 358.758 Z" fill="#000000" fill-rule="nonzero" fill-opacity="1" /><path clip-path="url(#clip140)" d="M1768.59 345.772 L1772.85 345.772 L1772.85 371.698 L1768.59 371.698 L1768.59 345.772 M1768.59 335.679 L1772.85 335.679 L1772.85 341.073 L1768.59 341.073 L1768.59 335.679 Z" fill="#000000" fill-rule="nonzero" fill-opacity="1" /><path clip-path="url(#clip140)" d="M1793.54 358.665 Q1788.38 358.665 1786.39 359.846 Q1784.4 361.026 1784.4 363.874 Q1784.4 366.142 1785.88 367.485 Q1787.38 368.804 1789.95 368.804 Q1793.5 368.804 1795.63 366.304 Q1797.78 363.781 1797.78 359.614 L1797.78 358.665 L1793.54 358.665 M1802.04 356.906 L1802.04 371.698 L1797.78 371.698 L1797.78 367.762 Q1796.32 370.123 1794.14 371.258 Q1791.97 372.369 1788.82 372.369 Q1784.84 372.369 1782.48 370.147 Q1780.14 367.901 1780.14 364.151 Q1780.14 359.776 1783.06 357.554 Q1786 355.332 1791.81 355.332 L1797.78 355.332 L1797.78 354.915 Q1797.78 351.975 1795.83 350.378 Q1793.91 348.758 1790.42 348.758 Q1788.19 348.758 1786.09 349.29 Q1783.98 349.823 1782.04 350.887 L1782.04 346.952 Q1784.38 346.05 1786.57 345.61 Q1788.77 345.147 1790.86 345.147 Q1796.48 345.147 1799.26 348.063 Q1802.04 350.98 1802.04 356.906 Z" fill="#000000" fill-rule="nonzero" fill-opacity="1" /><path clip-path="url(#clip140)" d="M1832.36 356.049 L1832.36 371.698 L1828.1 371.698 L1828.1 356.188 Q1828.1 352.508 1826.67 350.679 Q1825.23 348.85 1822.36 348.85 Q1818.91 348.85 1816.92 351.05 Q1814.93 353.249 1814.93 357.045 L1814.93 371.698 L1810.65 371.698 L1810.65 345.772 L1814.93 345.772 L1814.93 349.8 Q1816.46 347.462 1818.52 346.304 Q1820.6 345.147 1823.31 345.147 Q1827.78 345.147 1830.07 347.925 Q1832.36 350.679 1832.36 356.049 Z" fill="#000000" fill-rule="nonzero" fill-opacity="1" /></svg>
