<?xml version="1.0" encoding="utf-8"?>
<svg xmlns="http://www.w3.org/2000/svg" xmlns:xlink="http://www.w3.org/1999/xlink" width="600" height="400" viewBox="0 0 2400 1600">
<defs>
  <clipPath id="clip030">
    <rect x="0" y="0" width="2400" height="1600"/>
  </clipPath>
</defs>
<path clip-path="url(#clip030)" d="
M0 1600 L2400 1600 L2400 0 L0 0  Z
  " fill="#ffffff" fill-rule="evenodd" fill-opacity="1"/>
<defs>
  <clipPath id="clip031">
    <rect x="480" y="0" width="1681" height="1600"/>
  </clipPath>
</defs>
<path clip-path="url(#clip030)" d="
M140.696 1486.45 L2352.76 1486.45 L2352.76 47.2441 L140.696 47.2441  Z
  " fill="#ffffff" fill-rule="evenodd" fill-opacity="1"/>
<defs>
  <clipPath id="clip032">
    <rect x="140" y="47" width="2213" height="1440"/>
  </clipPath>
</defs>
<polyline clip-path="url(#clip032)" style="stroke:#000000; stroke-linecap:round; stroke-linejoin:round; stroke-width:2; stroke-opacity:0.1; fill:none" points="
  225.547,1486.45 225.547,47.2441 
  "/>
<polyline clip-path="url(#clip032)" style="stroke:#000000; stroke-linecap:round; stroke-linejoin:round; stroke-width:2; stroke-opacity:0.1; fill:none" points="
  831.606,1486.45 831.606,47.2441 
  "/>
<polyline clip-path="url(#clip032)" style="stroke:#000000; stroke-linecap:round; stroke-linejoin:round; stroke-width:2; stroke-opacity:0.1; fill:none" points="
  1437.66,1486.45 1437.66,47.2441 
  "/>
<polyline clip-path="url(#clip032)" style="stroke:#000000; stroke-linecap:round; stroke-linejoin:round; stroke-width:2; stroke-opacity:0.1; fill:none" points="
  2043.72,1486.45 2043.72,47.2441 
  "/>
<polyline clip-path="url(#clip030)" style="stroke:#000000; stroke-linecap:round; stroke-linejoin:round; stroke-width:4; stroke-opacity:1; fill:none" points="
  140.696,1486.45 2352.76,1486.45 
  "/>
<polyline clip-path="url(#clip030)" style="stroke:#000000; stroke-linecap:round; stroke-linejoin:round; stroke-width:4; stroke-opacity:1; fill:none" points="
  225.547,1486.45 225.547,1467.55 
  "/>
<polyline clip-path="url(#clip030)" style="stroke:#000000; stroke-linecap:round; stroke-linejoin:round; stroke-width:4; stroke-opacity:1; fill:none" points="
  831.606,1486.45 831.606,1467.55 
  "/>
<polyline clip-path="url(#clip030)" style="stroke:#000000; stroke-linecap:round; stroke-linejoin:round; stroke-width:4; stroke-opacity:1; fill:none" points="
  1437.66,1486.45 1437.66,1467.55 
  "/>
<polyline clip-path="url(#clip030)" style="stroke:#000000; stroke-linecap:round; stroke-linejoin:round; stroke-width:4; stroke-opacity:1; fill:none" points="
  2043.72,1486.45 2043.72,1467.55 
  "/>
<path clip-path="url(#clip030)" d="M178.117 1544.91 L185.756 1544.91 L185.756 1518.55 L177.446 1520.21 L177.446 1515.95 L185.709 1514.29 L190.385 1514.29 L190.385 1544.91 L198.024 1544.91 L198.024 1548.85 L178.117 1548.85 L178.117 1544.91 Z" fill="#000000" fill-rule="evenodd" fill-opacity="1" /><path clip-path="url(#clip030)" d="M207.469 1542.97 L212.353 1542.97 L212.353 1548.85 L207.469 1548.85 L207.469 1542.97 Z" fill="#000000" fill-rule="evenodd" fill-opacity="1" /><path clip-path="url(#clip030)" d="M222.677 1548.13 L222.677 1543.87 Q224.436 1544.7 226.242 1545.14 Q228.047 1545.58 229.783 1545.58 Q234.413 1545.58 236.843 1542.48 Q239.297 1539.36 239.644 1533.01 Q238.302 1535.01 236.242 1536.07 Q234.181 1537.13 231.681 1537.13 Q226.496 1537.13 223.464 1534.01 Q220.455 1530.86 220.455 1525.42 Q220.455 1520.1 223.603 1516.88 Q226.751 1513.66 231.982 1513.66 Q237.978 1513.66 241.126 1518.27 Q244.297 1522.85 244.297 1531.6 Q244.297 1539.77 240.408 1544.66 Q236.542 1549.52 229.992 1549.52 Q228.232 1549.52 226.427 1549.17 Q224.621 1548.82 222.677 1548.13 M231.982 1533.48 Q235.13 1533.48 236.959 1531.32 Q238.811 1529.17 238.811 1525.42 Q238.811 1521.7 236.959 1519.54 Q235.13 1517.37 231.982 1517.37 Q228.834 1517.37 226.982 1519.54 Q225.154 1521.7 225.154 1525.42 Q225.154 1529.17 226.982 1531.32 Q228.834 1533.48 231.982 1533.48 Z" fill="#000000" fill-rule="evenodd" fill-opacity="1" /><path clip-path="url(#clip030)" d="M252.746 1514.29 L271.102 1514.29 L271.102 1518.22 L257.028 1518.22 L257.028 1526.7 Q258.047 1526.35 259.066 1526.19 Q260.084 1526 261.103 1526 Q266.89 1526 270.269 1529.17 Q273.649 1532.34 273.649 1537.76 Q273.649 1543.34 270.177 1546.44 Q266.704 1549.52 260.385 1549.52 Q258.209 1549.52 255.941 1549.15 Q253.695 1548.78 251.288 1548.04 L251.288 1543.34 Q253.371 1544.47 255.593 1545.03 Q257.816 1545.58 260.292 1545.58 Q264.297 1545.58 266.635 1543.48 Q268.973 1541.37 268.973 1537.76 Q268.973 1534.15 266.635 1532.04 Q264.297 1529.94 260.292 1529.94 Q258.417 1529.94 256.542 1530.35 Q254.691 1530.77 252.746 1531.65 L252.746 1514.29 Z" fill="#000000" fill-rule="evenodd" fill-opacity="1" /><path clip-path="url(#clip030)" d="M787.764 1544.91 L804.083 1544.91 L804.083 1548.85 L782.139 1548.85 L782.139 1544.91 Q784.801 1542.16 789.384 1537.53 Q793.99 1532.88 795.171 1531.53 Q797.416 1529.01 798.296 1527.27 Q799.199 1525.51 799.199 1523.82 Q799.199 1521.07 797.254 1519.33 Q795.333 1517.6 792.231 1517.6 Q790.032 1517.6 787.578 1518.36 Q785.148 1519.13 782.37 1520.68 L782.37 1515.95 Q785.194 1514.82 787.648 1514.24 Q790.102 1513.66 792.139 1513.66 Q797.509 1513.66 800.703 1516.35 Q803.898 1519.03 803.898 1523.52 Q803.898 1525.65 803.088 1527.57 Q802.301 1529.47 800.194 1532.07 Q799.615 1532.74 796.514 1535.95 Q793.412 1539.15 787.764 1544.91 Z" fill="#000000" fill-rule="evenodd" fill-opacity="1" /><path clip-path="url(#clip030)" d="M813.898 1542.97 L818.782 1542.97 L818.782 1548.85 L813.898 1548.85 L813.898 1542.97 Z" fill="#000000" fill-rule="evenodd" fill-opacity="1" /><path clip-path="url(#clip030)" d="M838.967 1517.37 Q835.356 1517.37 833.527 1520.93 Q831.722 1524.47 831.722 1531.6 Q831.722 1538.71 833.527 1542.27 Q835.356 1545.82 838.967 1545.82 Q842.601 1545.82 844.407 1542.27 Q846.236 1538.71 846.236 1531.6 Q846.236 1524.47 844.407 1520.93 Q842.601 1517.37 838.967 1517.37 M838.967 1513.66 Q844.777 1513.66 847.833 1518.27 Q850.911 1522.85 850.911 1531.6 Q850.911 1540.33 847.833 1544.94 Q844.777 1549.52 838.967 1549.52 Q833.157 1549.52 830.078 1544.94 Q827.023 1540.33 827.023 1531.6 Q827.023 1522.85 830.078 1518.27 Q833.157 1513.66 838.967 1513.66 Z" fill="#000000" fill-rule="evenodd" fill-opacity="1" /><path clip-path="url(#clip030)" d="M869.129 1517.37 Q865.518 1517.37 863.689 1520.93 Q861.884 1524.47 861.884 1531.6 Q861.884 1538.71 863.689 1542.27 Q865.518 1545.82 869.129 1545.82 Q872.763 1545.82 874.569 1542.27 Q876.397 1538.71 876.397 1531.6 Q876.397 1524.47 874.569 1520.93 Q872.763 1517.37 869.129 1517.37 M869.129 1513.66 Q874.939 1513.66 877.995 1518.27 Q881.073 1522.85 881.073 1531.6 Q881.073 1540.33 877.995 1544.94 Q874.939 1549.52 869.129 1549.52 Q863.319 1549.52 860.24 1544.94 Q857.185 1540.33 857.185 1531.6 Q857.185 1522.85 860.24 1518.27 Q863.319 1513.66 869.129 1513.66 Z" fill="#000000" fill-rule="evenodd" fill-opacity="1" /><path clip-path="url(#clip030)" d="M1394.32 1544.91 L1410.64 1544.91 L1410.64 1548.85 L1388.7 1548.85 L1388.7 1544.91 Q1391.36 1542.16 1395.94 1537.53 Q1400.55 1532.88 1401.73 1531.53 Q1403.97 1529.01 1404.85 1527.27 Q1405.76 1525.51 1405.76 1523.82 Q1405.76 1521.07 1403.81 1519.33 Q1401.89 1517.6 1398.79 1517.6 Q1396.59 1517.6 1394.13 1518.36 Q1391.7 1519.13 1388.93 1520.68 L1388.93 1515.95 Q1391.75 1514.82 1394.2 1514.24 Q1396.66 1513.66 1398.7 1513.66 Q1404.07 1513.66 1407.26 1516.35 Q1410.45 1519.03 1410.45 1523.52 Q1410.45 1525.65 1409.64 1527.57 Q1408.86 1529.47 1406.75 1532.07 Q1406.17 1532.74 1403.07 1535.95 Q1399.97 1539.15 1394.32 1544.91 Z" fill="#000000" fill-rule="evenodd" fill-opacity="1" /><path clip-path="url(#clip030)" d="M1420.45 1542.97 L1425.34 1542.97 L1425.34 1548.85 L1420.45 1548.85 L1420.45 1542.97 Z" fill="#000000" fill-rule="evenodd" fill-opacity="1" /><path clip-path="url(#clip030)" d="M1445.52 1517.37 Q1441.91 1517.37 1440.08 1520.93 Q1438.28 1524.47 1438.28 1531.6 Q1438.28 1538.71 1440.08 1542.27 Q1441.91 1545.82 1445.52 1545.82 Q1449.16 1545.82 1450.96 1542.27 Q1452.79 1538.71 1452.79 1531.6 Q1452.79 1524.47 1450.96 1520.93 Q1449.16 1517.37 1445.52 1517.37 M1445.52 1513.66 Q1451.33 1513.66 1454.39 1518.27 Q1457.47 1522.85 1457.47 1531.6 Q1457.47 1540.33 1454.39 1544.94 Q1451.33 1549.52 1445.52 1549.52 Q1439.71 1549.52 1436.63 1544.94 Q1433.58 1540.33 1433.58 1531.6 Q1433.58 1522.85 1436.63 1518.27 Q1439.71 1513.66 1445.52 1513.66 Z" fill="#000000" fill-rule="evenodd" fill-opacity="1" /><path clip-path="url(#clip030)" d="M1465.73 1514.29 L1484.09 1514.29 L1484.09 1518.22 L1470.01 1518.22 L1470.01 1526.7 Q1471.03 1526.35 1472.05 1526.19 Q1473.07 1526 1474.09 1526 Q1479.88 1526 1483.25 1529.17 Q1486.63 1532.34 1486.63 1537.76 Q1486.63 1543.34 1483.16 1546.44 Q1479.69 1549.52 1473.37 1549.52 Q1471.19 1549.52 1468.93 1549.15 Q1466.68 1548.78 1464.27 1548.04 L1464.27 1543.34 Q1466.36 1544.47 1468.58 1545.03 Q1470.8 1545.58 1473.28 1545.58 Q1477.28 1545.58 1479.62 1543.48 Q1481.96 1541.37 1481.96 1537.76 Q1481.96 1534.15 1479.62 1532.04 Q1477.28 1529.94 1473.28 1529.94 Q1471.4 1529.94 1469.53 1530.35 Q1467.68 1530.77 1465.73 1531.65 L1465.73 1514.29 Z" fill="#000000" fill-rule="evenodd" fill-opacity="1" /><path clip-path="url(#clip030)" d="M1999.88 1544.91 L2016.2 1544.91 L2016.2 1548.85 L1994.26 1548.85 L1994.26 1544.91 Q1996.92 1542.16 2001.5 1537.53 Q2006.11 1532.88 2007.29 1531.53 Q2009.53 1529.01 2010.41 1527.27 Q2011.32 1525.51 2011.32 1523.82 Q2011.32 1521.07 2009.37 1519.33 Q2007.45 1517.6 2004.35 1517.6 Q2002.15 1517.6 1999.7 1518.36 Q1997.27 1519.13 1994.49 1520.68 L1994.49 1515.95 Q1997.31 1514.82 1999.77 1514.24 Q2002.22 1513.66 2004.26 1513.66 Q2009.63 1513.66 2012.82 1516.35 Q2016.02 1519.03 2016.02 1523.52 Q2016.02 1525.65 2015.21 1527.57 Q2014.42 1529.47 2012.31 1532.07 Q2011.73 1532.74 2008.63 1535.95 Q2005.53 1539.15 1999.88 1544.91 Z" fill="#000000" fill-rule="evenodd" fill-opacity="1" /><path clip-path="url(#clip030)" d="M2026.02 1542.97 L2030.9 1542.97 L2030.9 1548.85 L2026.02 1548.85 L2026.02 1542.97 Z" fill="#000000" fill-rule="evenodd" fill-opacity="1" /><path clip-path="url(#clip030)" d="M2041.89 1544.91 L2049.53 1544.91 L2049.53 1518.55 L2041.22 1520.21 L2041.22 1515.95 L2049.49 1514.29 L2054.16 1514.29 L2054.16 1544.91 L2061.8 1544.91 L2061.8 1548.85 L2041.89 1548.85 L2041.89 1544.91 Z" fill="#000000" fill-rule="evenodd" fill-opacity="1" /><path clip-path="url(#clip030)" d="M2081.25 1517.37 Q2077.64 1517.37 2075.81 1520.93 Q2074 1524.47 2074 1531.6 Q2074 1538.71 2075.81 1542.27 Q2077.64 1545.82 2081.25 1545.82 Q2084.88 1545.82 2086.69 1542.27 Q2088.51 1538.71 2088.51 1531.6 Q2088.51 1524.47 2086.69 1520.93 Q2084.88 1517.37 2081.25 1517.37 M2081.25 1513.66 Q2087.06 1513.66 2090.11 1518.27 Q2093.19 1522.85 2093.19 1531.6 Q2093.19 1540.33 2090.11 1544.94 Q2087.06 1549.52 2081.25 1549.52 Q2075.44 1549.52 2072.36 1544.94 Q2069.3 1540.33 2069.3 1531.6 Q2069.3 1522.85 2072.36 1518.27 Q2075.44 1513.66 2081.25 1513.66 Z" fill="#000000" fill-rule="evenodd" fill-opacity="1" /><polyline clip-path="url(#clip032)" style="stroke:#000000; stroke-linecap:round; stroke-linejoin:round; stroke-width:2; stroke-opacity:0.1; fill:none" points="
  140.696,1445.72 2352.76,1445.72 
  "/>
<polyline clip-path="url(#clip032)" style="stroke:#000000; stroke-linecap:round; stroke-linejoin:round; stroke-width:2; stroke-opacity:0.1; fill:none" points="
  140.696,1142.82 2352.76,1142.82 
  "/>
<polyline clip-path="url(#clip032)" style="stroke:#000000; stroke-linecap:round; stroke-linejoin:round; stroke-width:2; stroke-opacity:0.1; fill:none" points="
  140.696,839.919 2352.76,839.919 
  "/>
<polyline clip-path="url(#clip032)" style="stroke:#000000; stroke-linecap:round; stroke-linejoin:round; stroke-width:2; stroke-opacity:0.1; fill:none" points="
  140.696,537.021 2352.76,537.021 
  "/>
<polyline clip-path="url(#clip032)" style="stroke:#000000; stroke-linecap:round; stroke-linejoin:round; stroke-width:2; stroke-opacity:0.1; fill:none" points="
  140.696,234.123 2352.76,234.123 
  "/>
<polyline clip-path="url(#clip030)" style="stroke:#000000; stroke-linecap:round; stroke-linejoin:round; stroke-width:4; stroke-opacity:1; fill:none" points="
  140.696,1486.45 140.696,47.2441 
  "/>
<polyline clip-path="url(#clip030)" style="stroke:#000000; stroke-linecap:round; stroke-linejoin:round; stroke-width:4; stroke-opacity:1; fill:none" points="
  140.696,1445.72 159.593,1445.72 
  "/>
<polyline clip-path="url(#clip030)" style="stroke:#000000; stroke-linecap:round; stroke-linejoin:round; stroke-width:4; stroke-opacity:1; fill:none" points="
  140.696,1142.82 159.593,1142.82 
  "/>
<polyline clip-path="url(#clip030)" style="stroke:#000000; stroke-linecap:round; stroke-linejoin:round; stroke-width:4; stroke-opacity:1; fill:none" points="
  140.696,839.919 159.593,839.919 
  "/>
<polyline clip-path="url(#clip030)" style="stroke:#000000; stroke-linecap:round; stroke-linejoin:round; stroke-width:4; stroke-opacity:1; fill:none" points="
  140.696,537.021 159.593,537.021 
  "/>
<polyline clip-path="url(#clip030)" style="stroke:#000000; stroke-linecap:round; stroke-linejoin:round; stroke-width:4; stroke-opacity:1; fill:none" points="
  140.696,234.123 159.593,234.123 
  "/>
<path clip-path="url(#clip030)" d="M92.7512 1431.51 Q89.1401 1431.51 87.3114 1435.08 Q85.5058 1438.62 85.5058 1445.75 Q85.5058 1452.86 87.3114 1456.42 Q89.1401 1459.96 92.7512 1459.96 Q96.3854 1459.96 98.1909 1456.42 Q100.02 1452.86 100.02 1445.75 Q100.02 1438.62 98.1909 1435.08 Q96.3854 1431.51 92.7512 1431.51 M92.7512 1427.81 Q98.5613 1427.81 101.617 1432.42 Q104.696 1437 104.696 1445.75 Q104.696 1454.48 101.617 1459.08 Q98.5613 1463.67 92.7512 1463.67 Q86.941 1463.67 83.8623 1459.08 Q80.8068 1454.48 80.8068 1445.75 Q80.8068 1437 83.8623 1432.42 Q86.941 1427.81 92.7512 1427.81 Z" fill="#000000" fill-rule="evenodd" fill-opacity="1" /><path clip-path="url(#clip030)" d="M83.7929 1125.54 L102.149 1125.54 L102.149 1129.47 L88.0753 1129.47 L88.0753 1137.94 Q89.0938 1137.6 90.1123 1137.44 Q91.1308 1137.25 92.1493 1137.25 Q97.9363 1137.25 101.316 1140.42 Q104.696 1143.59 104.696 1149.01 Q104.696 1154.59 101.223 1157.69 Q97.7511 1160.77 91.4317 1160.77 Q89.2558 1160.77 86.9873 1160.4 Q84.7419 1160.03 82.3346 1159.29 L82.3346 1154.59 Q84.4179 1155.72 86.6401 1156.28 Q88.8623 1156.83 91.3391 1156.83 Q95.3437 1156.83 97.6817 1154.73 Q100.02 1152.62 100.02 1149.01 Q100.02 1145.4 97.6817 1143.29 Q95.3437 1141.19 91.3391 1141.19 Q89.4641 1141.19 87.5892 1141.6 Q85.7373 1142.02 83.7929 1142.9 L83.7929 1125.54 Z" fill="#000000" fill-rule="evenodd" fill-opacity="1" /><path clip-path="url(#clip030)" d="M53.3995 853.264 L61.0384 853.264 L61.0384 826.898 L52.7282 828.565 L52.7282 824.306 L60.9921 822.639 L65.668 822.639 L65.668 853.264 L73.3068 853.264 L73.3068 857.199 L53.3995 857.199 L53.3995 853.264 Z" fill="#000000" fill-rule="evenodd" fill-opacity="1" /><path clip-path="url(#clip030)" d="M92.7512 825.718 Q89.1401 825.718 87.3114 829.283 Q85.5058 832.824 85.5058 839.954 Q85.5058 847.06 87.3114 850.625 Q89.1401 854.167 92.7512 854.167 Q96.3854 854.167 98.1909 850.625 Q100.02 847.06 100.02 839.954 Q100.02 832.824 98.1909 829.283 Q96.3854 825.718 92.7512 825.718 M92.7512 822.014 Q98.5613 822.014 101.617 826.621 Q104.696 831.204 104.696 839.954 Q104.696 848.681 101.617 853.287 Q98.5613 857.87 92.7512 857.87 Q86.941 857.87 83.8623 853.287 Q80.8068 848.681 80.8068 839.954 Q80.8068 831.204 83.8623 826.621 Q86.941 822.014 92.7512 822.014 Z" fill="#000000" fill-rule="evenodd" fill-opacity="1" /><path clip-path="url(#clip030)" d="M54.3949 550.366 L62.0337 550.366 L62.0337 524 L53.7236 525.667 L53.7236 521.408 L61.9874 519.741 L66.6633 519.741 L66.6633 550.366 L74.3022 550.366 L74.3022 554.301 L54.3949 554.301 L54.3949 550.366 Z" fill="#000000" fill-rule="evenodd" fill-opacity="1" /><path clip-path="url(#clip030)" d="M83.7929 519.741 L102.149 519.741 L102.149 523.676 L88.0753 523.676 L88.0753 532.148 Q89.0938 531.801 90.1123 531.639 Q91.1308 531.454 92.1493 531.454 Q97.9363 531.454 101.316 534.625 Q104.696 537.796 104.696 543.213 Q104.696 548.792 101.223 551.894 Q97.7511 554.972 91.4317 554.972 Q89.2558 554.972 86.9873 554.602 Q84.7419 554.232 82.3346 553.491 L82.3346 548.792 Q84.4179 549.926 86.6401 550.482 Q88.8623 551.037 91.3391 551.037 Q95.3437 551.037 97.6817 548.931 Q100.02 546.824 100.02 543.213 Q100.02 539.602 97.6817 537.495 Q95.3437 535.389 91.3391 535.389 Q89.4641 535.389 87.5892 535.806 Q85.7373 536.222 83.7929 537.102 L83.7929 519.741 Z" fill="#000000" fill-rule="evenodd" fill-opacity="1" /><path clip-path="url(#clip030)" d="M56.6171 247.468 L72.9365 247.468 L72.9365 251.403 L50.9921 251.403 L50.9921 247.468 Q53.6541 244.713 58.2375 240.083 Q62.8439 235.431 64.0245 234.088 Q66.2698 231.565 67.1494 229.829 Q68.0522 228.07 68.0522 226.38 Q68.0522 223.625 66.1078 221.889 Q64.1865 220.153 61.0847 220.153 Q58.8856 220.153 56.4319 220.917 Q54.0014 221.681 51.2236 223.232 L51.2236 218.509 Q54.0477 217.375 56.5014 216.796 Q58.955 216.218 60.9921 216.218 Q66.3624 216.218 69.5568 218.903 Q72.7513 221.588 72.7513 226.079 Q72.7513 228.208 71.9411 230.13 Q71.1541 232.028 69.0476 234.62 Q68.4689 235.292 65.367 238.509 Q62.2652 241.704 56.6171 247.468 Z" fill="#000000" fill-rule="evenodd" fill-opacity="1" /><path clip-path="url(#clip030)" d="M92.7512 219.921 Q89.1401 219.921 87.3114 223.486 Q85.5058 227.028 85.5058 234.157 Q85.5058 241.264 87.3114 244.829 Q89.1401 248.37 92.7512 248.37 Q96.3854 248.37 98.1909 244.829 Q100.02 241.264 100.02 234.157 Q100.02 227.028 98.1909 223.486 Q96.3854 219.921 92.7512 219.921 M92.7512 216.218 Q98.5613 216.218 101.617 220.824 Q104.696 225.407 104.696 234.157 Q104.696 242.884 101.617 247.491 Q98.5613 252.074 92.7512 252.074 Q86.941 252.074 83.8623 247.491 Q80.8068 242.884 80.8068 234.157 Q80.8068 225.407 83.8623 220.824 Q86.941 216.218 92.7512 216.218 Z" fill="#000000" fill-rule="evenodd" fill-opacity="1" /><path clip-path="url(#clip032)" d="
M203.301 1445.11 L208.078 1445.05 L212.855 1444.99 L217.632 1444.93 L222.409 1444.85 L227.186 1444.72 L231.963 1444.53 L236.74 1444.29 L241.517 1443.98 L246.294 1443.64 
  L251.071 1443.29 L255.848 1442.95 L260.625 1442.66 L265.402 1442.41 L270.179 1442.23 L274.956 1442.08 L279.733 1441.95 L284.51 1441.83 L289.287 1441.7 L294.064 1441.54 
  L298.841 1441.37 L303.618 1441.19 L308.395 1440.99 L313.172 1440.77 L317.949 1440.52 L322.726 1440.21 L327.503 1439.83 L332.28 1439.38 L337.057 1438.86 L341.834 1438.28 
  L346.611 1437.65 L351.388 1436.96 L356.165 1436.22 L360.942 1435.4 L365.719 1434.5 L370.496 1433.52 L375.273 1432.49 L380.05 1431.44 L384.827 1430.42 L389.604 1429.44 
  L394.381 1428.52 L399.158 1427.62 L403.935 1426.73 L408.712 1425.78 L413.489 1424.75 L418.266 1423.61 L423.043 1422.34 L427.82 1420.91 L432.597 1419.28 L437.374 1417.41 
  L442.151 1415.27 L446.928 1412.82 L451.705 1410.06 L456.482 1407.03 L461.259 1403.79 L466.036 1400.42 L470.813 1397 L475.59 1393.64 L480.367 1390.38 L485.144 1387.27 
  L489.921 1384.33 L494.698 1381.52 L499.475 1378.81 L504.252 1376.15 L509.029 1373.47 L513.806 1370.71 L518.583 1367.79 L523.36 1364.62 L528.137 1361.11 L532.914 1357.15 
  L537.691 1352.67 L542.468 1347.62 L547.245 1341.99 L552.022 1335.85 L556.799 1329.27 L561.576 1322.37 L566.353 1315.21 L571.13 1307.83 L575.907 1300.21 L580.684 1292.32 
  L585.461 1284.08 L590.238 1275.45 L595.015 1266.44 L599.792 1257.07 L604.569 1247.45 L609.346 1237.67 L614.122 1227.82 L618.899 1217.92 L623.676 1207.96 L628.453 1197.87 
  L633.23 1187.56 L638.007 1176.98 L642.784 1166.11 L647.561 1154.98 L652.338 1143.67 L657.115 1132.23 L661.892 1120.7 L666.669 1109.05 L671.446 1097.22 L676.223 1085.14 
  L676.223 1445.72 L671.446 1445.72 L666.669 1445.72 L661.892 1445.72 L657.115 1445.72 L652.338 1445.72 L647.561 1445.72 L642.784 1445.72 L638.007 1445.72 L633.23 1445.72 
  L628.453 1445.72 L623.676 1445.72 L618.899 1445.72 L614.122 1445.72 L609.346 1445.72 L604.569 1445.72 L599.792 1445.72 L595.015 1445.72 L590.238 1445.72 L585.461 1445.72 
  L580.684 1445.72 L575.907 1445.72 L571.13 1445.72 L566.353 1445.72 L561.576 1445.72 L556.799 1445.72 L552.022 1445.72 L547.245 1445.72 L542.468 1445.72 L537.691 1445.72 
  L532.914 1445.72 L528.137 1445.72 L523.36 1445.72 L518.583 1445.72 L513.806 1445.72 L509.029 1445.72 L504.252 1445.72 L499.475 1445.72 L494.698 1445.72 L489.921 1445.72 
  L485.144 1445.72 L480.367 1445.72 L475.59 1445.72 L470.813 1445.72 L466.036 1445.72 L461.259 1445.72 L456.482 1445.72 L451.705 1445.72 L446.928 1445.72 L442.151 1445.72 
  L437.374 1445.72 L432.597 1445.72 L427.82 1445.72 L423.043 1445.72 L418.266 1445.72 L413.489 1445.72 L408.712 1445.72 L403.935 1445.72 L399.158 1445.72 L394.381 1445.72 
  L389.604 1445.72 L384.827 1445.72 L380.05 1445.72 L375.273 1445.72 L370.496 1445.72 L365.719 1445.72 L360.942 1445.72 L356.165 1445.72 L351.388 1445.72 L346.611 1445.72 
  L341.834 1445.72 L337.057 1445.72 L332.28 1445.72 L327.503 1445.72 L322.726 1445.72 L317.949 1445.72 L313.172 1445.72 L308.395 1445.72 L303.618 1445.72 L298.841 1445.72 
  L294.064 1445.72 L289.287 1445.72 L284.51 1445.72 L279.733 1445.72 L274.956 1445.72 L270.179 1445.72 L265.402 1445.72 L260.625 1445.72 L255.848 1445.72 L251.071 1445.72 
  L246.294 1445.72 L241.517 1445.72 L236.74 1445.72 L231.963 1445.72 L227.186 1445.72 L222.409 1445.72 L217.632 1445.72 L212.855 1445.72 L208.078 1445.72 L203.301 1445.72 
   Z
  " fill="#ffa500" fill-rule="evenodd" fill-opacity="0.5"/>
<polyline clip-path="url(#clip032)" style="stroke:#ffa500; stroke-linecap:round; stroke-linejoin:round; stroke-width:4; stroke-opacity:1; fill:none" points="
  203.301,1445.11 208.078,1445.05 212.855,1444.99 217.632,1444.93 222.409,1444.85 227.186,1444.72 231.963,1444.53 236.74,1444.29 241.517,1443.98 246.294,1443.64 
  251.071,1443.29 255.848,1442.95 260.625,1442.66 265.402,1442.41 270.179,1442.23 274.956,1442.08 279.733,1441.95 284.51,1441.83 289.287,1441.7 294.064,1441.54 
  298.841,1441.37 303.618,1441.19 308.395,1440.99 313.172,1440.77 317.949,1440.52 322.726,1440.21 327.503,1439.83 332.28,1439.38 337.057,1438.86 341.834,1438.28 
  346.611,1437.65 351.388,1436.96 356.165,1436.22 360.942,1435.4 365.719,1434.5 370.496,1433.52 375.273,1432.49 380.05,1431.44 384.827,1430.42 389.604,1429.44 
  394.381,1428.52 399.158,1427.62 403.935,1426.73 408.712,1425.78 413.489,1424.75 418.266,1423.61 423.043,1422.34 427.82,1420.91 432.597,1419.28 437.374,1417.41 
  442.151,1415.27 446.928,1412.82 451.705,1410.06 456.482,1407.03 461.259,1403.79 466.036,1400.42 470.813,1397 475.59,1393.64 480.367,1390.38 485.144,1387.27 
  489.921,1384.33 494.698,1381.52 499.475,1378.81 504.252,1376.15 509.029,1373.47 513.806,1370.71 518.583,1367.79 523.36,1364.62 528.137,1361.11 532.914,1357.15 
  537.691,1352.67 542.468,1347.62 547.245,1341.99 552.022,1335.85 556.799,1329.27 561.576,1322.37 566.353,1315.21 571.13,1307.83 575.907,1300.21 580.684,1292.32 
  585.461,1284.08 590.238,1275.45 595.015,1266.44 599.792,1257.07 604.569,1247.45 609.346,1237.67 614.122,1227.82 618.899,1217.92 623.676,1207.96 628.453,1197.87 
  633.23,1187.56 638.007,1176.98 642.784,1166.11 647.561,1154.98 652.338,1143.67 657.115,1132.23 661.892,1120.7 666.669,1109.05 671.446,1097.22 676.223,1085.14 
  
  "/>
<path clip-path="url(#clip032)" d="
M676.223 1085.14 L683.373 1066.47 L690.524 1047.04 L697.674 1026.84 L704.824 1005.81 L711.974 983.717 L719.124 960.214 L726.274 935.036 L733.424 908.189 L740.574 880.118 
  L747.724 851.721 L754.874 824.09 L762.024 798.03 L769.174 773.552 L776.324 749.701 L783.474 724.872 L790.624 697.515 L797.774 666.836 L804.924 633.118 L812.074 597.481 
  L819.224 561.263 L826.374 525.451 L833.524 490.481 L840.674 456.42 L847.824 423.275 L854.975 391.151 L862.125 360.223 L869.275 330.672 L876.425 302.703 L883.575 276.535 
  L890.725 252.266 L897.875 229.726 L905.025 208.624 L912.175 188.964 L919.325 171.322 L926.475 156.56 L933.625 145.096 L940.775 136.329 L947.925 128.738 L955.075 120.675 
  L962.225 111.35 L969.375 101.437 L976.525 92.8883 L983.675 87.9763 L990.825 87.9925 L997.975 92.3672 L1005.13 98.8141 L1012.28 104.442 L1019.43 107.1 L1026.58 106.161 
  L1033.73 102.514 L1040.88 98.0888 L1048.03 95.2391 L1055.18 96.1058 L1062.33 101.982 L1069.48 112.916 L1076.63 127.799 L1083.78 144.923 L1090.93 162.6 L1098.08 179.511 
  L1105.23 194.762 L1112.38 207.948 L1119.53 219.467 L1126.68 230.88 L1133.83 244.856 L1140.98 264.321 L1148.13 291.091 L1155.28 324.835 L1162.43 363.141 L1169.58 402.637 
  L1176.73 440.384 L1183.88 474.721 L1191.03 505.38 L1198.18 533.077 L1205.33 558.92 L1212.48 583.873 L1219.63 608.473 L1226.78 632.864 L1233.93 656.979 L1241.08 680.678 
  L1248.23 703.742 L1255.38 725.886 L1262.53 746.903 L1269.68 766.881 L1276.83 786.294 L1283.98 805.877 L1291.13 826.392 L1298.28 848.401 L1305.43 872.059 L1312.58 896.977 
  L1319.73 922.296 L1326.88 947.085 L1334.03 970.852 L1341.18 993.744 L1348.33 1016.25 L1355.48 1038.7 L1362.63 1060.94 L1369.78 1082.47 L1376.93 1102.72 L1384.08 1121.26 
  L1384.08 1445.72 L1376.93 1445.72 L1369.78 1445.72 L1362.63 1445.72 L1355.48 1445.72 L1348.33 1445.72 L1341.18 1445.72 L1334.03 1445.72 L1326.88 1445.72 L1319.73 1445.72 
  L1312.58 1445.72 L1305.43 1445.72 L1298.28 1445.72 L1291.13 1445.72 L1283.98 1445.72 L1276.83 1445.72 L1269.68 1445.72 L1262.53 1445.72 L1255.38 1445.72 L1248.23 1445.72 
  L1241.08 1445.72 L1233.93 1445.72 L1226.78 1445.72 L1219.63 1445.72 L1212.48 1445.72 L1205.33 1445.72 L1198.18 1445.72 L1191.03 1445.72 L1183.88 1445.72 L1176.73 1445.72 
  L1169.58 1445.72 L1162.43 1445.72 L1155.28 1445.72 L1148.13 1445.72 L1140.98 1445.72 L1133.83 1445.72 L1126.68 1445.72 L1119.53 1445.72 L1112.38 1445.72 L1105.23 1445.72 
  L1098.08 1445.72 L1090.93 1445.72 L1083.78 1445.72 L1076.63 1445.72 L1069.48 1445.72 L1062.33 1445.72 L1055.18 1445.72 L1048.03 1445.72 L1040.88 1445.72 L1033.73 1445.72 
  L1026.58 1445.72 L1019.43 1445.72 L1012.28 1445.72 L1005.13 1445.72 L997.975 1445.72 L990.825 1445.72 L983.675 1445.72 L976.525 1445.72 L969.375 1445.72 L962.225 1445.72 
  L955.075 1445.72 L947.925 1445.72 L940.775 1445.72 L933.625 1445.72 L926.475 1445.72 L919.325 1445.72 L912.175 1445.72 L905.025 1445.72 L897.875 1445.72 L890.725 1445.72 
  L883.575 1445.72 L876.425 1445.72 L869.275 1445.72 L862.125 1445.72 L854.975 1445.72 L847.824 1445.72 L840.674 1445.72 L833.524 1445.72 L826.374 1445.72 L819.224 1445.72 
  L812.074 1445.72 L804.924 1445.72 L797.774 1445.72 L790.624 1445.72 L783.474 1445.72 L776.324 1445.72 L769.174 1445.72 L762.024 1445.72 L754.874 1445.72 L747.724 1445.72 
  L740.574 1445.72 L733.424 1445.72 L726.274 1445.72 L719.124 1445.72 L711.974 1445.72 L704.824 1445.72 L697.674 1445.72 L690.524 1445.72 L683.373 1445.72 L676.223 1445.72 
   Z
  " fill="#008000" fill-rule="evenodd" fill-opacity="0.5"/>
<polyline clip-path="url(#clip032)" style="stroke:#008000; stroke-linecap:round; stroke-linejoin:round; stroke-width:4; stroke-opacity:1; fill:none" points="
  676.223,1085.14 683.373,1066.47 690.524,1047.04 697.674,1026.84 704.824,1005.81 711.974,983.717 719.124,960.214 726.274,935.036 733.424,908.189 740.574,880.118 
  747.724,851.721 754.874,824.09 762.024,798.03 769.174,773.552 776.324,749.701 783.474,724.872 790.624,697.515 797.774,666.836 804.924,633.118 812.074,597.481 
  819.224,561.263 826.374,525.451 833.524,490.481 840.674,456.42 847.824,423.275 854.975,391.151 862.125,360.223 869.275,330.672 876.425,302.703 883.575,276.535 
  890.725,252.266 897.875,229.726 905.025,208.624 912.175,188.964 919.325,171.322 926.475,156.56 933.625,145.096 940.775,136.329 947.925,128.738 955.075,120.675 
  962.225,111.35 969.375,101.437 976.525,92.8883 983.675,87.9763 990.825,87.9925 997.975,92.3672 1005.13,98.8141 1012.28,104.442 1019.43,107.1 1026.58,106.161 
  1033.73,102.514 1040.88,98.0888 1048.03,95.2391 1055.18,96.1058 1062.33,101.982 1069.48,112.916 1076.63,127.799 1083.78,144.923 1090.93,162.6 1098.08,179.511 
  1105.23,194.762 1112.38,207.948 1119.53,219.467 1126.68,230.88 1133.83,244.856 1140.98,264.321 1148.13,291.091 1155.28,324.835 1162.43,363.141 1169.58,402.637 
  1176.73,440.384 1183.88,474.721 1191.03,505.38 1198.18,533.077 1205.33,558.92 1212.48,583.873 1219.63,608.473 1226.78,632.864 1233.93,656.979 1241.08,680.678 
  1248.23,703.742 1255.38,725.886 1262.53,746.903 1269.68,766.881 1276.83,786.294 1283.98,805.877 1291.13,826.392 1298.28,848.401 1305.43,872.059 1312.58,896.977 
  1319.73,922.296 1326.88,947.085 1334.03,970.852 1341.18,993.744 1348.33,1016.25 1355.48,1038.7 1362.63,1060.94 1369.78,1082.47 1376.93,1102.72 1384.08,1121.26 
  
  "/>
<path clip-path="url(#clip032)" d="
M1384.08 1121.26 L1393.23 1142.17 L1402.38 1160.25 L1411.53 1176.9 L1420.69 1194.16 L1429.84 1213.21 L1438.99 1233.41 L1448.14 1252.68 L1457.3 1269.07 L1466.45 1281.77 
  L1475.6 1291.36 L1484.75 1299.31 L1493.9 1307.1 L1503.06 1315.51 L1512.21 1324.73 L1521.36 1334.81 L1530.51 1345.68 L1539.67 1356.81 L1548.82 1367.25 L1557.97 1376.08 
  L1567.12 1382.95 L1576.28 1388.25 L1585.43 1392.71 L1594.58 1396.97 L1603.73 1401.29 L1612.88 1405.59 L1622.04 1409.65 L1631.19 1413.27 L1640.34 1416.48 L1649.49 1419.6 
  L1658.65 1422.88 L1667.8 1426.24 L1676.95 1429.34 L1686.1 1431.87 L1695.25 1433.85 L1704.41 1435.46 L1713.56 1436.84 L1722.71 1437.93 L1731.86 1438.65 L1741.02 1439.04 
  L1750.17 1439.33 L1759.32 1439.76 L1768.47 1440.46 L1777.62 1441.35 L1786.78 1442.29 L1795.93 1443.1 L1805.08 1443.69 L1814.23 1444.05 L1823.39 1444.22 L1832.54 1444.27 
  L1841.69 1444.24 L1850.84 1444.2 L1859.99 1444.17 L1869.15 1444.17 L1878.3 1444.15 L1887.45 1444.04 L1896.6 1443.86 L1905.76 1443.67 L1914.91 1443.57 L1924.06 1443.63 
  L1933.21 1443.79 L1942.36 1443.98 L1951.52 1444.16 L1960.67 1444.3 L1969.82 1444.39 L1978.97 1444.37 L1988.13 1444.27 L1997.28 1444.17 L2006.43 1444.15 L2015.58 1444.16 
  L2024.74 1444.08 L2033.89 1443.75 L2043.04 1443.18 L2052.19 1442.46 L2061.34 1441.77 L2070.5 1441.28 L2079.65 1441.13 L2088.8 1441.33 L2097.95 1441.79 L2107.11 1442.39 
  L2116.26 1442.98 L2125.41 1443.45 L2134.56 1443.75 L2143.71 1443.89 L2152.87 1443.96 L2162.02 1444.06 L2171.17 1444.2 L2180.32 1444.32 L2189.48 1444.39 L2198.63 1444.42 
  L2207.78 1444.46 L2216.93 1444.51 L2226.08 1444.58 L2235.24 1444.66 L2244.39 1444.76 L2253.54 1444.89 L2262.69 1445.03 L2271.85 1445.14 L2281 1445.21 L2290.15 1445.29 
  L2290.15 1445.72 L2281 1445.72 L2271.85 1445.72 L2262.69 1445.72 L2253.54 1445.72 L2244.39 1445.72 L2235.24 1445.72 L2226.08 1445.72 L2216.93 1445.72 L2207.78 1445.72 
  L2198.63 1445.72 L2189.48 1445.72 L2180.32 1445.72 L2171.17 1445.72 L2162.02 1445.72 L2152.87 1445.72 L2143.71 1445.72 L2134.56 1445.72 L2125.41 1445.72 L2116.26 1445.72 
  L2107.11 1445.72 L2097.95 1445.72 L2088.8 1445.72 L2079.65 1445.72 L2070.5 1445.72 L2061.34 1445.72 L2052.19 1445.72 L2043.04 1445.72 L2033.89 1445.72 L2024.74 1445.72 
  L2015.58 1445.72 L2006.43 1445.72 L1997.28 1445.72 L1988.13 1445.72 L1978.97 1445.72 L1969.82 1445.72 L1960.67 1445.72 L1951.52 1445.72 L1942.36 1445.72 L1933.21 1445.72 
  L1924.06 1445.72 L1914.91 1445.72 L1905.76 1445.72 L1896.6 1445.72 L1887.45 1445.72 L1878.3 1445.72 L1869.15 1445.72 L1859.99 1445.72 L1850.84 1445.72 L1841.69 1445.72 
  L1832.54 1445.72 L1823.39 1445.72 L1814.23 1445.72 L1805.08 1445.72 L1795.93 1445.72 L1786.78 1445.72 L1777.62 1445.72 L1768.47 1445.72 L1759.32 1445.72 L1750.17 1445.72 
  L1741.02 1445.72 L1731.86 1445.72 L1722.71 1445.72 L1713.56 1445.72 L1704.41 1445.72 L1695.25 1445.72 L1686.1 1445.72 L1676.95 1445.72 L1667.8 1445.72 L1658.65 1445.72 
  L1649.49 1445.72 L1640.34 1445.72 L1631.19 1445.72 L1622.04 1445.72 L1612.88 1445.72 L1603.73 1445.72 L1594.58 1445.72 L1585.43 1445.72 L1576.28 1445.72 L1567.12 1445.72 
  L1557.97 1445.72 L1548.82 1445.72 L1539.67 1445.72 L1530.51 1445.72 L1521.36 1445.72 L1512.21 1445.72 L1503.06 1445.72 L1493.9 1445.72 L1484.75 1445.72 L1475.6 1445.72 
  L1466.45 1445.72 L1457.3 1445.72 L1448.14 1445.72 L1438.99 1445.72 L1429.84 1445.72 L1420.69 1445.72 L1411.53 1445.72 L1402.38 1445.72 L1393.23 1445.72 L1384.08 1445.72 
   Z
  " fill="#ffa500" fill-rule="evenodd" fill-opacity="0.5"/>
<polyline clip-path="url(#clip032)" style="stroke:#ffa500; stroke-linecap:round; stroke-linejoin:round; stroke-width:4; stroke-opacity:1; fill:none" points="
  1384.08,1121.26 1393.23,1142.17 1402.38,1160.25 1411.53,1176.9 1420.69,1194.16 1429.84,1213.21 1438.99,1233.41 1448.14,1252.68 1457.3,1269.07 1466.45,1281.77 
  1475.6,1291.36 1484.75,1299.31 1493.9,1307.1 1503.06,1315.51 1512.21,1324.73 1521.36,1334.81 1530.51,1345.68 1539.67,1356.81 1548.82,1367.25 1557.97,1376.08 
  1567.12,1382.95 1576.28,1388.25 1585.43,1392.71 1594.58,1396.97 1603.73,1401.29 1612.88,1405.59 1622.04,1409.65 1631.19,1413.27 1640.34,1416.48 1649.49,1419.6 
  1658.65,1422.88 1667.8,1426.24 1676.95,1429.34 1686.1,1431.87 1695.25,1433.85 1704.41,1435.46 1713.56,1436.84 1722.71,1437.93 1731.86,1438.65 1741.02,1439.04 
  1750.17,1439.33 1759.32,1439.76 1768.47,1440.46 1777.62,1441.35 1786.78,1442.29 1795.93,1443.1 1805.08,1443.69 1814.23,1444.05 1823.39,1444.22 1832.54,1444.27 
  1841.69,1444.24 1850.84,1444.2 1859.99,1444.17 1869.15,1444.17 1878.3,1444.15 1887.45,1444.04 1896.6,1443.86 1905.76,1443.67 1914.91,1443.57 1924.06,1443.63 
  1933.21,1443.79 1942.36,1443.98 1951.52,1444.16 1960.67,1444.3 1969.82,1444.39 1978.97,1444.37 1988.13,1444.27 1997.28,1444.17 2006.43,1444.15 2015.58,1444.16 
  2024.74,1444.08 2033.89,1443.75 2043.04,1443.18 2052.19,1442.46 2061.34,1441.77 2070.5,1441.28 2079.65,1441.13 2088.8,1441.33 2097.95,1441.79 2107.11,1442.39 
  2116.26,1442.98 2125.41,1443.45 2134.56,1443.75 2143.71,1443.89 2152.87,1443.96 2162.02,1444.06 2171.17,1444.2 2180.32,1444.32 2189.48,1444.39 2198.63,1444.42 
  2207.78,1444.46 2216.93,1444.51 2226.08,1444.58 2235.24,1444.66 2244.39,1444.76 2253.54,1444.89 2262.69,1445.03 2271.85,1445.14 2281,1445.21 2290.15,1445.29 
  
  "/>
<polyline clip-path="url(#clip032)" style="stroke:#0000ff; stroke-linecap:round; stroke-linejoin:round; stroke-width:4; stroke-opacity:1; fill:none" points="
  1024.67,1445.72 1024.67,106.736 
  "/>
<polyline clip-path="url(#clip032)" style="stroke:#000000; stroke-linecap:round; stroke-linejoin:round; stroke-width:4; stroke-opacity:1; fill:none" points="
  1020.29,1445.72 1020.29,107.173 
  "/>
<path clip-path="url(#clip030)" d="
M1466.36 406.258 L2279.02 406.258 L2279.02 95.2176 L1466.36 95.2176  Z
  " fill="#ffffff" fill-rule="evenodd" fill-opacity="1"/>
<polyline clip-path="url(#clip030)" style="stroke:#000000; stroke-linecap:round; stroke-linejoin:round; stroke-width:4; stroke-opacity:1; fill:none" points="
  1466.36,406.258 2279.02,406.258 2279.02,95.2176 1466.36,95.2176 1466.36,406.258 
  "/>
<path clip-path="url(#clip030)" d="
M1490.94 167.794 L1638.41 167.794 L1638.41 126.322 L1490.94 126.322 L1490.94 167.794  Z
  " fill="#ffa500" fill-rule="evenodd" fill-opacity="0.5"/>
<polyline clip-path="url(#clip030)" style="stroke:#ffa500; stroke-linecap:round; stroke-linejoin:round; stroke-width:4; stroke-opacity:1; fill:none" points="
  1490.94,126.322 1638.41,126.322 
  "/>
<path clip-path="url(#clip030)" d="M1667.39 151.398 Q1667.39 156.097 1669.31 158.782 Q1671.25 161.444 1674.63 161.444 Q1678.01 161.444 1679.95 158.782 Q1681.9 156.097 1681.9 151.398 Q1681.9 146.699 1679.95 144.037 Q1678.01 141.352 1674.63 141.352 Q1671.25 141.352 1669.31 144.037 Q1667.39 146.699 1667.39 151.398 M1681.9 160.449 Q1680.56 162.763 1678.5 163.898 Q1676.46 165.009 1673.59 165.009 Q1668.89 165.009 1665.93 161.259 Q1662.99 157.509 1662.99 151.398 Q1662.99 145.287 1665.93 141.537 Q1668.89 137.787 1673.59 137.787 Q1676.46 137.787 1678.5 138.921 Q1680.56 140.032 1681.9 142.347 L1681.9 138.412 L1686.16 138.412 L1686.16 174.199 L1681.9 174.199 L1681.9 160.449 Z" fill="#000000" fill-rule="evenodd" fill-opacity="1" /><path clip-path="url(#clip030)" d="M1705.53 132.856 Q1701.92 132.856 1700.09 136.421 Q1698.29 139.963 1698.29 147.092 Q1698.29 154.199 1700.09 157.764 Q1701.92 161.305 1705.53 161.305 Q1709.17 161.305 1710.97 157.764 Q1712.8 154.199 1712.8 147.092 Q1712.8 139.963 1710.97 136.421 Q1709.17 132.856 1705.53 132.856 M1705.53 129.153 Q1711.34 129.153 1714.4 133.759 Q1717.48 138.342 1717.48 147.092 Q1717.48 155.819 1714.4 160.426 Q1711.34 165.009 1705.53 165.009 Q1699.72 165.009 1696.64 160.426 Q1693.59 155.819 1693.59 147.092 Q1693.59 138.342 1696.64 133.759 Q1699.72 129.153 1705.53 129.153 Z" fill="#000000" fill-rule="evenodd" fill-opacity="1" /><path clip-path="url(#clip030)" d="M1725.74 129.778 L1744.1 129.778 L1744.1 133.713 L1730.02 133.713 L1730.02 142.185 Q1731.04 141.838 1732.06 141.676 Q1733.08 141.49 1734.1 141.49 Q1739.88 141.49 1743.26 144.662 Q1746.64 147.833 1746.64 153.25 Q1746.64 158.828 1743.17 161.93 Q1739.7 165.009 1733.38 165.009 Q1731.2 165.009 1728.94 164.638 Q1726.69 164.268 1724.28 163.527 L1724.28 158.828 Q1726.37 159.963 1728.59 160.518 Q1730.81 161.074 1733.29 161.074 Q1737.29 161.074 1739.63 158.967 Q1741.97 156.861 1741.97 153.25 Q1741.97 149.639 1739.63 147.532 Q1737.29 145.426 1733.29 145.426 Q1731.41 145.426 1729.54 145.842 Q1727.69 146.259 1725.74 147.139 L1725.74 129.778 Z" fill="#000000" fill-rule="evenodd" fill-opacity="1" /><path clip-path="url(#clip030)" d="
M1490.94 219.634 L1638.41 219.634 L1638.41 178.162 L1490.94 178.162 L1490.94 219.634  Z
  " fill="#008000" fill-rule="evenodd" fill-opacity="0.5"/>
<polyline clip-path="url(#clip030)" style="stroke:#008000; stroke-linecap:round; stroke-linejoin:round; stroke-width:4; stroke-opacity:1; fill:none" points="
  1490.94,178.162 1638.41,178.162 
  "/>
<path clip-path="url(#clip030)" d="M1665.21 215.46 L1665.21 211.201 Q1666.97 212.034 1668.77 212.474 Q1670.58 212.914 1672.32 212.914 Q1676.95 212.914 1679.38 209.812 Q1681.83 206.687 1682.18 200.344 Q1680.83 202.335 1678.77 203.4 Q1676.71 204.465 1674.21 204.465 Q1669.03 204.465 1666 201.34 Q1662.99 198.192 1662.99 192.752 Q1662.99 187.428 1666.14 184.21 Q1669.28 180.993 1674.51 180.993 Q1680.51 180.993 1683.66 185.599 Q1686.83 190.182 1686.83 198.932 Q1686.83 207.104 1682.94 211.988 Q1679.07 216.849 1672.52 216.849 Q1670.76 216.849 1668.96 216.502 Q1667.15 216.154 1665.21 215.46 M1674.51 200.807 Q1677.66 200.807 1679.49 198.654 Q1681.34 196.502 1681.34 192.752 Q1681.34 189.025 1679.49 186.872 Q1677.66 184.696 1674.51 184.696 Q1671.37 184.696 1669.51 186.872 Q1667.69 189.025 1667.69 192.752 Q1667.69 196.502 1669.51 198.654 Q1671.37 200.807 1674.51 200.807 Z" fill="#000000" fill-rule="evenodd" fill-opacity="1" /><path clip-path="url(#clip030)" d="M1705.23 184.696 Q1701.62 184.696 1699.79 188.261 Q1697.99 191.803 1697.99 198.932 Q1697.99 206.039 1699.79 209.604 Q1701.62 213.145 1705.23 213.145 Q1708.87 213.145 1710.67 209.604 Q1712.5 206.039 1712.5 198.932 Q1712.5 191.803 1710.67 188.261 Q1708.87 184.696 1705.23 184.696 M1705.23 180.993 Q1711.04 180.993 1714.1 185.599 Q1717.18 190.182 1717.18 198.932 Q1717.18 207.659 1714.1 212.266 Q1711.04 216.849 1705.23 216.849 Q1699.42 216.849 1696.34 212.266 Q1693.29 207.659 1693.29 198.932 Q1693.29 190.182 1696.34 185.599 Q1699.42 180.993 1705.23 180.993 Z" fill="#000000" fill-rule="evenodd" fill-opacity="1" /><path clip-path="url(#clip030)" d="M1754.79 200.969 Q1752.78 200.969 1751.62 202.682 Q1750.49 204.395 1750.49 207.451 Q1750.49 210.46 1751.62 212.196 Q1752.78 213.909 1754.79 213.909 Q1756.76 213.909 1757.89 212.196 Q1759.05 210.46 1759.05 207.451 Q1759.05 204.418 1757.89 202.705 Q1756.76 200.969 1754.79 200.969 M1754.79 198.03 Q1758.45 198.03 1760.6 200.576 Q1762.75 203.122 1762.75 207.451 Q1762.75 211.779 1760.58 214.326 Q1758.43 216.849 1754.79 216.849 Q1751.09 216.849 1748.94 214.326 Q1746.78 211.779 1746.78 207.451 Q1746.78 203.099 1748.94 200.576 Q1751.11 198.03 1754.79 198.03 M1730.9 183.932 Q1728.91 183.932 1727.76 185.668 Q1726.62 187.381 1726.62 190.391 Q1726.62 193.446 1727.76 195.159 Q1728.89 196.872 1730.9 196.872 Q1732.92 196.872 1734.05 195.159 Q1735.21 193.446 1735.21 190.391 Q1735.21 187.405 1734.05 185.668 Q1732.89 183.932 1730.9 183.932 M1751.81 180.993 L1755.51 180.993 L1733.89 216.849 L1730.19 216.849 L1751.81 180.993 M1730.9 180.993 Q1734.56 180.993 1736.74 183.539 Q1738.91 186.062 1738.91 190.391 Q1738.91 194.766 1736.74 197.289 Q1734.58 199.812 1730.9 199.812 Q1727.22 199.812 1725.07 197.289 Q1722.94 194.742 1722.94 190.391 Q1722.94 186.085 1725.09 183.539 Q1727.25 180.993 1730.9 180.993 Z" fill="#000000" fill-rule="evenodd" fill-opacity="1" /><path clip-path="url(#clip030)" d="M1806.46 200.529 L1806.46 216.178 L1802.2 216.178 L1802.2 200.668 Q1802.2 196.988 1800.76 195.159 Q1799.33 193.33 1796.46 193.33 Q1793.01 193.33 1791.02 195.53 Q1789.03 197.729 1789.03 201.525 L1789.03 216.178 L1784.75 216.178 L1784.75 190.252 L1789.03 190.252 L1789.03 194.28 Q1790.56 191.942 1792.62 190.784 Q1794.7 189.627 1797.41 189.627 Q1801.88 189.627 1804.17 192.405 Q1806.46 195.159 1806.46 200.529 Z" fill="#000000" fill-rule="evenodd" fill-opacity="1" /><path clip-path="url(#clip030)" d="M1825 193.238 Q1821.57 193.238 1819.58 195.923 Q1817.59 198.585 1817.59 203.238 Q1817.59 207.891 1819.56 210.576 Q1821.55 213.238 1825 213.238 Q1828.4 213.238 1830.39 210.553 Q1832.38 207.867 1832.38 203.238 Q1832.38 198.631 1830.39 195.946 Q1828.4 193.238 1825 193.238 M1825 189.627 Q1830.56 189.627 1833.73 193.238 Q1836.9 196.849 1836.9 203.238 Q1836.9 209.604 1833.73 213.238 Q1830.56 216.849 1825 216.849 Q1819.42 216.849 1816.25 213.238 Q1813.1 209.604 1813.1 203.238 Q1813.1 196.849 1816.25 193.238 Q1819.42 189.627 1825 189.627 Z" fill="#000000" fill-rule="evenodd" fill-opacity="1" /><path clip-path="url(#clip030)" d="M1865.51 200.529 L1865.51 216.178 L1861.25 216.178 L1861.25 200.668 Q1861.25 196.988 1859.81 195.159 Q1858.38 193.33 1855.51 193.33 Q1852.06 193.33 1850.07 195.53 Q1848.08 197.729 1848.08 201.525 L1848.08 216.178 L1843.8 216.178 L1843.8 190.252 L1848.08 190.252 L1848.08 194.28 Q1849.61 191.942 1851.67 190.784 Q1853.75 189.627 1856.46 189.627 Q1860.93 189.627 1863.22 192.405 Q1865.51 195.159 1865.51 200.529 Z" fill="#000000" fill-rule="evenodd" fill-opacity="1" /><path clip-path="url(#clip030)" d="M1871.85 201.293 L1884.33 201.293 L1884.33 205.09 L1871.85 205.09 L1871.85 201.293 Z" fill="#000000" fill-rule="evenodd" fill-opacity="1" /><path clip-path="url(#clip030)" d="M1906.13 194.233 Q1905.42 193.817 1904.56 193.631 Q1903.73 193.423 1902.71 193.423 Q1899.1 193.423 1897.15 195.784 Q1895.23 198.122 1895.23 202.52 L1895.23 216.178 L1890.95 216.178 L1890.95 190.252 L1895.23 190.252 L1895.23 194.28 Q1896.57 191.918 1898.73 190.784 Q1900.88 189.627 1903.96 189.627 Q1904.4 189.627 1904.93 189.696 Q1905.46 189.743 1906.11 189.858 L1906.13 194.233 Z" fill="#000000" fill-rule="evenodd" fill-opacity="1" /><path clip-path="url(#clip030)" d="M1931.74 202.15 L1931.74 204.233 L1912.15 204.233 Q1912.43 208.631 1914.79 210.946 Q1917.18 213.238 1921.41 213.238 Q1923.87 213.238 1926.16 212.636 Q1928.47 212.034 1930.74 210.83 L1930.74 214.858 Q1928.45 215.83 1926.04 216.34 Q1923.63 216.849 1921.16 216.849 Q1914.95 216.849 1911.32 213.238 Q1907.71 209.627 1907.71 203.469 Q1907.71 197.104 1911.13 193.377 Q1914.58 189.627 1920.42 189.627 Q1925.65 189.627 1928.68 193.006 Q1931.74 196.363 1931.74 202.15 M1927.48 200.9 Q1927.43 197.405 1925.51 195.321 Q1923.61 193.238 1920.46 193.238 Q1916.9 193.238 1914.74 195.252 Q1912.62 197.266 1912.29 200.923 L1927.48 200.9 Z" fill="#000000" fill-rule="evenodd" fill-opacity="1" /><path clip-path="url(#clip030)" d="M1938.73 190.252 L1942.99 190.252 L1942.99 216.641 Q1942.99 221.594 1941.09 223.816 Q1939.21 226.039 1935.02 226.039 L1933.4 226.039 L1933.4 222.428 L1934.54 222.428 Q1936.97 222.428 1937.85 221.293 Q1938.73 220.182 1938.73 216.641 L1938.73 190.252 M1938.73 180.159 L1942.99 180.159 L1942.99 185.553 L1938.73 185.553 L1938.73 180.159 Z" fill="#000000" fill-rule="evenodd" fill-opacity="1" /><path clip-path="url(#clip030)" d="M1974.07 202.15 L1974.07 204.233 L1954.49 204.233 Q1954.77 208.631 1957.13 210.946 Q1959.51 213.238 1963.75 213.238 Q1966.2 213.238 1968.49 212.636 Q1970.81 212.034 1973.08 210.83 L1973.08 214.858 Q1970.79 215.83 1968.38 216.34 Q1965.97 216.849 1963.49 216.849 Q1957.29 216.849 1953.66 213.238 Q1950.05 209.627 1950.05 203.469 Q1950.05 197.104 1953.47 193.377 Q1956.92 189.627 1962.75 189.627 Q1967.99 189.627 1971.02 193.006 Q1974.07 196.363 1974.07 202.15 M1969.81 200.9 Q1969.77 197.405 1967.85 195.321 Q1965.95 193.238 1962.8 193.238 Q1959.24 193.238 1957.08 195.252 Q1954.95 197.266 1954.63 200.923 L1969.81 200.9 Z" fill="#000000" fill-rule="evenodd" fill-opacity="1" /><path clip-path="url(#clip030)" d="M1999.72 191.247 L1999.72 195.229 Q1997.92 194.233 1996.09 193.747 Q1994.28 193.238 1992.43 193.238 Q1988.29 193.238 1985.99 195.877 Q1983.7 198.492 1983.7 203.238 Q1983.7 207.983 1985.99 210.622 Q1988.29 213.238 1992.43 213.238 Q1994.28 213.238 1996.09 212.752 Q1997.92 212.242 1999.72 211.247 L1999.72 215.182 Q1997.94 216.016 1996.02 216.432 Q1994.12 216.849 1991.97 216.849 Q1986.11 216.849 1982.66 213.168 Q1979.21 209.488 1979.21 203.238 Q1979.21 196.895 1982.68 193.261 Q1986.18 189.627 1992.24 189.627 Q1994.21 189.627 1996.09 190.043 Q1997.96 190.437 1999.72 191.247 Z" fill="#000000" fill-rule="evenodd" fill-opacity="1" /><path clip-path="url(#clip030)" d="M2011.34 182.891 L2011.34 190.252 L2020.11 190.252 L2020.11 193.562 L2011.34 193.562 L2011.34 207.636 Q2011.34 210.807 2012.2 211.71 Q2013.08 212.613 2015.74 212.613 L2020.11 212.613 L2020.11 216.178 L2015.74 216.178 Q2010.81 216.178 2008.93 214.349 Q2007.06 212.497 2007.06 207.636 L2007.06 193.562 L2003.93 193.562 L2003.93 190.252 L2007.06 190.252 L2007.06 182.891 L2011.34 182.891 Z" fill="#000000" fill-rule="evenodd" fill-opacity="1" /><path clip-path="url(#clip030)" d="M2025.72 190.252 L2029.98 190.252 L2029.98 216.178 L2025.72 216.178 L2025.72 190.252 M2025.72 180.159 L2029.98 180.159 L2029.98 185.553 L2025.72 185.553 L2025.72 180.159 Z" fill="#000000" fill-rule="evenodd" fill-opacity="1" /><path clip-path="url(#clip030)" d="M2048.93 193.238 Q2045.51 193.238 2043.52 195.923 Q2041.53 198.585 2041.53 203.238 Q2041.53 207.891 2043.49 210.576 Q2045.48 213.238 2048.93 213.238 Q2052.34 213.238 2054.33 210.553 Q2056.32 207.867 2056.32 203.238 Q2056.32 198.631 2054.33 195.946 Q2052.34 193.238 2048.93 193.238 M2048.93 189.627 Q2054.49 189.627 2057.66 193.238 Q2060.83 196.849 2060.83 203.238 Q2060.83 209.604 2057.66 213.238 Q2054.49 216.849 2048.93 216.849 Q2043.36 216.849 2040.18 213.238 Q2037.04 209.604 2037.04 203.238 Q2037.04 196.849 2040.18 193.238 Q2043.36 189.627 2048.93 189.627 Z" fill="#000000" fill-rule="evenodd" fill-opacity="1" /><path clip-path="url(#clip030)" d="M2089.44 200.529 L2089.44 216.178 L2085.18 216.178 L2085.18 200.668 Q2085.18 196.988 2083.75 195.159 Q2082.31 193.33 2079.44 193.33 Q2075.99 193.33 2074 195.53 Q2072.01 197.729 2072.01 201.525 L2072.01 216.178 L2067.73 216.178 L2067.73 190.252 L2072.01 190.252 L2072.01 194.28 Q2073.54 191.942 2075.6 190.784 Q2077.68 189.627 2080.39 189.627 Q2084.86 189.627 2087.15 192.405 Q2089.44 195.159 2089.44 200.529 Z" fill="#000000" fill-rule="evenodd" fill-opacity="1" /><path clip-path="url(#clip030)" d="M2128.03 194.233 Q2127.31 193.817 2126.46 193.631 Q2125.62 193.423 2124.6 193.423 Q2120.99 193.423 2119.05 195.784 Q2117.13 198.122 2117.13 202.52 L2117.13 216.178 L2112.85 216.178 L2112.85 190.252 L2117.13 190.252 L2117.13 194.28 Q2118.47 191.918 2120.62 190.784 Q2122.78 189.627 2125.85 189.627 Q2126.29 189.627 2126.83 189.696 Q2127.36 189.743 2128.01 189.858 L2128.03 194.233 Z" fill="#000000" fill-rule="evenodd" fill-opacity="1" /><path clip-path="url(#clip030)" d="M2153.63 202.15 L2153.63 204.233 L2134.05 204.233 Q2134.33 208.631 2136.69 210.946 Q2139.07 213.238 2143.31 213.238 Q2145.76 213.238 2148.05 212.636 Q2150.37 212.034 2152.64 210.83 L2152.64 214.858 Q2150.35 215.83 2147.94 216.34 Q2145.53 216.849 2143.05 216.849 Q2136.85 216.849 2133.22 213.238 Q2129.6 209.627 2129.6 203.469 Q2129.6 197.104 2133.03 193.377 Q2136.48 189.627 2142.31 189.627 Q2147.54 189.627 2150.58 193.006 Q2153.63 196.363 2153.63 202.15 M2149.37 200.9 Q2149.33 197.405 2147.41 195.321 Q2145.51 193.238 2142.36 193.238 Q2138.79 193.238 2136.64 195.252 Q2134.51 197.266 2134.19 200.923 L2149.37 200.9 Z" fill="#000000" fill-rule="evenodd" fill-opacity="1" /><path clip-path="url(#clip030)" d="M2177.68 202.914 Q2177.68 198.284 2175.76 195.738 Q2173.86 193.192 2170.41 193.192 Q2166.99 193.192 2165.07 195.738 Q2163.17 198.284 2163.17 202.914 Q2163.17 207.52 2165.07 210.066 Q2166.99 212.613 2170.41 212.613 Q2173.86 212.613 2175.76 210.066 Q2177.68 207.52 2177.68 202.914 M2181.94 212.96 Q2181.94 219.58 2179 222.798 Q2176.06 226.039 2170 226.039 Q2167.75 226.039 2165.76 225.691 Q2163.77 225.367 2161.9 224.673 L2161.9 220.529 Q2163.77 221.548 2165.6 222.034 Q2167.43 222.52 2169.33 222.52 Q2173.52 222.52 2175.6 220.321 Q2177.68 218.145 2177.68 213.724 L2177.68 211.617 Q2176.36 213.909 2174.3 215.043 Q2172.24 216.178 2169.37 216.178 Q2164.6 216.178 2161.69 212.543 Q2158.77 208.909 2158.77 202.914 Q2158.77 196.895 2161.69 193.261 Q2164.6 189.627 2169.37 189.627 Q2172.24 189.627 2174.3 190.761 Q2176.36 191.895 2177.68 194.187 L2177.68 190.252 L2181.94 190.252 L2181.94 212.96 Z" fill="#000000" fill-rule="evenodd" fill-opacity="1" /><path clip-path="url(#clip030)" d="M2190.72 190.252 L2194.97 190.252 L2194.97 216.178 L2190.72 216.178 L2190.72 190.252 M2190.72 180.159 L2194.97 180.159 L2194.97 185.553 L2190.72 185.553 L2190.72 180.159 Z" fill="#000000" fill-rule="evenodd" fill-opacity="1" /><path clip-path="url(#clip030)" d="M2213.93 193.238 Q2210.51 193.238 2208.52 195.923 Q2206.53 198.585 2206.53 203.238 Q2206.53 207.891 2208.49 210.576 Q2210.48 213.238 2213.93 213.238 Q2217.34 213.238 2219.33 210.553 Q2221.32 207.867 2221.32 203.238 Q2221.32 198.631 2219.33 195.946 Q2217.34 193.238 2213.93 193.238 M2213.93 189.627 Q2219.49 189.627 2222.66 193.238 Q2225.83 196.849 2225.83 203.238 Q2225.83 209.604 2222.66 213.238 Q2219.49 216.849 2213.93 216.849 Q2208.35 216.849 2205.18 213.238 Q2202.03 209.604 2202.03 203.238 Q2202.03 196.849 2205.18 193.238 Q2208.35 189.627 2213.93 189.627 Z" fill="#000000" fill-rule="evenodd" fill-opacity="1" /><path clip-path="url(#clip030)" d="M2254.44 200.529 L2254.44 216.178 L2250.18 216.178 L2250.18 200.668 Q2250.18 196.988 2248.75 195.159 Q2247.31 193.33 2244.44 193.33 Q2240.99 193.33 2239 195.53 Q2237.01 197.729 2237.01 201.525 L2237.01 216.178 L2232.73 216.178 L2232.73 190.252 L2237.01 190.252 L2237.01 194.28 Q2238.54 191.942 2240.6 190.784 Q2242.68 189.627 2245.39 189.627 Q2249.86 189.627 2252.15 192.405 Q2254.44 195.159 2254.44 200.529 Z" fill="#000000" fill-rule="evenodd" fill-opacity="1" /><path clip-path="url(#clip030)" d="
M1490.94 271.474 L1638.41 271.474 L1638.41 230.002 L1490.94 230.002 L1490.94 271.474  Z
  " fill="#ffa500" fill-rule="evenodd" fill-opacity="0.5"/>
<polyline clip-path="url(#clip030)" style="stroke:#ffa500; stroke-linecap:round; stroke-linejoin:round; stroke-width:4; stroke-opacity:1; fill:none" points="
  1490.94,230.002 1638.41,230.002 
  "/>
<path clip-path="url(#clip030)" d="M1667.39 255.078 Q1667.39 259.777 1669.31 262.462 Q1671.25 265.124 1674.63 265.124 Q1678.01 265.124 1679.95 262.462 Q1681.9 259.777 1681.9 255.078 Q1681.9 250.379 1679.95 247.717 Q1678.01 245.032 1674.63 245.032 Q1671.25 245.032 1669.31 247.717 Q1667.39 250.379 1667.39 255.078 M1681.9 264.129 Q1680.56 266.443 1678.5 267.578 Q1676.46 268.689 1673.59 268.689 Q1668.89 268.689 1665.93 264.939 Q1662.99 261.189 1662.99 255.078 Q1662.99 248.967 1665.93 245.217 Q1668.89 241.467 1673.59 241.467 Q1676.46 241.467 1678.5 242.601 Q1680.56 243.712 1681.9 246.027 L1681.9 242.092 L1686.16 242.092 L1686.16 277.879 L1681.9 277.879 L1681.9 264.129 Z" fill="#000000" fill-rule="evenodd" fill-opacity="1" /><path clip-path="url(#clip030)" d="M1695.67 267.3 L1695.67 263.041 Q1697.43 263.874 1699.24 264.314 Q1701.04 264.754 1702.78 264.754 Q1707.41 264.754 1709.84 261.652 Q1712.29 258.527 1712.64 252.184 Q1711.3 254.175 1709.24 255.24 Q1707.18 256.305 1704.68 256.305 Q1699.49 256.305 1696.46 253.18 Q1693.45 250.032 1693.45 244.592 Q1693.45 239.268 1696.6 236.05 Q1699.75 232.833 1704.98 232.833 Q1710.97 232.833 1714.12 237.439 Q1717.29 242.022 1717.29 250.772 Q1717.29 258.944 1713.4 263.828 Q1709.54 268.689 1702.99 268.689 Q1701.23 268.689 1699.42 268.342 Q1697.62 267.994 1695.67 267.3 M1704.98 252.647 Q1708.13 252.647 1709.95 250.494 Q1711.81 248.342 1711.81 244.592 Q1711.81 240.865 1709.95 238.712 Q1708.13 236.536 1704.98 236.536 Q1701.83 236.536 1699.98 238.712 Q1698.15 240.865 1698.15 244.592 Q1698.15 248.342 1699.98 250.494 Q1701.83 252.647 1704.98 252.647 Z" fill="#000000" fill-rule="evenodd" fill-opacity="1" /><path clip-path="url(#clip030)" d="M1725.74 233.458 L1744.1 233.458 L1744.1 237.393 L1730.02 237.393 L1730.02 245.865 Q1731.04 245.518 1732.06 245.356 Q1733.08 245.17 1734.1 245.17 Q1739.88 245.17 1743.26 248.342 Q1746.64 251.513 1746.64 256.93 Q1746.64 262.508 1743.17 265.61 Q1739.7 268.689 1733.38 268.689 Q1731.2 268.689 1728.94 268.318 Q1726.69 267.948 1724.28 267.207 L1724.28 262.508 Q1726.37 263.643 1728.59 264.198 Q1730.81 264.754 1733.29 264.754 Q1737.29 264.754 1739.63 262.647 Q1741.97 260.541 1741.97 256.93 Q1741.97 253.319 1739.63 251.212 Q1737.29 249.106 1733.29 249.106 Q1731.41 249.106 1729.54 249.522 Q1727.69 249.939 1725.74 250.819 L1725.74 233.458 Z" fill="#000000" fill-rule="evenodd" fill-opacity="1" /><polyline clip-path="url(#clip030)" style="stroke:#0000ff; stroke-linecap:round; stroke-linejoin:round; stroke-width:4; stroke-opacity:1; fill:none" points="
  1490.94,302.578 1638.41,302.578 
  "/>
<path clip-path="url(#clip030)" d="M1683.33 298.909 Q1684.93 296.038 1687.15 294.673 Q1689.38 293.307 1692.38 293.307 Q1696.44 293.307 1698.63 296.154 Q1700.83 298.978 1700.83 304.209 L1700.83 319.858 L1696.55 319.858 L1696.55 304.348 Q1696.55 300.622 1695.23 298.816 Q1693.91 297.01 1691.2 297.01 Q1687.89 297.01 1685.97 299.21 Q1684.05 301.409 1684.05 305.205 L1684.05 319.858 L1679.77 319.858 L1679.77 304.348 Q1679.77 300.598 1678.45 298.816 Q1677.13 297.01 1674.38 297.01 Q1671.11 297.01 1669.19 299.233 Q1667.27 301.432 1667.27 305.205 L1667.27 319.858 L1662.99 319.858 L1662.99 293.932 L1667.27 293.932 L1667.27 297.96 Q1668.73 295.575 1670.76 294.441 Q1672.8 293.307 1675.6 293.307 Q1678.43 293.307 1680.39 294.742 Q1682.38 296.177 1683.33 298.909 Z" fill="#000000" fill-rule="evenodd" fill-opacity="1" /><path clip-path="url(#clip030)" d="M1731.51 305.83 L1731.51 307.913 L1711.92 307.913 Q1712.2 312.311 1714.56 314.626 Q1716.94 316.918 1721.18 316.918 Q1723.63 316.918 1725.93 316.316 Q1728.24 315.714 1730.51 314.51 L1730.51 318.538 Q1728.22 319.51 1725.81 320.02 Q1723.4 320.529 1720.93 320.529 Q1714.72 320.529 1711.09 316.918 Q1707.48 313.307 1707.48 307.149 Q1707.48 300.784 1710.9 297.057 Q1714.35 293.307 1720.19 293.307 Q1725.42 293.307 1728.45 296.686 Q1731.51 300.043 1731.51 305.83 M1727.25 304.58 Q1727.2 301.085 1725.28 299.001 Q1723.38 296.918 1720.23 296.918 Q1716.67 296.918 1714.51 298.932 Q1712.38 300.946 1712.06 304.603 L1727.25 304.58 Z" fill="#000000" fill-rule="evenodd" fill-opacity="1" /><path clip-path="url(#clip030)" d="M1750.28 306.825 Q1745.12 306.825 1743.13 308.006 Q1741.13 309.186 1741.13 312.034 Q1741.13 314.302 1742.62 315.645 Q1744.12 316.964 1746.69 316.964 Q1750.23 316.964 1752.36 314.464 Q1754.51 311.941 1754.51 307.774 L1754.51 306.825 L1750.28 306.825 M1758.77 305.066 L1758.77 319.858 L1754.51 319.858 L1754.51 315.922 Q1753.06 318.283 1750.88 319.418 Q1748.7 320.529 1745.56 320.529 Q1741.57 320.529 1739.21 318.307 Q1736.88 316.061 1736.88 312.311 Q1736.88 307.936 1739.79 305.714 Q1742.73 303.492 1748.54 303.492 L1754.51 303.492 L1754.51 303.075 Q1754.51 300.135 1752.57 298.538 Q1750.65 296.918 1747.15 296.918 Q1744.93 296.918 1742.82 297.45 Q1740.72 297.983 1738.77 299.047 L1738.77 295.112 Q1741.11 294.21 1743.31 293.77 Q1745.51 293.307 1747.59 293.307 Q1753.22 293.307 1756 296.223 Q1758.77 299.14 1758.77 305.066 Z" fill="#000000" fill-rule="evenodd" fill-opacity="1" /><path clip-path="url(#clip030)" d="M1789.1 304.209 L1789.1 319.858 L1784.84 319.858 L1784.84 304.348 Q1784.84 300.668 1783.4 298.839 Q1781.97 297.01 1779.1 297.01 Q1775.65 297.01 1773.66 299.21 Q1771.67 301.409 1771.67 305.205 L1771.67 319.858 L1767.38 319.858 L1767.38 293.932 L1771.67 293.932 L1771.67 297.96 Q1773.19 295.622 1775.25 294.464 Q1777.34 293.307 1780.05 293.307 Q1784.51 293.307 1786.81 296.085 Q1789.1 298.839 1789.1 304.209 Z" fill="#000000" fill-rule="evenodd" fill-opacity="1" /><polyline clip-path="url(#clip030)" style="stroke:#000000; stroke-linecap:round; stroke-linejoin:round; stroke-width:4; stroke-opacity:1; fill:none" points="
  1490.94,354.418 1638.41,354.418 
  "/>
<path clip-path="url(#clip030)" d="M1683.33 350.749 Q1684.93 347.878 1687.15 346.513 Q1689.38 345.147 1692.38 345.147 Q1696.44 345.147 1698.63 347.994 Q1700.83 350.818 1700.83 356.049 L1700.83 371.698 L1696.55 371.698 L1696.55 356.188 Q1696.55 352.462 1695.23 350.656 Q1693.91 348.85 1691.2 348.85 Q1687.89 348.85 1685.97 351.05 Q1684.05 353.249 1684.05 357.045 L1684.05 371.698 L1679.77 371.698 L1679.77 356.188 Q1679.77 352.438 1678.45 350.656 Q1677.13 348.85 1674.38 348.85 Q1671.11 348.85 1669.19 351.073 Q1667.27 353.272 1667.27 357.045 L1667.27 371.698 L1662.99 371.698 L1662.99 345.772 L1667.27 345.772 L1667.27 349.8 Q1668.73 347.415 1670.76 346.281 Q1672.8 345.147 1675.6 345.147 Q1678.43 345.147 1680.39 346.582 Q1682.38 348.017 1683.33 350.749 Z" fill="#000000" fill-rule="evenodd" fill-opacity="1" /><path clip-path="url(#clip030)" d="M1731.51 357.67 L1731.51 359.753 L1711.92 359.753 Q1712.2 364.151 1714.56 366.466 Q1716.94 368.758 1721.18 368.758 Q1723.63 368.758 1725.93 368.156 Q1728.24 367.554 1730.51 366.35 L1730.51 370.378 Q1728.22 371.35 1725.81 371.86 Q1723.4 372.369 1720.93 372.369 Q1714.72 372.369 1711.09 368.758 Q1707.48 365.147 1707.48 358.989 Q1707.48 352.624 1710.9 348.897 Q1714.35 345.147 1720.19 345.147 Q1725.42 345.147 1728.45 348.526 Q1731.51 351.883 1731.51 357.67 M1727.25 356.42 Q1727.2 352.925 1725.28 350.841 Q1723.38 348.758 1720.23 348.758 Q1716.67 348.758 1714.51 350.772 Q1712.38 352.786 1712.06 356.443 L1727.25 356.42 Z" fill="#000000" fill-rule="evenodd" fill-opacity="1" /><path clip-path="url(#clip030)" d="M1755.56 349.707 L1755.56 335.679 L1759.82 335.679 L1759.82 371.698 L1755.56 371.698 L1755.56 367.809 Q1754.21 370.123 1752.15 371.258 Q1750.12 372.369 1747.25 372.369 Q1742.55 372.369 1739.58 368.619 Q1736.64 364.869 1736.64 358.758 Q1736.64 352.647 1739.58 348.897 Q1742.55 345.147 1747.25 345.147 Q1750.12 345.147 1752.15 346.281 Q1754.21 347.392 1755.56 349.707 M1741.04 358.758 Q1741.04 363.457 1742.96 366.142 Q1744.91 368.804 1748.29 368.804 Q1751.67 368.804 1753.61 366.142 Q1755.56 363.457 1755.56 358.758 Q1755.56 354.059 1753.61 351.397 Q1751.67 348.712 1748.29 348.712 Q1744.91 348.712 1742.96 351.397 Q1741.04 354.059 1741.04 358.758 Z" fill="#000000" fill-rule="evenodd" fill-opacity="1" /><path clip-path="url(#clip030)" d="M1768.59 345.772 L1772.85 345.772 L1772.85 371.698 L1768.59 371.698 L1768.59 345.772 M1768.59 335.679 L1772.85 335.679 L1772.85 341.073 L1768.59 341.073 L1768.59 335.679 Z" fill="#000000" fill-rule="evenodd" fill-opacity="1" /><path clip-path="url(#clip030)" d="M1793.54 358.665 Q1788.38 358.665 1786.39 359.846 Q1784.4 361.026 1784.4 363.874 Q1784.4 366.142 1785.88 367.485 Q1787.38 368.804 1789.95 368.804 Q1793.5 368.804 1795.63 366.304 Q1797.78 363.781 1797.78 359.614 L1797.78 358.665 L1793.54 358.665 M1802.04 356.906 L1802.04 371.698 L1797.78 371.698 L1797.78 367.762 Q1796.32 370.123 1794.14 371.258 Q1791.97 372.369 1788.82 372.369 Q1784.84 372.369 1782.48 370.147 Q1780.14 367.901 1780.14 364.151 Q1780.14 359.776 1783.06 357.554 Q1786 355.332 1791.81 355.332 L1797.78 355.332 L1797.78 354.915 Q1797.78 351.975 1795.83 350.378 Q1793.91 348.758 1790.42 348.758 Q1788.19 348.758 1786.09 349.29 Q1783.98 349.823 1782.04 350.887 L1782.04 346.952 Q1784.38 346.05 1786.57 345.61 Q1788.77 345.147 1790.86 345.147 Q1796.48 345.147 1799.26 348.063 Q1802.04 350.98 1802.04 356.906 Z" fill="#000000" fill-rule="evenodd" fill-opacity="1" /><path clip-path="url(#clip030)" d="M1832.36 356.049 L1832.36 371.698 L1828.1 371.698 L1828.1 356.188 Q1828.1 352.508 1826.67 350.679 Q1825.23 348.85 1822.36 348.85 Q1818.91 348.85 1816.92 351.05 Q1814.93 353.249 1814.93 357.045 L1814.93 371.698 L1810.65 371.698 L1810.65 345.772 L1814.93 345.772 L1814.93 349.8 Q1816.46 347.462 1818.52 346.304 Q1820.6 345.147 1823.31 345.147 Q1827.78 345.147 1830.07 347.925 Q1832.36 350.679 1832.36 356.049 Z" fill="#000000" fill-rule="evenodd" fill-opacity="1" /></svg>
