<?xml version="1.0" encoding="utf-8"?>
<svg xmlns="http://www.w3.org/2000/svg" xmlns:xlink="http://www.w3.org/1999/xlink" width="600" height="400" viewBox="0 0 2400 1600">
<defs>
  <clipPath id="clip430">
    <rect x="0" y="0" width="2400" height="1600"/>
  </clipPath>
</defs>
<path clip-path="url(#clip430)" d="M0 1600 L2400 1600 L2400 0 L0 0  Z" fill="#ffffff" fill-rule="evenodd" fill-opacity="1"/>
<defs>
  <clipPath id="clip431">
    <rect x="480" y="0" width="1681" height="1600"/>
  </clipPath>
</defs>
<path clip-path="url(#clip430)" d="M140.696 1486.45 L2352.76 1486.45 L2352.76 47.2441 L140.696 47.2441  Z" fill="#ffffff" fill-rule="evenodd" fill-opacity="1"/>
<defs>
  <clipPath id="clip432">
    <rect x="140" y="47" width="2213" height="1440"/>
  </clipPath>
</defs>
<polyline clip-path="url(#clip432)" style="stroke:#000000; stroke-linecap:round; stroke-linejoin:round; stroke-width:2; stroke-opacity:0.1; fill:none" points="202.194,1486.45 202.194,47.2441 "/>
<polyline clip-path="url(#clip432)" style="stroke:#000000; stroke-linecap:round; stroke-linejoin:round; stroke-width:2; stroke-opacity:0.1; fill:none" points="812.168,1486.45 812.168,47.2441 "/>
<polyline clip-path="url(#clip432)" style="stroke:#000000; stroke-linecap:round; stroke-linejoin:round; stroke-width:2; stroke-opacity:0.1; fill:none" points="1422.14,1486.45 1422.14,47.2441 "/>
<polyline clip-path="url(#clip432)" style="stroke:#000000; stroke-linecap:round; stroke-linejoin:round; stroke-width:2; stroke-opacity:0.1; fill:none" points="2032.12,1486.45 2032.12,47.2441 "/>
<polyline clip-path="url(#clip430)" style="stroke:#000000; stroke-linecap:round; stroke-linejoin:round; stroke-width:4; stroke-opacity:1; fill:none" points="140.696,1486.45 2352.76,1486.45 "/>
<polyline clip-path="url(#clip430)" style="stroke:#000000; stroke-linecap:round; stroke-linejoin:round; stroke-width:4; stroke-opacity:1; fill:none" points="202.194,1486.45 202.194,1467.55 "/>
<polyline clip-path="url(#clip430)" style="stroke:#000000; stroke-linecap:round; stroke-linejoin:round; stroke-width:4; stroke-opacity:1; fill:none" points="812.168,1486.45 812.168,1467.55 "/>
<polyline clip-path="url(#clip430)" style="stroke:#000000; stroke-linecap:round; stroke-linejoin:round; stroke-width:4; stroke-opacity:1; fill:none" points="1422.14,1486.45 1422.14,1467.55 "/>
<polyline clip-path="url(#clip430)" style="stroke:#000000; stroke-linecap:round; stroke-linejoin:round; stroke-width:4; stroke-opacity:1; fill:none" points="2032.12,1486.45 2032.12,1467.55 "/>
<path clip-path="url(#clip430)" d="M154.763 1544.91 L162.402 1544.91 L162.402 1518.55 L154.092 1520.21 L154.092 1515.95 L162.356 1514.29 L167.032 1514.29 L167.032 1544.91 L174.671 1544.91 L174.671 1548.85 L154.763 1548.85 L154.763 1544.91 Z" fill="#000000" fill-rule="nonzero" fill-opacity="1" /><path clip-path="url(#clip430)" d="M184.115 1542.97 L188.999 1542.97 L188.999 1548.85 L184.115 1548.85 L184.115 1542.97 Z" fill="#000000" fill-rule="nonzero" fill-opacity="1" /><path clip-path="url(#clip430)" d="M199.323 1548.13 L199.323 1543.87 Q201.083 1544.7 202.888 1545.14 Q204.694 1545.58 206.43 1545.58 Q211.059 1545.58 213.49 1542.48 Q215.944 1539.36 216.291 1533.01 Q214.948 1535.01 212.888 1536.07 Q210.828 1537.13 208.328 1537.13 Q203.143 1537.13 200.11 1534.01 Q197.101 1530.86 197.101 1525.42 Q197.101 1520.1 200.249 1516.88 Q203.397 1513.66 208.629 1513.66 Q214.624 1513.66 217.772 1518.27 Q220.944 1522.85 220.944 1531.6 Q220.944 1539.77 217.055 1544.66 Q213.189 1549.52 206.638 1549.52 Q204.879 1549.52 203.073 1549.17 Q201.268 1548.82 199.323 1548.13 M208.629 1533.48 Q211.777 1533.48 213.606 1531.32 Q215.457 1529.17 215.457 1525.42 Q215.457 1521.7 213.606 1519.54 Q211.777 1517.37 208.629 1517.37 Q205.481 1517.37 203.629 1519.54 Q201.8 1521.7 201.8 1525.42 Q201.8 1529.17 203.629 1531.32 Q205.481 1533.48 208.629 1533.48 Z" fill="#000000" fill-rule="nonzero" fill-opacity="1" /><path clip-path="url(#clip430)" d="M229.393 1514.29 L247.749 1514.29 L247.749 1518.22 L233.675 1518.22 L233.675 1526.7 Q234.693 1526.35 235.712 1526.19 Q236.73 1526 237.749 1526 Q243.536 1526 246.916 1529.17 Q250.295 1532.34 250.295 1537.76 Q250.295 1543.34 246.823 1546.44 Q243.351 1549.52 237.031 1549.52 Q234.855 1549.52 232.587 1549.15 Q230.342 1548.78 227.934 1548.04 L227.934 1543.34 Q230.018 1544.47 232.24 1545.03 Q234.462 1545.58 236.939 1545.58 Q240.943 1545.58 243.281 1543.48 Q245.619 1541.37 245.619 1537.76 Q245.619 1534.15 243.281 1532.04 Q240.943 1529.94 236.939 1529.94 Q235.064 1529.94 233.189 1530.35 Q231.337 1530.77 229.393 1531.65 L229.393 1514.29 Z" fill="#000000" fill-rule="nonzero" fill-opacity="1" /><path clip-path="url(#clip430)" d="M768.326 1544.91 L784.645 1544.91 L784.645 1548.85 L762.701 1548.85 L762.701 1544.91 Q765.363 1542.16 769.946 1537.53 Q774.553 1532.88 775.733 1531.53 Q777.979 1529.01 778.858 1527.27 Q779.761 1525.51 779.761 1523.82 Q779.761 1521.07 777.817 1519.33 Q775.895 1517.6 772.794 1517.6 Q770.595 1517.6 768.141 1518.36 Q765.71 1519.13 762.933 1520.68 L762.933 1515.95 Q765.757 1514.82 768.21 1514.24 Q770.664 1513.66 772.701 1513.66 Q778.071 1513.66 781.266 1516.35 Q784.46 1519.03 784.46 1523.52 Q784.46 1525.65 783.65 1527.57 Q782.863 1529.47 780.757 1532.07 Q780.178 1532.74 777.076 1535.95 Q773.974 1539.15 768.326 1544.91 Z" fill="#000000" fill-rule="nonzero" fill-opacity="1" /><path clip-path="url(#clip430)" d="M794.46 1542.97 L799.344 1542.97 L799.344 1548.85 L794.46 1548.85 L794.46 1542.97 Z" fill="#000000" fill-rule="nonzero" fill-opacity="1" /><path clip-path="url(#clip430)" d="M819.53 1517.37 Q815.918 1517.37 814.09 1520.93 Q812.284 1524.47 812.284 1531.6 Q812.284 1538.71 814.09 1542.27 Q815.918 1545.82 819.53 1545.82 Q823.164 1545.82 824.969 1542.27 Q826.798 1538.71 826.798 1531.6 Q826.798 1524.47 824.969 1520.93 Q823.164 1517.37 819.53 1517.37 M819.53 1513.66 Q825.34 1513.66 828.395 1518.27 Q831.474 1522.85 831.474 1531.6 Q831.474 1540.33 828.395 1544.94 Q825.34 1549.52 819.53 1549.52 Q813.719 1549.52 810.641 1544.94 Q807.585 1540.33 807.585 1531.6 Q807.585 1522.85 810.641 1518.27 Q813.719 1513.66 819.53 1513.66 Z" fill="#000000" fill-rule="nonzero" fill-opacity="1" /><path clip-path="url(#clip430)" d="M849.691 1517.37 Q846.08 1517.37 844.252 1520.93 Q842.446 1524.47 842.446 1531.6 Q842.446 1538.71 844.252 1542.27 Q846.08 1545.82 849.691 1545.82 Q853.326 1545.82 855.131 1542.27 Q856.96 1538.71 856.96 1531.6 Q856.96 1524.47 855.131 1520.93 Q853.326 1517.37 849.691 1517.37 M849.691 1513.66 Q855.502 1513.66 858.557 1518.27 Q861.636 1522.85 861.636 1531.6 Q861.636 1540.33 858.557 1544.94 Q855.502 1549.52 849.691 1549.52 Q843.881 1549.52 840.803 1544.94 Q837.747 1540.33 837.747 1531.6 Q837.747 1522.85 840.803 1518.27 Q843.881 1513.66 849.691 1513.66 Z" fill="#000000" fill-rule="nonzero" fill-opacity="1" /><path clip-path="url(#clip430)" d="M1378.8 1544.91 L1395.12 1544.91 L1395.12 1548.85 L1373.17 1548.85 L1373.17 1544.91 Q1375.84 1542.16 1380.42 1537.53 Q1385.03 1532.88 1386.21 1531.53 Q1388.45 1529.01 1389.33 1527.27 Q1390.23 1525.51 1390.23 1523.82 Q1390.23 1521.07 1388.29 1519.33 Q1386.37 1517.6 1383.27 1517.6 Q1381.07 1517.6 1378.61 1518.36 Q1376.18 1519.13 1373.41 1520.68 L1373.41 1515.95 Q1376.23 1514.82 1378.68 1514.24 Q1381.14 1513.66 1383.17 1513.66 Q1388.54 1513.66 1391.74 1516.35 Q1394.93 1519.03 1394.93 1523.52 Q1394.93 1525.65 1394.12 1527.57 Q1393.34 1529.47 1391.23 1532.07 Q1390.65 1532.74 1387.55 1535.95 Q1384.45 1539.15 1378.8 1544.91 Z" fill="#000000" fill-rule="nonzero" fill-opacity="1" /><path clip-path="url(#clip430)" d="M1404.93 1542.97 L1409.82 1542.97 L1409.82 1548.85 L1404.93 1548.85 L1404.93 1542.97 Z" fill="#000000" fill-rule="nonzero" fill-opacity="1" /><path clip-path="url(#clip430)" d="M1430 1517.37 Q1426.39 1517.37 1424.56 1520.93 Q1422.76 1524.47 1422.76 1531.6 Q1422.76 1538.71 1424.56 1542.27 Q1426.39 1545.82 1430 1545.82 Q1433.64 1545.82 1435.44 1542.27 Q1437.27 1538.71 1437.27 1531.6 Q1437.27 1524.47 1435.44 1520.93 Q1433.64 1517.37 1430 1517.37 M1430 1513.66 Q1435.81 1513.66 1438.87 1518.27 Q1441.95 1522.85 1441.95 1531.6 Q1441.95 1540.33 1438.87 1544.94 Q1435.81 1549.52 1430 1549.52 Q1424.19 1549.52 1421.11 1544.94 Q1418.06 1540.33 1418.06 1531.6 Q1418.06 1522.85 1421.11 1518.27 Q1424.19 1513.66 1430 1513.66 Z" fill="#000000" fill-rule="nonzero" fill-opacity="1" /><path clip-path="url(#clip430)" d="M1450.21 1514.29 L1468.57 1514.29 L1468.57 1518.22 L1454.49 1518.22 L1454.49 1526.7 Q1455.51 1526.35 1456.53 1526.19 Q1457.55 1526 1458.57 1526 Q1464.35 1526 1467.73 1529.17 Q1471.11 1532.34 1471.11 1537.76 Q1471.11 1543.34 1467.64 1546.44 Q1464.17 1549.52 1457.85 1549.52 Q1455.67 1549.52 1453.4 1549.15 Q1451.16 1548.78 1448.75 1548.04 L1448.75 1543.34 Q1450.84 1544.47 1453.06 1545.03 Q1455.28 1545.58 1457.76 1545.58 Q1461.76 1545.58 1464.1 1543.48 Q1466.44 1541.37 1466.44 1537.76 Q1466.44 1534.15 1464.1 1532.04 Q1461.76 1529.94 1457.76 1529.94 Q1455.88 1529.94 1454.01 1530.35 Q1452.15 1530.77 1450.21 1531.65 L1450.21 1514.29 Z" fill="#000000" fill-rule="nonzero" fill-opacity="1" /><path clip-path="url(#clip430)" d="M1988.28 1544.91 L2004.6 1544.91 L2004.6 1548.85 L1982.65 1548.85 L1982.65 1544.91 Q1985.31 1542.16 1989.9 1537.53 Q1994.5 1532.88 1995.68 1531.53 Q1997.93 1529.01 1998.81 1527.27 Q1999.71 1525.51 1999.71 1523.82 Q1999.71 1521.07 1997.77 1519.33 Q1995.85 1517.6 1992.74 1517.6 Q1990.54 1517.6 1988.09 1518.36 Q1985.66 1519.13 1982.88 1520.68 L1982.88 1515.95 Q1985.71 1514.82 1988.16 1514.24 Q1990.61 1513.66 1992.65 1513.66 Q1998.02 1513.66 2001.22 1516.35 Q2004.41 1519.03 2004.41 1523.52 Q2004.41 1525.65 2003.6 1527.57 Q2002.81 1529.47 2000.71 1532.07 Q2000.13 1532.74 1997.03 1535.95 Q1993.92 1539.15 1988.28 1544.91 Z" fill="#000000" fill-rule="nonzero" fill-opacity="1" /><path clip-path="url(#clip430)" d="M2014.41 1542.97 L2019.29 1542.97 L2019.29 1548.85 L2014.41 1548.85 L2014.41 1542.97 Z" fill="#000000" fill-rule="nonzero" fill-opacity="1" /><path clip-path="url(#clip430)" d="M2030.29 1544.91 L2037.93 1544.91 L2037.93 1518.55 L2029.62 1520.21 L2029.62 1515.95 L2037.88 1514.29 L2042.56 1514.29 L2042.56 1544.91 L2050.2 1544.91 L2050.2 1548.85 L2030.29 1548.85 L2030.29 1544.91 Z" fill="#000000" fill-rule="nonzero" fill-opacity="1" /><path clip-path="url(#clip430)" d="M2069.64 1517.37 Q2066.03 1517.37 2064.2 1520.93 Q2062.4 1524.47 2062.4 1531.6 Q2062.4 1538.71 2064.2 1542.27 Q2066.03 1545.82 2069.64 1545.82 Q2073.28 1545.82 2075.08 1542.27 Q2076.91 1538.71 2076.91 1531.6 Q2076.91 1524.47 2075.08 1520.93 Q2073.28 1517.37 2069.64 1517.37 M2069.64 1513.66 Q2075.45 1513.66 2078.51 1518.27 Q2081.59 1522.85 2081.59 1531.6 Q2081.59 1540.33 2078.51 1544.94 Q2075.45 1549.52 2069.64 1549.52 Q2063.83 1549.52 2060.75 1544.94 Q2057.7 1540.33 2057.7 1531.6 Q2057.7 1522.85 2060.75 1518.27 Q2063.83 1513.66 2069.64 1513.66 Z" fill="#000000" fill-rule="nonzero" fill-opacity="1" /><polyline clip-path="url(#clip432)" style="stroke:#000000; stroke-linecap:round; stroke-linejoin:round; stroke-width:2; stroke-opacity:0.1; fill:none" points="140.696,1445.72 2352.76,1445.72 "/>
<polyline clip-path="url(#clip432)" style="stroke:#000000; stroke-linecap:round; stroke-linejoin:round; stroke-width:2; stroke-opacity:0.1; fill:none" points="140.696,1133.24 2352.76,1133.24 "/>
<polyline clip-path="url(#clip432)" style="stroke:#000000; stroke-linecap:round; stroke-linejoin:round; stroke-width:2; stroke-opacity:0.1; fill:none" points="140.696,820.767 2352.76,820.767 "/>
<polyline clip-path="url(#clip432)" style="stroke:#000000; stroke-linecap:round; stroke-linejoin:round; stroke-width:2; stroke-opacity:0.1; fill:none" points="140.696,508.292 2352.76,508.292 "/>
<polyline clip-path="url(#clip432)" style="stroke:#000000; stroke-linecap:round; stroke-linejoin:round; stroke-width:2; stroke-opacity:0.1; fill:none" points="140.696,195.817 2352.76,195.817 "/>
<polyline clip-path="url(#clip430)" style="stroke:#000000; stroke-linecap:round; stroke-linejoin:round; stroke-width:4; stroke-opacity:1; fill:none" points="140.696,1486.45 140.696,47.2441 "/>
<polyline clip-path="url(#clip430)" style="stroke:#000000; stroke-linecap:round; stroke-linejoin:round; stroke-width:4; stroke-opacity:1; fill:none" points="140.696,1445.72 159.593,1445.72 "/>
<polyline clip-path="url(#clip430)" style="stroke:#000000; stroke-linecap:round; stroke-linejoin:round; stroke-width:4; stroke-opacity:1; fill:none" points="140.696,1133.24 159.593,1133.24 "/>
<polyline clip-path="url(#clip430)" style="stroke:#000000; stroke-linecap:round; stroke-linejoin:round; stroke-width:4; stroke-opacity:1; fill:none" points="140.696,820.767 159.593,820.767 "/>
<polyline clip-path="url(#clip430)" style="stroke:#000000; stroke-linecap:round; stroke-linejoin:round; stroke-width:4; stroke-opacity:1; fill:none" points="140.696,508.292 159.593,508.292 "/>
<polyline clip-path="url(#clip430)" style="stroke:#000000; stroke-linecap:round; stroke-linejoin:round; stroke-width:4; stroke-opacity:1; fill:none" points="140.696,195.817 159.593,195.817 "/>
<path clip-path="url(#clip430)" d="M92.7512 1431.51 Q89.1401 1431.51 87.3114 1435.08 Q85.5058 1438.62 85.5058 1445.75 Q85.5058 1452.86 87.3114 1456.42 Q89.1401 1459.96 92.7512 1459.96 Q96.3854 1459.96 98.1909 1456.42 Q100.02 1452.86 100.02 1445.75 Q100.02 1438.62 98.1909 1435.08 Q96.3854 1431.51 92.7512 1431.51 M92.7512 1427.81 Q98.5613 1427.81 101.617 1432.42 Q104.696 1437 104.696 1445.75 Q104.696 1454.48 101.617 1459.08 Q98.5613 1463.67 92.7512 1463.67 Q86.941 1463.67 83.8623 1459.08 Q80.8068 1454.48 80.8068 1445.75 Q80.8068 1437 83.8623 1432.42 Q86.941 1427.81 92.7512 1427.81 Z" fill="#000000" fill-rule="nonzero" fill-opacity="1" /><path clip-path="url(#clip430)" d="M83.7929 1115.96 L102.149 1115.96 L102.149 1119.9 L88.0753 1119.9 L88.0753 1128.37 Q89.0938 1128.02 90.1123 1127.86 Q91.1308 1127.67 92.1493 1127.67 Q97.9363 1127.67 101.316 1130.85 Q104.696 1134.02 104.696 1139.43 Q104.696 1145.01 101.223 1148.11 Q97.7511 1151.19 91.4317 1151.19 Q89.2558 1151.19 86.9873 1150.82 Q84.7419 1150.45 82.3346 1149.71 L82.3346 1145.01 Q84.4179 1146.15 86.6401 1146.7 Q88.8623 1147.26 91.3391 1147.26 Q95.3437 1147.26 97.6817 1145.15 Q100.02 1143.04 100.02 1139.43 Q100.02 1135.82 97.6817 1133.72 Q95.3437 1131.61 91.3391 1131.61 Q89.4641 1131.61 87.5892 1132.03 Q85.7373 1132.44 83.7929 1133.32 L83.7929 1115.96 Z" fill="#000000" fill-rule="nonzero" fill-opacity="1" /><path clip-path="url(#clip430)" d="M53.3995 834.111 L61.0384 834.111 L61.0384 807.746 L52.7282 809.412 L52.7282 805.153 L60.9921 803.487 L65.668 803.487 L65.668 834.111 L73.3068 834.111 L73.3068 838.047 L53.3995 838.047 L53.3995 834.111 Z" fill="#000000" fill-rule="nonzero" fill-opacity="1" /><path clip-path="url(#clip430)" d="M92.7512 806.565 Q89.1401 806.565 87.3114 810.13 Q85.5058 813.672 85.5058 820.801 Q85.5058 827.908 87.3114 831.473 Q89.1401 835.014 92.7512 835.014 Q96.3854 835.014 98.1909 831.473 Q100.02 827.908 100.02 820.801 Q100.02 813.672 98.1909 810.13 Q96.3854 806.565 92.7512 806.565 M92.7512 802.862 Q98.5613 802.862 101.617 807.468 Q104.696 812.051 104.696 820.801 Q104.696 829.528 101.617 834.135 Q98.5613 838.718 92.7512 838.718 Q86.941 838.718 83.8623 834.135 Q80.8068 829.528 80.8068 820.801 Q80.8068 812.051 83.8623 807.468 Q86.941 802.862 92.7512 802.862 Z" fill="#000000" fill-rule="nonzero" fill-opacity="1" /><path clip-path="url(#clip430)" d="M54.3949 521.637 L62.0337 521.637 L62.0337 495.271 L53.7236 496.938 L53.7236 492.679 L61.9874 491.012 L66.6633 491.012 L66.6633 521.637 L74.3022 521.637 L74.3022 525.572 L54.3949 525.572 L54.3949 521.637 Z" fill="#000000" fill-rule="nonzero" fill-opacity="1" /><path clip-path="url(#clip430)" d="M83.7929 491.012 L102.149 491.012 L102.149 494.947 L88.0753 494.947 L88.0753 503.419 Q89.0938 503.072 90.1123 502.91 Q91.1308 502.725 92.1493 502.725 Q97.9363 502.725 101.316 505.896 Q104.696 509.067 104.696 514.484 Q104.696 520.063 101.223 523.165 Q97.7511 526.243 91.4317 526.243 Q89.2558 526.243 86.9873 525.873 Q84.7419 525.503 82.3346 524.762 L82.3346 520.063 Q84.4179 521.197 86.6401 521.753 Q88.8623 522.308 91.3391 522.308 Q95.3437 522.308 97.6817 520.202 Q100.02 518.095 100.02 514.484 Q100.02 510.873 97.6817 508.767 Q95.3437 506.66 91.3391 506.66 Q89.4641 506.66 87.5892 507.077 Q85.7373 507.493 83.7929 508.373 L83.7929 491.012 Z" fill="#000000" fill-rule="nonzero" fill-opacity="1" /><path clip-path="url(#clip430)" d="M56.6171 209.162 L72.9365 209.162 L72.9365 213.097 L50.9921 213.097 L50.9921 209.162 Q53.6541 206.408 58.2375 201.778 Q62.8439 197.125 64.0245 195.783 Q66.2698 193.26 67.1494 191.523 Q68.0522 189.764 68.0522 188.074 Q68.0522 185.32 66.1078 183.584 Q64.1865 181.848 61.0847 181.848 Q58.8856 181.848 56.4319 182.611 Q54.0014 183.375 51.2236 184.926 L51.2236 180.204 Q54.0477 179.07 56.5014 178.491 Q58.955 177.912 60.9921 177.912 Q66.3624 177.912 69.5568 180.598 Q72.7513 183.283 72.7513 187.773 Q72.7513 189.903 71.9411 191.824 Q71.1541 193.723 69.0476 196.315 Q68.4689 196.986 65.367 200.204 Q62.2652 203.398 56.6171 209.162 Z" fill="#000000" fill-rule="nonzero" fill-opacity="1" /><path clip-path="url(#clip430)" d="M92.7512 181.616 Q89.1401 181.616 87.3114 185.181 Q85.5058 188.723 85.5058 195.852 Q85.5058 202.959 87.3114 206.523 Q89.1401 210.065 92.7512 210.065 Q96.3854 210.065 98.1909 206.523 Q100.02 202.959 100.02 195.852 Q100.02 188.723 98.1909 185.181 Q96.3854 181.616 92.7512 181.616 M92.7512 177.912 Q98.5613 177.912 101.617 182.519 Q104.696 187.102 104.696 195.852 Q104.696 204.579 101.617 209.185 Q98.5613 213.769 92.7512 213.769 Q86.941 213.769 83.8623 209.185 Q80.8068 204.579 80.8068 195.852 Q80.8068 187.102 83.8623 182.519 Q86.941 177.912 92.7512 177.912 Z" fill="#000000" fill-rule="nonzero" fill-opacity="1" /><path clip-path="url(#clip432)" d="M203.301 1444.73 L208.483 1444.6 L213.664 1444.47 L218.846 1444.33 L224.028 1444.14 L229.209 1443.91 L234.391 1443.64 L239.573 1443.34 L244.754 1443.07 L249.936 1442.85 L255.118 1442.72 L260.299 1442.69 L265.481 1442.75 L270.663 1442.87 L275.844 1443.03 L281.026 1443.16 L286.208 1443.24 L291.389 1443.23 L296.571 1443.11 L301.753 1442.86 L306.934 1442.47 L312.116 1441.95 L317.298 1441.32 L322.479 1440.58 L327.661 1439.77 L332.843 1438.89 L338.024 1437.96 L343.206 1436.99 L348.388 1435.99 L353.569 1434.96 L358.751 1433.92 L363.933 1432.91 L369.114 1431.97 L374.296 1431.17 L379.477 1430.56 L384.659 1430.19 L389.841 1430.04 L395.022 1430.06 L400.204 1430.15 L405.386 1430.15 L410.567 1429.93 L415.749 1429.38 L420.931 1428.43 L426.112 1427.12 L431.294 1425.53 L436.476 1423.79 L441.657 1422 L446.839 1420.22 L452.021 1418.45 L457.202 1416.58 L462.384 1414.5 L467.566 1412.07 L472.747 1409.2 L477.929 1405.93 L483.111 1402.36 L488.292 1398.7 L493.474 1395.17 L498.656 1391.96 L503.837 1389.19 L509.019 1386.89 L514.201 1384.98 L519.382 1383.32 L524.564 1381.75 L529.746 1380.06 L534.927 1378.06 L540.109 1375.56 L545.291 1372.38 L550.472 1368.37 L555.654 1363.43 L560.836 1357.5 L566.017 1350.62 L571.199 1342.92 L576.381 1334.57 L581.562 1325.82 L586.744 1316.95 L591.926 1308.33 L597.107 1300.35 L602.289 1293.37 L607.471 1287.72 L612.652 1283.51 L617.834 1280.61 L623.016 1278.59 L628.197 1276.81 L633.379 1274.52 L638.561 1271 L643.742 1265.75 L648.924 1258.51 L654.106 1249.34 L659.287 1238.56 L664.469 1226.65 L669.65 1214.16 L674.832 1201.6 L680.014 1189.38 L685.195 1177.73 L690.377 1166.74 L695.559 1156.29 L700.74 1146.16 L705.922 1136.05 L711.104 1125.66 L716.285 1114.69 L716.285 1445.72 L711.104 1445.72 L705.922 1445.72 L700.74 1445.72 L695.559 1445.72 L690.377 1445.72 L685.195 1445.72 L680.014 1445.72 L674.832 1445.72 L669.65 1445.72 L664.469 1445.72 L659.287 1445.72 L654.106 1445.72 L648.924 1445.72 L643.742 1445.72 L638.561 1445.72 L633.379 1445.72 L628.197 1445.72 L623.016 1445.72 L617.834 1445.72 L612.652 1445.72 L607.471 1445.72 L602.289 1445.72 L597.107 1445.72 L591.926 1445.72 L586.744 1445.72 L581.562 1445.72 L576.381 1445.72 L571.199 1445.72 L566.017 1445.72 L560.836 1445.72 L555.654 1445.72 L550.472 1445.72 L545.291 1445.72 L540.109 1445.72 L534.927 1445.72 L529.746 1445.72 L524.564 1445.72 L519.382 1445.72 L514.201 1445.72 L509.019 1445.72 L503.837 1445.72 L498.656 1445.72 L493.474 1445.72 L488.292 1445.72 L483.111 1445.72 L477.929 1445.72 L472.747 1445.72 L467.566 1445.72 L462.384 1445.72 L457.202 1445.72 L452.021 1445.72 L446.839 1445.72 L441.657 1445.72 L436.476 1445.72 L431.294 1445.72 L426.112 1445.72 L420.931 1445.72 L415.749 1445.72 L410.567 1445.72 L405.386 1445.72 L400.204 1445.72 L395.022 1445.72 L389.841 1445.72 L384.659 1445.72 L379.477 1445.72 L374.296 1445.72 L369.114 1445.72 L363.933 1445.72 L358.751 1445.72 L353.569 1445.72 L348.388 1445.72 L343.206 1445.72 L338.024 1445.72 L332.843 1445.72 L327.661 1445.72 L322.479 1445.72 L317.298 1445.72 L312.116 1445.72 L306.934 1445.72 L301.753 1445.72 L296.571 1445.72 L291.389 1445.72 L286.208 1445.72 L281.026 1445.72 L275.844 1445.72 L270.663 1445.72 L265.481 1445.72 L260.299 1445.72 L255.118 1445.72 L249.936 1445.72 L244.754 1445.72 L239.573 1445.72 L234.391 1445.72 L229.209 1445.72 L224.028 1445.72 L218.846 1445.72 L213.664 1445.72 L208.483 1445.72 L203.301 1445.72  Z" fill="#ffa500" fill-rule="evenodd" fill-opacity="0.5"/>
<polyline clip-path="url(#clip432)" style="stroke:#ffa500; stroke-linecap:round; stroke-linejoin:round; stroke-width:4; stroke-opacity:1; fill:none" points="203.301,1444.73 208.483,1444.6 213.664,1444.47 218.846,1444.33 224.028,1444.14 229.209,1443.91 234.391,1443.64 239.573,1443.34 244.754,1443.07 249.936,1442.85 255.118,1442.72 260.299,1442.69 265.481,1442.75 270.663,1442.87 275.844,1443.03 281.026,1443.16 286.208,1443.24 291.389,1443.23 296.571,1443.11 301.753,1442.86 306.934,1442.47 312.116,1441.95 317.298,1441.32 322.479,1440.58 327.661,1439.77 332.843,1438.89 338.024,1437.96 343.206,1436.99 348.388,1435.99 353.569,1434.96 358.751,1433.92 363.933,1432.91 369.114,1431.97 374.296,1431.17 379.477,1430.56 384.659,1430.19 389.841,1430.04 395.022,1430.06 400.204,1430.15 405.386,1430.15 410.567,1429.93 415.749,1429.38 420.931,1428.43 426.112,1427.12 431.294,1425.53 436.476,1423.79 441.657,1422 446.839,1420.22 452.021,1418.45 457.202,1416.58 462.384,1414.5 467.566,1412.07 472.747,1409.2 477.929,1405.93 483.111,1402.36 488.292,1398.7 493.474,1395.17 498.656,1391.96 503.837,1389.19 509.019,1386.89 514.201,1384.98 519.382,1383.32 524.564,1381.75 529.746,1380.06 534.927,1378.06 540.109,1375.56 545.291,1372.38 550.472,1368.37 555.654,1363.43 560.836,1357.5 566.017,1350.62 571.199,1342.92 576.381,1334.57 581.562,1325.82 586.744,1316.95 591.926,1308.33 597.107,1300.35 602.289,1293.37 607.471,1287.72 612.652,1283.51 617.834,1280.61 623.016,1278.59 628.197,1276.81 633.379,1274.52 638.561,1271 643.742,1265.75 648.924,1258.51 654.106,1249.34 659.287,1238.56 664.469,1226.65 669.65,1214.16 674.832,1201.6 680.014,1189.38 685.195,1177.73 690.377,1166.74 695.559,1156.29 700.74,1146.16 705.922,1136.05 711.104,1125.66 716.285,1114.69 "/>
<path clip-path="url(#clip432)" d="M716.285 1114.69 L723.978 1096.82 L731.671 1076.51 L739.363 1053.23 L747.056 1026.54 L754.749 996.19 L762.441 962.451 L770.134 926.703 L777.827 891.751 L785.519 861.367 L793.212 838.8 L800.904 824.996 L808.597 817.836 L816.29 813.094 L823.982 806.453 L831.675 795.146 L839.368 778.382 L847.06 756.737 L854.753 731.31 L862.446 703.295 L870.138 674.132 L877.831 645.873 L885.524 620.967 L893.216 601.015 L900.909 585.093 L908.601 569.155 L916.294 547.57 L923.987 516.311 L931.679 475.84 L939.372 431.571 L947.065 391.157 L954.757 360.104 L962.45 338.722 L970.143 322.657 L977.835 306.47 L985.528 287.293 L993.221 265.753 L1000.91 244.06 L1008.61 223.565 L1016.3 203.99 L1023.99 184.444 L1031.68 164.683 L1039.38 145.422 L1047.07 127.768 L1054.76 112.628 L1062.45 100.601 L1070.15 92.2025 L1077.84 87.9763 L1085.53 88.2464 L1093.22 92.58 L1100.92 99.3241 L1108.61 105.759 L1116.3 109.225 L1124 108.858 L1131.69 106.734 L1139.38 107.302 L1147.07 115.202 L1154.77 132.867 L1162.46 159.335 L1170.15 190.699 L1177.84 221.644 L1185.54 247.352 L1193.23 265.106 L1200.92 274.978 L1208.61 279.45 L1216.31 282.444 L1224 288.426 L1231.69 301.576 L1239.39 324.633 L1247.08 357.579 L1254.77 397.116 L1262.46 437.716 L1270.16 473.91 L1277.85 502.503 L1285.54 523.551 L1293.23 539.865 L1300.93 555.652 L1308.62 574.972 L1316.31 600.378 L1324 632.041 L1331.7 667.748 L1339.39 703.96 L1347.08 737.457 L1354.77 766.638 L1362.47 791.873 L1370.16 814.871 L1377.85 837.466 L1385.55 860.442 L1393.24 883.15 L1400.93 904.253 L1408.62 923.1 L1416.32 940.611 L1424.01 958.874 L1431.7 979.786 L1439.39 1003.79 L1447.09 1029.64 L1454.78 1055.2 L1462.47 1078.6 L1470.16 1098.98 L1477.86 1116.62 L1477.86 1445.72 L1470.16 1445.72 L1462.47 1445.72 L1454.78 1445.72 L1447.09 1445.72 L1439.39 1445.72 L1431.7 1445.72 L1424.01 1445.72 L1416.32 1445.72 L1408.62 1445.72 L1400.93 1445.72 L1393.24 1445.72 L1385.55 1445.72 L1377.85 1445.72 L1370.16 1445.72 L1362.47 1445.72 L1354.77 1445.72 L1347.08 1445.72 L1339.39 1445.72 L1331.7 1445.72 L1324 1445.72 L1316.31 1445.72 L1308.62 1445.72 L1300.93 1445.72 L1293.23 1445.72 L1285.54 1445.72 L1277.85 1445.72 L1270.16 1445.72 L1262.46 1445.72 L1254.77 1445.72 L1247.08 1445.72 L1239.39 1445.72 L1231.69 1445.72 L1224 1445.72 L1216.31 1445.72 L1208.61 1445.72 L1200.92 1445.72 L1193.23 1445.72 L1185.54 1445.72 L1177.84 1445.72 L1170.15 1445.72 L1162.46 1445.72 L1154.77 1445.72 L1147.07 1445.72 L1139.38 1445.72 L1131.69 1445.72 L1124 1445.72 L1116.3 1445.72 L1108.61 1445.72 L1100.92 1445.72 L1093.22 1445.72 L1085.53 1445.72 L1077.84 1445.72 L1070.15 1445.72 L1062.45 1445.72 L1054.76 1445.72 L1047.07 1445.72 L1039.38 1445.72 L1031.68 1445.72 L1023.99 1445.72 L1016.3 1445.72 L1008.61 1445.72 L1000.91 1445.72 L993.221 1445.72 L985.528 1445.72 L977.835 1445.72 L970.143 1445.72 L962.45 1445.72 L954.757 1445.72 L947.065 1445.72 L939.372 1445.72 L931.679 1445.72 L923.987 1445.72 L916.294 1445.72 L908.601 1445.72 L900.909 1445.72 L893.216 1445.72 L885.524 1445.72 L877.831 1445.72 L870.138 1445.72 L862.446 1445.72 L854.753 1445.72 L847.06 1445.72 L839.368 1445.72 L831.675 1445.72 L823.982 1445.72 L816.29 1445.72 L808.597 1445.72 L800.904 1445.72 L793.212 1445.72 L785.519 1445.72 L777.827 1445.72 L770.134 1445.72 L762.441 1445.72 L754.749 1445.72 L747.056 1445.72 L739.363 1445.72 L731.671 1445.72 L723.978 1445.72 L716.285 1445.72  Z" fill="#008000" fill-rule="evenodd" fill-opacity="0.5"/>
<polyline clip-path="url(#clip432)" style="stroke:#008000; stroke-linecap:round; stroke-linejoin:round; stroke-width:4; stroke-opacity:1; fill:none" points="716.285,1114.69 723.978,1096.82 731.671,1076.51 739.363,1053.23 747.056,1026.54 754.749,996.19 762.441,962.451 770.134,926.703 777.827,891.751 785.519,861.367 793.212,838.8 800.904,824.996 808.597,817.836 816.29,813.094 823.982,806.453 831.675,795.146 839.368,778.382 847.06,756.737 854.753,731.31 862.446,703.295 870.138,674.132 877.831,645.873 885.524,620.967 893.216,601.015 900.909,585.093 908.601,569.155 916.294,547.57 923.987,516.311 931.679,475.84 939.372,431.571 947.065,391.157 954.757,360.104 962.45,338.722 970.143,322.657 977.835,306.47 985.528,287.293 993.221,265.753 1000.91,244.06 1008.61,223.565 1016.3,203.99 1023.99,184.444 1031.68,164.683 1039.38,145.422 1047.07,127.768 1054.76,112.628 1062.45,100.601 1070.15,92.2025 1077.84,87.9763 1085.53,88.2464 1093.22,92.58 1100.92,99.3241 1108.61,105.759 1116.3,109.225 1124,108.858 1131.69,106.734 1139.38,107.302 1147.07,115.202 1154.77,132.867 1162.46,159.335 1170.15,190.699 1177.84,221.644 1185.54,247.352 1193.23,265.106 1200.92,274.978 1208.61,279.45 1216.31,282.444 1224,288.426 1231.69,301.576 1239.39,324.633 1247.08,357.579 1254.77,397.116 1262.46,437.716 1270.16,473.91 1277.85,502.503 1285.54,523.551 1293.23,539.865 1300.93,555.652 1308.62,574.972 1316.31,600.378 1324,632.041 1331.7,667.748 1339.39,703.96 1347.08,737.457 1354.77,766.638 1362.47,791.873 1370.16,814.871 1377.85,837.466 1385.55,860.442 1393.24,883.15 1400.93,904.253 1408.62,923.1 1416.32,940.611 1424.01,958.874 1431.7,979.786 1439.39,1003.79 1447.09,1029.64 1454.78,1055.2 1462.47,1078.6 1470.16,1098.98 1477.86,1116.62 "/>
<path clip-path="url(#clip432)" d="M1477.86 1116.62 L1486.06 1133.5 L1494.27 1149.73 L1502.47 1166.34 L1510.68 1183.65 L1518.88 1201.05 L1527.09 1217.34 L1535.29 1231.36 L1543.5 1242.94 L1551.7 1253.19 L1559.91 1263.85 L1568.11 1276.03 L1576.32 1289.43 L1584.52 1302.85 L1592.73 1315.29 L1600.93 1326.67 L1609.14 1337.49 L1617.34 1347.97 L1625.55 1357.78 L1633.75 1366.38 L1641.96 1373.48 L1650.16 1379.14 L1658.37 1383.51 L1666.57 1386.77 L1674.78 1389.25 L1682.98 1391.39 L1691.19 1393.63 L1699.39 1396.12 L1707.6 1398.86 L1715.8 1401.86 L1724.01 1405.26 L1732.21 1409.14 L1740.42 1413.31 L1748.62 1417.33 L1756.83 1420.74 L1765.03 1423.29 L1773.24 1425.06 L1781.44 1426.37 L1789.65 1427.64 L1797.85 1429.16 L1806.06 1430.94 L1814.26 1432.71 L1822.47 1434.14 L1830.67 1435.02 L1838.88 1435.37 L1847.08 1435.46 L1855.29 1435.57 L1863.49 1435.82 L1871.7 1436.18 L1879.9 1436.51 L1888.11 1436.71 L1896.31 1436.77 L1904.52 1436.83 L1912.72 1437.11 L1920.93 1437.81 L1929.13 1438.96 L1937.34 1440.41 L1945.54 1441.88 L1953.75 1443.11 L1961.95 1443.99 L1970.16 1444.53 L1978.36 1444.8 L1986.57 1444.87 L1994.77 1444.81 L2002.98 1444.69 L2011.18 1444.61 L2019.39 1444.6 L2027.59 1444.68 L2035.8 1444.83 L2044 1445.02 L2052.21 1445.2 L2060.41 1445.35 L2068.62 1445.46 L2076.82 1445.52 L2085.03 1445.54 L2093.23 1445.55 L2101.44 1445.57 L2109.64 1445.6 L2117.85 1445.63 L2126.05 1445.64 L2134.26 1445.62 L2142.46 1445.56 L2150.67 1445.45 L2158.87 1445.31 L2167.08 1445.2 L2175.28 1445.14 L2183.49 1445.17 L2191.69 1445.26 L2199.9 1445.4 L2208.1 1445.52 L2216.31 1445.61 L2224.51 1445.67 L2232.72 1445.69 L2240.92 1445.69 L2249.13 1445.67 L2257.33 1445.63 L2265.54 1445.57 L2273.74 1445.5 L2281.95 1445.44 L2290.15 1445.42 L2290.15 1445.72 L2281.95 1445.72 L2273.74 1445.72 L2265.54 1445.72 L2257.33 1445.72 L2249.13 1445.72 L2240.92 1445.72 L2232.72 1445.72 L2224.51 1445.72 L2216.31 1445.72 L2208.1 1445.72 L2199.9 1445.72 L2191.69 1445.72 L2183.49 1445.72 L2175.28 1445.72 L2167.08 1445.72 L2158.87 1445.72 L2150.67 1445.72 L2142.46 1445.72 L2134.26 1445.72 L2126.05 1445.72 L2117.85 1445.72 L2109.64 1445.72 L2101.44 1445.72 L2093.23 1445.72 L2085.03 1445.72 L2076.82 1445.72 L2068.62 1445.72 L2060.41 1445.72 L2052.21 1445.72 L2044 1445.72 L2035.8 1445.72 L2027.59 1445.72 L2019.39 1445.72 L2011.18 1445.72 L2002.98 1445.72 L1994.77 1445.72 L1986.57 1445.72 L1978.36 1445.72 L1970.16 1445.72 L1961.95 1445.72 L1953.75 1445.72 L1945.54 1445.72 L1937.34 1445.72 L1929.13 1445.72 L1920.93 1445.72 L1912.72 1445.72 L1904.52 1445.72 L1896.31 1445.72 L1888.11 1445.72 L1879.9 1445.72 L1871.7 1445.72 L1863.49 1445.72 L1855.29 1445.72 L1847.08 1445.72 L1838.88 1445.72 L1830.67 1445.72 L1822.47 1445.72 L1814.26 1445.72 L1806.06 1445.72 L1797.85 1445.72 L1789.65 1445.72 L1781.44 1445.72 L1773.24 1445.72 L1765.03 1445.72 L1756.83 1445.72 L1748.62 1445.72 L1740.42 1445.72 L1732.21 1445.72 L1724.01 1445.72 L1715.8 1445.72 L1707.6 1445.72 L1699.39 1445.72 L1691.19 1445.72 L1682.98 1445.72 L1674.78 1445.72 L1666.57 1445.72 L1658.37 1445.72 L1650.16 1445.72 L1641.96 1445.72 L1633.75 1445.72 L1625.55 1445.72 L1617.34 1445.72 L1609.14 1445.72 L1600.93 1445.72 L1592.73 1445.72 L1584.52 1445.72 L1576.32 1445.72 L1568.11 1445.72 L1559.91 1445.72 L1551.7 1445.72 L1543.5 1445.72 L1535.29 1445.72 L1527.09 1445.72 L1518.88 1445.72 L1510.68 1445.72 L1502.47 1445.72 L1494.27 1445.72 L1486.06 1445.72 L1477.86 1445.72  Z" fill="#ffa500" fill-rule="evenodd" fill-opacity="0.5"/>
<polyline clip-path="url(#clip432)" style="stroke:#ffa500; stroke-linecap:round; stroke-linejoin:round; stroke-width:4; stroke-opacity:1; fill:none" points="1477.86,1116.62 1486.06,1133.5 1494.27,1149.73 1502.47,1166.34 1510.68,1183.65 1518.88,1201.05 1527.09,1217.34 1535.29,1231.36 1543.5,1242.94 1551.7,1253.19 1559.91,1263.85 1568.11,1276.03 1576.32,1289.43 1584.52,1302.85 1592.73,1315.29 1600.93,1326.67 1609.14,1337.49 1617.34,1347.97 1625.55,1357.78 1633.75,1366.38 1641.96,1373.48 1650.16,1379.14 1658.37,1383.51 1666.57,1386.77 1674.78,1389.25 1682.98,1391.39 1691.19,1393.63 1699.39,1396.12 1707.6,1398.86 1715.8,1401.86 1724.01,1405.26 1732.21,1409.14 1740.42,1413.31 1748.62,1417.33 1756.83,1420.74 1765.03,1423.29 1773.24,1425.06 1781.44,1426.37 1789.65,1427.64 1797.85,1429.16 1806.06,1430.94 1814.26,1432.71 1822.47,1434.14 1830.67,1435.02 1838.88,1435.37 1847.08,1435.46 1855.29,1435.57 1863.49,1435.82 1871.7,1436.18 1879.9,1436.51 1888.11,1436.71 1896.31,1436.77 1904.52,1436.83 1912.72,1437.11 1920.93,1437.81 1929.13,1438.96 1937.34,1440.41 1945.54,1441.88 1953.75,1443.11 1961.95,1443.99 1970.16,1444.53 1978.36,1444.8 1986.57,1444.87 1994.77,1444.81 2002.98,1444.69 2011.18,1444.61 2019.39,1444.6 2027.59,1444.68 2035.8,1444.83 2044,1445.02 2052.21,1445.2 2060.41,1445.35 2068.62,1445.46 2076.82,1445.52 2085.03,1445.54 2093.23,1445.55 2101.44,1445.57 2109.64,1445.6 2117.85,1445.63 2126.05,1445.64 2134.26,1445.62 2142.46,1445.56 2150.67,1445.45 2158.87,1445.31 2167.08,1445.2 2175.28,1445.14 2183.49,1445.17 2191.69,1445.26 2199.9,1445.4 2208.1,1445.52 2216.31,1445.61 2224.51,1445.67 2232.72,1445.69 2240.92,1445.69 2249.13,1445.67 2257.33,1445.63 2265.54,1445.57 2273.74,1445.5 2281.95,1445.44 2290.15,1445.42 "/>
<polyline clip-path="url(#clip432)" style="stroke:#0000ff; stroke-linecap:round; stroke-linejoin:round; stroke-width:4; stroke-opacity:1; fill:none" points="1097.24,1445.72 1097.24,95.9584 "/>
<polyline clip-path="url(#clip432)" style="stroke:#000000; stroke-linecap:round; stroke-linejoin:round; stroke-width:4; stroke-opacity:1; fill:none" points="1097.54,1445.72 1097.54,96.2271 "/>
<path clip-path="url(#clip430)" d="M1466.36 406.258 L2279.02 406.258 L2279.02 95.2176 L1466.36 95.2176  Z" fill="#ffffff" fill-rule="evenodd" fill-opacity="1"/>
<polyline clip-path="url(#clip430)" style="stroke:#000000; stroke-linecap:round; stroke-linejoin:round; stroke-width:4; stroke-opacity:1; fill:none" points="1466.36,406.258 2279.02,406.258 2279.02,95.2176 1466.36,95.2176 1466.36,406.258 "/>
<path clip-path="url(#clip430)" d="M1490.94 167.794 L1638.41 167.794 L1638.41 126.322 L1490.94 126.322 L1490.94 167.794  Z" fill="#ffa500" fill-rule="evenodd" fill-opacity="0.5"/>
<polyline clip-path="url(#clip430)" style="stroke:#ffa500; stroke-linecap:round; stroke-linejoin:round; stroke-width:4; stroke-opacity:1; fill:none" points="1490.94,126.322 1638.41,126.322 "/>
<path clip-path="url(#clip430)" d="M1667.39 151.398 Q1667.39 156.097 1669.31 158.782 Q1671.25 161.444 1674.63 161.444 Q1678.01 161.444 1679.95 158.782 Q1681.9 156.097 1681.9 151.398 Q1681.9 146.699 1679.95 144.037 Q1678.01 141.352 1674.63 141.352 Q1671.25 141.352 1669.31 144.037 Q1667.39 146.699 1667.39 151.398 M1681.9 160.449 Q1680.56 162.763 1678.5 163.898 Q1676.46 165.009 1673.59 165.009 Q1668.89 165.009 1665.93 161.259 Q1662.99 157.509 1662.99 151.398 Q1662.99 145.287 1665.93 141.537 Q1668.89 137.787 1673.59 137.787 Q1676.46 137.787 1678.5 138.921 Q1680.56 140.032 1681.9 142.347 L1681.9 138.412 L1686.16 138.412 L1686.16 174.199 L1681.9 174.199 L1681.9 160.449 Z" fill="#000000" fill-rule="nonzero" fill-opacity="1" /><path clip-path="url(#clip430)" d="M1705.53 132.856 Q1701.92 132.856 1700.09 136.421 Q1698.29 139.963 1698.29 147.092 Q1698.29 154.199 1700.09 157.764 Q1701.92 161.305 1705.53 161.305 Q1709.17 161.305 1710.97 157.764 Q1712.8 154.199 1712.8 147.092 Q1712.8 139.963 1710.97 136.421 Q1709.17 132.856 1705.53 132.856 M1705.53 129.153 Q1711.34 129.153 1714.4 133.759 Q1717.48 138.342 1717.48 147.092 Q1717.48 155.819 1714.4 160.426 Q1711.34 165.009 1705.53 165.009 Q1699.72 165.009 1696.64 160.426 Q1693.59 155.819 1693.59 147.092 Q1693.59 138.342 1696.64 133.759 Q1699.72 129.153 1705.53 129.153 Z" fill="#000000" fill-rule="nonzero" fill-opacity="1" /><path clip-path="url(#clip430)" d="M1725.74 129.778 L1744.1 129.778 L1744.1 133.713 L1730.02 133.713 L1730.02 142.185 Q1731.04 141.838 1732.06 141.676 Q1733.08 141.49 1734.1 141.49 Q1739.88 141.49 1743.26 144.662 Q1746.64 147.833 1746.64 153.25 Q1746.64 158.828 1743.17 161.93 Q1739.7 165.009 1733.38 165.009 Q1731.2 165.009 1728.94 164.638 Q1726.69 164.268 1724.28 163.527 L1724.28 158.828 Q1726.37 159.963 1728.59 160.518 Q1730.81 161.074 1733.29 161.074 Q1737.29 161.074 1739.63 158.967 Q1741.97 156.861 1741.97 153.25 Q1741.97 149.639 1739.63 147.532 Q1737.29 145.426 1733.29 145.426 Q1731.41 145.426 1729.54 145.842 Q1727.69 146.259 1725.74 147.139 L1725.74 129.778 Z" fill="#000000" fill-rule="nonzero" fill-opacity="1" /><path clip-path="url(#clip430)" d="M1490.94 219.634 L1638.41 219.634 L1638.41 178.162 L1490.94 178.162 L1490.94 219.634  Z" fill="#008000" fill-rule="evenodd" fill-opacity="0.5"/>
<polyline clip-path="url(#clip430)" style="stroke:#008000; stroke-linecap:round; stroke-linejoin:round; stroke-width:4; stroke-opacity:1; fill:none" points="1490.94,178.162 1638.41,178.162 "/>
<path clip-path="url(#clip430)" d="M1665.21 215.46 L1665.21 211.201 Q1666.97 212.034 1668.77 212.474 Q1670.58 212.914 1672.32 212.914 Q1676.95 212.914 1679.38 209.812 Q1681.83 206.687 1682.18 200.344 Q1680.83 202.335 1678.77 203.4 Q1676.71 204.465 1674.21 204.465 Q1669.03 204.465 1666 201.34 Q1662.99 198.192 1662.99 192.752 Q1662.99 187.428 1666.14 184.21 Q1669.28 180.993 1674.51 180.993 Q1680.51 180.993 1683.66 185.599 Q1686.83 190.182 1686.83 198.932 Q1686.83 207.104 1682.94 211.988 Q1679.07 216.849 1672.52 216.849 Q1670.76 216.849 1668.96 216.502 Q1667.15 216.154 1665.21 215.46 M1674.51 200.807 Q1677.66 200.807 1679.49 198.654 Q1681.34 196.502 1681.34 192.752 Q1681.34 189.025 1679.49 186.872 Q1677.66 184.696 1674.51 184.696 Q1671.37 184.696 1669.51 186.872 Q1667.69 189.025 1667.69 192.752 Q1667.69 196.502 1669.51 198.654 Q1671.37 200.807 1674.51 200.807 Z" fill="#000000" fill-rule="nonzero" fill-opacity="1" /><path clip-path="url(#clip430)" d="M1705.23 184.696 Q1701.62 184.696 1699.79 188.261 Q1697.99 191.803 1697.99 198.932 Q1697.99 206.039 1699.79 209.604 Q1701.62 213.145 1705.23 213.145 Q1708.87 213.145 1710.67 209.604 Q1712.5 206.039 1712.5 198.932 Q1712.5 191.803 1710.67 188.261 Q1708.87 184.696 1705.23 184.696 M1705.23 180.993 Q1711.04 180.993 1714.1 185.599 Q1717.18 190.182 1717.18 198.932 Q1717.18 207.659 1714.1 212.266 Q1711.04 216.849 1705.23 216.849 Q1699.42 216.849 1696.34 212.266 Q1693.29 207.659 1693.29 198.932 Q1693.29 190.182 1696.34 185.599 Q1699.42 180.993 1705.23 180.993 Z" fill="#000000" fill-rule="nonzero" fill-opacity="1" /><path clip-path="url(#clip430)" d="M1754.79 200.969 Q1752.78 200.969 1751.62 202.682 Q1750.49 204.395 1750.49 207.451 Q1750.49 210.46 1751.62 212.196 Q1752.78 213.909 1754.79 213.909 Q1756.76 213.909 1757.89 212.196 Q1759.05 210.46 1759.05 207.451 Q1759.05 204.418 1757.89 202.705 Q1756.76 200.969 1754.79 200.969 M1754.79 198.03 Q1758.45 198.03 1760.6 200.576 Q1762.75 203.122 1762.75 207.451 Q1762.75 211.779 1760.58 214.326 Q1758.43 216.849 1754.79 216.849 Q1751.09 216.849 1748.94 214.326 Q1746.78 211.779 1746.78 207.451 Q1746.78 203.099 1748.94 200.576 Q1751.11 198.03 1754.79 198.03 M1730.9 183.932 Q1728.91 183.932 1727.76 185.668 Q1726.62 187.381 1726.62 190.391 Q1726.62 193.446 1727.76 195.159 Q1728.89 196.872 1730.9 196.872 Q1732.92 196.872 1734.05 195.159 Q1735.21 193.446 1735.21 190.391 Q1735.21 187.405 1734.05 185.668 Q1732.89 183.932 1730.9 183.932 M1751.81 180.993 L1755.51 180.993 L1733.89 216.849 L1730.19 216.849 L1751.81 180.993 M1730.9 180.993 Q1734.56 180.993 1736.74 183.539 Q1738.91 186.062 1738.91 190.391 Q1738.91 194.766 1736.74 197.289 Q1734.58 199.812 1730.9 199.812 Q1727.22 199.812 1725.07 197.289 Q1722.94 194.742 1722.94 190.391 Q1722.94 186.085 1725.09 183.539 Q1727.25 180.993 1730.9 180.993 Z" fill="#000000" fill-rule="nonzero" fill-opacity="1" /><path clip-path="url(#clip430)" d="M1806.46 200.529 L1806.46 216.178 L1802.2 216.178 L1802.2 200.668 Q1802.2 196.988 1800.76 195.159 Q1799.33 193.33 1796.46 193.33 Q1793.01 193.33 1791.02 195.53 Q1789.03 197.729 1789.03 201.525 L1789.03 216.178 L1784.75 216.178 L1784.75 190.252 L1789.03 190.252 L1789.03 194.28 Q1790.56 191.942 1792.62 190.784 Q1794.7 189.627 1797.41 189.627 Q1801.88 189.627 1804.17 192.405 Q1806.46 195.159 1806.46 200.529 Z" fill="#000000" fill-rule="nonzero" fill-opacity="1" /><path clip-path="url(#clip430)" d="M1825 193.238 Q1821.57 193.238 1819.58 195.923 Q1817.59 198.585 1817.59 203.238 Q1817.59 207.891 1819.56 210.576 Q1821.55 213.238 1825 213.238 Q1828.4 213.238 1830.39 210.553 Q1832.38 207.867 1832.38 203.238 Q1832.38 198.631 1830.39 195.946 Q1828.4 193.238 1825 193.238 M1825 189.627 Q1830.56 189.627 1833.73 193.238 Q1836.9 196.849 1836.9 203.238 Q1836.9 209.604 1833.73 213.238 Q1830.56 216.849 1825 216.849 Q1819.42 216.849 1816.25 213.238 Q1813.1 209.604 1813.1 203.238 Q1813.1 196.849 1816.25 193.238 Q1819.42 189.627 1825 189.627 Z" fill="#000000" fill-rule="nonzero" fill-opacity="1" /><path clip-path="url(#clip430)" d="M1865.51 200.529 L1865.51 216.178 L1861.25 216.178 L1861.25 200.668 Q1861.25 196.988 1859.81 195.159 Q1858.38 193.33 1855.51 193.33 Q1852.06 193.33 1850.07 195.53 Q1848.08 197.729 1848.08 201.525 L1848.08 216.178 L1843.8 216.178 L1843.8 190.252 L1848.08 190.252 L1848.08 194.28 Q1849.61 191.942 1851.67 190.784 Q1853.75 189.627 1856.46 189.627 Q1860.93 189.627 1863.22 192.405 Q1865.51 195.159 1865.51 200.529 Z" fill="#000000" fill-rule="nonzero" fill-opacity="1" /><path clip-path="url(#clip430)" d="M1871.85 201.293 L1884.33 201.293 L1884.33 205.09 L1871.85 205.09 L1871.85 201.293 Z" fill="#000000" fill-rule="nonzero" fill-opacity="1" /><path clip-path="url(#clip430)" d="M1906.13 194.233 Q1905.42 193.817 1904.56 193.631 Q1903.73 193.423 1902.71 193.423 Q1899.1 193.423 1897.15 195.784 Q1895.23 198.122 1895.23 202.52 L1895.23 216.178 L1890.95 216.178 L1890.95 190.252 L1895.23 190.252 L1895.23 194.28 Q1896.57 191.918 1898.73 190.784 Q1900.88 189.627 1903.96 189.627 Q1904.4 189.627 1904.93 189.696 Q1905.46 189.743 1906.11 189.858 L1906.13 194.233 Z" fill="#000000" fill-rule="nonzero" fill-opacity="1" /><path clip-path="url(#clip430)" d="M1931.74 202.15 L1931.74 204.233 L1912.15 204.233 Q1912.43 208.631 1914.79 210.946 Q1917.18 213.238 1921.41 213.238 Q1923.87 213.238 1926.16 212.636 Q1928.47 212.034 1930.74 210.83 L1930.74 214.858 Q1928.45 215.83 1926.04 216.34 Q1923.63 216.849 1921.16 216.849 Q1914.95 216.849 1911.32 213.238 Q1907.71 209.627 1907.71 203.469 Q1907.71 197.104 1911.13 193.377 Q1914.58 189.627 1920.42 189.627 Q1925.65 189.627 1928.68 193.006 Q1931.74 196.363 1931.74 202.15 M1927.48 200.9 Q1927.43 197.405 1925.51 195.321 Q1923.61 193.238 1920.46 193.238 Q1916.9 193.238 1914.74 195.252 Q1912.62 197.266 1912.29 200.923 L1927.48 200.9 Z" fill="#000000" fill-rule="nonzero" fill-opacity="1" /><path clip-path="url(#clip430)" d="M1938.73 190.252 L1942.99 190.252 L1942.99 216.641 Q1942.99 221.594 1941.09 223.816 Q1939.21 226.039 1935.02 226.039 L1933.4 226.039 L1933.4 222.428 L1934.54 222.428 Q1936.97 222.428 1937.85 221.293 Q1938.73 220.182 1938.73 216.641 L1938.73 190.252 M1938.73 180.159 L1942.99 180.159 L1942.99 185.553 L1938.73 185.553 L1938.73 180.159 Z" fill="#000000" fill-rule="nonzero" fill-opacity="1" /><path clip-path="url(#clip430)" d="M1974.07 202.15 L1974.07 204.233 L1954.49 204.233 Q1954.77 208.631 1957.13 210.946 Q1959.51 213.238 1963.75 213.238 Q1966.2 213.238 1968.49 212.636 Q1970.81 212.034 1973.08 210.83 L1973.08 214.858 Q1970.79 215.83 1968.38 216.34 Q1965.97 216.849 1963.49 216.849 Q1957.29 216.849 1953.66 213.238 Q1950.05 209.627 1950.05 203.469 Q1950.05 197.104 1953.47 193.377 Q1956.92 189.627 1962.75 189.627 Q1967.99 189.627 1971.02 193.006 Q1974.07 196.363 1974.07 202.15 M1969.81 200.9 Q1969.77 197.405 1967.85 195.321 Q1965.95 193.238 1962.8 193.238 Q1959.24 193.238 1957.08 195.252 Q1954.95 197.266 1954.63 200.923 L1969.81 200.9 Z" fill="#000000" fill-rule="nonzero" fill-opacity="1" /><path clip-path="url(#clip430)" d="M1999.72 191.247 L1999.72 195.229 Q1997.92 194.233 1996.09 193.747 Q1994.28 193.238 1992.43 193.238 Q1988.29 193.238 1985.99 195.877 Q1983.7 198.492 1983.7 203.238 Q1983.7 207.983 1985.99 210.622 Q1988.29 213.238 1992.43 213.238 Q1994.28 213.238 1996.09 212.752 Q1997.92 212.242 1999.72 211.247 L1999.72 215.182 Q1997.94 216.016 1996.02 216.432 Q1994.12 216.849 1991.97 216.849 Q1986.11 216.849 1982.66 213.168 Q1979.21 209.488 1979.21 203.238 Q1979.21 196.895 1982.68 193.261 Q1986.18 189.627 1992.24 189.627 Q1994.21 189.627 1996.09 190.043 Q1997.96 190.437 1999.72 191.247 Z" fill="#000000" fill-rule="nonzero" fill-opacity="1" /><path clip-path="url(#clip430)" d="M2011.34 182.891 L2011.34 190.252 L2020.11 190.252 L2020.11 193.562 L2011.34 193.562 L2011.34 207.636 Q2011.34 210.807 2012.2 211.71 Q2013.08 212.613 2015.74 212.613 L2020.11 212.613 L2020.11 216.178 L2015.74 216.178 Q2010.81 216.178 2008.93 214.349 Q2007.06 212.497 2007.06 207.636 L2007.06 193.562 L2003.93 193.562 L2003.93 190.252 L2007.06 190.252 L2007.06 182.891 L2011.34 182.891 Z" fill="#000000" fill-rule="nonzero" fill-opacity="1" /><path clip-path="url(#clip430)" d="M2025.72 190.252 L2029.98 190.252 L2029.98 216.178 L2025.72 216.178 L2025.72 190.252 M2025.72 180.159 L2029.98 180.159 L2029.98 185.553 L2025.72 185.553 L2025.72 180.159 Z" fill="#000000" fill-rule="nonzero" fill-opacity="1" /><path clip-path="url(#clip430)" d="M2048.93 193.238 Q2045.51 193.238 2043.52 195.923 Q2041.53 198.585 2041.53 203.238 Q2041.53 207.891 2043.49 210.576 Q2045.48 213.238 2048.93 213.238 Q2052.34 213.238 2054.33 210.553 Q2056.32 207.867 2056.32 203.238 Q2056.32 198.631 2054.33 195.946 Q2052.34 193.238 2048.93 193.238 M2048.93 189.627 Q2054.49 189.627 2057.66 193.238 Q2060.83 196.849 2060.83 203.238 Q2060.83 209.604 2057.66 213.238 Q2054.49 216.849 2048.93 216.849 Q2043.36 216.849 2040.18 213.238 Q2037.04 209.604 2037.04 203.238 Q2037.04 196.849 2040.18 193.238 Q2043.36 189.627 2048.93 189.627 Z" fill="#000000" fill-rule="nonzero" fill-opacity="1" /><path clip-path="url(#clip430)" d="M2089.44 200.529 L2089.44 216.178 L2085.18 216.178 L2085.18 200.668 Q2085.18 196.988 2083.75 195.159 Q2082.31 193.33 2079.44 193.33 Q2075.99 193.33 2074 195.53 Q2072.01 197.729 2072.01 201.525 L2072.01 216.178 L2067.73 216.178 L2067.73 190.252 L2072.01 190.252 L2072.01 194.28 Q2073.54 191.942 2075.6 190.784 Q2077.68 189.627 2080.39 189.627 Q2084.86 189.627 2087.15 192.405 Q2089.44 195.159 2089.44 200.529 Z" fill="#000000" fill-rule="nonzero" fill-opacity="1" /><path clip-path="url(#clip430)" d="M2128.03 194.233 Q2127.31 193.817 2126.46 193.631 Q2125.62 193.423 2124.6 193.423 Q2120.99 193.423 2119.05 195.784 Q2117.13 198.122 2117.13 202.52 L2117.13 216.178 L2112.85 216.178 L2112.85 190.252 L2117.13 190.252 L2117.13 194.28 Q2118.47 191.918 2120.62 190.784 Q2122.78 189.627 2125.85 189.627 Q2126.29 189.627 2126.83 189.696 Q2127.36 189.743 2128.01 189.858 L2128.03 194.233 Z" fill="#000000" fill-rule="nonzero" fill-opacity="1" /><path clip-path="url(#clip430)" d="M2153.63 202.15 L2153.63 204.233 L2134.05 204.233 Q2134.33 208.631 2136.69 210.946 Q2139.07 213.238 2143.31 213.238 Q2145.76 213.238 2148.05 212.636 Q2150.37 212.034 2152.64 210.83 L2152.64 214.858 Q2150.35 215.83 2147.94 216.34 Q2145.53 216.849 2143.05 216.849 Q2136.85 216.849 2133.22 213.238 Q2129.6 209.627 2129.6 203.469 Q2129.6 197.104 2133.03 193.377 Q2136.48 189.627 2142.31 189.627 Q2147.54 189.627 2150.58 193.006 Q2153.63 196.363 2153.63 202.15 M2149.37 200.9 Q2149.33 197.405 2147.41 195.321 Q2145.51 193.238 2142.36 193.238 Q2138.79 193.238 2136.64 195.252 Q2134.51 197.266 2134.19 200.923 L2149.37 200.9 Z" fill="#000000" fill-rule="nonzero" fill-opacity="1" /><path clip-path="url(#clip430)" d="M2177.68 202.914 Q2177.68 198.284 2175.76 195.738 Q2173.86 193.192 2170.41 193.192 Q2166.99 193.192 2165.07 195.738 Q2163.17 198.284 2163.17 202.914 Q2163.17 207.52 2165.07 210.066 Q2166.99 212.613 2170.41 212.613 Q2173.86 212.613 2175.76 210.066 Q2177.68 207.52 2177.68 202.914 M2181.94 212.96 Q2181.94 219.58 2179 222.798 Q2176.06 226.039 2170 226.039 Q2167.75 226.039 2165.76 225.691 Q2163.77 225.367 2161.9 224.673 L2161.9 220.529 Q2163.77 221.548 2165.6 222.034 Q2167.43 222.52 2169.33 222.52 Q2173.52 222.52 2175.6 220.321 Q2177.68 218.145 2177.68 213.724 L2177.68 211.617 Q2176.36 213.909 2174.3 215.043 Q2172.24 216.178 2169.37 216.178 Q2164.6 216.178 2161.69 212.543 Q2158.77 208.909 2158.77 202.914 Q2158.77 196.895 2161.69 193.261 Q2164.6 189.627 2169.37 189.627 Q2172.24 189.627 2174.3 190.761 Q2176.36 191.895 2177.68 194.187 L2177.68 190.252 L2181.94 190.252 L2181.94 212.96 Z" fill="#000000" fill-rule="nonzero" fill-opacity="1" /><path clip-path="url(#clip430)" d="M2190.72 190.252 L2194.97 190.252 L2194.97 216.178 L2190.72 216.178 L2190.72 190.252 M2190.72 180.159 L2194.97 180.159 L2194.97 185.553 L2190.72 185.553 L2190.72 180.159 Z" fill="#000000" fill-rule="nonzero" fill-opacity="1" /><path clip-path="url(#clip430)" d="M2213.93 193.238 Q2210.51 193.238 2208.52 195.923 Q2206.53 198.585 2206.53 203.238 Q2206.53 207.891 2208.49 210.576 Q2210.48 213.238 2213.93 213.238 Q2217.34 213.238 2219.33 210.553 Q2221.32 207.867 2221.32 203.238 Q2221.32 198.631 2219.33 195.946 Q2217.34 193.238 2213.93 193.238 M2213.93 189.627 Q2219.49 189.627 2222.66 193.238 Q2225.83 196.849 2225.83 203.238 Q2225.83 209.604 2222.66 213.238 Q2219.49 216.849 2213.93 216.849 Q2208.35 216.849 2205.18 213.238 Q2202.03 209.604 2202.03 203.238 Q2202.03 196.849 2205.18 193.238 Q2208.35 189.627 2213.93 189.627 Z" fill="#000000" fill-rule="nonzero" fill-opacity="1" /><path clip-path="url(#clip430)" d="M2254.44 200.529 L2254.44 216.178 L2250.18 216.178 L2250.18 200.668 Q2250.18 196.988 2248.75 195.159 Q2247.31 193.33 2244.44 193.33 Q2240.99 193.33 2239 195.53 Q2237.01 197.729 2237.01 201.525 L2237.01 216.178 L2232.73 216.178 L2232.73 190.252 L2237.01 190.252 L2237.01 194.28 Q2238.54 191.942 2240.6 190.784 Q2242.68 189.627 2245.39 189.627 Q2249.86 189.627 2252.15 192.405 Q2254.44 195.159 2254.44 200.529 Z" fill="#000000" fill-rule="nonzero" fill-opacity="1" /><path clip-path="url(#clip430)" d="M1490.94 271.474 L1638.41 271.474 L1638.41 230.002 L1490.94 230.002 L1490.94 271.474  Z" fill="#ffa500" fill-rule="evenodd" fill-opacity="0.5"/>
<polyline clip-path="url(#clip430)" style="stroke:#ffa500; stroke-linecap:round; stroke-linejoin:round; stroke-width:4; stroke-opacity:1; fill:none" points="1490.94,230.002 1638.41,230.002 "/>
<path clip-path="url(#clip430)" d="M1667.39 255.078 Q1667.39 259.777 1669.31 262.462 Q1671.25 265.124 1674.63 265.124 Q1678.01 265.124 1679.95 262.462 Q1681.9 259.777 1681.9 255.078 Q1681.9 250.379 1679.95 247.717 Q1678.01 245.032 1674.63 245.032 Q1671.25 245.032 1669.31 247.717 Q1667.39 250.379 1667.39 255.078 M1681.9 264.129 Q1680.56 266.443 1678.5 267.578 Q1676.46 268.689 1673.59 268.689 Q1668.89 268.689 1665.93 264.939 Q1662.99 261.189 1662.99 255.078 Q1662.99 248.967 1665.93 245.217 Q1668.89 241.467 1673.59 241.467 Q1676.46 241.467 1678.5 242.601 Q1680.56 243.712 1681.9 246.027 L1681.9 242.092 L1686.16 242.092 L1686.16 277.879 L1681.9 277.879 L1681.9 264.129 Z" fill="#000000" fill-rule="nonzero" fill-opacity="1" /><path clip-path="url(#clip430)" d="M1695.67 267.3 L1695.67 263.041 Q1697.43 263.874 1699.24 264.314 Q1701.04 264.754 1702.78 264.754 Q1707.41 264.754 1709.84 261.652 Q1712.29 258.527 1712.64 252.184 Q1711.3 254.175 1709.24 255.24 Q1707.18 256.305 1704.68 256.305 Q1699.49 256.305 1696.46 253.18 Q1693.45 250.032 1693.45 244.592 Q1693.45 239.268 1696.6 236.05 Q1699.75 232.833 1704.98 232.833 Q1710.97 232.833 1714.12 237.439 Q1717.29 242.022 1717.29 250.772 Q1717.29 258.944 1713.4 263.828 Q1709.54 268.689 1702.99 268.689 Q1701.23 268.689 1699.42 268.342 Q1697.62 267.994 1695.67 267.3 M1704.98 252.647 Q1708.13 252.647 1709.95 250.494 Q1711.81 248.342 1711.81 244.592 Q1711.81 240.865 1709.95 238.712 Q1708.13 236.536 1704.98 236.536 Q1701.83 236.536 1699.98 238.712 Q1698.15 240.865 1698.15 244.592 Q1698.15 248.342 1699.98 250.494 Q1701.83 252.647 1704.98 252.647 Z" fill="#000000" fill-rule="nonzero" fill-opacity="1" /><path clip-path="url(#clip430)" d="M1725.74 233.458 L1744.1 233.458 L1744.1 237.393 L1730.02 237.393 L1730.02 245.865 Q1731.04 245.518 1732.06 245.356 Q1733.08 245.17 1734.1 245.17 Q1739.88 245.17 1743.26 248.342 Q1746.64 251.513 1746.64 256.93 Q1746.64 262.508 1743.17 265.61 Q1739.7 268.689 1733.38 268.689 Q1731.2 268.689 1728.94 268.318 Q1726.69 267.948 1724.28 267.207 L1724.28 262.508 Q1726.37 263.643 1728.59 264.198 Q1730.81 264.754 1733.29 264.754 Q1737.29 264.754 1739.63 262.647 Q1741.97 260.541 1741.97 256.93 Q1741.97 253.319 1739.63 251.212 Q1737.29 249.106 1733.29 249.106 Q1731.41 249.106 1729.54 249.522 Q1727.69 249.939 1725.74 250.819 L1725.74 233.458 Z" fill="#000000" fill-rule="nonzero" fill-opacity="1" /><polyline clip-path="url(#clip430)" style="stroke:#0000ff; stroke-linecap:round; stroke-linejoin:round; stroke-width:4; stroke-opacity:1; fill:none" points="1490.94,302.578 1638.41,302.578 "/>
<path clip-path="url(#clip430)" d="M1683.33 298.909 Q1684.93 296.038 1687.15 294.673 Q1689.38 293.307 1692.38 293.307 Q1696.44 293.307 1698.63 296.154 Q1700.83 298.978 1700.83 304.209 L1700.83 319.858 L1696.55 319.858 L1696.55 304.348 Q1696.55 300.622 1695.23 298.816 Q1693.91 297.01 1691.2 297.01 Q1687.89 297.01 1685.97 299.21 Q1684.05 301.409 1684.05 305.205 L1684.05 319.858 L1679.77 319.858 L1679.77 304.348 Q1679.77 300.598 1678.45 298.816 Q1677.13 297.01 1674.38 297.01 Q1671.11 297.01 1669.19 299.233 Q1667.27 301.432 1667.27 305.205 L1667.27 319.858 L1662.99 319.858 L1662.99 293.932 L1667.27 293.932 L1667.27 297.96 Q1668.73 295.575 1670.76 294.441 Q1672.8 293.307 1675.6 293.307 Q1678.43 293.307 1680.39 294.742 Q1682.38 296.177 1683.33 298.909 Z" fill="#000000" fill-rule="nonzero" fill-opacity="1" /><path clip-path="url(#clip430)" d="M1731.51 305.83 L1731.51 307.913 L1711.92 307.913 Q1712.2 312.311 1714.56 314.626 Q1716.94 316.918 1721.18 316.918 Q1723.63 316.918 1725.93 316.316 Q1728.24 315.714 1730.51 314.51 L1730.51 318.538 Q1728.22 319.51 1725.81 320.02 Q1723.4 320.529 1720.93 320.529 Q1714.72 320.529 1711.09 316.918 Q1707.48 313.307 1707.48 307.149 Q1707.48 300.784 1710.9 297.057 Q1714.35 293.307 1720.19 293.307 Q1725.42 293.307 1728.45 296.686 Q1731.51 300.043 1731.51 305.83 M1727.25 304.58 Q1727.2 301.085 1725.28 299.001 Q1723.38 296.918 1720.23 296.918 Q1716.67 296.918 1714.51 298.932 Q1712.38 300.946 1712.06 304.603 L1727.25 304.58 Z" fill="#000000" fill-rule="nonzero" fill-opacity="1" /><path clip-path="url(#clip430)" d="M1750.28 306.825 Q1745.12 306.825 1743.13 308.006 Q1741.13 309.186 1741.13 312.034 Q1741.13 314.302 1742.62 315.645 Q1744.12 316.964 1746.69 316.964 Q1750.23 316.964 1752.36 314.464 Q1754.51 311.941 1754.51 307.774 L1754.51 306.825 L1750.28 306.825 M1758.77 305.066 L1758.77 319.858 L1754.51 319.858 L1754.51 315.922 Q1753.06 318.283 1750.88 319.418 Q1748.7 320.529 1745.56 320.529 Q1741.57 320.529 1739.21 318.307 Q1736.88 316.061 1736.88 312.311 Q1736.88 307.936 1739.79 305.714 Q1742.73 303.492 1748.54 303.492 L1754.51 303.492 L1754.51 303.075 Q1754.51 300.135 1752.57 298.538 Q1750.65 296.918 1747.15 296.918 Q1744.93 296.918 1742.82 297.45 Q1740.72 297.983 1738.77 299.047 L1738.77 295.112 Q1741.11 294.21 1743.31 293.77 Q1745.51 293.307 1747.59 293.307 Q1753.22 293.307 1756 296.223 Q1758.77 299.14 1758.77 305.066 Z" fill="#000000" fill-rule="nonzero" fill-opacity="1" /><path clip-path="url(#clip430)" d="M1789.1 304.209 L1789.1 319.858 L1784.84 319.858 L1784.84 304.348 Q1784.84 300.668 1783.4 298.839 Q1781.97 297.01 1779.1 297.01 Q1775.65 297.01 1773.66 299.21 Q1771.67 301.409 1771.67 305.205 L1771.67 319.858 L1767.38 319.858 L1767.38 293.932 L1771.67 293.932 L1771.67 297.96 Q1773.19 295.622 1775.25 294.464 Q1777.34 293.307 1780.05 293.307 Q1784.51 293.307 1786.81 296.085 Q1789.1 298.839 1789.1 304.209 Z" fill="#000000" fill-rule="nonzero" fill-opacity="1" /><polyline clip-path="url(#clip430)" style="stroke:#000000; stroke-linecap:round; stroke-linejoin:round; stroke-width:4; stroke-opacity:1; fill:none" points="1490.94,354.418 1638.41,354.418 "/>
<path clip-path="url(#clip430)" d="M1683.33 350.749 Q1684.93 347.878 1687.15 346.513 Q1689.38 345.147 1692.38 345.147 Q1696.44 345.147 1698.63 347.994 Q1700.83 350.818 1700.83 356.049 L1700.83 371.698 L1696.55 371.698 L1696.55 356.188 Q1696.55 352.462 1695.23 350.656 Q1693.91 348.85 1691.2 348.85 Q1687.89 348.85 1685.97 351.05 Q1684.05 353.249 1684.05 357.045 L1684.05 371.698 L1679.77 371.698 L1679.77 356.188 Q1679.77 352.438 1678.45 350.656 Q1677.13 348.85 1674.38 348.85 Q1671.11 348.85 1669.19 351.073 Q1667.27 353.272 1667.27 357.045 L1667.27 371.698 L1662.99 371.698 L1662.99 345.772 L1667.27 345.772 L1667.27 349.8 Q1668.73 347.415 1670.76 346.281 Q1672.8 345.147 1675.6 345.147 Q1678.43 345.147 1680.39 346.582 Q1682.38 348.017 1683.33 350.749 Z" fill="#000000" fill-rule="nonzero" fill-opacity="1" /><path clip-path="url(#clip430)" d="M1731.51 357.67 L1731.51 359.753 L1711.92 359.753 Q1712.2 364.151 1714.56 366.466 Q1716.94 368.758 1721.18 368.758 Q1723.63 368.758 1725.93 368.156 Q1728.24 367.554 1730.51 366.35 L1730.51 370.378 Q1728.22 371.35 1725.81 371.86 Q1723.4 372.369 1720.93 372.369 Q1714.72 372.369 1711.09 368.758 Q1707.48 365.147 1707.48 358.989 Q1707.48 352.624 1710.9 348.897 Q1714.35 345.147 1720.19 345.147 Q1725.42 345.147 1728.45 348.526 Q1731.51 351.883 1731.51 357.67 M1727.25 356.42 Q1727.2 352.925 1725.28 350.841 Q1723.38 348.758 1720.23 348.758 Q1716.67 348.758 1714.51 350.772 Q1712.38 352.786 1712.06 356.443 L1727.25 356.42 Z" fill="#000000" fill-rule="nonzero" fill-opacity="1" /><path clip-path="url(#clip430)" d="M1755.56 349.707 L1755.56 335.679 L1759.82 335.679 L1759.82 371.698 L1755.56 371.698 L1755.56 367.809 Q1754.21 370.123 1752.15 371.258 Q1750.12 372.369 1747.25 372.369 Q1742.55 372.369 1739.58 368.619 Q1736.64 364.869 1736.64 358.758 Q1736.64 352.647 1739.58 348.897 Q1742.55 345.147 1747.25 345.147 Q1750.12 345.147 1752.15 346.281 Q1754.21 347.392 1755.56 349.707 M1741.04 358.758 Q1741.04 363.457 1742.96 366.142 Q1744.91 368.804 1748.29 368.804 Q1751.67 368.804 1753.61 366.142 Q1755.56 363.457 1755.56 358.758 Q1755.56 354.059 1753.61 351.397 Q1751.67 348.712 1748.29 348.712 Q1744.91 348.712 1742.96 351.397 Q1741.04 354.059 1741.04 358.758 Z" fill="#000000" fill-rule="nonzero" fill-opacity="1" /><path clip-path="url(#clip430)" d="M1768.59 345.772 L1772.85 345.772 L1772.85 371.698 L1768.59 371.698 L1768.59 345.772 M1768.59 335.679 L1772.85 335.679 L1772.85 341.073 L1768.59 341.073 L1768.59 335.679 Z" fill="#000000" fill-rule="nonzero" fill-opacity="1" /><path clip-path="url(#clip430)" d="M1793.54 358.665 Q1788.38 358.665 1786.39 359.846 Q1784.4 361.026 1784.4 363.874 Q1784.4 366.142 1785.88 367.485 Q1787.38 368.804 1789.95 368.804 Q1793.5 368.804 1795.63 366.304 Q1797.78 363.781 1797.78 359.614 L1797.78 358.665 L1793.54 358.665 M1802.04 356.906 L1802.04 371.698 L1797.78 371.698 L1797.78 367.762 Q1796.32 370.123 1794.14 371.258 Q1791.97 372.369 1788.82 372.369 Q1784.84 372.369 1782.48 370.147 Q1780.14 367.901 1780.14 364.151 Q1780.14 359.776 1783.06 357.554 Q1786 355.332 1791.81 355.332 L1797.78 355.332 L1797.78 354.915 Q1797.78 351.975 1795.83 350.378 Q1793.91 348.758 1790.42 348.758 Q1788.19 348.758 1786.09 349.29 Q1783.98 349.823 1782.04 350.887 L1782.04 346.952 Q1784.38 346.05 1786.57 345.61 Q1788.77 345.147 1790.86 345.147 Q1796.48 345.147 1799.26 348.063 Q1802.04 350.98 1802.04 356.906 Z" fill="#000000" fill-rule="nonzero" fill-opacity="1" /><path clip-path="url(#clip430)" d="M1832.36 356.049 L1832.36 371.698 L1828.1 371.698 L1828.1 356.188 Q1828.1 352.508 1826.67 350.679 Q1825.23 348.85 1822.36 348.85 Q1818.91 348.85 1816.92 351.05 Q1814.93 353.249 1814.93 357.045 L1814.93 371.698 L1810.65 371.698 L1810.65 345.772 L1814.93 345.772 L1814.93 349.8 Q1816.46 347.462 1818.52 346.304 Q1820.6 345.147 1823.31 345.147 Q1827.78 345.147 1830.07 347.925 Q1832.36 350.679 1832.36 356.049 Z" fill="#000000" fill-rule="nonzero" fill-opacity="1" /></svg>
