<?xml version="1.0" encoding="utf-8"?>
<svg xmlns="http://www.w3.org/2000/svg" xmlns:xlink="http://www.w3.org/1999/xlink" width="600" height="400" viewBox="0 0 2400 1600">
<defs>
  <clipPath id="clip010">
    <rect x="0" y="0" width="2400" height="1600"/>
  </clipPath>
</defs>
<path clip-path="url(#clip010)" d="M0 1600 L2400 1600 L2400 0 L0 0  Z" fill="#ffffff" fill-rule="evenodd" fill-opacity="1"/>
<defs>
  <clipPath id="clip011">
    <rect x="480" y="0" width="1681" height="1600"/>
  </clipPath>
</defs>
<path clip-path="url(#clip010)" d="M112.177 1486.45 L2352.76 1486.45 L2352.76 47.2441 L112.177 47.2441  Z" fill="#ffffff" fill-rule="evenodd" fill-opacity="1"/>
<defs>
  <clipPath id="clip012">
    <rect x="112" y="47" width="2242" height="1440"/>
  </clipPath>
</defs>
<polyline clip-path="url(#clip012)" style="stroke:#000000; stroke-linecap:round; stroke-linejoin:round; stroke-width:2; stroke-opacity:0.1; fill:none" points="606.115,1486.45 606.115,47.2441 "/>
<polyline clip-path="url(#clip012)" style="stroke:#000000; stroke-linecap:round; stroke-linejoin:round; stroke-width:2; stroke-opacity:0.1; fill:none" points="1150.96,1486.45 1150.96,47.2441 "/>
<polyline clip-path="url(#clip012)" style="stroke:#000000; stroke-linecap:round; stroke-linejoin:round; stroke-width:2; stroke-opacity:0.1; fill:none" points="1695.8,1486.45 1695.8,47.2441 "/>
<polyline clip-path="url(#clip012)" style="stroke:#000000; stroke-linecap:round; stroke-linejoin:round; stroke-width:2; stroke-opacity:0.1; fill:none" points="2240.64,1486.45 2240.64,47.2441 "/>
<polyline clip-path="url(#clip010)" style="stroke:#000000; stroke-linecap:round; stroke-linejoin:round; stroke-width:4; stroke-opacity:1; fill:none" points="112.177,1486.45 2352.76,1486.45 "/>
<polyline clip-path="url(#clip010)" style="stroke:#000000; stroke-linecap:round; stroke-linejoin:round; stroke-width:4; stroke-opacity:1; fill:none" points="606.115,1486.45 606.115,1467.55 "/>
<polyline clip-path="url(#clip010)" style="stroke:#000000; stroke-linecap:round; stroke-linejoin:round; stroke-width:4; stroke-opacity:1; fill:none" points="1150.96,1486.45 1150.96,1467.55 "/>
<polyline clip-path="url(#clip010)" style="stroke:#000000; stroke-linecap:round; stroke-linejoin:round; stroke-width:4; stroke-opacity:1; fill:none" points="1695.8,1486.45 1695.8,1467.55 "/>
<polyline clip-path="url(#clip010)" style="stroke:#000000; stroke-linecap:round; stroke-linejoin:round; stroke-width:4; stroke-opacity:1; fill:none" points="2240.64,1486.45 2240.64,1467.55 "/>
<path clip-path="url(#clip010)" d="M573.361 1544.91 L581 1544.91 L581 1518.55 L572.69 1520.21 L572.69 1515.95 L580.953 1514.29 L585.629 1514.29 L585.629 1544.91 L593.268 1544.91 L593.268 1548.85 L573.361 1548.85 L573.361 1544.91 Z" fill="#000000" fill-rule="nonzero" fill-opacity="1" /><path clip-path="url(#clip010)" d="M602.713 1542.97 L607.597 1542.97 L607.597 1548.85 L602.713 1548.85 L602.713 1542.97 Z" fill="#000000" fill-rule="nonzero" fill-opacity="1" /><path clip-path="url(#clip010)" d="M617.921 1548.13 L617.921 1543.87 Q619.68 1544.7 621.486 1545.14 Q623.291 1545.58 625.027 1545.58 Q629.657 1545.58 632.087 1542.48 Q634.541 1539.36 634.888 1533.01 Q633.546 1535.01 631.486 1536.07 Q629.425 1537.13 626.925 1537.13 Q621.74 1537.13 618.708 1534.01 Q615.699 1530.86 615.699 1525.42 Q615.699 1520.1 618.847 1516.88 Q621.995 1513.66 627.226 1513.66 Q633.222 1513.66 636.37 1518.27 Q639.541 1522.85 639.541 1531.6 Q639.541 1539.77 635.652 1544.66 Q631.787 1549.52 625.236 1549.52 Q623.476 1549.52 621.671 1549.17 Q619.865 1548.82 617.921 1548.13 M627.226 1533.48 Q630.375 1533.48 632.203 1531.32 Q634.055 1529.17 634.055 1525.42 Q634.055 1521.7 632.203 1519.54 Q630.375 1517.37 627.226 1517.37 Q624.078 1517.37 622.226 1519.54 Q620.398 1521.7 620.398 1525.42 Q620.398 1529.17 622.226 1531.32 Q624.078 1533.48 627.226 1533.48 Z" fill="#000000" fill-rule="nonzero" fill-opacity="1" /><path clip-path="url(#clip010)" d="M1122.19 1544.91 L1138.51 1544.91 L1138.51 1548.85 L1116.57 1548.85 L1116.57 1544.91 Q1119.23 1542.16 1123.81 1537.53 Q1128.42 1532.88 1129.6 1531.53 Q1131.85 1529.01 1132.73 1527.27 Q1133.63 1525.51 1133.63 1523.82 Q1133.63 1521.07 1131.69 1519.33 Q1129.76 1517.6 1126.66 1517.6 Q1124.46 1517.6 1122.01 1518.36 Q1119.58 1519.13 1116.8 1520.68 L1116.8 1515.95 Q1119.62 1514.82 1122.08 1514.24 Q1124.53 1513.66 1126.57 1513.66 Q1131.94 1513.66 1135.13 1516.35 Q1138.33 1519.03 1138.33 1523.52 Q1138.33 1525.65 1137.52 1527.57 Q1136.73 1529.47 1134.62 1532.07 Q1134.05 1532.74 1130.94 1535.95 Q1127.84 1539.15 1122.19 1544.91 Z" fill="#000000" fill-rule="nonzero" fill-opacity="1" /><path clip-path="url(#clip010)" d="M1148.33 1542.97 L1153.21 1542.97 L1153.21 1548.85 L1148.33 1548.85 L1148.33 1542.97 Z" fill="#000000" fill-rule="nonzero" fill-opacity="1" /><path clip-path="url(#clip010)" d="M1173.4 1517.37 Q1169.79 1517.37 1167.96 1520.93 Q1166.15 1524.47 1166.15 1531.6 Q1166.15 1538.71 1167.96 1542.27 Q1169.79 1545.82 1173.4 1545.82 Q1177.03 1545.82 1178.84 1542.27 Q1180.67 1538.71 1180.67 1531.6 Q1180.67 1524.47 1178.84 1520.93 Q1177.03 1517.37 1173.4 1517.37 M1173.4 1513.66 Q1179.21 1513.66 1182.26 1518.27 Q1185.34 1522.85 1185.34 1531.6 Q1185.34 1540.33 1182.26 1544.94 Q1179.21 1549.52 1173.4 1549.52 Q1167.59 1549.52 1164.51 1544.94 Q1161.45 1540.33 1161.45 1531.6 Q1161.45 1522.85 1164.51 1518.27 Q1167.59 1513.66 1173.4 1513.66 Z" fill="#000000" fill-rule="nonzero" fill-opacity="1" /><path clip-path="url(#clip010)" d="M1667.65 1544.91 L1683.97 1544.91 L1683.97 1548.85 L1662.02 1548.85 L1662.02 1544.91 Q1664.69 1542.16 1669.27 1537.53 Q1673.87 1532.88 1675.06 1531.53 Q1677.3 1529.01 1678.18 1527.27 Q1679.08 1525.51 1679.08 1523.82 Q1679.08 1521.07 1677.14 1519.33 Q1675.22 1517.6 1672.12 1517.6 Q1669.92 1517.6 1667.46 1518.36 Q1665.03 1519.13 1662.25 1520.68 L1662.25 1515.95 Q1665.08 1514.82 1667.53 1514.24 Q1669.99 1513.66 1672.02 1513.66 Q1677.39 1513.66 1680.59 1516.35 Q1683.78 1519.03 1683.78 1523.52 Q1683.78 1525.65 1682.97 1527.57 Q1682.19 1529.47 1680.08 1532.07 Q1679.5 1532.74 1676.4 1535.95 Q1673.3 1539.15 1667.65 1544.91 Z" fill="#000000" fill-rule="nonzero" fill-opacity="1" /><path clip-path="url(#clip010)" d="M1693.78 1542.97 L1698.67 1542.97 L1698.67 1548.85 L1693.78 1548.85 L1693.78 1542.97 Z" fill="#000000" fill-rule="nonzero" fill-opacity="1" /><path clip-path="url(#clip010)" d="M1709.66 1544.91 L1717.3 1544.91 L1717.3 1518.55 L1708.99 1520.21 L1708.99 1515.95 L1717.25 1514.29 L1721.93 1514.29 L1721.93 1544.91 L1729.57 1544.91 L1729.57 1548.85 L1709.66 1548.85 L1709.66 1544.91 Z" fill="#000000" fill-rule="nonzero" fill-opacity="1" /><path clip-path="url(#clip010)" d="M2212.67 1544.91 L2228.99 1544.91 L2228.99 1548.85 L2207.05 1548.85 L2207.05 1544.91 Q2209.71 1542.16 2214.29 1537.53 Q2218.9 1532.88 2220.08 1531.53 Q2222.33 1529.01 2223.21 1527.27 Q2224.11 1525.51 2224.11 1523.82 Q2224.11 1521.07 2222.16 1519.33 Q2220.24 1517.6 2217.14 1517.6 Q2214.94 1517.6 2212.49 1518.36 Q2210.06 1519.13 2207.28 1520.68 L2207.28 1515.95 Q2210.1 1514.82 2212.56 1514.24 Q2215.01 1513.66 2217.05 1513.66 Q2222.42 1513.66 2225.61 1516.35 Q2228.81 1519.03 2228.81 1523.52 Q2228.81 1525.65 2228 1527.57 Q2227.21 1529.47 2225.1 1532.07 Q2224.53 1532.74 2221.42 1535.95 Q2218.32 1539.15 2212.67 1544.91 Z" fill="#000000" fill-rule="nonzero" fill-opacity="1" /><path clip-path="url(#clip010)" d="M2238.81 1542.97 L2243.69 1542.97 L2243.69 1548.85 L2238.81 1548.85 L2238.81 1542.97 Z" fill="#000000" fill-rule="nonzero" fill-opacity="1" /><path clip-path="url(#clip010)" d="M2257.9 1544.91 L2274.22 1544.91 L2274.22 1548.85 L2252.28 1548.85 L2252.28 1544.91 Q2254.94 1542.16 2259.53 1537.53 Q2264.13 1532.88 2265.31 1531.53 Q2267.56 1529.01 2268.44 1527.27 Q2269.34 1525.51 2269.34 1523.82 Q2269.34 1521.07 2267.4 1519.33 Q2265.47 1517.6 2262.37 1517.6 Q2260.17 1517.6 2257.72 1518.36 Q2255.29 1519.13 2252.51 1520.68 L2252.51 1515.95 Q2255.34 1514.82 2257.79 1514.24 Q2260.24 1513.66 2262.28 1513.66 Q2267.65 1513.66 2270.84 1516.35 Q2274.04 1519.03 2274.04 1523.52 Q2274.04 1525.65 2273.23 1527.57 Q2272.44 1529.47 2270.34 1532.07 Q2269.76 1532.74 2266.65 1535.95 Q2263.55 1539.15 2257.9 1544.91 Z" fill="#000000" fill-rule="nonzero" fill-opacity="1" /><polyline clip-path="url(#clip012)" style="stroke:#000000; stroke-linecap:round; stroke-linejoin:round; stroke-width:2; stroke-opacity:0.1; fill:none" points="112.177,1445.72 2352.76,1445.72 "/>
<polyline clip-path="url(#clip012)" style="stroke:#000000; stroke-linecap:round; stroke-linejoin:round; stroke-width:2; stroke-opacity:0.1; fill:none" points="112.177,1146.64 2352.76,1146.64 "/>
<polyline clip-path="url(#clip012)" style="stroke:#000000; stroke-linecap:round; stroke-linejoin:round; stroke-width:2; stroke-opacity:0.1; fill:none" points="112.177,847.573 2352.76,847.573 "/>
<polyline clip-path="url(#clip012)" style="stroke:#000000; stroke-linecap:round; stroke-linejoin:round; stroke-width:2; stroke-opacity:0.1; fill:none" points="112.177,548.502 2352.76,548.502 "/>
<polyline clip-path="url(#clip012)" style="stroke:#000000; stroke-linecap:round; stroke-linejoin:round; stroke-width:2; stroke-opacity:0.1; fill:none" points="112.177,249.431 2352.76,249.431 "/>
<polyline clip-path="url(#clip010)" style="stroke:#000000; stroke-linecap:round; stroke-linejoin:round; stroke-width:4; stroke-opacity:1; fill:none" points="112.177,1486.45 112.177,47.2441 "/>
<polyline clip-path="url(#clip010)" style="stroke:#000000; stroke-linecap:round; stroke-linejoin:round; stroke-width:4; stroke-opacity:1; fill:none" points="112.177,1445.72 131.075,1445.72 "/>
<polyline clip-path="url(#clip010)" style="stroke:#000000; stroke-linecap:round; stroke-linejoin:round; stroke-width:4; stroke-opacity:1; fill:none" points="112.177,1146.64 131.075,1146.64 "/>
<polyline clip-path="url(#clip010)" style="stroke:#000000; stroke-linecap:round; stroke-linejoin:round; stroke-width:4; stroke-opacity:1; fill:none" points="112.177,847.573 131.075,847.573 "/>
<polyline clip-path="url(#clip010)" style="stroke:#000000; stroke-linecap:round; stroke-linejoin:round; stroke-width:4; stroke-opacity:1; fill:none" points="112.177,548.502 131.075,548.502 "/>
<polyline clip-path="url(#clip010)" style="stroke:#000000; stroke-linecap:round; stroke-linejoin:round; stroke-width:4; stroke-opacity:1; fill:none" points="112.177,249.431 131.075,249.431 "/>
<path clip-path="url(#clip010)" d="M64.2328 1431.51 Q60.6217 1431.51 58.793 1435.08 Q56.9875 1438.62 56.9875 1445.75 Q56.9875 1452.86 58.793 1456.42 Q60.6217 1459.96 64.2328 1459.96 Q67.867 1459.96 69.6726 1456.42 Q71.5013 1452.86 71.5013 1445.75 Q71.5013 1438.62 69.6726 1435.08 Q67.867 1431.51 64.2328 1431.51 M64.2328 1427.81 Q70.0429 1427.81 73.0985 1432.42 Q76.1772 1437 76.1772 1445.75 Q76.1772 1454.48 73.0985 1459.08 Q70.0429 1463.67 64.2328 1463.67 Q58.4226 1463.67 55.344 1459.08 Q52.2884 1454.48 52.2884 1445.75 Q52.2884 1437 55.344 1432.42 Q58.4226 1427.81 64.2328 1427.81 Z" fill="#000000" fill-rule="nonzero" fill-opacity="1" /><path clip-path="url(#clip010)" d="M59.8578 1159.99 L76.1772 1159.99 L76.1772 1163.92 L54.2328 1163.92 L54.2328 1159.99 Q56.8949 1157.23 61.4782 1152.61 Q66.0846 1147.95 67.2652 1146.61 Q69.5105 1144.09 70.3902 1142.35 Q71.2929 1140.59 71.2929 1138.9 Q71.2929 1136.15 69.3485 1134.41 Q67.4272 1132.67 64.3254 1132.67 Q62.1263 1132.67 59.6726 1133.44 Q57.2421 1134.2 54.4643 1135.75 L54.4643 1131.03 Q57.2884 1129.9 59.7421 1129.32 Q62.1958 1128.74 64.2328 1128.74 Q69.6031 1128.74 72.7976 1131.42 Q75.992 1134.11 75.992 1138.6 Q75.992 1140.73 75.1818 1142.65 Q74.3948 1144.55 72.2883 1147.14 Q71.7096 1147.81 68.6078 1151.03 Q65.5059 1154.23 59.8578 1159.99 Z" fill="#000000" fill-rule="nonzero" fill-opacity="1" /><path clip-path="url(#clip010)" d="M66.5939 834.367 L54.7884 852.816 L66.5939 852.816 L66.5939 834.367 M65.367 830.293 L71.2466 830.293 L71.2466 852.816 L76.1772 852.816 L76.1772 856.705 L71.2466 856.705 L71.2466 864.853 L66.5939 864.853 L66.5939 856.705 L50.9921 856.705 L50.9921 852.191 L65.367 830.293 Z" fill="#000000" fill-rule="nonzero" fill-opacity="1" /><path clip-path="url(#clip010)" d="M64.6495 546.638 Q61.5013 546.638 59.6495 548.791 Q57.8208 550.944 57.8208 554.694 Q57.8208 558.421 59.6495 560.597 Q61.5013 562.749 64.6495 562.749 Q67.7976 562.749 69.6263 560.597 Q71.4781 558.421 71.4781 554.694 Q71.4781 550.944 69.6263 548.791 Q67.7976 546.638 64.6495 546.638 M73.9318 531.986 L73.9318 536.245 Q72.1726 535.412 70.367 534.972 Q68.5846 534.532 66.8254 534.532 Q62.1958 534.532 59.7421 537.657 Q57.3115 540.782 56.9643 547.101 Q58.33 545.088 60.3902 544.023 Q62.4504 542.935 64.9272 542.935 Q70.1355 542.935 73.1448 546.106 Q76.1772 549.254 76.1772 554.694 Q76.1772 560.018 73.029 563.236 Q69.8809 566.453 64.6495 566.453 Q58.6541 566.453 55.4828 561.87 Q52.3116 557.263 52.3116 548.537 Q52.3116 540.342 56.2004 535.481 Q60.0893 530.597 66.6402 530.597 Q68.3994 530.597 70.1818 530.944 Q71.9874 531.291 73.9318 531.986 Z" fill="#000000" fill-rule="nonzero" fill-opacity="1" /><path clip-path="url(#clip010)" d="M64.3254 250.299 Q60.9921 250.299 59.0708 252.081 Q57.1726 253.863 57.1726 256.988 Q57.1726 260.113 59.0708 261.896 Q60.9921 263.678 64.3254 263.678 Q67.6587 263.678 69.58 261.896 Q71.5013 260.09 71.5013 256.988 Q71.5013 253.863 69.58 252.081 Q67.6819 250.299 64.3254 250.299 M59.6495 248.308 Q56.6402 247.567 54.9504 245.507 Q53.2838 243.447 53.2838 240.484 Q53.2838 236.34 56.2236 233.933 Q59.1865 231.526 64.3254 231.526 Q69.4874 231.526 72.4272 233.933 Q75.367 236.34 75.367 240.484 Q75.367 243.447 73.6772 245.507 Q72.0105 247.567 69.0244 248.308 Q72.404 249.095 74.279 251.387 Q76.1772 253.678 76.1772 256.988 Q76.1772 262.012 73.0985 264.697 Q70.0429 267.382 64.3254 267.382 Q58.6078 267.382 55.5291 264.697 Q52.4736 262.012 52.4736 256.988 Q52.4736 253.678 54.3717 251.387 Q56.2699 249.095 59.6495 248.308 M57.9365 240.924 Q57.9365 243.609 59.6032 245.113 Q61.293 246.618 64.3254 246.618 Q67.3346 246.618 69.0244 245.113 Q70.7374 243.609 70.7374 240.924 Q70.7374 238.239 69.0244 236.734 Q67.3346 235.229 64.3254 235.229 Q61.293 235.229 59.6032 236.734 Q57.9365 238.239 57.9365 240.924 Z" fill="#000000" fill-rule="nonzero" fill-opacity="1" /><path clip-path="url(#clip012)" d="M175.59 1443.93 L182.021 1443.87 L188.452 1443.94 L194.883 1444.15 L201.314 1444.44 L207.745 1444.75 L214.176 1445.04 L220.608 1445.28 L227.039 1445.46 L233.47 1445.57 L239.901 1445.64 L246.332 1445.68 L252.763 1445.7 L259.194 1445.71 L265.625 1445.71 L272.057 1445.71 L278.488 1445.7 L284.919 1445.69 L291.35 1445.66 L297.781 1445.63 L304.212 1445.59 L310.643 1445.53 L317.074 1445.44 L323.505 1445.32 L329.937 1445.15 L336.368 1444.92 L342.799 1444.63 L349.23 1444.3 L355.661 1443.97 L362.092 1443.69 L368.523 1443.52 L374.954 1443.48 L381.385 1443.55 L387.817 1443.67 L394.248 1443.72 L400.679 1443.6 L407.11 1443.19 L413.541 1442.44 L419.972 1441.4 L426.403 1440.17 L432.834 1438.95 L439.266 1437.91 L445.697 1437.18 L452.128 1436.76 L458.559 1436.5 L464.99 1436.2 L471.421 1435.68 L477.852 1434.85 L484.283 1433.72 L490.714 1432.4 L497.146 1431 L503.577 1429.59 L510.008 1428.17 L516.439 1426.74 L522.87 1425.27 L529.301 1423.76 L535.732 1422.22 L542.163 1420.64 L548.594 1419.03 L555.026 1417.39 L561.457 1415.68 L567.888 1413.89 L574.319 1411.96 L580.75 1409.81 L587.181 1407.35 L593.612 1404.49 L600.043 1401.17 L606.475 1397.31 L612.906 1392.84 L619.337 1387.64 L625.768 1381.66 L632.199 1375.01 L638.63 1368.02 L645.061 1361.22 L651.492 1355.16 L657.923 1350.14 L664.355 1346.07 L670.786 1342.38 L677.217 1338.23 L683.648 1332.77 L690.079 1325.39 L696.51 1315.9 L702.941 1304.52 L709.372 1291.78 L715.803 1278.28 L722.235 1264.56 L728.666 1250.8 L735.097 1236.89 L741.528 1222.47 L747.959 1207.22 L754.39 1191.1 L760.821 1174.47 L767.252 1157.96 L773.684 1142.26 L780.115 1127.77 L786.546 1114.47 L792.977 1101.95 L799.408 1089.55 L805.839 1076.61 L812.27 1062.68 L812.27 1445.72 L805.839 1445.72 L799.408 1445.72 L792.977 1445.72 L786.546 1445.72 L780.115 1445.72 L773.684 1445.72 L767.252 1445.72 L760.821 1445.72 L754.39 1445.72 L747.959 1445.72 L741.528 1445.72 L735.097 1445.72 L728.666 1445.72 L722.235 1445.72 L715.803 1445.72 L709.372 1445.72 L702.941 1445.72 L696.51 1445.72 L690.079 1445.72 L683.648 1445.72 L677.217 1445.72 L670.786 1445.72 L664.355 1445.72 L657.923 1445.72 L651.492 1445.72 L645.061 1445.72 L638.63 1445.72 L632.199 1445.72 L625.768 1445.72 L619.337 1445.72 L612.906 1445.72 L606.475 1445.72 L600.043 1445.72 L593.612 1445.72 L587.181 1445.72 L580.75 1445.72 L574.319 1445.72 L567.888 1445.72 L561.457 1445.72 L555.026 1445.72 L548.594 1445.72 L542.163 1445.72 L535.732 1445.72 L529.301 1445.72 L522.87 1445.72 L516.439 1445.72 L510.008 1445.72 L503.577 1445.72 L497.146 1445.72 L490.714 1445.72 L484.283 1445.72 L477.852 1445.72 L471.421 1445.72 L464.99 1445.72 L458.559 1445.72 L452.128 1445.72 L445.697 1445.72 L439.266 1445.72 L432.834 1445.72 L426.403 1445.72 L419.972 1445.72 L413.541 1445.72 L407.11 1445.72 L400.679 1445.72 L394.248 1445.72 L387.817 1445.72 L381.385 1445.72 L374.954 1445.72 L368.523 1445.72 L362.092 1445.72 L355.661 1445.72 L349.23 1445.72 L342.799 1445.72 L336.368 1445.72 L329.937 1445.72 L323.505 1445.72 L317.074 1445.72 L310.643 1445.72 L304.212 1445.72 L297.781 1445.72 L291.35 1445.72 L284.919 1445.72 L278.488 1445.72 L272.057 1445.72 L265.625 1445.72 L259.194 1445.72 L252.763 1445.72 L246.332 1445.72 L239.901 1445.72 L233.47 1445.72 L227.039 1445.72 L220.608 1445.72 L214.176 1445.72 L207.745 1445.72 L201.314 1445.72 L194.883 1445.72 L188.452 1445.72 L182.021 1445.72 L175.59 1445.72  Z" fill="#ffa500" fill-rule="evenodd" fill-opacity="0.5"/>
<polyline clip-path="url(#clip012)" style="stroke:#ffa500; stroke-linecap:round; stroke-linejoin:round; stroke-width:4; stroke-opacity:1; fill:none" points="175.59,1443.93 182.021,1443.87 188.452,1443.94 194.883,1444.15 201.314,1444.44 207.745,1444.75 214.176,1445.04 220.608,1445.28 227.039,1445.46 233.47,1445.57 239.901,1445.64 246.332,1445.68 252.763,1445.7 259.194,1445.71 265.625,1445.71 272.057,1445.71 278.488,1445.7 284.919,1445.69 291.35,1445.66 297.781,1445.63 304.212,1445.59 310.643,1445.53 317.074,1445.44 323.505,1445.32 329.937,1445.15 336.368,1444.92 342.799,1444.63 349.23,1444.3 355.661,1443.97 362.092,1443.69 368.523,1443.52 374.954,1443.48 381.385,1443.55 387.817,1443.67 394.248,1443.72 400.679,1443.6 407.11,1443.19 413.541,1442.44 419.972,1441.4 426.403,1440.17 432.834,1438.95 439.266,1437.91 445.697,1437.18 452.128,1436.76 458.559,1436.5 464.99,1436.2 471.421,1435.68 477.852,1434.85 484.283,1433.72 490.714,1432.4 497.146,1431 503.577,1429.59 510.008,1428.17 516.439,1426.74 522.87,1425.27 529.301,1423.76 535.732,1422.22 542.163,1420.64 548.594,1419.03 555.026,1417.39 561.457,1415.68 567.888,1413.89 574.319,1411.96 580.75,1409.81 587.181,1407.35 593.612,1404.49 600.043,1401.17 606.475,1397.31 612.906,1392.84 619.337,1387.64 625.768,1381.66 632.199,1375.01 638.63,1368.02 645.061,1361.22 651.492,1355.16 657.923,1350.14 664.355,1346.07 670.786,1342.38 677.217,1338.23 683.648,1332.77 690.079,1325.39 696.51,1315.9 702.941,1304.52 709.372,1291.78 715.803,1278.28 722.235,1264.56 728.666,1250.8 735.097,1236.89 741.528,1222.47 747.959,1207.22 754.39,1191.1 760.821,1174.47 767.252,1157.96 773.684,1142.26 780.115,1127.77 786.546,1114.47 792.977,1101.95 799.408,1089.55 805.839,1076.61 812.27,1062.68 "/>
<path clip-path="url(#clip012)" d="M812.27 1062.68 L820.263 1043.71 L828.256 1023.01 L836.248 1000.83 L844.241 977.197 L852.234 951.728 L860.227 924.049 L868.219 894.397 L876.212 863.821 L884.205 833.603 L892.197 804.37 L900.19 775.745 L908.183 746.883 L916.176 717.264 L924.168 686.912 L932.161 655.89 L940.154 623.757 L948.147 589.617 L956.139 552.688 L964.132 512.857 L972.125 470.875 L980.117 428.296 L988.11 387.265 L996.103 350.058 L1004.1 318.288 L1012.09 292.065 L1020.08 269.775 L1028.07 248.894 L1036.07 227.522 L1044.06 205.663 L1052.05 185.321 L1060.04 169.34 L1068.04 159.767 L1076.03 156.764 L1084.02 158.575 L1092.02 162.388 L1100.01 165.455 L1108 165.906 L1115.99 163.013 L1123.99 156.998 L1131.98 148.612 L1139.97 138.672 L1147.96 127.745 L1155.96 116.23 L1163.95 104.827 L1171.94 94.9884 L1179.94 88.8487 L1187.93 88.5317 L1195.92 95.2984 L1203.91 109.015 L1211.91 128.098 L1219.9 149.869 L1227.89 171.24 L1235.88 189.626 L1243.88 203.879 L1251.87 214.889 L1259.86 225.497 L1267.86 239.489 L1275.85 259.886 L1283.84 287.304 L1291.83 319.437 L1299.83 352.104 L1307.82 381.259 L1315.81 404.729 L1323.8 422.728 L1331.8 437.079 L1339.79 449.815 L1347.78 462.07 L1355.78 473.912 L1363.77 485.123 L1371.76 496.28 L1379.75 509.166 L1387.75 525.958 L1395.74 547.641 L1403.73 572.986 L1411.72 599.174 L1419.72 623.778 L1427.71 646.479 L1435.7 668.989 L1443.7 693.214 L1451.69 719.268 L1459.68 745.018 L1467.67 767.487 L1475.67 784.972 L1483.66 798.346 L1491.65 810.707 L1499.64 825.773 L1507.64 846.132 L1515.63 872.297 L1523.62 902.767 L1531.62 934.727 L1539.61 965.01 L1547.6 991.105 L1555.59 1011.94 L1563.59 1028.08 L1571.58 1041.26 L1579.57 1053.58 L1587.56 1066.91 L1595.56 1082.49 L1603.55 1100.79 L1603.55 1445.72 L1595.56 1445.72 L1587.56 1445.72 L1579.57 1445.72 L1571.58 1445.72 L1563.59 1445.72 L1555.59 1445.72 L1547.6 1445.72 L1539.61 1445.72 L1531.62 1445.72 L1523.62 1445.72 L1515.63 1445.72 L1507.64 1445.72 L1499.64 1445.72 L1491.65 1445.72 L1483.66 1445.72 L1475.67 1445.72 L1467.67 1445.72 L1459.68 1445.72 L1451.69 1445.72 L1443.7 1445.72 L1435.7 1445.72 L1427.71 1445.72 L1419.72 1445.72 L1411.72 1445.72 L1403.73 1445.72 L1395.74 1445.72 L1387.75 1445.72 L1379.75 1445.72 L1371.76 1445.72 L1363.77 1445.72 L1355.78 1445.72 L1347.78 1445.72 L1339.79 1445.72 L1331.8 1445.72 L1323.8 1445.72 L1315.81 1445.72 L1307.82 1445.72 L1299.83 1445.72 L1291.83 1445.72 L1283.84 1445.72 L1275.85 1445.72 L1267.86 1445.72 L1259.86 1445.72 L1251.87 1445.72 L1243.88 1445.72 L1235.88 1445.72 L1227.89 1445.72 L1219.9 1445.72 L1211.91 1445.72 L1203.91 1445.72 L1195.92 1445.72 L1187.93 1445.72 L1179.94 1445.72 L1171.94 1445.72 L1163.95 1445.72 L1155.96 1445.72 L1147.96 1445.72 L1139.97 1445.72 L1131.98 1445.72 L1123.99 1445.72 L1115.99 1445.72 L1108 1445.72 L1100.01 1445.72 L1092.02 1445.72 L1084.02 1445.72 L1076.03 1445.72 L1068.04 1445.72 L1060.04 1445.72 L1052.05 1445.72 L1044.06 1445.72 L1036.07 1445.72 L1028.07 1445.72 L1020.08 1445.72 L1012.09 1445.72 L1004.1 1445.72 L996.103 1445.72 L988.11 1445.72 L980.117 1445.72 L972.125 1445.72 L964.132 1445.72 L956.139 1445.72 L948.147 1445.72 L940.154 1445.72 L932.161 1445.72 L924.168 1445.72 L916.176 1445.72 L908.183 1445.72 L900.19 1445.72 L892.197 1445.72 L884.205 1445.72 L876.212 1445.72 L868.219 1445.72 L860.227 1445.72 L852.234 1445.72 L844.241 1445.72 L836.248 1445.72 L828.256 1445.72 L820.263 1445.72 L812.27 1445.72  Z" fill="#008000" fill-rule="evenodd" fill-opacity="0.5"/>
<polyline clip-path="url(#clip012)" style="stroke:#008000; stroke-linecap:round; stroke-linejoin:round; stroke-width:4; stroke-opacity:1; fill:none" points="812.27,1062.68 820.263,1043.71 828.256,1023.01 836.248,1000.83 844.241,977.197 852.234,951.728 860.227,924.049 868.219,894.397 876.212,863.821 884.205,833.603 892.197,804.37 900.19,775.745 908.183,746.883 916.176,717.264 924.168,686.912 932.161,655.89 940.154,623.757 948.147,589.617 956.139,552.688 964.132,512.857 972.125,470.875 980.117,428.296 988.11,387.265 996.103,350.058 1004.1,318.288 1012.09,292.065 1020.08,269.775 1028.07,248.894 1036.07,227.522 1044.06,205.663 1052.05,185.321 1060.04,169.34 1068.04,159.767 1076.03,156.764 1084.02,158.575 1092.02,162.388 1100.01,165.455 1108,165.906 1115.99,163.013 1123.99,156.998 1131.98,148.612 1139.97,138.672 1147.96,127.745 1155.96,116.23 1163.95,104.827 1171.94,94.9884 1179.94,88.8487 1187.93,88.5317 1195.92,95.2984 1203.91,109.015 1211.91,128.098 1219.9,149.869 1227.89,171.24 1235.88,189.626 1243.88,203.879 1251.87,214.889 1259.86,225.497 1267.86,239.489 1275.85,259.886 1283.84,287.304 1291.83,319.437 1299.83,352.104 1307.82,381.259 1315.81,404.729 1323.8,422.728 1331.8,437.079 1339.79,449.815 1347.78,462.07 1355.78,473.912 1363.77,485.123 1371.76,496.28 1379.75,509.166 1387.75,525.958 1395.74,547.641 1403.73,572.986 1411.72,599.174 1419.72,623.778 1427.71,646.479 1435.7,668.989 1443.7,693.214 1451.69,719.268 1459.68,745.018 1467.67,767.487 1475.67,784.972 1483.66,798.346 1491.65,810.707 1499.64,825.773 1507.64,846.132 1515.63,872.297 1523.62,902.767 1531.62,934.727 1539.61,965.01 1547.6,991.105 1555.59,1011.94 1563.59,1028.08 1571.58,1041.26 1579.57,1053.58 1587.56,1066.91 1595.56,1082.49 1603.55,1100.79 "/>
<path clip-path="url(#clip012)" d="M1603.55 1100.79 L1610.48 1118.44 L1617.4 1136.86 L1624.33 1154.97 L1631.26 1171.87 L1638.19 1187.14 L1645.11 1200.96 L1652.04 1213.85 L1658.97 1226.4 L1665.89 1238.99 L1672.82 1251.6 L1679.75 1263.9 L1686.68 1275.36 L1693.6 1285.54 L1700.53 1294.2 L1707.46 1301.42 L1714.39 1307.49 L1721.31 1312.8 L1728.24 1317.74 L1735.17 1322.62 L1742.09 1327.62 L1749.02 1332.86 L1755.95 1338.39 L1762.88 1344.15 L1769.8 1349.99 L1776.73 1355.71 L1783.66 1361.08 L1790.58 1365.96 L1797.51 1370.34 L1804.44 1374.36 L1811.37 1378.22 L1818.29 1382.09 L1825.22 1386.04 L1832.15 1390.02 L1839.07 1393.89 L1846 1397.48 L1852.93 1400.66 L1859.86 1403.4 L1866.78 1405.71 L1873.71 1407.71 L1880.64 1409.55 L1887.57 1411.4 L1894.49 1413.41 L1901.42 1415.59 L1908.35 1417.88 L1915.27 1420.08 L1922.2 1421.94 L1929.13 1423.29 L1936.06 1424.08 L1942.98 1424.44 L1949.91 1424.64 L1956.84 1425.03 L1963.76 1425.87 L1970.69 1427.29 L1977.62 1429.22 L1984.55 1431.5 L1991.47 1433.87 L1998.4 1436.13 L2005.33 1438.08 L2012.26 1439.64 L2019.18 1440.75 L2026.11 1441.4 L2033.04 1441.64 L2039.96 1441.52 L2046.89 1441.15 L2053.82 1440.69 L2060.75 1440.29 L2067.67 1440.1 L2074.6 1440.2 L2081.53 1440.58 L2088.45 1441.18 L2095.38 1441.91 L2102.31 1442.66 L2109.24 1443.36 L2116.16 1443.96 L2123.09 1444.43 L2130.02 1444.77 L2136.94 1444.98 L2143.87 1445.1 L2150.8 1445.15 L2157.73 1445.15 L2164.65 1445.14 L2171.58 1445.14 L2178.51 1445.15 L2185.44 1445.2 L2192.36 1445.28 L2199.29 1445.37 L2206.22 1445.46 L2213.14 1445.55 L2220.07 1445.61 L2227 1445.65 L2233.93 1445.67 L2240.85 1445.67 L2247.78 1445.64 L2254.71 1445.59 L2261.63 1445.52 L2268.56 1445.43 L2275.49 1445.35 L2282.42 1445.29 L2289.34 1445.27 L2289.34 1445.72 L2282.42 1445.72 L2275.49 1445.72 L2268.56 1445.72 L2261.63 1445.72 L2254.71 1445.72 L2247.78 1445.72 L2240.85 1445.72 L2233.93 1445.72 L2227 1445.72 L2220.07 1445.72 L2213.14 1445.72 L2206.22 1445.72 L2199.29 1445.72 L2192.36 1445.72 L2185.44 1445.72 L2178.51 1445.72 L2171.58 1445.72 L2164.65 1445.72 L2157.73 1445.72 L2150.8 1445.72 L2143.87 1445.72 L2136.94 1445.72 L2130.02 1445.72 L2123.09 1445.72 L2116.16 1445.72 L2109.24 1445.72 L2102.31 1445.72 L2095.38 1445.72 L2088.45 1445.72 L2081.53 1445.72 L2074.6 1445.72 L2067.67 1445.72 L2060.75 1445.72 L2053.82 1445.72 L2046.89 1445.72 L2039.96 1445.72 L2033.04 1445.72 L2026.11 1445.72 L2019.18 1445.72 L2012.26 1445.72 L2005.33 1445.72 L1998.4 1445.72 L1991.47 1445.72 L1984.55 1445.72 L1977.62 1445.72 L1970.69 1445.72 L1963.76 1445.72 L1956.84 1445.72 L1949.91 1445.72 L1942.98 1445.72 L1936.06 1445.72 L1929.13 1445.72 L1922.2 1445.72 L1915.27 1445.72 L1908.35 1445.72 L1901.42 1445.72 L1894.49 1445.72 L1887.57 1445.72 L1880.64 1445.72 L1873.71 1445.72 L1866.78 1445.72 L1859.86 1445.72 L1852.93 1445.72 L1846 1445.72 L1839.07 1445.72 L1832.15 1445.72 L1825.22 1445.72 L1818.29 1445.72 L1811.37 1445.72 L1804.44 1445.72 L1797.51 1445.72 L1790.58 1445.72 L1783.66 1445.72 L1776.73 1445.72 L1769.8 1445.72 L1762.88 1445.72 L1755.95 1445.72 L1749.02 1445.72 L1742.09 1445.72 L1735.17 1445.72 L1728.24 1445.72 L1721.31 1445.72 L1714.39 1445.72 L1707.46 1445.72 L1700.53 1445.72 L1693.6 1445.72 L1686.68 1445.72 L1679.75 1445.72 L1672.82 1445.72 L1665.89 1445.72 L1658.97 1445.72 L1652.04 1445.72 L1645.11 1445.72 L1638.19 1445.72 L1631.26 1445.72 L1624.33 1445.72 L1617.4 1445.72 L1610.48 1445.72 L1603.55 1445.72  Z" fill="#ffa500" fill-rule="evenodd" fill-opacity="0.5"/>
<polyline clip-path="url(#clip012)" style="stroke:#ffa500; stroke-linecap:round; stroke-linejoin:round; stroke-width:4; stroke-opacity:1; fill:none" points="1603.55,1100.79 1610.48,1118.44 1617.4,1136.86 1624.33,1154.97 1631.26,1171.87 1638.19,1187.14 1645.11,1200.96 1652.04,1213.85 1658.97,1226.4 1665.89,1238.99 1672.82,1251.6 1679.75,1263.9 1686.68,1275.36 1693.6,1285.54 1700.53,1294.2 1707.46,1301.42 1714.39,1307.49 1721.31,1312.8 1728.24,1317.74 1735.17,1322.62 1742.09,1327.62 1749.02,1332.86 1755.95,1338.39 1762.88,1344.15 1769.8,1349.99 1776.73,1355.71 1783.66,1361.08 1790.58,1365.96 1797.51,1370.34 1804.44,1374.36 1811.37,1378.22 1818.29,1382.09 1825.22,1386.04 1832.15,1390.02 1839.07,1393.89 1846,1397.48 1852.93,1400.66 1859.86,1403.4 1866.78,1405.71 1873.71,1407.71 1880.64,1409.55 1887.57,1411.4 1894.49,1413.41 1901.42,1415.59 1908.35,1417.88 1915.27,1420.08 1922.2,1421.94 1929.13,1423.29 1936.06,1424.08 1942.98,1424.44 1949.91,1424.64 1956.84,1425.03 1963.76,1425.87 1970.69,1427.29 1977.62,1429.22 1984.55,1431.5 1991.47,1433.87 1998.4,1436.13 2005.33,1438.08 2012.26,1439.64 2019.18,1440.75 2026.11,1441.4 2033.04,1441.64 2039.96,1441.52 2046.89,1441.15 2053.82,1440.69 2060.75,1440.29 2067.67,1440.1 2074.6,1440.2 2081.53,1440.58 2088.45,1441.18 2095.38,1441.91 2102.31,1442.66 2109.24,1443.36 2116.16,1443.96 2123.09,1444.43 2130.02,1444.77 2136.94,1444.98 2143.87,1445.1 2150.8,1445.15 2157.73,1445.15 2164.65,1445.14 2171.58,1445.14 2178.51,1445.15 2185.44,1445.2 2192.36,1445.28 2199.29,1445.37 2206.22,1445.46 2213.14,1445.55 2220.07,1445.61 2227,1445.65 2233.93,1445.67 2240.85,1445.67 2247.78,1445.64 2254.71,1445.59 2261.63,1445.52 2268.56,1445.43 2275.49,1445.35 2282.42,1445.29 2289.34,1445.27 "/>
<polyline clip-path="url(#clip012)" style="stroke:#0000ff; stroke-linecap:round; stroke-linejoin:round; stroke-width:4; stroke-opacity:1; fill:none" points="1194.08,1445.72 1194.08,93.0898 "/>
<polyline clip-path="url(#clip012)" style="stroke:#000000; stroke-linecap:round; stroke-linejoin:round; stroke-width:4; stroke-opacity:1; fill:none" points="1182.79,1445.72 1182.79,87.9763 "/>
<path clip-path="url(#clip010)" d="M1462.56 406.258 L2278.07 406.258 L2278.07 95.2176 L1462.56 95.2176  Z" fill="#ffffff" fill-rule="evenodd" fill-opacity="1"/>
<polyline clip-path="url(#clip010)" style="stroke:#000000; stroke-linecap:round; stroke-linejoin:round; stroke-width:4; stroke-opacity:1; fill:none" points="1462.56,406.258 2278.07,406.258 2278.07,95.2176 1462.56,95.2176 1462.56,406.258 "/>
<path clip-path="url(#clip010)" d="M1487.45 167.794 L1636.82 167.794 L1636.82 126.322 L1487.45 126.322 L1487.45 167.794  Z" fill="#ffa500" fill-rule="evenodd" fill-opacity="0.5"/>
<polyline clip-path="url(#clip010)" style="stroke:#ffa500; stroke-linecap:round; stroke-linejoin:round; stroke-width:4; stroke-opacity:1; fill:none" points="1487.45,126.322 1636.82,126.322 "/>
<path clip-path="url(#clip010)" d="M1666.12 151.398 Q1666.12 156.097 1668.04 158.782 Q1669.98 161.444 1673.36 161.444 Q1676.74 161.444 1678.69 158.782 Q1680.63 156.097 1680.63 151.398 Q1680.63 146.699 1678.69 144.037 Q1676.74 141.352 1673.36 141.352 Q1669.98 141.352 1668.04 144.037 Q1666.12 146.699 1666.12 151.398 M1680.63 160.449 Q1679.29 162.763 1677.23 163.898 Q1675.19 165.009 1672.32 165.009 Q1667.62 165.009 1664.66 161.259 Q1661.72 157.509 1661.72 151.398 Q1661.72 145.287 1664.66 141.537 Q1667.62 137.787 1672.32 137.787 Q1675.19 137.787 1677.23 138.921 Q1679.29 140.032 1680.63 142.347 L1680.63 138.412 L1684.89 138.412 L1684.89 174.199 L1680.63 174.199 L1680.63 160.449 Z" fill="#000000" fill-rule="nonzero" fill-opacity="1" /><path clip-path="url(#clip010)" d="M1704.27 132.856 Q1700.65 132.856 1698.83 136.421 Q1697.02 139.963 1697.02 147.092 Q1697.02 154.199 1698.83 157.764 Q1700.65 161.305 1704.27 161.305 Q1707.9 161.305 1709.71 157.764 Q1711.53 154.199 1711.53 147.092 Q1711.53 139.963 1709.71 136.421 Q1707.9 132.856 1704.27 132.856 M1704.27 129.153 Q1710.08 129.153 1713.13 133.759 Q1716.21 138.342 1716.21 147.092 Q1716.21 155.819 1713.13 160.426 Q1710.08 165.009 1704.27 165.009 Q1698.46 165.009 1695.38 160.426 Q1692.32 155.819 1692.32 147.092 Q1692.32 138.342 1695.38 133.759 Q1698.46 129.153 1704.27 129.153 Z" fill="#000000" fill-rule="nonzero" fill-opacity="1" /><path clip-path="url(#clip010)" d="M1724.47 129.778 L1742.83 129.778 L1742.83 133.713 L1728.76 133.713 L1728.76 142.185 Q1729.77 141.838 1730.79 141.676 Q1731.81 141.49 1732.83 141.49 Q1738.62 141.49 1742 144.662 Q1745.38 147.833 1745.38 153.25 Q1745.38 158.828 1741.9 161.93 Q1738.43 165.009 1732.11 165.009 Q1729.94 165.009 1727.67 164.638 Q1725.42 164.268 1723.02 163.527 L1723.02 158.828 Q1725.1 159.963 1727.32 160.518 Q1729.54 161.074 1732.02 161.074 Q1736.02 161.074 1738.36 158.967 Q1740.7 156.861 1740.7 153.25 Q1740.7 149.639 1738.36 147.532 Q1736.02 145.426 1732.02 145.426 Q1730.15 145.426 1728.27 145.842 Q1726.42 146.259 1724.47 147.139 L1724.47 129.778 Z" fill="#000000" fill-rule="nonzero" fill-opacity="1" /><path clip-path="url(#clip010)" d="M1487.45 219.634 L1636.82 219.634 L1636.82 178.162 L1487.45 178.162 L1487.45 219.634  Z" fill="#008000" fill-rule="evenodd" fill-opacity="0.5"/>
<polyline clip-path="url(#clip010)" style="stroke:#008000; stroke-linecap:round; stroke-linejoin:round; stroke-width:4; stroke-opacity:1; fill:none" points="1487.45,178.162 1636.82,178.162 "/>
<path clip-path="url(#clip010)" d="M1663.94 215.46 L1663.94 211.201 Q1665.7 212.034 1667.51 212.474 Q1669.31 212.914 1671.05 212.914 Q1675.68 212.914 1678.11 209.812 Q1680.56 206.687 1680.91 200.344 Q1679.57 202.335 1677.51 203.4 Q1675.45 204.465 1672.95 204.465 Q1667.76 204.465 1664.73 201.34 Q1661.72 198.192 1661.72 192.752 Q1661.72 187.428 1664.87 184.21 Q1668.02 180.993 1673.25 180.993 Q1679.24 180.993 1682.39 185.599 Q1685.56 190.182 1685.56 198.932 Q1685.56 207.104 1681.67 211.988 Q1677.81 216.849 1671.26 216.849 Q1669.5 216.849 1667.69 216.502 Q1665.89 216.154 1663.94 215.46 M1673.25 200.807 Q1676.4 200.807 1678.22 198.654 Q1680.08 196.502 1680.08 192.752 Q1680.08 189.025 1678.22 186.872 Q1676.4 184.696 1673.25 184.696 Q1670.1 184.696 1668.25 186.872 Q1666.42 189.025 1666.42 192.752 Q1666.42 196.502 1668.25 198.654 Q1670.1 200.807 1673.25 200.807 Z" fill="#000000" fill-rule="nonzero" fill-opacity="1" /><path clip-path="url(#clip010)" d="M1703.96 184.696 Q1700.35 184.696 1698.52 188.261 Q1696.72 191.803 1696.72 198.932 Q1696.72 206.039 1698.52 209.604 Q1700.35 213.145 1703.96 213.145 Q1707.6 213.145 1709.4 209.604 Q1711.23 206.039 1711.23 198.932 Q1711.23 191.803 1709.4 188.261 Q1707.6 184.696 1703.96 184.696 M1703.96 180.993 Q1709.77 180.993 1712.83 185.599 Q1715.91 190.182 1715.91 198.932 Q1715.91 207.659 1712.83 212.266 Q1709.77 216.849 1703.96 216.849 Q1698.15 216.849 1695.08 212.266 Q1692.02 207.659 1692.02 198.932 Q1692.02 190.182 1695.08 185.599 Q1698.15 180.993 1703.96 180.993 Z" fill="#000000" fill-rule="nonzero" fill-opacity="1" /><path clip-path="url(#clip010)" d="M1753.52 200.969 Q1751.51 200.969 1750.35 202.682 Q1749.22 204.395 1749.22 207.451 Q1749.22 210.46 1750.35 212.196 Q1751.51 213.909 1753.52 213.909 Q1755.49 213.909 1756.63 212.196 Q1757.78 210.46 1757.78 207.451 Q1757.78 204.418 1756.63 202.705 Q1755.49 200.969 1753.52 200.969 M1753.52 198.03 Q1757.18 198.03 1759.33 200.576 Q1761.49 203.122 1761.49 207.451 Q1761.49 211.779 1759.31 214.326 Q1757.16 216.849 1753.52 216.849 Q1749.82 216.849 1747.67 214.326 Q1745.52 211.779 1745.52 207.451 Q1745.52 203.099 1747.67 200.576 Q1749.84 198.03 1753.52 198.03 M1729.64 183.932 Q1727.65 183.932 1726.49 185.668 Q1725.35 187.381 1725.35 190.391 Q1725.35 193.446 1726.49 195.159 Q1727.62 196.872 1729.64 196.872 Q1731.65 196.872 1732.78 195.159 Q1733.94 193.446 1733.94 190.391 Q1733.94 187.405 1732.78 185.668 Q1731.63 183.932 1729.64 183.932 M1750.54 180.993 L1754.24 180.993 L1732.62 216.849 L1728.92 216.849 L1750.54 180.993 M1729.64 180.993 Q1733.29 180.993 1735.47 183.539 Q1737.64 186.062 1737.64 190.391 Q1737.64 194.766 1735.47 197.289 Q1733.32 199.812 1729.64 199.812 Q1725.96 199.812 1723.8 197.289 Q1721.67 194.742 1721.67 190.391 Q1721.67 186.085 1723.83 183.539 Q1725.98 180.993 1729.64 180.993 Z" fill="#000000" fill-rule="nonzero" fill-opacity="1" /><path clip-path="url(#clip010)" d="M1805.19 200.529 L1805.19 216.178 L1800.93 216.178 L1800.93 200.668 Q1800.93 196.988 1799.5 195.159 Q1798.06 193.33 1795.19 193.33 Q1791.74 193.33 1789.75 195.53 Q1787.76 197.729 1787.76 201.525 L1787.76 216.178 L1783.48 216.178 L1783.48 190.252 L1787.76 190.252 L1787.76 194.28 Q1789.29 191.942 1791.35 190.784 Q1793.43 189.627 1796.14 189.627 Q1800.61 189.627 1802.9 192.405 Q1805.19 195.159 1805.19 200.529 Z" fill="#000000" fill-rule="nonzero" fill-opacity="1" /><path clip-path="url(#clip010)" d="M1823.73 193.238 Q1820.31 193.238 1818.32 195.923 Q1816.33 198.585 1816.33 203.238 Q1816.33 207.891 1818.29 210.576 Q1820.28 213.238 1823.73 213.238 Q1827.14 213.238 1829.13 210.553 Q1831.12 207.867 1831.12 203.238 Q1831.12 198.631 1829.13 195.946 Q1827.14 193.238 1823.73 193.238 M1823.73 189.627 Q1829.29 189.627 1832.46 193.238 Q1835.63 196.849 1835.63 203.238 Q1835.63 209.604 1832.46 213.238 Q1829.29 216.849 1823.73 216.849 Q1818.15 216.849 1814.98 213.238 Q1811.83 209.604 1811.83 203.238 Q1811.83 196.849 1814.98 193.238 Q1818.15 189.627 1823.73 189.627 Z" fill="#000000" fill-rule="nonzero" fill-opacity="1" /><path clip-path="url(#clip010)" d="M1864.24 200.529 L1864.24 216.178 L1859.98 216.178 L1859.98 200.668 Q1859.98 196.988 1858.55 195.159 Q1857.11 193.33 1854.24 193.33 Q1850.79 193.33 1848.8 195.53 Q1846.81 197.729 1846.81 201.525 L1846.81 216.178 L1842.53 216.178 L1842.53 190.252 L1846.81 190.252 L1846.81 194.28 Q1848.34 191.942 1850.4 190.784 Q1852.48 189.627 1855.19 189.627 Q1859.66 189.627 1861.95 192.405 Q1864.24 195.159 1864.24 200.529 Z" fill="#000000" fill-rule="nonzero" fill-opacity="1" /><path clip-path="url(#clip010)" d="M1870.58 201.293 L1883.06 201.293 L1883.06 205.09 L1870.58 205.09 L1870.58 201.293 Z" fill="#000000" fill-rule="nonzero" fill-opacity="1" /><path clip-path="url(#clip010)" d="M1904.87 194.233 Q1904.15 193.817 1903.29 193.631 Q1902.46 193.423 1901.44 193.423 Q1897.83 193.423 1895.88 195.784 Q1893.96 198.122 1893.96 202.52 L1893.96 216.178 L1889.68 216.178 L1889.68 190.252 L1893.96 190.252 L1893.96 194.28 Q1895.31 191.918 1897.46 190.784 Q1899.61 189.627 1902.69 189.627 Q1903.13 189.627 1903.66 189.696 Q1904.2 189.743 1904.84 189.858 L1904.87 194.233 Z" fill="#000000" fill-rule="nonzero" fill-opacity="1" /><path clip-path="url(#clip010)" d="M1930.47 202.15 L1930.47 204.233 L1910.88 204.233 Q1911.16 208.631 1913.52 210.946 Q1915.91 213.238 1920.14 213.238 Q1922.6 213.238 1924.89 212.636 Q1927.2 212.034 1929.47 210.83 L1929.47 214.858 Q1927.18 215.83 1924.77 216.34 Q1922.37 216.849 1919.89 216.849 Q1913.69 216.849 1910.05 213.238 Q1906.44 209.627 1906.44 203.469 Q1906.44 197.104 1909.87 193.377 Q1913.32 189.627 1919.15 189.627 Q1924.38 189.627 1927.41 193.006 Q1930.47 196.363 1930.47 202.15 M1926.21 200.9 Q1926.16 197.405 1924.24 195.321 Q1922.34 193.238 1919.19 193.238 Q1915.63 193.238 1913.48 195.252 Q1911.35 197.266 1911.02 200.923 L1926.21 200.9 Z" fill="#000000" fill-rule="nonzero" fill-opacity="1" /><path clip-path="url(#clip010)" d="M1937.46 190.252 L1941.72 190.252 L1941.72 216.641 Q1941.72 221.594 1939.82 223.816 Q1937.94 226.039 1933.76 226.039 L1932.13 226.039 L1932.13 222.428 L1933.27 222.428 Q1935.7 222.428 1936.58 221.293 Q1937.46 220.182 1937.46 216.641 L1937.46 190.252 M1937.46 180.159 L1941.72 180.159 L1941.72 185.553 L1937.46 185.553 L1937.46 180.159 Z" fill="#000000" fill-rule="nonzero" fill-opacity="1" /><path clip-path="url(#clip010)" d="M1972.81 202.15 L1972.81 204.233 L1953.22 204.233 Q1953.5 208.631 1955.86 210.946 Q1958.25 213.238 1962.48 213.238 Q1964.94 213.238 1967.23 212.636 Q1969.54 212.034 1971.81 210.83 L1971.81 214.858 Q1969.52 215.83 1967.11 216.34 Q1964.7 216.849 1962.23 216.849 Q1956.02 216.849 1952.39 213.238 Q1948.78 209.627 1948.78 203.469 Q1948.78 197.104 1952.2 193.377 Q1955.65 189.627 1961.49 189.627 Q1966.72 189.627 1969.75 193.006 Q1972.81 196.363 1972.81 202.15 M1968.55 200.9 Q1968.5 197.405 1966.58 195.321 Q1964.68 193.238 1961.53 193.238 Q1957.97 193.238 1955.82 195.252 Q1953.69 197.266 1953.36 200.923 L1968.55 200.9 Z" fill="#000000" fill-rule="nonzero" fill-opacity="1" /><path clip-path="url(#clip010)" d="M1998.45 191.247 L1998.45 195.229 Q1996.65 194.233 1994.82 193.747 Q1993.01 193.238 1991.16 193.238 Q1987.02 193.238 1984.73 195.877 Q1982.44 198.492 1982.44 203.238 Q1982.44 207.983 1984.73 210.622 Q1987.02 213.238 1991.16 213.238 Q1993.01 213.238 1994.82 212.752 Q1996.65 212.242 1998.45 211.247 L1998.45 215.182 Q1996.67 216.016 1994.75 216.432 Q1992.85 216.849 1990.7 216.849 Q1984.84 216.849 1981.39 213.168 Q1977.94 209.488 1977.94 203.238 Q1977.94 196.895 1981.42 193.261 Q1984.91 189.627 1990.98 189.627 Q1992.94 189.627 1994.82 190.043 Q1996.69 190.437 1998.45 191.247 Z" fill="#000000" fill-rule="nonzero" fill-opacity="1" /><path clip-path="url(#clip010)" d="M2010.07 182.891 L2010.07 190.252 L2018.85 190.252 L2018.85 193.562 L2010.07 193.562 L2010.07 207.636 Q2010.07 210.807 2010.93 211.71 Q2011.81 212.613 2014.47 212.613 L2018.85 212.613 L2018.85 216.178 L2014.47 216.178 Q2009.54 216.178 2007.67 214.349 Q2005.79 212.497 2005.79 207.636 L2005.79 193.562 L2002.67 193.562 L2002.67 190.252 L2005.79 190.252 L2005.79 182.891 L2010.07 182.891 Z" fill="#000000" fill-rule="nonzero" fill-opacity="1" /><path clip-path="url(#clip010)" d="M2024.45 190.252 L2028.71 190.252 L2028.71 216.178 L2024.45 216.178 L2024.45 190.252 M2024.45 180.159 L2028.71 180.159 L2028.71 185.553 L2024.45 185.553 L2024.45 180.159 Z" fill="#000000" fill-rule="nonzero" fill-opacity="1" /><path clip-path="url(#clip010)" d="M2047.67 193.238 Q2044.24 193.238 2042.25 195.923 Q2040.26 198.585 2040.26 203.238 Q2040.26 207.891 2042.23 210.576 Q2044.22 213.238 2047.67 213.238 Q2051.07 213.238 2053.06 210.553 Q2055.05 207.867 2055.05 203.238 Q2055.05 198.631 2053.06 195.946 Q2051.07 193.238 2047.67 193.238 M2047.67 189.627 Q2053.22 189.627 2056.39 193.238 Q2059.56 196.849 2059.56 203.238 Q2059.56 209.604 2056.39 213.238 Q2053.22 216.849 2047.67 216.849 Q2042.09 216.849 2038.92 213.238 Q2035.77 209.604 2035.77 203.238 Q2035.77 196.849 2038.92 193.238 Q2042.09 189.627 2047.67 189.627 Z" fill="#000000" fill-rule="nonzero" fill-opacity="1" /><path clip-path="url(#clip010)" d="M2088.18 200.529 L2088.18 216.178 L2083.92 216.178 L2083.92 200.668 Q2083.92 196.988 2082.48 195.159 Q2081.05 193.33 2078.18 193.33 Q2074.73 193.33 2072.74 195.53 Q2070.75 197.729 2070.75 201.525 L2070.75 216.178 L2066.46 216.178 L2066.46 190.252 L2070.75 190.252 L2070.75 194.28 Q2072.27 191.942 2074.33 190.784 Q2076.42 189.627 2079.12 189.627 Q2083.59 189.627 2085.88 192.405 Q2088.18 195.159 2088.18 200.529 Z" fill="#000000" fill-rule="nonzero" fill-opacity="1" /><path clip-path="url(#clip010)" d="M2126.76 194.233 Q2126.05 193.817 2125.19 193.631 Q2124.36 193.423 2123.34 193.423 Q2119.73 193.423 2117.78 195.784 Q2115.86 198.122 2115.86 202.52 L2115.86 216.178 L2111.58 216.178 L2111.58 190.252 L2115.86 190.252 L2115.86 194.28 Q2117.2 191.918 2119.36 190.784 Q2121.51 189.627 2124.59 189.627 Q2125.03 189.627 2125.56 189.696 Q2126.09 189.743 2126.74 189.858 L2126.76 194.233 Z" fill="#000000" fill-rule="nonzero" fill-opacity="1" /><path clip-path="url(#clip010)" d="M2152.36 202.15 L2152.36 204.233 L2132.78 204.233 Q2133.06 208.631 2135.42 210.946 Q2137.8 213.238 2142.04 213.238 Q2144.49 213.238 2146.79 212.636 Q2149.1 212.034 2151.37 210.83 L2151.37 214.858 Q2149.08 215.83 2146.67 216.34 Q2144.26 216.849 2141.79 216.849 Q2135.58 216.849 2131.95 213.238 Q2128.34 209.627 2128.34 203.469 Q2128.34 197.104 2131.76 193.377 Q2135.21 189.627 2141.05 189.627 Q2146.28 189.627 2149.31 193.006 Q2152.36 196.363 2152.36 202.15 M2148.11 200.9 Q2148.06 197.405 2146.14 195.321 Q2144.24 193.238 2141.09 193.238 Q2137.53 193.238 2135.37 195.252 Q2133.24 197.266 2132.92 200.923 L2148.11 200.9 Z" fill="#000000" fill-rule="nonzero" fill-opacity="1" /><path clip-path="url(#clip010)" d="M2176.42 202.914 Q2176.42 198.284 2174.49 195.738 Q2172.6 193.192 2169.15 193.192 Q2165.72 193.192 2163.8 195.738 Q2161.9 198.284 2161.9 202.914 Q2161.9 207.52 2163.8 210.066 Q2165.72 212.613 2169.15 212.613 Q2172.6 212.613 2174.49 210.066 Q2176.42 207.52 2176.42 202.914 M2180.68 212.96 Q2180.68 219.58 2177.74 222.798 Q2174.8 226.039 2168.73 226.039 Q2166.49 226.039 2164.49 225.691 Q2162.5 225.367 2160.63 224.673 L2160.63 220.529 Q2162.5 221.548 2164.33 222.034 Q2166.16 222.52 2168.06 222.52 Q2172.25 222.52 2174.33 220.321 Q2176.42 218.145 2176.42 213.724 L2176.42 211.617 Q2175.1 213.909 2173.04 215.043 Q2170.98 216.178 2168.11 216.178 Q2163.34 216.178 2160.42 212.543 Q2157.5 208.909 2157.5 202.914 Q2157.5 196.895 2160.42 193.261 Q2163.34 189.627 2168.11 189.627 Q2170.98 189.627 2173.04 190.761 Q2175.1 191.895 2176.42 194.187 L2176.42 190.252 L2180.68 190.252 L2180.68 212.96 Z" fill="#000000" fill-rule="nonzero" fill-opacity="1" /><path clip-path="url(#clip010)" d="M2189.45 190.252 L2193.71 190.252 L2193.71 216.178 L2189.45 216.178 L2189.45 190.252 M2189.45 180.159 L2193.71 180.159 L2193.71 185.553 L2189.45 185.553 L2189.45 180.159 Z" fill="#000000" fill-rule="nonzero" fill-opacity="1" /><path clip-path="url(#clip010)" d="M2212.67 193.238 Q2209.24 193.238 2207.25 195.923 Q2205.26 198.585 2205.26 203.238 Q2205.26 207.891 2207.23 210.576 Q2209.22 213.238 2212.67 213.238 Q2216.07 213.238 2218.06 210.553 Q2220.05 207.867 2220.05 203.238 Q2220.05 198.631 2218.06 195.946 Q2216.07 193.238 2212.67 193.238 M2212.67 189.627 Q2218.22 189.627 2221.39 193.238 Q2224.56 196.849 2224.56 203.238 Q2224.56 209.604 2221.39 213.238 Q2218.22 216.849 2212.67 216.849 Q2207.09 216.849 2203.92 213.238 Q2200.77 209.604 2200.77 203.238 Q2200.77 196.849 2203.92 193.238 Q2207.09 189.627 2212.67 189.627 Z" fill="#000000" fill-rule="nonzero" fill-opacity="1" /><path clip-path="url(#clip010)" d="M2253.17 200.529 L2253.17 216.178 L2248.92 216.178 L2248.92 200.668 Q2248.92 196.988 2247.48 195.159 Q2246.05 193.33 2243.17 193.33 Q2239.73 193.33 2237.73 195.53 Q2235.74 197.729 2235.74 201.525 L2235.74 216.178 L2231.46 216.178 L2231.46 190.252 L2235.74 190.252 L2235.74 194.28 Q2237.27 191.942 2239.33 190.784 Q2241.42 189.627 2244.12 189.627 Q2248.59 189.627 2250.88 192.405 Q2253.17 195.159 2253.17 200.529 Z" fill="#000000" fill-rule="nonzero" fill-opacity="1" /><path clip-path="url(#clip010)" d="M1487.45 271.474 L1636.82 271.474 L1636.82 230.002 L1487.45 230.002 L1487.45 271.474  Z" fill="#ffa500" fill-rule="evenodd" fill-opacity="0.5"/>
<polyline clip-path="url(#clip010)" style="stroke:#ffa500; stroke-linecap:round; stroke-linejoin:round; stroke-width:4; stroke-opacity:1; fill:none" points="1487.45,230.002 1636.82,230.002 "/>
<path clip-path="url(#clip010)" d="M1666.12 255.078 Q1666.12 259.777 1668.04 262.462 Q1669.98 265.124 1673.36 265.124 Q1676.74 265.124 1678.69 262.462 Q1680.63 259.777 1680.63 255.078 Q1680.63 250.379 1678.69 247.717 Q1676.74 245.032 1673.36 245.032 Q1669.98 245.032 1668.04 247.717 Q1666.12 250.379 1666.12 255.078 M1680.63 264.129 Q1679.29 266.443 1677.23 267.578 Q1675.19 268.689 1672.32 268.689 Q1667.62 268.689 1664.66 264.939 Q1661.72 261.189 1661.72 255.078 Q1661.72 248.967 1664.66 245.217 Q1667.62 241.467 1672.32 241.467 Q1675.19 241.467 1677.23 242.601 Q1679.29 243.712 1680.63 246.027 L1680.63 242.092 L1684.89 242.092 L1684.89 277.879 L1680.63 277.879 L1680.63 264.129 Z" fill="#000000" fill-rule="nonzero" fill-opacity="1" /><path clip-path="url(#clip010)" d="M1694.4 267.3 L1694.4 263.041 Q1696.16 263.874 1697.97 264.314 Q1699.77 264.754 1701.51 264.754 Q1706.14 264.754 1708.57 261.652 Q1711.02 258.527 1711.37 252.184 Q1710.03 254.175 1707.97 255.24 Q1705.91 256.305 1703.41 256.305 Q1698.22 256.305 1695.19 253.18 Q1692.18 250.032 1692.18 244.592 Q1692.18 239.268 1695.33 236.05 Q1698.48 232.833 1703.71 232.833 Q1709.71 232.833 1712.85 237.439 Q1716.02 242.022 1716.02 250.772 Q1716.02 258.944 1712.14 263.828 Q1708.27 268.689 1701.72 268.689 Q1699.96 268.689 1698.15 268.342 Q1696.35 267.994 1694.4 267.3 M1703.71 252.647 Q1706.86 252.647 1708.69 250.494 Q1710.54 248.342 1710.54 244.592 Q1710.54 240.865 1708.69 238.712 Q1706.86 236.536 1703.71 236.536 Q1700.56 236.536 1698.71 238.712 Q1696.88 240.865 1696.88 244.592 Q1696.88 248.342 1698.71 250.494 Q1700.56 252.647 1703.71 252.647 Z" fill="#000000" fill-rule="nonzero" fill-opacity="1" /><path clip-path="url(#clip010)" d="M1724.47 233.458 L1742.83 233.458 L1742.83 237.393 L1728.76 237.393 L1728.76 245.865 Q1729.77 245.518 1730.79 245.356 Q1731.81 245.17 1732.83 245.17 Q1738.62 245.17 1742 248.342 Q1745.38 251.513 1745.38 256.93 Q1745.38 262.508 1741.9 265.61 Q1738.43 268.689 1732.11 268.689 Q1729.94 268.689 1727.67 268.318 Q1725.42 267.948 1723.02 267.207 L1723.02 262.508 Q1725.1 263.643 1727.32 264.198 Q1729.54 264.754 1732.02 264.754 Q1736.02 264.754 1738.36 262.647 Q1740.7 260.541 1740.7 256.93 Q1740.7 253.319 1738.36 251.212 Q1736.02 249.106 1732.02 249.106 Q1730.15 249.106 1728.27 249.522 Q1726.42 249.939 1724.47 250.819 L1724.47 233.458 Z" fill="#000000" fill-rule="nonzero" fill-opacity="1" /><polyline clip-path="url(#clip010)" style="stroke:#0000ff; stroke-linecap:round; stroke-linejoin:round; stroke-width:4; stroke-opacity:1; fill:none" points="1487.45,302.578 1636.82,302.578 "/>
<path clip-path="url(#clip010)" d="M1682.07 298.909 Q1683.66 296.038 1685.89 294.673 Q1688.11 293.307 1691.12 293.307 Q1695.17 293.307 1697.37 296.154 Q1699.57 298.978 1699.57 304.209 L1699.57 319.858 L1695.28 319.858 L1695.28 304.348 Q1695.28 300.622 1693.96 298.816 Q1692.65 297.01 1689.94 297.01 Q1686.63 297.01 1684.71 299.21 Q1682.78 301.409 1682.78 305.205 L1682.78 319.858 L1678.5 319.858 L1678.5 304.348 Q1678.5 300.598 1677.18 298.816 Q1675.86 297.01 1673.11 297.01 Q1669.84 297.01 1667.92 299.233 Q1666 301.432 1666 305.205 L1666 319.858 L1661.72 319.858 L1661.72 293.932 L1666 293.932 L1666 297.96 Q1667.46 295.575 1669.5 294.441 Q1671.53 293.307 1674.34 293.307 Q1677.16 293.307 1679.13 294.742 Q1681.12 296.177 1682.07 298.909 Z" fill="#000000" fill-rule="nonzero" fill-opacity="1" /><path clip-path="url(#clip010)" d="M1730.24 305.83 L1730.24 307.913 L1710.65 307.913 Q1710.93 312.311 1713.29 314.626 Q1715.68 316.918 1719.91 316.918 Q1722.37 316.918 1724.66 316.316 Q1726.97 315.714 1729.24 314.51 L1729.24 318.538 Q1726.95 319.51 1724.54 320.02 Q1722.14 320.529 1719.66 320.529 Q1713.46 320.529 1709.82 316.918 Q1706.21 313.307 1706.21 307.149 Q1706.21 300.784 1709.64 297.057 Q1713.08 293.307 1718.92 293.307 Q1724.15 293.307 1727.18 296.686 Q1730.24 300.043 1730.24 305.83 M1725.98 304.58 Q1725.93 301.085 1724.01 299.001 Q1722.11 296.918 1718.96 296.918 Q1715.4 296.918 1713.25 298.932 Q1711.12 300.946 1710.79 304.603 L1725.98 304.58 Z" fill="#000000" fill-rule="nonzero" fill-opacity="1" /><path clip-path="url(#clip010)" d="M1749.01 306.825 Q1743.85 306.825 1741.86 308.006 Q1739.87 309.186 1739.87 312.034 Q1739.87 314.302 1741.35 315.645 Q1742.85 316.964 1745.42 316.964 Q1748.96 316.964 1751.09 314.464 Q1753.25 311.941 1753.25 307.774 L1753.25 306.825 L1749.01 306.825 M1757.51 305.066 L1757.51 319.858 L1753.25 319.858 L1753.25 315.922 Q1751.79 318.283 1749.61 319.418 Q1747.44 320.529 1744.29 320.529 Q1740.31 320.529 1737.95 318.307 Q1735.61 316.061 1735.61 312.311 Q1735.61 307.936 1738.52 305.714 Q1741.46 303.492 1747.27 303.492 L1753.25 303.492 L1753.25 303.075 Q1753.25 300.135 1751.3 298.538 Q1749.38 296.918 1745.89 296.918 Q1743.66 296.918 1741.56 297.45 Q1739.45 297.983 1737.51 299.047 L1737.51 295.112 Q1739.84 294.21 1742.04 293.77 Q1744.24 293.307 1746.33 293.307 Q1751.95 293.307 1754.73 296.223 Q1757.51 299.14 1757.51 305.066 Z" fill="#000000" fill-rule="nonzero" fill-opacity="1" /><path clip-path="url(#clip010)" d="M1787.83 304.209 L1787.83 319.858 L1783.57 319.858 L1783.57 304.348 Q1783.57 300.668 1782.14 298.839 Q1780.7 297.01 1777.83 297.01 Q1774.38 297.01 1772.39 299.21 Q1770.4 301.409 1770.4 305.205 L1770.4 319.858 L1766.12 319.858 L1766.12 293.932 L1770.4 293.932 L1770.4 297.96 Q1771.93 295.622 1773.99 294.464 Q1776.07 293.307 1778.78 293.307 Q1783.25 293.307 1785.54 296.085 Q1787.83 298.839 1787.83 304.209 Z" fill="#000000" fill-rule="nonzero" fill-opacity="1" /><polyline clip-path="url(#clip010)" style="stroke:#000000; stroke-linecap:round; stroke-linejoin:round; stroke-width:4; stroke-opacity:1; fill:none" points="1487.45,354.418 1636.82,354.418 "/>
<path clip-path="url(#clip010)" d="M1682.07 350.749 Q1683.66 347.878 1685.89 346.513 Q1688.11 345.147 1691.12 345.147 Q1695.17 345.147 1697.37 347.994 Q1699.57 350.818 1699.57 356.049 L1699.57 371.698 L1695.28 371.698 L1695.28 356.188 Q1695.28 352.462 1693.96 350.656 Q1692.65 348.85 1689.94 348.85 Q1686.63 348.85 1684.71 351.05 Q1682.78 353.249 1682.78 357.045 L1682.78 371.698 L1678.5 371.698 L1678.5 356.188 Q1678.5 352.438 1677.18 350.656 Q1675.86 348.85 1673.11 348.85 Q1669.84 348.85 1667.92 351.073 Q1666 353.272 1666 357.045 L1666 371.698 L1661.72 371.698 L1661.72 345.772 L1666 345.772 L1666 349.8 Q1667.46 347.415 1669.5 346.281 Q1671.53 345.147 1674.34 345.147 Q1677.16 345.147 1679.13 346.582 Q1681.12 348.017 1682.07 350.749 Z" fill="#000000" fill-rule="nonzero" fill-opacity="1" /><path clip-path="url(#clip010)" d="M1730.24 357.67 L1730.24 359.753 L1710.65 359.753 Q1710.93 364.151 1713.29 366.466 Q1715.68 368.758 1719.91 368.758 Q1722.37 368.758 1724.66 368.156 Q1726.97 367.554 1729.24 366.35 L1729.24 370.378 Q1726.95 371.35 1724.54 371.86 Q1722.14 372.369 1719.66 372.369 Q1713.46 372.369 1709.82 368.758 Q1706.21 365.147 1706.21 358.989 Q1706.21 352.624 1709.64 348.897 Q1713.08 345.147 1718.92 345.147 Q1724.15 345.147 1727.18 348.526 Q1730.24 351.883 1730.24 357.67 M1725.98 356.42 Q1725.93 352.925 1724.01 350.841 Q1722.11 348.758 1718.96 348.758 Q1715.4 348.758 1713.25 350.772 Q1711.12 352.786 1710.79 356.443 L1725.98 356.42 Z" fill="#000000" fill-rule="nonzero" fill-opacity="1" /><path clip-path="url(#clip010)" d="M1754.29 349.707 L1754.29 335.679 L1758.55 335.679 L1758.55 371.698 L1754.29 371.698 L1754.29 367.809 Q1752.95 370.123 1750.89 371.258 Q1748.85 372.369 1745.98 372.369 Q1741.28 372.369 1738.32 368.619 Q1735.38 364.869 1735.38 358.758 Q1735.38 352.647 1738.32 348.897 Q1741.28 345.147 1745.98 345.147 Q1748.85 345.147 1750.89 346.281 Q1752.95 347.392 1754.29 349.707 M1739.77 358.758 Q1739.77 363.457 1741.7 366.142 Q1743.64 368.804 1747.02 368.804 Q1750.4 368.804 1752.34 366.142 Q1754.29 363.457 1754.29 358.758 Q1754.29 354.059 1752.34 351.397 Q1750.4 348.712 1747.02 348.712 Q1743.64 348.712 1741.7 351.397 Q1739.77 354.059 1739.77 358.758 Z" fill="#000000" fill-rule="nonzero" fill-opacity="1" /><path clip-path="url(#clip010)" d="M1767.32 345.772 L1771.58 345.772 L1771.58 371.698 L1767.32 371.698 L1767.32 345.772 M1767.32 335.679 L1771.58 335.679 L1771.58 341.073 L1767.32 341.073 L1767.32 335.679 Z" fill="#000000" fill-rule="nonzero" fill-opacity="1" /><path clip-path="url(#clip010)" d="M1792.27 358.665 Q1787.11 358.665 1785.12 359.846 Q1783.13 361.026 1783.13 363.874 Q1783.13 366.142 1784.61 367.485 Q1786.12 368.804 1788.69 368.804 Q1792.23 368.804 1794.36 366.304 Q1796.51 363.781 1796.51 359.614 L1796.51 358.665 L1792.27 358.665 M1800.77 356.906 L1800.77 371.698 L1796.51 371.698 L1796.51 367.762 Q1795.05 370.123 1792.88 371.258 Q1790.7 372.369 1787.55 372.369 Q1783.57 372.369 1781.21 370.147 Q1778.87 367.901 1778.87 364.151 Q1778.87 359.776 1781.79 357.554 Q1784.73 355.332 1790.54 355.332 L1796.51 355.332 L1796.51 354.915 Q1796.51 351.975 1794.57 350.378 Q1792.64 348.758 1789.15 348.758 Q1786.93 348.758 1784.82 349.29 Q1782.71 349.823 1780.77 350.887 L1780.77 346.952 Q1783.11 346.05 1785.31 345.61 Q1787.51 345.147 1789.59 345.147 Q1795.21 345.147 1797.99 348.063 Q1800.77 350.98 1800.77 356.906 Z" fill="#000000" fill-rule="nonzero" fill-opacity="1" /><path clip-path="url(#clip010)" d="M1831.09 356.049 L1831.09 371.698 L1826.83 371.698 L1826.83 356.188 Q1826.83 352.508 1825.4 350.679 Q1823.96 348.85 1821.09 348.85 Q1817.64 348.85 1815.65 351.05 Q1813.66 353.249 1813.66 357.045 L1813.66 371.698 L1809.38 371.698 L1809.38 345.772 L1813.66 345.772 L1813.66 349.8 Q1815.19 347.462 1817.25 346.304 Q1819.33 345.147 1822.04 345.147 Q1826.51 345.147 1828.8 347.925 Q1831.09 350.679 1831.09 356.049 Z" fill="#000000" fill-rule="nonzero" fill-opacity="1" /></svg>
