<?xml version="1.0" encoding="utf-8"?>
<svg xmlns="http://www.w3.org/2000/svg" xmlns:xlink="http://www.w3.org/1999/xlink" width="600" height="400" viewBox="0 0 600 400">
<defs>
  <clipPath id="clip4900">
    <rect x="0" y="0" width="600" height="400"/>
  </clipPath>
</defs>
<polygon clip-path="url(#clip4900)" points="
0,400 600,400 600,0 0,0 
  " fill="#ffffff" fill-opacity="1"/>
<defs>
  <clipPath id="clip4901">
    <rect x="120" y="0" width="421" height="400"/>
  </clipPath>
</defs>
<polygon clip-path="url(#clip4900)" points="
43.6938,109.202 580.315,109.202 580.315,31.4961 43.6938,31.4961 
  " fill="#ffffff" fill-opacity="1"/>
<defs>
  <clipPath id="clip4902">
    <rect x="43" y="31" width="538" height="79"/>
  </clipPath>
</defs>
<polyline clip-path="url(#clip4902)" style="stroke:#000000; stroke-width:0.5; stroke-opacity:0.1; fill:none" points="
  45.1153,109.202 45.1153,31.4961 
  "/>
<polyline clip-path="url(#clip4902)" style="stroke:#000000; stroke-width:0.5; stroke-opacity:0.1; fill:none" points="
  185.583,109.202 185.583,31.4961 
  "/>
<polyline clip-path="url(#clip4902)" style="stroke:#000000; stroke-width:0.5; stroke-opacity:0.1; fill:none" points="
  326.051,109.202 326.051,31.4961 
  "/>
<polyline clip-path="url(#clip4902)" style="stroke:#000000; stroke-width:0.5; stroke-opacity:0.1; fill:none" points="
  466.519,109.202 466.519,31.4961 
  "/>
<polyline clip-path="url(#clip4902)" style="stroke:#000000; stroke-width:0.5; stroke-opacity:0.1; fill:none" points="
  43.6938,107.003 580.315,107.003 
  "/>
<polyline clip-path="url(#clip4902)" style="stroke:#000000; stroke-width:0.5; stroke-opacity:0.1; fill:none" points="
  43.6938,86.7521 580.315,86.7521 
  "/>
<polyline clip-path="url(#clip4902)" style="stroke:#000000; stroke-width:0.5; stroke-opacity:0.1; fill:none" points="
  43.6938,66.5014 580.315,66.5014 
  "/>
<polyline clip-path="url(#clip4902)" style="stroke:#000000; stroke-width:0.5; stroke-opacity:0.1; fill:none" points="
  43.6938,46.2507 580.315,46.2507 
  "/>
<polyline clip-path="url(#clip4900)" style="stroke:#000000; stroke-width:1; stroke-opacity:1; fill:none" points="
  43.6938,109.202 580.315,109.202 
  "/>
<polyline clip-path="url(#clip4900)" style="stroke:#000000; stroke-width:1; stroke-opacity:1; fill:none" points="
  43.6938,109.202 43.6938,31.4961 
  "/>
<polyline clip-path="url(#clip4900)" style="stroke:#000000; stroke-width:1; stroke-opacity:1; fill:none" points="
  45.1153,109.202 45.1153,108.036 
  "/>
<polyline clip-path="url(#clip4900)" style="stroke:#000000; stroke-width:1; stroke-opacity:1; fill:none" points="
  185.583,109.202 185.583,108.036 
  "/>
<polyline clip-path="url(#clip4900)" style="stroke:#000000; stroke-width:1; stroke-opacity:1; fill:none" points="
  326.051,109.202 326.051,108.036 
  "/>
<polyline clip-path="url(#clip4900)" style="stroke:#000000; stroke-width:1; stroke-opacity:1; fill:none" points="
  466.519,109.202 466.519,108.036 
  "/>
<polyline clip-path="url(#clip4900)" style="stroke:#000000; stroke-width:1; stroke-opacity:1; fill:none" points="
  43.6938,107.003 51.7431,107.003 
  "/>
<polyline clip-path="url(#clip4900)" style="stroke:#000000; stroke-width:1; stroke-opacity:1; fill:none" points="
  43.6938,86.7521 51.7431,86.7521 
  "/>
<polyline clip-path="url(#clip4900)" style="stroke:#000000; stroke-width:1; stroke-opacity:1; fill:none" points="
  43.6938,66.5014 51.7431,66.5014 
  "/>
<polyline clip-path="url(#clip4900)" style="stroke:#000000; stroke-width:1; stroke-opacity:1; fill:none" points="
  43.6938,46.2507 51.7431,46.2507 
  "/>
<g clip-path="url(#clip4900)">
<text style="fill:#000000; fill-opacity:1; font-family:Arial,Helvetica Neue,Helvetica,sans-serif; font-size:12; text-anchor:middle;" transform="rotate(0, 45.1153, 123.002)" x="45.1153" y="123.002">-1</text>
</g>
<g clip-path="url(#clip4900)">
<text style="fill:#000000; fill-opacity:1; font-family:Arial,Helvetica Neue,Helvetica,sans-serif; font-size:12; text-anchor:middle;" transform="rotate(0, 185.583, 123.002)" x="185.583" y="123.002">0</text>
</g>
<g clip-path="url(#clip4900)">
<text style="fill:#000000; fill-opacity:1; font-family:Arial,Helvetica Neue,Helvetica,sans-serif; font-size:12; text-anchor:middle;" transform="rotate(0, 326.051, 123.002)" x="326.051" y="123.002">1</text>
</g>
<g clip-path="url(#clip4900)">
<text style="fill:#000000; fill-opacity:1; font-family:Arial,Helvetica Neue,Helvetica,sans-serif; font-size:12; text-anchor:middle;" transform="rotate(0, 466.519, 123.002)" x="466.519" y="123.002">2</text>
</g>
<g clip-path="url(#clip4900)">
<text style="fill:#000000; fill-opacity:1; font-family:Arial,Helvetica Neue,Helvetica,sans-serif; font-size:12; text-anchor:end;" transform="rotate(0, 37.6938, 111.503)" x="37.6938" y="111.503">0</text>
</g>
<g clip-path="url(#clip4900)">
<text style="fill:#000000; fill-opacity:1; font-family:Arial,Helvetica Neue,Helvetica,sans-serif; font-size:12; text-anchor:end;" transform="rotate(0, 37.6938, 91.2521)" x="37.6938" y="91.2521">50</text>
</g>
<g clip-path="url(#clip4900)">
<text style="fill:#000000; fill-opacity:1; font-family:Arial,Helvetica Neue,Helvetica,sans-serif; font-size:12; text-anchor:end;" transform="rotate(0, 37.6938, 71.0014)" x="37.6938" y="71.0014">100</text>
</g>
<g clip-path="url(#clip4900)">
<text style="fill:#000000; fill-opacity:1; font-family:Arial,Helvetica Neue,Helvetica,sans-serif; font-size:12; text-anchor:end;" transform="rotate(0, 37.6938, 50.7507)" x="37.6938" y="50.7507">150</text>
</g>
<g clip-path="url(#clip4900)">
<text style="fill:#000000; fill-opacity:1; font-family:Arial,Helvetica Neue,Helvetica,sans-serif; font-size:21; text-anchor:middle;" transform="rotate(0, 312.004, 18)" x="312.004" y="18">OLS</text>
</g>
<polygon clip-path="url(#clip4902)" points="
73.2089,106.193 73.2089,107.003 101.303,107.003 101.303,106.193 73.2089,106.193 73.2089,106.193 
  " fill="#009af9" fill-opacity="1"/>
<polyline clip-path="url(#clip4902)" style="stroke:#000000; stroke-width:1; stroke-opacity:1; fill:none" points="
  73.2089,106.193 73.2089,107.003 101.303,107.003 101.303,106.193 73.2089,106.193 
  "/>
<polygon clip-path="url(#clip4902)" points="
101.303,105.788 101.303,107.003 129.396,107.003 129.396,105.788 101.303,105.788 101.303,105.788 
  " fill="#009af9" fill-opacity="1"/>
<polyline clip-path="url(#clip4902)" style="stroke:#000000; stroke-width:1; stroke-opacity:1; fill:none" points="
  101.303,105.788 101.303,107.003 129.396,107.003 129.396,105.788 101.303,105.788 
  "/>
<polygon clip-path="url(#clip4902)" points="
129.396,106.193 129.396,107.003 157.49,107.003 157.49,106.193 129.396,106.193 129.396,106.193 
  " fill="#009af9" fill-opacity="1"/>
<polyline clip-path="url(#clip4902)" style="stroke:#000000; stroke-width:1; stroke-opacity:1; fill:none" points="
  129.396,106.193 129.396,107.003 157.49,107.003 157.49,106.193 129.396,106.193 
  "/>
<polygon clip-path="url(#clip4902)" points="
157.49,103.763 157.49,107.003 185.583,107.003 185.583,103.763 157.49,103.763 157.49,103.763 
  " fill="#009af9" fill-opacity="1"/>
<polyline clip-path="url(#clip4902)" style="stroke:#000000; stroke-width:1; stroke-opacity:1; fill:none" points="
  157.49,103.763 157.49,107.003 185.583,107.003 185.583,103.763 157.49,103.763 
  "/>
<polygon clip-path="url(#clip4902)" points="
185.583,97.2825 185.583,107.003 213.677,107.003 213.677,97.2825 185.583,97.2825 185.583,97.2825 
  " fill="#009af9" fill-opacity="1"/>
<polyline clip-path="url(#clip4902)" style="stroke:#000000; stroke-width:1; stroke-opacity:1; fill:none" points="
  185.583,97.2825 185.583,107.003 213.677,107.003 213.677,97.2825 185.583,97.2825 
  "/>
<polygon clip-path="url(#clip4902)" points="
213.677,85.132 213.677,107.003 241.77,107.003 241.77,85.132 213.677,85.132 213.677,85.132 
  " fill="#009af9" fill-opacity="1"/>
<polyline clip-path="url(#clip4902)" style="stroke:#000000; stroke-width:1; stroke-opacity:1; fill:none" points="
  213.677,85.132 213.677,107.003 241.77,107.003 241.77,85.132 213.677,85.132 
  "/>
<polygon clip-path="url(#clip4902)" points="
241.77,67.3114 241.77,107.003 269.864,107.003 269.864,67.3114 241.77,67.3114 241.77,67.3114 
  " fill="#009af9" fill-opacity="1"/>
<polyline clip-path="url(#clip4902)" style="stroke:#000000; stroke-width:1; stroke-opacity:1; fill:none" points="
  241.77,67.3114 241.77,107.003 269.864,107.003 269.864,67.3114 241.77,67.3114 
  "/>
<polygon clip-path="url(#clip4902)" points="
269.864,54.756 269.864,107.003 297.958,107.003 297.958,54.756 269.864,54.756 269.864,54.756 
  " fill="#009af9" fill-opacity="1"/>
<polyline clip-path="url(#clip4902)" style="stroke:#000000; stroke-width:1; stroke-opacity:1; fill:none" points="
  269.864,54.756 269.864,107.003 297.958,107.003 297.958,54.756 269.864,54.756 
  "/>
<polygon clip-path="url(#clip4902)" points="
297.958,39.3655 297.958,107.003 326.051,107.003 326.051,39.3655 297.958,39.3655 297.958,39.3655 
  " fill="#009af9" fill-opacity="1"/>
<polyline clip-path="url(#clip4902)" style="stroke:#000000; stroke-width:1; stroke-opacity:1; fill:none" points="
  297.958,39.3655 297.958,107.003 326.051,107.003 326.051,39.3655 297.958,39.3655 
  "/>
<polygon clip-path="url(#clip4902)" points="
326.051,33.6953 326.051,107.003 354.145,107.003 354.145,33.6953 326.051,33.6953 326.051,33.6953 
  " fill="#009af9" fill-opacity="1"/>
<polyline clip-path="url(#clip4902)" style="stroke:#000000; stroke-width:1; stroke-opacity:1; fill:none" points="
  326.051,33.6953 326.051,107.003 354.145,107.003 354.145,33.6953 326.051,33.6953 
  "/>
<polygon clip-path="url(#clip4902)" points="
354.145,49.0858 354.145,107.003 382.238,107.003 382.238,49.0858 354.145,49.0858 354.145,49.0858 
  " fill="#009af9" fill-opacity="1"/>
<polyline clip-path="url(#clip4902)" style="stroke:#000000; stroke-width:1; stroke-opacity:1; fill:none" points="
  354.145,49.0858 354.145,107.003 382.238,107.003 382.238,49.0858 354.145,49.0858 
  "/>
<polygon clip-path="url(#clip4902)" points="
382.238,65.2864 382.238,107.003 410.332,107.003 410.332,65.2864 382.238,65.2864 382.238,65.2864 
  " fill="#009af9" fill-opacity="1"/>
<polyline clip-path="url(#clip4902)" style="stroke:#000000; stroke-width:1; stroke-opacity:1; fill:none" points="
  382.238,65.2864 382.238,107.003 410.332,107.003 410.332,65.2864 382.238,65.2864 
  "/>
<polygon clip-path="url(#clip4902)" points="
410.332,85.9421 410.332,107.003 438.426,107.003 438.426,85.9421 410.332,85.9421 410.332,85.9421 
  " fill="#009af9" fill-opacity="1"/>
<polyline clip-path="url(#clip4902)" style="stroke:#000000; stroke-width:1; stroke-opacity:1; fill:none" points="
  410.332,85.9421 410.332,107.003 438.426,107.003 438.426,85.9421 410.332,85.9421 
  "/>
<polygon clip-path="url(#clip4902)" points="
438.426,96.8774 438.426,107.003 466.519,107.003 466.519,96.8774 438.426,96.8774 438.426,96.8774 
  " fill="#009af9" fill-opacity="1"/>
<polyline clip-path="url(#clip4902)" style="stroke:#000000; stroke-width:1; stroke-opacity:1; fill:none" points="
  438.426,96.8774 438.426,107.003 466.519,107.003 466.519,96.8774 438.426,96.8774 
  "/>
<polygon clip-path="url(#clip4902)" points="
466.519,104.978 466.519,107.003 494.613,107.003 494.613,104.978 466.519,104.978 466.519,104.978 
  " fill="#009af9" fill-opacity="1"/>
<polyline clip-path="url(#clip4902)" style="stroke:#000000; stroke-width:1; stroke-opacity:1; fill:none" points="
  466.519,104.978 466.519,107.003 494.613,107.003 494.613,104.978 466.519,104.978 
  "/>
<polygon clip-path="url(#clip4902)" points="
494.613,105.788 494.613,107.003 522.706,107.003 522.706,105.788 494.613,105.788 494.613,105.788 
  " fill="#009af9" fill-opacity="1"/>
<polyline clip-path="url(#clip4902)" style="stroke:#000000; stroke-width:1; stroke-opacity:1; fill:none" points="
  494.613,105.788 494.613,107.003 522.706,107.003 522.706,105.788 494.613,105.788 
  "/>
<polygon clip-path="url(#clip4902)" points="
522.706,106.598 522.706,107.003 550.8,107.003 550.8,106.598 522.706,106.598 522.706,106.598 
  " fill="#009af9" fill-opacity="1"/>
<polyline clip-path="url(#clip4902)" style="stroke:#000000; stroke-width:1; stroke-opacity:1; fill:none" points="
  522.706,106.598 522.706,107.003 550.8,107.003 550.8,106.598 522.706,106.598 
  "/>
<polygon clip-path="url(#clip4900)" points="
43.6938,242.535 580.315,242.535 580.315,164.829 43.6938,164.829 
  " fill="#ffffff" fill-opacity="1"/>
<defs>
  <clipPath id="clip4903">
    <rect x="43" y="164" width="538" height="79"/>
  </clipPath>
</defs>
<polyline clip-path="url(#clip4903)" style="stroke:#000000; stroke-width:0.5; stroke-opacity:0.1; fill:none" points="
  101.303,242.535 101.303,164.829 
  "/>
<polyline clip-path="url(#clip4903)" style="stroke:#000000; stroke-width:0.5; stroke-opacity:0.1; fill:none" points="
  241.77,242.535 241.77,164.829 
  "/>
<polyline clip-path="url(#clip4903)" style="stroke:#000000; stroke-width:0.5; stroke-opacity:0.1; fill:none" points="
  382.238,242.535 382.238,164.829 
  "/>
<polyline clip-path="url(#clip4903)" style="stroke:#000000; stroke-width:0.5; stroke-opacity:0.1; fill:none" points="
  522.706,242.535 522.706,164.829 
  "/>
<polyline clip-path="url(#clip4903)" style="stroke:#000000; stroke-width:0.5; stroke-opacity:0.1; fill:none" points="
  43.6938,240.336 580.315,240.336 
  "/>
<polyline clip-path="url(#clip4903)" style="stroke:#000000; stroke-width:0.5; stroke-opacity:0.1; fill:none" points="
  43.6938,220.735 580.315,220.735 
  "/>
<polyline clip-path="url(#clip4903)" style="stroke:#000000; stroke-width:0.5; stroke-opacity:0.1; fill:none" points="
  43.6938,201.134 580.315,201.134 
  "/>
<polyline clip-path="url(#clip4903)" style="stroke:#000000; stroke-width:0.5; stroke-opacity:0.1; fill:none" points="
  43.6938,181.533 580.315,181.533 
  "/>
<polyline clip-path="url(#clip4900)" style="stroke:#000000; stroke-width:1; stroke-opacity:1; fill:none" points="
  43.6938,242.535 580.315,242.535 
  "/>
<polyline clip-path="url(#clip4900)" style="stroke:#000000; stroke-width:1; stroke-opacity:1; fill:none" points="
  43.6938,242.535 43.6938,164.829 
  "/>
<polyline clip-path="url(#clip4900)" style="stroke:#000000; stroke-width:1; stroke-opacity:1; fill:none" points="
  101.303,242.535 101.303,241.37 
  "/>
<polyline clip-path="url(#clip4900)" style="stroke:#000000; stroke-width:1; stroke-opacity:1; fill:none" points="
  241.77,242.535 241.77,241.37 
  "/>
<polyline clip-path="url(#clip4900)" style="stroke:#000000; stroke-width:1; stroke-opacity:1; fill:none" points="
  382.238,242.535 382.238,241.37 
  "/>
<polyline clip-path="url(#clip4900)" style="stroke:#000000; stroke-width:1; stroke-opacity:1; fill:none" points="
  522.706,242.535 522.706,241.37 
  "/>
<polyline clip-path="url(#clip4900)" style="stroke:#000000; stroke-width:1; stroke-opacity:1; fill:none" points="
  43.6938,240.336 51.7431,240.336 
  "/>
<polyline clip-path="url(#clip4900)" style="stroke:#000000; stroke-width:1; stroke-opacity:1; fill:none" points="
  43.6938,220.735 51.7431,220.735 
  "/>
<polyline clip-path="url(#clip4900)" style="stroke:#000000; stroke-width:1; stroke-opacity:1; fill:none" points="
  43.6938,201.134 51.7431,201.134 
  "/>
<polyline clip-path="url(#clip4900)" style="stroke:#000000; stroke-width:1; stroke-opacity:1; fill:none" points="
  43.6938,181.533 51.7431,181.533 
  "/>
<g clip-path="url(#clip4900)">
<text style="fill:#000000; fill-opacity:1; font-family:Arial,Helvetica Neue,Helvetica,sans-serif; font-size:12; text-anchor:middle;" transform="rotate(0, 101.303, 256.335)" x="101.303" y="256.335">1.0</text>
</g>
<g clip-path="url(#clip4900)">
<text style="fill:#000000; fill-opacity:1; font-family:Arial,Helvetica Neue,Helvetica,sans-serif; font-size:12; text-anchor:middle;" transform="rotate(0, 241.77, 256.335)" x="241.77" y="256.335">1.5</text>
</g>
<g clip-path="url(#clip4900)">
<text style="fill:#000000; fill-opacity:1; font-family:Arial,Helvetica Neue,Helvetica,sans-serif; font-size:12; text-anchor:middle;" transform="rotate(0, 382.238, 256.335)" x="382.238" y="256.335">2.0</text>
</g>
<g clip-path="url(#clip4900)">
<text style="fill:#000000; fill-opacity:1; font-family:Arial,Helvetica Neue,Helvetica,sans-serif; font-size:12; text-anchor:middle;" transform="rotate(0, 522.706, 256.335)" x="522.706" y="256.335">2.5</text>
</g>
<g clip-path="url(#clip4900)">
<text style="fill:#000000; fill-opacity:1; font-family:Arial,Helvetica Neue,Helvetica,sans-serif; font-size:12; text-anchor:end;" transform="rotate(0, 37.6938, 244.836)" x="37.6938" y="244.836">0</text>
</g>
<g clip-path="url(#clip4900)">
<text style="fill:#000000; fill-opacity:1; font-family:Arial,Helvetica Neue,Helvetica,sans-serif; font-size:12; text-anchor:end;" transform="rotate(0, 37.6938, 225.235)" x="37.6938" y="225.235">50</text>
</g>
<g clip-path="url(#clip4900)">
<text style="fill:#000000; fill-opacity:1; font-family:Arial,Helvetica Neue,Helvetica,sans-serif; font-size:12; text-anchor:end;" transform="rotate(0, 37.6938, 205.634)" x="37.6938" y="205.634">100</text>
</g>
<g clip-path="url(#clip4900)">
<text style="fill:#000000; fill-opacity:1; font-family:Arial,Helvetica Neue,Helvetica,sans-serif; font-size:12; text-anchor:end;" transform="rotate(0, 37.6938, 186.033)" x="37.6938" y="186.033">150</text>
</g>
<g clip-path="url(#clip4900)">
<text style="fill:#000000; fill-opacity:1; font-family:Arial,Helvetica Neue,Helvetica,sans-serif; font-size:21; text-anchor:middle;" transform="rotate(0, 312.004, 151.333)" x="312.004" y="151.333">Drop X3</text>
</g>
<polygon clip-path="url(#clip4903)" points="
73.2089,239.944 73.2089,240.336 101.303,240.336 101.303,239.944 73.2089,239.944 73.2089,239.944 
  " fill="#009af9" fill-opacity="1"/>
<polyline clip-path="url(#clip4903)" style="stroke:#000000; stroke-width:1; stroke-opacity:1; fill:none" points="
  73.2089,239.944 73.2089,240.336 101.303,240.336 101.303,239.944 73.2089,239.944 
  "/>
<polygon clip-path="url(#clip4903)" points="
101.303,239.944 101.303,240.336 129.396,240.336 129.396,239.944 101.303,239.944 101.303,239.944 
  " fill="#009af9" fill-opacity="1"/>
<polyline clip-path="url(#clip4903)" style="stroke:#000000; stroke-width:1; stroke-opacity:1; fill:none" points="
  101.303,239.944 101.303,240.336 129.396,240.336 129.396,239.944 101.303,239.944 
  "/>
<polygon clip-path="url(#clip4903)" points="
129.396,240.336 129.396,240.336 157.49,240.336 157.49,240.336 129.396,240.336 129.396,240.336 
  " fill="#009af9" fill-opacity="1"/>
<polyline clip-path="url(#clip4903)" style="stroke:#000000; stroke-width:1; stroke-opacity:1; fill:none" points="
  129.396,240.336 129.396,240.336 157.49,240.336 129.396,240.336 
  "/>
<polygon clip-path="url(#clip4903)" points="
157.49,239.944 157.49,240.336 185.583,240.336 185.583,239.944 157.49,239.944 157.49,239.944 
  " fill="#009af9" fill-opacity="1"/>
<polyline clip-path="url(#clip4903)" style="stroke:#000000; stroke-width:1; stroke-opacity:1; fill:none" points="
  157.49,239.944 157.49,240.336 185.583,240.336 185.583,239.944 157.49,239.944 
  "/>
<polygon clip-path="url(#clip4903)" points="
185.583,236.416 185.583,240.336 213.677,240.336 213.677,236.416 185.583,236.416 185.583,236.416 
  " fill="#009af9" fill-opacity="1"/>
<polyline clip-path="url(#clip4903)" style="stroke:#000000; stroke-width:1; stroke-opacity:1; fill:none" points="
  185.583,236.416 185.583,240.336 213.677,240.336 213.677,236.416 185.583,236.416 
  "/>
<polygon clip-path="url(#clip4903)" points="
213.677,233.672 213.677,240.336 241.77,240.336 241.77,233.672 213.677,233.672 213.677,233.672 
  " fill="#009af9" fill-opacity="1"/>
<polyline clip-path="url(#clip4903)" style="stroke:#000000; stroke-width:1; stroke-opacity:1; fill:none" points="
  213.677,233.672 213.677,240.336 241.77,240.336 241.77,233.672 213.677,233.672 
  "/>
<polygon clip-path="url(#clip4903)" points="
241.77,221.127 241.77,240.336 269.864,240.336 269.864,221.127 241.77,221.127 241.77,221.127 
  " fill="#009af9" fill-opacity="1"/>
<polyline clip-path="url(#clip4903)" style="stroke:#000000; stroke-width:1; stroke-opacity:1; fill:none" points="
  241.77,221.127 241.77,240.336 269.864,240.336 269.864,221.127 241.77,221.127 
  "/>
<polygon clip-path="url(#clip4903)" points="
269.864,209.759 269.864,240.336 297.958,240.336 297.958,209.759 269.864,209.759 269.864,209.759 
  " fill="#009af9" fill-opacity="1"/>
<polyline clip-path="url(#clip4903)" style="stroke:#000000; stroke-width:1; stroke-opacity:1; fill:none" points="
  269.864,209.759 269.864,240.336 297.958,240.336 297.958,209.759 269.864,209.759 
  "/>
<polygon clip-path="url(#clip4903)" points="
297.958,180.749 297.958,240.336 326.051,240.336 326.051,180.749 297.958,180.749 297.958,180.749 
  " fill="#009af9" fill-opacity="1"/>
<polyline clip-path="url(#clip4903)" style="stroke:#000000; stroke-width:1; stroke-opacity:1; fill:none" points="
  297.958,180.749 297.958,240.336 326.051,240.336 326.051,180.749 297.958,180.749 
  "/>
<polygon clip-path="url(#clip4903)" points="
326.051,176.829 326.051,240.336 354.145,240.336 354.145,176.829 326.051,176.829 326.051,176.829 
  " fill="#009af9" fill-opacity="1"/>
<polyline clip-path="url(#clip4903)" style="stroke:#000000; stroke-width:1; stroke-opacity:1; fill:none" points="
  326.051,176.829 326.051,240.336 354.145,240.336 354.145,176.829 326.051,176.829 
  "/>
<polygon clip-path="url(#clip4903)" points="
354.145,167.029 354.145,240.336 382.238,240.336 382.238,167.029 354.145,167.029 354.145,167.029 
  " fill="#009af9" fill-opacity="1"/>
<polyline clip-path="url(#clip4903)" style="stroke:#000000; stroke-width:1; stroke-opacity:1; fill:none" points="
  354.145,167.029 354.145,240.336 382.238,240.336 382.238,167.029 354.145,167.029 
  "/>
<polygon clip-path="url(#clip4903)" points="
382.238,178.789 382.238,240.336 410.332,240.336 410.332,178.789 382.238,178.789 382.238,178.789 
  " fill="#009af9" fill-opacity="1"/>
<polyline clip-path="url(#clip4903)" style="stroke:#000000; stroke-width:1; stroke-opacity:1; fill:none" points="
  382.238,178.789 382.238,240.336 410.332,240.336 410.332,178.789 382.238,178.789 
  "/>
<polygon clip-path="url(#clip4903)" points="
410.332,199.566 410.332,240.336 438.426,240.336 438.426,199.566 410.332,199.566 410.332,199.566 
  " fill="#009af9" fill-opacity="1"/>
<polyline clip-path="url(#clip4903)" style="stroke:#000000; stroke-width:1; stroke-opacity:1; fill:none" points="
  410.332,199.566 410.332,240.336 438.426,240.336 438.426,199.566 410.332,199.566 
  "/>
<polygon clip-path="url(#clip4903)" points="
438.426,222.695 438.426,240.336 466.519,240.336 466.519,222.695 438.426,222.695 438.426,222.695 
  " fill="#009af9" fill-opacity="1"/>
<polyline clip-path="url(#clip4903)" style="stroke:#000000; stroke-width:1; stroke-opacity:1; fill:none" points="
  438.426,222.695 438.426,240.336 466.519,240.336 466.519,222.695 438.426,222.695 
  "/>
<polygon clip-path="url(#clip4903)" points="
466.519,230.536 466.519,240.336 494.613,240.336 494.613,230.536 466.519,230.536 466.519,230.536 
  " fill="#009af9" fill-opacity="1"/>
<polyline clip-path="url(#clip4903)" style="stroke:#000000; stroke-width:1; stroke-opacity:1; fill:none" points="
  466.519,230.536 466.519,240.336 494.613,240.336 494.613,230.536 466.519,230.536 
  "/>
<polygon clip-path="url(#clip4903)" points="
494.613,236.416 494.613,240.336 522.706,240.336 522.706,236.416 494.613,236.416 494.613,236.416 
  " fill="#009af9" fill-opacity="1"/>
<polyline clip-path="url(#clip4903)" style="stroke:#000000; stroke-width:1; stroke-opacity:1; fill:none" points="
  494.613,236.416 494.613,240.336 522.706,240.336 522.706,236.416 494.613,236.416 
  "/>
<polygon clip-path="url(#clip4903)" points="
522.706,239.944 522.706,240.336 550.8,240.336 550.8,239.944 522.706,239.944 522.706,239.944 
  " fill="#009af9" fill-opacity="1"/>
<polyline clip-path="url(#clip4903)" style="stroke:#000000; stroke-width:1; stroke-opacity:1; fill:none" points="
  522.706,239.944 522.706,240.336 550.8,240.336 550.8,239.944 522.706,239.944 
  "/>
<polygon clip-path="url(#clip4900)" points="
43.6938,375.869 580.315,375.869 580.315,298.163 43.6938,298.163 
  " fill="#ffffff" fill-opacity="1"/>
<defs>
  <clipPath id="clip4904">
    <rect x="43" y="298" width="538" height="79"/>
  </clipPath>
</defs>
<polyline clip-path="url(#clip4904)" style="stroke:#000000; stroke-width:0.5; stroke-opacity:0.1; fill:none" points="
  105.048,375.869 105.048,298.163 
  "/>
<polyline clip-path="url(#clip4904)" style="stroke:#000000; stroke-width:0.5; stroke-opacity:0.1; fill:none" points="
  232.406,375.869 232.406,298.163 
  "/>
<polyline clip-path="url(#clip4904)" style="stroke:#000000; stroke-width:0.5; stroke-opacity:0.1; fill:none" points="
  359.763,375.869 359.763,298.163 
  "/>
<polyline clip-path="url(#clip4904)" style="stroke:#000000; stroke-width:0.5; stroke-opacity:0.1; fill:none" points="
  487.121,375.869 487.121,298.163 
  "/>
<polyline clip-path="url(#clip4904)" style="stroke:#000000; stroke-width:0.5; stroke-opacity:0.1; fill:none" points="
  43.6938,373.669 580.315,373.669 
  "/>
<polyline clip-path="url(#clip4904)" style="stroke:#000000; stroke-width:0.5; stroke-opacity:0.1; fill:none" points="
  43.6938,353.64 580.315,353.64 
  "/>
<polyline clip-path="url(#clip4904)" style="stroke:#000000; stroke-width:0.5; stroke-opacity:0.1; fill:none" points="
  43.6938,333.611 580.315,333.611 
  "/>
<polyline clip-path="url(#clip4904)" style="stroke:#000000; stroke-width:0.5; stroke-opacity:0.1; fill:none" points="
  43.6938,313.581 580.315,313.581 
  "/>
<polyline clip-path="url(#clip4900)" style="stroke:#000000; stroke-width:1; stroke-opacity:1; fill:none" points="
  43.6938,375.869 580.315,375.869 
  "/>
<polyline clip-path="url(#clip4900)" style="stroke:#000000; stroke-width:1; stroke-opacity:1; fill:none" points="
  43.6938,375.869 43.6938,298.163 
  "/>
<polyline clip-path="url(#clip4900)" style="stroke:#000000; stroke-width:1; stroke-opacity:1; fill:none" points="
  105.048,375.869 105.048,374.703 
  "/>
<polyline clip-path="url(#clip4900)" style="stroke:#000000; stroke-width:1; stroke-opacity:1; fill:none" points="
  232.406,375.869 232.406,374.703 
  "/>
<polyline clip-path="url(#clip4900)" style="stroke:#000000; stroke-width:1; stroke-opacity:1; fill:none" points="
  359.763,375.869 359.763,374.703 
  "/>
<polyline clip-path="url(#clip4900)" style="stroke:#000000; stroke-width:1; stroke-opacity:1; fill:none" points="
  487.121,375.869 487.121,374.703 
  "/>
<polyline clip-path="url(#clip4900)" style="stroke:#000000; stroke-width:1; stroke-opacity:1; fill:none" points="
  43.6938,373.669 51.7431,373.669 
  "/>
<polyline clip-path="url(#clip4900)" style="stroke:#000000; stroke-width:1; stroke-opacity:1; fill:none" points="
  43.6938,353.64 51.7431,353.64 
  "/>
<polyline clip-path="url(#clip4900)" style="stroke:#000000; stroke-width:1; stroke-opacity:1; fill:none" points="
  43.6938,333.611 51.7431,333.611 
  "/>
<polyline clip-path="url(#clip4900)" style="stroke:#000000; stroke-width:1; stroke-opacity:1; fill:none" points="
  43.6938,313.581 51.7431,313.581 
  "/>
<g clip-path="url(#clip4900)">
<text style="fill:#000000; fill-opacity:1; font-family:Arial,Helvetica Neue,Helvetica,sans-serif; font-size:12; text-anchor:middle;" transform="rotate(0, 105.048, 389.669)" x="105.048" y="389.669">0.6</text>
</g>
<g clip-path="url(#clip4900)">
<text style="fill:#000000; fill-opacity:1; font-family:Arial,Helvetica Neue,Helvetica,sans-serif; font-size:12; text-anchor:middle;" transform="rotate(0, 232.406, 389.669)" x="232.406" y="389.669">0.8</text>
</g>
<g clip-path="url(#clip4900)">
<text style="fill:#000000; fill-opacity:1; font-family:Arial,Helvetica Neue,Helvetica,sans-serif; font-size:12; text-anchor:middle;" transform="rotate(0, 359.763, 389.669)" x="359.763" y="389.669">1.0</text>
</g>
<g clip-path="url(#clip4900)">
<text style="fill:#000000; fill-opacity:1; font-family:Arial,Helvetica Neue,Helvetica,sans-serif; font-size:12; text-anchor:middle;" transform="rotate(0, 487.121, 389.669)" x="487.121" y="389.669">1.2</text>
</g>
<g clip-path="url(#clip4900)">
<text style="fill:#000000; fill-opacity:1; font-family:Arial,Helvetica Neue,Helvetica,sans-serif; font-size:12; text-anchor:end;" transform="rotate(0, 37.6938, 378.169)" x="37.6938" y="378.169">0</text>
</g>
<g clip-path="url(#clip4900)">
<text style="fill:#000000; fill-opacity:1; font-family:Arial,Helvetica Neue,Helvetica,sans-serif; font-size:12; text-anchor:end;" transform="rotate(0, 37.6938, 358.14)" x="37.6938" y="358.14">50</text>
</g>
<g clip-path="url(#clip4900)">
<text style="fill:#000000; fill-opacity:1; font-family:Arial,Helvetica Neue,Helvetica,sans-serif; font-size:12; text-anchor:end;" transform="rotate(0, 37.6938, 338.111)" x="37.6938" y="338.111">100</text>
</g>
<g clip-path="url(#clip4900)">
<text style="fill:#000000; fill-opacity:1; font-family:Arial,Helvetica Neue,Helvetica,sans-serif; font-size:12; text-anchor:end;" transform="rotate(0, 37.6938, 318.081)" x="37.6938" y="318.081">150</text>
</g>
<g clip-path="url(#clip4900)">
<text style="fill:#000000; fill-opacity:1; font-family:Arial,Helvetica Neue,Helvetica,sans-serif; font-size:21; text-anchor:middle;" transform="rotate(0, 312.004, 284.667)" x="312.004" y="284.667">Restricted LS</text>
</g>
<polygon clip-path="url(#clip4904)" points="
73.2089,373.269 73.2089,373.669 105.048,373.669 105.048,373.269 73.2089,373.269 73.2089,373.269 
  " fill="#009af9" fill-opacity="1"/>
<polyline clip-path="url(#clip4904)" style="stroke:#000000; stroke-width:1; stroke-opacity:1; fill:none" points="
  73.2089,373.269 73.2089,373.669 105.048,373.669 105.048,373.269 73.2089,373.269 
  "/>
<polygon clip-path="url(#clip4904)" points="
105.048,373.269 105.048,373.669 136.888,373.669 136.888,373.269 105.048,373.269 105.048,373.269 
  " fill="#009af9" fill-opacity="1"/>
<polyline clip-path="url(#clip4904)" style="stroke:#000000; stroke-width:1; stroke-opacity:1; fill:none" points="
  105.048,373.269 105.048,373.669 136.888,373.669 136.888,373.269 105.048,373.269 
  "/>
<polygon clip-path="url(#clip4904)" points="
136.888,373.269 136.888,373.669 168.727,373.669 168.727,373.269 136.888,373.269 136.888,373.269 
  " fill="#009af9" fill-opacity="1"/>
<polyline clip-path="url(#clip4904)" style="stroke:#000000; stroke-width:1; stroke-opacity:1; fill:none" points="
  136.888,373.269 136.888,373.669 168.727,373.669 168.727,373.269 136.888,373.269 
  "/>
<polygon clip-path="url(#clip4904)" points="
168.727,372.067 168.727,373.669 200.566,373.669 200.566,372.067 168.727,372.067 168.727,372.067 
  " fill="#009af9" fill-opacity="1"/>
<polyline clip-path="url(#clip4904)" style="stroke:#000000; stroke-width:1; stroke-opacity:1; fill:none" points="
  168.727,372.067 168.727,373.669 200.566,373.669 200.566,372.067 168.727,372.067 
  "/>
<polygon clip-path="url(#clip4904)" points="
200.566,367.26 200.566,373.669 232.406,373.669 232.406,367.26 200.566,367.26 200.566,367.26 
  " fill="#009af9" fill-opacity="1"/>
<polyline clip-path="url(#clip4904)" style="stroke:#000000; stroke-width:1; stroke-opacity:1; fill:none" points="
  200.566,367.26 200.566,373.669 232.406,373.669 232.406,367.26 200.566,367.26 
  "/>
<polygon clip-path="url(#clip4904)" points="
232.406,358.447 232.406,373.669 264.245,373.669 264.245,358.447 232.406,358.447 232.406,358.447 
  " fill="#009af9" fill-opacity="1"/>
<polyline clip-path="url(#clip4904)" style="stroke:#000000; stroke-width:1; stroke-opacity:1; fill:none" points="
  232.406,358.447 232.406,373.669 264.245,373.669 264.245,358.447 232.406,358.447 
  "/>
<polygon clip-path="url(#clip4904)" points="
264.245,331.608 264.245,373.669 296.085,373.669 296.085,331.608 264.245,331.608 264.245,331.608 
  " fill="#009af9" fill-opacity="1"/>
<polyline clip-path="url(#clip4904)" style="stroke:#000000; stroke-width:1; stroke-opacity:1; fill:none" points="
  264.245,331.608 264.245,373.669 296.085,373.669 296.085,331.608 264.245,331.608 
  "/>
<polygon clip-path="url(#clip4904)" points="
296.085,318.388 296.085,373.669 327.924,373.669 327.924,318.388 296.085,318.388 296.085,318.388 
  " fill="#009af9" fill-opacity="1"/>
<polyline clip-path="url(#clip4904)" style="stroke:#000000; stroke-width:1; stroke-opacity:1; fill:none" points="
  296.085,318.388 296.085,373.669 327.924,373.669 327.924,318.388 296.085,318.388 
  "/>
<polygon clip-path="url(#clip4904)" points="
327.924,305.169 327.924,373.669 359.763,373.669 359.763,305.169 327.924,305.169 327.924,305.169 
  " fill="#009af9" fill-opacity="1"/>
<polyline clip-path="url(#clip4904)" style="stroke:#000000; stroke-width:1; stroke-opacity:1; fill:none" points="
  327.924,305.169 327.924,373.669 359.763,373.669 359.763,305.169 327.924,305.169 
  "/>
<polygon clip-path="url(#clip4904)" points="
359.763,300.362 359.763,373.669 391.603,373.669 391.603,300.362 359.763,300.362 359.763,300.362 
  " fill="#009af9" fill-opacity="1"/>
<polyline clip-path="url(#clip4904)" style="stroke:#000000; stroke-width:1; stroke-opacity:1; fill:none" points="
  359.763,300.362 359.763,373.669 391.603,373.669 391.603,300.362 359.763,300.362 
  "/>
<polygon clip-path="url(#clip4904)" points="
391.603,302.365 391.603,373.669 423.442,373.669 423.442,302.365 391.603,302.365 391.603,302.365 
  " fill="#009af9" fill-opacity="1"/>
<polyline clip-path="url(#clip4904)" style="stroke:#000000; stroke-width:1; stroke-opacity:1; fill:none" points="
  391.603,302.365 391.603,373.669 423.442,373.669 423.442,302.365 391.603,302.365 
  "/>
<polygon clip-path="url(#clip4904)" points="
423.442,334.011 423.442,373.669 455.282,373.669 455.282,334.011 423.442,334.011 423.442,334.011 
  " fill="#009af9" fill-opacity="1"/>
<polyline clip-path="url(#clip4904)" style="stroke:#000000; stroke-width:1; stroke-opacity:1; fill:none" points="
  423.442,334.011 423.442,373.669 455.282,373.669 455.282,334.011 423.442,334.011 
  "/>
<polygon clip-path="url(#clip4904)" points="
455.282,358.047 455.282,373.669 487.121,373.669 487.121,358.047 455.282,358.047 455.282,358.047 
  " fill="#009af9" fill-opacity="1"/>
<polyline clip-path="url(#clip4904)" style="stroke:#000000; stroke-width:1; stroke-opacity:1; fill:none" points="
  455.282,358.047 455.282,373.669 487.121,373.669 487.121,358.047 455.282,358.047 
  "/>
<polygon clip-path="url(#clip4904)" points="
487.121,365.257 487.121,373.669 518.96,373.669 518.96,365.257 487.121,365.257 487.121,365.257 
  " fill="#009af9" fill-opacity="1"/>
<polyline clip-path="url(#clip4904)" style="stroke:#000000; stroke-width:1; stroke-opacity:1; fill:none" points="
  487.121,365.257 487.121,373.669 518.96,373.669 518.96,365.257 487.121,365.257 
  "/>
<polygon clip-path="url(#clip4904)" points="
518.96,371.667 518.96,373.669 550.8,373.669 550.8,371.667 518.96,371.667 518.96,371.667 
  " fill="#009af9" fill-opacity="1"/>
<polyline clip-path="url(#clip4904)" style="stroke:#000000; stroke-width:1; stroke-opacity:1; fill:none" points="
  518.96,371.667 518.96,373.669 550.8,373.669 550.8,371.667 518.96,371.667 
  "/>
</svg>
