<?xml version="1.0" encoding="utf-8"?>
<svg xmlns="http://www.w3.org/2000/svg" xmlns:xlink="http://www.w3.org/1999/xlink" width="600" height="400" viewBox="0 0 600 400">
<defs>
  <clipPath id="clip8400">
    <rect x="0" y="0" width="600" height="400"/>
  </clipPath>
</defs>
<polygon clip-path="url(#clip8400)" points="
0,400 600,400 600,0 0,0 
  " fill="#ffffff" fill-opacity="1"/>
<defs>
  <clipPath id="clip8401">
    <rect x="120" y="0" width="421" height="400"/>
  </clipPath>
</defs>
<polygon clip-path="url(#clip8400)" points="
43.6938,375.869 280.315,375.869 280.315,31.4961 43.6938,31.4961 
  " fill="#ffffff" fill-opacity="1"/>
<defs>
  <clipPath id="clip8402">
    <rect x="43" y="31" width="238" height="345"/>
  </clipPath>
</defs>
<polyline clip-path="url(#clip8402)" style="stroke:#000000; stroke-width:0.5; stroke-opacity:0.1; fill:none" points="
  75.0207,375.869 75.0207,31.4961 
  "/>
<polyline clip-path="url(#clip8402)" style="stroke:#000000; stroke-width:0.5; stroke-opacity:0.1; fill:none" points="
  120.802,375.869 120.802,31.4961 
  "/>
<polyline clip-path="url(#clip8402)" style="stroke:#000000; stroke-width:0.5; stroke-opacity:0.1; fill:none" points="
  166.582,375.869 166.582,31.4961 
  "/>
<polyline clip-path="url(#clip8402)" style="stroke:#000000; stroke-width:0.5; stroke-opacity:0.1; fill:none" points="
  212.363,375.869 212.363,31.4961 
  "/>
<polyline clip-path="url(#clip8402)" style="stroke:#000000; stroke-width:0.5; stroke-opacity:0.1; fill:none" points="
  258.144,375.869 258.144,31.4961 
  "/>
<polyline clip-path="url(#clip8402)" style="stroke:#000000; stroke-width:0.5; stroke-opacity:0.1; fill:none" points="
  43.6938,366.122 280.315,366.122 
  "/>
<polyline clip-path="url(#clip8402)" style="stroke:#000000; stroke-width:0.5; stroke-opacity:0.1; fill:none" points="
  43.6938,287.268 280.315,287.268 
  "/>
<polyline clip-path="url(#clip8402)" style="stroke:#000000; stroke-width:0.5; stroke-opacity:0.1; fill:none" points="
  43.6938,208.414 280.315,208.414 
  "/>
<polyline clip-path="url(#clip8402)" style="stroke:#000000; stroke-width:0.5; stroke-opacity:0.1; fill:none" points="
  43.6938,129.559 280.315,129.559 
  "/>
<polyline clip-path="url(#clip8402)" style="stroke:#000000; stroke-width:0.5; stroke-opacity:0.1; fill:none" points="
  43.6938,50.705 280.315,50.705 
  "/>
<polyline clip-path="url(#clip8400)" style="stroke:#000000; stroke-width:1; stroke-opacity:1; fill:none" points="
  43.6938,375.869 280.315,375.869 
  "/>
<polyline clip-path="url(#clip8400)" style="stroke:#000000; stroke-width:1; stroke-opacity:1; fill:none" points="
  43.6938,375.869 43.6938,31.4961 
  "/>
<polyline clip-path="url(#clip8400)" style="stroke:#000000; stroke-width:1; stroke-opacity:1; fill:none" points="
  75.0207,375.869 75.0207,370.703 
  "/>
<polyline clip-path="url(#clip8400)" style="stroke:#000000; stroke-width:1; stroke-opacity:1; fill:none" points="
  120.802,375.869 120.802,370.703 
  "/>
<polyline clip-path="url(#clip8400)" style="stroke:#000000; stroke-width:1; stroke-opacity:1; fill:none" points="
  166.582,375.869 166.582,370.703 
  "/>
<polyline clip-path="url(#clip8400)" style="stroke:#000000; stroke-width:1; stroke-opacity:1; fill:none" points="
  212.363,375.869 212.363,370.703 
  "/>
<polyline clip-path="url(#clip8400)" style="stroke:#000000; stroke-width:1; stroke-opacity:1; fill:none" points="
  258.144,375.869 258.144,370.703 
  "/>
<polyline clip-path="url(#clip8400)" style="stroke:#000000; stroke-width:1; stroke-opacity:1; fill:none" points="
  43.6938,366.122 47.2431,366.122 
  "/>
<polyline clip-path="url(#clip8400)" style="stroke:#000000; stroke-width:1; stroke-opacity:1; fill:none" points="
  43.6938,287.268 47.2431,287.268 
  "/>
<polyline clip-path="url(#clip8400)" style="stroke:#000000; stroke-width:1; stroke-opacity:1; fill:none" points="
  43.6938,208.414 47.2431,208.414 
  "/>
<polyline clip-path="url(#clip8400)" style="stroke:#000000; stroke-width:1; stroke-opacity:1; fill:none" points="
  43.6938,129.559 47.2431,129.559 
  "/>
<polyline clip-path="url(#clip8400)" style="stroke:#000000; stroke-width:1; stroke-opacity:1; fill:none" points="
  43.6938,50.705 47.2431,50.705 
  "/>
<g clip-path="url(#clip8400)">
<text style="fill:#000000; fill-opacity:1; font-family:Arial,Helvetica Neue,Helvetica,sans-serif; font-size:12; text-anchor:middle;" transform="rotate(0, 75.0207, 389.669)" x="75.0207" y="389.669">-5.0</text>
</g>
<g clip-path="url(#clip8400)">
<text style="fill:#000000; fill-opacity:1; font-family:Arial,Helvetica Neue,Helvetica,sans-serif; font-size:12; text-anchor:middle;" transform="rotate(0, 120.802, 389.669)" x="120.802" y="389.669">-2.5</text>
</g>
<g clip-path="url(#clip8400)">
<text style="fill:#000000; fill-opacity:1; font-family:Arial,Helvetica Neue,Helvetica,sans-serif; font-size:12; text-anchor:middle;" transform="rotate(0, 166.582, 389.669)" x="166.582" y="389.669">0.0</text>
</g>
<g clip-path="url(#clip8400)">
<text style="fill:#000000; fill-opacity:1; font-family:Arial,Helvetica Neue,Helvetica,sans-serif; font-size:12; text-anchor:middle;" transform="rotate(0, 212.363, 389.669)" x="212.363" y="389.669">2.5</text>
</g>
<g clip-path="url(#clip8400)">
<text style="fill:#000000; fill-opacity:1; font-family:Arial,Helvetica Neue,Helvetica,sans-serif; font-size:12; text-anchor:middle;" transform="rotate(0, 258.144, 389.669)" x="258.144" y="389.669">5.0</text>
</g>
<g clip-path="url(#clip8400)">
<text style="fill:#000000; fill-opacity:1; font-family:Arial,Helvetica Neue,Helvetica,sans-serif; font-size:12; text-anchor:end;" transform="rotate(0, 37.6938, 370.622)" x="37.6938" y="370.622">0</text>
</g>
<g clip-path="url(#clip8400)">
<text style="fill:#000000; fill-opacity:1; font-family:Arial,Helvetica Neue,Helvetica,sans-serif; font-size:12; text-anchor:end;" transform="rotate(0, 37.6938, 291.768)" x="37.6938" y="291.768">25</text>
</g>
<g clip-path="url(#clip8400)">
<text style="fill:#000000; fill-opacity:1; font-family:Arial,Helvetica Neue,Helvetica,sans-serif; font-size:12; text-anchor:end;" transform="rotate(0, 37.6938, 212.914)" x="37.6938" y="212.914">50</text>
</g>
<g clip-path="url(#clip8400)">
<text style="fill:#000000; fill-opacity:1; font-family:Arial,Helvetica Neue,Helvetica,sans-serif; font-size:12; text-anchor:end;" transform="rotate(0, 37.6938, 134.059)" x="37.6938" y="134.059">75</text>
</g>
<g clip-path="url(#clip8400)">
<text style="fill:#000000; fill-opacity:1; font-family:Arial,Helvetica Neue,Helvetica,sans-serif; font-size:12; text-anchor:end;" transform="rotate(0, 37.6938, 55.205)" x="37.6938" y="55.205">100</text>
</g>
<g clip-path="url(#clip8400)">
<text style="fill:#000000; fill-opacity:1; font-family:Arial,Helvetica Neue,Helvetica,sans-serif; font-size:21; text-anchor:middle;" transform="rotate(0, 162.004, 18)" x="162.004" y="18">OLS</text>
</g>
<polygon clip-path="url(#clip8402)" points="
56.7084,359.814 56.7084,366.122 65.8646,366.122 65.8646,359.814 56.7084,359.814 56.7084,359.814 
  " fill="#009af9" fill-opacity="1"/>
<polyline clip-path="url(#clip8402)" style="stroke:#000000; stroke-width:1; stroke-opacity:1; fill:none" points="
  56.7084,359.814 56.7084,366.122 65.8646,366.122 65.8646,359.814 56.7084,359.814 
  "/>
<polygon clip-path="url(#clip8402)" points="
65.8646,353.506 65.8646,366.122 75.0207,366.122 75.0207,353.506 65.8646,353.506 65.8646,353.506 
  " fill="#009af9" fill-opacity="1"/>
<polyline clip-path="url(#clip8402)" style="stroke:#000000; stroke-width:1; stroke-opacity:1; fill:none" points="
  65.8646,353.506 65.8646,366.122 75.0207,366.122 75.0207,353.506 65.8646,353.506 
  "/>
<polygon clip-path="url(#clip8402)" points="
75.0207,353.506 75.0207,366.122 84.1769,366.122 84.1769,353.506 75.0207,353.506 75.0207,353.506 
  " fill="#009af9" fill-opacity="1"/>
<polyline clip-path="url(#clip8402)" style="stroke:#000000; stroke-width:1; stroke-opacity:1; fill:none" points="
  75.0207,353.506 75.0207,366.122 84.1769,366.122 84.1769,353.506 75.0207,353.506 
  "/>
<polygon clip-path="url(#clip8402)" points="
84.1769,344.043 84.1769,366.122 93.3331,366.122 93.3331,344.043 84.1769,344.043 84.1769,344.043 
  " fill="#009af9" fill-opacity="1"/>
<polyline clip-path="url(#clip8402)" style="stroke:#000000; stroke-width:1; stroke-opacity:1; fill:none" points="
  84.1769,344.043 84.1769,366.122 93.3331,366.122 93.3331,344.043 84.1769,344.043 
  "/>
<polygon clip-path="url(#clip8402)" points="
93.3331,325.118 93.3331,366.122 102.489,366.122 102.489,325.118 93.3331,325.118 93.3331,325.118 
  " fill="#009af9" fill-opacity="1"/>
<polyline clip-path="url(#clip8402)" style="stroke:#000000; stroke-width:1; stroke-opacity:1; fill:none" points="
  93.3331,325.118 93.3331,366.122 102.489,366.122 102.489,325.118 93.3331,325.118 
  "/>
<polygon clip-path="url(#clip8402)" points="
102.489,280.96 102.489,366.122 111.645,366.122 111.645,280.96 102.489,280.96 102.489,280.96 
  " fill="#009af9" fill-opacity="1"/>
<polyline clip-path="url(#clip8402)" style="stroke:#000000; stroke-width:1; stroke-opacity:1; fill:none" points="
  102.489,280.96 102.489,366.122 111.645,366.122 111.645,280.96 102.489,280.96 
  "/>
<polygon clip-path="url(#clip8402)" points="
111.645,284.114 111.645,366.122 120.802,366.122 120.802,284.114 111.645,284.114 111.645,284.114 
  " fill="#009af9" fill-opacity="1"/>
<polyline clip-path="url(#clip8402)" style="stroke:#000000; stroke-width:1; stroke-opacity:1; fill:none" points="
  111.645,284.114 111.645,366.122 120.802,366.122 120.802,284.114 111.645,284.114 
  "/>
<polygon clip-path="url(#clip8402)" points="
120.802,202.105 120.802,366.122 129.958,366.122 129.958,202.105 120.802,202.105 120.802,202.105 
  " fill="#009af9" fill-opacity="1"/>
<polyline clip-path="url(#clip8402)" style="stroke:#000000; stroke-width:1; stroke-opacity:1; fill:none" points="
  120.802,202.105 120.802,366.122 129.958,366.122 129.958,202.105 120.802,202.105 
  "/>
<polygon clip-path="url(#clip8402)" points="
129.958,176.872 129.958,366.122 139.114,366.122 139.114,176.872 129.958,176.872 129.958,176.872 
  " fill="#009af9" fill-opacity="1"/>
<polyline clip-path="url(#clip8402)" style="stroke:#000000; stroke-width:1; stroke-opacity:1; fill:none" points="
  129.958,176.872 129.958,366.122 139.114,366.122 139.114,176.872 129.958,176.872 
  "/>
<polygon clip-path="url(#clip8402)" points="
139.114,41.2425 139.114,366.122 148.27,366.122 148.27,41.2425 139.114,41.2425 139.114,41.2425 
  " fill="#009af9" fill-opacity="1"/>
<polyline clip-path="url(#clip8402)" style="stroke:#000000; stroke-width:1; stroke-opacity:1; fill:none" points="
  139.114,41.2425 139.114,366.122 148.27,366.122 148.27,41.2425 139.114,41.2425 
  "/>
<polygon clip-path="url(#clip8402)" points="
148.27,66.4758 148.27,366.122 157.426,366.122 157.426,66.4758 148.27,66.4758 148.27,66.4758 
  " fill="#009af9" fill-opacity="1"/>
<polyline clip-path="url(#clip8402)" style="stroke:#000000; stroke-width:1; stroke-opacity:1; fill:none" points="
  148.27,66.4758 148.27,366.122 157.426,366.122 157.426,66.4758 148.27,66.4758 
  "/>
<polygon clip-path="url(#clip8402)" points="
157.426,63.3217 157.426,366.122 166.582,366.122 166.582,63.3217 157.426,63.3217 157.426,63.3217 
  " fill="#009af9" fill-opacity="1"/>
<polyline clip-path="url(#clip8402)" style="stroke:#000000; stroke-width:1; stroke-opacity:1; fill:none" points="
  157.426,63.3217 157.426,366.122 166.582,366.122 166.582,63.3217 157.426,63.3217 
  "/>
<polygon clip-path="url(#clip8402)" points="
166.582,44.3966 166.582,366.122 175.739,366.122 175.739,44.3966 166.582,44.3966 166.582,44.3966 
  " fill="#009af9" fill-opacity="1"/>
<polyline clip-path="url(#clip8402)" style="stroke:#000000; stroke-width:1; stroke-opacity:1; fill:none" points="
  166.582,44.3966 166.582,366.122 175.739,366.122 175.739,44.3966 166.582,44.3966 
  "/>
<polygon clip-path="url(#clip8402)" points="
175.739,82.2467 175.739,366.122 184.895,366.122 184.895,82.2467 175.739,82.2467 175.739,82.2467 
  " fill="#009af9" fill-opacity="1"/>
<polyline clip-path="url(#clip8402)" style="stroke:#000000; stroke-width:1; stroke-opacity:1; fill:none" points="
  175.739,82.2467 175.739,366.122 184.895,366.122 184.895,82.2467 175.739,82.2467 
  "/>
<polygon clip-path="url(#clip8402)" points="
184.895,104.326 184.895,366.122 194.051,366.122 194.051,104.326 184.895,104.326 184.895,104.326 
  " fill="#009af9" fill-opacity="1"/>
<polyline clip-path="url(#clip8402)" style="stroke:#000000; stroke-width:1; stroke-opacity:1; fill:none" points="
  184.895,104.326 184.895,366.122 194.051,366.122 194.051,104.326 184.895,104.326 
  "/>
<polygon clip-path="url(#clip8402)" points="
194.051,154.793 194.051,366.122 203.207,366.122 203.207,154.793 194.051,154.793 194.051,154.793 
  " fill="#009af9" fill-opacity="1"/>
<polyline clip-path="url(#clip8402)" style="stroke:#000000; stroke-width:1; stroke-opacity:1; fill:none" points="
  194.051,154.793 194.051,366.122 203.207,366.122 203.207,154.793 194.051,154.793 
  "/>
<polygon clip-path="url(#clip8402)" points="
203.207,183.18 203.207,366.122 212.363,366.122 212.363,183.18 203.207,183.18 203.207,183.18 
  " fill="#009af9" fill-opacity="1"/>
<polyline clip-path="url(#clip8402)" style="stroke:#000000; stroke-width:1; stroke-opacity:1; fill:none" points="
  203.207,183.18 203.207,366.122 212.363,366.122 212.363,183.18 203.207,183.18 
  "/>
<polygon clip-path="url(#clip8402)" points="
212.363,252.572 212.363,366.122 221.52,366.122 221.52,252.572 212.363,252.572 212.363,252.572 
  " fill="#009af9" fill-opacity="1"/>
<polyline clip-path="url(#clip8402)" style="stroke:#000000; stroke-width:1; stroke-opacity:1; fill:none" points="
  212.363,252.572 212.363,366.122 221.52,366.122 221.52,252.572 212.363,252.572 
  "/>
<polygon clip-path="url(#clip8402)" points="
221.52,277.805 221.52,366.122 230.676,366.122 230.676,277.805 221.52,277.805 221.52,277.805 
  " fill="#009af9" fill-opacity="1"/>
<polyline clip-path="url(#clip8402)" style="stroke:#000000; stroke-width:1; stroke-opacity:1; fill:none" points="
  221.52,277.805 221.52,366.122 230.676,366.122 230.676,277.805 221.52,277.805 
  "/>
<polygon clip-path="url(#clip8402)" points="
230.676,309.347 230.676,366.122 239.832,366.122 239.832,309.347 230.676,309.347 230.676,309.347 
  " fill="#009af9" fill-opacity="1"/>
<polyline clip-path="url(#clip8402)" style="stroke:#000000; stroke-width:1; stroke-opacity:1; fill:none" points="
  230.676,309.347 230.676,366.122 239.832,366.122 239.832,309.347 230.676,309.347 
  "/>
<polygon clip-path="url(#clip8402)" points="
239.832,321.964 239.832,366.122 248.988,366.122 248.988,321.964 239.832,321.964 239.832,321.964 
  " fill="#009af9" fill-opacity="1"/>
<polyline clip-path="url(#clip8402)" style="stroke:#000000; stroke-width:1; stroke-opacity:1; fill:none" points="
  239.832,321.964 239.832,366.122 248.988,366.122 248.988,321.964 239.832,321.964 
  "/>
<polygon clip-path="url(#clip8402)" points="
248.988,344.043 248.988,366.122 258.144,366.122 258.144,344.043 248.988,344.043 248.988,344.043 
  " fill="#009af9" fill-opacity="1"/>
<polyline clip-path="url(#clip8402)" style="stroke:#000000; stroke-width:1; stroke-opacity:1; fill:none" points="
  248.988,344.043 248.988,366.122 258.144,366.122 258.144,344.043 248.988,344.043 
  "/>
<polygon clip-path="url(#clip8402)" points="
258.144,340.889 258.144,366.122 267.3,366.122 267.3,340.889 258.144,340.889 258.144,340.889 
  " fill="#009af9" fill-opacity="1"/>
<polyline clip-path="url(#clip8402)" style="stroke:#000000; stroke-width:1; stroke-opacity:1; fill:none" points="
  258.144,340.889 258.144,366.122 267.3,366.122 267.3,340.889 258.144,340.889 
  "/>
<polygon clip-path="url(#clip8400)" points="
343.694,375.869 580.315,375.869 580.315,31.4961 343.694,31.4961 
  " fill="#ffffff" fill-opacity="1"/>
<defs>
  <clipPath id="clip8403">
    <rect x="343" y="31" width="238" height="345"/>
  </clipPath>
</defs>
<polyline clip-path="url(#clip8403)" style="stroke:#000000; stroke-width:0.5; stroke-opacity:0.1; fill:none" points="
  356.708,375.869 356.708,31.4961 
  "/>
<polyline clip-path="url(#clip8403)" style="stroke:#000000; stroke-width:0.5; stroke-opacity:0.1; fill:none" points="
  409.356,375.869 409.356,31.4961 
  "/>
<polyline clip-path="url(#clip8403)" style="stroke:#000000; stroke-width:0.5; stroke-opacity:0.1; fill:none" points="
  462.004,375.869 462.004,31.4961 
  "/>
<polyline clip-path="url(#clip8403)" style="stroke:#000000; stroke-width:0.5; stroke-opacity:0.1; fill:none" points="
  514.652,375.869 514.652,31.4961 
  "/>
<polyline clip-path="url(#clip8403)" style="stroke:#000000; stroke-width:0.5; stroke-opacity:0.1; fill:none" points="
  567.3,375.869 567.3,31.4961 
  "/>
<polyline clip-path="url(#clip8403)" style="stroke:#000000; stroke-width:0.5; stroke-opacity:0.1; fill:none" points="
  343.694,366.122 580.315,366.122 
  "/>
<polyline clip-path="url(#clip8403)" style="stroke:#000000; stroke-width:0.5; stroke-opacity:0.1; fill:none" points="
  343.694,259.952 580.315,259.952 
  "/>
<polyline clip-path="url(#clip8403)" style="stroke:#000000; stroke-width:0.5; stroke-opacity:0.1; fill:none" points="
  343.694,153.783 580.315,153.783 
  "/>
<polyline clip-path="url(#clip8403)" style="stroke:#000000; stroke-width:0.5; stroke-opacity:0.1; fill:none" points="
  343.694,47.6127 580.315,47.6127 
  "/>
<polyline clip-path="url(#clip8400)" style="stroke:#000000; stroke-width:1; stroke-opacity:1; fill:none" points="
  343.694,375.869 580.315,375.869 
  "/>
<polyline clip-path="url(#clip8400)" style="stroke:#000000; stroke-width:1; stroke-opacity:1; fill:none" points="
  343.694,375.869 343.694,31.4961 
  "/>
<polyline clip-path="url(#clip8400)" style="stroke:#000000; stroke-width:1; stroke-opacity:1; fill:none" points="
  356.708,375.869 356.708,370.703 
  "/>
<polyline clip-path="url(#clip8400)" style="stroke:#000000; stroke-width:1; stroke-opacity:1; fill:none" points="
  409.356,375.869 409.356,370.703 
  "/>
<polyline clip-path="url(#clip8400)" style="stroke:#000000; stroke-width:1; stroke-opacity:1; fill:none" points="
  462.004,375.869 462.004,370.703 
  "/>
<polyline clip-path="url(#clip8400)" style="stroke:#000000; stroke-width:1; stroke-opacity:1; fill:none" points="
  514.652,375.869 514.652,370.703 
  "/>
<polyline clip-path="url(#clip8400)" style="stroke:#000000; stroke-width:1; stroke-opacity:1; fill:none" points="
  567.3,375.869 567.3,370.703 
  "/>
<polyline clip-path="url(#clip8400)" style="stroke:#000000; stroke-width:1; stroke-opacity:1; fill:none" points="
  343.694,366.122 347.243,366.122 
  "/>
<polyline clip-path="url(#clip8400)" style="stroke:#000000; stroke-width:1; stroke-opacity:1; fill:none" points="
  343.694,259.952 347.243,259.952 
  "/>
<polyline clip-path="url(#clip8400)" style="stroke:#000000; stroke-width:1; stroke-opacity:1; fill:none" points="
  343.694,153.783 347.243,153.783 
  "/>
<polyline clip-path="url(#clip8400)" style="stroke:#000000; stroke-width:1; stroke-opacity:1; fill:none" points="
  343.694,47.6127 347.243,47.6127 
  "/>
<g clip-path="url(#clip8400)">
<text style="fill:#000000; fill-opacity:1; font-family:Arial,Helvetica Neue,Helvetica,sans-serif; font-size:12; text-anchor:middle;" transform="rotate(0, 356.708, 389.669)" x="356.708" y="389.669">-1.0</text>
</g>
<g clip-path="url(#clip8400)">
<text style="fill:#000000; fill-opacity:1; font-family:Arial,Helvetica Neue,Helvetica,sans-serif; font-size:12; text-anchor:middle;" transform="rotate(0, 409.356, 389.669)" x="409.356" y="389.669">-0.5</text>
</g>
<g clip-path="url(#clip8400)">
<text style="fill:#000000; fill-opacity:1; font-family:Arial,Helvetica Neue,Helvetica,sans-serif; font-size:12; text-anchor:middle;" transform="rotate(0, 462.004, 389.669)" x="462.004" y="389.669">0.0</text>
</g>
<g clip-path="url(#clip8400)">
<text style="fill:#000000; fill-opacity:1; font-family:Arial,Helvetica Neue,Helvetica,sans-serif; font-size:12; text-anchor:middle;" transform="rotate(0, 514.652, 389.669)" x="514.652" y="389.669">0.5</text>
</g>
<g clip-path="url(#clip8400)">
<text style="fill:#000000; fill-opacity:1; font-family:Arial,Helvetica Neue,Helvetica,sans-serif; font-size:12; text-anchor:middle;" transform="rotate(0, 567.3, 389.669)" x="567.3" y="389.669">1.0</text>
</g>
<g clip-path="url(#clip8400)">
<text style="fill:#000000; fill-opacity:1; font-family:Arial,Helvetica Neue,Helvetica,sans-serif; font-size:12; text-anchor:end;" transform="rotate(0, 337.694, 370.622)" x="337.694" y="370.622">0</text>
</g>
<g clip-path="url(#clip8400)">
<text style="fill:#000000; fill-opacity:1; font-family:Arial,Helvetica Neue,Helvetica,sans-serif; font-size:12; text-anchor:end;" transform="rotate(0, 337.694, 264.452)" x="337.694" y="264.452">50</text>
</g>
<g clip-path="url(#clip8400)">
<text style="fill:#000000; fill-opacity:1; font-family:Arial,Helvetica Neue,Helvetica,sans-serif; font-size:12; text-anchor:end;" transform="rotate(0, 337.694, 158.283)" x="337.694" y="158.283">100</text>
</g>
<g clip-path="url(#clip8400)">
<text style="fill:#000000; fill-opacity:1; font-family:Arial,Helvetica Neue,Helvetica,sans-serif; font-size:12; text-anchor:end;" transform="rotate(0, 337.694, 52.1127)" x="337.694" y="52.1127">150</text>
</g>
<g clip-path="url(#clip8400)">
<text style="fill:#000000; fill-opacity:1; font-family:Arial,Helvetica Neue,Helvetica,sans-serif; font-size:21; text-anchor:middle;" transform="rotate(0, 462.004, 18)" x="462.004" y="18">Ridge</text>
</g>
<polygon clip-path="url(#clip8403)" points="
356.708,363.999 356.708,366.122 367.238,366.122 367.238,363.999 356.708,363.999 356.708,363.999 
  " fill="#009af9" fill-opacity="1"/>
<polyline clip-path="url(#clip8403)" style="stroke:#000000; stroke-width:1; stroke-opacity:1; fill:none" points="
  356.708,363.999 356.708,366.122 367.238,366.122 367.238,363.999 356.708,363.999 
  "/>
<polygon clip-path="url(#clip8403)" points="
367.238,366.122 367.238,366.122 377.768,366.122 377.768,366.122 367.238,366.122 367.238,366.122 
  " fill="#009af9" fill-opacity="1"/>
<polyline clip-path="url(#clip8403)" style="stroke:#000000; stroke-width:1; stroke-opacity:1; fill:none" points="
  367.238,366.122 367.238,366.122 377.768,366.122 367.238,366.122 
  "/>
<polygon clip-path="url(#clip8403)" points="
377.768,357.629 377.768,366.122 388.297,366.122 388.297,357.629 377.768,357.629 377.768,357.629 
  " fill="#009af9" fill-opacity="1"/>
<polyline clip-path="url(#clip8403)" style="stroke:#000000; stroke-width:1; stroke-opacity:1; fill:none" points="
  377.768,357.629 377.768,366.122 388.297,366.122 388.297,357.629 377.768,357.629 
  "/>
<polygon clip-path="url(#clip8403)" points="
388.297,347.012 388.297,366.122 398.827,366.122 398.827,347.012 388.297,347.012 388.297,347.012 
  " fill="#009af9" fill-opacity="1"/>
<polyline clip-path="url(#clip8403)" style="stroke:#000000; stroke-width:1; stroke-opacity:1; fill:none" points="
  388.297,347.012 388.297,366.122 398.827,366.122 398.827,347.012 388.297,347.012 
  "/>
<polygon clip-path="url(#clip8403)" points="
398.827,323.654 398.827,366.122 409.356,366.122 409.356,323.654 398.827,323.654 398.827,323.654 
  " fill="#009af9" fill-opacity="1"/>
<polyline clip-path="url(#clip8403)" style="stroke:#000000; stroke-width:1; stroke-opacity:1; fill:none" points="
  398.827,323.654 398.827,366.122 409.356,366.122 409.356,323.654 398.827,323.654 
  "/>
<polygon clip-path="url(#clip8403)" points="
409.356,291.803 409.356,366.122 419.886,366.122 419.886,291.803 409.356,291.803 409.356,291.803 
  " fill="#009af9" fill-opacity="1"/>
<polyline clip-path="url(#clip8403)" style="stroke:#000000; stroke-width:1; stroke-opacity:1; fill:none" points="
  409.356,291.803 409.356,366.122 419.886,366.122 419.886,291.803 409.356,291.803 
  "/>
<polygon clip-path="url(#clip8403)" points="
419.886,264.199 419.886,366.122 430.416,366.122 430.416,264.199 419.886,264.199 419.886,264.199 
  " fill="#009af9" fill-opacity="1"/>
<polyline clip-path="url(#clip8403)" style="stroke:#000000; stroke-width:1; stroke-opacity:1; fill:none" points="
  419.886,264.199 419.886,366.122 430.416,366.122 430.416,264.199 419.886,264.199 
  "/>
<polygon clip-path="url(#clip8403)" points="
430.416,160.153 430.416,366.122 440.945,366.122 440.945,160.153 430.416,160.153 430.416,160.153 
  " fill="#009af9" fill-opacity="1"/>
<polyline clip-path="url(#clip8403)" style="stroke:#000000; stroke-width:1; stroke-opacity:1; fill:none" points="
  430.416,160.153 430.416,366.122 440.945,366.122 440.945,160.153 430.416,160.153 
  "/>
<polygon clip-path="url(#clip8403)" points="
440.945,85.8338 440.945,366.122 451.475,366.122 451.475,85.8338 440.945,85.8338 440.945,85.8338 
  " fill="#009af9" fill-opacity="1"/>
<polyline clip-path="url(#clip8403)" style="stroke:#000000; stroke-width:1; stroke-opacity:1; fill:none" points="
  440.945,85.8338 440.945,366.122 451.475,366.122 451.475,85.8338 440.945,85.8338 
  "/>
<polygon clip-path="url(#clip8403)" points="
451.475,41.2425 451.475,366.122 462.004,366.122 462.004,41.2425 451.475,41.2425 451.475,41.2425 
  " fill="#009af9" fill-opacity="1"/>
<polyline clip-path="url(#clip8403)" style="stroke:#000000; stroke-width:1; stroke-opacity:1; fill:none" points="
  451.475,41.2425 451.475,366.122 462.004,366.122 462.004,41.2425 451.475,41.2425 
  "/>
<polygon clip-path="url(#clip8403)" points="
462.004,43.3659 462.004,366.122 472.534,366.122 472.534,43.3659 462.004,43.3659 462.004,43.3659 
  " fill="#009af9" fill-opacity="1"/>
<polyline clip-path="url(#clip8403)" style="stroke:#000000; stroke-width:1; stroke-opacity:1; fill:none" points="
  462.004,43.3659 462.004,366.122 472.534,366.122 472.534,43.3659 462.004,43.3659 
  "/>
<polygon clip-path="url(#clip8403)" points="
472.534,141.042 472.534,366.122 483.064,366.122 483.064,141.042 472.534,141.042 472.534,141.042 
  " fill="#009af9" fill-opacity="1"/>
<polyline clip-path="url(#clip8403)" style="stroke:#000000; stroke-width:1; stroke-opacity:1; fill:none" points="
  472.534,141.042 472.534,366.122 483.064,366.122 483.064,141.042 472.534,141.042 
  "/>
<polygon clip-path="url(#clip8403)" points="
483.064,189.88 483.064,366.122 493.593,366.122 493.593,189.88 483.064,189.88 483.064,189.88 
  " fill="#009af9" fill-opacity="1"/>
<polyline clip-path="url(#clip8403)" style="stroke:#000000; stroke-width:1; stroke-opacity:1; fill:none" points="
  483.064,189.88 483.064,366.122 493.593,366.122 493.593,189.88 483.064,189.88 
  "/>
<polygon clip-path="url(#clip8403)" points="
493.593,192.004 493.593,366.122 504.123,366.122 504.123,192.004 493.593,192.004 493.593,192.004 
  " fill="#009af9" fill-opacity="1"/>
<polyline clip-path="url(#clip8403)" style="stroke:#000000; stroke-width:1; stroke-opacity:1; fill:none" points="
  493.593,192.004 493.593,366.122 504.123,366.122 504.123,192.004 493.593,192.004 
  "/>
<polygon clip-path="url(#clip8403)" points="
504.123,270.569 504.123,366.122 514.652,366.122 514.652,270.569 504.123,270.569 504.123,270.569 
  " fill="#009af9" fill-opacity="1"/>
<polyline clip-path="url(#clip8403)" style="stroke:#000000; stroke-width:1; stroke-opacity:1; fill:none" points="
  504.123,270.569 504.123,366.122 514.652,366.122 514.652,270.569 504.123,270.569 
  "/>
<polygon clip-path="url(#clip8403)" points="
514.652,319.408 514.652,366.122 525.182,366.122 525.182,319.408 514.652,319.408 514.652,319.408 
  " fill="#009af9" fill-opacity="1"/>
<polyline clip-path="url(#clip8403)" style="stroke:#000000; stroke-width:1; stroke-opacity:1; fill:none" points="
  514.652,319.408 514.652,366.122 525.182,366.122 525.182,319.408 514.652,319.408 
  "/>
<polygon clip-path="url(#clip8403)" points="
525.182,349.135 525.182,366.122 535.712,366.122 535.712,349.135 525.182,349.135 525.182,349.135 
  " fill="#009af9" fill-opacity="1"/>
<polyline clip-path="url(#clip8403)" style="stroke:#000000; stroke-width:1; stroke-opacity:1; fill:none" points="
  525.182,349.135 525.182,366.122 535.712,366.122 535.712,349.135 525.182,349.135 
  "/>
<polygon clip-path="url(#clip8403)" points="
535.712,361.875 535.712,366.122 546.241,366.122 546.241,361.875 535.712,361.875 535.712,361.875 
  " fill="#009af9" fill-opacity="1"/>
<polyline clip-path="url(#clip8403)" style="stroke:#000000; stroke-width:1; stroke-opacity:1; fill:none" points="
  535.712,361.875 535.712,366.122 546.241,366.122 546.241,361.875 535.712,361.875 
  "/>
<polygon clip-path="url(#clip8403)" points="
546.241,366.122 546.241,366.122 556.771,366.122 556.771,366.122 546.241,366.122 546.241,366.122 
  " fill="#009af9" fill-opacity="1"/>
<polyline clip-path="url(#clip8403)" style="stroke:#000000; stroke-width:1; stroke-opacity:1; fill:none" points="
  546.241,366.122 546.241,366.122 556.771,366.122 546.241,366.122 
  "/>
<polygon clip-path="url(#clip8403)" points="
556.771,363.999 556.771,366.122 567.3,366.122 567.3,363.999 556.771,363.999 556.771,363.999 
  " fill="#009af9" fill-opacity="1"/>
<polyline clip-path="url(#clip8403)" style="stroke:#000000; stroke-width:1; stroke-opacity:1; fill:none" points="
  556.771,363.999 556.771,366.122 567.3,366.122 567.3,363.999 556.771,363.999 
  "/>
</svg>
