<?xml version="1.0" encoding="utf-8" standalone="no"?>
<!DOCTYPE svg PUBLIC "-//W3C//DTD SVG 1.1//EN"
  "http://www.w3.org/Graphics/SVG/1.1/DTD/svg11.dtd">
<!-- Created with matplotlib (http://matplotlib.org/) -->
<svg height="288pt" version="1.1" viewBox="0 0 432 288" width="432pt" xmlns="http://www.w3.org/2000/svg" xmlns:xlink="http://www.w3.org/1999/xlink">
 <defs>
  <style type="text/css">
*{stroke-linecap:butt;stroke-linejoin:round;}
  </style>
 </defs>
 <g id="figure_1">
  <g id="patch_1">
   <path d="M 0 288 
L 432 288 
L 432 0 
L 0 0 
z
" style="fill:#ffffff;"/>
  </g>
  <g id="axes_1">
   <g id="patch_2">
    <path d="M 20.454646 273.485354 
L 429.165354 273.485354 
L 429.165354 2.834646 
L 20.454646 2.834646 
z
" style="fill:#ffffff;"/>
   </g>
   <g id="matplotlib.axis_1">
    <g id="xtick_1">
     <g id="line2d_1">
      <path clip-path="url(#p4a64d7ec7f)" d="M 32.02193 273.485354 
L 32.02193 2.834646 
" style="fill:none;opacity:0.1;stroke:#000000;stroke-linecap:square;stroke-width:0.5;"/>
     </g>
     <g id="line2d_2">
      <defs>
       <path d="M 0 0 
L 0 3.5 
" id="md516c755b1" style="stroke:#000000;stroke-width:0.8;"/>
      </defs>
      <g>
       <use style="stroke:#000000;stroke-width:0.8;" x="32.02193" xlink:href="#md516c755b1" y="273.485354"/>
      </g>
     </g>
     <g id="text_1">
      <!-- 0 -->
      <defs>
       <path d="M 31.78125 66.40625 
Q 24.171875 66.40625 20.328125 58.90625 
Q 16.5 51.421875 16.5 36.375 
Q 16.5 21.390625 20.328125 13.890625 
Q 24.171875 6.390625 31.78125 6.390625 
Q 39.453125 6.390625 43.28125 13.890625 
Q 47.125 21.390625 47.125 36.375 
Q 47.125 51.421875 43.28125 58.90625 
Q 39.453125 66.40625 31.78125 66.40625 
z
M 31.78125 74.21875 
Q 44.046875 74.21875 50.515625 64.515625 
Q 56.984375 54.828125 56.984375 36.375 
Q 56.984375 17.96875 50.515625 8.265625 
Q 44.046875 -1.421875 31.78125 -1.421875 
Q 19.53125 -1.421875 13.0625 8.265625 
Q 6.59375 17.96875 6.59375 36.375 
Q 6.59375 54.828125 13.0625 64.515625 
Q 19.53125 74.21875 31.78125 74.21875 
z
" id="DejaVuSans-30"/>
      </defs>
      <g transform="translate(29.47693 286.564104)scale(0.08 -0.08)">
       <use xlink:href="#DejaVuSans-30"/>
      </g>
     </g>
    </g>
    <g id="xtick_2">
     <g id="line2d_3">
      <path clip-path="url(#p4a64d7ec7f)" d="M 224.81 273.485354 
L 224.81 2.834646 
" style="fill:none;opacity:0.1;stroke:#000000;stroke-linecap:square;stroke-width:0.5;"/>
     </g>
     <g id="line2d_4">
      <g>
       <use style="stroke:#000000;stroke-width:0.8;" x="224.81" xlink:href="#md516c755b1" y="273.485354"/>
      </g>
     </g>
     <g id="text_2">
      <!-- 5 -->
      <defs>
       <path d="M 10.796875 72.90625 
L 49.515625 72.90625 
L 49.515625 64.59375 
L 19.828125 64.59375 
L 19.828125 46.734375 
Q 21.96875 47.46875 24.109375 47.828125 
Q 26.265625 48.1875 28.421875 48.1875 
Q 40.625 48.1875 47.75 41.5 
Q 54.890625 34.8125 54.890625 23.390625 
Q 54.890625 11.625 47.5625 5.09375 
Q 40.234375 -1.421875 26.90625 -1.421875 
Q 22.3125 -1.421875 17.546875 -0.640625 
Q 12.796875 0.140625 7.71875 1.703125 
L 7.71875 11.625 
Q 12.109375 9.234375 16.796875 8.0625 
Q 21.484375 6.890625 26.703125 6.890625 
Q 35.15625 6.890625 40.078125 11.328125 
Q 45.015625 15.765625 45.015625 23.390625 
Q 45.015625 31 40.078125 35.4375 
Q 35.15625 39.890625 26.703125 39.890625 
Q 22.75 39.890625 18.8125 39.015625 
Q 14.890625 38.140625 10.796875 36.28125 
z
" id="DejaVuSans-35"/>
      </defs>
      <g transform="translate(222.265 286.564104)scale(0.08 -0.08)">
       <use xlink:href="#DejaVuSans-35"/>
      </g>
     </g>
    </g>
    <g id="xtick_3">
     <g id="line2d_5">
      <path clip-path="url(#p4a64d7ec7f)" d="M 417.59807 273.485354 
L 417.59807 2.834646 
" style="fill:none;opacity:0.1;stroke:#000000;stroke-linecap:square;stroke-width:0.5;"/>
     </g>
     <g id="line2d_6">
      <g>
       <use style="stroke:#000000;stroke-width:0.8;" x="417.59807" xlink:href="#md516c755b1" y="273.485354"/>
      </g>
     </g>
     <g id="text_3">
      <!-- 10 -->
      <defs>
       <path d="M 12.40625 8.296875 
L 28.515625 8.296875 
L 28.515625 63.921875 
L 10.984375 60.40625 
L 10.984375 69.390625 
L 28.421875 72.90625 
L 38.28125 72.90625 
L 38.28125 8.296875 
L 54.390625 8.296875 
L 54.390625 0 
L 12.40625 0 
z
" id="DejaVuSans-31"/>
      </defs>
      <g transform="translate(412.50807 286.564104)scale(0.08 -0.08)">
       <use xlink:href="#DejaVuSans-31"/>
       <use x="63.623047" xlink:href="#DejaVuSans-30"/>
      </g>
     </g>
    </g>
   </g>
   <g id="matplotlib.axis_2">
    <g id="ytick_1">
     <g id="line2d_7">
      <path clip-path="url(#p4a64d7ec7f)" d="M 20.454646 256.142625 
L 429.165354 256.142625 
" style="fill:none;opacity:0.1;stroke:#000000;stroke-linecap:square;stroke-width:0.5;"/>
     </g>
     <g id="line2d_8">
      <defs>
       <path d="M 0 0 
L -3.5 0 
" id="m6c19dae820" style="stroke:#000000;stroke-width:0.8;"/>
      </defs>
      <g>
       <use style="stroke:#000000;stroke-width:0.8;" x="20.454646" xlink:href="#m6c19dae820" y="256.142625"/>
      </g>
     </g>
     <g id="text_4">
      <!-- -10 -->
      <defs>
       <path d="M 4.890625 31.390625 
L 31.203125 31.390625 
L 31.203125 23.390625 
L 4.890625 23.390625 
z
" id="DejaVuSans-2d"/>
      </defs>
      <g transform="translate(0.388396 259.182)scale(0.08 -0.08)">
       <use xlink:href="#DejaVuSans-2d"/>
       <use x="36.083984" xlink:href="#DejaVuSans-31"/>
       <use x="99.707031" xlink:href="#DejaVuSans-30"/>
      </g>
     </g>
    </g>
    <g id="ytick_2">
     <g id="line2d_9">
      <path clip-path="url(#p4a64d7ec7f)" d="M 20.454646 169.195266 
L 429.165354 169.195266 
" style="fill:none;opacity:0.1;stroke:#000000;stroke-linecap:square;stroke-width:0.5;"/>
     </g>
     <g id="line2d_10">
      <g>
       <use style="stroke:#000000;stroke-width:0.8;" x="20.454646" xlink:href="#m6c19dae820" y="169.195266"/>
      </g>
     </g>
     <g id="text_5">
      <!-- 0 -->
      <g transform="translate(8.364646 172.234641)scale(0.08 -0.08)">
       <use xlink:href="#DejaVuSans-30"/>
      </g>
     </g>
    </g>
    <g id="ytick_3">
     <g id="line2d_11">
      <path clip-path="url(#p4a64d7ec7f)" d="M 20.454646 82.247908 
L 429.165354 82.247908 
" style="fill:none;opacity:0.1;stroke:#000000;stroke-linecap:square;stroke-width:0.5;"/>
     </g>
     <g id="line2d_12">
      <g>
       <use style="stroke:#000000;stroke-width:0.8;" x="20.454646" xlink:href="#m6c19dae820" y="82.247908"/>
      </g>
     </g>
     <g id="text_6">
      <!-- 10 -->
      <g transform="translate(3.274646 85.287283)scale(0.08 -0.08)">
       <use xlink:href="#DejaVuSans-31"/>
       <use x="63.623047" xlink:href="#DejaVuSans-30"/>
      </g>
     </g>
    </g>
   </g>
   <g id="PathCollection_1">
    <defs>
     <path d="M 0 2 
C 0.530406 2 1.03916 1.789267 1.414214 1.414214 
C 1.789267 1.03916 2 0.530406 2 0 
C 2 -0.530406 1.789267 -1.03916 1.414214 -1.414214 
C 1.03916 -1.789267 0.530406 -2 0 -2 
C -0.530406 -2 -1.03916 -1.789267 -1.414214 -1.414214 
C -1.789267 -1.03916 -2 -0.530406 -2 0 
C -2 0.530406 -1.789267 1.03916 -1.414214 1.414214 
C -1.03916 1.789267 -0.530406 2 0 2 
z
" id="ma069501d95" style="stroke:#000000;"/>
    </defs>
    <g clip-path="url(#p4a64d7ec7f)">
     <use style="fill:#009afa;stroke:#000000;" x="228.74291" xlink:href="#ma069501d95" y="97.159322"/>
     <use style="fill:#009afa;stroke:#000000;" x="270.797693" xlink:href="#ma069501d95" y="58.613363"/>
     <use style="fill:#009afa;stroke:#000000;" x="246.876447" xlink:href="#ma069501d95" y="131.587972"/>
     <use style="fill:#009afa;stroke:#000000;" x="85.024416" xlink:href="#ma069501d95" y="164.216292"/>
     <use style="fill:#009afa;stroke:#000000;" x="200.765246" xlink:href="#ma069501d95" y="184.044518"/>
     <use style="fill:#009afa;stroke:#000000;" x="110.630162" xlink:href="#ma069501d95" y="241.822922"/>
     <use style="fill:#009afa;stroke:#000000;" x="195.121702" xlink:href="#ma069501d95" y="162.420285"/>
     <use style="fill:#009afa;stroke:#000000;" x="246.826984" xlink:href="#ma069501d95" y="119.837275"/>
     <use style="fill:#009afa;stroke:#000000;" x="156.774318" xlink:href="#ma069501d95" y="148.664647"/>
     <use style="fill:#009afa;stroke:#000000;" x="389.917795" xlink:href="#ma069501d95" y="54.121411"/>
     <use style="fill:#009afa;stroke:#000000;" x="324.502753" xlink:href="#ma069501d95" y="12.022235"/>
     <use style="fill:#009afa;stroke:#000000;" x="128.374559" xlink:href="#ma069501d95" y="120.042635"/>
     <use style="fill:#009afa;stroke:#000000;" x="232.186934" xlink:href="#ma069501d95" y="79.542775"/>
     <use style="fill:#009afa;stroke:#000000;" x="71.666359" xlink:href="#ma069501d95" y="220.822031"/>
     <use style="fill:#009afa;stroke:#000000;" x="327.10781" xlink:href="#ma069501d95" y="144.25734"/>
     <use style="fill:#009afa;stroke:#000000;" x="65.487204" xlink:href="#ma069501d95" y="33.57749"/>
     <use style="fill:#009afa;stroke:#000000;" x="278.83211" xlink:href="#ma069501d95" y="127.170447"/>
     <use style="fill:#009afa;stroke:#000000;" x="82.397802" xlink:href="#ma069501d95" y="265.825429"/>
     <use style="fill:#009afa;stroke:#000000;" x="264.049507" xlink:href="#ma069501d95" y="58.588292"/>
     <use style="fill:#009afa;stroke:#000000;" x="342.886156" xlink:href="#ma069501d95" y="80.073412"/>
     <use style="fill:#009afa;stroke:#000000;" x="152.691046" xlink:href="#ma069501d95" y="136.569384"/>
     <use style="fill:#009afa;stroke:#000000;" x="404.194428" xlink:href="#ma069501d95" y="114.25071"/>
     <use style="fill:#009afa;stroke:#000000;" x="255.801848" xlink:href="#ma069501d95" y="64.844268"/>
     <use style="fill:#009afa;stroke:#000000;" x="61.265766" xlink:href="#ma069501d95" y="181.762533"/>
     <use style="fill:#009afa;stroke:#000000;" x="374.566681" xlink:href="#ma069501d95" y="59.860792"/>
     <use style="fill:#009afa;stroke:#000000;" x="201.437354" xlink:href="#ma069501d95" y="158.485805"/>
     <use style="fill:#009afa;stroke:#000000;" x="357.634418" xlink:href="#ma069501d95" y="96.412303"/>
     <use style="fill:#009afa;stroke:#000000;" x="144.952121" xlink:href="#ma069501d95" y="49.973572"/>
     <use style="fill:#009afa;stroke:#000000;" x="286.066957" xlink:href="#ma069501d95" y="110.958773"/>
     <use style="fill:#009afa;stroke:#000000;" x="103.592655" xlink:href="#ma069501d95" y="178.265569"/>
     <use style="fill:#009afa;stroke:#000000;" x="318.240056" xlink:href="#ma069501d95" y="58.933864"/>
     <use style="fill:#009afa;stroke:#000000;" x="384.961158" xlink:href="#ma069501d95" y="62.853458"/>
     <use style="fill:#009afa;stroke:#000000;" x="41.779397" xlink:href="#ma069501d95" y="186.904138"/>
     <use style="fill:#009afa;stroke:#000000;" x="254.125973" xlink:href="#ma069501d95" y="160.460646"/>
     <use style="fill:#009afa;stroke:#000000;" x="219.311348" xlink:href="#ma069501d95" y="81.60628"/>
     <use style="fill:#009afa;stroke:#000000;" x="160.598204" xlink:href="#ma069501d95" y="125.799074"/>
     <use style="fill:#009afa;stroke:#000000;" x="267.773734" xlink:href="#ma069501d95" y="180.288023"/>
     <use style="fill:#009afa;stroke:#000000;" x="401.734176" xlink:href="#ma069501d95" y="76.429993"/>
     <use style="fill:#009afa;stroke:#000000;" x="232.996926" xlink:href="#ma069501d95" y="155.367895"/>
     <use style="fill:#009afa;stroke:#000000;" x="206.732055" xlink:href="#ma069501d95" y="145.167562"/>
     <use style="fill:#009afa;stroke:#000000;" x="320.078379" xlink:href="#ma069501d95" y="78.443374"/>
     <use style="fill:#009afa;stroke:#000000;" x="118.380952" xlink:href="#ma069501d95" y="170.690929"/>
     <use style="fill:#009afa;stroke:#000000;" x="216.374443" xlink:href="#ma069501d95" y="157.726054"/>
     <use style="fill:#009afa;stroke:#000000;" x="166.012045" xlink:href="#ma069501d95" y="188.052365"/>
     <use style="fill:#009afa;stroke:#000000;" x="317.866711" xlink:href="#ma069501d95" y="50.347836"/>
     <use style="fill:#009afa;stroke:#000000;" x="60.649488" xlink:href="#ma069501d95" y="194.159311"/>
     <use style="fill:#009afa;stroke:#000000;" x="413.18281" xlink:href="#ma069501d95" y="113.911745"/>
     <use style="fill:#009afa;stroke:#000000;" x="82.793004" xlink:href="#ma069501d95" y="225.386651"/>
     <use style="fill:#009afa;stroke:#000000;" x="383.451217" xlink:href="#ma069501d95" y="59.495635"/>
     <use style="fill:#009afa;stroke:#000000;" x="378.784896" xlink:href="#ma069501d95" y="33.58072"/>
     <use style="fill:#009afa;stroke:#000000;" x="249.815046" xlink:href="#ma069501d95" y="148.846333"/>
     <use style="fill:#009afa;stroke:#000000;" x="75.074399" xlink:href="#ma069501d95" y="192.227236"/>
     <use style="fill:#009afa;stroke:#000000;" x="238.45271" xlink:href="#ma069501d95" y="113.830164"/>
     <use style="fill:#009afa;stroke:#000000;" x="126.371418" xlink:href="#ma069501d95" y="179.995709"/>
     <use style="fill:#009afa;stroke:#000000;" x="241.115623" xlink:href="#ma069501d95" y="123.753144"/>
     <use style="fill:#009afa;stroke:#000000;" x="129.598506" xlink:href="#ma069501d95" y="120.347606"/>
     <use style="fill:#009afa;stroke:#000000;" x="311.840489" xlink:href="#ma069501d95" y="108.488467"/>
     <use style="fill:#009afa;stroke:#000000;" x="51.854" xlink:href="#ma069501d95" y="101.72497"/>
     <use style="fill:#009afa;stroke:#000000;" x="387.406078" xlink:href="#ma069501d95" y="52.946806"/>
     <use style="fill:#009afa;stroke:#000000;" x="142.442338" xlink:href="#ma069501d95" y="66.04422"/>
     <use style="fill:#009afa;stroke:#000000;" x="280.276276" xlink:href="#ma069501d95" y="76.373435"/>
     <use style="fill:#009afa;stroke:#000000;" x="121.982573" xlink:href="#ma069501d95" y="98.066875"/>
     <use style="fill:#009afa;stroke:#000000;" x="44.428876" xlink:href="#ma069501d95" y="159.909501"/>
     <use style="fill:#009afa;stroke:#000000;" x="361.161864" xlink:href="#ma069501d95" y="75.640165"/>
     <use style="fill:#009afa;stroke:#000000;" x="352.620385" xlink:href="#ma069501d95" y="52.68124"/>
     <use style="fill:#009afa;stroke:#000000;" x="329.613924" xlink:href="#ma069501d95" y="83.816959"/>
     <use style="fill:#009afa;stroke:#000000;" x="137.790815" xlink:href="#ma069501d95" y="205.80663"/>
     <use style="fill:#009afa;stroke:#000000;" x="168.668308" xlink:href="#ma069501d95" y="163.425751"/>
     <use style="fill:#009afa;stroke:#000000;" x="66.838723" xlink:href="#ma069501d95" y="159.250225"/>
     <use style="fill:#009afa;stroke:#000000;" x="67.755124" xlink:href="#ma069501d95" y="253.218333"/>
     <use style="fill:#009afa;stroke:#000000;" x="233.514594" xlink:href="#ma069501d95" y="126.009481"/>
     <use style="fill:#009afa;stroke:#000000;" x="117.039369" xlink:href="#ma069501d95" y="132.882868"/>
     <use style="fill:#009afa;stroke:#000000;" x="221.604657" xlink:href="#ma069501d95" y="106.773151"/>
     <use style="fill:#009afa;stroke:#000000;" x="386.383537" xlink:href="#ma069501d95" y="106.484249"/>
     <use style="fill:#009afa;stroke:#000000;" x="235.809823" xlink:href="#ma069501d95" y="99.552815"/>
     <use style="fill:#009afa;stroke:#000000;" x="196.112768" xlink:href="#ma069501d95" y="75.141998"/>
     <use style="fill:#009afa;stroke:#000000;" x="200.538981" xlink:href="#ma069501d95" y="144.663005"/>
     <use style="fill:#009afa;stroke:#000000;" x="265.420558" xlink:href="#ma069501d95" y="160.711626"/>
     <use style="fill:#009afa;stroke:#000000;" x="374.486873" xlink:href="#ma069501d95" y="97.604914"/>
     <use style="fill:#009afa;stroke:#000000;" x="61.717545" xlink:href="#ma069501d95" y="190.379526"/>
     <use style="fill:#009afa;stroke:#000000;" x="409.608391" xlink:href="#ma069501d95" y="68.852768"/>
     <use style="fill:#009afa;stroke:#000000;" x="61.006172" xlink:href="#ma069501d95" y="113.908509"/>
     <use style="fill:#009afa;stroke:#000000;" x="62.569178" xlink:href="#ma069501d95" y="121.14676"/>
     <use style="fill:#009afa;stroke:#000000;" x="83.839128" xlink:href="#ma069501d95" y="143.872466"/>
     <use style="fill:#009afa;stroke:#000000;" x="38.197015" xlink:href="#ma069501d95" y="145.089991"/>
     <use style="fill:#009afa;stroke:#000000;" x="161.002521" xlink:href="#ma069501d95" y="177.818835"/>
     <use style="fill:#009afa;stroke:#000000;" x="241.024724" xlink:href="#ma069501d95" y="86.966403"/>
     <use style="fill:#009afa;stroke:#000000;" x="52.618997" xlink:href="#ma069501d95" y="174.463664"/>
     <use style="fill:#009afa;stroke:#000000;" x="128.8558" xlink:href="#ma069501d95" y="89.341898"/>
     <use style="fill:#009afa;stroke:#000000;" x="125.322225" xlink:href="#ma069501d95" y="128.421515"/>
     <use style="fill:#009afa;stroke:#000000;" x="201.574525" xlink:href="#ma069501d95" y="125.533607"/>
     <use style="fill:#009afa;stroke:#000000;" x="113.195132" xlink:href="#ma069501d95" y="109.711013"/>
     <use style="fill:#009afa;stroke:#000000;" x="180.884063" xlink:href="#ma069501d95" y="130.269043"/>
     <use style="fill:#009afa;stroke:#000000;" x="88.537879" xlink:href="#ma069501d95" y="76.614072"/>
     <use style="fill:#009afa;stroke:#000000;" x="297.9017" xlink:href="#ma069501d95" y="55.069561"/>
     <use style="fill:#009afa;stroke:#000000;" x="228.564397" xlink:href="#ma069501d95" y="165.41185"/>
     <use style="fill:#009afa;stroke:#000000;" x="368.826406" xlink:href="#ma069501d95" y="10.494571"/>
     <use style="fill:#009afa;stroke:#000000;" x="261.418909" xlink:href="#ma069501d95" y="144.080327"/>
     <use style="fill:#009afa;stroke:#000000;" x="273.308876" xlink:href="#ma069501d95" y="124.718808"/>
     <use style="fill:#009afa;stroke:#000000;" x="394.117946" xlink:href="#ma069501d95" y="110.049975"/>
    </g>
   </g>
   <g id="line2d_13">
    <path clip-path="url(#p4a64d7ec7f)" d="M 32.02193 169.195266 
L 417.59807 82.247908 
L 417.59807 82.247908 
" style="fill:none;stroke:#e36f47;stroke-linecap:round;"/>
   </g>
   <g id="patch_3">
    <path d="M 20.454646 273.485354 
L 20.454646 2.834646 
" style="fill:none;stroke:#000000;stroke-linecap:square;stroke-linejoin:miter;stroke-width:0.8;"/>
   </g>
   <g id="patch_4">
    <path d="M 20.454646 273.485354 
L 429.165354 273.485354 
" style="fill:none;stroke:#000000;stroke-linecap:square;stroke-linejoin:miter;stroke-width:0.8;"/>
   </g>
   <g id="line2d_14">
    <path clip-path="url(#p4a64d7ec7f)" d="M 32.02193 138.391252 
L 417.59807 75.168373 
L 417.59807 75.168373 
" style="fill:none;stroke:#3ea44e;stroke-linecap:round;"/>
   </g>
   <g id="legend_1">
    <g id="patch_5">
     <path d="M 293.852854 269.485354 
L 423.565354 269.485354 
Q 425.165354 269.485354 425.165354 267.885354 
L 425.165354 233.457854 
Q 425.165354 231.857854 423.565354 231.857854 
L 293.852854 231.857854 
Q 292.252854 231.857854 292.252854 233.457854 
L 292.252854 267.885354 
Q 292.252854 269.485354 293.852854 269.485354 
z
" style="fill:#ffffff;opacity:0.8;stroke:#000000;stroke-linejoin:miter;"/>
    </g>
    <g id="PathCollection_2">
     <g>
      <use style="fill:#009afa;stroke:#000000;" x="303.452854" xlink:href="#ma069501d95" y="239.036604"/>
     </g>
    </g>
    <g id="text_7">
     <!-- data -->
     <defs>
      <path d="M 45.40625 46.390625 
L 45.40625 75.984375 
L 54.390625 75.984375 
L 54.390625 0 
L 45.40625 0 
L 45.40625 8.203125 
Q 42.578125 3.328125 38.25 0.953125 
Q 33.9375 -1.421875 27.875 -1.421875 
Q 17.96875 -1.421875 11.734375 6.484375 
Q 5.515625 14.40625 5.515625 27.296875 
Q 5.515625 40.1875 11.734375 48.09375 
Q 17.96875 56 27.875 56 
Q 33.9375 56 38.25 53.625 
Q 42.578125 51.265625 45.40625 46.390625 
z
M 14.796875 27.296875 
Q 14.796875 17.390625 18.875 11.75 
Q 22.953125 6.109375 30.078125 6.109375 
Q 37.203125 6.109375 41.296875 11.75 
Q 45.40625 17.390625 45.40625 27.296875 
Q 45.40625 37.203125 41.296875 42.84375 
Q 37.203125 48.484375 30.078125 48.484375 
Q 22.953125 48.484375 18.875 42.84375 
Q 14.796875 37.203125 14.796875 27.296875 
z
" id="DejaVuSans-64"/>
      <path d="M 34.28125 27.484375 
Q 23.390625 27.484375 19.1875 25 
Q 14.984375 22.515625 14.984375 16.5 
Q 14.984375 11.71875 18.140625 8.90625 
Q 21.296875 6.109375 26.703125 6.109375 
Q 34.1875 6.109375 38.703125 11.40625 
Q 43.21875 16.703125 43.21875 25.484375 
L 43.21875 27.484375 
z
M 52.203125 31.203125 
L 52.203125 0 
L 43.21875 0 
L 43.21875 8.296875 
Q 40.140625 3.328125 35.546875 0.953125 
Q 30.953125 -1.421875 24.3125 -1.421875 
Q 15.921875 -1.421875 10.953125 3.296875 
Q 6 8.015625 6 15.921875 
Q 6 25.140625 12.171875 29.828125 
Q 18.359375 34.515625 30.609375 34.515625 
L 43.21875 34.515625 
L 43.21875 35.40625 
Q 43.21875 41.609375 39.140625 45 
Q 35.0625 48.390625 27.6875 48.390625 
Q 23 48.390625 18.546875 47.265625 
Q 14.109375 46.140625 10.015625 43.890625 
L 10.015625 52.203125 
Q 14.9375 54.109375 19.578125 55.046875 
Q 24.21875 56 28.609375 56 
Q 40.484375 56 46.34375 49.84375 
Q 52.203125 43.703125 52.203125 31.203125 
z
" id="DejaVuSans-61"/>
      <path d="M 18.3125 70.21875 
L 18.3125 54.6875 
L 36.8125 54.6875 
L 36.8125 47.703125 
L 18.3125 47.703125 
L 18.3125 18.015625 
Q 18.3125 11.328125 20.140625 9.421875 
Q 21.96875 7.515625 27.59375 7.515625 
L 36.8125 7.515625 
L 36.8125 0 
L 27.59375 0 
Q 17.1875 0 13.234375 3.875 
Q 9.28125 7.765625 9.28125 18.015625 
L 9.28125 47.703125 
L 2.6875 47.703125 
L 2.6875 54.6875 
L 9.28125 54.6875 
L 9.28125 70.21875 
z
" id="DejaVuSans-74"/>
     </defs>
     <g transform="translate(317.852854 241.136604)scale(0.08 -0.08)">
      <use xlink:href="#DejaVuSans-64"/>
      <use x="63.476562" xlink:href="#DejaVuSans-61"/>
      <use x="124.755859" xlink:href="#DejaVuSans-74"/>
      <use x="163.964844" xlink:href="#DejaVuSans-61"/>
     </g>
    </g>
    <g id="line2d_15">
     <path d="M 295.452854 250.079104 
L 311.452854 250.079104 
" style="fill:none;stroke:#e36f47;stroke-linecap:round;"/>
    </g>
    <g id="line2d_16"/>
    <g id="text_8">
     <!-- population regression line -->
     <defs>
      <path d="M 18.109375 8.203125 
L 18.109375 -20.796875 
L 9.078125 -20.796875 
L 9.078125 54.6875 
L 18.109375 54.6875 
L 18.109375 46.390625 
Q 20.953125 51.265625 25.265625 53.625 
Q 29.59375 56 35.59375 56 
Q 45.5625 56 51.78125 48.09375 
Q 58.015625 40.1875 58.015625 27.296875 
Q 58.015625 14.40625 51.78125 6.484375 
Q 45.5625 -1.421875 35.59375 -1.421875 
Q 29.59375 -1.421875 25.265625 0.953125 
Q 20.953125 3.328125 18.109375 8.203125 
z
M 48.6875 27.296875 
Q 48.6875 37.203125 44.609375 42.84375 
Q 40.53125 48.484375 33.40625 48.484375 
Q 26.265625 48.484375 22.1875 42.84375 
Q 18.109375 37.203125 18.109375 27.296875 
Q 18.109375 17.390625 22.1875 11.75 
Q 26.265625 6.109375 33.40625 6.109375 
Q 40.53125 6.109375 44.609375 11.75 
Q 48.6875 17.390625 48.6875 27.296875 
z
" id="DejaVuSans-70"/>
      <path d="M 30.609375 48.390625 
Q 23.390625 48.390625 19.1875 42.75 
Q 14.984375 37.109375 14.984375 27.296875 
Q 14.984375 17.484375 19.15625 11.84375 
Q 23.34375 6.203125 30.609375 6.203125 
Q 37.796875 6.203125 41.984375 11.859375 
Q 46.1875 17.53125 46.1875 27.296875 
Q 46.1875 37.015625 41.984375 42.703125 
Q 37.796875 48.390625 30.609375 48.390625 
z
M 30.609375 56 
Q 42.328125 56 49.015625 48.375 
Q 55.71875 40.765625 55.71875 27.296875 
Q 55.71875 13.875 49.015625 6.21875 
Q 42.328125 -1.421875 30.609375 -1.421875 
Q 18.84375 -1.421875 12.171875 6.21875 
Q 5.515625 13.875 5.515625 27.296875 
Q 5.515625 40.765625 12.171875 48.375 
Q 18.84375 56 30.609375 56 
z
" id="DejaVuSans-6f"/>
      <path d="M 8.5 21.578125 
L 8.5 54.6875 
L 17.484375 54.6875 
L 17.484375 21.921875 
Q 17.484375 14.15625 20.5 10.265625 
Q 23.53125 6.390625 29.59375 6.390625 
Q 36.859375 6.390625 41.078125 11.03125 
Q 45.3125 15.671875 45.3125 23.6875 
L 45.3125 54.6875 
L 54.296875 54.6875 
L 54.296875 0 
L 45.3125 0 
L 45.3125 8.40625 
Q 42.046875 3.421875 37.71875 1 
Q 33.40625 -1.421875 27.6875 -1.421875 
Q 18.265625 -1.421875 13.375 4.4375 
Q 8.5 10.296875 8.5 21.578125 
z
M 31.109375 56 
z
" id="DejaVuSans-75"/>
      <path d="M 9.421875 75.984375 
L 18.40625 75.984375 
L 18.40625 0 
L 9.421875 0 
z
" id="DejaVuSans-6c"/>
      <path d="M 9.421875 54.6875 
L 18.40625 54.6875 
L 18.40625 0 
L 9.421875 0 
z
M 9.421875 75.984375 
L 18.40625 75.984375 
L 18.40625 64.59375 
L 9.421875 64.59375 
z
" id="DejaVuSans-69"/>
      <path d="M 54.890625 33.015625 
L 54.890625 0 
L 45.90625 0 
L 45.90625 32.71875 
Q 45.90625 40.484375 42.875 44.328125 
Q 39.84375 48.1875 33.796875 48.1875 
Q 26.515625 48.1875 22.3125 43.546875 
Q 18.109375 38.921875 18.109375 30.90625 
L 18.109375 0 
L 9.078125 0 
L 9.078125 54.6875 
L 18.109375 54.6875 
L 18.109375 46.1875 
Q 21.34375 51.125 25.703125 53.5625 
Q 30.078125 56 35.796875 56 
Q 45.21875 56 50.046875 50.171875 
Q 54.890625 44.34375 54.890625 33.015625 
z
" id="DejaVuSans-6e"/>
      <path id="DejaVuSans-20"/>
      <path d="M 41.109375 46.296875 
Q 39.59375 47.171875 37.8125 47.578125 
Q 36.03125 48 33.890625 48 
Q 26.265625 48 22.1875 43.046875 
Q 18.109375 38.09375 18.109375 28.8125 
L 18.109375 0 
L 9.078125 0 
L 9.078125 54.6875 
L 18.109375 54.6875 
L 18.109375 46.1875 
Q 20.953125 51.171875 25.484375 53.578125 
Q 30.03125 56 36.53125 56 
Q 37.453125 56 38.578125 55.875 
Q 39.703125 55.765625 41.0625 55.515625 
z
" id="DejaVuSans-72"/>
      <path d="M 56.203125 29.59375 
L 56.203125 25.203125 
L 14.890625 25.203125 
Q 15.484375 15.921875 20.484375 11.0625 
Q 25.484375 6.203125 34.421875 6.203125 
Q 39.59375 6.203125 44.453125 7.46875 
Q 49.3125 8.734375 54.109375 11.28125 
L 54.109375 2.78125 
Q 49.265625 0.734375 44.1875 -0.34375 
Q 39.109375 -1.421875 33.890625 -1.421875 
Q 20.796875 -1.421875 13.15625 6.1875 
Q 5.515625 13.8125 5.515625 26.8125 
Q 5.515625 40.234375 12.765625 48.109375 
Q 20.015625 56 32.328125 56 
Q 43.359375 56 49.78125 48.890625 
Q 56.203125 41.796875 56.203125 29.59375 
z
M 47.21875 32.234375 
Q 47.125 39.59375 43.09375 43.984375 
Q 39.0625 48.390625 32.421875 48.390625 
Q 24.90625 48.390625 20.390625 44.140625 
Q 15.875 39.890625 15.1875 32.171875 
z
" id="DejaVuSans-65"/>
      <path d="M 45.40625 27.984375 
Q 45.40625 37.75 41.375 43.109375 
Q 37.359375 48.484375 30.078125 48.484375 
Q 22.859375 48.484375 18.828125 43.109375 
Q 14.796875 37.75 14.796875 27.984375 
Q 14.796875 18.265625 18.828125 12.890625 
Q 22.859375 7.515625 30.078125 7.515625 
Q 37.359375 7.515625 41.375 12.890625 
Q 45.40625 18.265625 45.40625 27.984375 
z
M 54.390625 6.78125 
Q 54.390625 -7.171875 48.1875 -13.984375 
Q 42 -20.796875 29.203125 -20.796875 
Q 24.46875 -20.796875 20.265625 -20.09375 
Q 16.0625 -19.390625 12.109375 -17.921875 
L 12.109375 -9.1875 
Q 16.0625 -11.328125 19.921875 -12.34375 
Q 23.78125 -13.375 27.78125 -13.375 
Q 36.625 -13.375 41.015625 -8.765625 
Q 45.40625 -4.15625 45.40625 5.171875 
L 45.40625 9.625 
Q 42.625 4.78125 38.28125 2.390625 
Q 33.9375 0 27.875 0 
Q 17.828125 0 11.671875 7.65625 
Q 5.515625 15.328125 5.515625 27.984375 
Q 5.515625 40.671875 11.671875 48.328125 
Q 17.828125 56 27.875 56 
Q 33.9375 56 38.28125 53.609375 
Q 42.625 51.21875 45.40625 46.390625 
L 45.40625 54.6875 
L 54.390625 54.6875 
z
" id="DejaVuSans-67"/>
      <path d="M 44.28125 53.078125 
L 44.28125 44.578125 
Q 40.484375 46.53125 36.375 47.5 
Q 32.28125 48.484375 27.875 48.484375 
Q 21.1875 48.484375 17.84375 46.4375 
Q 14.5 44.390625 14.5 40.28125 
Q 14.5 37.15625 16.890625 35.375 
Q 19.28125 33.59375 26.515625 31.984375 
L 29.59375 31.296875 
Q 39.15625 29.25 43.1875 25.515625 
Q 47.21875 21.78125 47.21875 15.09375 
Q 47.21875 7.46875 41.1875 3.015625 
Q 35.15625 -1.421875 24.609375 -1.421875 
Q 20.21875 -1.421875 15.453125 -0.5625 
Q 10.6875 0.296875 5.421875 2 
L 5.421875 11.28125 
Q 10.40625 8.6875 15.234375 7.390625 
Q 20.0625 6.109375 24.8125 6.109375 
Q 31.15625 6.109375 34.5625 8.28125 
Q 37.984375 10.453125 37.984375 14.40625 
Q 37.984375 18.0625 35.515625 20.015625 
Q 33.0625 21.96875 24.703125 23.78125 
L 21.578125 24.515625 
Q 13.234375 26.265625 9.515625 29.90625 
Q 5.8125 33.546875 5.8125 39.890625 
Q 5.8125 47.609375 11.28125 51.796875 
Q 16.75 56 26.8125 56 
Q 31.78125 56 36.171875 55.265625 
Q 40.578125 54.546875 44.28125 53.078125 
z
" id="DejaVuSans-73"/>
     </defs>
     <g transform="translate(317.852854 252.879104)scale(0.08 -0.08)">
      <use xlink:href="#DejaVuSans-70"/>
      <use x="63.476562" xlink:href="#DejaVuSans-6f"/>
      <use x="124.658203" xlink:href="#DejaVuSans-70"/>
      <use x="188.134766" xlink:href="#DejaVuSans-75"/>
      <use x="251.513672" xlink:href="#DejaVuSans-6c"/>
      <use x="279.296875" xlink:href="#DejaVuSans-61"/>
      <use x="340.576172" xlink:href="#DejaVuSans-74"/>
      <use x="379.785156" xlink:href="#DejaVuSans-69"/>
      <use x="407.568359" xlink:href="#DejaVuSans-6f"/>
      <use x="468.75" xlink:href="#DejaVuSans-6e"/>
      <use x="532.128906" xlink:href="#DejaVuSans-20"/>
      <use x="563.916016" xlink:href="#DejaVuSans-72"/>
      <use x="604.998047" xlink:href="#DejaVuSans-65"/>
      <use x="666.521484" xlink:href="#DejaVuSans-67"/>
      <use x="729.998047" xlink:href="#DejaVuSans-72"/>
      <use x="771.080078" xlink:href="#DejaVuSans-65"/>
      <use x="832.603516" xlink:href="#DejaVuSans-73"/>
      <use x="884.703125" xlink:href="#DejaVuSans-73"/>
      <use x="936.802734" xlink:href="#DejaVuSans-69"/>
      <use x="964.585938" xlink:href="#DejaVuSans-6f"/>
      <use x="1025.767578" xlink:href="#DejaVuSans-6e"/>
      <use x="1089.146484" xlink:href="#DejaVuSans-20"/>
      <use x="1120.933594" xlink:href="#DejaVuSans-6c"/>
      <use x="1148.716797" xlink:href="#DejaVuSans-69"/>
      <use x="1176.5" xlink:href="#DejaVuSans-6e"/>
      <use x="1239.878906" xlink:href="#DejaVuSans-65"/>
     </g>
    </g>
    <g id="line2d_17">
     <path d="M 295.452854 261.821604 
L 311.452854 261.821604 
" style="fill:none;stroke:#3ea44e;stroke-linecap:round;"/>
    </g>
    <g id="line2d_18"/>
    <g id="text_9">
     <!-- fitted regression line -->
     <defs>
      <path d="M 37.109375 75.984375 
L 37.109375 68.5 
L 28.515625 68.5 
Q 23.6875 68.5 21.796875 66.546875 
Q 19.921875 64.59375 19.921875 59.515625 
L 19.921875 54.6875 
L 34.71875 54.6875 
L 34.71875 47.703125 
L 19.921875 47.703125 
L 19.921875 0 
L 10.890625 0 
L 10.890625 47.703125 
L 2.296875 47.703125 
L 2.296875 54.6875 
L 10.890625 54.6875 
L 10.890625 58.5 
Q 10.890625 67.625 15.140625 71.796875 
Q 19.390625 75.984375 28.609375 75.984375 
z
" id="DejaVuSans-66"/>
     </defs>
     <g transform="translate(317.852854 264.621604)scale(0.08 -0.08)">
      <use xlink:href="#DejaVuSans-66"/>
      <use x="35.205078" xlink:href="#DejaVuSans-69"/>
      <use x="62.988281" xlink:href="#DejaVuSans-74"/>
      <use x="102.197266" xlink:href="#DejaVuSans-74"/>
      <use x="141.40625" xlink:href="#DejaVuSans-65"/>
      <use x="202.929688" xlink:href="#DejaVuSans-64"/>
      <use x="266.40625" xlink:href="#DejaVuSans-20"/>
      <use x="298.193359" xlink:href="#DejaVuSans-72"/>
      <use x="339.275391" xlink:href="#DejaVuSans-65"/>
      <use x="400.798828" xlink:href="#DejaVuSans-67"/>
      <use x="464.275391" xlink:href="#DejaVuSans-72"/>
      <use x="505.357422" xlink:href="#DejaVuSans-65"/>
      <use x="566.880859" xlink:href="#DejaVuSans-73"/>
      <use x="618.980469" xlink:href="#DejaVuSans-73"/>
      <use x="671.080078" xlink:href="#DejaVuSans-69"/>
      <use x="698.863281" xlink:href="#DejaVuSans-6f"/>
      <use x="760.044922" xlink:href="#DejaVuSans-6e"/>
      <use x="823.423828" xlink:href="#DejaVuSans-20"/>
      <use x="855.210938" xlink:href="#DejaVuSans-6c"/>
      <use x="882.994141" xlink:href="#DejaVuSans-69"/>
      <use x="910.777344" xlink:href="#DejaVuSans-6e"/>
      <use x="974.15625" xlink:href="#DejaVuSans-65"/>
     </g>
    </g>
   </g>
  </g>
 </g>
 <defs>
  <clipPath id="p4a64d7ec7f">
   <rect height="270.650709" width="408.710709" x="20.454646" y="2.834646"/>
  </clipPath>
 </defs>
</svg>
