<?xml version="1.0" encoding="utf-8"?>
<svg xmlns="http://www.w3.org/2000/svg" xmlns:xlink="http://www.w3.org/1999/xlink" width="600" height="400" viewBox="0 0 600 400">
<defs>
  <clipPath id="clip00">
    <rect x="0" y="0" width="600" height="400"/>
  </clipPath>
</defs>
<polygon clip-path="url(#clip00)" points="
0,400 600,400 600,0 0,0 
  " fill="#ffffff" fill-opacity="1"/>
<defs>
  <clipPath id="clip01">
    <rect x="120" y="0" width="421" height="400"/>
  </clipPath>
</defs>
<polygon clip-path="url(#clip00)" points="
35.5169,375.813 580.315,375.813 580.315,11.811 35.5169,11.811 
  " fill="#ffffff" fill-opacity="1"/>
<defs>
  <clipPath id="clip02">
    <rect x="35" y="11" width="546" height="365"/>
  </clipPath>
</defs>
<polyline clip-path="url(#clip02)" style="stroke:#000000; stroke-width:0.5; stroke-opacity:0.1; fill:none" points="
  115.181,370.353 115.181,17.2711 
  "/>
<polyline clip-path="url(#clip02)" style="stroke:#000000; stroke-width:0.5; stroke-opacity:0.1; fill:none" points="
  222.256,370.353 222.256,17.2711 
  "/>
<polyline clip-path="url(#clip02)" style="stroke:#000000; stroke-width:0.5; stroke-opacity:0.1; fill:none" points="
  329.331,370.353 329.331,17.2711 
  "/>
<polyline clip-path="url(#clip02)" style="stroke:#000000; stroke-width:0.5; stroke-opacity:0.1; fill:none" points="
  436.406,370.353 436.406,17.2711 
  "/>
<polyline clip-path="url(#clip02)" style="stroke:#000000; stroke-width:0.5; stroke-opacity:0.1; fill:none" points="
  543.481,370.353 543.481,17.2711 
  "/>
<polyline clip-path="url(#clip02)" style="stroke:#000000; stroke-width:0.5; stroke-opacity:0.1; fill:none" points="
  43.6889,375.813 572.143,375.813 
  "/>
<polyline clip-path="url(#clip02)" style="stroke:#000000; stroke-width:0.5; stroke-opacity:0.1; fill:none" points="
  43.6889,235.813 572.143,235.813 
  "/>
<polyline clip-path="url(#clip02)" style="stroke:#000000; stroke-width:0.5; stroke-opacity:0.1; fill:none" points="
  43.6889,95.8116 572.143,95.8116 
  "/>
<polyline clip-path="url(#clip00)" style="stroke:#000000; stroke-width:1; stroke-opacity:1; fill:none" points="
  35.5169,375.813 580.315,375.813 
  "/>
<polyline clip-path="url(#clip00)" style="stroke:#000000; stroke-width:1; stroke-opacity:1; fill:none" points="
  115.181,375.813 115.181,370.353 
  "/>
<polyline clip-path="url(#clip00)" style="stroke:#000000; stroke-width:1; stroke-opacity:1; fill:none" points="
  222.256,375.813 222.256,370.353 
  "/>
<polyline clip-path="url(#clip00)" style="stroke:#000000; stroke-width:1; stroke-opacity:1; fill:none" points="
  329.331,375.813 329.331,370.353 
  "/>
<polyline clip-path="url(#clip00)" style="stroke:#000000; stroke-width:1; stroke-opacity:1; fill:none" points="
  436.406,375.813 436.406,370.353 
  "/>
<polyline clip-path="url(#clip00)" style="stroke:#000000; stroke-width:1; stroke-opacity:1; fill:none" points="
  543.481,375.813 543.481,370.353 
  "/>
<polyline clip-path="url(#clip00)" style="stroke:#000000; stroke-width:1; stroke-opacity:1; fill:none" points="
  35.5169,375.813 35.5169,11.811 
  "/>
<polyline clip-path="url(#clip00)" style="stroke:#000000; stroke-width:1; stroke-opacity:1; fill:none" points="
  35.5169,375.813 43.6889,375.813 
  "/>
<polyline clip-path="url(#clip00)" style="stroke:#000000; stroke-width:1; stroke-opacity:1; fill:none" points="
  35.5169,235.813 43.6889,235.813 
  "/>
<polyline clip-path="url(#clip00)" style="stroke:#000000; stroke-width:1; stroke-opacity:1; fill:none" points="
  35.5169,95.8116 43.6889,95.8116 
  "/>
<g clip-path="url(#clip00)">
<text style="fill:#000000; fill-opacity:1; font-family:Arial,Helvetica Neue,Helvetica,sans-serif; font-size:12; text-anchor:middle;" transform="rotate(0, 115.181, 389.613)" x="115.181" y="389.613">-0.4</text>
</g>
<g clip-path="url(#clip00)">
<text style="fill:#000000; fill-opacity:1; font-family:Arial,Helvetica Neue,Helvetica,sans-serif; font-size:12; text-anchor:middle;" transform="rotate(0, 222.256, 389.613)" x="222.256" y="389.613">-0.3</text>
</g>
<g clip-path="url(#clip00)">
<text style="fill:#000000; fill-opacity:1; font-family:Arial,Helvetica Neue,Helvetica,sans-serif; font-size:12; text-anchor:middle;" transform="rotate(0, 329.331, 389.613)" x="329.331" y="389.613">-0.2</text>
</g>
<g clip-path="url(#clip00)">
<text style="fill:#000000; fill-opacity:1; font-family:Arial,Helvetica Neue,Helvetica,sans-serif; font-size:12; text-anchor:middle;" transform="rotate(0, 436.406, 389.613)" x="436.406" y="389.613">-0.1</text>
</g>
<g clip-path="url(#clip00)">
<text style="fill:#000000; fill-opacity:1; font-family:Arial,Helvetica Neue,Helvetica,sans-serif; font-size:12; text-anchor:middle;" transform="rotate(0, 543.481, 389.613)" x="543.481" y="389.613">0.0</text>
</g>
<g clip-path="url(#clip00)">
<text style="fill:#000000; fill-opacity:1; font-family:Arial,Helvetica Neue,Helvetica,sans-serif; font-size:12; text-anchor:end;" transform="rotate(0, 29.5169, 380.313)" x="29.5169" y="380.313">0</text>
</g>
<g clip-path="url(#clip00)">
<text style="fill:#000000; fill-opacity:1; font-family:Arial,Helvetica Neue,Helvetica,sans-serif; font-size:12; text-anchor:end;" transform="rotate(0, 29.5169, 240.313)" x="29.5169" y="240.313">50</text>
</g>
<g clip-path="url(#clip00)">
<text style="fill:#000000; fill-opacity:1; font-family:Arial,Helvetica Neue,Helvetica,sans-serif; font-size:12; text-anchor:end;" transform="rotate(0, 29.5169, 100.312)" x="29.5169" y="100.312">100</text>
</g>
<polygon clip-path="url(#clip02)" points="
50.9357,373.013 50.9357,375.813 72.3508,375.813 72.3508,373.013 50.9357,373.013 50.9357,373.013 
  " fill="#009af9" fill-opacity="1"/>
<polyline clip-path="url(#clip02)" style="stroke:#000000; stroke-width:1; stroke-opacity:1; fill:none" points="
  50.9357,373.013 50.9357,375.813 72.3508,375.813 72.3508,373.013 50.9357,373.013 
  "/>
<polygon clip-path="url(#clip02)" points="
72.3508,375.813 72.3508,375.813 93.7658,375.813 93.7658,375.813 72.3508,375.813 72.3508,375.813 
  " fill="#009af9" fill-opacity="1"/>
<polyline clip-path="url(#clip02)" style="stroke:#000000; stroke-width:1; stroke-opacity:1; fill:none" points="
  72.3508,375.813 72.3508,375.813 93.7658,375.813 72.3508,375.813 
  "/>
<polygon clip-path="url(#clip02)" points="
93.7658,373.013 93.7658,375.813 115.181,375.813 115.181,373.013 93.7658,373.013 93.7658,373.013 
  " fill="#009af9" fill-opacity="1"/>
<polyline clip-path="url(#clip02)" style="stroke:#000000; stroke-width:1; stroke-opacity:1; fill:none" points="
  93.7658,373.013 93.7658,375.813 115.181,375.813 115.181,373.013 93.7658,373.013 
  "/>
<polygon clip-path="url(#clip02)" points="
115.181,370.213 115.181,375.813 136.596,375.813 136.596,370.213 115.181,370.213 115.181,370.213 
  " fill="#009af9" fill-opacity="1"/>
<polyline clip-path="url(#clip02)" style="stroke:#000000; stroke-width:1; stroke-opacity:1; fill:none" points="
  115.181,370.213 115.181,375.813 136.596,375.813 136.596,370.213 115.181,370.213 
  "/>
<polygon clip-path="url(#clip02)" points="
136.596,370.213 136.596,375.813 158.011,375.813 158.011,370.213 136.596,370.213 136.596,370.213 
  " fill="#009af9" fill-opacity="1"/>
<polyline clip-path="url(#clip02)" style="stroke:#000000; stroke-width:1; stroke-opacity:1; fill:none" points="
  136.596,370.213 136.596,375.813 158.011,375.813 158.011,370.213 136.596,370.213 
  "/>
<polygon clip-path="url(#clip02)" points="
158.011,359.013 158.011,375.813 179.426,375.813 179.426,359.013 158.011,359.013 158.011,359.013 
  " fill="#009af9" fill-opacity="1"/>
<polyline clip-path="url(#clip02)" style="stroke:#000000; stroke-width:1; stroke-opacity:1; fill:none" points="
  158.011,359.013 158.011,375.813 179.426,375.813 179.426,359.013 158.011,359.013 
  "/>
<polygon clip-path="url(#clip02)" points="
179.426,361.813 179.426,375.813 200.841,375.813 200.841,361.813 179.426,361.813 179.426,361.813 
  " fill="#009af9" fill-opacity="1"/>
<polyline clip-path="url(#clip02)" style="stroke:#000000; stroke-width:1; stroke-opacity:1; fill:none" points="
  179.426,361.813 179.426,375.813 200.841,375.813 200.841,361.813 179.426,361.813 
  "/>
<polygon clip-path="url(#clip02)" points="
200.841,347.813 200.841,375.813 222.256,375.813 222.256,347.813 200.841,347.813 200.841,347.813 
  " fill="#009af9" fill-opacity="1"/>
<polyline clip-path="url(#clip02)" style="stroke:#000000; stroke-width:1; stroke-opacity:1; fill:none" points="
  200.841,347.813 200.841,375.813 222.256,375.813 222.256,347.813 200.841,347.813 
  "/>
<polygon clip-path="url(#clip02)" points="
222.256,339.413 222.256,375.813 243.671,375.813 243.671,339.413 222.256,339.413 222.256,339.413 
  " fill="#009af9" fill-opacity="1"/>
<polyline clip-path="url(#clip02)" style="stroke:#000000; stroke-width:1; stroke-opacity:1; fill:none" points="
  222.256,339.413 222.256,375.813 243.671,375.813 243.671,339.413 222.256,339.413 
  "/>
<polygon clip-path="url(#clip02)" points="
243.671,331.013 243.671,375.813 265.086,375.813 265.086,331.013 243.671,331.013 243.671,331.013 
  " fill="#009af9" fill-opacity="1"/>
<polyline clip-path="url(#clip02)" style="stroke:#000000; stroke-width:1; stroke-opacity:1; fill:none" points="
  243.671,331.013 243.671,375.813 265.086,375.813 265.086,331.013 243.671,331.013 
  "/>
<polygon clip-path="url(#clip02)" points="
265.086,294.613 265.086,375.813 286.501,375.813 286.501,294.613 265.086,294.613 265.086,294.613 
  " fill="#009af9" fill-opacity="1"/>
<polyline clip-path="url(#clip02)" style="stroke:#000000; stroke-width:1; stroke-opacity:1; fill:none" points="
  265.086,294.613 265.086,375.813 286.501,375.813 286.501,294.613 265.086,294.613 
  "/>
<polygon clip-path="url(#clip02)" points="
286.501,266.613 286.501,375.813 307.916,375.813 307.916,266.613 286.501,266.613 286.501,266.613 
  " fill="#009af9" fill-opacity="1"/>
<polyline clip-path="url(#clip02)" style="stroke:#000000; stroke-width:1; stroke-opacity:1; fill:none" points="
  286.501,266.613 286.501,375.813 307.916,375.813 307.916,266.613 286.501,266.613 
  "/>
<polygon clip-path="url(#clip02)" points="
307.916,258.213 307.916,375.813 329.331,375.813 329.331,258.213 307.916,258.213 307.916,258.213 
  " fill="#009af9" fill-opacity="1"/>
<polyline clip-path="url(#clip02)" style="stroke:#000000; stroke-width:1; stroke-opacity:1; fill:none" points="
  307.916,258.213 307.916,375.813 329.331,375.813 329.331,258.213 307.916,258.213 
  "/>
<polygon clip-path="url(#clip02)" points="
329.331,219.012 329.331,375.813 350.746,375.813 350.746,219.012 329.331,219.012 329.331,219.012 
  " fill="#009af9" fill-opacity="1"/>
<polyline clip-path="url(#clip02)" style="stroke:#000000; stroke-width:1; stroke-opacity:1; fill:none" points="
  329.331,219.012 329.331,375.813 350.746,375.813 350.746,219.012 329.331,219.012 
  "/>
<polygon clip-path="url(#clip02)" points="
350.746,177.012 350.746,375.813 372.161,375.813 372.161,177.012 350.746,177.012 350.746,177.012 
  " fill="#009af9" fill-opacity="1"/>
<polyline clip-path="url(#clip02)" style="stroke:#000000; stroke-width:1; stroke-opacity:1; fill:none" points="
  350.746,177.012 350.746,375.813 372.161,375.813 372.161,177.012 350.746,177.012 
  "/>
<polygon clip-path="url(#clip02)" points="
372.161,179.812 372.161,375.813 393.576,375.813 393.576,179.812 372.161,179.812 372.161,179.812 
  " fill="#009af9" fill-opacity="1"/>
<polyline clip-path="url(#clip02)" style="stroke:#000000; stroke-width:1; stroke-opacity:1; fill:none" points="
  372.161,179.812 372.161,375.813 393.576,375.813 393.576,179.812 372.161,179.812 
  "/>
<polygon clip-path="url(#clip02)" points="
393.576,65.0114 393.576,375.813 414.991,375.813 414.991,65.0114 393.576,65.0114 393.576,65.0114 
  " fill="#009af9" fill-opacity="1"/>
<polyline clip-path="url(#clip02)" style="stroke:#000000; stroke-width:1; stroke-opacity:1; fill:none" points="
  393.576,65.0114 393.576,375.813 414.991,375.813 414.991,65.0114 393.576,65.0114 
  "/>
<polygon clip-path="url(#clip02)" points="
414.991,53.8113 414.991,375.813 436.406,375.813 436.406,53.8113 414.991,53.8113 414.991,53.8113 
  " fill="#009af9" fill-opacity="1"/>
<polyline clip-path="url(#clip02)" style="stroke:#000000; stroke-width:1; stroke-opacity:1; fill:none" points="
  414.991,53.8113 414.991,375.813 436.406,375.813 436.406,53.8113 414.991,53.8113 
  "/>
<polygon clip-path="url(#clip02)" points="
436.406,109.812 436.406,375.813 457.821,375.813 457.821,109.812 436.406,109.812 436.406,109.812 
  " fill="#009af9" fill-opacity="1"/>
<polyline clip-path="url(#clip02)" style="stroke:#000000; stroke-width:1; stroke-opacity:1; fill:none" points="
  436.406,109.812 436.406,375.813 457.821,375.813 457.821,109.812 436.406,109.812 
  "/>
<polygon clip-path="url(#clip02)" points="
457.821,11.811 457.821,375.813 479.236,375.813 479.236,11.811 457.821,11.811 457.821,11.811 
  " fill="#009af9" fill-opacity="1"/>
<polyline clip-path="url(#clip02)" style="stroke:#000000; stroke-width:1; stroke-opacity:1; fill:none" points="
  457.821,11.811 457.821,375.813 479.236,375.813 479.236,11.811 457.821,11.811 
  "/>
<polygon clip-path="url(#clip02)" points="
479.236,126.612 479.236,375.813 500.651,375.813 500.651,126.612 479.236,126.612 479.236,126.612 
  " fill="#009af9" fill-opacity="1"/>
<polyline clip-path="url(#clip02)" style="stroke:#000000; stroke-width:1; stroke-opacity:1; fill:none" points="
  479.236,126.612 479.236,375.813 500.651,375.813 500.651,126.612 479.236,126.612 
  "/>
<polygon clip-path="url(#clip02)" points="
500.651,205.012 500.651,375.813 522.066,375.813 522.066,205.012 500.651,205.012 500.651,205.012 
  " fill="#009af9" fill-opacity="1"/>
<polyline clip-path="url(#clip02)" style="stroke:#000000; stroke-width:1; stroke-opacity:1; fill:none" points="
  500.651,205.012 500.651,375.813 522.066,375.813 522.066,205.012 500.651,205.012 
  "/>
<polygon clip-path="url(#clip02)" points="
522.066,300.213 522.066,375.813 543.481,375.813 543.481,300.213 522.066,300.213 522.066,300.213 
  " fill="#009af9" fill-opacity="1"/>
<polyline clip-path="url(#clip02)" style="stroke:#000000; stroke-width:1; stroke-opacity:1; fill:none" points="
  522.066,300.213 522.066,375.813 543.481,375.813 543.481,300.213 522.066,300.213 
  "/>
<polygon clip-path="url(#clip02)" points="
543.481,350.613 543.481,375.813 564.896,375.813 564.896,350.613 543.481,350.613 543.481,350.613 
  " fill="#009af9" fill-opacity="1"/>
<polyline clip-path="url(#clip02)" style="stroke:#000000; stroke-width:1; stroke-opacity:1; fill:none" points="
  543.481,350.613 543.481,375.813 564.896,375.813 564.896,350.613 543.481,350.613 
  "/>
<polygon clip-path="url(#clip00)" points="
489.799,62.931 562.315,62.931 562.315,32.691 489.799,32.691 
  " fill="#ffffff" fill-opacity="1"/>
<polyline clip-path="url(#clip00)" style="stroke:#000000; stroke-width:1; stroke-opacity:1; fill:none" points="
  489.799,62.931 562.315,62.931 562.315,32.691 489.799,32.691 489.799,62.931 
  "/>
<polygon clip-path="url(#clip00)" points="
495.799,53.859 531.799,53.859 531.799,41.763 495.799,41.763 495.799,53.859 
  " fill="#009af9" fill-opacity="1"/>
<polyline clip-path="url(#clip00)" style="stroke:#000000; stroke-width:1; stroke-opacity:1; fill:none" points="
  495.799,53.859 531.799,53.859 531.799,41.763 495.799,41.763 495.799,53.859 
  "/>
<g clip-path="url(#clip00)">
<text style="fill:#000000; fill-opacity:1; font-family:Arial,Helvetica Neue,Helvetica,sans-serif; font-size:12; text-anchor:start;" transform="rotate(0, 537.799, 52.311)" x="537.799" y="52.311">y1</text>
</g>
</svg>
