<?xml version="1.0" encoding="utf-8"?>
<svg xmlns="http://www.w3.org/2000/svg" xmlns:xlink="http://www.w3.org/1999/xlink" width="600" height="400" viewBox="0 0 2400 1600">
<defs>
  <clipPath id="clip400">
    <rect x="0" y="0" width="2400" height="1600"/>
  </clipPath>
</defs>
<path clip-path="url(#clip400)" d="M0 1600 L2400 1600 L2400 0 L0 0  Z" fill="#ffffff" fill-rule="evenodd" fill-opacity="1"/>
<defs>
  <clipPath id="clip401">
    <rect x="480" y="0" width="1681" height="1600"/>
  </clipPath>
</defs>
<path clip-path="url(#clip400)" d="M156.112 1486.45 L1907.26 1486.45 L1907.26 47.2441 L156.112 47.2441  Z" fill="#ffffff" fill-rule="evenodd" fill-opacity="1"/>
<defs>
  <clipPath id="clip402">
    <rect x="156" y="47" width="1752" height="1440"/>
  </clipPath>
</defs>
<polyline clip-path="url(#clip402)" style="stroke:#000000; stroke-linecap:round; stroke-linejoin:round; stroke-width:2; stroke-opacity:0.1; fill:none" points="195.283,1486.45 195.283,47.2441 "/>
<polyline clip-path="url(#clip402)" style="stroke:#000000; stroke-linecap:round; stroke-linejoin:round; stroke-width:2; stroke-opacity:0.1; fill:none" points="714.786,1486.45 714.786,47.2441 "/>
<polyline clip-path="url(#clip402)" style="stroke:#000000; stroke-linecap:round; stroke-linejoin:round; stroke-width:2; stroke-opacity:0.1; fill:none" points="1234.29,1486.45 1234.29,47.2441 "/>
<polyline clip-path="url(#clip402)" style="stroke:#000000; stroke-linecap:round; stroke-linejoin:round; stroke-width:2; stroke-opacity:0.1; fill:none" points="1753.79,1486.45 1753.79,47.2441 "/>
<polyline clip-path="url(#clip400)" style="stroke:#000000; stroke-linecap:round; stroke-linejoin:round; stroke-width:4; stroke-opacity:1; fill:none" points="156.112,1486.45 1907.26,1486.45 "/>
<polyline clip-path="url(#clip400)" style="stroke:#000000; stroke-linecap:round; stroke-linejoin:round; stroke-width:4; stroke-opacity:1; fill:none" points="195.283,1486.45 195.283,1467.55 "/>
<polyline clip-path="url(#clip400)" style="stroke:#000000; stroke-linecap:round; stroke-linejoin:round; stroke-width:4; stroke-opacity:1; fill:none" points="714.786,1486.45 714.786,1467.55 "/>
<polyline clip-path="url(#clip400)" style="stroke:#000000; stroke-linecap:round; stroke-linejoin:round; stroke-width:4; stroke-opacity:1; fill:none" points="1234.29,1486.45 1234.29,1467.55 "/>
<polyline clip-path="url(#clip400)" style="stroke:#000000; stroke-linecap:round; stroke-linejoin:round; stroke-width:4; stroke-opacity:1; fill:none" points="1753.79,1486.45 1753.79,1467.55 "/>
<path clip-path="url(#clip400)" d="M195.283 1517.37 Q191.672 1517.37 189.843 1520.93 Q188.037 1524.47 188.037 1531.6 Q188.037 1538.71 189.843 1542.27 Q191.672 1545.82 195.283 1545.82 Q198.917 1545.82 200.722 1542.27 Q202.551 1538.71 202.551 1531.6 Q202.551 1524.47 200.722 1520.93 Q198.917 1517.37 195.283 1517.37 M195.283 1513.66 Q201.093 1513.66 204.148 1518.27 Q207.227 1522.85 207.227 1531.6 Q207.227 1540.33 204.148 1544.94 Q201.093 1549.52 195.283 1549.52 Q189.473 1549.52 186.394 1544.94 Q183.338 1540.33 183.338 1531.6 Q183.338 1522.85 186.394 1518.27 Q189.473 1513.66 195.283 1513.66 Z" fill="#000000" fill-rule="nonzero" fill-opacity="1" /><path clip-path="url(#clip400)" d="M689.486 1514.29 L707.842 1514.29 L707.842 1518.22 L693.768 1518.22 L693.768 1526.7 Q694.786 1526.35 695.805 1526.19 Q696.824 1526 697.842 1526 Q703.629 1526 707.009 1529.17 Q710.388 1532.34 710.388 1537.76 Q710.388 1543.34 706.916 1546.44 Q703.444 1549.52 697.124 1549.52 Q694.949 1549.52 692.68 1549.15 Q690.435 1548.78 688.027 1548.04 L688.027 1543.34 Q690.111 1544.47 692.333 1545.03 Q694.555 1545.58 697.032 1545.58 Q701.036 1545.58 703.374 1543.48 Q705.712 1541.37 705.712 1537.76 Q705.712 1534.15 703.374 1532.04 Q701.036 1529.94 697.032 1529.94 Q695.157 1529.94 693.282 1530.35 Q691.43 1530.77 689.486 1531.65 L689.486 1514.29 Z" fill="#000000" fill-rule="nonzero" fill-opacity="1" /><path clip-path="url(#clip400)" d="M729.601 1517.37 Q725.99 1517.37 724.161 1520.93 Q722.356 1524.47 722.356 1531.6 Q722.356 1538.71 724.161 1542.27 Q725.99 1545.82 729.601 1545.82 Q733.235 1545.82 735.041 1542.27 Q736.87 1538.71 736.87 1531.6 Q736.87 1524.47 735.041 1520.93 Q733.235 1517.37 729.601 1517.37 M729.601 1513.66 Q735.411 1513.66 738.467 1518.27 Q741.546 1522.85 741.546 1531.6 Q741.546 1540.33 738.467 1544.94 Q735.411 1549.52 729.601 1549.52 Q723.791 1549.52 720.712 1544.94 Q717.657 1540.33 717.657 1531.6 Q717.657 1522.85 720.712 1518.27 Q723.791 1513.66 729.601 1513.66 Z" fill="#000000" fill-rule="nonzero" fill-opacity="1" /><path clip-path="url(#clip400)" d="M1193.9 1544.91 L1201.54 1544.91 L1201.54 1518.55 L1193.23 1520.21 L1193.23 1515.95 L1201.49 1514.29 L1206.17 1514.29 L1206.17 1544.91 L1213.8 1544.91 L1213.8 1548.85 L1193.9 1548.85 L1193.9 1544.91 Z" fill="#000000" fill-rule="nonzero" fill-opacity="1" /><path clip-path="url(#clip400)" d="M1233.25 1517.37 Q1229.64 1517.37 1227.81 1520.93 Q1226 1524.47 1226 1531.6 Q1226 1538.71 1227.81 1542.27 Q1229.64 1545.82 1233.25 1545.82 Q1236.88 1545.82 1238.69 1542.27 Q1240.52 1538.71 1240.52 1531.6 Q1240.52 1524.47 1238.69 1520.93 Q1236.88 1517.37 1233.25 1517.37 M1233.25 1513.66 Q1239.06 1513.66 1242.11 1518.27 Q1245.19 1522.85 1245.19 1531.6 Q1245.19 1540.33 1242.11 1544.94 Q1239.06 1549.52 1233.25 1549.52 Q1227.44 1549.52 1224.36 1544.94 Q1221.3 1540.33 1221.3 1531.6 Q1221.3 1522.85 1224.36 1518.27 Q1227.44 1513.66 1233.25 1513.66 Z" fill="#000000" fill-rule="nonzero" fill-opacity="1" /><path clip-path="url(#clip400)" d="M1263.41 1517.37 Q1259.8 1517.37 1257.97 1520.93 Q1256.16 1524.47 1256.16 1531.6 Q1256.16 1538.71 1257.97 1542.27 Q1259.8 1545.82 1263.41 1545.82 Q1267.04 1545.82 1268.85 1542.27 Q1270.68 1538.71 1270.68 1531.6 Q1270.68 1524.47 1268.85 1520.93 Q1267.04 1517.37 1263.41 1517.37 M1263.41 1513.66 Q1269.22 1513.66 1272.28 1518.27 Q1275.35 1522.85 1275.35 1531.6 Q1275.35 1540.33 1272.28 1544.94 Q1269.22 1549.52 1263.41 1549.52 Q1257.6 1549.52 1254.52 1544.94 Q1251.47 1540.33 1251.47 1531.6 Q1251.47 1522.85 1254.52 1518.27 Q1257.6 1513.66 1263.41 1513.66 Z" fill="#000000" fill-rule="nonzero" fill-opacity="1" /><path clip-path="url(#clip400)" d="M1713.4 1544.91 L1721.04 1544.91 L1721.04 1518.55 L1712.73 1520.21 L1712.73 1515.95 L1720.99 1514.29 L1725.67 1514.29 L1725.67 1544.91 L1733.31 1544.91 L1733.31 1548.85 L1713.4 1548.85 L1713.4 1544.91 Z" fill="#000000" fill-rule="nonzero" fill-opacity="1" /><path clip-path="url(#clip400)" d="M1742.8 1514.29 L1761.15 1514.29 L1761.15 1518.22 L1747.08 1518.22 L1747.08 1526.7 Q1748.1 1526.35 1749.12 1526.19 Q1750.14 1526 1751.15 1526 Q1756.94 1526 1760.32 1529.17 Q1763.7 1532.34 1763.7 1537.76 Q1763.7 1543.34 1760.23 1546.44 Q1756.76 1549.52 1750.44 1549.52 Q1748.26 1549.52 1745.99 1549.15 Q1743.75 1548.78 1741.34 1548.04 L1741.34 1543.34 Q1743.42 1544.47 1745.65 1545.03 Q1747.87 1545.58 1750.34 1545.58 Q1754.35 1545.58 1756.69 1543.48 Q1759.03 1541.37 1759.03 1537.76 Q1759.03 1534.15 1756.69 1532.04 Q1754.35 1529.94 1750.34 1529.94 Q1748.47 1529.94 1746.59 1530.35 Q1744.74 1530.77 1742.8 1531.65 L1742.8 1514.29 Z" fill="#000000" fill-rule="nonzero" fill-opacity="1" /><path clip-path="url(#clip400)" d="M1782.91 1517.37 Q1779.3 1517.37 1777.47 1520.93 Q1775.67 1524.47 1775.67 1531.6 Q1775.67 1538.71 1777.47 1542.27 Q1779.3 1545.82 1782.91 1545.82 Q1786.55 1545.82 1788.35 1542.27 Q1790.18 1538.71 1790.18 1531.6 Q1790.18 1524.47 1788.35 1520.93 Q1786.55 1517.37 1782.91 1517.37 M1782.91 1513.66 Q1788.72 1513.66 1791.78 1518.27 Q1794.86 1522.85 1794.86 1531.6 Q1794.86 1540.33 1791.78 1544.94 Q1788.72 1549.52 1782.91 1549.52 Q1777.1 1549.52 1774.03 1544.94 Q1770.97 1540.33 1770.97 1531.6 Q1770.97 1522.85 1774.03 1518.27 Q1777.1 1513.66 1782.91 1513.66 Z" fill="#000000" fill-rule="nonzero" fill-opacity="1" /><polyline clip-path="url(#clip402)" style="stroke:#000000; stroke-linecap:round; stroke-linejoin:round; stroke-width:2; stroke-opacity:0.1; fill:none" points="156.112,1464.67 1907.26,1464.67 "/>
<polyline clip-path="url(#clip402)" style="stroke:#000000; stroke-linecap:round; stroke-linejoin:round; stroke-width:2; stroke-opacity:0.1; fill:none" points="156.112,1155.98 1907.26,1155.98 "/>
<polyline clip-path="url(#clip402)" style="stroke:#000000; stroke-linecap:round; stroke-linejoin:round; stroke-width:2; stroke-opacity:0.1; fill:none" points="156.112,847.292 1907.26,847.292 "/>
<polyline clip-path="url(#clip402)" style="stroke:#000000; stroke-linecap:round; stroke-linejoin:round; stroke-width:2; stroke-opacity:0.1; fill:none" points="156.112,538.603 1907.26,538.603 "/>
<polyline clip-path="url(#clip402)" style="stroke:#000000; stroke-linecap:round; stroke-linejoin:round; stroke-width:2; stroke-opacity:0.1; fill:none" points="156.112,229.914 1907.26,229.914 "/>
<polyline clip-path="url(#clip400)" style="stroke:#000000; stroke-linecap:round; stroke-linejoin:round; stroke-width:4; stroke-opacity:1; fill:none" points="156.112,1486.45 156.112,47.2441 "/>
<polyline clip-path="url(#clip400)" style="stroke:#000000; stroke-linecap:round; stroke-linejoin:round; stroke-width:4; stroke-opacity:1; fill:none" points="156.112,1464.67 171.177,1464.67 "/>
<polyline clip-path="url(#clip400)" style="stroke:#000000; stroke-linecap:round; stroke-linejoin:round; stroke-width:4; stroke-opacity:1; fill:none" points="156.112,1155.98 171.177,1155.98 "/>
<polyline clip-path="url(#clip400)" style="stroke:#000000; stroke-linecap:round; stroke-linejoin:round; stroke-width:4; stroke-opacity:1; fill:none" points="156.112,847.292 171.177,847.292 "/>
<polyline clip-path="url(#clip400)" style="stroke:#000000; stroke-linecap:round; stroke-linejoin:round; stroke-width:4; stroke-opacity:1; fill:none" points="156.112,538.603 171.177,538.603 "/>
<polyline clip-path="url(#clip400)" style="stroke:#000000; stroke-linecap:round; stroke-linejoin:round; stroke-width:4; stroke-opacity:1; fill:none" points="156.112,229.914 171.177,229.914 "/>
<path clip-path="url(#clip400)" d="M62.9365 1450.47 Q59.3254 1450.47 57.4967 1454.03 Q55.6912 1457.58 55.6912 1464.71 Q55.6912 1471.81 57.4967 1475.38 Q59.3254 1478.92 62.9365 1478.92 Q66.5707 1478.92 68.3763 1475.38 Q70.205 1471.81 70.205 1464.71 Q70.205 1457.58 68.3763 1454.03 Q66.5707 1450.47 62.9365 1450.47 M62.9365 1446.77 Q68.7467 1446.77 71.8022 1451.37 Q74.8809 1455.96 74.8809 1464.71 Q74.8809 1473.43 71.8022 1478.04 Q68.7467 1482.62 62.9365 1482.62 Q57.1264 1482.62 54.0477 1478.04 Q50.9921 1473.43 50.9921 1464.71 Q50.9921 1455.96 54.0477 1451.37 Q57.1264 1446.77 62.9365 1446.77 Z" fill="#000000" fill-rule="nonzero" fill-opacity="1" /><path clip-path="url(#clip400)" d="M83.0984 1476.07 L87.9827 1476.07 L87.9827 1481.95 L83.0984 1481.95 L83.0984 1476.07 Z" fill="#000000" fill-rule="nonzero" fill-opacity="1" /><path clip-path="url(#clip400)" d="M108.168 1450.47 Q104.557 1450.47 102.728 1454.03 Q100.922 1457.58 100.922 1464.71 Q100.922 1471.81 102.728 1475.38 Q104.557 1478.92 108.168 1478.92 Q111.802 1478.92 113.608 1475.38 Q115.436 1471.81 115.436 1464.71 Q115.436 1457.58 113.608 1454.03 Q111.802 1450.47 108.168 1450.47 M108.168 1446.77 Q113.978 1446.77 117.033 1451.37 Q120.112 1455.96 120.112 1464.71 Q120.112 1473.43 117.033 1478.04 Q113.978 1482.62 108.168 1482.62 Q102.358 1482.62 99.2789 1478.04 Q96.2234 1473.43 96.2234 1464.71 Q96.2234 1455.96 99.2789 1451.37 Q102.358 1446.77 108.168 1446.77 Z" fill="#000000" fill-rule="nonzero" fill-opacity="1" /><path clip-path="url(#clip400)" d="M63.9319 1141.78 Q60.3208 1141.78 58.4921 1145.34 Q56.6865 1148.89 56.6865 1156.02 Q56.6865 1163.12 58.4921 1166.69 Q60.3208 1170.23 63.9319 1170.23 Q67.5661 1170.23 69.3717 1166.69 Q71.2004 1163.12 71.2004 1156.02 Q71.2004 1148.89 69.3717 1145.34 Q67.5661 1141.78 63.9319 1141.78 M63.9319 1138.08 Q69.742 1138.08 72.7976 1142.68 Q75.8763 1147.27 75.8763 1156.02 Q75.8763 1164.74 72.7976 1169.35 Q69.742 1173.93 63.9319 1173.93 Q58.1217 1173.93 55.043 1169.35 Q51.9875 1164.74 51.9875 1156.02 Q51.9875 1147.27 55.043 1142.68 Q58.1217 1138.08 63.9319 1138.08 Z" fill="#000000" fill-rule="nonzero" fill-opacity="1" /><path clip-path="url(#clip400)" d="M84.0938 1167.38 L88.978 1167.38 L88.978 1173.26 L84.0938 1173.26 L84.0938 1167.38 Z" fill="#000000" fill-rule="nonzero" fill-opacity="1" /><path clip-path="url(#clip400)" d="M99.2095 1138.7 L117.566 1138.7 L117.566 1142.64 L103.492 1142.64 L103.492 1151.11 Q104.51 1150.76 105.529 1150.6 Q106.547 1150.41 107.566 1150.41 Q113.353 1150.41 116.733 1153.59 Q120.112 1156.76 120.112 1162.17 Q120.112 1167.75 116.64 1170.85 Q113.168 1173.93 106.848 1173.93 Q104.672 1173.93 102.404 1173.56 Q100.159 1173.19 97.7511 1172.45 L97.7511 1167.75 Q99.8345 1168.89 102.057 1169.44 Q104.279 1170 106.756 1170 Q110.76 1170 113.098 1167.89 Q115.436 1165.78 115.436 1162.17 Q115.436 1158.56 113.098 1156.46 Q110.76 1154.35 106.756 1154.35 Q104.881 1154.35 103.006 1154.77 Q101.154 1155.18 99.2095 1156.06 L99.2095 1138.7 Z" fill="#000000" fill-rule="nonzero" fill-opacity="1" /><path clip-path="url(#clip400)" d="M53.7467 860.637 L61.3856 860.637 L61.3856 834.271 L53.0754 835.938 L53.0754 831.679 L61.3393 830.012 L66.0152 830.012 L66.0152 860.637 L73.654 860.637 L73.654 864.572 L53.7467 864.572 L53.7467 860.637 Z" fill="#000000" fill-rule="nonzero" fill-opacity="1" /><path clip-path="url(#clip400)" d="M83.0984 858.693 L87.9827 858.693 L87.9827 864.572 L83.0984 864.572 L83.0984 858.693 Z" fill="#000000" fill-rule="nonzero" fill-opacity="1" /><path clip-path="url(#clip400)" d="M108.168 833.091 Q104.557 833.091 102.728 836.656 Q100.922 840.197 100.922 847.327 Q100.922 854.433 102.728 857.998 Q104.557 861.54 108.168 861.54 Q111.802 861.54 113.608 857.998 Q115.436 854.433 115.436 847.327 Q115.436 840.197 113.608 836.656 Q111.802 833.091 108.168 833.091 M108.168 829.387 Q113.978 829.387 117.033 833.994 Q120.112 838.577 120.112 847.327 Q120.112 856.054 117.033 860.66 Q113.978 865.244 108.168 865.244 Q102.358 865.244 99.2789 860.66 Q96.2234 856.054 96.2234 847.327 Q96.2234 838.577 99.2789 833.994 Q102.358 829.387 108.168 829.387 Z" fill="#000000" fill-rule="nonzero" fill-opacity="1" /><path clip-path="url(#clip400)" d="M54.7421 551.948 L62.381 551.948 L62.381 525.582 L54.0708 527.249 L54.0708 522.99 L62.3347 521.323 L67.0106 521.323 L67.0106 551.948 L74.6494 551.948 L74.6494 555.883 L54.7421 555.883 L54.7421 551.948 Z" fill="#000000" fill-rule="nonzero" fill-opacity="1" /><path clip-path="url(#clip400)" d="M84.0938 550.003 L88.978 550.003 L88.978 555.883 L84.0938 555.883 L84.0938 550.003 Z" fill="#000000" fill-rule="nonzero" fill-opacity="1" /><path clip-path="url(#clip400)" d="M99.2095 521.323 L117.566 521.323 L117.566 525.258 L103.492 525.258 L103.492 533.73 Q104.51 533.383 105.529 533.221 Q106.547 533.036 107.566 533.036 Q113.353 533.036 116.733 536.207 Q120.112 539.378 120.112 544.795 Q120.112 550.374 116.64 553.476 Q113.168 556.554 106.848 556.554 Q104.672 556.554 102.404 556.184 Q100.159 555.814 97.7511 555.073 L97.7511 550.374 Q99.8345 551.508 102.057 552.064 Q104.279 552.619 106.756 552.619 Q110.76 552.619 113.098 550.513 Q115.436 548.406 115.436 544.795 Q115.436 541.184 113.098 539.078 Q110.76 536.971 106.756 536.971 Q104.881 536.971 103.006 537.388 Q101.154 537.804 99.2095 538.684 L99.2095 521.323 Z" fill="#000000" fill-rule="nonzero" fill-opacity="1" /><path clip-path="url(#clip400)" d="M56.9643 243.259 L73.2837 243.259 L73.2837 247.194 L51.3393 247.194 L51.3393 243.259 Q54.0014 240.504 58.5847 235.874 Q63.1911 231.222 64.3717 229.879 Q66.617 227.356 67.4967 225.62 Q68.3994 223.861 68.3994 222.171 Q68.3994 219.416 66.455 217.68 Q64.5337 215.944 61.4319 215.944 Q59.2328 215.944 56.7791 216.708 Q54.3486 217.472 51.5708 219.023 L51.5708 214.3 Q54.3949 213.166 56.8486 212.587 Q59.3023 212.009 61.3393 212.009 Q66.7096 212.009 69.9041 214.694 Q73.0985 217.379 73.0985 221.87 Q73.0985 223.999 72.2883 225.921 Q71.5013 227.819 69.3948 230.411 Q68.8161 231.083 65.7143 234.3 Q62.6124 237.495 56.9643 243.259 Z" fill="#000000" fill-rule="nonzero" fill-opacity="1" /><path clip-path="url(#clip400)" d="M83.0984 241.314 L87.9827 241.314 L87.9827 247.194 L83.0984 247.194 L83.0984 241.314 Z" fill="#000000" fill-rule="nonzero" fill-opacity="1" /><path clip-path="url(#clip400)" d="M108.168 215.712 Q104.557 215.712 102.728 219.277 Q100.922 222.819 100.922 229.948 Q100.922 237.055 102.728 240.62 Q104.557 244.161 108.168 244.161 Q111.802 244.161 113.608 240.62 Q115.436 237.055 115.436 229.948 Q115.436 222.819 113.608 219.277 Q111.802 215.712 108.168 215.712 M108.168 212.009 Q113.978 212.009 117.033 216.615 Q120.112 221.199 120.112 229.948 Q120.112 238.675 117.033 243.282 Q113.978 247.865 108.168 247.865 Q102.358 247.865 99.2789 243.282 Q96.2234 238.675 96.2234 229.948 Q96.2234 221.199 99.2789 216.615 Q102.358 212.009 108.168 212.009 Z" fill="#000000" fill-rule="nonzero" fill-opacity="1" /><polyline clip-path="url(#clip402)" style="stroke:#009af9; stroke-linecap:round; stroke-linejoin:round; stroke-width:4; stroke-opacity:1; fill:none" points="205.673,797.459 216.063,830.351 226.453,818.438 236.843,799.27 247.233,797.166 257.623,847.491 268.013,841.52 278.403,855.823 288.793,837.638 299.183,844.525 309.574,858.839 319.964,849.108 330.354,875.733 340.744,829.774 351.134,838.288 361.524,810.713 371.914,820.18 382.304,831.82 392.694,851.144 403.084,876.854 413.474,840.48 423.864,844.61 434.254,856.798 444.644,889.824 455.035,867.74 465.425,867.964 475.815,867.936 486.205,896.939 496.595,889.57 506.985,868.978 517.375,866.941 527.765,881.925 538.155,863.253 548.545,843.515 558.935,835.895 569.325,858.969 579.715,815.484 590.106,828.351 600.496,810.134 610.886,833.608 621.276,802.761 631.666,825.351 642.056,801.219 652.446,807.075 662.836,821.868 673.226,836.808 683.616,855.015 694.006,797.158 704.396,821.913 714.786,818.394 725.176,858.703 735.567,873.315 745.957,902.683 756.347,874.241 766.737,882.796 777.127,862.73 787.517,868.318 797.907,890.174 808.297,875.184 818.687,849.883 829.077,890.046 839.467,902.331 849.857,939.776 860.247,929.894 870.637,901.204 881.028,937.134 891.418,873.872 901.808,883.448 912.198,880.337 922.588,881.656 932.978,862.806 943.368,857.846 953.758,864.844 964.148,840.982 974.538,870.991 984.928,879.181 995.318,880.991 1005.71,837.928 1016.1,830.312 1026.49,849.8 1036.88,856.334 1047.27,854.691 1057.66,835.35 1068.05,861.828 1078.44,849.287 1088.83,842.258 1099.22,855.448 1109.61,827.627 1120,822.821 1130.39,847.495 1140.78,865.447 1151.17,860.81 1161.56,859.659 1171.95,827.519 1182.34,812.55 1192.73,762.638 1203.12,803.739 1213.51,796.523 1223.9,836.266 1234.29,832.013 1244.68,816.52 1255.07,797.952 1265.46,833.45 1275.85,819.588 1286.24,838.277 1296.63,842.4 1307.02,840.209 1317.41,871.876 1327.8,853.922 1338.19,823.536 1348.58,838.358 1358.97,831.497 1369.36,813.099 1379.75,806.325 1390.14,755.354 1400.53,805.239 1410.92,816.61 1421.31,821.405 1431.7,809.236 1442.09,806.633 1452.48,789.118 1462.87,842.436 1473.26,831.778 1483.65,814.316 1494.04,801.943 1504.43,756.028 1514.82,783.679 1525.21,800.739 1535.6,860.418 1545.99,885.265 1556.38,860.609 1566.77,833.465 1577.16,867.178 1587.55,859.815 1597.94,874.012 1608.33,878.654 1618.72,874.959 1629.11,873.777 1639.5,855.024 1649.89,839.824 1660.28,810.854 1670.67,787.404 1681.06,792.909 1691.45,845.377 1701.84,821.656 1712.23,799.355 1722.62,805.319 1733.01,789.161 1743.4,805.084 1753.79,799.66 1764.18,835.512 1774.57,843.679 1784.96,839.572 1795.35,850.5 1805.74,835.675 1816.13,787.876 1826.52,757.299 1836.91,795.49 1847.3,792.161 1857.69,843.36 "/>
<polyline clip-path="url(#clip402)" style="stroke:#e26f46; stroke-linecap:round; stroke-linejoin:round; stroke-width:4; stroke-opacity:1; fill:none" points="205.673,973.348 216.063,975.787 226.453,975.377 236.843,974.756 247.233,973.256 257.623,975.821 268.013,976.676 278.403,978.521 288.793,977.823 299.183,978.14 309.574,980.189 319.964,980.173 330.354,983.257 340.744,981.152 351.134,982.018 361.524,980.45 371.914,980.804 382.304,981.776 392.694,983.563 403.084,985.004 413.474,983.688 423.864,983.658 434.254,984.475 444.644,987.125 455.035,987.548 465.425,987.524 475.815,988.274 486.205,990.931 496.595,992.001 506.985,990.846 517.375,990.382 527.765,992.618 538.155,991.92 548.545,990.911 558.935,990.399 569.325,993.178 579.715,990.846 590.106,991.457 600.496,990.113 610.886,990.255 621.276,987.923 631.666,988.215 642.056,985.984 652.446,985.42 662.836,984.499 673.226,984.659 683.616,985.365 694.006,983.312 704.396,983.635 714.786,984.031 725.176,986.075 735.567,987.673 745.957,990.427 756.347,990.034 766.737,991.014 777.127,991.722 787.517,993.004 797.907,994.605 808.297,993.717 818.687,991.975 829.077,994.857 839.467,996.144 849.857,1000.1 860.247,1001.67 870.637,1002.24 881.028,1005.07 891.418,1003.3 901.808,1003.99 912.198,1004.51 922.588,1004.47 932.978,1003.39 943.368,1002.73 953.758,1002.99 964.148,1001.42 974.538,1001.64 984.928,1002.47 995.318,1002.76 1005.71,1000.38 1016.1,998.691 1026.49,998.507 1036.88,999.048 1047.27,999.873 1057.66,998.859 1068.05,1000.2 1078.44,998.935 1088.83,997.108 1099.22,997.956 1109.61,996.848 1120,996.173 1130.39,996.631 1140.78,998.012 1151.17,996.865 1161.56,996.904 1171.95,995.817 1182.34,993.368 1192.73,990.016 1203.12,989.177 1213.51,987.907 1223.9,990.269 1234.29,989.726 1244.68,988.424 1255.07,987.115 1265.46,988.162 1275.85,987.379 1286.24,987.091 1296.63,987.064 1307.02,986.64 1317.41,988.24 1327.8,988.038 1338.19,987.199 1348.58,987.529 1358.97,987.532 1369.36,985.458 1379.75,984.664 1390.14,981.256 1400.53,981.472 1410.92,982.205 1421.31,981.676 1431.7,979.814 1442.09,979.295 1452.48,977.184 1462.87,979.087 1473.26,979.142 1483.65,979.143 1494.04,977.695 1504.43,974.572 1514.82,973.536 1525.21,974.016 1535.6,977.713 1545.99,981.563 1556.38,982.292 1566.77,981.481 1577.16,984.328 1587.55,983.367 1597.94,984.762 1608.33,985.991 1618.72,986.337 1629.11,987.27 1639.5,987.609 1649.89,986.262 1660.28,984.369 1670.67,982.467 1681.06,982.069 1691.45,984.277 1701.84,984.412 1712.23,983.091 1722.62,982.248 1733.01,980.314 1743.4,980.615 1753.79,980.119 1764.18,982.297 1774.57,981.075 1784.96,981.028 1795.35,981.259 1805.74,981.896 1816.13,980.119 1826.52,977.847 1836.91,978.588 1847.3,977.653 1857.69,979.677 "/>
<polyline clip-path="url(#clip402)" style="stroke:#3da44d; stroke-linecap:round; stroke-linejoin:round; stroke-width:4; stroke-opacity:1; fill:none" points="205.673,1251.9 216.063,1261.88 226.453,1256.86 236.843,1246.67 247.233,1250.84 257.623,1272.04 268.013,1267.08 278.403,1270.85 288.793,1264.64 299.183,1269.44 309.574,1272.34 319.964,1268.85 330.354,1275.92 340.744,1257.62 351.134,1259.92 361.524,1248.69 371.914,1252.29 382.304,1255.46 392.694,1261.41 403.084,1274.92 413.474,1259.41 423.864,1263.29 434.254,1269.3 444.644,1282.67 455.035,1270.44 465.425,1273.31 475.815,1272.69 486.205,1283.84 496.595,1278.98 506.985,1273.45 517.375,1276.03 527.765,1278.79 538.155,1271.83 548.545,1263.85 558.935,1260.41 569.325,1263.33 579.715,1243.42 590.106,1246.86 600.496,1237.93 610.886,1251.17 621.276,1238.61 631.666,1249.95 642.056,1241.51 652.446,1244.85 662.836,1256.84 673.226,1265.21 683.616,1274.6 694.006,1245.54 704.396,1257.97 714.786,1252.59 725.176,1270.15 735.567,1275.33 745.957,1286.87 756.347,1274.29 766.737,1278.74 777.127,1265.13 787.517,1264.96 797.907,1275.36 808.297,1272.16 818.687,1264.23 829.077,1279.93 839.467,1286.31 849.857,1300.08 860.247,1293.99 870.637,1277.56 881.028,1294.38 891.418,1262.79 901.808,1267.28 912.198,1263.98 922.588,1266.07 932.978,1258.03 943.368,1256.7 953.758,1259.63 964.148,1248.67 974.538,1267.23 984.928,1269.9 995.318,1270.99 1005.71,1251.49 1016.1,1250.95 1026.49,1262.68 1036.88,1263.73 1047.27,1258.19 1057.66,1247.66 1068.05,1258.45 1078.44,1254.87 1088.83,1256.92 1099.22,1260.97 1109.61,1245.16 1120,1241.64 1130.39,1254.46 1140.78,1260.42 1151.17,1262.89 1161.56,1262.22 1171.95,1243.78 1182.34,1241.59 1192.73,1216.42 1203.12,1242.83 1213.51,1239.56 1223.9,1252.75 1234.29,1251.39 1244.68,1245.11 1255.07,1235.22 1265.46,1252.16 1275.85,1245.09 1286.24,1258.07 1296.63,1261.07 1307.02,1261.78 1317.41,1276.82 1327.8,1268.17 1338.19,1251.79 1348.58,1259.3 1358.97,1254.26 1369.36,1249.98 1379.75,1246.57 1390.14,1223.3 1400.53,1250.82 1410.92,1253.09 1421.31,1257.6 1431.7,1256.92 1442.09,1255.85 1452.48,1251.74 1462.87,1275.91 1473.26,1270.17 1483.65,1259.03 1494.04,1256.14 1504.43,1237.18 1514.82,1255.05 1525.21,1261.27 1535.6,1283.12 1545.99,1286.99 1556.38,1272.58 1566.77,1260.4 1577.16,1271.7 1587.55,1273.86 1597.94,1279.99 1608.33,1281.46 1618.72,1281.19 1629.11,1279.79 1639.5,1268.7 1649.89,1265.47 1660.28,1254.02 1670.67,1244.01 1681.06,1245.37 1691.45,1268.18 1701.84,1252.12 1712.23,1241.17 1722.62,1246.36 1733.01,1241.67 1743.4,1247.87 1753.79,1244.25 1764.18,1257.03 1774.57,1268.73 1784.96,1267.58 1795.35,1274.91 1805.74,1264.17 1816.13,1239.46 1826.52,1224.66 1836.91,1242.19 1847.3,1241.7 1857.69,1265.49 "/>
<polyline clip-path="url(#clip402)" style="stroke:#c271d2; stroke-linecap:round; stroke-linejoin:round; stroke-width:4; stroke-opacity:1; fill:none" points="205.673,1443.37 216.063,1444.46 226.453,1444.04 236.843,1443.43 247.233,1443.41 257.623,1445.03 268.013,1444.75 278.403,1445.13 288.793,1444.44 299.183,1444.6 309.574,1444.98 319.964,1444.56 330.354,1445.35 340.744,1443.71 351.134,1443.97 361.524,1443.04 371.914,1443.4 382.304,1443.8 392.694,1444.42 403.084,1445.18 413.474,1443.85 423.864,1443.94 434.254,1444.3 444.644,1445.31 455.035,1444.41 465.425,1444.31 475.815,1444.21 486.205,1445.1 496.595,1444.67 506.985,1443.81 517.375,1443.65 527.765,1444.1 538.155,1443.32 548.545,1442.58 558.935,1442.33 569.325,1443.19 579.715,1441.63 590.106,1442.21 600.496,1441.65 610.886,1442.6 621.276,1441.57 631.666,1442.5 642.056,1441.73 652.446,1442.07 662.836,1442.67 673.226,1443.22 683.616,1443.82 694.006,1441.82 704.396,1442.78 714.786,1442.72 725.176,1444.12 735.567,1444.53 745.957,1445.4 756.347,1444.24 766.737,1444.42 777.127,1443.61 787.517,1443.75 797.907,1444.43 808.297,1443.76 818.687,1442.78 829.077,1444.19 839.467,1444.48 849.857,1445.65 860.247,1445.03 870.637,1443.75 881.028,1444.93 891.418,1442.34 901.808,1442.67 912.198,1442.5 922.588,1442.51 932.978,1441.76 943.368,1441.6 953.758,1441.91 964.148,1441.03 974.538,1442.25 984.928,1442.54 995.318,1442.57 1005.71,1440.9 1016.1,1440.74 1026.49,1441.6 1036.88,1441.9 1047.27,1441.87 1057.66,1441.2 1068.05,1442.29 1078.44,1441.83 1088.83,1441.62 1099.22,1442.17 1109.61,1441.19 1120,1441.15 1130.39,1442.17 1140.78,1442.86 1151.17,1442.66 1161.56,1442.6 1171.95,1441.44 1182.34,1441.02 1192.73,1439.41 1203.12,1441.22 1213.51,1441.13 1223.9,1442.7 1234.29,1442.58 1244.68,1442.09 1255.07,1441.56 1265.46,1442.93 1275.85,1442.48 1286.24,1443.18 1296.63,1443.32 1307.02,1443.23 1317.41,1444.29 1327.8,1443.57 1338.19,1442.49 1348.58,1443.06 1358.97,1442.83 1369.36,1442.23 1379.75,1442.09 1390.14,1440.49 1400.53,1442.44 1410.92,1442.91 1421.31,1443.11 1431.7,1442.73 1442.09,1442.71 1452.48,1442.2 1462.87,1444.06 1473.26,1443.66 1483.65,1443.07 1494.04,1442.7 1504.43,1441.29 1514.82,1442.4 1525.21,1443.07 1535.6,1445.03 1545.99,1445.72 1556.38,1444.75 1566.77,1443.76 1577.16,1444.84 1587.55,1444.48 1597.94,1444.85 1608.33,1444.87 1618.72,1444.6 1629.11,1444.44 1639.5,1443.69 1649.89,1443.11 1660.28,1442.12 1670.67,1441.43 1681.06,1441.79 1691.45,1443.69 1701.84,1442.87 1712.23,1442.17 1722.62,1442.49 1733.01,1442.04 1743.4,1442.71 1753.79,1442.61 1764.18,1443.88 1774.57,1444.1 1784.96,1443.91 1795.35,1444.22 1805.74,1443.67 1816.13,1442.09 1826.52,1441.23 1836.91,1442.71 1847.3,1442.7 1857.69,1444.44 "/>
<polyline clip-path="url(#clip402)" style="stroke:#ac8d18; stroke-linecap:round; stroke-linejoin:round; stroke-width:4; stroke-opacity:1; fill:none" points="205.673,167.53 216.063,170.788 226.453,178.356 236.843,202.102 247.233,173.434 257.623,139.364 268.013,160.156 278.403,165.324 288.793,168.036 299.183,150.754 309.574,161.731 319.964,164.365 330.354,174.043 340.744,196.266 351.134,199.224 361.524,212.248 371.914,209.436 382.304,213.423 392.694,216.114 403.084,183.29 413.474,206.789 423.864,191.07 434.254,177.659 444.644,158.148 455.035,193.435 465.425,174.824 475.815,178.965 486.205,166.003 496.595,183.579 506.985,176.107 517.375,153.992 527.765,167.872 538.155,174.611 548.545,185.22 558.935,191.365 569.325,220.296 579.715,250.967 590.106,256.26 600.496,270.625 610.886,242.006 621.276,253.495 631.666,233.084 642.056,234.893 652.446,227.233 662.836,185.287 673.226,162.606 683.616,137.925 694.006,204.61 704.396,178.383 714.786,204.161 725.176,176.113 735.567,172.773 745.957,157.233 756.347,181.844 766.737,170.141 777.127,216.838 787.517,229.516 797.907,209.364 808.297,198.074 818.687,195.983 829.077,178.028 839.467,160.531 849.857,145.551 860.247,168.623 870.637,219.002 881.028,183.243 891.418,254.135 901.808,246.694 912.198,260.286 922.588,250.367 932.978,259.886 943.368,257.75 953.758,254.614 964.148,270.325 974.538,220.89 984.928,221.225 995.318,218.115 1005.71,248.562 1016.1,236.903 1026.49,205.499 1036.88,212.384 1047.27,242.705 1057.66,265.106 1068.05,255.469 1078.44,251.36 1088.83,225.402 1099.22,227.572 1109.61,264.242 1120,274.262 1130.39,250.217 1140.78,251.128 1151.17,226.806 1161.56,228.548 1171.95,271.514 1182.34,255.482 1192.73,294.91 1203.12,232.276 1213.51,236.918 1223.9,238.123 1234.29,237.665 1244.68,243.601 1255.07,262.755 1265.46,236.035 1275.85,249.475 1286.24,210.539 1296.63,200.431 1307.02,191.572 1317.41,159.367 1327.8,179.023 1338.19,218.894 1348.58,203.227 1358.97,219.914 1369.36,209.262 1379.75,216.097 1390.14,249.099 1400.53,189.143 1410.92,197.72 1421.31,179.698 1431.7,159.69 1442.09,161.195 1452.48,152.331 1462.87,101.127 1473.26,118.7 1483.65,156.492 1494.04,150.078 1504.43,176.156 1514.82,120.842 1525.21,114.478 1535.6,87.9763 1545.99,115.816 1556.38,163.884 1566.77,186.496 1577.16,183.911 1587.55,153.439 1597.94,141.701 1608.33,141.561 1618.72,135.21 1629.11,142.605 1639.5,177.866 1649.89,167.171 1660.28,180.815 1670.67,195.065 1681.06,197.594 1691.45,160.94 1701.84,213.315 1712.23,233.345 1722.62,215.355 1733.01,211.676 1743.4,206.232 1753.79,216.725 1764.18,211.315 1774.57,153.744 1784.96,152.718 1795.35,125.896 1805.74,167.049 1816.13,221.62 1826.52,245.578 1836.91,220.519 1847.3,217.063 1857.69,174.394 "/>
<path clip-path="url(#clip400)" d="M1980.48 406.258 L2352.76 406.258 L2352.76 95.2176 L1980.48 95.2176  Z" fill="#ffffff" fill-rule="evenodd" fill-opacity="1"/>
<polyline clip-path="url(#clip400)" style="stroke:#000000; stroke-linecap:round; stroke-linejoin:round; stroke-width:4; stroke-opacity:1; fill:none" points="1980.48,406.258 2352.76,406.258 2352.76,95.2176 1980.48,95.2176 1980.48,406.258 "/>
<polyline clip-path="url(#clip400)" style="stroke:#009af9; stroke-linecap:round; stroke-linejoin:round; stroke-width:4; stroke-opacity:1; fill:none" points="2004.88,147.058 2151.33,147.058 "/>
<path clip-path="url(#clip400)" d="M2187.63 141.398 Q2184.21 141.398 2182.22 144.083 Q2180.22 146.745 2180.22 151.398 Q2180.22 156.051 2182.19 158.736 Q2184.18 161.398 2187.63 161.398 Q2191.03 161.398 2193.03 158.713 Q2195.02 156.027 2195.02 151.398 Q2195.02 146.791 2193.03 144.106 Q2191.03 141.398 2187.63 141.398 M2187.63 137.787 Q2193.19 137.787 2196.36 141.398 Q2199.53 145.009 2199.53 151.398 Q2199.53 157.764 2196.36 161.398 Q2193.19 165.009 2187.63 165.009 Q2182.05 165.009 2178.88 161.398 Q2175.73 157.764 2175.73 151.398 Q2175.73 145.009 2178.88 141.398 Q2182.05 137.787 2187.63 137.787 Z" fill="#000000" fill-rule="nonzero" fill-opacity="1" /><path clip-path="url(#clip400)" d="M2206.15 154.106 L2206.15 138.412 L2210.41 138.412 L2210.41 153.944 Q2210.41 157.625 2211.84 159.476 Q2213.28 161.305 2216.15 161.305 Q2219.6 161.305 2221.59 159.106 Q2223.6 156.907 2223.6 153.111 L2223.6 138.412 L2227.86 138.412 L2227.86 164.338 L2223.6 164.338 L2223.6 160.356 Q2222.05 162.717 2219.99 163.875 Q2217.96 165.009 2215.25 165.009 Q2210.78 165.009 2208.47 162.231 Q2206.15 159.453 2206.15 154.106 M2216.87 137.787 L2216.87 137.787 Z" fill="#000000" fill-rule="nonzero" fill-opacity="1" /><path clip-path="url(#clip400)" d="M2240.85 131.051 L2240.85 138.412 L2249.62 138.412 L2249.62 141.722 L2240.85 141.722 L2240.85 155.796 Q2240.85 158.967 2241.71 159.87 Q2242.59 160.773 2245.25 160.773 L2249.62 160.773 L2249.62 164.338 L2245.25 164.338 Q2240.32 164.338 2238.44 162.509 Q2236.57 160.657 2236.57 155.796 L2236.57 141.722 L2233.44 141.722 L2233.44 138.412 L2236.57 138.412 L2236.57 131.051 L2240.85 131.051 Z" fill="#000000" fill-rule="nonzero" fill-opacity="1" /><path clip-path="url(#clip400)" d="M2259.34 160.449 L2259.34 174.199 L2255.06 174.199 L2255.06 138.412 L2259.34 138.412 L2259.34 142.347 Q2260.69 140.032 2262.72 138.921 Q2264.78 137.787 2267.63 137.787 Q2272.35 137.787 2275.29 141.537 Q2278.26 145.287 2278.26 151.398 Q2278.26 157.509 2275.29 161.259 Q2272.35 165.009 2267.63 165.009 Q2264.78 165.009 2262.72 163.898 Q2260.69 162.763 2259.34 160.449 M2273.84 151.398 Q2273.84 146.699 2271.89 144.037 Q2269.97 141.352 2266.59 141.352 Q2263.21 141.352 2261.27 144.037 Q2259.34 146.699 2259.34 151.398 Q2259.34 156.097 2261.27 158.782 Q2263.21 161.444 2266.59 161.444 Q2269.97 161.444 2271.89 158.782 Q2273.84 156.097 2273.84 151.398 Z" fill="#000000" fill-rule="nonzero" fill-opacity="1" /><path clip-path="url(#clip400)" d="M2284.88 154.106 L2284.88 138.412 L2289.14 138.412 L2289.14 153.944 Q2289.14 157.625 2290.57 159.476 Q2292.01 161.305 2294.88 161.305 Q2298.33 161.305 2300.32 159.106 Q2302.33 156.907 2302.33 153.111 L2302.33 138.412 L2306.59 138.412 L2306.59 164.338 L2302.33 164.338 L2302.33 160.356 Q2300.78 162.717 2298.72 163.875 Q2296.68 165.009 2293.97 165.009 Q2289.51 165.009 2287.19 162.231 Q2284.88 159.453 2284.88 154.106 M2295.59 137.787 L2295.59 137.787 Z" fill="#000000" fill-rule="nonzero" fill-opacity="1" /><path clip-path="url(#clip400)" d="M2319.58 131.051 L2319.58 138.412 L2328.35 138.412 L2328.35 141.722 L2319.58 141.722 L2319.58 155.796 Q2319.58 158.967 2320.43 159.87 Q2321.31 160.773 2323.97 160.773 L2328.35 160.773 L2328.35 164.338 L2323.97 164.338 Q2319.04 164.338 2317.17 162.509 Q2315.29 160.657 2315.29 155.796 L2315.29 141.722 L2312.17 141.722 L2312.17 138.412 L2315.29 138.412 L2315.29 131.051 L2319.58 131.051 Z" fill="#000000" fill-rule="nonzero" fill-opacity="1" /><polyline clip-path="url(#clip400)" style="stroke:#e26f46; stroke-linecap:round; stroke-linejoin:round; stroke-width:4; stroke-opacity:1; fill:none" points="2004.88,198.898 2151.33,198.898 "/>
<path clip-path="url(#clip400)" d="M2196.24 191.247 L2196.24 195.229 Q2194.44 194.233 2192.61 193.747 Q2190.8 193.238 2188.95 193.238 Q2184.81 193.238 2182.52 195.877 Q2180.22 198.492 2180.22 203.238 Q2180.22 207.983 2182.52 210.622 Q2184.81 213.238 2188.95 213.238 Q2190.8 213.238 2192.61 212.752 Q2194.44 212.242 2196.24 211.247 L2196.24 215.182 Q2194.46 216.016 2192.54 216.432 Q2190.64 216.849 2188.49 216.849 Q2182.63 216.849 2179.18 213.168 Q2175.73 209.488 2175.73 203.238 Q2175.73 196.895 2179.21 193.261 Q2182.7 189.627 2188.77 189.627 Q2190.73 189.627 2192.61 190.043 Q2194.48 190.437 2196.24 191.247 Z" fill="#000000" fill-rule="nonzero" fill-opacity="1" /><path clip-path="url(#clip400)" d="M2213.7 193.238 Q2210.27 193.238 2208.28 195.923 Q2206.29 198.585 2206.29 203.238 Q2206.29 207.891 2208.26 210.576 Q2210.25 213.238 2213.7 213.238 Q2217.1 213.238 2219.09 210.553 Q2221.08 207.867 2221.08 203.238 Q2221.08 198.631 2219.09 195.946 Q2217.1 193.238 2213.7 193.238 M2213.7 189.627 Q2219.25 189.627 2222.42 193.238 Q2225.59 196.849 2225.59 203.238 Q2225.59 209.604 2222.42 213.238 Q2219.25 216.849 2213.7 216.849 Q2208.12 216.849 2204.95 213.238 Q2201.8 209.604 2201.8 203.238 Q2201.8 196.849 2204.95 193.238 Q2208.12 189.627 2213.7 189.627 Z" fill="#000000" fill-rule="nonzero" fill-opacity="1" /><path clip-path="url(#clip400)" d="M2254.21 200.529 L2254.21 216.178 L2249.95 216.178 L2249.95 200.668 Q2249.95 196.988 2248.51 195.159 Q2247.08 193.33 2244.21 193.33 Q2240.76 193.33 2238.77 195.53 Q2236.78 197.729 2236.78 201.525 L2236.78 216.178 L2232.49 216.178 L2232.49 190.252 L2236.78 190.252 L2236.78 194.28 Q2238.3 191.942 2240.36 190.784 Q2242.45 189.627 2245.15 189.627 Q2249.62 189.627 2251.91 192.405 Q2254.21 195.159 2254.21 200.529 Z" fill="#000000" fill-rule="nonzero" fill-opacity="1" /><path clip-path="url(#clip400)" d="M2279.23 191.016 L2279.23 195.043 Q2277.42 194.117 2275.48 193.655 Q2273.53 193.192 2271.45 193.192 Q2268.28 193.192 2266.68 194.164 Q2265.11 195.136 2265.11 197.08 Q2265.11 198.562 2266.24 199.418 Q2267.38 200.252 2270.8 201.016 L2272.26 201.34 Q2276.8 202.312 2278.7 204.094 Q2280.62 205.854 2280.62 209.025 Q2280.62 212.636 2277.75 214.742 Q2274.9 216.849 2269.9 216.849 Q2267.82 216.849 2265.55 216.432 Q2263.3 216.039 2260.8 215.228 L2260.8 210.83 Q2263.16 212.057 2265.46 212.682 Q2267.75 213.284 2269.99 213.284 Q2273 213.284 2274.62 212.266 Q2276.24 211.224 2276.24 209.349 Q2276.24 207.613 2275.06 206.687 Q2273.9 205.761 2269.95 204.904 L2268.46 204.557 Q2264.51 203.724 2262.75 202.011 Q2260.99 200.275 2260.99 197.266 Q2260.99 193.608 2263.58 191.618 Q2266.17 189.627 2270.94 189.627 Q2273.3 189.627 2275.39 189.974 Q2277.47 190.321 2279.23 191.016 Z" fill="#000000" fill-rule="nonzero" fill-opacity="1" /><polyline clip-path="url(#clip400)" style="stroke:#3da44d; stroke-linecap:round; stroke-linejoin:round; stroke-width:4; stroke-opacity:1; fill:none" points="2004.88,250.738 2151.33,250.738 "/>
<path clip-path="url(#clip400)" d="M2197.45 252.369 L2197.45 268.018 L2193.19 268.018 L2193.19 252.508 Q2193.19 248.828 2191.75 246.999 Q2190.32 245.17 2187.45 245.17 Q2184 245.17 2182.01 247.37 Q2180.02 249.569 2180.02 253.365 L2180.02 268.018 L2175.73 268.018 L2175.73 231.999 L2180.02 231.999 L2180.02 246.12 Q2181.54 243.782 2183.6 242.624 Q2185.69 241.467 2188.4 241.467 Q2192.86 241.467 2195.16 244.245 Q2197.45 246.999 2197.45 252.369 Z" fill="#000000" fill-rule="nonzero" fill-opacity="1" /><path clip-path="url(#clip400)" d="M2215.99 245.078 Q2212.56 245.078 2210.57 247.763 Q2208.58 250.425 2208.58 255.078 Q2208.58 259.731 2210.55 262.416 Q2212.54 265.078 2215.99 265.078 Q2219.39 265.078 2221.38 262.393 Q2223.37 259.707 2223.37 255.078 Q2223.37 250.471 2221.38 247.786 Q2219.39 245.078 2215.99 245.078 M2215.99 241.467 Q2221.54 241.467 2224.72 245.078 Q2227.89 248.689 2227.89 255.078 Q2227.89 261.444 2224.72 265.078 Q2221.54 268.689 2215.99 268.689 Q2210.41 268.689 2207.24 265.078 Q2204.09 261.444 2204.09 255.078 Q2204.09 248.689 2207.24 245.078 Q2210.41 241.467 2215.99 241.467 Z" fill="#000000" fill-rule="nonzero" fill-opacity="1" /><path clip-path="url(#clip400)" d="M2234.51 257.786 L2234.51 242.092 L2238.77 242.092 L2238.77 257.624 Q2238.77 261.305 2240.2 263.156 Q2241.64 264.985 2244.51 264.985 Q2247.96 264.985 2249.95 262.786 Q2251.96 260.587 2251.96 256.791 L2251.96 242.092 L2256.22 242.092 L2256.22 268.018 L2251.96 268.018 L2251.96 264.036 Q2250.41 266.397 2248.35 267.555 Q2246.31 268.689 2243.6 268.689 Q2239.14 268.689 2236.82 265.911 Q2234.51 263.133 2234.51 257.786 M2245.22 241.467 L2245.22 241.467 Z" fill="#000000" fill-rule="nonzero" fill-opacity="1" /><path clip-path="url(#clip400)" d="M2280.02 246.073 Q2279.3 245.657 2278.44 245.471 Q2277.61 245.263 2276.59 245.263 Q2272.98 245.263 2271.03 247.624 Q2269.11 249.962 2269.11 254.36 L2269.11 268.018 L2264.83 268.018 L2264.83 242.092 L2269.11 242.092 L2269.11 246.12 Q2270.46 243.758 2272.61 242.624 Q2274.76 241.467 2277.84 241.467 Q2278.28 241.467 2278.81 241.536 Q2279.34 241.583 2279.99 241.698 L2280.02 246.073 Z" fill="#000000" fill-rule="nonzero" fill-opacity="1" /><path clip-path="url(#clip400)" d="M2301.01 242.856 L2301.01 246.883 Q2299.21 245.957 2297.26 245.495 Q2295.32 245.032 2293.23 245.032 Q2290.06 245.032 2288.46 246.004 Q2286.89 246.976 2286.89 248.92 Q2286.89 250.402 2288.02 251.258 Q2289.16 252.092 2292.59 252.856 L2294.04 253.18 Q2298.58 254.152 2300.48 255.934 Q2302.4 257.694 2302.4 260.865 Q2302.4 264.476 2299.53 266.582 Q2296.68 268.689 2291.68 268.689 Q2289.6 268.689 2287.33 268.272 Q2285.09 267.879 2282.59 267.068 L2282.59 262.67 Q2284.95 263.897 2287.24 264.522 Q2289.53 265.124 2291.77 265.124 Q2294.78 265.124 2296.4 264.106 Q2298.02 263.064 2298.02 261.189 Q2298.02 259.453 2296.84 258.527 Q2295.69 257.601 2291.73 256.744 L2290.25 256.397 Q2286.29 255.564 2284.53 253.851 Q2282.77 252.115 2282.77 249.106 Q2282.77 245.448 2285.36 243.458 Q2287.96 241.467 2292.72 241.467 Q2295.09 241.467 2297.17 241.814 Q2299.25 242.161 2301.01 242.856 Z" fill="#000000" fill-rule="nonzero" fill-opacity="1" /><polyline clip-path="url(#clip400)" style="stroke:#c271d2; stroke-linecap:round; stroke-linejoin:round; stroke-width:4; stroke-opacity:1; fill:none" points="2004.88,302.578 2151.33,302.578 "/>
<path clip-path="url(#clip400)" d="M2190.92 297.913 Q2190.2 297.497 2189.34 297.311 Q2188.51 297.103 2187.49 297.103 Q2183.88 297.103 2181.94 299.464 Q2180.02 301.802 2180.02 306.2 L2180.02 319.858 L2175.73 319.858 L2175.73 293.932 L2180.02 293.932 L2180.02 297.96 Q2181.36 295.598 2183.51 294.464 Q2185.66 293.307 2188.74 293.307 Q2189.18 293.307 2189.72 293.376 Q2190.25 293.423 2190.9 293.538 L2190.92 297.913 Z" fill="#000000" fill-rule="nonzero" fill-opacity="1" /><polyline clip-path="url(#clip400)" style="stroke:#ac8d18; stroke-linecap:round; stroke-linejoin:round; stroke-width:4; stroke-opacity:1; fill:none" points="2004.88,354.418 2151.33,354.418 "/>
<path clip-path="url(#clip400)" d="M2175.73 345.772 L2179.99 345.772 L2185.32 366.003 L2190.62 345.772 L2195.64 345.772 L2200.97 366.003 L2206.27 345.772 L2210.53 345.772 L2203.74 371.698 L2198.72 371.698 L2193.14 350.448 L2187.54 371.698 L2182.52 371.698 L2175.73 345.772 Z" fill="#000000" fill-rule="nonzero" fill-opacity="1" /></svg>
