<?xml version="1.0" encoding="utf-8"?>
<svg xmlns="http://www.w3.org/2000/svg" xmlns:xlink="http://www.w3.org/1999/xlink" width="150" height="100" viewBox="0 0 600 400">
<defs>
  <clipPath id="clip930">
    <rect x="0" y="0" width="600" height="400"/>
  </clipPath>
</defs>
<path clip-path="url(#clip930)" d="
M0 400 L600 400 L600 0 L0 0  Z
  " fill="#ffffff" fill-rule="evenodd" fill-opacity="1"/>
<defs>
  <clipPath id="clip931">
    <rect x="120" y="0" width="421" height="400"/>
  </clipPath>
</defs>
<path clip-path="url(#clip930)" d="
M36.9621 371.612 L474.146 371.612 L474.146 11.811 L36.9621 11.811  Z
  " fill="#ffffff" fill-rule="evenodd" fill-opacity="1"/>
<defs>
  <clipPath id="clip932">
    <rect x="36" y="11" width="438" height="361"/>
  </clipPath>
</defs>
<polyline clip-path="url(#clip932)" style="stroke:#000000; stroke-width:0.5; stroke-opacity:0.1; fill:none" points="
  46.7413,371.612 46.7413,11.811 
  "/>
<polyline clip-path="url(#clip932)" style="stroke:#000000; stroke-width:0.5; stroke-opacity:0.1; fill:none" points="
  176.439,371.612 176.439,11.811 
  "/>
<polyline clip-path="url(#clip932)" style="stroke:#000000; stroke-width:0.5; stroke-opacity:0.1; fill:none" points="
  306.136,371.612 306.136,11.811 
  "/>
<polyline clip-path="url(#clip932)" style="stroke:#000000; stroke-width:0.5; stroke-opacity:0.1; fill:none" points="
  435.834,371.612 435.834,11.811 
  "/>
<polyline clip-path="url(#clip930)" style="stroke:#000000; stroke-width:1; stroke-opacity:1; fill:none" points="
  36.9621,371.612 474.146,371.612 
  "/>
<polyline clip-path="url(#clip930)" style="stroke:#000000; stroke-width:1; stroke-opacity:1; fill:none" points="
  46.7413,371.612 46.7413,367.294 
  "/>
<polyline clip-path="url(#clip930)" style="stroke:#000000; stroke-width:1; stroke-opacity:1; fill:none" points="
  176.439,371.612 176.439,367.294 
  "/>
<polyline clip-path="url(#clip930)" style="stroke:#000000; stroke-width:1; stroke-opacity:1; fill:none" points="
  306.136,371.612 306.136,367.294 
  "/>
<polyline clip-path="url(#clip930)" style="stroke:#000000; stroke-width:1; stroke-opacity:1; fill:none" points="
  435.834,371.612 435.834,367.294 
  "/>
<path clip-path="url(#clip930)" d="M 0 0 M46.7413 378.91 Q45.8385 378.91 45.3813 379.801 Q44.9299 380.686 44.9299 382.469 Q44.9299 384.245 45.3813 385.136 Q45.8385 386.022 46.7413 386.022 Q47.6498 386.022 48.1012 385.136 Q48.5584 384.245 48.5584 382.469 Q48.5584 380.686 48.1012 379.801 Q47.6498 378.91 46.7413 378.91 M46.7413 377.984 Q48.1938 377.984 48.9577 379.135 Q49.7274 380.281 49.7274 382.469 Q49.7274 384.65 48.9577 385.802 Q48.1938 386.948 46.7413 386.948 Q45.2887 386.948 44.519 385.802 Q43.7552 384.65 43.7552 382.469 Q43.7552 380.281 44.519 379.135 Q45.2887 377.984 46.7413 377.984 Z" fill="#000000" fill-rule="evenodd" fill-opacity="1" /><path clip-path="url(#clip930)" d="M 0 0 M170.631 378.14 L175.221 378.14 L175.221 379.124 L171.702 379.124 L171.702 381.242 Q171.957 381.155 172.211 381.114 Q172.466 381.068 172.721 381.068 Q174.167 381.068 175.012 381.861 Q175.857 382.654 175.857 384.008 Q175.857 385.403 174.989 386.178 Q174.121 386.948 172.541 386.948 Q171.997 386.948 171.43 386.855 Q170.869 386.763 170.267 386.577 L170.267 385.403 Q170.788 385.686 171.343 385.825 Q171.899 385.964 172.518 385.964 Q173.519 385.964 174.104 385.437 Q174.688 384.911 174.688 384.008 Q174.688 383.105 174.104 382.579 Q173.519 382.052 172.518 382.052 Q172.049 382.052 171.581 382.156 Q171.118 382.26 170.631 382.48 L170.631 378.14 Z" fill="#000000" fill-rule="evenodd" fill-opacity="1" /><path clip-path="url(#clip930)" d="M 0 0 M179.624 378.91 Q178.722 378.91 178.264 379.801 Q177.813 380.686 177.813 382.469 Q177.813 384.245 178.264 385.136 Q178.722 386.022 179.624 386.022 Q180.533 386.022 180.984 385.136 Q181.442 384.245 181.442 382.469 Q181.442 380.686 180.984 379.801 Q180.533 378.91 179.624 378.91 M179.624 377.984 Q181.077 377.984 181.841 379.135 Q182.611 380.281 182.611 382.469 Q182.611 384.65 181.841 385.802 Q181.077 386.948 179.624 386.948 Q178.172 386.948 177.402 385.802 Q176.638 384.65 176.638 382.469 Q176.638 380.281 177.402 379.135 Q178.172 377.984 179.624 377.984 Z" fill="#000000" fill-rule="evenodd" fill-opacity="1" /><path clip-path="url(#clip930)" d="M 0 0 M296.978 385.796 L298.888 385.796 L298.888 379.205 L296.81 379.621 L296.81 378.557 L298.876 378.14 L300.045 378.14 L300.045 385.796 L301.955 385.796 L301.955 386.78 L296.978 386.78 L296.978 385.796 Z" fill="#000000" fill-rule="evenodd" fill-opacity="1" /><path clip-path="url(#clip930)" d="M 0 0 M305.722 378.91 Q304.82 378.91 304.362 379.801 Q303.911 380.686 303.911 382.469 Q303.911 384.245 304.362 385.136 Q304.82 386.022 305.722 386.022 Q306.631 386.022 307.082 385.136 Q307.539 384.245 307.539 382.469 Q307.539 380.686 307.082 379.801 Q306.631 378.91 305.722 378.91 M305.722 377.984 Q307.175 377.984 307.939 379.135 Q308.708 380.281 308.708 382.469 Q308.708 384.65 307.939 385.802 Q307.175 386.948 305.722 386.948 Q304.27 386.948 303.5 385.802 Q302.736 384.65 302.736 382.469 Q302.736 380.281 303.5 379.135 Q304.27 377.984 305.722 377.984 Z" fill="#000000" fill-rule="evenodd" fill-opacity="1" /><path clip-path="url(#clip930)" d="M 0 0 M312.476 378.91 Q311.573 378.91 311.116 379.801 Q310.664 380.686 310.664 382.469 Q310.664 384.245 311.116 385.136 Q311.573 386.022 312.476 386.022 Q313.384 386.022 313.836 385.136 Q314.293 384.245 314.293 382.469 Q314.293 380.686 313.836 379.801 Q313.384 378.91 312.476 378.91 M312.476 377.984 Q313.928 377.984 314.692 379.135 Q315.462 380.281 315.462 382.469 Q315.462 384.65 314.692 385.802 Q313.928 386.948 312.476 386.948 Q311.023 386.948 310.254 385.802 Q309.49 384.65 309.49 382.469 Q309.49 380.281 310.254 379.135 Q311.023 377.984 312.476 377.984 Z" fill="#000000" fill-rule="evenodd" fill-opacity="1" /><path clip-path="url(#clip930)" d="M 0 0 M426.8 385.796 L428.71 385.796 L428.71 379.205 L426.632 379.621 L426.632 378.557 L428.698 378.14 L429.867 378.14 L429.867 385.796 L431.777 385.796 L431.777 386.78 L426.8 386.78 L426.8 385.796 Z" fill="#000000" fill-rule="evenodd" fill-opacity="1" /><path clip-path="url(#clip930)" d="M 0 0 M433.056 378.14 L437.645 378.14 L437.645 379.124 L434.126 379.124 L434.126 381.242 Q434.381 381.155 434.636 381.114 Q434.89 381.068 435.145 381.068 Q436.592 381.068 437.437 381.861 Q438.281 382.654 438.281 384.008 Q438.281 385.403 437.413 386.178 Q436.545 386.948 434.966 386.948 Q434.422 386.948 433.854 386.855 Q433.293 386.763 432.691 386.577 L432.691 385.403 Q433.212 385.686 433.768 385.825 Q434.323 385.964 434.942 385.964 Q435.944 385.964 436.528 385.437 Q437.113 384.911 437.113 384.008 Q437.113 383.105 436.528 382.579 Q435.944 382.052 434.942 382.052 Q434.474 382.052 434.005 382.156 Q433.542 382.26 433.056 382.48 L433.056 378.14 Z" fill="#000000" fill-rule="evenodd" fill-opacity="1" /><path clip-path="url(#clip930)" d="M 0 0 M442.049 378.91 Q441.146 378.91 440.689 379.801 Q440.237 380.686 440.237 382.469 Q440.237 384.245 440.689 385.136 Q441.146 386.022 442.049 386.022 Q442.957 386.022 443.409 385.136 Q443.866 384.245 443.866 382.469 Q443.866 380.686 443.409 379.801 Q442.957 378.91 442.049 378.91 M442.049 377.984 Q443.501 377.984 444.265 379.135 Q445.035 380.281 445.035 382.469 Q445.035 384.65 444.265 385.802 Q443.501 386.948 442.049 386.948 Q440.596 386.948 439.827 385.802 Q439.063 384.65 439.063 382.469 Q439.063 380.281 439.827 379.135 Q440.596 377.984 442.049 377.984 Z" fill="#000000" fill-rule="evenodd" fill-opacity="1" /><polyline clip-path="url(#clip932)" style="stroke:#000000; stroke-width:0.5; stroke-opacity:0.1; fill:none" points="
  36.9621,365.351 474.146,365.351 
  "/>
<polyline clip-path="url(#clip932)" style="stroke:#000000; stroke-width:0.5; stroke-opacity:0.1; fill:none" points="
  36.9621,292.387 474.146,292.387 
  "/>
<polyline clip-path="url(#clip932)" style="stroke:#000000; stroke-width:0.5; stroke-opacity:0.1; fill:none" points="
  36.9621,219.422 474.146,219.422 
  "/>
<polyline clip-path="url(#clip932)" style="stroke:#000000; stroke-width:0.5; stroke-opacity:0.1; fill:none" points="
  36.9621,146.457 474.146,146.457 
  "/>
<polyline clip-path="url(#clip932)" style="stroke:#000000; stroke-width:0.5; stroke-opacity:0.1; fill:none" points="
  36.9621,73.4926 474.146,73.4926 
  "/>
<polyline clip-path="url(#clip930)" style="stroke:#000000; stroke-width:1; stroke-opacity:1; fill:none" points="
  36.9621,371.612 36.9621,11.811 
  "/>
<polyline clip-path="url(#clip930)" style="stroke:#000000; stroke-width:1; stroke-opacity:1; fill:none" points="
  36.9621,365.351 42.2083,365.351 
  "/>
<polyline clip-path="url(#clip930)" style="stroke:#000000; stroke-width:1; stroke-opacity:1; fill:none" points="
  36.9621,292.387 42.2083,292.387 
  "/>
<polyline clip-path="url(#clip930)" style="stroke:#000000; stroke-width:1; stroke-opacity:1; fill:none" points="
  36.9621,219.422 42.2083,219.422 
  "/>
<polyline clip-path="url(#clip930)" style="stroke:#000000; stroke-width:1; stroke-opacity:1; fill:none" points="
  36.9621,146.457 42.2083,146.457 
  "/>
<polyline clip-path="url(#clip930)" style="stroke:#000000; stroke-width:1; stroke-opacity:1; fill:none" points="
  36.9621,73.4926 42.2083,73.4926 
  "/>
<path clip-path="url(#clip930)" d="M 0 0 M15.7341 361.801 Q14.8314 361.801 14.3742 362.692 Q13.9228 363.578 13.9228 365.36 Q13.9228 367.137 14.3742 368.028 Q14.8314 368.913 15.7341 368.913 Q16.6427 368.913 17.0941 368.028 Q17.5512 367.137 17.5512 365.36 Q17.5512 363.578 17.0941 362.692 Q16.6427 361.801 15.7341 361.801 M15.7341 360.875 Q17.1867 360.875 17.9505 362.027 Q18.7202 363.173 18.7202 365.36 Q18.7202 367.542 17.9505 368.693 Q17.1867 369.839 15.7341 369.839 Q14.2816 369.839 13.5119 368.693 Q12.748 367.542 12.748 365.36 Q12.748 363.173 13.5119 362.027 Q14.2816 360.875 15.7341 360.875 Z" fill="#000000" fill-rule="evenodd" fill-opacity="1" /><path clip-path="url(#clip930)" d="M 0 0 M19.9876 368.202 L21.2086 368.202 L21.2086 369.671 L19.9876 369.671 L19.9876 368.202 Z" fill="#000000" fill-rule="evenodd" fill-opacity="1" /><path clip-path="url(#clip930)" d="M 0 0 M24.976 361.801 Q24.0732 361.801 23.616 362.692 Q23.1646 363.578 23.1646 365.36 Q23.1646 367.137 23.616 368.028 Q24.0732 368.913 24.976 368.913 Q25.8845 368.913 26.3359 368.028 Q26.7931 367.137 26.7931 365.36 Q26.7931 363.578 26.3359 362.692 Q25.8845 361.801 24.976 361.801 M24.976 360.875 Q26.4285 360.875 27.1924 362.027 Q27.9621 363.173 27.9621 365.36 Q27.9621 367.542 27.1924 368.693 Q26.4285 369.839 24.976 369.839 Q23.5234 369.839 22.7538 368.693 Q21.9899 367.542 21.9899 365.36 Q21.9899 363.173 22.7538 362.027 Q23.5234 360.875 24.976 360.875 Z" fill="#000000" fill-rule="evenodd" fill-opacity="1" /><path clip-path="url(#clip930)" d="M 0 0 M15.983 288.836 Q15.0802 288.836 14.623 289.728 Q14.1716 290.613 14.1716 292.395 Q14.1716 294.172 14.623 295.063 Q15.0802 295.949 15.983 295.949 Q16.8915 295.949 17.3429 295.063 Q17.8001 294.172 17.8001 292.395 Q17.8001 290.613 17.3429 289.728 Q16.8915 288.836 15.983 288.836 M15.983 287.911 Q17.4355 287.911 18.1994 289.062 Q18.9691 290.208 18.9691 292.395 Q18.9691 294.577 18.1994 295.729 Q17.4355 296.875 15.983 296.875 Q14.5304 296.875 13.7608 295.729 Q12.9969 294.577 12.9969 292.395 Q12.9969 290.208 13.7608 289.062 Q14.5304 287.911 15.983 287.911 Z" fill="#000000" fill-rule="evenodd" fill-opacity="1" /><path clip-path="url(#clip930)" d="M 0 0 M20.2364 295.237 L21.4575 295.237 L21.4575 296.707 L20.2364 296.707 L20.2364 295.237 Z" fill="#000000" fill-rule="evenodd" fill-opacity="1" /><path clip-path="url(#clip930)" d="M 0 0 M22.7364 288.067 L27.3255 288.067 L27.3255 289.051 L23.807 289.051 L23.807 291.169 Q24.0616 291.082 24.3163 291.041 Q24.5709 290.995 24.8255 290.995 Q26.2723 290.995 27.1172 291.788 Q27.9621 292.581 27.9621 293.935 Q27.9621 295.329 27.094 296.105 Q26.226 296.875 24.6461 296.875 Q24.1021 296.875 23.535 296.782 Q22.9737 296.689 22.3718 296.504 L22.3718 295.329 Q22.8927 295.613 23.4482 295.752 Q24.0038 295.891 24.623 295.891 Q25.6241 295.891 26.2086 295.364 Q26.7931 294.838 26.7931 293.935 Q26.7931 293.032 26.2086 292.505 Q25.6241 291.979 24.623 291.979 Q24.1542 291.979 23.6855 292.083 Q23.2225 292.187 22.7364 292.407 L22.7364 288.067 Z" fill="#000000" fill-rule="evenodd" fill-opacity="1" /><path clip-path="url(#clip930)" d="M 0 0 M13.7434 222.758 L15.6531 222.758 L15.6531 216.167 L13.5756 216.584 L13.5756 215.519 L15.6415 215.102 L16.8105 215.102 L16.8105 222.758 L18.7202 222.758 L18.7202 223.742 L13.7434 223.742 L13.7434 222.758 Z" fill="#000000" fill-rule="evenodd" fill-opacity="1" /><path clip-path="url(#clip930)" d="M 0 0 M19.9876 222.272 L21.2086 222.272 L21.2086 223.742 L19.9876 223.742 L19.9876 222.272 Z" fill="#000000" fill-rule="evenodd" fill-opacity="1" /><path clip-path="url(#clip930)" d="M 0 0 M24.976 215.872 Q24.0732 215.872 23.616 216.763 Q23.1646 217.648 23.1646 219.431 Q23.1646 221.207 23.616 222.099 Q24.0732 222.984 24.976 222.984 Q25.8845 222.984 26.3359 222.099 Q26.7931 221.207 26.7931 219.431 Q26.7931 217.648 26.3359 216.763 Q25.8845 215.872 24.976 215.872 M24.976 214.946 Q26.4285 214.946 27.1924 216.097 Q27.9621 217.243 27.9621 219.431 Q27.9621 221.612 27.1924 222.764 Q26.4285 223.91 24.976 223.91 Q23.5234 223.91 22.7538 222.764 Q21.9899 221.612 21.9899 219.431 Q21.9899 217.243 22.7538 216.097 Q23.5234 214.946 24.976 214.946 Z" fill="#000000" fill-rule="evenodd" fill-opacity="1" /><path clip-path="url(#clip930)" d="M 0 0 M13.9922 149.794 L15.9019 149.794 L15.9019 143.202 L13.8244 143.619 L13.8244 142.554 L15.8904 142.137 L17.0594 142.137 L17.0594 149.794 L18.9691 149.794 L18.9691 150.777 L13.9922 150.777 L13.9922 149.794 Z" fill="#000000" fill-rule="evenodd" fill-opacity="1" /><path clip-path="url(#clip930)" d="M 0 0 M20.2364 149.307 L21.4575 149.307 L21.4575 150.777 L20.2364 150.777 L20.2364 149.307 Z" fill="#000000" fill-rule="evenodd" fill-opacity="1" /><path clip-path="url(#clip930)" d="M 0 0 M22.7364 142.137 L27.3255 142.137 L27.3255 143.121 L23.807 143.121 L23.807 145.239 Q24.0616 145.152 24.3163 145.112 Q24.5709 145.066 24.8255 145.066 Q26.2723 145.066 27.1172 145.858 Q27.9621 146.651 27.9621 148.005 Q27.9621 149.4 27.094 150.176 Q26.226 150.945 24.6461 150.945 Q24.1021 150.945 23.535 150.853 Q22.9737 150.76 22.3718 150.575 L22.3718 149.4 Q22.8927 149.684 23.4482 149.823 Q24.0038 149.961 24.623 149.961 Q25.6241 149.961 26.2086 149.435 Q26.7931 148.908 26.7931 148.005 Q26.7931 147.103 26.2086 146.576 Q25.6241 146.049 24.623 146.049 Q24.1542 146.049 23.6855 146.154 Q23.2225 146.258 22.7364 146.478 L22.7364 142.137 Z" fill="#000000" fill-rule="evenodd" fill-opacity="1" /><path clip-path="url(#clip930)" d="M 0 0 M14.6404 76.8289 L18.7202 76.8289 L18.7202 77.8126 L13.2341 77.8126 L13.2341 76.8289 Q13.8996 76.1402 15.0455 74.9828 Q16.1971 73.8196 16.4922 73.484 Q17.0536 72.8532 17.2735 72.4192 Q17.4992 71.9793 17.4992 71.5569 Q17.4992 70.8682 17.0131 70.4342 Q16.5327 70.0002 15.7573 70.0002 Q15.2075 70.0002 14.5941 70.1912 Q13.9865 70.3821 13.292 70.7699 L13.292 69.5893 Q13.998 69.3057 14.6114 69.1611 Q15.2249 69.0164 15.7341 69.0164 Q17.0767 69.0164 17.8753 69.6877 Q18.6739 70.359 18.6739 71.4817 Q18.6739 72.0141 18.4714 72.4944 Q18.2746 72.9689 17.748 73.6171 Q17.6033 73.7849 16.8279 74.5893 Q16.0524 75.3879 14.6404 76.8289 Z" fill="#000000" fill-rule="evenodd" fill-opacity="1" /><path clip-path="url(#clip930)" d="M 0 0 M19.9876 76.3427 L21.2086 76.3427 L21.2086 77.8126 L19.9876 77.8126 L19.9876 76.3427 Z" fill="#000000" fill-rule="evenodd" fill-opacity="1" /><path clip-path="url(#clip930)" d="M 0 0 M24.976 69.9423 Q24.0732 69.9423 23.616 70.8335 Q23.1646 71.7189 23.1646 73.5013 Q23.1646 75.2779 23.616 76.1691 Q24.0732 77.0546 24.976 77.0546 Q25.8845 77.0546 26.3359 76.1691 Q26.7931 75.2779 26.7931 73.5013 Q26.7931 71.7189 26.3359 70.8335 Q25.8845 69.9423 24.976 69.9423 M24.976 69.0164 Q26.4285 69.0164 27.1924 70.168 Q27.9621 71.3138 27.9621 73.5013 Q27.9621 75.683 27.1924 76.8346 Q26.4285 77.9805 24.976 77.9805 Q23.5234 77.9805 22.7538 76.8346 Q21.9899 75.683 21.9899 73.5013 Q21.9899 71.3138 22.7538 70.168 Q23.5234 69.0164 24.976 69.0164 Z" fill="#000000" fill-rule="evenodd" fill-opacity="1" /><polyline clip-path="url(#clip932)" style="stroke:#009af9; stroke-width:1; stroke-opacity:1; fill:none" points="
  49.3352,227.843 51.9292,220.096 54.5231,222.261 57.1171,227.718 59.711,228.9 62.305,227.071 64.8989,218.38 67.4928,219.521 70.0868,212.756 72.6807,223.518 
  75.2747,233.199 77.8686,219.861 80.4626,218.218 83.0565,214.584 85.6505,205.632 88.2444,216.066 90.8384,218.437 93.4323,209.726 96.0263,218.334 98.6202,210.677 
  101.214,211.406 103.808,210.296 106.402,207.683 108.996,204.776 111.59,203.554 114.184,199.449 116.778,207.201 119.372,213.705 121.966,219.405 124.56,217.12 
  127.154,220.483 129.748,216.736 132.342,224.914 134.936,215.067 137.529,211.086 140.123,222.035 142.717,223.181 145.311,223.932 147.905,223.48 150.499,232.754 
  153.093,225.308 155.687,217.07 158.281,209.936 160.875,206.821 163.469,210.891 166.063,204.576 168.657,218.948 171.251,210.636 173.845,215.166 176.439,216.104 
  179.033,207.317 181.627,197.468 184.221,200.864 186.814,202.218 189.408,198.196 192.002,194.464 194.596,186.134 197.19,193.707 199.784,192.43 202.378,198.351 
  204.972,211.391 207.566,198.507 210.16,189.978 212.754,186.82 215.348,180.506 217.942,178.766 220.536,184.901 223.13,200.213 225.724,209.71 228.318,205.719 
  230.912,204.571 233.506,212.929 236.1,215.405 238.693,218.475 241.287,215.716 243.881,202.683 246.475,205.138 249.069,207.634 251.663,201.082 254.257,209.991 
  256.851,213.607 259.445,205.985 262.039,216.429 264.633,216.94 267.227,210.96 269.821,203.246 272.415,203.393 275.009,210.236 277.603,216.23 280.197,224.625 
  282.791,222.396 285.385,228.221 287.978,233.439 290.572,223.478 293.166,230.828 295.76,231.494 298.354,233.424 300.948,239.82 303.542,242.198 306.136,241.451 
  308.73,251.63 311.324,240.096 313.918,230.724 316.512,230.557 319.106,230.963 321.7,226.035 324.294,222.224 326.888,224.307 329.482,223.222 332.076,207.794 
  334.67,218.367 337.264,216.087 339.857,220.267 342.451,225.505 345.045,211.734 347.639,204.249 350.233,206.055 352.827,210.251 355.421,211.612 358.015,206.934 
  360.609,207.335 363.203,197.178 365.797,190.683 368.391,192.877 370.985,202.304 373.579,199.25 376.173,193.885 378.767,210.931 381.361,213.411 383.955,208.405 
  386.549,204.181 389.142,213.33 391.736,193.362 394.33,199.918 396.924,205.203 399.518,213.11 402.112,212.681 404.706,200.905 407.3,206.275 409.894,208.697 
  412.488,206.326 415.082,195.994 417.676,193.551 420.27,202.311 422.864,202.56 425.458,207.931 428.052,217.081 430.646,212.147 433.24,212.218 435.834,215.74 
  438.428,219.02 441.021,219.899 443.615,212.564 446.209,211.316 448.803,207.433 451.397,212.006 453.991,206.553 456.585,206.362 459.179,214.859 461.773,223.852 
  
  "/>
<polyline clip-path="url(#clip932)" style="stroke:#e26f46; stroke-width:1; stroke-opacity:1; fill:none" points="
  49.3352,252.133 51.9292,251.828 54.5231,252.112 57.1171,252.864 59.711,253.032 62.305,253.004 64.8989,252.611 67.4928,252.602 70.0868,251.997 72.6807,252.987 
  75.2747,254.251 77.8686,253.356 80.4626,253.419 83.0565,252.99 85.6505,252.02 88.2444,252.736 90.8384,252.524 93.4323,251.953 96.0263,252.686 98.6202,251.862 
  101.214,251.686 103.808,251.37 106.402,251.085 108.996,250.577 111.59,250.227 114.184,249.577 116.778,249.896 119.372,250.547 121.966,250.886 124.56,250.934 
  127.154,251.272 129.748,251.225 132.342,252.128 134.936,251.739 137.529,251.239 140.123,252.095 142.717,252.364 145.311,252.677 147.905,252.694 150.499,253.949 
  153.093,253.461 155.687,252.904 158.281,251.994 160.875,251.705 163.469,251.776 166.063,250.806 168.657,251.959 171.251,251.255 173.845,251.318 176.439,251.311 
  179.033,250.634 181.627,249.634 184.221,249.771 186.814,249.344 189.408,248.615 192.002,247.917 194.596,247.023 197.19,246.921 199.784,246.33 202.378,246.549 
  204.972,247.44 207.566,246.46 210.16,245.582 212.754,244.911 215.348,243.925 217.942,243.418 220.536,243.404 223.13,244.447 225.724,245.12 228.318,244.861 
  230.912,244.851 233.506,245.591 236.1,246.014 238.693,246.594 241.287,246.716 243.881,245.759 246.475,246.217 249.069,246.364 251.663,245.758 254.257,246.731 
  256.851,246.896 259.445,246.486 262.039,247.267 264.633,247.713 267.227,247.436 269.821,246.834 272.415,246.885 275.009,247.434 277.603,247.882 280.197,248.799 
  282.791,248.967 285.385,249.725 287.978,250.712 290.572,250.185 293.166,251.373 295.76,251.888 298.354,252.527 300.948,253.529 303.542,254.319 306.136,254.815 
  308.73,256.313 311.324,255.769 313.918,255.303 316.512,255.386 319.106,255.704 321.7,255.373 324.294,255.008 326.888,255.308 329.482,255.262 332.076,254 
  334.67,254.55 337.264,254.202 339.857,254.679 342.451,255.242 345.045,253.871 347.639,252.995 350.233,252.742 352.827,252.753 355.421,252.549 358.015,251.768 
  360.609,251.602 363.203,250.542 365.797,249.215 368.391,248.92 370.985,249.373 373.579,248.826 376.173,247.966 378.767,249.018 381.361,249.2 383.955,248.767 
  386.549,248.269 389.142,248.895 391.736,247.431 394.33,247.579 396.924,247.86 399.518,248.695 402.112,248.372 404.706,247.378 407.3,247.552 409.894,247.575 
  412.488,247.695 415.082,246.72 417.676,246.225 420.27,246.545 422.864,246.459 425.458,246.95 428.052,247.573 430.646,247.421 433.24,247.66 435.834,248.197 
  438.428,248.626 441.021,249.036 443.615,248.65 446.209,248.683 448.803,248.23 451.397,248.63 453.991,248.429 456.585,248.525 459.179,248.977 461.773,249.893 
  
  "/>
<polyline clip-path="url(#clip932)" style="stroke:#3da44d; stroke-width:1; stroke-opacity:1; fill:none" points="
  49.3352,320.998 51.9292,317.996 54.5231,318.64 57.1171,319.738 59.711,320.769 62.305,320.597 64.8989,317.053 67.4928,317.967 70.0868,316.121 72.6807,318.863 
  75.2747,320.788 77.8686,316.383 80.4626,314.989 83.0565,314.276 85.6505,312.037 88.2444,315.061 90.8384,317.557 93.4323,314.092 96.0263,316.168 98.6202,314.583 
  101.214,315.35 103.808,315.562 106.402,314.533 108.996,314.152 111.59,314.009 114.184,313.255 116.778,315.791 119.372,316.747 121.966,319.136 124.56,317.826 
  127.154,318.899 129.748,317.025 132.342,318.921 134.936,314.484 137.529,313.927 140.123,317.44 142.717,317.607 145.311,317.366 147.905,317.617 150.499,319.373 
  153.093,317.399 155.687,314.593 158.281,313.646 160.875,312.1 163.469,313.777 166.063,313.382 168.657,317.191 171.251,314.809 173.845,317.243 176.439,317.897 
  179.033,314.974 181.627,312.19 184.221,312.367 186.814,314.175 189.408,313.92 192.002,313.483 194.596,310.733 197.19,314.117 199.784,314.706 202.378,316.199 
  204.972,319.882 207.566,316.207 210.16,314.001 212.754,313.691 215.348,312.732 217.942,312.015 220.536,313.866 223.13,317.312 225.724,320.159 228.318,319.293 
  230.912,318.834 233.506,321.031 236.1,321.526 238.693,321.919 241.287,320.696 243.881,317.303 246.475,316.651 249.069,317.589 251.663,316.217 254.257,317.338 
  256.851,319.311 259.445,316.762 262.039,320.152 264.633,319.37 267.227,317.414 269.821,315.317 272.415,314.856 275.009,316.635 277.603,318.895 280.197,321.243 
  282.791,320.321 285.385,322.086 287.978,322.969 290.572,320.164 293.166,321.136 295.76,320.878 298.354,320.98 300.948,322.85 303.542,323.232 306.136,322.677 
  308.73,325.893 311.324,322.26 313.918,319.042 316.512,319.39 319.106,319.087 321.7,317.713 324.294,316.904 326.888,317.084 329.482,316.672 332.076,311.245 
  334.67,315.145 337.264,314.798 339.857,315.178 342.451,316.384 345.045,312.927 347.639,310.777 350.233,311.821 352.827,313.571 355.421,314.718 358.015,314.434 
  360.609,314.524 363.203,311.551 365.797,311.749 368.391,312.476 370.985,314.876 373.579,314.399 376.173,313.683 378.767,318.668 381.361,319.465 383.955,318.218 
  386.549,317.416 389.142,320.077 391.736,313.795 394.33,315.954 396.924,317.318 399.518,318.478 402.112,319.812 404.706,316.781 407.3,318.765 409.894,319.963 
  412.488,317.937 415.082,315.389 417.676,315.03 420.27,318.003 422.864,318.127 425.458,319.046 428.052,322.238 430.646,320.49 433.24,319.863 435.834,320.171 
  438.428,321.038 441.021,320.66 443.615,318.28 446.209,317.514 448.803,317.039 451.397,318.091 453.991,315.507 456.585,314.624 459.179,318.028 461.773,320.498 
  
  "/>
<polyline clip-path="url(#clip932)" style="stroke:#c271d2; stroke-width:1; stroke-opacity:1; fill:none" points="
  49.3352,360.8 51.9292,360.502 54.5231,360.56 57.1171,360.723 59.711,360.728 62.305,360.628 64.8989,360.297 67.4928,360.333 70.0868,360.093 72.6807,360.479 
  75.2747,360.795 77.8686,360.283 80.4626,360.222 83.0565,360.097 85.6505,359.8 88.2444,360.207 90.8384,360.295 93.4323,359.992 96.0263,360.315 98.6202,360.049 
  101.214,360.097 103.808,360.078 106.402,360.01 108.996,359.942 111.59,359.939 114.184,359.842 116.778,360.15 119.372,360.386 121.966,360.573 124.56,360.48 
  127.154,360.582 129.748,360.439 132.342,360.704 134.936,360.345 137.529,360.214 140.123,360.593 142.717,360.611 145.311,360.613 147.905,360.574 150.499,360.866 
  153.093,360.565 155.687,360.258 158.281,360.015 160.875,359.935 163.469,360.11 166.063,359.917 168.657,360.44 171.251,360.15 173.845,360.32 176.439,360.352 
  179.033,360.054 181.627,359.753 184.221,359.927 186.814,360.017 189.408,359.924 192.002,359.852 194.596,359.644 197.19,359.97 199.784,359.982 202.378,360.218 
  204.972,360.65 207.566,360.243 210.16,360.01 212.754,359.969 215.348,359.841 217.942,359.869 220.536,360.13 223.13,360.63 225.724,360.912 228.318,360.778 
  230.912,360.736 233.506,360.976 236.1,361.023 238.693,361.084 241.287,360.966 243.881,360.548 246.475,360.629 249.069,360.704 251.663,360.503 254.257,360.78 
  256.851,360.876 259.445,360.626 262.039,360.939 264.633,360.927 267.227,360.719 269.821,360.474 272.415,360.49 275.009,360.707 277.603,360.88 280.197,361.111 
  282.791,360.999 285.385,361.143 287.978,361.257 290.572,360.882 293.166,361.082 295.76,361.054 298.354,361.066 300.948,361.225 303.542,361.238 306.136,361.143 
  308.73,361.429 311.324,360.932 313.918,360.533 316.512,360.494 319.106,360.477 321.7,360.264 324.294,360.109 326.888,360.186 329.482,360.138 332.076,359.566 
  334.67,360.011 337.264,359.941 339.857,360.112 342.451,360.306 345.045,359.792 347.639,359.559 350.233,359.689 352.827,359.891 355.421,359.972 358.015,359.834 
  360.609,359.889 363.203,359.576 365.797,359.43 368.391,359.598 370.985,359.989 373.579,359.927 376.173,359.799 378.767,360.411 381.361,360.492 383.955,360.325 
  386.549,360.199 389.142,360.514 391.736,359.867 394.33,360.134 396.924,360.333 399.518,360.596 402.112,360.573 404.706,360.193 407.3,360.39 409.894,360.474 
  412.488,360.401 415.082,360.087 417.676,360.052 420.27,360.369 422.864,360.393 425.458,360.571 428.052,360.85 430.646,360.671 433.24,360.661 435.834,360.758 
  438.428,360.84 441.021,360.839 443.615,360.58 446.209,360.533 448.803,360.408 451.397,360.559 453.991,360.382 456.585,360.387 459.179,360.665 461.773,360.933 
  
  "/>
<polyline clip-path="url(#clip932)" style="stroke:#ac8d18; stroke-width:1; stroke-opacity:1; fill:none" points="
  49.3352,62.3076 51.9292,65.4784 54.5231,65.8823 57.1171,70.3709 59.711,66.1574 62.305,63.3196 64.8989,67.8409 67.4928,64.4715 70.0868,62.3051 72.6807,67.079 
  75.2747,75.433 77.8686,74.8491 80.4626,79.6804 83.0565,76.7126 85.6505,72.4069 88.2444,75.1005 90.8384,64.8272 93.4323,68.4959 96.0263,73.0884 98.6202,67.4587 
  101.214,64.3248 103.808,60.8696 106.402,61.9986 108.996,58.7087 111.59,57.2333 114.184,53.9887 116.778,53.3742 119.372,60.3148 121.966,56.6336 124.56,60.422 
  127.154,60.4679 129.748,64.6914 132.342,69.638 134.936,76.4647 137.529,72.028 140.123,72.8896 142.717,74.2085 145.311,77.2 147.905,74.7596 150.499,83.3873 
  153.093,79.8035 155.687,79.7021 158.281,71.4493 160.875,74.2518 163.469,72.5105 166.063,62.8678 168.657,68.1358 171.251,66.0513 173.845,60.1373 176.439,57.8739 
  179.033,58.6432 181.627,56.5698 184.221,61.8031 186.814,53.6846 189.408,47.5951 192.002,43.2354 194.596,44.5076 197.19,37.8464 199.784,31.6081 202.378,33.2946 
  204.972,34.5303 207.566,33.5537 210.16,31.5269 212.754,27.5679 215.348,21.9941 217.942,23.4171 220.536,22.8893 223.13,29.634 225.724,29.1725 228.318,26.9889 
  230.912,27.8717 233.506,29.6615 236.1,31.3756 238.693,35.2229 241.287,38.1281 243.881,34.6041 246.475,43.8775 249.069,42.7082 251.663,38.657 254.257,49.1408 
  256.851,43.3729 259.445,44.8319 262.039,43.4989 264.633,49.9845 267.227,50.5835 269.821,48.6506 272.415,51.7991 275.009,54.1244 277.603,51.6738 280.197,53.6289 
  282.791,55.1282 285.385,55.6683 287.978,61.2392 290.572,58.5062 293.166,67.9847 295.76,71.1531 298.354,74.7173 300.948,76.6675 303.542,79.5676 306.136,81.5542 
  308.73,83.6854 311.324,81.2263 313.918,81.1132 316.512,78.6229 319.106,81.3391 321.7,79.3962 324.294,76.4758 326.888,79.6088 329.482,79.8416 332.076,80.5169 
  334.67,79.0543 337.264,76.6174 339.857,82.5654 342.451,86.0676 345.045,78.7813 347.639,76.6481 350.233,74.3366 352.827,72.4472 355.421,68.4666 358.015,61.1503 
  360.609,61.3851 363.203,59.6961 365.797,46.7381 368.391,46.4239 370.985,49.5525 373.579,46.648 376.173,40.9199 378.767,42.0782 381.361,41.7603 383.955,39.9153 
  386.549,36.7368 389.142,37.2288 391.736,39.2262 394.33,38.0038 396.924,39.4941 399.518,47.9128 402.112,37.7592 404.706,34.4423 407.3,31.6768 409.894,28.1321 
  412.488,37.5705 415.082,34.0269 417.676,31.6505 420.27,28.8924 422.864,28.537 425.458,33.2024 428.052,29.4658 430.646,31.7275 433.24,36.4387 435.834,41.7882 
  438.428,42.7033 441.021,47.3191 443.615,48.1086 446.209,50.6065 448.803,45.853 451.397,48.2115 453.991,53.8898 456.585,58.9157 459.179,54.5037 461.773,57.0206 
  
  "/>
<path clip-path="url(#clip930)" d="
M492.52 114.524 L588.189 114.524 L588.189 23.8044 L492.52 23.8044  Z
  " fill="#ffffff" fill-rule="evenodd" fill-opacity="1"/>
<polyline clip-path="url(#clip930)" style="stroke:#000000; stroke-width:1; stroke-opacity:1; fill:none" points="
  492.52,114.524 588.189,114.524 588.189,23.8044 492.52,23.8044 492.52,114.524 
  "/>
<polyline clip-path="url(#clip930)" style="stroke:#009af9; stroke-width:1; stroke-opacity:1; fill:none" points="
  498.645,38.9244 535.394,38.9244 
  "/>
<path clip-path="url(#clip930)" d="M 0 0 M544.493 37.5095 Q543.636 37.5095 543.139 38.1808 Q542.641 38.8463 542.641 40.0095 Q542.641 41.1726 543.133 41.8439 Q543.631 42.5094 544.493 42.5094 Q545.344 42.5094 545.841 41.8381 Q546.339 41.1669 546.339 40.0095 Q546.339 38.8578 545.841 38.1865 Q545.344 37.5095 544.493 37.5095 M544.493 36.6067 Q545.882 36.6067 546.675 37.5095 Q547.467 38.4122 547.467 40.0095 Q547.467 41.6009 546.675 42.5094 Q545.882 43.4122 544.493 43.4122 Q543.098 43.4122 542.305 42.5094 Q541.518 41.6009 541.518 40.0095 Q541.518 38.4122 542.305 37.5095 Q543.098 36.6067 544.493 36.6067 Z" fill="#000000" fill-rule="evenodd" fill-opacity="1" /><path clip-path="url(#clip930)" d="M 0 0 M548.474 40.6865 L548.474 36.7629 L549.539 36.7629 L549.539 40.646 Q549.539 41.5662 549.898 42.0291 Q550.257 42.4863 550.974 42.4863 Q551.837 42.4863 552.334 41.9365 Q552.838 41.3868 552.838 40.4377 L552.838 36.7629 L553.903 36.7629 L553.903 43.2444 L552.838 43.2444 L552.838 42.249 Q552.45 42.8393 551.935 43.1286 Q551.426 43.4122 550.749 43.4122 Q549.632 43.4122 549.053 42.7178 Q548.474 42.0233 548.474 40.6865 M551.154 36.6067 L551.154 36.6067 Z" fill="#000000" fill-rule="evenodd" fill-opacity="1" /><path clip-path="url(#clip930)" d="M 0 0 M556.073 34.9227 L556.073 36.7629 L558.266 36.7629 L558.266 37.5905 L556.073 37.5905 L556.073 41.109 Q556.073 41.9018 556.287 42.1275 Q556.507 42.3532 557.172 42.3532 L558.266 42.3532 L558.266 43.2444 L557.172 43.2444 Q555.94 43.2444 555.471 42.7872 Q555.002 42.3243 555.002 41.109 L555.002 37.5905 L554.221 37.5905 L554.221 36.7629 L555.002 36.7629 L555.002 34.9227 L556.073 34.9227 Z" fill="#000000" fill-rule="evenodd" fill-opacity="1" /><path clip-path="url(#clip930)" d="M 0 0 M560.413 42.2722 L560.413 45.7097 L559.342 45.7097 L559.342 36.7629 L560.413 36.7629 L560.413 37.7467 Q560.749 37.168 561.258 36.8903 Q561.773 36.6067 562.485 36.6067 Q563.665 36.6067 564.4 37.5442 Q565.141 38.4817 565.141 40.0095 Q565.141 41.5372 564.4 42.4747 Q563.665 43.4122 562.485 43.4122 Q561.773 43.4122 561.258 43.1344 Q560.749 42.8509 560.413 42.2722 M564.036 40.0095 Q564.036 38.8347 563.55 38.1692 Q563.069 37.4979 562.224 37.4979 Q561.379 37.4979 560.893 38.1692 Q560.413 38.8347 560.413 40.0095 Q560.413 41.1842 560.893 41.8555 Q561.379 42.521 562.224 42.521 Q563.069 42.521 563.55 41.8555 Q564.036 41.1842 564.036 40.0095 Z" fill="#000000" fill-rule="evenodd" fill-opacity="1" /><path clip-path="url(#clip930)" d="M 0 0 M566.148 40.6865 L566.148 36.7629 L567.213 36.7629 L567.213 40.646 Q567.213 41.5662 567.571 42.0291 Q567.93 42.4863 568.648 42.4863 Q569.51 42.4863 570.008 41.9365 Q570.511 41.3868 570.511 40.4377 L570.511 36.7629 L571.576 36.7629 L571.576 43.2444 L570.511 43.2444 L570.511 42.249 Q570.124 42.8393 569.609 43.1286 Q569.099 43.4122 568.422 43.4122 Q567.305 43.4122 566.727 42.7178 Q566.148 42.0233 566.148 40.6865 M568.827 36.6067 L568.827 36.6067 Z" fill="#000000" fill-rule="evenodd" fill-opacity="1" /><path clip-path="url(#clip930)" d="M 0 0 M573.746 34.9227 L573.746 36.7629 L575.939 36.7629 L575.939 37.5905 L573.746 37.5905 L573.746 41.109 Q573.746 41.9018 573.96 42.1275 Q574.18 42.3532 574.846 42.3532 L575.939 42.3532 L575.939 43.2444 L574.846 43.2444 Q573.613 43.2444 573.144 42.7872 Q572.676 42.3243 572.676 41.109 L572.676 37.5905 L571.894 37.5905 L571.894 36.7629 L572.676 36.7629 L572.676 34.9227 L573.746 34.9227 Z" fill="#000000" fill-rule="evenodd" fill-opacity="1" /><polyline clip-path="url(#clip930)" style="stroke:#e26f46; stroke-width:1; stroke-opacity:1; fill:none" points="
  498.645,54.0444 535.394,54.0444 
  "/>
<path clip-path="url(#clip930)" d="M 0 0 M546.646 52.1318 L546.646 53.1271 Q546.194 52.8783 545.737 52.7568 Q545.286 52.6295 544.823 52.6295 Q543.787 52.6295 543.214 53.2892 Q542.641 53.9431 542.641 55.1295 Q542.641 56.3158 543.214 56.9755 Q543.787 57.6294 544.823 57.6294 Q545.286 57.6294 545.737 57.5079 Q546.194 57.3806 546.646 57.1318 L546.646 58.1155 Q546.2 58.3239 545.72 58.428 Q545.245 58.5322 544.707 58.5322 Q543.243 58.5322 542.381 57.6121 Q541.518 56.6919 541.518 55.1295 Q541.518 53.5438 542.386 52.6353 Q543.26 51.7267 544.776 51.7267 Q545.268 51.7267 545.737 51.8309 Q546.206 51.9292 546.646 52.1318 Z" fill="#000000" fill-rule="evenodd" fill-opacity="1" /><path clip-path="url(#clip930)" d="M 0 0 M550.274 52.6295 Q549.418 52.6295 548.92 53.3008 Q548.422 53.9663 548.422 55.1295 Q548.422 56.2926 548.914 56.9639 Q549.412 57.6294 550.274 57.6294 Q551.125 57.6294 551.622 56.9581 Q552.12 56.2869 552.12 55.1295 Q552.12 53.9778 551.622 53.3065 Q551.125 52.6295 550.274 52.6295 M550.274 51.7267 Q551.663 51.7267 552.456 52.6295 Q553.249 53.5322 553.249 55.1295 Q553.249 56.7209 552.456 57.6294 Q551.663 58.5322 550.274 58.5322 Q548.879 58.5322 548.087 57.6294 Q547.3 56.7209 547.3 55.1295 Q547.3 53.5322 548.087 52.6295 Q548.879 51.7267 550.274 51.7267 Z" fill="#000000" fill-rule="evenodd" fill-opacity="1" /><path clip-path="url(#clip930)" d="M 0 0 M559.753 54.4524 L559.753 58.3644 L558.688 58.3644 L558.688 54.4871 Q558.688 53.567 558.33 53.1098 Q557.971 52.6526 557.253 52.6526 Q556.391 52.6526 555.893 53.2024 Q555.396 53.7521 555.396 54.7012 L555.396 58.3644 L554.325 58.3644 L554.325 51.8829 L555.396 51.8829 L555.396 52.8899 Q555.778 52.3054 556.293 52.016 Q556.813 51.7267 557.491 51.7267 Q558.607 51.7267 559.18 52.4211 Q559.753 53.1098 559.753 54.4524 Z" fill="#000000" fill-rule="evenodd" fill-opacity="1" /><path clip-path="url(#clip930)" d="M 0 0 M565.002 52.0739 L565.002 53.0809 Q564.551 52.8494 564.065 52.7336 Q563.578 52.6179 563.058 52.6179 Q562.265 52.6179 561.865 52.8609 Q561.472 53.104 561.472 53.5901 Q561.472 53.9605 561.756 54.1746 Q562.039 54.3829 562.896 54.5739 L563.26 54.6549 Q564.394 54.898 564.869 55.3436 Q565.349 55.7834 565.349 56.5762 Q565.349 57.479 564.632 58.0056 Q563.92 58.5322 562.67 58.5322 Q562.149 58.5322 561.582 58.428 Q561.021 58.3297 560.396 58.1271 L560.396 57.0276 Q560.986 57.3343 561.559 57.4906 Q562.132 57.641 562.693 57.641 Q563.445 57.641 563.85 57.3864 Q564.256 57.126 564.256 56.6572 Q564.256 56.2232 563.96 55.9917 Q563.671 55.7602 562.681 55.5461 L562.311 55.4593 Q561.322 55.251 560.882 54.8227 Q560.442 54.3887 560.442 53.6364 Q560.442 52.7221 561.09 52.2244 Q561.738 51.7267 562.93 51.7267 Q563.521 51.7267 564.041 51.8135 Q564.562 51.9003 565.002 52.0739 Z" fill="#000000" fill-rule="evenodd" fill-opacity="1" /><polyline clip-path="url(#clip930)" style="stroke:#3da44d; stroke-width:1; stroke-opacity:1; fill:none" points="
  498.645,69.1644 535.394,69.1644 
  "/>
<path clip-path="url(#clip930)" d="M 0 0 M546.947 69.5724 L546.947 73.4844 L545.882 73.4844 L545.882 69.6071 Q545.882 68.687 545.523 68.2298 Q545.164 67.7726 544.447 67.7726 Q543.584 67.7726 543.087 68.3224 Q542.589 68.8721 542.589 69.8212 L542.589 73.4844 L541.518 73.4844 L541.518 64.4798 L542.589 64.4798 L542.589 68.0099 Q542.971 67.4254 543.486 67.136 Q544.007 66.8467 544.684 66.8467 Q545.801 66.8467 546.374 67.5411 Q546.947 68.2298 546.947 69.5724 Z" fill="#000000" fill-rule="evenodd" fill-opacity="1" /><path clip-path="url(#clip930)" d="M 0 0 M550.575 67.7495 Q549.719 67.7495 549.221 68.4208 Q548.723 69.0863 548.723 70.2495 Q548.723 71.4126 549.215 72.0839 Q549.713 72.7494 550.575 72.7494 Q551.426 72.7494 551.923 72.0781 Q552.421 71.4069 552.421 70.2495 Q552.421 69.0978 551.923 68.4265 Q551.426 67.7495 550.575 67.7495 M550.575 66.8467 Q551.964 66.8467 552.757 67.7495 Q553.55 68.6522 553.55 70.2495 Q553.55 71.8409 552.757 72.7494 Q551.964 73.6522 550.575 73.6522 Q549.18 73.6522 548.388 72.7494 Q547.601 71.8409 547.601 70.2495 Q547.601 68.6522 548.388 67.7495 Q549.18 66.8467 550.575 66.8467 Z" fill="#000000" fill-rule="evenodd" fill-opacity="1" /><path clip-path="url(#clip930)" d="M 0 0 M554.557 70.9265 L554.557 67.0029 L555.621 67.0029 L555.621 70.886 Q555.621 71.8062 555.98 72.2691 Q556.339 72.7263 557.056 72.7263 Q557.919 72.7263 558.416 72.1765 Q558.92 71.6268 558.92 70.6777 L558.92 67.0029 L559.985 67.0029 L559.985 73.4844 L558.92 73.4844 L558.92 72.489 Q558.532 73.0793 558.017 73.3686 Q557.508 73.6522 556.831 73.6522 Q555.714 73.6522 555.135 72.9578 Q554.557 72.2633 554.557 70.9265 M557.236 66.8467 L557.236 66.8467 Z" fill="#000000" fill-rule="evenodd" fill-opacity="1" /><path clip-path="url(#clip930)" d="M 0 0 M564.857 67.9983 Q564.678 67.8941 564.464 67.8478 Q564.256 67.7958 564.001 67.7958 Q563.098 67.7958 562.612 68.386 Q562.132 68.9705 562.132 70.0701 L562.132 73.4844 L561.061 73.4844 L561.061 67.0029 L562.132 67.0029 L562.132 68.0099 Q562.467 67.4196 563.006 67.136 Q563.544 66.8467 564.313 66.8467 Q564.423 66.8467 564.556 66.8641 Q564.69 66.8756 564.852 66.9046 L564.857 67.9983 Z" fill="#000000" fill-rule="evenodd" fill-opacity="1" /><path clip-path="url(#clip930)" d="M 0 0 M570.106 67.1939 L570.106 68.2009 Q569.655 67.9694 569.169 67.8536 Q568.683 67.7379 568.162 67.7379 Q567.369 67.7379 566.97 67.9809 Q566.576 68.224 566.576 68.7101 Q566.576 69.0805 566.86 69.2946 Q567.143 69.5029 568 69.6939 L568.364 69.7749 Q569.499 70.018 569.973 70.4636 Q570.453 70.9034 570.453 71.6962 Q570.453 72.599 569.736 73.1256 Q569.024 73.6522 567.774 73.6522 Q567.253 73.6522 566.686 73.548 Q566.125 73.4497 565.5 73.2471 L565.5 72.1476 Q566.09 72.4543 566.663 72.6106 Q567.236 72.761 567.797 72.761 Q568.549 72.761 568.955 72.5064 Q569.36 72.246 569.36 71.7772 Q569.36 71.3432 569.065 71.1117 Q568.775 70.8802 567.786 70.6661 L567.415 70.5793 Q566.426 70.371 565.986 69.9427 Q565.546 69.5087 565.546 68.7564 Q565.546 67.8421 566.194 67.3444 Q566.842 66.8467 568.034 66.8467 Q568.625 66.8467 569.146 66.9335 Q569.666 67.0203 570.106 67.1939 Z" fill="#000000" fill-rule="evenodd" fill-opacity="1" /><polyline clip-path="url(#clip930)" style="stroke:#c271d2; stroke-width:1; stroke-opacity:1; fill:none" points="
  498.645,84.2844 535.394,84.2844 
  "/>
<path clip-path="url(#clip930)" d="M 0 0 M545.315 83.1183 Q545.135 83.0141 544.921 82.9678 Q544.713 82.9158 544.458 82.9158 Q543.555 82.9158 543.069 83.506 Q542.589 84.0905 542.589 85.1901 L542.589 88.6044 L541.518 88.6044 L541.518 82.1229 L542.589 82.1229 L542.589 83.1299 Q542.925 82.5396 543.463 82.256 Q544.001 81.9667 544.771 81.9667 Q544.881 81.9667 545.014 81.9841 Q545.147 81.9956 545.309 82.0246 L545.315 83.1183 Z" fill="#000000" fill-rule="evenodd" fill-opacity="1" /><polyline clip-path="url(#clip930)" style="stroke:#ac8d18; stroke-width:1; stroke-opacity:1; fill:none" points="
  498.645,99.4044 535.394,99.4044 
  "/>
<path clip-path="url(#clip930)" d="M 0 0 M541.518 97.2429 L542.583 97.2429 L543.914 102.301 L545.239 97.2429 L546.495 97.2429 L547.826 102.301 L549.151 97.2429 L550.216 97.2429 L548.521 103.724 L547.265 103.724 L545.87 98.4119 L544.47 103.724 L543.214 103.724 L541.518 97.2429 Z" fill="#000000" fill-rule="evenodd" fill-opacity="1" /></svg>
